<svg width="100" height="26" viewBox="0 0 100 26" fill="none" xmlns="http://www.w3.org/2000/svg">
<g clip-path="url(#clip0_581_652)">
<path d="M48.4961 19.2628V18.8867H48.7214H48.9467V19.2628V19.6391H48.7214H48.4961V19.2628Z" fill="white" stroke="white" stroke-width="0.223714"/>
<path d="M83.8571 23.7052C83.5969 23.6128 83.3602 23.3656 83.2989 23.1222C83.1949 22.7081 83.279 22.1445 83.4714 21.9644C83.6799 21.7696 83.7056 21.7651 84.7016 21.745L85.6401 21.7262L85.6295 21.3877C85.6177 21.0101 85.5745 20.9157 85.3546 20.7859C85.243 20.7197 85.1597 20.7105 84.6763 20.7105C84.1781 20.7105 84.1152 20.7181 84.0193 20.7884C83.8864 20.8864 83.7821 21.0873 83.7821 21.2465V21.3689H83.5756H83.3691V21.2197C83.3691 20.8242 83.5893 20.5036 83.9316 20.4009C84.2249 20.3128 85.179 20.3148 85.4799 20.404C85.7461 20.483 85.9712 20.6853 86.03 20.8987C86.0566 20.9955 86.0714 21.5287 86.0716 22.394L86.0718 23.7389H85.8653H85.6589V23.5884C85.6589 23.4166 85.6508 23.4121 85.5146 23.5081C85.2403 23.7009 85.0577 23.7497 84.5515 23.7642C84.1396 23.7761 84.0313 23.7669 83.8571 23.7052ZM85.1582 23.3264C85.2582 23.2823 85.4031 23.1844 85.4806 23.1087L85.6213 22.9712V22.5027V22.0342L84.8351 22.0568C83.7788 22.0873 83.7385 22.1083 83.7161 22.6419C83.7052 22.9025 83.7161 22.9935 83.7705 23.0967C83.9114 23.3647 84.1184 23.4423 84.6327 23.421C84.8776 23.4108 85.0289 23.3837 85.1582 23.3264Z" fill="white" stroke="white" stroke-width="0.223714"/>
<path d="M98.104 23.77C97.6933 23.7335 97.5541 23.6935 97.383 23.5626C97.2033 23.4255 97.1112 23.2071 97.1103 22.9172L97.1094 22.6821H97.3109H97.5125L97.5389 22.9154C97.5615 23.1152 97.5836 23.166 97.6937 23.27C97.8526 23.4201 98.0324 23.4481 98.7105 23.4279C99.0796 23.4168 99.2217 23.398 99.3163 23.347C99.4971 23.2496 99.5866 23.0794 99.5866 22.8326C99.5866 22.6937 99.5626 22.5863 99.5134 22.5053C99.3857 22.2955 99.2622 22.2593 98.5546 22.2239C97.7103 22.1816 97.5414 22.1458 97.3682 21.9722C97.1573 21.7608 97.0899 21.3456 97.2042 20.9604C97.2776 20.7127 97.4168 20.5483 97.6324 20.455C98.0199 20.2872 99.0854 20.2921 99.4487 20.4635C99.6935 20.5787 99.832 20.7868 99.8673 21.0928L99.8946 21.3279H99.6843H99.4743L99.474 21.2056C99.4738 21.0347 99.3588 20.864 99.1877 20.7816C99.0024 20.6921 98.4552 20.6635 98.0953 20.7244C97.8751 20.7615 97.8121 20.7897 97.7078 20.8975C97.6015 21.0074 97.5814 21.0577 97.57 21.2429C97.5552 21.4836 97.6002 21.6006 97.751 21.7127C97.8313 21.7725 97.9691 21.7944 98.536 21.8367C99.336 21.8966 99.5369 21.9402 99.7233 22.0942C99.9203 22.257 99.998 22.4557 99.9989 22.7998C99.9998 23.1326 99.9447 23.2906 99.768 23.4608C99.5756 23.6461 99.3241 23.7391 98.9156 23.7756C98.717 23.7935 98.5293 23.8062 98.4982 23.804C98.4673 23.8018 98.2899 23.7866 98.104 23.77Z" fill="white" stroke="white" stroke-width="0.223714"/>
<path d="M24.8844 23.7753C24.6137 23.7408 24.4292 23.65 24.2688 23.4721C24.041 23.2196 24.0137 23.0603 23.9938 21.8648C23.984 21.2798 23.9876 20.7075 24.0019 20.5934L24.0278 20.3856L24.2294 20.3968L24.431 20.4079L24.4466 21.6493C24.463 22.9431 24.4737 23.0319 24.6343 23.2046C24.7748 23.356 24.9184 23.4073 25.2066 23.4091C25.5695 23.4113 25.7905 23.3433 25.9896 23.1677C26.2614 22.9278 26.2741 22.854 26.2741 21.5111V20.3516H26.4994H26.7245V22.0444V23.7372H26.5182H26.3117V23.5554C26.3117 23.4554 26.3005 23.3623 26.2871 23.3489C26.2735 23.3352 26.1824 23.3992 26.0844 23.4907C25.8278 23.7314 25.378 23.8381 24.8844 23.7753Z" fill="white" stroke="white" stroke-width="0.223714"/>
<path d="M32.9359 23.7743C32.5044 23.7132 32.2974 23.5799 32.1505 23.2687C32.0679 23.0938 32.054 23.013 32.0547 22.7137C32.0556 22.2996 32.1218 22.117 32.3346 21.9412C32.5641 21.7517 32.7106 21.73 33.6314 21.7506L34.4563 21.7689L34.4561 21.5018C34.4554 20.8191 34.2979 20.6893 33.4688 20.6893C32.8314 20.6893 32.674 20.7754 32.6321 21.1461L32.6073 21.3665H32.3833H32.1594L32.1847 21.1689C32.2281 20.8323 32.2849 20.6927 32.4335 20.5582C32.6451 20.3667 32.8115 20.332 33.5178 20.332C34.044 20.332 34.1675 20.3432 34.3391 20.407C34.588 20.4994 34.805 20.7316 34.8648 20.9696C34.8916 21.0765 34.9066 21.6038 34.9066 22.4365V23.7365H34.6816H34.4563V23.5859C34.4563 23.5032 34.4496 23.4354 34.4413 23.4354C34.433 23.4354 34.3388 23.4944 34.2321 23.5665C34.1252 23.6385 33.9757 23.7137 33.8999 23.7334C33.6887 23.7886 33.1874 23.8099 32.9359 23.7743ZM33.9914 23.3253C34.0965 23.2799 34.2449 23.179 34.3207 23.1012L34.4587 22.9593L34.4482 22.5298L34.4375 22.1L33.6565 22.09C32.6149 22.0763 32.5263 22.1161 32.4791 22.6208C32.4411 23.0298 32.5878 23.2958 32.9093 23.4009C32.9652 23.4191 33.1885 23.4282 33.4055 23.4208C33.7071 23.4108 33.8451 23.3884 33.9914 23.3253Z" fill="white" stroke="white" stroke-width="0.223714"/>
<path d="M71.243 23.7233C70.8235 23.6025 70.6569 23.4312 70.5432 23.0039C70.4752 22.7482 70.4752 21.4271 70.543 21.1379C70.6875 20.5231 71.2063 20.2645 72.1629 20.3303C72.6074 20.3609 72.8334 20.443 73.0506 20.6527C73.271 20.8654 73.3318 21.0661 73.3667 21.6965L73.3924 22.1574H72.1432H70.894L70.9164 22.5242C70.9405 22.9209 70.9994 23.1097 71.1367 23.2327C71.307 23.3853 71.4596 23.4178 71.994 23.4151C72.7211 23.4115 72.8949 23.3171 72.8949 22.9251V22.7314L73.0837 22.7063C73.1877 22.6925 73.2891 22.6911 73.309 22.7037C73.3754 22.7448 73.3486 23.0918 73.2651 23.2694C73.1763 23.4587 73.0365 23.5782 72.7821 23.6822C72.5638 23.7717 71.5083 23.7999 71.243 23.7233ZM72.9184 21.5209C72.888 21.1569 72.8209 20.9864 72.6607 20.8665C72.4587 20.7153 72.2851 20.6793 71.8479 20.6981C71.4041 20.7171 71.1971 20.7918 71.062 20.982C70.9828 21.0934 70.9054 21.4363 70.9054 21.6752V21.8189H71.9242H72.9432L72.9184 21.5209Z" fill="white" stroke="white" stroke-width="0.223714"/>
<path d="M20.0631 23.6963C19.9394 23.6538 19.781 23.5759 19.7114 23.5229C19.413 23.2961 19.2624 22.6542 19.3092 21.8077C19.3696 20.7079 19.7635 20.3209 20.8273 20.3164C21.3899 20.3142 21.8029 20.4679 22.013 20.758C22.2304 21.0583 22.277 21.2894 22.2758 22.0645C22.2749 22.739 22.2582 22.8583 22.1199 23.1741C22.0043 23.4384 21.7557 23.6341 21.423 23.7229C21.1094 23.8066 20.3407 23.7916 20.0631 23.6963ZM21.3206 23.3554C21.5038 23.3001 21.6823 23.1182 21.7508 22.9171C21.8365 22.6654 21.8336 21.4343 21.7468 21.2095C21.5783 20.7726 21.1307 20.6111 20.4284 20.7334C20.132 20.7851 19.977 20.9088 19.8562 21.1896C19.7779 21.3712 19.7709 21.4424 19.772 22.0645C19.7732 22.6198 19.7852 22.7721 19.8394 22.9108C19.9982 23.318 20.2749 23.4502 20.889 23.4131C21.0541 23.403 21.2483 23.3771 21.3206 23.3554Z" fill="white" stroke="white" stroke-width="0.223714"/>
<path d="M68.0685 23.7422C68.06 23.7334 68.0528 23.052 68.0528 22.2278V20.7294H67.7902H67.5273V20.5413V20.3534H67.7844H68.0414L68.0651 19.9368C68.0783 19.7079 68.1099 19.4509 68.1352 19.3659C68.1976 19.1572 68.3799 18.9827 68.5909 18.9294C68.7752 18.8829 69.2839 18.8715 69.4748 18.9097C69.5868 18.9321 69.592 18.9413 69.592 19.1167V19.2999H69.1531C68.7276 19.2999 68.7106 19.3032 68.6088 19.401C68.5054 19.5001 68.5034 19.5106 68.5034 19.9276V20.3534H69.0101H69.5168V20.5413V20.7294H69.0101H68.5034V22.2308V23.7321L68.2938 23.7449C68.1783 23.752 68.077 23.7507 68.0685 23.7422Z" fill="white" stroke="white" stroke-width="0.223714"/>
<path d="M93.3603 23.733C93.1659 23.6768 92.9693 23.5374 92.8583 23.3766C92.6659 23.0979 92.6324 22.9417 92.6134 22.2404C92.5876 21.2927 92.6827 20.9025 93.0091 20.6146C93.3834 20.2847 94.1905 20.2236 94.7089 20.486C94.8031 20.5336 94.9022 20.5994 94.9292 20.6321C94.9563 20.6647 94.9932 20.6914 95.0114 20.6914C95.0295 20.6914 95.0442 20.3021 95.0442 19.8263V18.9609H95.2709H95.4975L95.4921 21.3498L95.487 23.7386H95.2615H95.036L95.0601 23.6097C95.0926 23.4366 95.0351 23.4122 94.8778 23.5323C94.631 23.7209 94.4116 23.7764 93.9272 23.7728C93.6847 23.7708 93.4297 23.7529 93.3603 23.733ZM94.5563 23.3361C94.6492 23.2938 94.7928 23.1996 94.8753 23.1269L95.0254 22.9947L95.0165 22.118C95.0073 21.2466 95.0069 21.2406 94.9109 21.0954C94.8429 20.9925 94.7458 20.9169 94.5823 20.8392C94.3749 20.741 94.3114 20.7292 93.9932 20.7305C93.7033 20.7319 93.6051 20.7477 93.4682 20.8153C93.1355 20.9793 93.0715 21.1983 93.0767 22.1585C93.0816 23.0634 93.1939 23.2853 93.7118 23.4144C93.8883 23.4585 94.3903 23.4119 94.5563 23.3361Z" fill="white" stroke="white" stroke-width="0.223714"/>
<path d="M50.8371 23.1995C50.8505 22.9047 50.8615 22.1429 50.8617 21.5067V20.3501H51.0682H51.2747V20.5758C51.2747 20.7 51.2821 20.8015 51.291 20.8015C51.3 20.8015 51.3935 20.7172 51.4989 20.6143C51.7304 20.3883 51.9492 20.3125 52.3682 20.3125C52.9597 20.3125 53.3167 20.474 53.4895 20.8203L53.5832 21.0082L53.5948 22.372L53.6062 23.7358H53.3807H53.1552L53.144 22.4284C53.1333 21.1926 53.1286 21.1141 53.0563 20.9908C52.925 20.7669 52.7756 20.7074 52.3445 20.7076C52.0015 20.7078 51.9523 20.7172 51.774 20.8161C51.5521 20.9389 51.4655 21.0232 51.3534 21.2257C51.2783 21.3617 51.2747 21.4199 51.2747 22.5519V23.7358H51.0436H50.8125L50.8371 23.1995Z" fill="white" stroke="white" stroke-width="0.223714"/>
<path d="M41.055 23.737C40.8633 23.6893 40.6505 23.5761 40.551 23.4692C40.5058 23.4206 40.4223 23.2792 40.3655 23.1553C40.2693 22.9446 40.2612 22.8882 40.246 22.3065C40.2134 21.0528 40.3832 20.6054 40.9697 20.4C41.2505 20.3018 42.2454 20.305 42.51 20.4047C42.951 20.5712 43.1138 20.8215 43.1673 21.4139C43.1863 21.6269 43.2026 21.8815 43.2033 21.9797L43.2046 22.1584H41.9469H40.6894V22.4725C40.6894 22.9645 40.7928 23.1837 41.0908 23.324C41.2404 23.3947 41.3348 23.4079 41.7015 23.4097C42.2501 23.4124 42.495 23.3569 42.6266 23.2005C42.7102 23.1007 42.7221 23.0571 42.7073 22.9032L42.6901 22.7226H42.9485H43.2071L43.1827 22.9202C43.1322 23.328 42.9794 23.5296 42.604 23.6835C42.468 23.7392 42.3147 23.7546 41.8156 23.7625C41.4749 23.7678 41.1326 23.7564 41.055 23.737ZM42.7326 21.5094C42.7038 21.1267 42.6015 20.8929 42.4163 20.7864C42.3125 20.7267 42.1986 20.7079 41.8742 20.6967C41.065 20.6687 40.7677 20.841 40.7085 21.3721C40.6959 21.4839 40.6774 21.6305 40.6673 21.6976L40.6485 21.82H41.7022H42.7559L42.7326 21.5094Z" fill="white" stroke="white" stroke-width="0.223714"/>
<path d="M64.282 23.7749C63.9438 23.7228 63.814 23.6687 63.638 23.506C63.4227 23.3074 63.3422 23.0877 63.3438 22.7051C63.3453 22.3539 63.4008 22.1644 63.5541 21.9897C63.7474 21.7689 63.9308 21.7342 64.8887 21.7373L65.7254 21.74V21.387C65.7254 21.0461 65.7214 21.0293 65.6098 20.9018C65.459 20.7295 65.3133 20.693 64.7764 20.6928C64.1301 20.6926 63.974 20.7792 63.9348 21.159L63.9131 21.3698H63.6932H63.4733V21.2237C63.4733 20.9995 63.582 20.7107 63.7127 20.5879C63.9051 20.4074 64.1151 20.3479 64.6391 20.3259C65.4474 20.2922 65.8301 20.4078 66.0444 20.751L66.1572 20.9311L66.1682 22.3353L66.1793 23.7398H65.9713H65.763V23.5705C65.763 23.4774 65.7529 23.4011 65.7409 23.4011C65.7286 23.4011 65.6503 23.4599 65.5666 23.5315C65.4829 23.6033 65.3368 23.687 65.2415 23.7174C65.0133 23.7906 64.5606 23.8177 64.282 23.7749ZM65.0498 23.3991C65.1427 23.3781 65.3328 23.2836 65.4722 23.189L65.7254 23.017V22.5508V22.0845H64.9169H64.1084L63.9561 22.2268C63.8138 22.3599 63.8024 22.3861 63.7834 22.6219C63.7617 22.8939 63.8301 23.1517 63.9532 23.2611C64.129 23.4174 64.667 23.485 65.0498 23.3991Z" fill="white" stroke="white" stroke-width="0.223714"/>
<path d="M15.9221 25.0676L15.9332 24.8542L16.2089 24.8633C16.427 24.8705 16.4997 24.8589 16.5567 24.8072C16.6424 24.7293 16.91 23.919 16.8778 23.8347C16.8655 23.8027 16.812 23.7763 16.759 23.7763C16.6811 23.7763 16.6494 23.7452 16.5948 23.6164C16.5104 23.4175 15.5391 20.4868 15.5391 20.4311C15.5391 20.4067 15.627 20.3906 15.7596 20.3906H15.9802L16.3203 21.4345C16.5075 22.0087 16.7263 22.6817 16.8066 22.9298C16.8872 23.1781 16.9657 23.3812 16.9813 23.3812C17.0238 23.3812 17.2476 22.6611 17.7469 20.9172L17.8923 20.4094L18.1281 20.398C18.3426 20.3877 18.3614 20.3929 18.3364 20.4546C18.3033 20.5365 18.3089 20.519 18.0062 21.5002C17.7209 22.4262 17.4053 23.475 17.2762 23.9266C16.9811 24.9598 16.9274 25.0696 16.6505 25.2038C16.5321 25.2613 16.4171 25.281 16.201 25.281H15.9106L15.9221 25.0676Z" fill="white" stroke="white" stroke-width="0.223714"/>
<path d="M78.6797 21.3128V18.8828L78.8953 18.894L79.1112 18.9054L79.13 19.8385L79.1488 20.7719L79.2801 20.6356C79.5213 20.3853 79.8264 20.298 80.3678 20.324C80.8437 20.347 81.109 20.4631 81.2712 20.7193C81.439 20.9846 81.4573 21.1602 81.4573 22.4998V23.7394H81.2343H81.0112L80.9998 22.4065C80.9886 21.1199 80.9855 21.0701 80.9092 20.9676C80.7736 20.7855 80.6124 20.7173 80.2748 20.6996C79.8341 20.6763 79.5768 20.7575 79.3519 20.9902C79.2461 21.0998 79.1696 21.2184 79.1537 21.2971C79.1396 21.368 79.1296 21.9421 79.1314 22.5732L79.1345 23.7206L78.9072 23.7318L78.6797 23.743V21.3128Z" fill="white" stroke="white" stroke-width="0.223714"/>
<path d="M48.4961 22.0444V20.3516H48.7214H48.9467V22.0444V23.7372H48.7214H48.4961V22.0444Z" fill="white" stroke="white" stroke-width="0.223714"/>
<path d="M59.5972 23.7322C59.1355 23.6232 58.8945 23.319 58.8945 22.8447V22.6823H59.1198H59.3449L59.3478 22.8423C59.3522 23.0868 59.4285 23.255 59.5735 23.3405C59.6858 23.4067 59.7688 23.4159 60.2458 23.4159C61.0677 23.4159 61.2509 23.3364 61.3151 22.9516C61.3502 22.7409 61.2771 22.476 61.1578 22.3821C61.0312 22.2823 60.7728 22.2391 60.0748 22.2018C59.3319 22.1617 59.2015 22.1089 59.0323 21.7796C58.9373 21.5944 58.9279 21.5431 58.9415 21.2906C58.98 20.5823 59.3587 20.3125 60.3138 20.3125C60.9375 20.3125 61.3256 20.4273 61.4916 20.661C61.5858 20.7935 61.6724 21.0707 61.6724 21.24V21.3657H61.452H61.2317L61.212 21.1921C61.1889 20.9861 61.095 20.8452 60.9189 20.7525C60.7297 20.653 59.8825 20.6736 59.665 20.783C59.4657 20.8832 59.3766 21.0474 59.3701 21.3259C59.3659 21.5145 59.3791 21.5642 59.4561 21.6463C59.5827 21.7814 59.7247 21.8114 60.4335 21.8519C61.2818 21.9006 61.5012 21.9852 61.6585 22.3235C61.8149 22.6599 61.7637 23.1836 61.5478 23.4548C61.4411 23.5886 61.3017 23.6671 61.0529 23.7331C60.874 23.7805 59.7992 23.7798 59.5972 23.7322Z" fill="white" stroke="white" stroke-width="0.223714"/>
<path d="M36.8242 22.0466V20.3537H37.0334H37.2423L37.2332 20.579C37.2224 20.8441 37.2482 20.8902 37.3247 20.7428C37.454 20.4936 37.7045 20.3551 38.0766 20.3269C38.4582 20.298 38.7305 20.3638 38.9262 20.5318C39.1269 20.7038 39.1857 20.8441 39.2146 21.2208L39.2376 21.52H38.9882H38.7385V21.3249C38.7385 21.0591 38.6177 20.8135 38.4529 20.7446C38.1819 20.6309 37.8168 20.7005 37.5696 20.9126C37.2822 21.1591 37.2763 21.1911 37.2754 22.545L37.2746 23.7394H37.0495H36.8242V22.0466Z" fill="white" stroke="white" stroke-width="0.223714"/>
<path d="M87.9844 22.0445V20.3516H88.2097H88.4349V20.5991V20.8465L88.6083 20.6727C88.8645 20.4161 89.0307 20.3445 89.4231 20.3221C90.0685 20.2852 90.4591 20.427 90.6497 20.7671L90.7434 20.9346L90.7546 22.336L90.7656 23.7373H90.5575H90.3493L90.3459 23.5962C90.3441 23.5185 90.3399 22.9389 90.3365 22.3078C90.3309 21.2277 90.326 21.1516 90.2531 21.0123C90.1466 20.8089 89.9598 20.7187 89.6025 20.6984C89.2067 20.6758 88.9446 20.7568 88.6994 20.978C88.5951 21.0718 88.5099 21.1798 88.5099 21.2181C88.5099 21.2563 88.4931 21.2979 88.4725 21.3109C88.4486 21.3255 88.4349 21.7751 88.4349 22.5357V23.7373H88.2097H87.9844V22.0445Z" fill="white" stroke="white" stroke-width="0.223714"/>
<path d="M56.7813 7.99595C56.3677 7.87626 56.1547 7.61183 56.1563 7.22011C56.1578 6.83622 56.3659 6.55792 56.7567 6.4172C56.9061 6.36328 57.0254 6.35188 57.3162 6.36351C57.663 6.37738 57.6997 6.38677 57.9059 6.51429C58.2578 6.73129 58.3724 7.03621 58.2578 7.44964C58.2108 7.61877 57.9894 7.83577 57.7598 7.93733C57.5287 8.03957 57.0341 8.0691 56.7813 7.99595Z" fill="white" stroke="white" stroke-width="0.223714"/>
<path d="M56.8896 16.7807C56.8071 16.7422 56.6888 16.657 56.6268 16.591L56.5143 16.4709L56.5044 12.8991C56.4946 9.37133 56.4952 9.32569 56.5709 9.17737C56.6838 8.95545 56.9011 8.82681 57.1948 8.80802C57.4646 8.79079 57.6232 8.83889 57.7845 8.98632C58.0089 9.19147 57.997 8.97737 57.997 12.7888C57.997 16.157 57.9943 16.2959 57.9257 16.4302C57.7344 16.8035 57.2747 16.9593 56.8896 16.7807Z" fill="white" stroke="white" stroke-width="0.223714"/>
<path d="M63.3418 16.772C61.9603 16.6982 61.1427 16.349 60.6603 15.6262C60.3293 15.1302 60.2212 14.5881 60.2563 13.5984C60.2805 12.9136 60.3505 12.5841 60.5456 12.2378C60.7127 11.9412 60.8668 11.7555 61.0897 11.5821C61.1928 11.5018 61.2961 11.4203 61.3192 11.4013C61.391 11.3416 61.7366 11.1745 61.9049 11.1179C61.9932 11.0881 62.2429 11.0259 62.4597 10.9796C62.8505 10.8962 62.8876 10.8953 66.7516 10.8801L70.6494 10.8646L70.6248 10.766C70.5731 10.5602 70.393 10.2443 70.2375 10.0877C70.1487 9.9982 69.963 9.87113 69.8246 9.80558L69.5731 9.68612L67.312 9.66733L65.0507 9.64853L64.8932 9.49059C64.7505 9.34742 64.7344 9.31185 64.7199 9.11028C64.7078 8.94272 64.7223 8.84585 64.7794 8.71654C64.9232 8.39104 64.7941 8.40871 67.1127 8.39395C68.5306 8.38478 69.2756 8.3944 69.5355 8.42527C70.7373 8.56755 71.5351 9.02997 71.8966 9.7935C72.1606 10.3508 72.157 10.3168 72.1731 12.357C72.189 14.3689 72.1756 14.5655 71.991 15.0481C71.7109 15.7796 71.0496 16.3382 70.1914 16.5687C69.453 16.7669 69.2006 16.7816 66.389 16.789C64.9608 16.7928 63.5897 16.7852 63.3418 16.772ZM68.4845 15.5362C69.5046 15.4888 69.9051 15.3754 70.2608 15.0333C70.5991 14.7083 70.6409 14.5042 70.642 13.1752L70.6429 12.1125L67.0863 12.1132C65.1301 12.1134 63.3393 12.1295 63.1069 12.1488C62.5879 12.1917 62.3154 12.3002 62.0724 12.5604C61.8026 12.8497 61.7653 12.9986 61.7653 13.7872V14.4651L61.8888 14.7163C62.0199 14.9837 62.246 15.2154 62.4888 15.3318C62.8478 15.5038 62.9413 15.511 65.0874 15.5347C66.2125 15.547 67.2682 15.5602 67.4335 15.5642C67.5986 15.5682 68.0715 15.5557 68.4845 15.5362Z" fill="white" stroke="white" stroke-width="0.223714"/>
<path d="M30.3931 16.7872C30.2466 16.7773 30.1875 16.7498 30.0678 16.6359C29.8117 16.3916 29.8106 15.9858 30.0654 15.712L30.2099 15.5567L33.9195 15.5371C37.3875 15.5185 37.6423 15.5127 37.8354 15.448C38.2638 15.3048 38.4605 15.1668 38.645 14.8796C38.7508 14.7149 38.7452 14.0865 38.6359 13.8451C38.5298 13.6113 38.2992 13.3925 37.9768 13.2198L37.7041 13.074L34.8886 13.0518C32.1482 13.0303 32.0649 13.0277 31.7544 12.9471C30.7593 12.6894 30.2846 12.3183 30.0318 11.6008C29.8271 11.0203 29.8629 10.1458 30.1117 9.6507C30.3882 9.09992 30.8647 8.75204 31.6743 8.50954L31.9983 8.41245L34.7242 8.39969L37.4499 8.38672L37.569 8.48717C37.7381 8.62967 37.7978 8.7686 37.7978 9.01871C37.7976 9.27419 37.7124 9.44287 37.526 9.55674C37.4072 9.62945 37.3323 9.63146 34.9061 9.63169C32.1936 9.63191 32.1627 9.63392 31.8079 9.84242C31.5878 9.97173 31.4678 10.1221 31.3987 10.3552C31.2493 10.8594 31.4135 11.3281 31.8417 11.6198C32.1475 11.8281 32.1184 11.8259 35.0763 11.8505L37.8166 11.8731L38.2544 11.9905C39.537 12.3344 40.1701 13.0019 40.2607 14.1069C40.3061 14.6605 40.169 15.2104 39.873 15.6608C39.469 16.2758 38.7276 16.6402 37.6835 16.7371C37.2949 16.7731 30.8479 16.8174 30.3931 16.7872Z" fill="white" stroke="white" stroke-width="0.223714"/>
<path d="M43.1055 16.8562C42.9146 16.8092 42.7386 16.6797 42.6495 16.5211L42.5665 16.3732V10.5556C42.5665 4.23587 42.5549 4.59873 42.7654 4.3692C43.0298 4.08106 43.6202 4.06137 43.8663 4.33274C44.0491 4.5343 44.0457 4.4956 44.0475 6.48978L44.0493 8.37054L47.5965 8.39291C51.4493 8.41708 51.4063 8.41484 52.0448 8.6343C52.4415 8.77077 52.7334 8.93005 53.0182 9.1654C53.316 9.41148 53.507 9.67345 53.6544 10.0377L53.7714 10.3267L53.7829 13.2611C53.7949 16.3289 53.7929 16.3748 53.6327 16.6005C53.3773 16.9605 52.6368 16.9359 52.3813 16.5587L52.2887 16.4224V13.7106C52.2887 11.9128 52.275 10.924 52.2477 10.7768C52.1509 10.2509 51.8323 9.91752 51.2377 9.71954C51.0448 9.65533 50.8034 9.65019 47.5558 9.63967L44.0804 9.62826L44.0553 11.4978C44.0417 12.526 44.0305 14.0676 44.0305 14.9233V16.479L43.8777 16.645C43.7938 16.7365 43.6797 16.8198 43.6245 16.8303C43.3925 16.8746 43.2164 16.8835 43.1055 16.8562Z" fill="white" stroke="white" stroke-width="0.223714"/>
<path d="M18.4113 16.7814C17.3664 16.7013 16.6668 16.4407 16.1746 15.9476C15.8793 15.6514 15.6811 15.2861 15.5963 14.8811C15.5198 14.5165 15.52 13.1753 15.5966 12.8134C15.7156 12.2498 16.1107 11.6735 16.5353 11.4438C16.6174 11.3995 16.71 11.3489 16.7411 11.3317C17.003 11.1861 17.3992 11.0509 17.7561 10.9858C18.2447 10.8968 18.9867 10.8791 22.3277 10.8769L25.8686 10.8749L25.8431 10.7525C25.7451 10.2809 25.3997 9.88316 24.9621 9.73774C24.723 9.65832 24.6695 9.65653 22.4639 9.6543C19.959 9.65206 20.0936 9.66548 19.9317 9.39882C19.7596 9.11515 19.8107 8.72656 20.0458 8.52812L20.1626 8.42969L22.5153 8.42991C24.7845 8.43013 25.1545 8.44512 25.4872 8.54937C25.7453 8.63036 26.0346 8.7449 26.2192 8.83953C26.4543 8.95967 26.9903 9.48942 27.0798 9.68987C27.1169 9.77264 27.1711 9.89031 27.2004 9.95139C27.3514 10.2673 27.3641 10.4691 27.3641 12.5386C27.3641 13.8523 27.3496 14.6212 27.3216 14.784C27.274 15.0621 27.0865 15.4735 26.8914 15.7277C26.48 16.263 25.7254 16.6236 24.774 16.7391C24.3704 16.7881 18.9681 16.8241 18.4113 16.7814ZM24.9187 15.4189C25.3612 15.2581 25.5478 15.1002 25.7541 14.712C25.8426 14.5449 25.844 14.5266 25.8552 13.3295L25.8666 12.1163H22.3024C20.1346 12.1163 18.5914 12.1313 18.363 12.1547C17.7223 12.2207 17.3321 12.4431 17.1299 12.8572C17.0299 13.0617 17.0236 13.1058 17.0095 13.6896C16.9923 14.4062 17.0402 14.6581 17.2478 14.944C17.4637 15.2411 17.8019 15.4154 18.3552 15.5145C18.4066 15.5236 19.8424 15.5286 21.5458 15.5252L24.6426 15.5192L24.9187 15.4189Z" fill="white" stroke="white" stroke-width="0.223714"/>
<path d="M91.0475 16.7751C89.2974 16.6339 88.3249 15.8954 88.1359 14.5639C88.0762 14.1431 88.1095 13.0357 88.1912 12.7323C88.407 11.9287 89.022 11.3227 89.8683 11.0793C90.503 10.8968 90.4296 10.8999 94.6231 10.8818C99.122 10.8623 98.6614 10.9075 98.461 10.5053C98.3211 10.2247 98.0097 9.9227 97.72 9.78668L97.5041 9.68534L95.2518 9.66655C92.807 9.64597 92.8672 9.65156 92.7077 9.43545C92.5596 9.23478 92.5601 8.76722 92.7086 8.60279C92.8871 8.40525 92.8674 8.40727 94.7956 8.39407C97.5285 8.37527 97.9442 8.42136 98.818 8.84037C99.2865 9.06498 99.7538 9.55425 99.9229 9.9972C99.9981 10.1941 100 10.2668 100 12.5448V14.89L99.8431 15.203C99.7191 15.45 99.6138 15.5883 99.3457 15.8567C99.056 16.1469 98.9527 16.2229 98.6489 16.3697C98.2737 16.5509 98.0328 16.6225 97.4478 16.7272C97.1359 16.7829 96.7352 16.7918 94.2572 16.7981C92.6983 16.8021 91.254 16.7916 91.0475 16.7751ZM97.4478 15.4296C97.8075 15.322 97.9898 15.2243 98.1903 15.0319C98.4831 14.7507 98.5377 14.5889 98.5784 13.8797C98.5979 13.5384 98.6093 13.0053 98.6032 12.6947L98.5927 12.1305L95.1017 12.12C91.2332 12.1084 90.6386 12.1272 90.3135 12.2717C90.0346 12.3956 89.8343 12.5791 89.7283 12.8075C89.6469 12.9824 89.6406 13.0435 89.6399 13.6728C89.6393 14.2768 89.6482 14.3757 89.7225 14.5874C89.901 15.0968 90.3209 15.3952 91.0039 15.4979C91.1106 15.514 92.5406 15.524 94.182 15.5205C97.1547 15.514 97.1674 15.5135 97.4478 15.4296Z" fill="white" stroke="white" stroke-width="0.223714"/>
<path d="M75.2761 16.8461C75.0817 16.8025 74.8253 16.5586 74.7935 16.3875C74.7814 16.3222 74.7776 14.9398 74.785 13.3157C74.798 10.4629 74.8011 10.3548 74.875 10.1369C74.9725 9.84901 75.0533 9.6942 75.228 9.45974C75.7063 8.81813 76.4186 8.50359 77.5725 8.42507C78.2266 8.38055 82.7745 8.37854 83.2593 8.42283C84.628 8.54722 85.5814 9.19599 85.8564 10.1895C85.9197 10.4181 85.9246 10.649 85.9246 13.3559V16.2756L85.8371 16.4414C85.7799 16.5503 85.6873 16.6461 85.568 16.7201C85.4128 16.8166 85.3421 16.8349 85.083 16.8454C84.815 16.8566 84.7647 16.8479 84.6517 16.7703C84.5814 16.7219 84.4884 16.6347 84.4452 16.5763C84.3676 16.4712 84.3667 16.4398 84.3479 13.5103L84.3293 10.5506L84.2354 10.3635C84.1195 10.1322 83.8694 9.88547 83.6394 9.77563C83.5309 9.72373 83.3465 9.68167 83.1468 9.66355C82.7311 9.62552 77.9427 9.62395 77.4779 9.66153C77.0591 9.69554 76.7873 9.80583 76.57 10.0307C76.317 10.2922 76.315 10.3087 76.3148 12.1635C76.3148 13.0765 76.3038 14.4244 76.2904 15.1588L76.266 16.4944L76.1123 16.6495C75.9944 16.768 75.9116 16.8143 75.7595 16.8468C75.5336 16.8951 75.494 16.8951 75.2761 16.8461Z" fill="white" stroke="white" stroke-width="0.223714"/>
<path d="M4.37242 16.7739C3.97286 16.7338 3.60374 16.6515 3.28383 16.5313C3.13931 16.477 2.9704 16.4141 2.90843 16.3911C2.84646 16.3683 2.74512 16.3193 2.68315 16.2819C2.62119 16.2445 2.49456 16.1727 2.40172 16.1219C2.12745 15.9725 1.62454 15.5454 1.36056 15.2381C1.05049 14.8768 0.790312 14.4819 0.577561 14.0492C0.410894 13.7105 0.127449 12.8372 0.0858381 12.534C0.0737576 12.4454 0.0493728 12.364 0.0314757 12.353C-0.0157279 12.3237 -0.00789789 11.4584 0.0419903 11.1924C0.205301 10.324 0.485614 9.58906 0.886733 8.97922C1.09971 8.65506 1.75989 7.98302 2.10127 7.74275C2.97197 7.12978 3.91403 6.80718 4.82991 6.80808C5.08047 6.8083 5.35564 6.83045 5.46257 6.85909C6.61179 7.1658 7.2798 8.32777 6.98047 9.50002C6.62991 10.8743 4.89255 11.4486 3.85631 10.5327C3.65899 10.3582 3.43819 9.99354 3.34244 9.68347C3.30821 9.57206 3.26951 9.47049 3.25676 9.45774C3.23729 9.43828 2.82387 9.50853 2.78382 9.53783C2.75855 9.55618 2.89948 9.91904 3.02365 10.1557C3.45251 10.9736 4.12566 11.3725 5.06682 11.3667C6.25653 11.3591 7.21626 10.5687 7.45139 9.40338C7.57398 8.79466 7.46682 8.1441 7.15608 7.61278C6.93975 7.24298 6.44289 6.78996 6.00441 6.56266C5.71582 6.413 5.24065 6.28235 4.98226 6.28168C4.79591 6.28101 4.75318 6.2356 4.87667 6.16938C4.98114 6.11345 5.38293 5.49756 5.47376 5.25372C5.7062 4.63135 5.72655 3.83962 5.52812 3.13985L5.42163 2.76356L5.21604 2.77653C5.10306 2.78369 4.9968 2.80226 4.98025 2.81815C4.96369 2.83381 5.00172 3.03962 5.06459 3.27542C5.16078 3.63425 5.17935 3.77363 5.17935 4.13134C5.17935 4.39846 5.1572 4.64499 5.12007 4.78973C4.86727 5.77407 4.06615 6.35707 2.96816 6.35573C2.77018 6.35551 2.52186 6.33224 2.41626 6.30405C1.94669 6.17877 1.42074 5.79018 1.20843 5.41143C0.825883 4.72888 0.924988 3.47049 1.43595 2.51904C1.66548 2.09175 1.78472 1.93134 2.16772 1.53515C2.59456 1.09354 3.03617 0.772061 3.58405 0.504052C4.37421 0.117698 4.90284 -0.00198852 5.81157 2.49013e-05C6.73103 0.00181461 7.19233 0.106513 7.99322 0.494656C9.10262 1.03224 10.0011 1.88548 10.5015 2.87654C10.87 3.60629 11.0462 4.20875 11.1015 4.92665C11.1183 5.14387 11.1257 7.90763 11.1181 11.068L11.104 16.8141L7.8883 16.809C6.11962 16.8063 4.53752 16.7904 4.37242 16.7739Z" fill="white" stroke="white" stroke-width="0.223714"/>
<path d="M97.2977 4.37472C96.759 4.28076 96.1443 3.84183 95.8523 3.34273C95.6291 2.96063 95.5539 2.67315 95.5588 2.21946C95.5684 1.33378 95.9832 0.65302 96.7534 0.257942C97.1 0.0800895 97.4416 0 97.853 0C98.319 0 99.0546 0.377852 99.4013 0.795302C99.7208 1.18009 99.8919 1.6311 99.9168 2.15392C99.932 2.47338 99.9215 2.56107 99.8371 2.83266C99.5409 3.78434 98.6691 4.41432 97.6731 4.3962C97.5183 4.39351 97.3494 4.38367 97.2977 4.37472ZM98.2362 4.15928C98.736 4.03177 98.9839 3.88389 99.3239 3.51096C99.6837 3.11655 99.7933 2.783 99.7653 2.16622C99.7443 1.69664 99.6608 1.40604 99.4682 1.12864C99.0781 0.566667 98.5414 0.238031 97.9485 0.198434C97.6306 0.177181 97.0349 0.24698 97.0349 0.305593C97.0349 0.323714 96.9982 0.338479 96.9532 0.338479C96.84 0.338479 96.3861 0.653915 96.2087 0.855928C95.8333 1.28322 95.74 1.55951 95.74 2.24273V2.77405L95.904 3.09843C96.2727 3.82707 96.8763 4.20626 97.6731 4.21029C97.8693 4.21119 98.1226 4.18837 98.2362 4.15928Z" fill="white" stroke="white" stroke-width="0.223714"/>
<path d="M96.7826 2.60632C96.7963 2.09267 96.8075 1.51594 96.8075 1.32444L96.8077 0.976562H97.4996C97.8963 0.976562 98.2368 0.993565 98.2972 1.01638C98.7744 1.1967 98.8762 1.92891 98.4677 2.24233C98.3829 2.30743 98.2923 2.36784 98.2665 2.37634C98.2343 2.38708 98.2502 2.43249 98.3173 2.52131C98.4493 2.69603 98.7972 3.35844 98.7972 3.4354C98.7972 3.48037 98.7627 3.49692 98.6708 3.49692C98.5486 3.49692 98.539 3.48573 98.3759 3.14748C98.2831 2.95509 98.1623 2.72667 98.1075 2.63965L98.0079 2.48126H97.5213H97.035L97.0245 2.99849C97.0245 2.99849 97.014 3.51571 96.7578 3.54032L96.7826 2.60632ZM98.2934 2.02108C98.4037 1.90028 98.4218 1.85397 98.4218 1.69245C98.4218 1.53943 98.4026 1.4835 98.3184 1.39245L98.2153 1.28059L97.6334 1.27164L97.0515 1.26292L97.0408 1.67231C97.035 1.89737 97.0392 2.10497 97.0502 2.13361C97.0663 2.17567 97.1768 2.1835 97.6175 2.17365L98.165 2.16157L98.2934 2.02108Z" fill="white" stroke="white" stroke-width="0.223714"/>
</g>
<defs>
<clipPath id="clip0_581_652">
<rect width="100" height="25.2796" fill="white"/>
</clipPath>
</defs>
</svg>
