<svg width="91" height="36" viewBox="0 0 91 36" fill="none" xmlns="http://www.w3.org/2000/svg">
<path d="M42.5208 7.37769V8.77777C42.1652 8.85184 41.8171 8.9074 41.4763 8.94444C41.1355 8.98148 40.7318 9 40.2651 9C39.6651 9 39.1577 8.94815 38.7428 8.84444C38.3354 8.74073 38.0057 8.55924 37.7539 8.29996C37.5094 8.03328 37.3316 7.65919 37.2205 7.17768C37.1094 6.69617 37.0538 6.07762 37.0538 5.32202C37.0538 4.59606 37.1094 3.99973 37.2205 3.53303C37.3316 3.06634 37.5094 2.70706 37.7539 2.4552C38.0057 2.19592 38.3354 2.01814 38.7428 1.92184C39.1577 1.81813 39.6651 1.76627 40.2651 1.76627C40.7318 1.76627 41.1355 1.78479 41.4763 1.82183C41.8171 1.85146 42.1652 1.90702 42.5208 1.98851V3.43303L42.4875 3.45525C42.1763 3.38117 41.8763 3.32932 41.5874 3.29969C41.2985 3.26265 40.9429 3.24413 40.5207 3.24413C40.1799 3.24413 39.8984 3.27006 39.6762 3.32191C39.4614 3.36636 39.291 3.45896 39.1651 3.59971C39.0391 3.74045 38.9502 3.94787 38.8984 4.22196C38.8539 4.49605 38.8317 4.86274 38.8317 5.32202C38.8317 5.80353 38.8539 6.19244 38.8984 6.48875C38.9502 6.77766 39.0391 6.99619 39.1651 7.14434C39.291 7.2925 39.4614 7.3925 39.6762 7.44436C39.8984 7.49621 40.1799 7.52214 40.5207 7.52214C40.9355 7.52214 41.2874 7.51103 41.5763 7.48881C41.8726 7.45918 42.1689 7.40732 42.4653 7.33324L42.5208 7.37769ZM45.2392 8.89999H43.4613V3.48859H44.9058L45.0503 4.59976H45.0836C45.1503 4.18492 45.3096 3.88861 45.5614 3.71082C45.8133 3.52563 46.1874 3.43303 46.6837 3.43303C46.8837 3.43303 47.0652 3.44414 47.2282 3.46636C47.3912 3.48118 47.5282 3.496 47.6393 3.51081V5.24424L47.6171 5.26646C47.4986 5.23683 47.3615 5.2109 47.206 5.18868C47.0578 5.16646 46.8874 5.15535 46.6948 5.15535C46.4207 5.15535 46.1726 5.19979 45.9503 5.28869C45.7355 5.37758 45.5651 5.55166 45.4392 5.81094C45.3207 6.0628 45.2614 6.4406 45.2614 6.94433L45.2392 8.89999ZM50.0982 1.47737C50.1204 1.74405 50.1316 1.96628 50.1316 2.14407C50.1316 2.24778 50.1278 2.35519 50.1204 2.46631C50.1204 2.57002 50.113 2.68854 50.0982 2.82188C49.9427 2.85152 49.7908 2.87374 49.6426 2.88856C49.4945 2.90337 49.3463 2.91078 49.1982 2.91078C49.0574 2.91078 48.913 2.90337 48.7648 2.88856C48.6241 2.87374 48.4796 2.85152 48.3315 2.82188C48.3166 2.69595 48.3055 2.58113 48.2981 2.47742C48.2907 2.3663 48.287 2.25889 48.287 2.15518C48.287 2.05888 48.2907 1.95517 48.2981 1.84405C48.3055 1.73294 48.3166 1.61071 48.3315 1.47737C48.4796 1.44033 48.6278 1.4181 48.7759 1.4107C48.9315 1.39588 49.0833 1.38847 49.2315 1.38847C49.3723 1.38847 49.513 1.39588 49.6537 1.4107C49.8019 1.4181 49.9501 1.44033 50.0982 1.47737ZM50.0982 8.89999H48.3203V3.48859H50.0982V8.89999ZM55.5398 7.33324V8.77777C55.3546 8.85184 55.0806 8.9074 54.7176 8.94444C54.3546 8.98148 53.9694 9 53.5619 9C52.9767 9 52.4878 8.91851 52.0952 8.75554C51.71 8.59257 51.4211 8.31107 51.2285 7.91105C51.0433 7.51103 50.947 6.95544 50.9396 6.24429C50.9396 5.51092 51.0396 4.94052 51.2396 4.53309C51.447 4.12566 51.747 3.84046 52.1396 3.67749C52.5323 3.51452 53.0027 3.43303 53.5508 3.43303C53.8768 3.43303 54.2212 3.45525 54.5842 3.4997C54.9472 3.54415 55.2435 3.60341 55.4732 3.67749L55.4843 5.16646L55.4509 5.18868C55.2287 5.14423 54.9917 5.1109 54.7398 5.08868C54.4879 5.06645 54.2398 5.05534 53.9953 5.05534C53.499 5.05534 53.1545 5.14794 52.9619 5.33313C52.7693 5.51833 52.673 5.82946 52.673 6.26652C52.673 6.59987 52.7138 6.84803 52.7952 7.011C52.8767 7.17397 53.0138 7.28139 53.2064 7.33324C53.399 7.3851 53.662 7.41102 53.9953 7.41102C54.2546 7.41102 54.5027 7.39991 54.7398 7.37769C54.9768 7.35547 55.2287 7.32954 55.4954 7.29991L55.5398 7.33324ZM58.315 8.89999H56.5371V1.42181H58.315V5.7776H58.3372L59.7373 3.48859H61.6929V3.53303L60.0484 6.08873V6.13318L61.9596 8.89999H59.9151L58.3483 6.39986L58.315 6.38875V8.89999ZM67.2722 8.72221C67.0648 8.79629 66.7759 8.86296 66.4055 8.92222C66.0425 8.97407 65.6092 9 65.1055 9C64.4684 9 63.9239 8.91851 63.472 8.75554C63.0276 8.58516 62.6905 8.29996 62.4609 7.89994C62.2312 7.49251 62.1164 6.92952 62.1164 6.21096C62.1164 5.23313 62.3386 4.52568 62.7831 4.08862C63.235 3.65156 63.9313 3.43303 64.8721 3.43303C65.5462 3.43303 66.0759 3.52933 66.4611 3.72193C66.8537 3.91454 67.1315 4.18863 67.2945 4.5442C67.4648 4.89237 67.55 5.30721 67.55 5.78871C67.55 5.92946 67.5426 6.08132 67.5278 6.24429C67.5204 6.40727 67.5019 6.56653 67.4723 6.7221L67.4278 6.76654H63.7721C63.8239 7.09249 63.9758 7.30732 64.2276 7.41102C64.4869 7.51473 64.9054 7.56659 65.4833 7.56659C65.8685 7.56659 66.187 7.55918 66.4389 7.54436C66.6981 7.52214 66.9611 7.49251 67.2278 7.45547L67.2722 7.48881V8.72221ZM66.0055 5.59981C66.0055 5.42203 65.9759 5.27017 65.9166 5.14423C65.8648 5.01089 65.7573 4.91089 65.5944 4.84422C65.4314 4.77014 65.1907 4.7331 64.8721 4.7331C64.4054 4.7331 64.098 4.81459 63.9498 4.97756C63.8091 5.13312 63.7387 5.34054 63.7387 5.59981H66.0055ZM68.6063 7.27768V4.94422H67.9396V3.4997H68.773L69.1064 2.17741H70.3842V3.4997H71.5954V4.94422H70.3842V6.88877C70.3842 7.09619 70.4101 7.24064 70.462 7.32213C70.5139 7.39621 70.6324 7.43325 70.8176 7.43325C70.9361 7.43325 71.062 7.42954 71.1954 7.42214C71.3287 7.40732 71.4621 7.3925 71.5954 7.37769L71.6287 7.39991V8.84444C71.2732 8.94815 70.8028 9 70.2175 9C69.6323 9 69.2175 8.86666 68.973 8.59998C68.7286 8.3333 68.6063 7.89253 68.6063 7.27768ZM37.2761 19.9V12.8663H42.4986V14.3108H39.054V15.6442H42.043V17.0887H39.054V18.4555H42.4986V19.9H37.2761ZM47.03 17.1443L48.6745 19.9H46.6966L45.7855 18.2443H45.7633L44.8521 19.9H42.8298L44.5187 17.1443V17.0998L42.952 14.4886H44.8965L45.7633 16.1776H45.7855L46.6522 14.4886H48.5967L47.03 17.0998V17.1443ZM53.6626 18.3332V19.7778C53.4774 19.8518 53.2033 19.9074 52.8403 19.9444C52.4773 19.9815 52.0921 20 51.6847 20C51.0995 20 50.6105 19.9185 50.2179 19.7555C49.8327 19.5926 49.5438 19.3111 49.3512 18.9111C49.166 18.511 49.0697 17.9554 49.0623 17.2443C49.0623 16.5109 49.1623 15.9405 49.3623 15.5331C49.5697 15.1257 49.8698 14.8405 50.2624 14.6775C50.655 14.5145 51.1254 14.433 51.6736 14.433C51.9995 14.433 52.344 14.4553 52.707 14.4997C53.0699 14.5441 53.3662 14.6034 53.5959 14.6775L53.607 16.1665L53.5737 16.1887C53.3514 16.1442 53.1144 16.1109 52.8625 16.0887C52.6107 16.0665 52.3625 16.0553 52.118 16.0553C51.6217 16.0553 51.2772 16.1479 51.0846 16.3331C50.892 16.5183 50.7957 16.8295 50.7957 17.2665C50.7957 17.5999 50.8365 17.848 50.918 18.011C50.9995 18.174 51.1365 18.2814 51.3291 18.3332C51.5217 18.3851 51.7847 18.411 52.118 18.411C52.3773 18.411 52.6255 18.3999 52.8625 18.3777C53.0996 18.3555 53.3514 18.3295 53.6181 18.2999L53.6626 18.3332ZM56.4377 19.9H54.6598V12.4329H56.4377V15.4775H56.471C56.5748 15.1442 56.7637 14.8886 57.0377 14.7108C57.3192 14.5256 57.6859 14.433 58.1378 14.433C58.5675 14.433 58.9193 14.5034 59.1934 14.6442C59.4749 14.7849 59.6823 15.0331 59.8157 15.3886C59.9564 15.7368 60.0268 16.2294 60.0268 16.8665V19.9H58.2489L58.2378 17.211C58.2378 16.7961 58.1748 16.4998 58.0489 16.322C57.923 16.1442 57.6859 16.0553 57.3378 16.0553C57.0266 16.0553 56.8007 16.1368 56.6599 16.2998C56.5192 16.4628 56.4451 16.7369 56.4377 17.1221V19.9ZM63.2914 14.433C64.0025 14.433 64.5766 14.5071 65.0137 14.6553C65.4508 14.8034 65.7693 15.0775 65.9693 15.4775C66.1767 15.8701 66.2804 16.4405 66.2804 17.1887V19.9H64.6692L64.6137 19.3889H64.5803C64.4396 19.5741 64.2211 19.7222 63.9248 19.8333C63.6284 19.9444 63.2432 20 62.7691 20C61.4876 20 60.8468 19.4 60.8468 18.1999C60.8468 17.6888 61.0135 17.2887 61.3468 16.9998C61.6876 16.7035 62.221 16.5554 62.9469 16.5554H64.5915C64.5396 16.2442 64.4063 16.0368 64.1914 15.9331C63.9766 15.822 63.6099 15.7664 63.0914 15.7664C62.7654 15.7664 62.4432 15.7924 62.1247 15.8442C61.8135 15.8887 61.5394 15.9405 61.3024 15.9998L61.2691 15.9776L61.2802 14.6886C61.4283 14.6442 61.6172 14.6034 61.8469 14.5664C62.0765 14.5219 62.3173 14.4886 62.5691 14.4664C62.8284 14.4441 63.0692 14.433 63.2914 14.433ZM63.2247 18.6888C63.684 18.6888 64.0285 18.6333 64.2581 18.5221C64.4877 18.4036 64.6063 18.2184 64.6137 17.9666V17.6888H63.3581C63.0321 17.6888 62.8025 17.7369 62.6691 17.8332C62.5432 17.9221 62.4802 18.0443 62.4802 18.1999C62.4802 18.3851 62.5469 18.5147 62.6802 18.5888C62.8136 18.6555 62.9951 18.6888 63.2247 18.6888ZM69.2205 19.9H67.4427V14.4886H69.1316L69.2205 15.4775H69.2539C69.3576 15.1442 69.5428 14.8886 69.8095 14.7108C70.0761 14.5256 70.4465 14.433 70.9206 14.433C71.5651 14.433 72.0392 14.6145 72.3429 14.9775C72.6541 15.3405 72.8096 15.9702 72.8096 16.8665V19.9H71.0317L71.0206 17.211C71.0206 16.7961 70.9577 16.4998 70.8317 16.322C70.7058 16.1442 70.4687 16.0553 70.1206 16.0553C69.7946 16.0553 69.565 16.1368 69.4317 16.2998C69.2983 16.4554 69.2279 16.7257 69.2205 17.111V19.9ZM74.4294 19.5333C74.1849 19.4296 74.0072 19.2963 73.896 19.1333C73.7849 18.9703 73.7294 18.774 73.7294 18.5444C73.7294 18.3369 73.7849 18.1555 73.896 17.9999C74.0146 17.8443 74.1701 17.7221 74.3627 17.6332V17.5999C74.1775 17.4517 74.0405 17.2665 73.9516 17.0443C73.8701 16.8146 73.8294 16.5517 73.8294 16.2554C73.8294 15.6627 74.022 15.2108 74.4072 14.8997C74.7924 14.5886 75.4591 14.433 76.4073 14.433C77.1851 14.433 77.7777 14.5441 78.1852 14.7664H78.2407C78.3593 14.5738 78.5111 14.4145 78.6963 14.2886C78.8815 14.1626 79.1074 14.0997 79.3741 14.0997C79.4556 14.0997 79.5297 14.1034 79.5964 14.1108C79.663 14.1108 79.726 14.1145 79.7853 14.1219V15.4886C79.6445 15.459 79.4778 15.4442 79.2852 15.4442C79.1297 15.4442 78.9815 15.459 78.8408 15.4886C78.9222 15.7035 78.963 15.959 78.963 16.2554C78.963 16.8924 78.7704 17.3517 78.3852 17.6332C78 17.9147 77.3407 18.0554 76.4073 18.0554C76.1925 18.0554 75.9925 18.048 75.8073 18.0332C75.6221 18.0184 75.4517 17.9962 75.2961 17.9666C75.2665 18.0258 75.2517 18.0962 75.2517 18.1777C75.2517 18.2962 75.2887 18.3962 75.3628 18.4777C75.4443 18.5518 75.5813 18.5888 75.7739 18.5888H77.374C78.0555 18.5888 78.563 18.6962 78.8963 18.9111C79.2371 19.1259 79.4075 19.5407 79.4075 20.1556C79.4075 20.763 79.1704 21.226 78.6963 21.5445C78.2222 21.8631 77.4222 22.0223 76.2962 22.0223C75.3702 22.0223 74.6961 21.8964 74.2738 21.6445C73.8516 21.4001 73.6405 21.0408 73.6405 20.5667C73.6405 20.3074 73.7108 20.0926 73.8516 19.9222C73.9923 19.7444 74.1849 19.6259 74.4294 19.5666V19.5333ZM76.4073 16.8665C76.7555 16.8665 76.9999 16.8258 77.1407 16.7443C77.2814 16.6554 77.3518 16.4998 77.3518 16.2776C77.3518 16.0553 77.2814 15.8924 77.1407 15.7887C76.9999 15.6849 76.7555 15.6331 76.4073 15.6331C76.0517 15.6331 75.8036 15.6849 75.6628 15.7887C75.5221 15.8924 75.4517 16.0553 75.4517 16.2776C75.4517 16.4998 75.5221 16.6554 75.6628 16.7443C75.8036 16.8258 76.0517 16.8665 76.4073 16.8665ZM76.5073 20.7111C76.8999 20.7111 77.1888 20.6926 77.374 20.6556C77.5592 20.6186 77.6814 20.563 77.7407 20.4889C77.8 20.4148 77.8296 20.3222 77.8296 20.2111C77.8296 20.0852 77.7926 19.9852 77.7185 19.9111C77.6444 19.8296 77.5333 19.7889 77.3851 19.7889H75.685C75.5369 19.7889 75.4258 19.8296 75.3517 19.9111C75.2776 19.9852 75.2406 20.0852 75.2406 20.2111C75.2406 20.3222 75.2702 20.4148 75.3295 20.4889C75.3961 20.563 75.5184 20.6186 75.6961 20.6556C75.8813 20.6926 76.1517 20.7111 76.5073 20.7111ZM85.1118 19.7222C84.9043 19.7963 84.6154 19.863 84.245 19.9222C83.8821 19.9741 83.4487 20 82.945 20C82.3079 20 81.7634 19.9185 81.3116 19.7555C80.8671 19.5852 80.53 19.3 80.3004 18.8999C80.0707 18.4925 79.9559 17.9295 79.9559 17.211C79.9559 16.2331 80.1782 15.5257 80.6226 15.0886C81.0745 14.6516 81.7708 14.433 82.7116 14.433C83.3857 14.433 83.9154 14.5293 84.3006 14.7219C84.6932 14.9145 84.971 15.1886 85.134 15.5442C85.3044 15.8924 85.3896 16.3072 85.3896 16.7887C85.3896 16.9295 85.3821 17.0813 85.3673 17.2443C85.3599 17.4073 85.3414 17.5665 85.3118 17.7221L85.2673 17.7665H81.6116C81.6634 18.0925 81.8153 18.3073 82.0672 18.411C82.3264 18.5147 82.745 18.5666 83.3228 18.5666C83.708 18.5666 84.0265 18.5592 84.2784 18.5444C84.5377 18.5221 84.8006 18.4925 85.0673 18.4555L85.1118 18.4888V19.7222ZM83.845 16.5998C83.845 16.422 83.8154 16.2702 83.7561 16.1442C83.7043 16.0109 83.5969 15.9109 83.4339 15.8442C83.2709 15.7701 83.0302 15.7331 82.7116 15.7331C82.2449 15.7331 81.9375 15.8146 81.7894 15.9776C81.6486 16.1331 81.5782 16.3405 81.5782 16.5998H83.845ZM39.054 30.9H37.2761V23.8663H42.4986V25.3108H39.054V26.922H42.2764V28.3665H39.054V30.9ZM45.3868 25.433C46.0979 25.433 46.672 25.5071 47.1091 25.6553C47.5461 25.8034 47.8647 26.0775 48.0647 26.4775C48.2721 26.8701 48.3758 27.4405 48.3758 28.1887V30.9H46.7646L46.7091 30.3889H46.6757C46.535 30.5741 46.3164 30.7222 46.0201 30.8333C45.7238 30.9444 45.3386 31 44.8645 31C43.583 31 42.9422 30.4 42.9422 29.1999C42.9422 28.6888 43.1089 28.2887 43.4422 27.9998C43.783 27.7035 44.3163 27.5554 45.0423 27.5554H46.6868C46.635 27.2442 46.5016 27.0368 46.2868 26.9331C46.072 26.822 45.7053 26.7664 45.1868 26.7664C44.8608 26.7664 44.5386 26.7924 44.22 26.8442C43.9089 26.8887 43.6348 26.9405 43.3978 26.9998L43.3644 26.9776L43.3755 25.6886C43.5237 25.6442 43.7126 25.6034 43.9422 25.5664C44.1719 25.5219 44.4126 25.4886 44.6645 25.4664C44.9238 25.4441 45.1645 25.433 45.3868 25.433ZM45.3201 29.6888C45.7794 29.6888 46.1238 29.6333 46.3535 29.5221C46.5831 29.4036 46.7017 29.2184 46.7091 28.9666V28.6888H45.4534C45.1275 28.6888 44.8978 28.7369 44.7645 28.8332C44.6386 28.9221 44.5756 29.0443 44.5756 29.1999C44.5756 29.3851 44.6423 29.5147 44.7756 29.5888C44.909 29.6555 45.0905 29.6888 45.3201 29.6888ZM51.3159 30.9H49.538V25.4886H51.227L51.3159 26.4775H51.3492C51.453 26.1442 51.6381 25.8886 51.9048 25.7108C52.1715 25.5256 52.5419 25.433 53.016 25.433C53.6605 25.433 54.1346 25.6145 54.4383 25.9775C54.7494 26.3405 54.905 26.9702 54.905 27.8665V30.9H53.1271L53.116 28.211C53.116 27.7961 53.053 27.4998 52.9271 27.322C52.8012 27.1442 52.5641 27.0553 52.216 27.0553C51.89 27.0553 51.6604 27.1368 51.527 27.2998C51.3937 27.4554 51.3233 27.7257 51.3159 28.111V30.9ZM56.2359 29.2777V26.9442H55.5692V25.4997H56.4026L56.7359 24.1774H58.0138V25.4997H59.2249V26.9442H58.0138V28.8888C58.0138 29.0962 58.0397 29.2406 58.0915 29.3221C58.1434 29.3962 58.2619 29.4332 58.4471 29.4332C58.5656 29.4332 58.6916 29.4295 58.8249 29.4221C58.9583 29.4073 59.0916 29.3925 59.2249 29.3777L59.2583 29.3999V30.8444C58.9027 30.9481 58.4323 31 57.8471 31C57.2619 31 56.847 30.8667 56.6026 30.6C56.3581 30.3333 56.2359 29.8925 56.2359 29.2777ZM62.3148 25.433C63.0259 25.433 63.6 25.5071 64.0371 25.6553C64.4741 25.8034 64.7927 26.0775 64.9927 26.4775C65.2001 26.8701 65.3038 27.4405 65.3038 28.1887V30.9H63.6926L63.6371 30.3889H63.6037C63.463 30.5741 63.2445 30.7222 62.9481 30.8333C62.6518 30.9444 62.2666 31 61.7925 31C60.511 31 59.8702 30.4 59.8702 29.1999C59.8702 28.6888 60.0369 28.2887 60.3702 27.9998C60.711 27.7035 61.2443 27.5554 61.9703 27.5554H63.6148C63.563 27.2442 63.4296 27.0368 63.2148 26.9331C63 26.822 62.6333 26.7664 62.1148 26.7664C61.7888 26.7664 61.4666 26.7924 61.148 26.8442C60.8369 26.8887 60.5628 26.9405 60.3258 26.9998L60.2924 26.9776L60.3035 25.6886C60.4517 25.6442 60.6406 25.6034 60.8702 25.5664C61.0999 25.5219 61.3406 25.4886 61.5925 25.4664C61.8518 25.4441 62.0925 25.433 62.3148 25.433ZM62.2481 29.6888C62.7074 29.6888 63.0518 29.6333 63.2815 29.5221C63.5111 29.4036 63.6297 29.2184 63.6371 28.9666V28.6888H62.3814C62.0555 28.6888 61.8259 28.7369 61.6925 28.8332C61.5666 28.9221 61.5036 29.0443 61.5036 29.1999C61.5036 29.3851 61.5703 29.5147 61.7036 29.5888C61.837 29.6555 62.0185 29.6888 62.2481 29.6888ZM66.2216 29.3666C66.7994 29.5295 67.4402 29.611 68.1439 29.611C68.4847 29.611 68.7402 29.5999 68.9106 29.5777C69.081 29.5555 69.1958 29.5184 69.2551 29.4666C69.3143 29.4147 69.344 29.3444 69.344 29.2555C69.344 29.1295 69.2958 29.0517 69.1995 29.0221C69.1106 28.9925 68.9291 28.9517 68.655 28.8999L67.7772 28.7332C67.2142 28.6221 66.8068 28.448 66.5549 28.211C66.3105 27.9665 66.1882 27.6035 66.1882 27.122C66.1882 26.4701 66.3808 26.0257 66.7661 25.7886C67.1587 25.5516 67.7809 25.433 68.6328 25.433C69.144 25.433 69.5921 25.4627 69.9773 25.5219C70.37 25.5738 70.6959 25.6404 70.9552 25.7219L70.9329 27.0665L70.8996 27.0998C70.2996 26.9072 69.644 26.8109 68.9328 26.8109C68.5847 26.8109 68.3402 26.8368 68.1995 26.8887C68.0661 26.9331 67.9995 27.0257 67.9995 27.1665C67.9995 27.2405 68.018 27.2998 68.055 27.3442C68.0995 27.3887 68.1958 27.4331 68.3439 27.4776C68.4921 27.5146 68.7254 27.5628 69.044 27.622L69.8551 27.7776C70.307 27.8739 70.6403 28.0332 70.8552 28.2554C71.07 28.4776 71.1774 28.8295 71.1774 29.311C71.1774 29.7333 71.0996 30.0703 70.9441 30.3222C70.7885 30.5666 70.5255 30.7407 70.1551 30.8444C69.7921 30.9481 69.2884 31 68.6439 31C68.155 31 67.7031 30.9778 67.2883 30.9333C66.8809 30.8815 66.5142 30.8222 66.1882 30.7555V29.3888L66.2216 29.3666ZM72.7418 32.9446L73.5974 30.9111L71.4529 25.5108V25.4886H73.4419C73.6493 26.0738 73.8419 26.6627 74.0197 27.2554C74.2049 27.848 74.353 28.4554 74.4641 29.0777H74.4864C74.5975 28.4628 74.7382 27.8591 74.9086 27.2665C75.0864 26.6738 75.2864 26.0812 75.5086 25.4886H77.4199V25.5219L74.5641 32.9668H72.7418V32.9446Z" fill="white"/>
<path d="M8.42818 2.94721C8.44218 1.72922 8.96018 0.987218 10.1222 0.52522C12.0542 -0.244777 14.0142 -0.146778 15.8622 0.679219C19.7401 2.40121 22.2041 5.3412 23.1841 9.45719C23.3941 10.3672 23.3661 11.3192 23.2821 12.2572C23.2541 12.5652 23.1561 12.6912 22.8061 12.6912C17.8081 12.8452 13.7482 16.1912 12.6982 21.0211C12.5302 21.7071 12.4602 22.4071 12.4882 23.1071C12.4882 23.3311 12.2782 23.4851 12.1242 23.4851C9.08618 23.4711 6.03419 23.4711 2.99621 23.4851C2.75821 23.4851 2.61821 23.1351 2.73021 22.7151C3.17821 21.4551 3.8782 20.7691 4.7462 19.7611C6.09019 18.2072 7.70019 16.9752 9.40818 15.8692C10.4862 15.1692 11.4942 14.3572 12.2362 13.2792C12.6562 12.7192 12.8942 12.2012 12.8802 11.9352C12.8382 11.4172 12.5302 11.6412 12.3762 11.8092C11.4802 12.8032 9.74418 12.8592 8.76418 12.2012C8.68018 12.1592 8.59618 12.1032 8.52619 12.0472C7.88219 11.3892 7.23819 11.6132 6.58019 12.0192C5.82419 12.4952 5.1522 13.0832 4.4382 13.6012C3.7382 14.0912 3.27621 14.0072 2.80021 13.3072C2.52021 12.9152 2.22621 12.5372 1.94621 12.1452C1.69421 11.8092 1.68021 11.5012 1.90421 11.1232C3.10821 9.14919 4.3682 7.2032 5.6422 5.2712C5.6982 5.1732 5.7682 5.0892 5.85219 5.0192C6.34219 4.6972 6.32819 4.27721 6.17419 3.78721C5.95019 3.14321 5.7262 2.49921 5.6002 1.81321C5.5022 1.25322 5.6002 1.05722 6.00619 1.01522C6.23019 0.987218 6.70619 1.25322 6.84619 1.37922C7.40619 1.89721 7.61619 2.30321 8.17619 2.80721C8.24619 2.87721 8.28819 3.01721 8.42818 2.94721C8.40019 2.97521 8.41419 2.98921 8.45618 3.00321C8.47018 3.00321 8.48418 2.98921 8.48418 2.98921C8.48418 2.94721 8.47018 2.93321 8.42818 2.94721Z" fill="white"/>
<path d="M17.5032 32.0656H17.0692C12.0152 32.0656 6.94721 32.0656 1.89323 32.0656C1.20723 32.0656 0.647236 31.7996 0.255238 31.2536C-0.30476 30.4416 0.101238 29.2096 1.03923 28.8596C1.24923 28.7756 1.69723 28.6076 1.68323 27.9216C1.68323 27.8236 1.83723 27.5156 2.10323 27.5156C5.77122 27.5296 9.4392 27.5296 13.1072 27.5156C13.3032 27.5156 13.4572 27.5296 13.5832 27.7396C14.7732 29.8676 15.3752 30.5396 17.5032 32.0656Z" fill="white"/>
<path d="M17.0692 32.0773H17.5032C15.3752 30.5513 14.7732 29.8793 13.5832 27.7513C13.4572 27.5413 13.3032 27.5273 13.1072 27.5273C9.4392 27.5413 5.77122 27.5413 2.10323 27.5273C1.83723 27.5273 1.68323 27.8353 1.68323 27.9333C1.69723 28.6193 1.24923 28.7873 1.03923 28.8713C0.101238 29.2213 -0.30476 30.4533 0.255238 31.2653C0.647236 31.8113 1.20723 32.0773 1.89323 32.0773H17.0692Z" fill="white"/>
<path d="M7.07444 26.6179C5.22644 26.6179 3.37845 26.6179 1.53046 26.6179C0.746462 26.6179 0.228464 26.1419 0.242464 25.4699C0.242464 25.2179 0.340464 24.9659 0.494463 24.7699C0.662463 24.5739 0.886462 24.4339 1.13846 24.3919C1.30646 24.3639 1.47446 24.3499 1.62846 24.3499C5.12844 24.3499 8.62843 24.3499 12.1284 24.3359C12.4224 24.3359 12.5764 24.3779 12.6044 24.7139C12.6604 25.2459 12.7724 25.7779 12.9684 26.2819C13.0804 26.5619 13.0104 26.6179 12.7164 26.6179C10.8544 26.6179 8.96443 26.6179 7.07444 26.6179Z" fill="white"/>
<g filter="url(#filter0_iii_581_3408)">
<path d="M23.2746 32.0496C28.2137 32.0496 32.225 28.0792 32.225 23.181C32.225 18.2829 28.2137 14.3125 23.2746 14.3125C18.3355 14.3125 14.3242 18.2829 14.3242 23.181C14.3242 28.0792 18.3355 32.0496 23.2746 32.0496Z" fill="white"/>
</g>
<defs>
<filter id="filter0_iii_581_3408" x="11.3411" y="8.74404" width="21.8798" height="23.3067" filterUnits="userSpaceOnUse" color-interpolation-filters="sRGB">
<feFlood flood-opacity="0" result="BackgroundImageFix"/>
<feBlend mode="normal" in="SourceGraphic" in2="BackgroundImageFix" result="shape"/>
<feColorMatrix in="SourceAlpha" type="matrix" values="0 0 0 0 0 0 0 0 0 0 0 0 0 0 0 0 0 0 127 0" result="hardAlpha"/>
<feOffset dx="-2.9831" dy="-5.56846"/>
<feGaussianBlur stdDeviation="4.47466"/>
<feComposite in2="hardAlpha" operator="arithmetic" k2="-1" k3="1"/>
<feColorMatrix type="matrix" values="0 0 0 0 0.195833 0 0 0 0 0 0 0 0 0 0 0 0 0 0.1 0"/>
<feBlend mode="normal" in2="shape" result="effect1_innerShadow_581_3408"/>
<feColorMatrix in="SourceAlpha" type="matrix" values="0 0 0 0 0 0 0 0 0 0 0 0 0 0 0 0 0 0 127 0" result="hardAlpha"/>
<feOffset dx="1.39212" dy="-1.39212"/>
<feGaussianBlur stdDeviation="0.497184"/>
<feComposite in2="hardAlpha" operator="arithmetic" k2="-1" k3="1"/>
<feColorMatrix type="matrix" values="0 0 0 0 0.4 0 0 0 0 0.4 0 0 0 0 0.4 0 0 0 0.15 0"/>
<feBlend mode="normal" in2="effect1_innerShadow_581_3408" result="effect2_innerShadow_581_3408"/>
<feColorMatrix in="SourceAlpha" type="matrix" values="0 0 0 0 0 0 0 0 0 0 0 0 0 0 0 0 0 0 127 0" result="hardAlpha"/>
<feOffset dx="-0.994368" dy="-3.57973"/>
<feGaussianBlur stdDeviation="2.9159"/>
<feComposite in2="hardAlpha" operator="arithmetic" k2="-1" k3="1"/>
<feColorMatrix type="matrix" values="0 0 0 0 0.404167 0 0 0 0 0.123566 0 0 0 0 0.0421007 0 0 0 0.25 0"/>
<feBlend mode="normal" in2="effect2_innerShadow_581_3408" result="effect3_innerShadow_581_3408"/>
</filter>
</defs>
</svg>
