<svg width="82" height="38" viewBox="0 0 82 38" fill="none" xmlns="http://www.w3.org/2000/svg">
<path d="M7.54374 19.186C6.3175 19.186 5.22214 18.9518 4.25768 18.4833C3.307 18.0149 2.56298 17.3604 2.02564 16.52C1.48829 15.6795 1.21962 14.7219 1.21962 13.6472V9.84449C1.21962 8.7698 1.4814 7.81912 2.00497 6.99244C2.54231 6.15198 3.27944 5.50441 4.21635 5.04973C5.15325 4.58128 6.22794 4.34705 7.44041 4.34705C8.65288 4.34705 9.72756 4.53306 10.6645 4.90506C11.6152 5.26329 12.3523 5.77308 12.8758 6.43443C13.3994 7.08199 13.6612 7.82601 13.6612 8.66647C13.6612 9.17626 13.489 9.58271 13.1445 9.88583C12.8138 10.1752 12.3661 10.3198 11.8012 10.3198C11.5256 10.3198 11.2225 10.2785 10.8918 10.1958C10.9194 9.86516 10.9331 9.54137 10.9331 9.22448C10.9331 8.49424 10.6094 7.90179 9.96179 7.44711C9.31422 6.99244 8.47376 6.7651 7.44041 6.7651C6.42083 6.7651 5.58726 7.05444 4.93969 7.63312C4.3059 8.19802 3.98901 8.93514 3.98901 9.84449V13.6472C3.98901 14.5704 4.31968 15.3213 4.98103 15.8999C5.64237 16.4786 6.49661 16.768 7.54374 16.768C8.5771 16.768 9.41756 16.5406 10.0651 16.0859C10.7127 15.6313 11.0365 15.0457 11.0365 14.3292C11.0365 13.9986 11.0227 13.6817 10.9951 13.3786C11.3396 13.3097 11.6289 13.2752 11.8632 13.2752C12.4418 13.2752 12.9034 13.4268 13.2479 13.7299C13.5923 14.033 13.7645 14.4464 13.7645 14.9699C13.7645 15.7828 13.5027 16.5131 12.9792 17.1606C12.4556 17.7944 11.7185 18.2904 10.7678 18.6487C9.8309 19.0069 8.75621 19.186 7.54374 19.186ZM15.7599 5.79375C15.7599 5.43552 15.8908 5.13929 16.1525 4.90506C16.4143 4.65706 16.745 4.53306 17.1446 4.53306H22.6627C24.1507 4.53306 25.3012 4.92573 26.1141 5.71108C26.9407 6.49643 27.3541 7.59867 27.3541 9.01781C27.3541 9.83071 27.1888 10.5196 26.8581 11.0845C26.5274 11.6356 26.0245 12.0765 25.3494 12.4072V12.4692C26.5619 13.0066 27.1681 14.0261 27.1681 15.5279V17.14C27.1681 17.8013 26.9339 18.3111 26.4654 18.6693C25.997 19.0138 25.3081 19.186 24.3987 19.186V15.6519C24.3987 14.9217 24.254 14.3844 23.9647 14.0399C23.6754 13.6955 23.2345 13.5232 22.642 13.5232H18.4879V17.14C18.4879 17.8151 18.2537 18.3249 17.7852 18.6693C17.3306 19.0138 16.6554 19.186 15.7599 19.186V5.79375ZM22.518 11.1672C23.1793 11.1672 23.6891 10.9812 24.0474 10.6092C24.4056 10.2234 24.5847 9.68604 24.5847 8.99714C24.5847 7.59178 23.8958 6.8891 22.518 6.8891H18.4879V11.1672H22.518ZM33.0246 13.8126L27.9199 4.63639C28.0439 4.55372 28.2436 4.48483 28.5192 4.42972C28.7948 4.37461 29.0428 4.34705 29.2632 4.34705C29.773 4.34705 30.2001 4.45039 30.5446 4.65706C30.889 4.86373 31.1784 5.18751 31.4126 5.62841L34.3473 11.1465L33.7893 12.3245L33.996 12.4072L37.406 5.62841C37.8332 4.77417 38.5496 4.34705 39.5554 4.34705C39.7759 4.34705 40.0239 4.37461 40.2994 4.42972C40.575 4.48483 40.7748 4.55372 40.8988 4.63639L35.794 13.8332V17.14C35.794 17.8013 35.5529 18.3111 35.0707 18.6693C34.6022 19.0138 33.9202 19.186 33.0246 19.186V13.8126ZM42.9056 5.79375C42.9056 5.43552 43.0365 5.13929 43.2982 4.90506C43.56 4.65706 43.8907 4.53306 44.2903 4.53306H50.0357C51.0277 4.53306 51.9026 4.73284 52.6604 5.1324C53.432 5.51819 54.0244 6.0762 54.4378 6.80643C54.8649 7.52289 55.0785 8.35646 55.0785 9.30715C55.0785 10.2716 54.8718 11.119 54.4585 11.8492C54.0451 12.5657 53.4595 13.1237 52.7018 13.5232C51.944 13.909 51.0553 14.1019 50.0357 14.1019H45.675V17.14C45.675 17.8013 45.4338 18.3111 44.9516 18.6693C44.4832 19.0138 43.8011 19.186 42.9056 19.186V5.79375ZM50.0357 11.7045C50.7659 11.7045 51.3308 11.491 51.7304 11.0638C52.13 10.6367 52.3297 10.0443 52.3297 9.28648C52.3297 8.54247 52.1231 7.96379 51.7097 7.55045C51.3102 7.13711 50.7522 6.93044 50.0357 6.93044H45.675V11.7045H50.0357ZM60.4855 6.93044H55.5047C55.5047 5.33218 56.2281 4.53306 57.6748 4.53306H68.2356C68.2356 6.13131 67.5054 6.93044 66.0449 6.93044H63.2549V17.14C63.2549 17.8013 63.0206 18.3111 62.5522 18.6693C62.0837 19.0138 61.3948 19.186 60.4855 19.186V6.93044ZM74.6857 19.186C73.5559 19.186 72.5225 18.9656 71.5856 18.5247C70.6487 18.07 69.9047 17.4569 69.3536 16.6853C68.8162 15.9137 68.5476 15.0733 68.5476 14.1639V9.34848C68.5476 8.43913 68.8162 7.60556 69.3536 6.84777C69.9047 6.0762 70.6487 5.46996 71.5856 5.02907C72.5225 4.57439 73.5559 4.34705 74.6857 4.34705C75.8155 4.34705 76.8488 4.57439 77.7857 5.02907C78.7364 5.46996 79.4804 6.0762 80.0178 6.84777C80.5689 7.60556 80.8445 8.43913 80.8445 9.34848V14.1639C80.8445 15.0733 80.5689 15.9137 80.0178 16.6853C79.4804 17.4569 78.7364 18.07 77.7857 18.5247C76.8488 18.9656 75.8155 19.186 74.6857 19.186ZM74.6857 16.768C75.719 16.768 76.5457 16.5268 77.1657 16.0446C77.7857 15.5486 78.0958 14.9079 78.0958 14.1226V9.41048C78.0958 8.61136 77.7857 7.97068 77.1657 7.48845C76.5457 6.99244 75.719 6.74443 74.6857 6.74443C73.6661 6.74443 72.8463 6.99244 72.2263 7.48845C71.6063 7.97068 71.2963 8.61136 71.2963 9.41048V14.1226C71.2963 14.9079 71.6063 15.5486 72.2263 16.0446C72.8463 16.5268 73.6661 16.768 74.6857 16.768ZM16.5363 36.1496C16.0045 36.1496 15.6444 35.9058 15.4561 35.4184L11.2184 24.4335C11.3292 24.3781 11.4787 24.3283 11.6671 24.284C11.8554 24.2397 12.0216 24.2175 12.1656 24.2175C13.0409 24.2175 13.6059 24.572 13.8607 25.2811L16.42 32.4436L16.0211 33.5072L16.2039 33.5737L19.1953 25.2811C19.4612 24.572 20.0262 24.2175 20.8903 24.2175C21.0344 24.2175 21.2006 24.2397 21.3889 24.284C21.5772 24.3283 21.7323 24.3781 21.8542 24.4335L17.6165 35.4184C17.5279 35.651 17.3894 35.8338 17.201 35.9668C17.0238 36.0886 16.8022 36.1496 16.5363 36.1496ZM23.7794 25.8793C23.7794 25.3586 23.9732 24.9543 24.361 24.6662C24.7488 24.3671 25.2972 24.2175 26.0062 24.2175V34.4877C26.0062 35.0195 25.8124 35.4294 25.4246 35.7175C25.0368 36.0055 24.4884 36.1496 23.7794 36.1496V25.8793ZM33.2522 36.1496C32.7204 36.1496 32.3603 35.9058 32.172 35.4184L27.9342 24.4335C28.045 24.3781 28.1946 24.3283 28.3829 24.284C28.5713 24.2397 28.7375 24.2175 28.8815 24.2175C29.7567 24.2175 30.3218 24.572 30.5766 25.2811L33.1358 32.4436L32.737 33.5072L32.9198 33.5737L35.9111 25.2811C36.177 24.572 36.742 24.2175 37.6062 24.2175C37.7502 24.2175 37.9164 24.2397 38.1047 24.284C38.2931 24.3283 38.4482 24.3781 38.5701 24.4335L34.3324 35.4184C34.2437 35.651 34.1052 35.8338 33.9169 35.9668C33.7396 36.0886 33.518 36.1496 33.2522 36.1496ZM39.2654 36.1496C38.789 36.0942 38.4124 35.928 38.1354 35.651C37.8695 35.374 37.7365 35.025 37.7365 34.604C37.7365 34.2828 37.8141 33.9504 37.9692 33.6069L41.7748 24.9487C41.9853 24.4612 42.3509 24.2175 42.8717 24.2175C43.3813 24.2175 43.7414 24.4612 43.9519 24.9487L47.7575 33.6069C47.9126 33.9725 47.9901 34.3049 47.9901 34.604C47.9901 35.025 47.8517 35.374 47.5747 35.651C47.3088 35.928 46.9321 36.0942 46.4446 36.1496L45.0487 32.9921H40.678L39.2654 36.1496ZM44.3673 31.0975L42.5393 26.5441L42.3399 26.6272L42.7387 27.6575L41.3428 31.0975H44.3673ZM50.788 36.1496C50.3116 36.0942 49.9349 35.928 49.658 35.651C49.3921 35.374 49.2591 35.025 49.2591 34.604C49.2591 34.2828 49.3367 33.9504 49.4918 33.6069L53.2974 24.9487C53.5079 24.4612 53.8735 24.2175 54.3942 24.2175C54.9039 24.2175 55.2639 24.4612 55.4744 24.9487L59.2801 33.6069C59.4352 33.9725 59.5127 34.3049 59.5127 34.604C59.5127 35.025 59.3742 35.374 59.0973 35.651C58.8314 35.928 58.4547 36.0942 57.9672 36.1496L56.5713 32.9921H52.2006L50.788 36.1496ZM55.8899 31.0975L54.0619 26.5441L53.8624 26.6272L54.2613 27.6575L52.8653 31.0975H55.8899ZM61.1307 25.9791C61.1307 25.4362 61.3135 25.0096 61.6791 24.6994C62.0447 24.3781 62.5377 24.2175 63.1581 24.2175L68.7752 32.9921L68.9414 32.8591L68.26 31.7291V24.2175C68.9802 24.2175 69.523 24.356 69.8886 24.633C70.2653 24.9099 70.4537 25.3199 70.4537 25.8627V34.6373C70.4537 35.0472 70.2764 35.4017 69.9219 35.7009C69.5784 36 69.1796 36.1496 68.7253 36.1496L62.8092 26.8931L62.643 27.0426L63.3243 28.1727V34.5043C63.3243 35.0472 63.136 35.4571 62.7593 35.7341C62.3937 36.0111 61.8508 36.1496 61.1307 36.1496V25.9791Z" fill="white"/>
</svg>
