<svg width="66" height="45" viewBox="0 0 66 45" fill="none" xmlns="http://www.w3.org/2000/svg">
<path d="M34.654 33.1859C34.0412 32.0945 33.1684 30.3758 32.0375 28.0298C31.8999 27.7338 31.513 26.9309 30.8766 25.6237C30.2402 24.3164 29.6512 23.1899 29.1094 22.2465C28.5655 21.3031 28.086 20.5629 27.6711 20.0235L24.1711 24.6351V31.8486C24.1711 32.4006 24.5538 32.8472 25.0267 32.8472H27.325V34.8294H17.5859V32.8472H19.6068C20.0798 32.8472 20.4625 32.4006 20.4625 31.8486V7.79434C20.4625 7.24234 20.0798 6.79573 19.6068 6.79573H17.6203V4.77344H27.0476V6.79573H25.0246C24.5516 6.79573 24.1689 7.24234 24.1689 7.79434V21.4361L33.5274 8.43414C33.9939 7.7843 33.5984 6.79573 32.8717 6.79573H31.4463V4.77344H40.0051V6.79573H38.0486C37.8036 6.79573 37.5714 6.91868 37.4101 7.13195L29.8532 17.0678C30.6616 17.8757 31.5216 19.0499 32.4353 20.5855C33.3468 22.121 34.4626 24.1032 35.7784 26.5294C36.9092 28.6069 37.7369 30.0822 38.255 30.9579C38.7753 31.8336 39.1838 32.3128 39.4848 32.3931L41.1144 32.8372V34.8193H36.1589C35.7655 34.8193 35.2624 34.2724 34.6518 33.1809L34.654 33.1859Z" fill="white"/>
<path d="M42.6758 32.8422H44.6967C45.1697 32.8422 45.5523 32.3956 45.5523 31.8436V7.79434C45.5523 7.24234 45.1697 6.79573 44.6967 6.79573H42.8499V4.77344H54.096C57.4929 4.77344 58.5442 5.08958 59.9867 6.3717C61.41 7.63376 62.1323 9.61089 62.1517 12.3006C62.1624 13.6655 61.9367 15.0129 61.4551 16.2574C60.5307 18.641 59.0537 20.1916 57.0242 20.9117C57.7638 21.3708 58.4496 22.1587 59.0859 23.2777C59.7202 24.3967 60.5006 25.9549 61.425 27.9495C62.1409 29.46 62.6892 30.564 63.0718 31.2665C63.4524 31.969 63.8179 32.3579 64.164 32.4382L65.5163 32.8422V34.8243H60.7349C60.3651 34.8243 59.9502 34.3602 59.488 33.4293C59.0257 32.4985 58.413 31.0633 57.652 29.1213C56.8199 26.9911 56.0976 25.3 55.487 24.0455C54.8743 22.7909 54.268 21.9905 53.6682 21.6393C51.1958 21.6393 49.7296 21.6267 49.2674 21.5991V31.8461C49.2674 32.3981 49.65 32.8447 50.123 32.8447H52.6986V34.8269H42.6822V32.8447L42.6758 32.8422ZM56.8844 17.7553C57.738 16.6237 58.1658 14.9376 58.1658 12.6995C58.1658 10.7324 57.7337 9.22951 56.8672 8.19077C56.0008 7.15202 54.9603 6.79573 53.6596 6.79573H49.2609V19.4138C49.607 19.4414 50.323 19.4539 51.4108 19.4539H53.3866C54.8657 19.4539 56.0309 18.8869 56.8866 17.7553H56.8844Z" fill="white"/>
<path d="M20.9587 43.5293H19.4323L19.1872 44.3724H18.1445L19.6258 39.5977H20.7803L22.2594 44.3724H21.2038L20.9587 43.5293ZM20.7029 42.6311L20.1955 40.8823L19.6946 42.6311H20.7029Z" fill="white"/>
<path d="M28.3155 39.5977L26.8987 42.7942V44.3724H25.9012V42.7942L24.4844 39.5977H25.6152L26.4085 41.5974L27.1954 39.5977H28.3155Z" fill="white"/>
<path d="M31.7962 39.5977V42.4555C31.7962 42.7415 31.8564 42.9623 31.9768 43.1153C32.0972 43.2709 32.2735 43.3462 32.5078 43.3462C32.7421 43.3462 32.9184 43.2684 33.0431 43.1153C33.1678 42.9623 33.2302 42.7415 33.2302 42.4555V39.5977H34.2277V42.4479C34.2277 42.8745 34.1503 43.2358 33.9955 43.5293C33.8407 43.8229 33.63 44.0462 33.3699 44.1967C33.1098 44.3473 32.8152 44.4201 32.4928 44.4201C32.1703 44.4201 31.8822 44.3473 31.6263 44.1993C31.3727 44.0512 31.1706 43.8304 31.0222 43.5318C30.8739 43.2358 30.8008 42.872 30.8008 42.4479V39.5977H31.7983H31.7962Z" fill="white"/>
<path d="M39.1071 44.3724L38.2557 42.5709H38.0171V44.3724H37.0195V39.5977H38.6922C39.0146 39.5977 39.2898 39.6629 39.5177 39.7959C39.7456 39.9263 39.9154 40.107 40.0272 40.3378C40.139 40.5687 40.1971 40.8221 40.1971 41.1031C40.1971 41.4192 40.1197 41.7028 39.967 41.9537C39.8144 42.2021 39.5865 42.3802 39.2877 42.4831L40.2315 44.3749H39.1071V44.3724ZM38.0171 41.7479H38.6341C38.8168 41.7479 38.9544 41.6952 39.0447 41.5924C39.135 41.487 39.1823 41.3414 39.1823 41.1508C39.1823 40.9601 39.1372 40.8271 39.0447 40.7217C38.9523 40.6163 38.8168 40.5662 38.6341 40.5662H38.0171V41.7504V41.7479Z" fill="white"/>
<path d="M46.7626 39.5977L45.3114 44.3724H44.0645L42.6133 39.5977H43.6732L44.6879 43.2032L45.707 39.5977H46.7626Z" fill="white"/>
<path d="M50.271 40.531V41.497H51.6061V42.3952H50.271V43.4415H51.7802V44.3724H49.2734V39.5977H51.7802V40.5285H50.271V40.531Z" fill="white"/>
<path d="M57.1893 39.8962C57.5118 40.0944 57.7612 40.3755 57.9375 40.7368C58.1138 41.0981 58.2041 41.5146 58.2041 41.9863C58.2041 42.458 58.1159 42.8669 57.9375 43.2308C57.7612 43.5946 57.5096 43.8756 57.185 44.0738C56.8604 44.2745 56.4841 44.3724 56.0563 44.3724H54.5234V39.5977H56.0563C56.4884 39.5977 56.8647 39.698 57.1872 39.8962H57.1893ZM56.8733 43.0049C57.0818 42.7641 57.1872 42.4254 57.1872 41.9838C57.1872 41.5422 57.0818 41.2009 56.8733 40.9576C56.6647 40.7142 56.3702 40.5912 55.994 40.5912H55.521V43.3663H55.994C56.3702 43.3663 56.6647 43.2458 56.8733 43.0049Z" fill="white"/>
<path d="M63.408 43.5293H61.8815L61.6365 44.3724H60.5938L62.075 39.5977H63.2295L64.7087 44.3724H63.6531L63.408 43.5293ZM63.1521 42.6311L62.6448 40.8823L62.1438 42.6311H63.1521Z" fill="white"/>
<path d="M13.3122 13.1499C13.4261 13.017 13.4927 12.8338 13.4927 12.6431V5.48479C13.4927 5.19625 13.3423 4.9353 13.1144 4.8224C12.8843 4.712 12.622 4.77222 12.4457 4.97796L7.3591 10.9144V0.71508C7.3591 0.31865 7.08391 0 6.74637 0C3.71502 0 1.14374 2.34596 0.296686 5.56257C0.292386 5.58013 0.285936 5.59769 0.283786 5.61526C0.0988952 6.33285 0 7.08807 0 7.8734V12.6456C0 12.8363 0.0644969 13.017 0.180591 13.1524L6.13365 20.1V25.2335L1.047 19.2971C0.870708 19.0914 0.608421 19.0312 0.378382 19.1416C0.148343 19.252 0 19.5129 0 19.8014V34.1156C0 34.512 0.275187 34.8307 0.61272 34.8307H6.1315V43.6575C6.1315 44.0539 6.40669 44.3726 6.74423 44.3726C7.08176 44.3726 7.35695 44.0514 7.35695 43.6575V34.8307H12.8757C13.2154 34.8307 13.4885 34.5095 13.4885 34.1156V19.8014C13.4885 19.5129 13.338 19.252 13.1101 19.139C12.88 19.0286 12.6177 19.0889 12.4415 19.2946L7.35479 25.231V20.0975L13.3079 13.1499H13.3122ZM12.2652 7.21603V12.3496L7.3591 18.0752V12.9417L12.2652 7.21603ZM6.13365 1.4703V10.9169L1.58017 5.60271C2.29824 3.3822 4.04181 1.74128 6.1315 1.4703H6.13365ZM1.22759 12.347V7.8709C1.22759 7.66014 1.23619 7.44938 1.25339 7.24363L6.13365 12.9392V18.0727L1.22759 12.347ZM6.13365 27.2558V32.3894L1.22759 26.6637V21.5302L6.13365 27.2558ZM1.22759 28.686L5.26725 33.4005H1.22759V28.686ZM8.22765 33.4005L12.2673 28.686V33.4005H8.22765ZM12.2652 21.5302V26.6637L7.3591 32.3894V27.2558L12.2652 21.5302Z" fill="white"/>
</svg>
