<svg width="101" height="32" viewBox="0 0 101 32" fill="none" xmlns="http://www.w3.org/2000/svg">
<g clip-path="url(#clip0_595_83)">
<path d="M8.08832 9.99147C8.08832 9.99147 8.09884 9.98726 8.11778 9.97884C9.76464 9.20435 11.1895 8.52351 12.3901 7.93527C13.0373 7.61853 13.6245 7.29757 14.1528 6.97241C14.6779 6.6483 15.2324 6.20738 15.4944 5.63704C15.7691 5.03827 15.6839 4.36375 15.1567 3.94177C14.5779 3.47771 13.8139 3.5419 13.1825 3.87443C12.7879 4.08278 12.4228 4.37532 12.0881 4.7531C11.5904 5.31293 11.1989 5.77699 10.9127 6.1474C9.2206 8.33304 8.35245 9.4569 8.30825 9.51793C8.19355 9.67894 8.10516 9.81153 8.04202 9.91676C8.02202 9.95043 8.04833 9.99358 8.08727 9.99147H8.08832Z" fill="white"/>
<path d="M50.4795 7.40595C50.9235 6.94609 51.3729 6.51254 51.8275 6.10635C52.4104 5.58441 52.8861 5.17927 53.2533 4.89199C53.8574 4.41951 54.5445 3.94176 55.3138 3.4577C56.5513 2.68005 57.8109 2.08655 59.1326 1.64774C60.8036 1.09317 62.682 0.898496 64.4225 1.30048C64.8297 1.39413 65.3527 1.54777 65.6632 1.80979C65.68 1.82558 65.7074 1.82137 65.72 1.80137C65.7326 1.78138 65.7758 1.6993 65.8494 1.55513C66.1493 0.965844 65.76 0.377606 65.1823 0.191348C64.916 0.105059 64.7066 0.0545482 64.553 0.0387637C63.9342 -0.0264792 63.2787 -0.00964233 62.5873 0.0913789C61.5234 0.245015 60.4827 0.503882 59.4672 0.869032C57.1395 1.70456 54.9991 2.8842 53.0481 4.40583C52.3357 4.96039 51.6517 5.54653 50.994 6.16318C49.6534 7.41963 48.4148 8.75711 47.2805 10.1746C46.0335 11.732 44.9391 13.1799 43.9973 14.5164C42.0989 17.2103 40.5857 19.3117 39.4608 20.8228C38.1065 22.6412 36.7858 24.3102 35.2274 25.9781C34.2361 27.0409 33.2396 27.9417 32.2399 28.6846C31.3686 29.3318 30.3394 29.9789 29.2597 30.1673C28.4747 30.3041 27.7518 29.9558 27.475 29.2097C27.2288 28.5446 27.494 27.5534 27.7686 26.8936C28.3537 25.494 29.0945 24.1955 29.8859 22.9253C30.7119 21.6015 31.3896 20.4787 31.9168 19.5569C32.4672 18.5951 32.8807 17.7375 33.1554 16.984C33.5626 15.8675 33.8078 14.2638 33.0712 13.2273C32.5619 12.5117 31.8621 12.1392 30.996 12.0319C29.6249 11.8604 28.2969 12.2129 27.0604 12.8379C26.0607 13.3431 25.1305 13.9397 24.2708 14.6248C22.7533 15.8339 21.3517 17.1135 20.0658 18.4615C19.9974 18.532 19.9995 18.6435 20.0689 18.713L20.2005 18.8445C20.2583 18.9034 20.3541 18.9013 20.4109 18.8424C21.5674 17.6407 22.7649 16.5336 24.0024 15.5234C24.8201 14.8563 25.6146 14.2901 26.3838 13.8261C27.2014 13.3336 28.722 12.6043 29.6891 13.0358C31.2233 13.7229 30.3889 15.8749 29.8817 16.9398C28.5905 19.6506 26.6606 22.1793 25.5209 25.0489C24.8485 26.7442 24.4139 29.2434 26.2154 30.4188C27.7065 31.3911 29.7743 30.8692 31.2044 30.0284C32.0926 29.5064 32.9428 28.8877 33.7562 28.1721C34.8643 27.1977 35.9145 26.1286 36.9079 24.9637C38.3538 23.2684 39.7691 21.4595 41.1539 19.5359C42.6051 17.5218 43.4353 16.3579 43.6479 16.0443C44.213 15.2098 44.8738 14.2849 45.6315 13.2715C46.7522 11.7699 47.4373 10.8628 47.6867 10.5513C48.4727 9.56738 49.404 8.51929 50.4784 7.40805L50.4795 7.40595Z" fill="white"/>
<path d="M17.8647 26.5846C17.6648 26.8708 17.4406 27.2076 17.1944 27.4748C16.7966 27.9073 16.3904 28.263 15.9769 28.5429C14.2648 29.6984 12.0328 30.2624 9.98505 29.8499C8.02882 29.4553 6.47246 28.443 5.31703 26.8119C3.69438 24.52 3.37658 21.6472 3.65439 18.9617C3.65755 18.928 3.68596 18.9028 3.72068 18.9028H18.4277C18.474 18.9028 18.5108 18.8628 18.5066 18.8165C18.3709 17.2254 17.8689 15.85 17.0008 14.6914C16.4062 13.898 15.7022 13.2466 14.8888 12.7363C13.0851 11.605 10.7269 11.2178 8.62969 11.4819C7.61842 11.6103 6.66714 11.8586 5.77899 12.228C4.90137 12.5921 4.0711 13.1151 3.28713 13.7949C1.29407 15.5259 0.17547 18.0462 0.0197287 20.6696C-0.0855018 22.4364 0.23019 24.0927 0.967855 25.6396C2.43477 28.7155 5.18023 30.4855 8.53498 30.919C11.5898 31.3136 15.2297 30.5076 17.2775 28.0631C17.569 27.7158 17.8405 27.2823 18.0931 26.7624C18.1215 26.7035 18.1173 26.6456 18.0773 26.5877C18.0268 26.512 17.9163 26.5109 17.8647 26.5846ZM5.29388 14.2421C6.87444 12.0607 9.72513 11.3367 12.1949 12.3322C13.7997 12.9793 14.8435 14.4694 15.1677 16.1184C15.3108 16.8497 15.3676 17.5937 15.336 18.3514C15.335 18.3756 15.3139 18.3956 15.2897 18.3956H3.75436C3.74489 18.3956 3.73752 18.3871 3.73857 18.3787C3.93009 16.8739 4.39521 15.4817 5.29283 14.2432L5.29388 14.2421Z" fill="white"/>
<path d="M59.8715 11.8633C58.8244 11.5771 57.7753 11.4393 56.7209 11.4498C55.6675 11.4592 54.6205 11.6171 53.5787 11.9223C50.7701 12.7462 48.494 14.6162 47.2459 17.2617C46.6661 18.4907 46.3725 19.8356 46.3673 21.2983C46.3609 22.9241 46.7471 24.4384 47.5237 25.839C49.4095 29.2379 53.082 31.0311 56.905 30.9953C60.7291 30.9585 64.3659 29.0969 66.1885 25.6622C66.9388 24.2469 67.2965 22.7263 67.2597 21.1005C67.226 19.6388 66.9082 18.3003 66.3042 17.0817C65.0057 14.4594 62.6948 12.6336 59.8715 11.8623V11.8633ZM61.7393 28.132C60.5429 29.6262 58.8265 30.5081 56.8829 30.5196C54.9404 30.5312 53.2125 29.6715 51.9971 28.1941C50.4428 26.301 49.8925 23.6734 49.8767 21.2699C49.8609 18.8654 50.3786 16.2315 51.9097 14.3194C53.1062 12.8251 54.8225 11.9444 56.7661 11.9317C58.7087 11.9202 60.4355 12.7799 61.6509 14.2584C63.2062 16.1504 63.7566 18.778 63.7713 21.1815C63.7871 23.586 63.2694 26.2199 61.7383 28.132H61.7393Z" fill="white"/>
<path d="M76.1548 12.9184C75.1446 13.6877 74.3701 14.6495 73.8292 15.8039C73.8229 15.8175 73.8029 15.8123 73.8029 15.7975V12.1166C73.8029 12.0871 73.7787 12.0629 73.7493 12.0629C72.0098 12.0587 70.3146 12.0555 68.6645 12.0534C68.6351 12.0534 68.614 12.0798 68.6203 12.1092C68.6267 12.1397 68.6414 12.1576 68.6645 12.1639C68.8392 12.206 68.9581 12.2365 69.0213 12.2555C70.6187 12.748 70.5903 14.3033 70.5882 15.6565C70.5797 22.2134 70.5787 26.0828 70.5839 27.2624C70.586 27.7202 70.5661 28.1327 70.524 28.4999C70.3924 29.6438 69.7663 30.3109 68.6466 30.5003C68.6298 30.5035 68.6172 30.5172 68.6172 30.5351V30.5561C68.6172 30.5772 68.634 30.5951 68.6561 30.5951C71.209 30.594 73.5578 30.5951 75.7034 30.6014C75.7171 30.6014 75.7276 30.5961 75.7381 30.5856C75.7539 30.5687 75.7444 30.5403 75.7213 30.534C75.1373 30.3846 74.5932 30.1941 74.2418 29.7027C73.8398 29.1397 73.7924 28.3 73.7956 27.5455C73.7956 27.2592 73.7956 24.1623 73.7914 18.2526C73.7914 17.7127 73.8198 17.3044 73.8787 17.0308C74.307 15.0304 76.0191 13.3173 78.1448 13.2289C79.7885 13.1605 81.2533 13.8255 82.0046 15.3398C82.0193 15.3682 82.0572 15.3745 82.0804 15.3514C82.0888 15.344 82.093 15.3314 82.0951 15.3145C82.2024 14.3885 82.3477 13.3499 82.5297 12.1987C82.535 12.1639 82.5181 12.1303 82.4866 12.1145C80.403 11.0495 77.9743 11.5315 76.1548 12.9184Z" fill="white"/>
<path d="M100.084 30.5241C99.9335 30.4651 99.6715 30.4157 99.4926 30.3304C98.5434 29.8779 98.2456 28.9677 98.2435 27.9617C98.2372 25.3751 98.2319 22.3561 98.2298 18.9024C98.2298 17.4608 98.1056 16.0465 97.3396 14.7921C96.0821 12.7338 93.768 11.7804 91.4561 11.591C89.0737 11.3963 86.7113 12.0782 84.8961 13.6514C84.7898 13.743 84.6614 13.8271 84.6214 13.9608C84.4341 14.5795 84.2489 15.273 84.0668 16.0391C84.0458 16.1254 84.0258 16.2538 84.0037 16.4232C83.9932 16.5074 84.0248 16.5579 84.0995 16.5716C84.1268 16.5768 84.1531 16.561 84.1626 16.5347C84.5404 15.3709 85.2991 14.347 86.2398 13.582C87.3269 12.697 88.5781 12.2308 89.9945 12.1824C91.7276 12.1235 93.3155 12.7875 94.2321 14.2965C94.7751 15.1899 94.9582 16.2674 94.974 17.2703C94.9824 17.8249 94.9845 18.5962 94.9782 19.5843C94.9782 19.638 94.9424 19.6843 94.8908 19.698C93.244 20.1525 91.5045 20.5209 89.823 20.8776C88.5455 21.1491 87.1364 21.5658 86.0168 22.1498C85.3717 22.4866 84.8087 22.9001 84.332 23.3915C83.5365 24.2102 83.0892 25.2468 83.0566 26.3864C83.0261 27.464 83.3555 28.4016 84.0469 29.1992C85.6222 31.0197 88.5455 31.2344 90.7143 30.7093C91.4751 30.5251 92.2117 30.2084 92.923 29.758C93.7712 29.2213 94.4436 28.5289 94.9424 27.6807C94.9477 27.6713 94.9624 27.6755 94.9624 27.686C94.9729 28.6752 94.9792 29.6254 95.0739 30.5598C95.0761 30.5788 95.0929 30.5946 95.1118 30.5946C97.7352 30.5904 99.3937 30.5904 100.087 30.5946C100.11 30.5946 100.126 30.5704 100.117 30.5483C100.11 30.5346 100.1 30.5251 100.085 30.5199L100.084 30.5241ZM94.9698 25.5972C94.9677 26.6642 94.5825 27.605 93.8438 28.3795C92.6768 29.6022 90.8037 30.2484 89.1242 29.779C88.1056 29.4949 87.3416 28.9067 86.8302 28.0143C86.3272 27.1346 86.2546 25.9118 86.4756 24.8911C86.6818 23.9451 87.1743 23.1506 87.9551 22.5097C88.8412 21.7826 89.905 21.4174 90.9942 21.1543C92.0181 20.906 93.3376 20.5819 94.9519 20.1831C94.9708 20.1789 94.9887 20.1925 94.9887 20.2125C94.9803 21.2028 94.9729 22.998 94.9687 25.5972H94.9698Z" fill="white"/>
<path d="M21.94 2.01348L22.6988 3.97497H23.1691L23.9278 2.00296V4.22858H24.4119V1.32422H23.7069L22.9345 3.37832L22.1652 1.32422H21.457V4.22858H21.94V2.01348Z" fill="white"/>
<path d="M27.5571 3.62035H28.7209L28.943 4.22858H29.4681L28.3221 1.32422H27.9549L26.8047 4.22858H27.334L27.556 3.62035H27.5571ZM28.139 2.02821L28.5641 3.19101H27.7139L28.139 2.02821Z" fill="white"/>
<path d="M32.3424 1.32422H31.8594V4.22858H32.3424V1.32422Z" fill="white"/>
<path d="M36.1045 3.74594C36.0298 3.78067 35.9445 3.79855 35.8509 3.79855C35.6814 3.79855 35.5394 3.7512 35.4236 3.65649C35.3079 3.56179 35.2353 3.42288 35.2048 3.23978L34.7344 3.35659C34.7786 3.62071 34.8975 3.83118 35.0911 3.99007C35.2837 4.14792 35.5331 4.22789 35.8393 4.22789C36.034 4.22789 36.2055 4.19001 36.3539 4.11319C36.5022 4.03638 36.618 3.93325 36.7022 3.80276C36.7853 3.67228 36.8274 3.5218 36.8274 3.35238C36.8274 3.19979 36.7948 3.06931 36.7295 2.96302C36.6643 2.85674 36.5706 2.76414 36.4486 2.68627C36.3265 2.6084 36.1781 2.53579 36.0024 2.46949C35.8667 2.41688 35.7541 2.36847 35.6667 2.32322C35.5794 2.27903 35.5141 2.22957 35.4731 2.17485C35.431 2.12118 35.411 2.05699 35.411 1.98543C35.411 1.91388 35.4278 1.85495 35.4636 1.80233C35.4983 1.74972 35.5468 1.70868 35.6078 1.67921C35.6688 1.64975 35.7372 1.63607 35.8119 1.63607C35.9172 1.63607 36.0119 1.66448 36.095 1.72131C36.1781 1.77813 36.2497 1.85916 36.3076 1.96544L36.6906 1.73183C36.6022 1.55715 36.4833 1.42666 36.336 1.34037C36.1887 1.25408 36.0192 1.21094 35.8277 1.21094C35.6499 1.21094 35.4931 1.24461 35.3563 1.31091C35.2205 1.3772 35.1143 1.4698 35.0395 1.58766C34.9648 1.70552 34.9269 1.84127 34.9269 1.99385C34.9269 2.14644 34.9585 2.2685 35.0227 2.37479C35.0869 2.48212 35.1795 2.57472 35.3016 2.65154C35.4236 2.72941 35.572 2.80097 35.7477 2.86832C35.8751 2.91883 35.9835 2.96618 36.0729 3.01248C36.1613 3.05878 36.2297 3.1093 36.2771 3.16717C36.3244 3.224 36.3476 3.29555 36.3476 3.38184C36.3476 3.46287 36.3255 3.53443 36.2834 3.59862C36.2402 3.66281 36.1813 3.71227 36.1066 3.74699L36.1045 3.74594Z" fill="white"/>
<path d="M39.8683 4.03983C40.0735 4.16506 40.3124 4.22714 40.5849 4.22714C40.8575 4.22714 41.1006 4.16506 41.3079 4.03983C41.5152 3.91461 41.6762 3.73888 41.793 3.51263C41.9098 3.28638 41.9677 3.0212 41.9677 2.71919C41.9677 2.41718 41.9098 2.14779 41.7951 1.92155C41.6793 1.6953 41.5183 1.51957 41.3121 1.39434C41.1048 1.26912 40.8628 1.20703 40.5849 1.20703C40.3071 1.20703 40.0735 1.26912 39.8683 1.39434C39.6631 1.51957 39.5021 1.6953 39.3874 1.92365C39.2717 2.15095 39.2148 2.41718 39.2148 2.71919C39.2148 3.0212 39.2727 3.28323 39.3874 3.51158C39.5021 3.73888 39.6631 3.91566 39.8683 4.04089V4.03983ZM39.8031 2.15411C39.8767 1.99731 39.9799 1.8763 40.1135 1.79106C40.2472 1.70688 40.4039 1.66373 40.5849 1.66373C40.7659 1.66373 40.9312 1.70688 41.0637 1.79316C41.1974 1.87945 41.3005 2.00047 41.3742 2.15831C41.4478 2.31511 41.4847 2.50242 41.4847 2.71919C41.4847 2.93597 41.4478 3.11907 41.3742 3.27586C41.3005 3.43266 41.1974 3.55472 41.0637 3.63996C40.9301 3.72625 40.7701 3.76939 40.5849 3.76939C40.3997 3.76939 40.2472 3.7273 40.1125 3.64206C39.9778 3.55683 39.8746 3.43686 39.802 3.27902C39.7294 3.12223 39.6936 2.93492 39.6936 2.71814C39.6936 2.50137 39.7305 2.3109 39.8041 2.15305L39.8031 2.15411Z" fill="white"/>
<path d="M44.8424 2.14081L46.1136 4.22858H46.6218V1.32422H46.1388V3.40357L44.8592 1.32422H44.3594V4.22858H44.8424V2.14081Z" fill="white"/>
</g>
<defs>
<clipPath id="clip0_595_83">
<rect width="100.119" height="31.0156" fill="white"/>
</clipPath>
</defs>
</svg>
