<svg width="113" height="19" viewBox="0 0 113 19" fill="none" xmlns="http://www.w3.org/2000/svg">
<path d="M0 18.4697L2.62418 0H2.92552L10.434 15.155L17.867 0H18.1684L20.8177 18.4697H18.9971L17.189 5.26092L10.66 18.4697H10.1954L3.57843 5.16047L1.78294 18.4697H0Z" fill="white"/>
<path d="M32.0175 0L40.6309 18.4697H38.6471L35.7466 12.3927H27.7862L24.8983 18.4697H22.8392L31.5655 0H32.0175ZM31.7915 3.91744L28.6149 10.6097H34.9305L31.7915 3.91744Z" fill="white"/>
<path d="M43.5062 0H45.3896V6.93086L52.7599 0H55.2585L46.3815 8.28689L55.9491 18.4697H53.5007L45.3896 9.85638V18.4697H43.5062V0Z" fill="white"/>
<path d="M58.7114 0H69.296V1.82061H60.5571V7.59632H69.2207V9.40437H60.5571V16.6491H69.2207V18.4697H58.7114V0Z" fill="white"/>
<path d="M72.4852 0H74.3435V16.6868H81.4375V18.4697H72.4852V0Z" fill="white"/>
<path d="M84.3756 0H94.9603V1.82061H86.2213V7.59632H94.8849V9.40437H86.2213V16.6491H94.8849V18.4697H84.3756V0Z" fill="white"/>
<path d="M98.162 18.4697V0H98.5638L110.843 14.1379V0H112.664V18.4697H112.25L100.071 4.50757V18.4697H98.162Z" fill="white"/>
</svg>
