<svg width="135" height="25" viewBox="0 0 135 25" fill="none" xmlns="http://www.w3.org/2000/svg">
<path d="M23.5007 0.105469L18.8008 10.0426L23.5007 18.5282L28.3153 10.0426L23.5007 0.105469Z" fill="white"/>
<path d="M8.94141 4.68359L11.1194 15.5139L20.0608 19.5334L18.7998 10.0429L8.94141 4.68359Z" fill="white"/>
<path d="M0 16.8516L8.13894 24.2207L17.8827 22.4342L11.1194 15.5117L0 16.8516Z" fill="white"/>
<path d="M47.1093 16.8516L35.9899 15.5117L29.2266 22.4342L38.9704 24.2207L47.1093 16.8516Z" fill="white"/>
<path d="M38.1663 4.68359L28.3078 10.0429L27.0469 19.5334L35.9882 15.5139L38.1663 4.68359Z" fill="white"/>
<path d="M64.7672 1.33984V10.3837H63.277L57.3161 1.8981V9.0439C57.3161 9.2672 57.3161 9.37886 57.4307 9.49051C57.5454 9.60216 57.66 9.60216 57.7746 9.60216H58.6917V10.2721H55.0234V9.60216H55.8259C55.9405 9.60216 56.0551 9.60216 56.1698 9.49051C56.2844 9.37886 56.2844 9.2672 56.2844 9.0439V1.22818C56.2844 1.00488 56.2844 0.893225 56.1698 0.781572C56.0551 0.669919 55.9405 0.669919 55.8259 0.669919H55.0234V0H58.3478L63.8502 7.70406V1.22818C63.8502 1.00488 63.8502 0.893225 63.7355 0.781572C63.6209 0.669919 63.5063 0.669919 63.3916 0.669919H62.4746V0H66.0282V0.669919H65.3404C65.2258 0.669919 65.1111 0.669919 64.9965 0.781572C64.8819 1.00488 64.7672 1.11653 64.7672 1.33984Z" fill="white"/>
<path d="M67.1758 0H71.8757V0.669919H71.0733C70.9587 0.669919 70.844 0.669919 70.7294 0.781572C70.6148 0.893225 70.6148 1.00488 70.6148 1.22818V9.0439C70.6148 9.2672 70.6148 9.37886 70.7294 9.49051C70.844 9.60216 70.9587 9.60216 71.0733 9.60216H71.8757V10.2721H67.1758V9.60216H67.9782C68.0928 9.60216 68.2075 9.60216 68.3221 9.49051C68.4367 9.37886 68.4367 9.2672 68.4367 9.0439V1.22818C68.4367 1.00488 68.4367 0.893225 68.3221 0.781572C68.2075 0.669919 68.0928 0.669919 67.9782 0.669919H67.1758V0Z" fill="white"/>
<path d="M73.0195 0.669919V0H78.178C79.6682 0 80.8146 0.223307 81.5024 0.781572C82.1902 1.22818 82.6487 2.00976 82.6487 2.90298C82.6487 3.46125 82.4194 4.01951 82.0755 4.46613C81.7316 4.91274 81.1585 5.24769 80.356 5.471C81.0438 5.58265 81.5024 5.91761 81.9609 6.25257C82.3048 6.58753 82.5341 7.1458 82.5341 7.70406V8.82059C82.5341 9.15555 82.5341 9.37886 82.6487 9.49051C82.7633 9.60217 82.878 9.71382 82.9926 9.71382C83.1072 9.71382 83.2219 9.71382 83.3365 9.60217C83.4511 9.49051 83.4511 9.26721 83.4511 9.0439V8.15068H84.2536V9.0439C84.2536 9.60217 84.1389 9.93712 83.795 10.2721C83.4511 10.4954 82.9926 10.7187 82.4194 10.7187C81.8463 10.7187 81.3877 10.607 81.0438 10.2721C80.6999 10.0488 80.4707 9.49051 80.4707 8.82059V7.92737C80.4707 7.1458 80.2414 6.58753 79.8975 6.25257C79.439 5.80596 78.7512 5.69431 77.9487 5.69431H76.4585V9.15555C76.4585 9.37886 76.4585 9.49051 76.5732 9.60217C76.6878 9.71382 76.8024 9.71382 76.9171 9.71382H77.7195V10.3837H73.0195V9.71382H73.822C73.9366 9.71382 74.0512 9.71382 74.1659 9.60217C74.2805 9.49051 74.2805 9.37886 74.2805 9.15555V1.33984C74.2805 1.11653 74.2805 1.00488 74.1659 0.893226C74.0512 0.781573 73.9366 0.781572 73.822 0.781572H73.0195V0.669919ZM77.4902 0.669919H76.3439V4.91274H77.4902C78.2926 4.91274 78.8658 4.80108 79.2097 4.68943C79.6682 4.46612 79.8975 4.24282 80.1268 4.01951C80.356 3.68455 80.356 3.34959 80.356 2.90298C80.356 2.45637 80.2414 2.00976 80.1268 1.6748C79.8975 1.33984 79.6682 1.11653 79.2097 0.893226C78.8658 0.781573 78.2926 0.669919 77.4902 0.669919Z" fill="white"/>
<path d="M95.7142 9.15718V1.11816L92.3898 10.497H90.8996L87.4606 1.11816V9.15718C87.4606 9.38048 87.4606 9.49214 87.5753 9.60379C87.6899 9.71544 87.8045 9.71544 87.9192 9.71544H88.8362V10.3854H85.168V9.71544H85.9704C86.085 9.71544 86.3143 9.71544 86.3143 9.60379C86.4289 9.49214 86.4289 9.38048 86.4289 9.15718V1.34146C86.4289 1.11816 86.4289 1.00651 86.3143 0.894854C86.1997 0.7832 86.085 0.7832 85.9704 0.7832H85.168V0.113281H89.1801L92.1606 8.26395L95.141 0.113281H99.1532V0.7832H98.3508C98.2361 0.7832 98.1215 0.7832 98.0069 0.894854C97.8922 1.00651 97.8922 1.11816 97.8922 1.34146V9.15718C97.8922 9.38048 97.8922 9.49214 98.0069 9.60379C98.1215 9.71544 98.2361 9.71544 98.3508 9.71544H99.1532V10.3854H94.4532V9.71544H95.141C95.2557 9.71544 95.3703 9.71544 95.4849 9.60379C95.5996 9.49214 95.7142 9.26883 95.7142 9.15718Z" fill="white"/>
<path d="M101.219 8.93225L104.544 0H106.607L109.931 8.82059C110.046 9.15555 110.161 9.37886 110.275 9.49051C110.39 9.60216 110.505 9.71381 110.734 9.71381H111.192V10.3837H106.378V9.71381H107.18C107.41 9.71381 107.524 9.60216 107.639 9.49051C107.753 9.37886 107.753 9.15555 107.639 8.93225L106.951 6.92249H102.939L102.136 9.0439C102.022 9.2672 102.022 9.49051 102.136 9.60216C102.251 9.71382 102.366 9.71381 102.48 9.71381H103.283V10.3837H99.8438V9.71381H100.532C100.761 9.71381 100.875 9.60216 100.99 9.49051C100.99 9.49051 101.105 9.26721 101.219 8.93225ZM103.053 6.36422H106.607L104.773 1.33984L103.053 6.36422Z" fill="white"/>
<path d="M112.915 8.93225L116.239 0H118.302L121.627 8.82059C121.741 9.15555 121.856 9.37886 121.971 9.49051C122.085 9.60216 122.2 9.71381 122.429 9.71381H123.117V10.3837H118.073V9.71381H118.876C119.105 9.71381 119.219 9.60216 119.334 9.49051C119.449 9.37886 119.449 9.15555 119.334 8.93225L118.646 6.92249H114.634L113.832 9.0439C113.717 9.2672 113.717 9.49051 113.832 9.60216C113.946 9.71382 114.061 9.71381 114.176 9.71381H114.978V10.3837H111.539V9.71381H112.227C112.456 9.71381 112.571 9.60216 112.685 9.49051C112.685 9.49051 112.8 9.26721 112.915 8.93225ZM114.749 6.36422H118.302L116.468 1.33984L114.749 6.36422Z" fill="white"/>
<path d="M133.314 1.33984V10.3837H131.824L125.863 1.8981V9.0439C125.863 9.2672 125.863 9.37886 125.978 9.49051C126.092 9.60216 126.207 9.60216 126.322 9.60216H127.239V10.2721H123.57V9.60216H124.373C124.487 9.60216 124.602 9.60216 124.717 9.49051C124.831 9.37886 124.831 9.2672 124.831 9.0439V1.22818C124.831 1.00488 124.831 0.893225 124.717 0.781572C124.602 0.669919 124.487 0.669919 124.373 0.669919H123.57V0H126.895L132.397 7.70406V1.22818C132.397 1.00488 132.397 0.893225 132.282 0.781572C132.168 0.669919 132.053 0.669919 131.939 0.669919H131.021V0H134.575V0.669919H133.773C133.658 0.669919 133.543 0.669919 133.429 0.781572C133.429 1.00488 133.314 1.11653 133.314 1.33984Z" fill="white"/>
<path d="M78.5787 19.526L77.3177 24.1038H76.286L75.2543 20.5309L74.2226 24.1038H73.1909L71.93 19.526C71.93 19.4144 71.8154 19.3027 71.8154 19.1911C71.8154 19.0794 71.7007 19.0794 71.5861 19.0794H71.2422V18.7445H73.6495V19.0794H73.3056C73.1909 19.0794 73.1909 19.0794 73.0763 19.1911C73.0763 19.3027 73.0763 19.3027 73.0763 19.4144L74.108 23.2106L75.1397 19.7493L75.0251 19.526C75.0251 19.4144 74.9104 19.3027 74.9104 19.1911C74.9104 19.0794 74.7958 19.0794 74.6812 19.0794H74.3373V18.7445H76.6299V19.0794H76.286C76.1714 19.0794 76.1714 19.0794 76.0568 19.1911C76.0568 19.3027 76.0568 19.3027 76.0568 19.4144L77.0885 23.0989L78.1202 19.4144C78.1202 19.3027 78.1202 19.1911 78.1202 19.0794C78.1202 19.0794 78.0055 18.9678 77.8909 18.9678H77.547V18.6328H79.2665V18.9678H78.9226C78.808 18.9678 78.808 18.9678 78.6933 19.0794C78.6933 19.3027 78.5787 19.4144 78.5787 19.526Z" fill="white"/>
<path d="M88.893 21.4241C88.893 21.9824 88.7784 22.429 88.5491 22.8756C88.3198 23.3222 87.9759 23.6572 87.632 23.8805C87.1735 24.1038 86.715 24.2155 86.1418 24.2155C85.5687 24.2155 85.1101 24.1038 84.6516 23.8805C84.1931 23.6572 83.9638 23.3222 83.7345 22.8756C83.5053 22.429 83.3906 21.9824 83.3906 21.4241C83.3906 20.8659 83.5053 20.4193 83.7345 19.9727C83.9638 19.526 84.3077 19.3027 84.6516 18.9678C85.1101 18.7445 85.5687 18.6328 86.1418 18.6328C86.715 18.6328 87.1735 18.7445 87.632 18.9678C88.0906 19.1911 88.3198 19.526 88.5491 19.9727C88.7784 20.4193 88.893 20.9775 88.893 21.4241ZM84.537 21.4241C84.537 22.2057 84.6516 22.764 84.9955 23.2106C85.2248 23.6572 85.6833 23.7689 86.1418 23.7689C86.6003 23.7689 87.0589 23.5455 87.2881 23.2106C87.5174 22.764 87.7467 22.2057 87.7467 21.4241C87.7467 20.6426 87.632 20.0843 87.2881 19.6377C87.0589 19.1911 86.6003 19.0794 86.1418 19.0794C85.5687 19.0794 85.2248 19.3027 84.9955 19.6377C84.6516 20.0843 84.537 20.6426 84.537 21.4241Z" fill="white"/>
<path d="M93.4805 19.1865V18.8516H96.117C96.9195 18.8516 97.4926 18.9632 97.8365 19.1865C98.1804 19.4098 98.4097 19.7448 98.4097 20.1914C98.4097 20.5264 98.2951 20.7497 98.0658 20.973C97.8365 21.1963 97.6073 21.3079 97.1487 21.4196C97.4926 21.5312 97.7219 21.6429 97.9512 21.8662C98.1804 22.0895 98.1804 22.3128 98.1804 22.6478V23.206C98.1804 23.4293 98.1804 23.541 98.2951 23.541C98.2951 23.6526 98.4097 23.6526 98.5243 23.6526C98.639 23.6526 98.639 23.6526 98.639 23.541C98.639 23.541 98.7536 23.4293 98.7536 23.3177V22.8711H99.0975V23.4293C99.0975 23.6526 98.9829 23.8759 98.8682 23.9876C98.7536 24.0993 98.5243 24.2109 98.1804 24.2109C97.8365 24.2109 97.6073 24.0993 97.4926 23.9876C97.2634 23.8759 97.2634 23.6526 97.2634 23.206V22.7594C97.2634 22.3128 97.1487 22.0895 96.9195 21.8662C96.6902 21.7545 96.3463 21.6429 96.0024 21.6429H95.2V23.4293C95.2 23.541 95.2 23.6526 95.3146 23.6526C95.3146 23.6526 95.4292 23.7643 95.5439 23.7643H95.8878V24.0993H93.4805V23.7643H93.939C94.0536 23.7643 94.0536 23.7643 94.1683 23.6526C94.1683 23.6526 94.2829 23.541 94.2829 23.4293V19.4098C94.2829 19.2982 94.2829 19.1865 94.1683 19.1865C94.1683 19.1865 94.0536 19.0749 93.939 19.0749H93.4805V19.1865ZM95.7731 19.1865H95.2V21.4196H95.7731C96.117 21.4196 96.4609 21.4196 96.6902 21.3079C96.9195 21.1963 97.0341 21.0846 97.1487 20.973C97.2634 20.8613 97.2634 20.638 97.2634 20.4147C97.2634 20.1914 97.2634 19.9681 97.1487 19.8564C97.0341 19.7448 96.9195 19.5215 96.6902 19.5215C96.4609 19.1865 96.117 19.1865 95.7731 19.1865Z" fill="white"/>
<path d="M105.863 23.7705V24.1054H103.57V23.7705H104.029C104.143 23.7705 104.143 23.7705 104.258 23.6588C104.258 23.6588 104.373 23.5472 104.373 23.4355V19.416C104.373 19.3044 104.373 19.1927 104.258 19.1927C104.258 19.1927 104.143 19.0811 104.029 19.0811H103.57V18.7461H105.978V19.0811H105.519C105.404 19.0811 105.404 19.0811 105.29 19.1927C105.29 19.1927 105.175 19.3044 105.175 19.416V21.4258L107.239 19.5277C107.353 19.416 107.468 19.3044 107.468 19.1927C107.468 19.0811 107.353 19.0811 107.239 19.0811H106.78V18.7461H109.073V19.0811H108.958C108.843 19.0811 108.614 19.0811 108.5 19.0811C108.385 19.0811 108.27 19.1927 108.156 19.3044C108.041 19.416 107.812 19.5277 107.582 19.751L106.78 20.5325L108.385 23.1006C108.5 23.3239 108.614 23.4355 108.729 23.5472C108.843 23.6588 108.958 23.6588 109.073 23.6588H109.302V23.9938H106.78V23.6588H107.124C107.239 23.6588 107.353 23.6588 107.353 23.5472C107.353 23.4355 107.353 23.3239 107.239 23.2122L105.978 21.0908L105.175 21.8724V23.4355C105.175 23.5472 105.175 23.6588 105.29 23.6588C105.29 23.6588 105.404 23.7705 105.519 23.7705H105.863Z" fill="white"/>
<path d="M118.355 22.6478C118.355 22.9827 118.24 23.3177 118.126 23.541C117.896 23.7643 117.667 23.9876 117.438 24.0993C117.209 24.2109 116.75 24.3226 116.406 24.3226C115.948 24.3226 115.604 24.2109 115.26 24.0993C114.916 23.9876 114.687 23.7643 114.343 23.4293L114.228 24.2109H113.77V22.3128H114.228C114.343 22.6478 114.457 22.8711 114.572 23.0944C114.801 23.3177 115.03 23.541 115.26 23.6526C115.489 23.7643 115.833 23.8759 116.177 23.8759C116.406 23.8759 116.635 23.8759 116.75 23.7643C116.865 23.6526 117.094 23.6526 117.094 23.4293C117.209 23.3177 117.209 23.0944 117.209 22.9827C117.209 22.7594 117.209 22.6478 117.094 22.5361C116.979 22.4245 116.865 22.3128 116.635 22.2012C116.406 22.0895 116.177 21.9778 115.718 21.9778C115.489 21.8662 115.145 21.8662 114.916 21.7545C114.687 21.6429 114.457 21.5312 114.343 21.4196C114.113 21.3079 113.999 21.1963 113.884 20.973C113.77 20.7497 113.77 20.638 113.77 20.4147C113.77 20.0797 113.884 19.8564 113.999 19.6331C114.113 19.4098 114.343 19.1865 114.687 19.0749C115.03 18.9632 115.26 18.8516 115.604 18.8516C115.948 18.8516 116.291 18.9632 116.635 19.0749C116.979 19.1865 117.209 19.4098 117.438 19.6331L117.552 18.9632H118.011V20.638H117.552C117.438 20.1914 117.209 19.8564 116.865 19.6331C116.521 19.4098 116.177 19.2982 115.718 19.2982C115.489 19.2982 115.374 19.2982 115.145 19.4098C115.03 19.5215 114.916 19.5215 114.801 19.6331C114.687 19.7448 114.687 19.8564 114.687 20.0797C114.687 20.3031 114.687 20.4147 114.801 20.5264C114.916 20.638 115.03 20.7497 115.26 20.8613C115.489 20.973 115.718 21.0846 116.062 21.0846C116.406 21.1963 116.635 21.3079 116.979 21.3079C117.209 21.4196 117.438 21.5312 117.667 21.6429C117.896 21.7545 118.011 21.8662 118.126 22.0895C118.355 22.2012 118.355 22.3128 118.355 22.6478Z" fill="white"/>
</svg>
