<svg width="129" height="36" viewBox="0 0 129 36" fill="none" xmlns="http://www.w3.org/2000/svg">
<mask id="path-1-inside-1_581_3386" fill="white">
<path d="M14.5966 25.7424C15.3437 27.0393 16.1337 28.2846 16.9838 29.4698C17.0696 29.5814 17.1469 29.6931 17.2328 29.8047C17.5763 30.2685 17.9283 30.7323 18.289 31.1789C18.3577 31.1445 18.4264 31.1188 18.4865 31.0844C16.8636 28.9545 15.4124 26.5755 14.1758 24.2223C12.8277 21.6629 11.7457 18.9576 10.8527 16.2093C9.95965 13.461 8.81759 10.3177 9.26411 7.36328C9.18683 7.38905 9.10096 7.41481 9.02367 7.44058C8.45694 10.5238 9.77074 14.2598 10.7411 17.1712C11.7372 20.1428 13.0252 23.0199 14.5966 25.7424Z"/>
</mask>
<path d="M14.5966 25.7424C15.3437 27.0393 16.1337 28.2846 16.9838 29.4698C17.0696 29.5814 17.1469 29.6931 17.2328 29.8047C17.5763 30.2685 17.9283 30.7323 18.289 31.1789C18.3577 31.1445 18.4264 31.1188 18.4865 31.0844C16.8636 28.9545 15.4124 26.5755 14.1758 24.2223C12.8277 21.6629 11.7457 18.9576 10.8527 16.2093C9.95965 13.461 8.81759 10.3177 9.26411 7.36328C9.18683 7.38905 9.10096 7.41481 9.02367 7.44058C8.45694 10.5238 9.77074 14.2598 10.7411 17.1712C11.7372 20.1428 13.0252 23.0199 14.5966 25.7424Z" fill="white"/>
<path d="M14.5966 25.7424L15.0842 25.4615L15.084 25.4611L14.5966 25.7424ZM16.9838 29.4698L16.5265 29.7978L16.532 29.8054L16.5377 29.8128L16.9838 29.4698ZM17.2328 29.8047L17.6851 29.4698L17.6788 29.4617L17.2328 29.8047ZM18.289 31.1789L17.8512 31.5324L18.1357 31.8847L18.5407 31.6822L18.289 31.1789ZM18.4865 31.0844L18.7657 31.573L19.3234 31.2542L18.9341 30.7434L18.4865 31.0844ZM14.1758 24.2223L14.674 23.9605L14.6737 23.96L14.1758 24.2223ZM9.26411 7.36328L9.8205 7.44737L9.95781 6.53885L9.08614 6.82946L9.26411 7.36328ZM9.02367 7.44058L8.8457 6.90675L8.53034 7.01189L8.47024 7.33885L9.02367 7.44058ZM10.7411 17.1712L10.2072 17.3491L10.2075 17.3501L10.7411 17.1712ZM14.5966 25.7424L14.109 26.0233C14.8639 27.3337 15.6639 28.5951 16.5265 29.7978L16.9838 29.4698L17.441 29.1418C16.6034 27.9741 15.8234 26.7448 15.0842 25.4615L14.5966 25.7424ZM16.9838 29.4698L16.5377 29.8128C16.5758 29.8623 16.6125 29.9126 16.6539 29.9692C16.6941 30.0242 16.7389 30.0856 16.7868 30.1478L17.2328 29.8047L17.6788 29.4617C17.6408 29.4122 17.6041 29.362 17.5626 29.3053C17.5225 29.2503 17.4777 29.1889 17.4298 29.1267L16.9838 29.4698ZM17.2328 29.8047L16.7806 30.1396C17.1265 30.6066 17.4837 31.0773 17.8512 31.5324L18.289 31.1789L18.7268 30.8253C18.373 30.3872 18.0261 29.9304 17.685 29.4698L17.2328 29.8047ZM18.289 31.1789L18.5407 31.6822C18.5621 31.6715 18.5813 31.6631 18.6226 31.6445C18.6573 31.6288 18.7106 31.6044 18.7657 31.573L18.4865 31.0844L18.2073 30.5959C18.2023 30.5987 18.1912 30.6044 18.1593 30.6188C18.1341 30.6302 18.0846 30.6519 18.0373 30.6756L18.289 31.1789ZM18.4865 31.0844L18.9341 30.7434C17.3344 28.644 15.8996 26.293 14.674 23.9605L14.1758 24.2223L13.6777 24.484C14.9252 26.858 16.3927 29.2649 18.0389 31.4254L18.4865 31.0844ZM14.1758 24.2223L14.6737 23.96C13.3436 21.435 12.2734 18.7605 11.3879 16.0354L10.8527 16.2093L10.3175 16.3832C11.2181 19.1547 12.3117 21.8908 13.678 24.4845L14.1758 24.2223ZM10.8527 16.2093L11.3879 16.0354C10.478 13.2355 9.39844 10.2399 9.8205 7.44737L9.26411 7.36328L8.70772 7.27919C8.23674 10.3954 9.44127 13.6866 10.3175 16.3832L10.8527 16.2093ZM9.26411 7.36328L9.08614 6.82946C9.05249 6.84068 9.01607 6.85219 8.97442 6.86535C8.93449 6.87796 8.88934 6.89221 8.8457 6.90675L9.02367 7.44058L9.20164 7.9744C9.23529 7.96318 9.27171 7.95167 9.31337 7.93851C9.35329 7.9259 9.39844 7.91165 9.44208 7.8971L9.26411 7.36328ZM9.02367 7.44058L8.47024 7.33885C8.167 8.98857 8.37103 10.7792 8.757 12.4939C9.14346 14.2108 9.72515 15.9027 10.2072 17.3491L10.7411 17.1712L11.2749 16.9933C10.7867 15.5283 10.2263 13.8965 9.85494 12.2467C9.48311 10.5948 9.31361 8.97581 9.57711 7.54231L9.02367 7.44058ZM10.7411 17.1712L10.2075 17.3501C11.2153 20.3564 12.5186 23.2679 14.1093 26.0237L14.5966 25.7424L15.084 25.4611C13.5318 22.7719 12.259 19.9292 11.2746 16.9924L10.7411 17.1712Z" fill="white" mask="url(#path-1-inside-1_581_3386)"/>
<path d="M7.30469 8.41406C6.95646 9.40812 6.5795 10.4445 6.29785 11.4863C5.95961 12.7375 5.75457 14.0313 5.90723 15.3506C5.9066 15.3542 5.90578 15.3577 5.90527 15.3613C5.90306 15.3771 5.90234 15.3923 5.90234 15.4062V15.4346L5.9082 15.4609C5.91192 15.4795 5.91552 15.5012 5.91992 15.5254C5.92244 15.5393 5.92491 15.5543 5.92773 15.5693C5.92773 15.611 5.92767 15.6715 5.94238 15.7451V15.7441C5.94741 15.774 5.95497 15.8006 5.96289 15.8213C5.99228 15.9961 6.02262 16.2125 6.07422 16.4189L6.0752 16.4248C6.12295 16.5999 6.27079 16.6933 6.40918 16.708C6.53878 16.7217 6.6972 16.6692 6.78418 16.5215L6.78516 16.5225C6.85784 16.4024 6.96822 16.2946 7.10938 16.1885C7.25356 16.0801 7.40659 15.989 7.57129 15.8838L7.57617 15.8799C7.58328 15.8776 7.59067 15.8765 7.59766 15.874C9.87857 20.7199 12.4552 25.2416 15.5957 29.5908V29.5918C16.0297 30.2172 16.4782 30.8298 16.9385 31.4209C11.7335 33.2732 5.78638 31.4697 2.52734 26.79L2.21387 26.3174C-1.47217 20.489 0.273081 12.7697 6.10059 9.08203L6.10156 9.08301C6.498 8.83378 6.89846 8.61224 7.30469 8.41406Z" fill="white" stroke="white" stroke-width="0.562708"/>
<path d="M9.65625 7.5498C14.7737 6.22417 20.3714 8.27197 23.335 12.9795H23.3359C27.0219 18.8075 25.2844 26.5249 19.4502 30.2129C19.1872 30.3748 18.9274 30.5283 18.666 30.668C17.1853 28.7288 15.8819 26.5186 14.7363 24.4014C13.4914 22.0987 12.4661 19.6569 11.6113 17.1777C11.0891 15.6669 10.4793 14.0129 10.0625 12.3262C9.66176 10.7045 9.44657 9.07646 9.65625 7.5498Z" fill="white" stroke="white" stroke-width="0.562708"/>
<path d="M22.0596 11.5742C22.1833 11.5744 22.3859 11.6971 22.5742 12.1094C22.7513 12.497 22.8682 13.0523 22.8682 13.6807C22.8681 14.309 22.7513 14.8643 22.5742 15.252C22.3859 15.6641 22.1833 15.7869 22.0596 15.7871C21.9359 15.7871 21.7324 15.6645 21.5439 15.252C21.3669 14.8643 21.25 14.309 21.25 13.6807C21.25 13.0524 21.3669 12.497 21.5439 12.1094C21.7324 11.6968 21.9359 11.5742 22.0596 11.5742Z" fill="white" stroke="white" stroke-width="0.562708"/>
<path opacity="0.0535089" d="M0.453125 17.9492C1.21277 23.6173 4.42441 28.4989 8.99121 31.5068C3.97211 29.8832 0.339844 25.1905 0.339844 19.6289C0.339848 19.0564 0.37883 18.4968 0.453125 17.9492Z" fill="white" stroke="white" stroke-width="0.562708"/>
<path d="M37.6913 16.7687C37.6209 17.184 37.5716 17.5747 37.5434 17.9407C37.5153 18.3067 37.5012 18.6833 37.5012 19.0705C37.5012 19.4506 37.5153 19.8272 37.5434 20.2003C37.5716 20.5733 37.6209 20.9675 37.6913 21.3828C37.7687 21.7981 37.8637 22.1818 37.9763 22.5337C38.089 22.8857 38.2403 23.2271 38.4304 23.5579C38.6275 23.8817 38.8457 24.1597 39.085 24.392C39.627 24.8988 40.3098 25.1522 41.1334 25.1522C43.4211 25.1522 44.5649 23.1179 44.5649 19.0494C44.5649 15.734 43.7906 13.7349 42.242 13.0521C41.9041 12.9042 41.5276 12.8303 41.1122 12.8303C40.704 12.8303 40.3239 12.9042 39.9719 13.0521C39.627 13.1999 39.3314 13.397 39.085 13.6434C38.8457 13.8827 38.6275 14.1748 38.4304 14.5197C38.2403 14.8646 38.089 15.2201 37.9763 15.5861C37.8637 15.9522 37.7687 16.3464 37.6913 16.7687ZM35.0833 20.6543C35.0129 20.1193 34.9777 19.5879 34.9777 19.0599C34.9777 18.532 35.0094 18.0005 35.0727 17.4656C35.1361 16.9306 35.2417 16.3886 35.3895 15.8395C35.5373 15.2835 35.7203 14.759 35.9385 14.2663C36.1567 13.7736 36.4313 13.309 36.7621 12.8726C37.1 12.4291 37.4766 12.049 37.8919 11.7322C38.7858 11.0495 39.8734 10.7081 41.1545 10.7081C42.9143 10.7081 44.3221 11.4331 45.3779 12.8831C46.5183 14.4599 47.0884 16.5188 47.0884 19.0599C47.0884 21.6503 46.5394 23.6916 45.4413 25.1839C44.4136 26.5777 42.9846 27.2745 41.1545 27.2745C39.4158 27.2745 37.9904 26.5741 36.8782 25.1734C35.935 23.9908 35.3367 22.4844 35.0833 20.6543ZM57.1825 18.6481V27H54.9229V19.2394C54.9229 18.7326 54.7681 18.3314 54.4583 18.0357C54.1557 17.7331 53.7931 17.5817 53.3708 17.5817C52.9485 17.5817 52.5296 17.7084 52.1143 17.9618C51.699 18.2082 51.3893 18.4546 51.1852 18.7009V27H48.9256V15.8607H51.1852V17.0432C51.5934 16.635 52.0193 16.3041 52.4628 16.0507C52.9133 15.7973 53.4377 15.6706 54.036 15.6706C54.9511 15.6706 55.7043 15.9205 56.2955 16.4203C56.8868 16.913 57.1825 17.6556 57.1825 18.6481ZM61.1842 20.1158H65.0909C65.0909 19.5667 64.9958 19.0916 64.8058 18.6904C64.4398 17.9513 63.9329 17.5817 63.2853 17.5817C62.8982 17.5817 62.5568 17.6697 62.2612 17.8457C61.9726 18.0146 61.7543 18.2363 61.6065 18.5109C61.325 19.0247 61.1842 19.5597 61.1842 20.1158ZM59.4103 24.846C59.1921 24.3603 59.0373 23.8641 58.9458 23.3573C58.8613 22.8434 58.819 22.1993 58.819 21.4251C58.819 20.6437 58.9106 19.887 59.0936 19.1549C59.2766 18.4229 59.5124 17.8422 59.801 17.4128C60.0896 16.9764 60.438 16.6244 60.8463 16.3569C61.5432 15.8994 62.3632 15.6706 63.3065 15.6706C64.1934 15.6706 64.9677 15.9346 65.6294 16.4625C66.8682 17.462 67.4595 19.3168 67.4032 22.0269H61.0786C61.0786 23.4488 61.4552 24.4061 62.2084 24.8988C62.5955 25.1522 63.0003 25.2789 63.4226 25.2789C63.852 25.2789 64.2075 25.2262 64.489 25.1206C64.7706 25.015 64.9958 24.8953 65.1648 24.7616C65.3337 24.6278 65.4886 24.473 65.6294 24.297C65.8194 24.0506 65.9496 23.8395 66.02 23.6635L67.456 24.5926C66.9351 25.5007 66.379 26.1483 65.7877 26.5354C65.1331 26.9718 64.4116 27.1901 63.6232 27.1901C62.8419 27.1901 62.1732 27.088 61.6171 26.8839C61.068 26.6797 60.6175 26.4087 60.2656 26.0708C59.9207 25.733 59.6356 25.3247 59.4103 24.846ZM68.9131 20.9816C68.8005 20.3199 68.7441 19.6512 68.7441 18.9755C68.7441 18.2997 68.7969 17.6345 68.9025 16.9799C69.0081 16.3252 69.163 15.6882 69.3671 15.0688C69.5783 14.4423 69.8493 13.8686 70.1801 13.3477C70.518 12.8198 70.9016 12.3587 71.331 11.9645C72.2461 11.1269 73.3829 10.7081 74.7414 10.7081C76.466 10.7081 77.8281 11.5703 78.8276 13.2949C79.3133 14.1326 79.6406 14.9949 79.8096 15.8818V15.8923L77.6134 16.4836C77.5008 15.7304 77.367 15.1814 77.2122 14.8365C77.0573 14.4845 76.9024 14.1924 76.7476 13.9601C76.5927 13.7208 76.4238 13.5237 76.2408 13.3688C75.8043 13.0098 75.3081 12.8303 74.752 12.8303C74.203 12.8303 73.7313 12.957 73.3371 13.2104C72.943 13.4568 72.6192 13.7841 72.3658 14.1924C72.1123 14.5936 71.9012 15.0652 71.7322 15.6073C71.4225 16.6068 71.2677 17.7331 71.2677 18.986C71.2677 22.3085 72.056 24.2935 73.6328 24.9411C73.9707 25.0819 74.3297 25.1522 74.7098 25.1522C75.0899 25.1522 75.4278 25.103 75.7234 25.0044C76.0261 24.9059 76.2795 24.7792 76.4836 24.6243C76.6877 24.4624 76.8672 24.2724 77.0221 24.0541C77.184 23.8359 77.3107 23.6177 77.4022 23.3995C77.5008 23.1743 77.5782 22.9455 77.6345 22.7132C77.7401 22.3049 77.7929 21.9248 77.7929 21.5729L80.1475 21.9002C79.8307 23.2517 79.2781 24.4237 78.4898 25.4162C77.4902 26.6551 76.2337 27.2745 74.7203 27.2745C72.862 27.2745 71.3662 26.3911 70.2329 24.6243C69.5924 23.6318 69.1524 22.4176 68.9131 20.9816ZM81.7418 27V15.8607H84.0013V17.3917C84.0295 17.3565 84.0929 17.265 84.1914 17.1171L84.4448 16.737C84.9657 16.0261 85.8245 15.6706 87.0211 15.6706C87.1478 15.6706 87.2745 15.6812 87.4012 15.7023V17.5923C86.1201 17.6134 85.198 17.9689 84.6349 18.6587C84.3815 18.9684 84.1703 19.3661 84.0013 19.8518V27H81.7418ZM88.5838 27V15.8607H90.8433V27H88.5838ZM88.4254 14.8893V12.3235H90.9912V14.8893H88.4254ZM92.67 21.5095C92.67 19.2992 93.1522 17.726 94.1165 16.7898C94.8767 16.0437 95.9396 15.6706 97.3052 15.6706C98.6778 15.6706 99.7513 16.2478 100.526 17.4022C100.779 17.7753 100.955 18.1237 101.054 18.4475L99.1424 19.2922C99.0861 18.715 98.8503 18.2575 98.435 17.9196C98.1534 17.6943 97.805 17.5817 97.3897 17.5817C95.7496 17.5817 94.9295 18.8593 94.9295 21.4145C94.9295 22.6745 95.1442 23.6353 95.5736 24.297C96.003 24.9516 96.6295 25.2789 97.453 25.2789C98.0302 25.2789 98.4983 25.0678 98.8573 24.6454C99.167 24.2794 99.3923 23.8887 99.5331 23.4734L101.265 24.2336C101.103 24.8601 100.758 25.4549 100.23 26.018C99.4908 26.7994 98.5441 27.1901 97.3897 27.1901C94.2432 27.1901 92.67 25.2965 92.67 21.5095ZM103.26 27V11.0037H105.52V20.0102L108.73 15.8607H111.475L108.244 19.9785L111.665 27H109.11L106.681 21.9741L105.52 23.4417V27H103.26ZM114.336 20.1158H118.243C118.243 19.5667 118.148 19.0916 117.958 18.6904C117.592 17.9513 117.085 17.5817 116.437 17.5817C116.05 17.5817 115.709 17.6697 115.413 17.8457C115.125 18.0146 114.906 18.2363 114.759 18.5109C114.477 19.0247 114.336 19.5597 114.336 20.1158ZM112.562 24.846C112.344 24.3603 112.189 23.8641 112.098 23.3573C112.013 22.8434 111.971 22.1993 111.971 21.4251C111.971 20.6437 112.063 19.887 112.246 19.1549C112.429 18.4229 112.664 17.8422 112.953 17.4128C113.242 16.9764 113.59 16.6244 113.998 16.3569C114.695 15.8994 115.515 15.6706 116.459 15.6706C117.345 15.6706 118.12 15.9346 118.781 16.4625C120.02 17.462 120.612 19.3168 120.555 22.0269H114.231C114.231 23.4488 114.607 24.4061 115.36 24.8988C115.748 25.1522 116.152 25.2789 116.575 25.2789C117.004 25.2789 117.36 25.2262 117.641 25.1206C117.923 25.015 118.148 24.8953 118.317 24.7616C118.486 24.6278 118.641 24.473 118.781 24.297C118.971 24.0506 119.102 23.8395 119.172 23.6635L120.608 24.5926C120.087 25.5007 119.531 26.1483 118.94 26.5354C118.285 26.9718 117.564 27.1901 116.775 27.1901C115.994 27.1901 115.325 27.088 114.769 26.8839C114.22 26.6797 113.77 26.4087 113.418 26.0708C113.073 25.733 112.788 25.3247 112.562 24.846ZM121.305 17.7718V15.8607H122.963V11.7956H125.222V15.8607H127.556V17.7718H125.222V23.7479C125.222 24.3463 125.328 24.7581 125.539 24.9833C125.757 25.2015 126.12 25.3106 126.626 25.3106C126.831 25.3106 127.035 25.2965 127.239 25.2684C127.45 25.2402 127.556 25.2226 127.556 25.2156V26.8099C127.176 26.9859 126.88 27.0985 126.669 27.1478C126.465 27.1971 126.211 27.2217 125.908 27.2217C125.613 27.2217 125.391 27.2182 125.243 27.2112C125.103 27.2041 124.927 27.1795 124.715 27.1373C124.511 27.095 124.332 27.0387 124.177 26.9683C124.029 26.8909 123.874 26.7818 123.712 26.641C123.55 26.5002 123.417 26.3313 123.311 26.1342C123.079 25.6837 122.963 25.0994 122.963 24.3815V17.7718H121.305Z" fill="white"/>
</svg>
