<svg width="85" height="24" viewBox="0 0 85 24" fill="none" xmlns="http://www.w3.org/2000/svg">
<path d="M76.4278 22.8411C74.5909 22.7627 73.0972 22.2382 71.9326 21.2628C70.4709 20.0385 69.6355 18.5149 69.2832 16.4313C69.1752 15.7929 69.1478 15.4888 69.1276 14.7093C69.0785 12.8174 69.3519 11.4389 70.057 10.0229C70.6793 8.77308 71.4932 7.86033 72.6893 7.07103C73.6234 6.45465 74.4497 6.12679 75.4866 5.96147C75.9872 5.88157 77.2272 5.88236 77.811 5.96305C79.3318 6.17297 80.5422 6.76481 81.5817 7.80641C82.6396 8.86624 83.3575 10.2622 83.7514 12.025C83.9202 12.7806 84.0352 13.8698 84.0352 14.7141V15.2013H71.8731L71.8941 15.5703C71.9357 16.3042 72.0918 17.0889 72.3 17.6104C72.8207 18.915 74.009 19.964 75.3827 20.3322C75.9347 20.4802 76.3728 20.5246 77.0865 20.5052C77.5653 20.4922 77.8125 20.4698 78.058 20.4173C78.6881 20.2827 79.2553 20.0526 79.7046 19.7496C80.0243 19.5341 80.4817 19.0581 80.6558 18.7601C80.892 18.3558 80.9852 18.0923 81.1228 17.4399L81.1384 17.3661H82.4562C83.5543 17.3661 83.7767 17.3738 83.7915 17.4121C83.8159 17.4756 83.6287 18.196 83.4886 18.5765C83.3292 19.0099 83.016 19.6354 82.7766 19.9984C81.6869 21.6513 79.7195 22.723 77.5805 22.8289C77.3903 22.8382 77.1754 22.85 77.103 22.8551C77.0305 22.8601 76.7267 22.8538 76.4278 22.8411ZM81.2029 12.766C81.2029 12.6359 81.1087 12.1538 81.0203 11.8304C80.6254 10.3867 79.7409 9.30011 78.4653 8.692C77.3204 8.14608 75.8138 8.14923 74.5474 8.70001C74.0209 8.92921 73.3609 9.47356 72.9505 10.0171C72.5132 10.5964 72.1466 11.4867 72.0153 12.2878C71.979 12.5102 71.949 12.7253 71.949 12.766V12.8398H81.2031L81.2029 12.766Z" fill="white"/>
<path d="M42.3241 22.7605C40.5486 22.5955 39.1152 22.0378 38.1649 21.142C37.2122 20.2437 36.6115 18.8787 36.6106 17.6097L36.6105 17.3262L37.1126 17.3043C37.3889 17.2921 37.9928 17.2869 38.4546 17.2926L39.2944 17.3028L39.303 17.4176C39.3229 17.6879 39.4199 18.1902 39.4939 18.4071C39.6538 18.8755 40.0678 19.4017 40.5129 19.7023C41.2664 20.2112 42.3153 20.468 43.6415 20.468C45.1768 20.468 46.4148 20.0997 47.0218 19.4625C47.4318 19.0322 47.6542 18.2984 47.5473 17.7292C47.4652 17.2922 47.1697 16.8444 46.7451 16.5135C46.468 16.2976 45.8623 15.9949 45.3704 15.8266C44.9987 15.6994 43.4712 15.3149 42.3736 15.0722C39.9907 14.5453 38.8727 14.0698 38.0244 13.2224C37.5294 12.7279 37.2334 12.2148 37.0765 11.5792C36.7781 10.3713 36.9798 9.15308 37.6409 8.16803C37.8512 7.85485 38.4583 7.25042 38.8022 7.01176C39.1206 6.79082 39.67 6.51294 40.109 6.35065C42.0497 5.63312 45.2262 5.73847 47.0137 6.57959C47.8902 6.99209 48.6404 7.71106 49.092 8.57107C49.2718 8.91337 49.435 9.35473 49.507 9.69322C49.5751 10.0127 49.6516 10.606 49.6516 10.8146V10.9888H48.3497C47.3359 10.9888 47.0454 10.9798 47.037 10.9479C47.031 10.9253 47.0008 10.774 46.9699 10.6116C46.9389 10.4492 46.8729 10.2203 46.8235 10.1026C46.5676 9.49511 45.9636 8.89632 45.3185 8.6107C44.7643 8.36522 43.7686 8.21277 42.9334 8.24544C40.8987 8.32507 39.8019 9.03946 39.8056 10.2823C39.807 10.7256 39.9132 11.0291 40.1739 11.3353C40.4516 11.6615 40.8131 11.9018 41.4033 12.1531C42.0105 12.4113 42.6261 12.5826 43.9378 12.8586C45.5523 13.1981 46.7782 13.5187 47.4121 13.7675C48.8008 14.3124 49.584 15.018 50.085 16.1753C50.3324 16.7468 50.4223 17.3802 50.371 18.1905C50.2924 19.4313 49.7378 20.5123 48.7625 21.3258C47.7569 22.1644 46.5113 22.5814 44.4647 22.7644C44.0399 22.8023 42.7502 22.7999 42.3241 22.7605Z" fill="white"/>
<path d="M53.4887 22.4278C53.4801 22.4051 53.4769 18.7558 53.4815 14.318L53.4899 6.2492L54.7002 6.2328C54.7002 6.2328 55.9106 6.2164 55.9617 6.36399C56.0074 6.36399 56.0109 6.47866 55.9947 7.42173C55.9643 9.16655 55.9771 18.2075 56.0143 21.37L56.0255 22.3212L55.9434 22.3326C55.845 22.3461 55.7725 22.3994 55.7975 22.4396C55.8078 22.4564 55.3236 22.4688 54.66 22.4688C53.7658 22.4688 53.5008 22.4594 53.4887 22.4278Z" fill="white"/>
<path d="M20.259 22.4366C20.2512 22.424 20.2479 18.7768 20.2517 14.3315L20.2586 6.2492L21.4702 6.24068C22.6743 6.23202 22.6817 6.23241 22.6465 6.29775C22.5963 6.39129 22.5741 6.684 22.5645 7.3808C22.5598 7.72743 22.5656 7.8892 22.5779 7.758C22.5931 7.59794 22.6015 7.72691 22.606 8.1844C22.6114 8.74475 22.62 8.84604 22.6654 8.8791C22.7451 8.93736 22.7931 8.90298 22.8946 8.7155C23.6526 7.31415 25.106 6.23451 26.5651 5.98864C27.2851 5.86741 28.4709 5.84655 29.282 5.94102C31.4473 6.19305 32.9095 7.42764 33.435 9.4472C33.5328 9.82309 33.537 9.8589 33.4853 9.87819C33.4327 9.89774 33.4293 10.0606 33.4353 12.3054C33.4389 13.6288 33.4502 15.2429 33.4604 15.8924C33.4937 17.9943 33.5055 20.0614 33.4834 19.9268L33.4619 19.7956L33.4466 19.9104C33.4266 20.062 33.4478 20.2434 33.4765 20.1658C33.488 20.1349 33.5012 20.5334 33.5061 21.0514C33.5108 21.5694 33.5204 22.0912 33.5273 22.2108L33.5398 22.4285L32.4482 22.4517C31.848 22.4643 31.2826 22.4697 31.1921 22.4635L31.0274 22.4524L31.0068 16.7288C30.9859 10.8796 30.9848 10.84 30.8586 10.351C30.6496 9.54179 29.9873 8.8135 29.1619 8.48524C28.3033 8.14386 27.0863 8.11709 26.0476 8.41702C25.8629 8.47028 25.7554 8.4876 25.748 8.4653C25.7144 8.36506 25.3796 8.49967 25.3796 8.61329C25.1793 8.79566 25.1793 8.62143 25.1602 8.70133C25.133 8.63415 25.0168 8.71733 24.9762 8.83305C24.9465 8.91794 24.9368 8.92529 24.9193 8.87543C24.9009 8.82347 24.8622 8.84434 24.6376 9.0267C24.4941 9.14321 24.3671 9.27402 24.3546 9.3181C24.3424 9.36205 24.3307 9.37674 24.329 9.3509C24.3222 9.25434 23.8541 9.78215 23.6115 10.1597C23.3315 10.5957 23.0413 11.2618 22.9276 11.6612C22.9152 11.7152 22.8912 11.7934 22.8744 11.8349C22.8575 11.8764 22.8437 11.9385 22.8437 11.9731C22.8437 12.0076 22.8126 12.0648 22.7745 12.1001C22.7125 12.1577 22.7092 12.1767 22.7439 12.2811C22.7651 12.3454 22.7733 12.413 22.7619 12.4312C22.7506 12.4494 22.7339 13.1472 22.7249 13.9816C22.7158 14.816 22.6948 15.667 22.6783 15.8726C22.6616 16.078 22.6589 16.2625 22.6719 16.2826C22.6848 16.3024 22.6964 17.3003 22.6976 18.5C22.6995 20.6013 22.7217 21.3182 22.7806 21.1732C22.7953 21.1368 22.8049 21.368 22.8019 21.6913C22.7989 22.0122 22.7885 22.2877 22.7788 22.3033C22.6749 22.3245 22.4984 22.425 22.5359 22.4449C22.489 22.4761 20.2785 22.4681 20.259 22.4366Z" fill="white"/>
<path d="M53.492 3.29169C53.4799 3.27975 53.4701 2.5491 53.4701 1.66809V0.0664062H56.1297L56.1446 1.66547C56.1527 2.5449 56.1536 3.27542 56.1465 3.28893C56.1307 3.31937 53.5224 3.322 53.492 3.29169Z" fill="white"/>
<path d="M55.8143 22.4564C55.7681 22.4012 55.8219 22.3491 55.9425 22.3326L56.0246 22.3212L56.0135 21.37C55.9762 18.2075 55.9635 9.16656 55.9938 7.42173C56.0101 6.47867 56.0065 6.364 56.0107 6.2C56.0664 6.2 56.1293 6.2185 56.1507 6.24094C56.1804 6.27229 56.1876 8.19306 56.181 14.3568C56.173 22.0004 56.1695 22.4326 56.1152 22.4491C55.9605 22.4959 55.8493 22.4987 55.8143 22.4564Z" fill="white"/>
<path d="M22.5738 22.4244C22.549 22.36 22.5778 22.3376 22.6846 22.3376C22.734 22.3376 22.7806 22.3192 22.7882 22.2966C22.815 22.2178 22.811 21.1077 22.7844 21.1732C22.7252 21.3176 22.7031 20.6038 22.7011 18.5C22.6999 17.3003 22.6884 16.3024 22.6754 16.2826C22.6624 16.2625 22.6652 16.078 22.6818 15.8726C22.6983 15.667 22.7193 14.816 22.7284 13.9816C22.7374 13.1472 22.7541 12.4495 22.7654 12.4312C22.7768 12.413 22.7687 12.3454 22.7474 12.2811C22.7128 12.1767 22.7161 12.1577 22.778 12.1001C22.8162 12.0648 22.8473 12.0076 22.8473 11.9731C22.8473 11.9386 22.861 11.8764 22.878 11.8349C22.8948 11.7935 22.9188 11.7153 23.0182 11.5299C23.0448 11.2618 23.3351 10.5957 23.615 10.1598C23.8576 9.78216 24.3257 9.25434 24.3326 9.35091C24.3343 9.37675 24.346 9.36206 24.3582 9.31811C24.3706 9.27402 24.4976 9.14322 24.6411 9.02671C24.8658 8.84434 24.9045 8.82348 24.9228 8.87544C24.9403 8.92529 24.95 8.91795 24.9798 8.83306C25.0203 8.71734 25.1366 8.63416 25.2843 8.67877C25.2843 8.73978 25.2022 8.82965 25.1729 8.80052C25.1618 8.7895 25.1526 8.79436 25.1526 8.81154C25.1526 8.8286 25.1044 8.87058 25.0455 8.90469C24.9866 8.93881 24.8755 9.01753 24.7985 9.07972C24.7216 9.1419 24.6586 9.18559 24.6586 9.1768C24.6586 9.16132 24.2473 9.57631 24.1152 9.72509C24.0409 9.80879 24.0324 9.82073 23.8562 10.0894C23.7861 10.1962 23.6942 10.3353 23.6518 10.3984C23.545 10.5575 23.3816 10.9245 23.3028 11.1825C23.2664 11.3015 23.2098 11.4578 23.1768 11.53C23.1439 11.6022 23.0992 11.7498 23.0774 11.858C23.0556 11.9662 23.0241 12.0923 23.0073 12.1381C22.9434 12.3125 22.9338 12.8781 22.9156 17.598L22.8967 22.4524L22.7444 22.4622C22.6348 22.4693 22.587 22.4587 22.5738 22.4244Z" fill="white"/>
<path d="M67.0847 8.58941C66.9774 8.41885 66.94 8.29959 66.94 8.12824C66.94 8.0238 66.952 7.93839 66.9667 7.93839C67.0036 7.93839 66.9833 7.34222 66.9391 7.13073C66.9087 6.98523 66.9115 6.94521 66.9565 6.87699C66.988 6.8291 67.019 6.68425 67.0325 6.52262C67.0544 6.2589 67.0582 6.2492 67.1376 6.2492H67.22L67.2093 7.39719C67.2012 8.28843 67.1891 8.55503 67.1557 8.58941C67.1194 8.6264 67.1079 8.6264 67.0847 8.58941Z" fill="white"/>
<path d="M25.3801 8.62035C25.3801 8.56171 25.4106 8.52642 25.4965 8.48561C25.6524 8.41162 25.7424 8.41411 25.7424 8.49244C25.7424 8.55003 25.7109 8.56866 25.4213 8.68346C25.3952 8.69383 25.3801 8.67074 25.3801 8.62035Z" fill="white"/>
<path d="M33.5476 22.4302C33.5321 22.3616 33.5182 21.8525 33.5102 21.0678C33.5049 20.5408 33.4911 20.1348 33.4797 20.1658C33.451 20.2433 33.4297 20.062 33.4498 19.9104L33.465 19.7956L33.4867 19.9268C33.5096 20.0666 33.498 18.0943 33.4623 15.8268C33.4503 15.0691 33.4392 13.4236 33.4376 12.1701C33.435 10.089 33.4393 9.88998 33.4882 9.88067C33.5678 9.86532 33.6192 10.079 33.6154 10.4078C33.6143 10.4943 33.6214 10.5779 33.6311 10.5935C33.6408 10.6091 33.6494 13.2764 33.6501 16.5207C33.6515 21.8143 33.6465 22.4206 33.6008 22.4302C33.5727 22.436 33.5489 22.436 33.5476 22.4302Z" fill="white"/>
<path d="M22.6696 8.88028C22.6223 8.84578 22.6141 8.75302 22.6086 8.1844C22.6041 7.7269 22.5957 7.59793 22.5805 7.758C22.5682 7.8892 22.5624 7.72743 22.5671 7.3808C22.5799 6.45571 22.6119 6.2328 22.7322 6.2328C22.7738 6.2328 22.7805 6.41622 22.7805 7.55923C22.7805 8.28883 22.7679 8.89353 22.7524 8.90298C22.7369 8.91256 22.6997 8.90232 22.6696 8.88028Z" fill="white"/>
<path d="M7.85956 22.9795C6.43329 22.7988 5.09059 22.312 3.98195 21.5739C3.07208 20.9683 2.40217 20.3361 1.77412 19.4912C1.0659 18.5384 0.486658 17.2414 0.254959 16.0892C-0.0254147 14.696 0.00699163 13.311 0.351522 11.9543C0.502795 11.3589 0.651969 10.9496 0.924603 10.382C1.62744 8.91926 2.60265 7.78137 3.90284 6.90732C4.99363 6.17391 6.10017 5.73242 7.41689 5.50505C7.79448 5.43985 7.95743 5.43132 8.84749 5.43066C9.68271 5.43001 9.90732 5.44011 10.1813 5.4901C11.8017 5.78648 13.1047 6.3606 14.3718 7.33686C14.7634 7.63849 15.4609 8.34159 15.7716 8.74792C16.8027 10.0961 17.4092 11.5747 17.6123 13.2356C17.6717 13.7222 17.6624 14.8568 17.5948 15.3512C17.3202 17.3592 16.4766 19.0771 15.09 20.4517C13.7397 21.7906 12.0342 22.662 10.2101 22.9453C9.72771 23.0203 8.34014 23.0406 7.85956 22.9795ZM9.37439 20.6957C10.9084 20.5563 12.2373 19.9596 13.3571 18.9075C14.3005 18.0208 15.0416 16.6612 15.2765 15.3853C15.3774 14.8373 15.3777 13.7689 15.2771 13.1864C14.9886 11.517 14.0431 9.99077 12.6629 8.96584C10.9725 7.71078 8.80931 7.37845 6.7727 8.06095C4.68124 8.76195 3.1382 10.4307 2.59425 12.58C2.45636 13.1249 2.39273 13.6564 2.39286 14.2622C2.39338 15.918 2.96607 17.403 4.07038 18.6128C5.09794 19.7386 6.55884 20.5024 7.99128 20.6628C8.65594 20.7373 8.86324 20.7422 9.37439 20.6957Z" fill="white"/>
<path d="M64.0773 22.4337C63.6284 22.4038 63.3302 22.3437 62.9564 22.2079C62.0021 21.861 61.5085 21.212 61.3589 20.1072C61.3202 19.8215 61.3122 18.8089 61.3117 14.1789L61.311 8.59517L58.5611 8.57799L58.5439 6.23279H61.3105L61.3274 1.3948L62.4411 1.38614C63.0952 1.38103 63.5472 1.38968 63.5365 1.407C63.5093 1.45082 63.5866 1.50239 63.6986 1.51485C63.776 1.52364 63.7952 1.54017 63.7872 1.5916C63.7817 1.62768 63.7743 2.37303 63.7708 3.248C63.7667 4.26322 63.7525 4.84758 63.7316 4.86294C63.7439 4.80298 63.7745 5.18372 63.7293 5.16994C63.7378 5.21678 63.7474 5.38288 63.7507 5.53901C63.7578 5.87317 63.8162 6.12941 63.899 6.18963C63.9459 6.22387 64.2793 6.23279 65.5093 6.23279H67.0604L67.0354 6.51553C67.021 6.68044 66.9887 6.83172 66.9581 6.87816C66.9141 6.94508 66.9113 6.98588 66.9415 7.13072C66.9857 7.34222 67.006 7.93839 66.9692 7.93839C66.9125 7.93839 66.942 8.31742 67.0089 8.4481L67.0754 8.57799L65.8975 8.59439C64.7941 8.60974 64.7188 8.60711 64.709 8.55345C64.6995 8.50242 64.6531 8.49599 64.2914 8.49599H63.8841L63.8128 8.59596C63.7218 8.72309 63.6919 8.93275 63.7494 9.03968C63.8004 9.13519 63.6732 9.34892 63.7441 9.2702C63.7577 9.23595 63.7696 9.36886 63.7707 9.5654C63.7718 9.80864 63.7649 9.8808 63.7485 9.79159C63.7258 9.66773 63.7242 9.67141 63.7203 9.85719C63.7176 9.98051 63.7268 10.0371 63.7448 10.0087C63.7619 9.98183 63.7704 10.109 63.7658 10.3236C63.7616 10.5216 63.7476 10.7007 63.7346 10.7214C63.7217 10.7421 63.7234 10.7592 63.7384 10.7592C63.7727 10.7592 63.7678 11.6178 63.7323 11.789C63.7171 11.8624 63.7184 11.909 63.7352 11.8987C63.7515 11.8887 63.7663 12.0325 63.7687 12.2219C63.7709 12.4095 63.7598 12.5632 63.7439 12.5632C63.728 12.5632 63.7161 12.7145 63.7174 12.8993C63.719 13.1365 63.7289 13.2163 63.7508 13.17C63.7742 13.1208 63.778 13.137 63.7661 13.2356C63.7077 13.7175 63.7058 13.7536 63.7407 13.732C63.7796 13.7082 63.7772 13.8342 63.7377 13.898C63.7253 13.9181 63.7141 14.7515 63.713 15.7499C63.712 16.7483 63.7104 17.8825 63.7096 18.2704C63.7085 18.8219 63.7192 19.0077 63.8454 19.2898C63.8631 19.4626 63.8902 19.5371 63.9807 19.6629L64.0938 19.8201C64.114 19.4792 64.2448 20.0425 64.3074 19.9294C64.3079 20.0038 64.3717 20.0439 64.6136 20.122C64.7944 20.1802 64.8032 20.1814 64.7979 20.1481C64.7882 20.0872 64.8086 19.9963 64.8237 20.0334C64.8364 20.065 65.0897 20.0744 65.9336 20.0744H67.0269C66.9992 20.2031 67.0012 20.4442 66.9919 20.4244C67.0403 20.4643 67.0552 20.96 67.008 20.96C66.9656 20.96 66.9719 21.1509 67.0164 21.2112C67.0319 21.2322 67.0325 21.2566 67.0181 21.2655C66.9756 21.2918 66.9633 22.0424 67.0054 22.0424C67.0526 22.0424 67.0518 22.2944 67.0046 22.3234C66.9844 22.3359 66.8859 22.3441 66.7856 22.3419C66.608 22.3378 66.4966 22.3809 66.5331 22.4396C66.5547 22.4747 64.6212 22.4699 64.0773 22.4337Z" fill="white"/>
<path d="M64.6064 20.1205C64.372 20.0425 64.3101 20.0026 64.3096 19.9294C64.1746 19.9107 64.1527 19.6694 64.277 19.7712C64.277 19.8114 64.4967 19.9288 64.6633 19.9777C64.7791 20.012 64.8013 20.0315 64.7961 20.0958C64.7886 20.1851 64.7978 20.184 64.6064 20.1205Z" fill="white"/>
<path d="M63.9793 19.6631C63.8888 19.5371 63.8618 19.4626 63.7575 19.1232C63.7179 19.0077 63.7071 18.8219 63.7083 18.2704C63.7091 17.8825 63.7106 16.7483 63.7117 15.7499C63.7127 14.7515 63.7239 13.9181 63.7364 13.898C63.7759 13.8342 63.7782 13.7082 63.7394 13.732C63.7045 13.7536 63.7063 13.7175 63.7647 13.2356C63.7766 13.137 63.7728 13.1208 63.7495 13.17C63.7276 13.2163 63.7176 13.1365 63.716 12.8993C63.7147 12.7145 63.7267 12.5632 63.7425 12.5632C63.7584 12.5632 63.7696 12.4095 63.7673 12.2219C63.765 12.0325 63.7501 11.8887 63.7339 11.8987C63.7171 11.909 63.7158 11.8624 63.731 11.789C63.7664 11.6178 63.7714 10.7592 63.737 10.7592C63.7221 10.7592 63.7204 10.7421 63.7332 10.7214C63.7462 10.7007 63.7602 10.5216 63.7644 10.3236C63.769 10.109 63.7605 9.98183 63.7434 10.0087C63.7255 10.0371 63.7163 9.98051 63.7189 9.85719C63.7228 9.67141 63.7244 9.66773 63.7471 9.79159C63.7635 9.8808 63.7705 9.80864 63.7693 9.5654C63.7682 9.36886 63.7563 9.23596 63.7428 9.2702C63.6509 9.38461 63.8042 9.03732 63.748 9.03968C63.6906 8.93275 63.7205 8.7231 63.8114 8.59596L63.8828 8.49599H64.2923C64.6688 8.49599 64.7016 8.50084 64.7016 8.55673C64.7016 8.61184 64.6687 8.61801 64.3526 8.62247C64.1605 8.62522 63.9901 8.63559 63.9738 8.64569C63.9332 8.67062 63.9345 19.2445 64.0079 19.4184C64.0548 19.4184 64.1141 19.6028 64.1031 19.714L64.0924 19.8205L63.9793 19.6631Z" fill="white"/>
<path d="M9.0445 17.0746C9.0445 16.9857 9.09566 16.9356 9.12138 16.9992C9.13201 17.0253 9.13896 17.0206 9.14067 16.9862C9.14211 16.9564 9.18869 16.9163 9.29141 17.0374C9.27331 17.0357 9.21033 17.0612 9.15156 17.0942L9.0445 17.1541V17.0746Z" fill="white"/>
<path d="M10.9885 16.1901C10.9885 16.1286 11.0142 16.1022 11.1032 16.0729C11.1662 16.0523 11.2329 16.0446 11.2513 16.056C11.2698 16.0674 11.2849 16.0552 11.2849 16.0291C11.2849 15.9894 11.3494 15.9416 11.403 15.9416C11.4105 15.9416 11.4166 15.9775 11.4166 16.0214C11.4166 16.0947 11.3189 16.1646 11.2438 16.1448C11.2302 16.1413 11.219 16.1532 11.219 16.1712C11.219 16.1892 11.1903 16.204 11.1551 16.204C11.12 16.204 11.0821 16.2188 11.0709 16.2368C11.0338 16.2965 10.9885 16.2709 10.9885 16.1901Z" fill="white"/>
<path d="M11.4635 16.0223C11.4748 15.993 11.484 15.9492 11.484 15.925C11.484 15.9009 11.5396 15.8632 11.6075 15.8415C11.6754 15.8197 11.7483 15.7882 11.7695 15.7715C11.8892 15.7334 12.019 15.7917 11.871 15.8858C11.8483 15.8951 11.7428 15.9416 11.6364 15.9892C11.4808 16.0586 11.447 16.065 11.4635 16.0223Z" fill="white"/>
<path d="M7.46247 17.762C7.46247 17.6762 7.51088 17.6505 7.57373 17.6472C7.58068 17.6472 7.63985 17.6249 7.70545 17.5976C7.82261 17.5488 7.82484 17.5493 7.82484 17.6242C7.82484 17.6843 7.78981 17.7157 7.6598 17.7722C7.45604 17.8609 7.46247 17.8612 7.46247 17.762Z" fill="white"/>
<path d="M9.37526 16.9295C9.37526 16.8554 9.4734 16.7587 9.47497 16.8314C9.52758 16.8714 9.78697 16.6448 9.8363 16.6674C9.8363 16.6296 9.9999 16.5603 10.0364 16.5828C9.97694 16.6539 10.2707 16.389 10.2644 16.5165C10.2644 16.5876 10.2344 16.6149 10.0765 16.6868C9.97327 16.734 9.86949 16.7725 9.84601 16.7725C9.82252 16.7725 9.80337 16.7828 9.80337 16.7954C9.80337 16.808 9.73291 16.8444 9.64698 16.8763C9.56091 16.9081 9.47642 16.947 9.45923 16.9627C9.40859 17.0088 9.37526 16.9957 9.37526 16.9295Z" fill="white"/>
<path d="M6.41662 18.3059C6.3917 18.2905 6.38133 18.2613 6.3938 18.2413C6.40823 18.2182 6.38566 18.2048 6.33213 18.2048C6.21313 18.2048 6.22704 18.1667 6.38789 18.0521C6.46491 17.9971 6.98866 17.6216 7.55203 17.2175C8.11527 16.8134 8.85956 16.2835 9.2058 16.04C9.55217 15.7965 9.83595 15.5898 9.83635 15.5808C9.837 15.5665 8.25303 14.6318 6.23885 13.4578C5.89143 13.2554 5.59676 13.0635 5.45965 13.007C5.40639 12.9796 5.35286 12.941 5.34052 12.9211C5.29539 12.8484 5.18807 12.9013 7.68047 11.7684C8.72522 11.2936 11.8861 9.89852 12.0859 9.82426C12.3097 9.74082 12.3101 9.78176 12.0867 9.90692C11.9817 9.9657 11.7814 10.0926 11.6415 10.1887C10.8997 10.6991 9.882 11.4127 9.04626 12.0083C8.5296 12.3766 8.05177 12.7149 7.98446 12.76C7.91716 12.8051 7.86691 12.8568 7.87268 12.8748C7.88737 12.9202 8.33096 13.1802 10.7267 14.5482C12.0791 15.3204 12.3075 15.4573 12.1916 15.5678C12.1483 15.6111 12.09 15.6464 12.0619 15.6464C12.0194 15.8479 11.7723 15.7171 11.7695 15.7715C11.7483 15.7882 11.6773 15.819 11.6115 15.8402C11.517 15.8705 11.4866 15.9006 11.4665 15.9838C11.4152 15.9787 11.2268 15.9728 11.2529 16.056C11.2345 16.0446 11.1678 16.0523 11.1048 16.0729C11.0086 16.1045 10.9901 16.1262 10.9901 16.2065C10.9901 16.2592 10.979 16.3007 10.9655 16.2984C10.8921 16.287 10.8239 16.3087 10.7726 16.3598C10.7408 16.3913 10.7065 16.4142 10.6961 16.4104C10.657 16.3963 10.5291 16.442 10.5291 16.4699C10.5291 16.4859 10.5179 16.4963 10.5044 16.4928C10.4616 16.4815 10.3161 16.5392 10.2908 16.5774C10.3512 16.5675 9.96873 16.5675 10.0376 16.5828C10.0011 16.5603 9.83753 16.6296 9.83753 16.6674C9.75067 16.8122 9.51097 16.8122 9.4762 16.8314C9.4745 16.7523 9.38187 16.855 9.36691 16.9526C9.34802 17.2168 9.34723 16.8193 9.24477 16.8976C9.19045 16.9165 9.14479 16.9564 9.14335 16.9862C9.19714 16.9341 8.88331 17.2267 8.86127 17.1721C8.85248 17.1951 8.75382 17.2546 8.64216 17.3045C8.53051 17.3545 8.41663 17.4177 8.23125 17.3553C8.19018 17.3706 8.14295 17.4168 8.12642 17.4579C8.05819 17.6043 7.7979 17.6043 7.83358 17.6259C7.81298 17.5581 7.80747 17.5573 7.68874 17.6048C7.61907 17.6326 7.5641 17.6778 7.56265 17.7081C7.61723 17.67 7.38304 17.8314 7.39236 17.8638C7.35155 17.8616 7.29278 17.8894 7.26168 17.9256C7.00558 17.7527 7.00558 17.9247 6.97488 17.9604C6.91964 17.9262 6.77493 18.0162 6.771 18.0871C6.76798 18.1425 6.7643 18.1446 6.7521 18.0982C6.73373 18.0282 6.73754 18.0283 6.5965 18.0952C6.51148 18.1356 6.47921 18.1736 6.47186 18.242C6.46451 18.3111 6.45061 18.3271 6.41662 18.3059Z" fill="white"/>
<path d="M11.7695 15.7715C11.7483 15.7882 11.6754 15.8197 11.6075 15.8415C11.5396 15.8632 11.484 15.9009 11.484 15.925C11.484 15.9492 11.4748 15.993 11.4635 16.0223C11.447 16.065 11.4808 16.0586 11.6364 15.9892C11.7428 15.9416 11.8483 15.8951 11.871 15.8858C12.019 15.7917 11.8892 15.7334 11.7695 15.7715ZM11.7695 15.7715C11.7723 15.7171 12.0194 15.8479 12.0619 15.6464C12.09 15.6464 12.1483 15.6111 12.1916 15.5678C12.3075 15.4573 12.0791 15.3204 10.7267 14.5482C8.33096 13.1802 7.88737 12.9202 7.87268 12.8748C7.86691 12.8568 7.91716 12.8051 7.98446 12.76C8.05177 12.7149 8.5296 12.3766 9.04626 12.0083C9.882 11.4127 10.8997 10.6991 11.6415 10.1887C11.7814 10.0926 11.9817 9.9657 12.0867 9.90692C12.3101 9.78176 12.3097 9.74082 12.0859 9.82426C11.8861 9.89852 8.72522 11.2936 7.68047 11.7684C5.18807 12.9013 5.29539 12.8484 5.34052 12.9211C5.35286 12.941 5.40639 12.9796 5.45965 13.007C5.59676 13.0635 5.89143 13.2554 6.23885 13.4578C8.25303 14.6318 9.837 15.5665 9.83635 15.5808C9.83595 15.5898 9.55217 15.7965 9.2058 16.04C8.85956 16.2835 8.11527 16.8134 7.55203 17.2175C6.98866 17.6216 6.46491 17.9971 6.38789 18.0521C6.22704 18.1667 6.21313 18.2048 6.33213 18.2048C6.38566 18.2048 6.40823 18.2182 6.3938 18.2413C6.38133 18.2613 6.3917 18.2905 6.41662 18.3059C6.45061 18.3271 6.46451 18.3111 6.47186 18.242C6.47921 18.1736 6.51148 18.1356 6.5965 18.0952C6.73754 18.0283 6.73373 18.0282 6.7521 18.0982C6.7643 18.1446 6.76798 18.1425 6.771 18.0871C6.77493 18.0162 6.91964 17.9262 6.97488 17.9604C7.00558 17.9247 7.00558 17.7527 7.26168 17.9256C7.29278 17.8894 7.35155 17.8616 7.39236 17.8638C7.38304 17.8314 7.61723 17.67 7.56265 17.7081C7.5641 17.6778 7.61907 17.6326 7.68874 17.6048C7.80747 17.5573 7.81298 17.5581 7.83358 17.6259C7.7979 17.6043 8.05819 17.6043 8.12642 17.4579C8.14295 17.4168 8.19018 17.3706 8.23125 17.3553C8.41663 17.4177 8.53051 17.3545 8.64216 17.3045C8.75382 17.2546 8.85248 17.1951 8.86127 17.1721C8.88331 17.2267 9.19714 16.9341 9.14335 16.9862C9.14479 16.9564 9.19045 16.9165 9.24477 16.8976C9.34723 16.8193 9.34802 17.2168 9.36691 16.9526C9.38187 16.855 9.4745 16.7523 9.4762 16.8314C9.51097 16.8122 9.75067 16.8122 9.83753 16.6674C9.83753 16.6296 10.0011 16.5603 10.0376 16.5828C9.96873 16.5675 10.3512 16.5675 10.2908 16.5774C10.3161 16.5392 10.4616 16.4815 10.5044 16.4928C10.5179 16.4963 10.5291 16.4859 10.5291 16.4699C10.5291 16.442 10.657 16.3963 10.6961 16.4104C10.7065 16.4142 10.7408 16.3913 10.7726 16.3598C10.8239 16.3087 10.8921 16.287 10.9655 16.2984C10.979 16.3007 10.9901 16.2592 10.9901 16.2065C10.9901 16.1262 11.0086 16.1045 11.1048 16.0729C11.1678 16.0523 11.2345 16.0446 11.2529 16.056C11.2268 15.9728 11.4152 15.9787 11.4665 15.9838C11.4866 15.9006 11.517 15.8705 11.6115 15.8402C11.6773 15.819 11.7483 15.7882 11.7695 15.7715ZM76.4278 22.8411C74.5909 22.7627 73.0972 22.2382 71.9326 21.2628C70.4709 20.0385 69.6355 18.5149 69.2832 16.4313C69.1752 15.7929 69.1478 15.4888 69.1276 14.7093C69.0785 12.8174 69.3519 11.4389 70.057 10.0229C70.6793 8.77308 71.4932 7.86033 72.6893 7.07103C73.6234 6.45465 74.4497 6.12679 75.4866 5.96147C75.9872 5.88157 77.2272 5.88236 77.811 5.96305C79.3318 6.17297 80.5422 6.76481 81.5817 7.80641C82.6396 8.86624 83.3575 10.2622 83.7514 12.025C83.9202 12.7806 84.0352 13.8698 84.0352 14.7141V15.2013H71.8731L71.8941 15.5703C71.9357 16.3042 72.0918 17.0889 72.3 17.6104C72.8207 18.915 74.009 19.964 75.3827 20.3322C75.9347 20.4802 76.3728 20.5246 77.0865 20.5052C77.5653 20.4922 77.8125 20.4698 78.058 20.4173C78.6881 20.2827 79.2553 20.0526 79.7046 19.7496C80.0243 19.5341 80.4817 19.0581 80.6558 18.7601C80.892 18.3558 80.9852 18.0923 81.1228 17.4399L81.1384 17.3661H82.4562C83.5543 17.3661 83.7767 17.3738 83.7915 17.4121C83.8159 17.4756 83.6287 18.196 83.4886 18.5765C83.3292 19.0099 83.016 19.6354 82.7766 19.9984C81.6869 21.6513 79.7195 22.723 77.5805 22.8289C77.3903 22.8382 77.1754 22.85 77.103 22.8551C77.0305 22.8601 76.7267 22.8538 76.4278 22.8411ZM81.2029 12.766C81.2029 12.6359 81.1087 12.1538 81.0203 11.8304C80.6254 10.3867 79.7409 9.30011 78.4653 8.692C77.3204 8.14608 75.8138 8.14923 74.5474 8.70001C74.0209 8.92921 73.3609 9.47356 72.9505 10.0171C72.5132 10.5964 72.1466 11.4867 72.0153 12.2878C71.979 12.5102 71.949 12.7253 71.949 12.766V12.8398H81.2031L81.2029 12.766ZM42.3241 22.7605C40.5486 22.5955 39.1152 22.0378 38.1649 21.142C37.2122 20.2437 36.6115 18.8787 36.6106 17.6097L36.6105 17.3262L37.1126 17.3043C37.3889 17.2921 37.9928 17.2869 38.4546 17.2926L39.2944 17.3028L39.303 17.4176C39.3229 17.6879 39.4199 18.1902 39.4939 18.4071C39.6538 18.8755 40.0678 19.4017 40.5129 19.7023C41.2664 20.2112 42.3153 20.468 43.6415 20.468C45.1768 20.468 46.4148 20.0997 47.0218 19.4625C47.4318 19.0322 47.6542 18.2984 47.5473 17.7292C47.4652 17.2922 47.1697 16.8444 46.7451 16.5135C46.468 16.2976 45.8623 15.9949 45.3704 15.8266C44.9987 15.6994 43.4712 15.3149 42.3736 15.0722C39.9907 14.5453 38.8727 14.0698 38.0244 13.2224C37.5294 12.7279 37.2334 12.2148 37.0765 11.5792C36.7781 10.3713 36.9798 9.15308 37.6409 8.16803C37.8512 7.85485 38.4583 7.25042 38.8022 7.01176C39.1206 6.79082 39.67 6.51294 40.109 6.35065C42.0497 5.63312 45.2262 5.73847 47.0137 6.57959C47.8902 6.99209 48.6404 7.71106 49.092 8.57107C49.2718 8.91337 49.435 9.35473 49.507 9.69322C49.5751 10.0127 49.6516 10.606 49.6516 10.8146V10.9888H48.3497C47.3359 10.9888 47.0454 10.9798 47.037 10.9479C47.031 10.9253 47.0008 10.774 46.9699 10.6116C46.9389 10.4492 46.8729 10.2203 46.8235 10.1026C46.5676 9.49511 45.9636 8.89632 45.3185 8.6107C44.7643 8.36522 43.7686 8.21277 42.9334 8.24544C40.8987 8.32507 39.8019 9.03946 39.8056 10.2823C39.807 10.7256 39.9132 11.0291 40.1739 11.3353C40.4516 11.6615 40.8131 11.9018 41.4033 12.1531C42.0105 12.4113 42.6261 12.5826 43.9378 12.8586C45.5523 13.1981 46.7782 13.5187 47.4121 13.7675C48.8008 14.3124 49.584 15.018 50.085 16.1753C50.3324 16.7468 50.4223 17.3802 50.371 18.1905C50.2924 19.4313 49.7378 20.5123 48.7625 21.3258C47.7569 22.1644 46.5113 22.5814 44.4647 22.7644C44.0399 22.8023 42.7502 22.7999 42.3241 22.7605ZM53.4887 22.4278C53.4801 22.4051 53.4769 18.7558 53.4815 14.318L53.4899 6.2492L54.7002 6.2328C54.7002 6.2328 55.9106 6.2164 55.9617 6.36399C56.0074 6.36399 56.0109 6.47866 55.9947 7.42173C55.9643 9.16655 55.9771 18.2075 56.0143 21.37L56.0255 22.3212L55.9434 22.3326C55.845 22.3461 55.7725 22.3994 55.7975 22.4396C55.8078 22.4564 55.3236 22.4688 54.66 22.4688C53.7658 22.4688 53.5008 22.4594 53.4887 22.4278ZM20.259 22.4366C20.2512 22.424 20.2479 18.7768 20.2517 14.3315L20.2586 6.2492L21.4702 6.24068C22.6743 6.23202 22.6817 6.23241 22.6465 6.29775C22.5963 6.39129 22.5741 6.684 22.5645 7.3808C22.5598 7.72743 22.5656 7.8892 22.5779 7.758C22.5931 7.59794 22.6015 7.72691 22.606 8.1844C22.6114 8.74475 22.62 8.84604 22.6654 8.8791C22.7451 8.93736 22.7931 8.90298 22.8946 8.7155C23.6526 7.31415 25.106 6.23451 26.5651 5.98864C27.2851 5.86741 28.4709 5.84655 29.282 5.94102C31.4473 6.19305 32.9095 7.42764 33.435 9.4472C33.5328 9.82309 33.537 9.8589 33.4853 9.87819C33.4327 9.89774 33.4293 10.0606 33.4353 12.3054C33.4389 13.6288 33.4502 15.2429 33.4604 15.8924C33.4937 17.9943 33.5055 20.0614 33.4834 19.9268L33.4619 19.7956L33.4466 19.9104C33.4266 20.062 33.4478 20.2434 33.4765 20.1658C33.488 20.1349 33.5012 20.5334 33.5061 21.0514C33.5108 21.5694 33.5204 22.0912 33.5273 22.2108L33.5398 22.4285L32.4482 22.4517C31.848 22.4643 31.2826 22.4697 31.1921 22.4635L31.0274 22.4524L31.0068 16.7288C30.9859 10.8796 30.9848 10.84 30.8586 10.351C30.6496 9.54179 29.9873 8.8135 29.1619 8.48524C28.3033 8.14386 27.0863 8.11709 26.0476 8.41702C25.8629 8.47028 25.7554 8.4876 25.748 8.4653C25.7144 8.36506 25.3796 8.49967 25.3796 8.61329C25.1793 8.79566 25.1793 8.62143 25.1602 8.70133C25.133 8.63415 25.0168 8.71733 24.9762 8.83305C24.9465 8.91794 24.9368 8.92529 24.9193 8.87543C24.9009 8.82347 24.8622 8.84434 24.6376 9.0267C24.4941 9.14321 24.3671 9.27402 24.3546 9.3181C24.3424 9.36205 24.3307 9.37674 24.329 9.3509C24.3222 9.25434 23.8541 9.78215 23.6115 10.1597C23.3315 10.5957 23.0413 11.2618 22.9276 11.6612C22.9152 11.7152 22.8912 11.7934 22.8744 11.8349C22.8575 11.8764 22.8437 11.9385 22.8437 11.9731C22.8437 12.0076 22.8126 12.0648 22.7745 12.1001C22.7125 12.1577 22.7092 12.1767 22.7439 12.2811C22.7651 12.3454 22.7733 12.413 22.7619 12.4312C22.7506 12.4494 22.7339 13.1472 22.7249 13.9816C22.7158 14.816 22.6948 15.667 22.6783 15.8726C22.6616 16.078 22.6589 16.2625 22.6719 16.2826C22.6848 16.3024 22.6964 17.3003 22.6976 18.5C22.6995 20.6013 22.7217 21.3182 22.7806 21.1732C22.7953 21.1368 22.8049 21.368 22.8019 21.6913C22.7989 22.0122 22.7885 22.2877 22.7788 22.3033C22.6749 22.3245 22.4984 22.425 22.5359 22.4449C22.489 22.4761 20.2785 22.4681 20.259 22.4366ZM53.492 3.29169C53.4799 3.27975 53.4701 2.5491 53.4701 1.66809V0.0664062H56.1297L56.1446 1.66547C56.1527 2.5449 56.1536 3.27542 56.1465 3.28893C56.1307 3.31937 53.5224 3.322 53.492 3.29169ZM55.8143 22.4564C55.7681 22.4012 55.8219 22.3491 55.9425 22.3326L56.0246 22.3212L56.0135 21.37C55.9762 18.2075 55.9635 9.16656 55.9938 7.42173C56.0101 6.47867 56.0065 6.364 56.0107 6.2C56.0664 6.2 56.1293 6.2185 56.1507 6.24094C56.1804 6.27229 56.1876 8.19306 56.181 14.3568C56.173 22.0004 56.1695 22.4326 56.1152 22.4491C55.9605 22.4959 55.8493 22.4987 55.8143 22.4564ZM22.5738 22.4244C22.549 22.36 22.5778 22.3376 22.6846 22.3376C22.734 22.3376 22.7806 22.3192 22.7882 22.2966C22.815 22.2178 22.811 21.1077 22.7844 21.1732C22.7252 21.3176 22.7031 20.6038 22.7011 18.5C22.6999 17.3003 22.6884 16.3024 22.6754 16.2826C22.6624 16.2625 22.6652 16.078 22.6818 15.8726C22.6983 15.667 22.7193 14.816 22.7284 13.9816C22.7374 13.1472 22.7541 12.4495 22.7654 12.4312C22.7768 12.413 22.7687 12.3454 22.7474 12.2811C22.7128 12.1767 22.7161 12.1577 22.778 12.1001C22.8162 12.0648 22.8473 12.0076 22.8473 11.9731C22.8473 11.9386 22.861 11.8764 22.878 11.8349C22.8948 11.7935 22.9188 11.7153 23.0182 11.5299C23.0448 11.2618 23.3351 10.5957 23.615 10.1598C23.8576 9.78216 24.3257 9.25434 24.3326 9.35091C24.3343 9.37675 24.346 9.36206 24.3582 9.31811C24.3706 9.27402 24.4976 9.14322 24.6411 9.02671C24.8658 8.84434 24.9045 8.82348 24.9228 8.87544C24.9403 8.92529 24.95 8.91795 24.9798 8.83306C25.0203 8.71734 25.1366 8.63416 25.2843 8.67877C25.2843 8.73978 25.2022 8.82965 25.1729 8.80052C25.1618 8.7895 25.1526 8.79436 25.1526 8.81154C25.1526 8.8286 25.1044 8.87058 25.0455 8.90469C24.9866 8.93881 24.8755 9.01753 24.7985 9.07972C24.7216 9.1419 24.6586 9.18559 24.6586 9.1768C24.6586 9.16132 24.2473 9.57631 24.1152 9.72509C24.0409 9.80879 24.0324 9.82073 23.8562 10.0894C23.7861 10.1962 23.6942 10.3353 23.6518 10.3984C23.545 10.5575 23.3816 10.9245 23.3028 11.1825C23.2664 11.3015 23.2098 11.4578 23.1768 11.53C23.1439 11.6022 23.0992 11.7498 23.0774 11.858C23.0556 11.9662 23.0241 12.0923 23.0073 12.1381C22.9434 12.3125 22.9338 12.8781 22.9156 17.598L22.8967 22.4524L22.7444 22.4622C22.6348 22.4693 22.587 22.4587 22.5738 22.4244ZM67.0847 8.58941C66.9774 8.41885 66.94 8.29959 66.94 8.12824C66.94 8.0238 66.952 7.93839 66.9667 7.93839C67.0036 7.93839 66.9833 7.34222 66.9391 7.13073C66.9087 6.98523 66.9115 6.94521 66.9565 6.87699C66.988 6.8291 67.019 6.68425 67.0325 6.52262C67.0544 6.2589 67.0582 6.2492 67.1376 6.2492H67.22L67.2093 7.39719C67.2012 8.28843 67.1891 8.55503 67.1557 8.58941C67.1194 8.6264 67.1079 8.6264 67.0847 8.58941ZM25.3801 8.62035C25.3801 8.56171 25.4106 8.52642 25.4965 8.48561C25.6524 8.41162 25.7424 8.41411 25.7424 8.49244C25.7424 8.55003 25.7109 8.56866 25.4213 8.68346C25.3952 8.69383 25.3801 8.67074 25.3801 8.62035ZM33.5476 22.4302C33.5321 22.3616 33.5182 21.8525 33.5102 21.0678C33.5049 20.5408 33.4911 20.1348 33.4797 20.1658C33.451 20.2433 33.4297 20.062 33.4498 19.9104L33.465 19.7956L33.4867 19.9268C33.5096 20.0666 33.498 18.0943 33.4623 15.8268C33.4503 15.0691 33.4392 13.4236 33.4376 12.1701C33.435 10.089 33.4393 9.88998 33.4882 9.88067C33.5678 9.86532 33.6192 10.079 33.6154 10.4078C33.6143 10.4943 33.6214 10.5779 33.6311 10.5935C33.6408 10.6091 33.6494 13.2764 33.6501 16.5207C33.6515 21.8143 33.6465 22.4206 33.6008 22.4302C33.5727 22.436 33.5489 22.436 33.5476 22.4302ZM22.6696 8.88028C22.6223 8.84578 22.6141 8.75302 22.6086 8.1844C22.6041 7.7269 22.5957 7.59793 22.5805 7.758C22.5682 7.8892 22.5624 7.72743 22.5671 7.3808C22.5799 6.45571 22.6119 6.2328 22.7322 6.2328C22.7738 6.2328 22.7805 6.41622 22.7805 7.55923C22.7805 8.28883 22.7679 8.89353 22.7524 8.90298C22.7369 8.91256 22.6997 8.90232 22.6696 8.88028ZM7.85956 22.9795C6.43329 22.7988 5.09059 22.312 3.98195 21.5739C3.07208 20.9683 2.40217 20.3361 1.77412 19.4912C1.0659 18.5384 0.486658 17.2414 0.254959 16.0892C-0.0254147 14.696 0.00699163 13.311 0.351522 11.9543C0.502795 11.3589 0.651969 10.9496 0.924603 10.382C1.62744 8.91926 2.60265 7.78137 3.90284 6.90732C4.99363 6.17391 6.10017 5.73242 7.41689 5.50505C7.79448 5.43985 7.95743 5.43132 8.84749 5.43066C9.68271 5.43001 9.90732 5.44011 10.1813 5.4901C11.8017 5.78648 13.1047 6.3606 14.3718 7.33686C14.7634 7.63849 15.4609 8.34159 15.7716 8.74792C16.8027 10.0961 17.4092 11.5747 17.6123 13.2356C17.6717 13.7222 17.6624 14.8568 17.5948 15.3512C17.3202 17.3592 16.4766 19.0771 15.09 20.4517C13.7397 21.7906 12.0342 22.662 10.2101 22.9453C9.72771 23.0203 8.34014 23.0406 7.85956 22.9795ZM9.37439 20.6957C10.9084 20.5563 12.2373 19.9596 13.3571 18.9075C14.3005 18.0208 15.0416 16.6612 15.2765 15.3853C15.3774 14.8373 15.3777 13.7689 15.2771 13.1864C14.9886 11.517 14.0431 9.99077 12.6629 8.96584C10.9725 7.71078 8.80931 7.37845 6.7727 8.06095C4.68124 8.76195 3.1382 10.4307 2.59425 12.58C2.45636 13.1249 2.39273 13.6564 2.39286 14.2622C2.39338 15.918 2.96607 17.403 4.07038 18.6128C5.09794 19.7386 6.55884 20.5024 7.99128 20.6628C8.65594 20.7373 8.86324 20.7422 9.37439 20.6957ZM64.0773 22.4337C63.6284 22.4038 63.3302 22.3437 62.9564 22.2079C62.0021 21.861 61.5085 21.212 61.3589 20.1072C61.3202 19.8215 61.3122 18.8089 61.3117 14.1789L61.311 8.59517L58.5611 8.57799L58.5439 6.23279H61.3105L61.3274 1.3948L62.4411 1.38614C63.0952 1.38103 63.5472 1.38968 63.5365 1.407C63.5093 1.45082 63.5866 1.50239 63.6986 1.51485C63.776 1.52364 63.7952 1.54017 63.7872 1.5916C63.7817 1.62768 63.7743 2.37303 63.7708 3.248C63.7667 4.26322 63.7525 4.84758 63.7316 4.86294C63.7439 4.80298 63.7745 5.18372 63.7293 5.16994C63.7378 5.21678 63.7474 5.38288 63.7507 5.53901C63.7578 5.87317 63.8162 6.12941 63.899 6.18963C63.9459 6.22387 64.2793 6.23279 65.5093 6.23279H67.0604L67.0354 6.51553C67.021 6.68044 66.9887 6.83172 66.9581 6.87816C66.9141 6.94508 66.9113 6.98588 66.9415 7.13072C66.9857 7.34222 67.006 7.93839 66.9692 7.93839C66.9125 7.93839 66.942 8.31742 67.0089 8.4481L67.0754 8.57799L65.8975 8.59439C64.7941 8.60974 64.7188 8.60711 64.709 8.55345C64.6995 8.50242 64.6531 8.49599 64.2914 8.49599H63.8841L63.8128 8.59596C63.7218 8.72309 63.6919 8.93275 63.7494 9.03968C63.8004 9.13519 63.6732 9.34892 63.7441 9.2702C63.7577 9.23595 63.7696 9.36886 63.7707 9.5654C63.7718 9.80864 63.7649 9.8808 63.7485 9.79159C63.7258 9.66773 63.7242 9.67141 63.7203 9.85719C63.7176 9.98051 63.7268 10.0371 63.7448 10.0087C63.7619 9.98183 63.7704 10.109 63.7658 10.3236C63.7616 10.5216 63.7476 10.7007 63.7346 10.7214C63.7217 10.7421 63.7234 10.7592 63.7384 10.7592C63.7727 10.7592 63.7678 11.6178 63.7323 11.789C63.7171 11.8624 63.7184 11.909 63.7352 11.8987C63.7515 11.8887 63.7663 12.0325 63.7687 12.2219C63.7709 12.4095 63.7598 12.5632 63.7439 12.5632C63.728 12.5632 63.7161 12.7145 63.7174 12.8993C63.719 13.1365 63.7289 13.2163 63.7508 13.17C63.7742 13.1208 63.778 13.137 63.7661 13.2356C63.7077 13.7175 63.7058 13.7536 63.7407 13.732C63.7796 13.7082 63.7772 13.8342 63.7377 13.898C63.7253 13.9181 63.7141 14.7515 63.713 15.7499C63.712 16.7483 63.7104 17.8825 63.7096 18.2704C63.7085 18.8219 63.7192 19.0077 63.8454 19.2898C63.8631 19.4626 63.8902 19.5371 63.9807 19.6629L64.0938 19.8201C64.114 19.4792 64.2448 20.0425 64.3074 19.9294C64.3079 20.0038 64.3717 20.0439 64.6136 20.122C64.7944 20.1802 64.8032 20.1814 64.7979 20.1481C64.7882 20.0872 64.8086 19.9963 64.8237 20.0334C64.8364 20.065 65.0897 20.0744 65.9336 20.0744H67.0269C66.9992 20.2031 67.0012 20.4442 66.9919 20.4244C67.0403 20.4643 67.0552 20.96 67.008 20.96C66.9656 20.96 66.9719 21.1509 67.0164 21.2112C67.0319 21.2322 67.0325 21.2566 67.0181 21.2655C66.9756 21.2918 66.9633 22.0424 67.0054 22.0424C67.0526 22.0424 67.0518 22.2944 67.0046 22.3234C66.9844 22.3359 66.8859 22.3441 66.7856 22.3419C66.608 22.3378 66.4966 22.3809 66.5331 22.4396C66.5547 22.4747 64.6212 22.4699 64.0773 22.4337ZM64.6064 20.1205C64.372 20.0425 64.3101 20.0026 64.3096 19.9294C64.1746 19.9107 64.1527 19.6694 64.277 19.7712C64.277 19.8114 64.4967 19.9288 64.6633 19.9777C64.7791 20.012 64.8013 20.0315 64.7961 20.0958C64.7886 20.1851 64.7978 20.184 64.6064 20.1205ZM63.9793 19.6631C63.8888 19.5371 63.8618 19.4626 63.7575 19.1232C63.7179 19.0077 63.7071 18.8219 63.7083 18.2704C63.7091 17.8825 63.7106 16.7483 63.7117 15.7499C63.7127 14.7515 63.7239 13.9181 63.7364 13.898C63.7759 13.8342 63.7782 13.7082 63.7394 13.732C63.7045 13.7536 63.7063 13.7175 63.7647 13.2356C63.7766 13.137 63.7728 13.1208 63.7495 13.17C63.7276 13.2163 63.7176 13.1365 63.716 12.8993C63.7147 12.7145 63.7267 12.5632 63.7425 12.5632C63.7584 12.5632 63.7696 12.4095 63.7673 12.2219C63.765 12.0325 63.7501 11.8887 63.7339 11.8987C63.7171 11.909 63.7158 11.8624 63.731 11.789C63.7664 11.6178 63.7714 10.7592 63.737 10.7592C63.7221 10.7592 63.7204 10.7421 63.7332 10.7214C63.7462 10.7007 63.7602 10.5216 63.7644 10.3236C63.769 10.109 63.7605 9.98183 63.7434 10.0087C63.7255 10.0371 63.7163 9.98051 63.7189 9.85719C63.7228 9.67141 63.7244 9.66773 63.7471 9.79159C63.7635 9.8808 63.7705 9.80864 63.7693 9.5654C63.7682 9.36886 63.7563 9.23596 63.7428 9.2702C63.6509 9.38461 63.8042 9.03732 63.748 9.03968C63.6906 8.93275 63.7205 8.7231 63.8114 8.59596L63.8828 8.49599H64.2923C64.6688 8.49599 64.7016 8.50084 64.7016 8.55673C64.7016 8.61184 64.6687 8.61801 64.3526 8.62247C64.1605 8.62522 63.9901 8.63559 63.9738 8.64569C63.9332 8.67062 63.9345 19.2445 64.0079 19.4184C64.0548 19.4184 64.1141 19.6028 64.1031 19.714L64.0924 19.8205L63.9793 19.6631ZM9.0445 17.0746C9.0445 16.9857 9.09566 16.9356 9.12138 16.9992C9.13201 17.0253 9.13896 17.0206 9.14067 16.9862C9.14211 16.9564 9.18869 16.9163 9.29141 17.0374C9.27331 17.0357 9.21033 17.0612 9.15156 17.0942L9.0445 17.1541V17.0746ZM10.9885 16.1901C10.9885 16.1286 11.0142 16.1022 11.1032 16.0729C11.1662 16.0523 11.2329 16.0446 11.2513 16.056C11.2698 16.0674 11.2849 16.0552 11.2849 16.0291C11.2849 15.9894 11.3494 15.9416 11.403 15.9416C11.4105 15.9416 11.4166 15.9775 11.4166 16.0214C11.4166 16.0947 11.3189 16.1646 11.2438 16.1448C11.2302 16.1413 11.219 16.1532 11.219 16.1712C11.219 16.1892 11.1903 16.204 11.1551 16.204C11.12 16.204 11.0821 16.2188 11.0709 16.2368C11.0338 16.2965 10.9885 16.2709 10.9885 16.1901ZM7.46247 17.762C7.46247 17.6762 7.51088 17.6505 7.57373 17.6472C7.58068 17.6472 7.63985 17.6249 7.70545 17.5976C7.82261 17.5488 7.82484 17.5493 7.82484 17.6242C7.82484 17.6843 7.78981 17.7157 7.6598 17.7722C7.45604 17.8609 7.46247 17.8612 7.46247 17.762ZM9.37526 16.9295C9.37526 16.8554 9.4734 16.7587 9.47497 16.8314C9.52758 16.8714 9.78697 16.6448 9.8363 16.6674C9.8363 16.6296 9.9999 16.5603 10.0364 16.5828C9.97694 16.6539 10.2707 16.389 10.2644 16.5165C10.2644 16.5876 10.2344 16.6149 10.0765 16.6868C9.97327 16.734 9.86949 16.7725 9.84601 16.7725C9.82252 16.7725 9.80337 16.7828 9.80337 16.7954C9.80337 16.808 9.73291 16.8444 9.64698 16.8763C9.56091 16.9081 9.47642 16.947 9.45923 16.9627C9.40859 17.0088 9.37526 16.9957 9.37526 16.9295Z" stroke="white" stroke-width="0.1312"/>
</svg>
