<svg width="181" height="50" viewBox="0 0 181 50" fill="none" xmlns="http://www.w3.org/2000/svg">
<path d="M164.142 49.0539C160.197 48.8854 156.989 47.7591 154.488 45.6641C151.348 43.0348 149.554 39.7625 148.798 35.2876C148.566 33.9165 148.507 33.2633 148.463 31.5893C148.358 27.526 148.945 24.5654 150.459 21.5242C151.796 18.84 153.544 16.8796 156.113 15.1845C158.119 13.8607 159.894 13.1565 162.121 12.8015C163.196 12.6299 165.859 12.6316 167.113 12.8048C170.379 13.2557 172.979 14.5268 175.211 16.7638C177.483 19.04 179.025 22.0381 179.871 25.8241C180.233 27.4469 180.48 29.7862 180.48 31.5994V32.6459H154.36L154.405 33.4383C154.494 35.0146 154.83 36.6999 155.277 37.82C156.395 40.6217 158.947 42.8748 161.897 43.6654C163.083 43.9833 164.024 44.0788 165.557 44.0371C166.585 44.0092 167.116 43.961 167.643 43.8483C168.996 43.5592 170.215 43.065 171.18 42.4143C171.866 41.9514 172.849 40.9291 173.223 40.2892C173.73 39.4207 173.93 38.8549 174.225 37.4536L174.259 37.2953H177.089C179.448 37.2953 179.925 37.3116 179.957 37.3939C180.009 37.5303 179.607 39.0775 179.306 39.8947C178.964 40.8257 178.291 42.1689 177.777 42.9486C175.437 46.4984 171.212 48.8003 166.618 49.0277C166.209 49.0477 165.748 49.073 165.592 49.084C165.436 49.0947 164.784 49.0812 164.142 49.0539ZM174.398 27.4156C174.398 27.1361 174.195 26.1008 174.005 25.4062C173.157 22.3056 171.257 19.9719 168.518 18.6658C166.059 17.4933 162.823 17.5001 160.104 18.683C158.973 19.1753 157.555 20.3444 156.674 21.5118C155.735 22.7558 154.947 24.668 154.665 26.3885C154.587 26.8661 154.523 27.3282 154.523 27.4156V27.5739H174.398L174.398 27.4156Z" fill="white"/>
<path d="M90.8975 48.8807C87.0842 48.5265 84.0057 47.3286 81.9648 45.4046C79.9186 43.4753 78.6286 40.5437 78.6266 37.8183L78.6263 37.2094L79.7047 37.1624C80.2981 37.1362 81.5951 37.1252 82.587 37.1373L84.3907 37.1593L84.409 37.4058C84.4518 37.9863 84.66 39.0652 84.819 39.531C85.1624 40.5369 86.0517 41.6671 87.0075 42.3127C88.6258 43.4057 90.8786 43.9571 93.7268 43.9571C97.0242 43.9571 99.683 43.1662 100.987 41.7976C101.867 40.8734 102.345 39.2974 102.115 38.075C101.939 37.1364 101.304 36.1747 100.393 35.4641C99.7974 35.0003 98.4964 34.3502 97.4401 33.9887C96.6418 33.7157 93.3611 32.8898 91.0037 32.3685C85.8861 31.2369 83.485 30.2157 81.663 28.3957C80.5999 27.3337 79.9642 26.2316 79.6272 24.8667C78.9864 22.2724 79.4195 19.6561 80.8394 17.5405C81.2911 16.8679 82.5949 15.5697 83.3334 15.0572C84.0173 14.5827 85.1974 13.9859 86.1402 13.6373C90.3083 12.0963 97.1304 12.3225 100.969 14.129C102.852 15.0149 104.463 16.5591 105.433 18.4061C105.819 19.1413 106.17 20.0892 106.324 20.8161C106.47 21.5023 106.635 22.7765 106.635 23.2245V23.5987H103.839C101.661 23.5987 101.038 23.5793 101.019 23.5108C101.007 23.4623 100.942 23.1374 100.875 22.7886C100.809 22.4398 100.667 21.9481 100.561 21.6953C100.011 20.3907 98.714 19.1046 97.3285 18.4912C96.1382 17.964 93.9998 17.6366 92.206 17.7067C87.8362 17.8778 85.4806 19.4121 85.4885 22.0813C85.4916 23.0335 85.7195 23.6852 86.2794 24.3429C86.8759 25.0434 87.6522 25.5596 88.9199 26.0992C90.224 26.6537 91.5461 27.0217 94.3633 27.6143C97.8306 28.3436 100.464 29.0322 101.825 29.5665C104.807 30.7367 106.49 32.2521 107.565 34.7377C108.097 35.9651 108.29 37.3255 108.18 39.0658C108.011 41.7305 106.82 44.0524 104.725 45.7994C102.566 47.6005 99.8904 48.496 95.495 48.8891C94.5826 48.9705 91.8127 48.9655 90.8975 48.8807Z" fill="white"/>
<path d="M114.876 48.1663C114.857 48.1175 114.85 40.2799 114.86 30.7487L114.878 13.4194L117.478 13.3842C117.478 13.3842 120.077 13.349 120.187 13.666C120.285 13.666 120.293 13.9122 120.258 15.9377C120.193 19.685 120.22 39.1023 120.3 45.8943L120.324 47.9372L120.148 47.9617C119.936 47.9907 119.781 48.1051 119.834 48.1916C119.856 48.2277 118.816 48.2542 117.391 48.2542C115.471 48.2542 114.902 48.2342 114.876 48.1663Z" fill="white"/>
<path d="M43.5082 48.1852C43.4916 48.1581 43.4845 40.325 43.4927 30.7778L43.5073 13.4194L46.1096 13.4011C48.6957 13.3825 48.7115 13.3834 48.636 13.5237C48.5281 13.7246 48.4804 14.3532 48.4599 15.8498C48.4497 16.5942 48.4621 16.9416 48.4886 16.6599C48.5213 16.3161 48.5393 16.5931 48.5489 17.5756C48.5605 18.7791 48.5791 18.9967 48.6766 19.0677C48.8476 19.1928 48.9507 19.1189 49.1688 18.7163C50.7966 15.7066 53.9182 13.3879 57.0518 12.8598C58.5982 12.5995 61.1449 12.5546 62.8869 12.7575C67.5373 13.2988 70.6778 15.9504 71.8063 20.2878C72.0165 21.0951 72.0255 21.172 71.9145 21.2134C71.8015 21.2554 71.7942 21.6051 71.8071 26.4263C71.8147 29.2686 71.839 32.7353 71.8609 34.1301C71.9325 38.6445 71.9579 43.0839 71.9102 42.7948L71.864 42.513L71.8314 42.7595C71.7882 43.0853 71.8339 43.4747 71.8956 43.3082C71.9201 43.2417 71.9486 44.0977 71.959 45.2102C71.9691 46.3226 71.9897 47.4432 72.0046 47.7002L72.0314 48.1677L69.687 48.2176C68.3979 48.2446 67.1837 48.2562 66.9893 48.2429L66.6357 48.219L66.5914 35.9264C66.5463 23.3642 66.5441 23.2791 66.273 22.2289C65.8241 20.4909 64.4017 18.9268 62.6291 18.2218C60.7851 17.4886 58.1713 17.4311 55.9405 18.0752C55.5438 18.1896 55.313 18.2268 55.2969 18.1789C55.2248 17.9637 54.5057 18.2528 54.5057 18.4968C54.0757 18.8884 54.0757 18.5143 54.0346 18.6859C53.9762 18.5416 53.7266 18.7202 53.6395 18.9688C53.5755 19.1511 53.5547 19.1668 53.5172 19.0598C53.4778 18.9482 53.3946 18.993 52.9122 19.3847C52.604 19.6349 52.3312 19.9158 52.3044 20.0105C52.2782 20.1049 52.2532 20.1364 52.2495 20.0809C52.2348 19.8735 51.2295 21.0071 50.7085 21.8181C50.1071 22.7544 49.4838 24.185 49.2395 25.0428C49.2131 25.1589 49.1615 25.3268 49.1254 25.4158C49.0891 25.5049 49.0595 25.6384 49.0595 25.7125C49.0595 25.7867 48.9927 25.9095 48.9107 25.9853C48.7777 26.109 48.7707 26.1499 48.8451 26.3742C48.8907 26.5122 48.9082 26.6573 48.8837 26.6965C48.8594 26.7357 48.8236 28.2342 48.8042 30.0263C48.7847 31.8184 48.7397 33.646 48.7042 34.0875C48.6684 34.5288 48.6625 34.925 48.6904 34.9681C48.7183 35.0106 48.7431 37.1539 48.7456 39.7304C48.7498 44.2434 48.7974 45.783 48.924 45.4716C48.9555 45.3936 48.9761 45.8901 48.9696 46.5844C48.9631 47.2736 48.9409 47.8654 48.92 47.8989C48.6968 47.9443 48.3179 48.1601 48.3984 48.2029C48.2976 48.27 43.5502 48.2528 43.5082 48.1852Z" fill="white"/>
<path d="M114.883 7.06757C114.857 7.04193 114.836 5.47271 114.836 3.58057V0.140625H120.548L120.58 3.57493C120.597 5.46369 120.599 7.03263 120.584 7.06165C120.55 7.12702 114.948 7.13266 114.883 7.06757Z" fill="white"/>
<path d="M119.87 48.2277C119.771 48.1091 119.887 47.9972 120.146 47.9617L120.322 47.9372L120.298 45.8943C120.218 39.1023 120.191 19.685 120.256 15.9377C120.291 13.9122 120.283 13.666 120.292 13.3138C120.412 13.3138 120.547 13.3535 120.593 13.4017C120.657 13.469 120.672 17.5942 120.658 30.8322C120.641 47.2483 120.633 48.1764 120.517 48.2119C120.184 48.3125 119.946 48.3184 119.87 48.2277Z" fill="white"/>
<path d="M48.4798 48.159C48.4266 48.0206 48.4883 47.9724 48.7177 47.9724C48.8239 47.9724 48.9239 47.933 48.9403 47.8845C48.9978 47.7152 48.9893 45.331 48.9321 45.4717C48.805 45.7819 48.7574 44.2487 48.7532 39.7304C48.7506 37.1539 48.7258 35.0107 48.6979 34.9681C48.67 34.925 48.676 34.5288 48.7117 34.0876C48.7473 33.646 48.7923 31.8184 48.8118 30.0263C48.8312 28.2342 48.867 26.7357 48.8912 26.6965C48.9158 26.6574 48.8983 26.5122 48.8526 26.3742C48.7782 26.1499 48.7853 26.109 48.9183 25.9853C49.0003 25.9095 49.0671 25.7867 49.0671 25.7126C49.0671 25.6385 49.0967 25.5049 49.133 25.4158C49.1691 25.3268 49.2206 25.1589 49.4342 24.7607C49.4914 24.185 50.1147 22.7545 50.716 21.8181C51.237 21.0072 52.2424 19.8736 52.2571 20.0809C52.2607 20.1365 52.2858 20.1049 52.312 20.0105C52.3388 19.9158 52.6115 19.6349 52.9198 19.3847C53.4022 18.993 53.4853 18.9482 53.5248 19.0598C53.5623 19.1669 53.5831 19.1511 53.6471 18.9688C53.7341 18.7202 53.9838 18.5416 54.3011 18.6374C54.3011 18.7684 54.1247 18.9614 54.0619 18.8989C54.0379 18.8752 54.0182 18.8856 54.0182 18.9226C54.0182 18.9592 53.9148 19.0494 53.7883 19.1226C53.6617 19.1959 53.4231 19.365 53.2577 19.4985C53.0925 19.6321 52.9573 19.7259 52.9573 19.707C52.9573 19.6738 52.0739 20.565 51.7902 20.8846C51.6307 21.0644 51.6124 21.09 51.2339 21.6671C51.0835 21.8964 50.8859 22.1951 50.7949 22.3307C50.5656 22.6725 50.2147 23.4606 50.0454 24.0146C49.9673 24.2701 49.8456 24.606 49.7749 24.761C49.7042 24.916 49.6081 25.233 49.5613 25.4654C49.5145 25.6979 49.4469 25.9687 49.4108 26.067C49.2736 26.4415 49.253 27.6563 49.2139 37.7932L49.1733 48.219L48.8461 48.2401C48.6109 48.2554 48.508 48.2325 48.4798 48.159Z" fill="white"/>
<path d="M144.076 18.4455C143.845 18.0792 143.765 17.823 143.765 17.455C143.765 17.2307 143.791 17.0473 143.822 17.0473C143.902 17.0473 143.858 15.7669 143.763 15.3127C143.698 15.0002 143.704 14.9142 143.801 14.7677C143.868 14.6649 143.935 14.3538 143.964 14.0066C144.011 13.4403 144.019 13.4194 144.189 13.4194H144.366L144.344 15.885C144.326 17.7991 144.3 18.3717 144.228 18.4455C144.15 18.5249 144.126 18.5249 144.076 18.4455Z" fill="white"/>
<path d="M54.5069 18.5119C54.5069 18.386 54.5723 18.3102 54.7568 18.2226C55.0916 18.0636 55.2849 18.069 55.2849 18.2372C55.2849 18.3609 55.2172 18.4009 54.5954 18.6475C54.5393 18.6697 54.5069 18.6201 54.5069 18.5119Z" fill="white"/>
<path d="M72.0481 48.1713C72.0148 48.024 71.985 46.9307 71.9678 45.2453C71.9565 44.1134 71.9269 43.2416 71.9024 43.3081C71.8407 43.4747 71.7951 43.0852 71.8382 42.7595L71.8709 42.5129L71.9173 42.7947C71.9667 43.0951 71.9416 38.8591 71.8649 33.9892C71.8393 32.3619 71.8153 28.8278 71.812 26.1357C71.8063 21.6662 71.8156 21.2387 71.9207 21.2187C72.0915 21.1858 72.2019 21.6448 72.1938 22.3509C72.1915 22.5366 72.2067 22.7161 72.2276 22.7496C72.2484 22.7831 72.2667 28.5117 72.2684 35.4795C72.2713 46.8487 72.2606 48.1508 72.1625 48.1713C72.1022 48.1837 72.0509 48.1837 72.0481 48.1713Z" fill="white"/>
<path d="M48.6855 19.0702C48.5838 18.9961 48.5664 18.7969 48.5545 17.5756C48.5449 16.5931 48.5269 16.3161 48.4942 16.6599C48.4677 16.9416 48.4553 16.5942 48.4655 15.8498C48.4928 13.8629 48.5616 13.3842 48.82 13.3842C48.9093 13.3842 48.9236 13.7781 48.9236 16.233C48.9236 17.7999 48.8966 19.0987 48.8633 19.1189C48.8301 19.1395 48.7501 19.1175 48.6855 19.0702Z" fill="white"/>
<path d="M16.878 49.3512C13.8148 48.9629 10.9311 47.9175 8.55004 46.3322C6.59591 45.0315 5.15715 43.6739 3.80828 41.8593C2.28725 39.813 1.0432 37.0274 0.54558 34.5528C-0.0565789 31.5606 0.0130202 28.5861 0.752968 25.6723C1.07786 24.3936 1.39824 23.5144 1.98377 22.2954C3.49326 19.1539 5.58771 16.7101 8.38013 14.8329C10.7228 13.2577 13.0993 12.3095 15.9273 11.8212C16.7382 11.6812 17.0882 11.6629 18.9998 11.6614C20.7936 11.66 21.276 11.6817 21.8643 11.7891C25.3446 12.4256 28.1429 13.6587 30.8643 15.7554C31.7054 16.4032 33.2033 17.9132 33.8706 18.7859C36.0851 21.6815 37.3877 24.8571 37.8239 28.4241C37.9516 29.4692 37.9316 31.906 37.7865 32.9678C37.1967 37.2804 35.3849 40.97 32.4067 43.9222C29.5067 46.7977 25.8439 48.6693 21.9263 49.2776C20.8902 49.4388 17.9101 49.4822 16.878 49.3512ZM20.1314 44.4463C23.4259 44.1468 26.2801 42.8652 28.685 40.6057C30.7113 38.7014 32.3028 35.7813 32.8074 33.041C33.0241 31.8641 33.0247 29.5695 32.8086 28.3184C32.1889 24.7331 30.1584 21.4552 27.1941 19.2539C23.5637 16.5585 18.9178 15.8447 14.5437 17.3105C10.0519 18.8161 6.73793 22.4 5.56968 27.0161C5.27353 28.1863 5.13687 29.3278 5.13715 30.629C5.13827 34.1851 6.36824 37.3745 8.73996 39.9728C10.9468 42.3907 14.0844 44.0309 17.1609 44.3756C18.5884 44.5356 19.0336 44.546 20.1314 44.4463Z" fill="white"/>
<path d="M137.617 48.1789C136.653 48.1147 136.012 47.9856 135.21 47.694C133.16 46.949 132.1 45.555 131.779 43.1822C131.695 42.5687 131.678 40.394 131.677 30.4501L131.676 18.4579L125.77 18.421L125.733 13.3842H131.675L131.711 2.99362L134.103 2.97502C135.508 2.96403 136.478 2.98263 136.455 3.01983C136.397 3.11394 136.563 3.22468 136.804 3.25145C136.97 3.27033 137.011 3.30583 136.994 3.41629C136.982 3.49378 136.966 5.09456 136.959 6.97373C136.95 9.15413 136.919 10.4092 136.874 10.4421C136.901 10.3134 136.966 11.1311 136.869 11.1015C136.888 11.2021 136.908 11.5588 136.915 11.8941C136.931 12.6118 137.056 13.1621 137.234 13.2915C137.335 13.365 138.051 13.3842 140.692 13.3842H144.024L143.97 13.9914C143.939 14.3456 143.87 14.6705 143.804 14.7702C143.709 14.9139 143.703 15.0016 143.768 15.3127C143.863 15.7669 143.907 17.0473 143.828 17.0473C143.706 17.0473 143.769 17.8613 143.913 18.142L144.056 18.421L141.526 18.4562C139.156 18.4891 138.995 18.4835 138.974 18.3683C138.953 18.2586 138.854 18.2448 138.077 18.2448H137.202L137.049 18.4596C136.853 18.7326 136.789 19.1829 136.913 19.4125C137.022 19.6177 136.749 20.0767 136.901 19.9076C136.93 19.8341 136.956 20.1195 136.958 20.5416C136.961 21.064 136.946 21.219 136.911 21.0274C136.862 20.7614 136.858 20.7693 136.85 21.1683C136.844 21.4332 136.864 21.5546 136.903 21.4937C136.939 21.436 136.958 21.709 136.948 22.17C136.939 22.5952 136.909 22.9798 136.881 23.0244C136.853 23.0689 136.857 23.1055 136.889 23.1055C136.963 23.1055 136.952 24.9495 136.876 25.3172C136.843 25.475 136.846 25.575 136.882 25.5527C136.917 25.5313 136.949 25.8402 136.954 26.2471C136.959 26.65 136.935 26.98 136.901 26.98C136.867 26.98 136.841 27.3048 136.844 27.7019C136.847 28.2113 136.869 28.3826 136.916 28.2832C136.966 28.1775 136.974 28.2125 136.948 28.4241C136.823 29.459 136.819 29.5365 136.894 29.4903C136.977 29.439 136.972 29.7098 136.888 29.8468C136.861 29.8899 136.837 31.6797 136.835 33.8241C136.832 35.9684 136.829 38.4044 136.827 39.2373C136.825 40.4219 136.848 40.8209 137.119 41.4267C137.157 41.7978 137.215 41.9579 137.409 42.2281L137.652 42.5656C137.696 41.8336 137.977 43.0433 138.111 42.8004C138.112 42.9601 138.249 43.0464 138.769 43.214C139.157 43.3391 139.176 43.3417 139.165 43.2701C139.144 43.1393 139.187 42.9441 139.22 43.0238C139.247 43.0917 139.791 43.1117 141.604 43.1117H143.952C143.892 43.3882 143.896 43.9061 143.876 43.8635C143.98 43.9492 144.013 45.0137 143.911 45.0137C143.82 45.0137 143.834 45.4237 143.929 45.5533C143.962 45.5984 143.964 45.6508 143.933 45.67C143.842 45.7263 143.815 47.3384 143.905 47.3384C144.007 47.3384 144.005 47.8797 143.904 47.942C143.86 47.9687 143.649 47.9865 143.434 47.9817C143.052 47.973 142.813 48.0654 142.891 48.1916C142.938 48.2669 138.785 48.2567 137.617 48.1789Z" fill="white"/>
<path d="M138.753 43.2107C138.25 43.0434 138.117 42.9577 138.116 42.8005C137.826 42.7602 137.779 42.242 138.046 42.4606C138.046 42.5469 138.518 42.799 138.875 42.9042C139.124 42.9777 139.172 43.0197 139.161 43.1577C139.144 43.3496 139.164 43.3471 138.753 43.2107Z" fill="white"/>
<path d="M137.406 42.2284C137.212 41.9579 137.154 41.7978 136.93 41.0688C136.845 40.8209 136.822 40.4219 136.824 39.2373C136.826 38.4044 136.829 35.9684 136.832 33.8241C136.834 31.6797 136.858 29.8899 136.885 29.8468C136.969 29.7098 136.974 29.439 136.891 29.4903C136.816 29.5365 136.82 29.459 136.945 28.4241C136.971 28.2125 136.963 28.1775 136.913 28.2832C136.866 28.3826 136.844 28.2113 136.841 27.7019C136.838 27.3048 136.864 26.98 136.898 26.98C136.932 26.98 136.956 26.65 136.951 26.2471C136.946 25.8402 136.914 25.5313 136.879 25.5528C136.843 25.575 136.84 25.475 136.873 25.3172C136.949 24.9495 136.96 23.1055 136.886 23.1055C136.854 23.1055 136.85 23.0689 136.878 23.0244C136.906 22.9798 136.936 22.5952 136.945 22.17C136.955 21.709 136.936 21.436 136.9 21.4937C136.861 21.5546 136.841 21.4332 136.847 21.1683C136.856 20.7693 136.859 20.7614 136.908 21.0274C136.943 21.219 136.958 21.064 136.955 20.5416C136.953 20.1195 136.927 19.8341 136.898 19.9076C136.701 20.1533 137.03 19.4075 136.91 19.4125C136.786 19.1829 136.851 18.7326 137.046 18.4596L137.199 18.2448H138.079C138.887 18.2448 138.958 18.2553 138.958 18.3753C138.958 18.4937 138.887 18.5069 138.208 18.5165C137.796 18.5224 137.43 18.5447 137.395 18.5664C137.307 18.6199 137.31 41.3295 137.468 41.7028C137.568 41.7028 137.696 42.099 137.672 42.3377L137.649 42.5665L137.406 42.2284Z" fill="white"/>
<path d="M19.4229 36.6692C19.4229 36.4782 19.5328 36.3705 19.588 36.5072C19.6108 36.5633 19.6258 36.5531 19.6294 36.4793C19.6325 36.4153 19.7325 36.3291 19.9532 36.5892C19.9143 36.5855 19.779 36.6405 19.6528 36.7112L19.4229 36.84V36.6692Z" fill="white"/>
<path d="M23.598 34.7695C23.598 34.6373 23.6533 34.5807 23.8443 34.5178C23.9796 34.4736 24.123 34.457 24.1624 34.4815C24.2022 34.506 24.2346 34.4798 24.2346 34.4237C24.2346 34.3384 24.3732 34.2358 24.4882 34.2358C24.5042 34.2358 24.5175 34.313 24.5175 34.4071C24.5175 34.5646 24.3076 34.7148 24.1464 34.6723C24.1171 34.6646 24.0931 34.6903 24.0931 34.7289C24.0931 34.7675 24.0314 34.7993 23.9559 34.7993C23.8804 34.7993 23.7989 34.8312 23.775 34.8698C23.6953 34.998 23.598 34.943 23.598 34.7695Z" fill="white"/>
<path d="M24.6182 34.409C24.6424 34.3462 24.6621 34.2521 24.6621 34.2002C24.6621 34.1484 24.7816 34.0675 24.9275 34.0207C25.0732 33.974 25.2299 33.9063 25.2753 33.8706C25.5325 33.7886 25.8112 33.9139 25.4934 34.116C25.4446 34.136 25.2181 34.2357 24.9895 34.338C24.6553 34.4871 24.5826 34.5009 24.6182 34.409Z" fill="white"/>
<path d="M16.0252 38.1454C16.0252 37.9612 16.1291 37.9059 16.2641 37.8989C16.279 37.8989 16.4061 37.851 16.547 37.7924C16.7986 37.6875 16.8034 37.6887 16.8034 37.8496C16.8034 37.9786 16.7282 38.046 16.4489 38.1674C16.0113 38.3579 16.0252 38.3585 16.0252 38.1454Z" fill="white"/>
<path d="M20.1333 36.3576C20.1333 36.1984 20.344 35.9907 20.3474 36.1468C20.4604 36.2327 21.0175 35.7461 21.1234 35.7946C21.1234 35.7134 21.4748 35.5646 21.5531 35.6128C21.4255 35.7655 22.0564 35.1966 22.0429 35.4705C22.0429 35.6232 21.9783 35.6819 21.6394 35.8363C21.4176 35.9377 21.1947 36.0203 21.1443 36.0203C21.0938 36.0203 21.0527 36.0425 21.0527 36.0696C21.0527 36.0966 20.9014 36.1747 20.7168 36.2432C20.532 36.3116 20.3505 36.395 20.3136 36.4288C20.2048 36.5278 20.1333 36.4996 20.1333 36.3576Z" fill="white"/>
<path d="M13.779 39.3137C13.7255 39.2804 13.7032 39.2179 13.73 39.1748C13.761 39.1252 13.7125 39.0964 13.5975 39.0964C13.342 39.0964 13.3718 39.0147 13.7173 38.7684C13.8827 38.6504 15.0075 37.8439 16.2175 36.976C17.4272 36.1082 19.0257 34.9701 19.7693 34.4471C20.5132 33.9241 21.1227 33.4803 21.1235 33.4609C21.1249 33.4302 17.723 31.4228 13.3972 28.9014C12.651 28.4666 12.0182 28.0544 11.7237 27.9332C11.6093 27.8743 11.4943 27.7915 11.4678 27.7487C11.3709 27.5926 11.1404 27.7061 16.4934 25.273C18.7372 24.2532 25.5257 21.2571 25.9549 21.0976C26.4356 20.9184 26.4364 21.0063 25.9566 21.2751C25.7312 21.4013 25.3009 21.6738 25.0005 21.8804C23.4073 22.9765 21.2216 24.5091 19.4267 25.7883C18.317 26.5793 17.2908 27.3057 17.1462 27.4026C17.0017 27.4996 16.8938 27.6106 16.9062 27.6492C16.9377 27.7467 17.8904 28.3052 23.0357 31.2433C25.9402 32.9015 26.4308 33.1957 26.182 33.433C26.089 33.526 25.9636 33.6018 25.9033 33.6018C25.812 34.0346 25.2815 33.7536 25.2753 33.8706C25.2299 33.9063 25.0774 33.9726 24.936 34.0179C24.7331 34.083 24.6677 34.1478 24.6246 34.3265C24.5144 34.3155 24.1098 34.3028 24.1659 34.4815C24.1264 34.4569 23.983 34.4736 23.8478 34.5178C23.6412 34.5857 23.6015 34.6322 23.6015 34.8047C23.6015 34.9179 23.5775 35.007 23.5485 35.0022C23.391 34.9777 23.2445 35.0242 23.1343 35.1341C23.0661 35.2017 22.9923 35.2507 22.97 35.2425C22.886 35.2124 22.6113 35.3105 22.6113 35.3705C22.6113 35.4048 22.5874 35.4271 22.5583 35.4195C22.4665 35.3953 22.154 35.5192 22.0996 35.6012C22.2292 35.5801 21.4078 35.5801 21.5558 35.6128C21.4774 35.5646 21.1261 35.7134 21.1261 35.7946C20.9395 36.1056 20.4247 36.1056 20.35 36.1468C20.3464 35.9769 20.1474 36.1975 20.1153 36.4071C20.0747 36.9746 20.0731 36.1208 19.853 36.2891C19.7363 36.3296 19.6383 36.4153 19.6352 36.4793C19.7507 36.3674 19.0767 36.9958 19.0294 36.8785C19.0105 36.9279 18.7986 37.0558 18.5588 37.1629C18.319 37.2702 18.0744 37.406 17.6763 37.2719C17.5881 37.3049 17.4866 37.4041 17.4511 37.4923C17.3046 37.8067 16.7455 37.8067 16.8222 37.8532C16.778 37.7075 16.7661 37.7058 16.5111 37.8078C16.3615 37.8676 16.2434 37.9645 16.2403 38.0296C16.3575 37.9479 15.8546 38.2945 15.8746 38.3641C15.7869 38.3593 15.6607 38.419 15.5939 38.4968C15.0439 38.1254 15.0439 38.4948 14.978 38.5715C14.8593 38.4982 14.5485 38.6915 14.5401 38.8437C14.5336 38.9626 14.5257 38.9671 14.4995 38.8676C14.46 38.7171 14.4682 38.7174 14.1653 38.8611C13.9827 38.9479 13.9134 39.0294 13.8976 39.1764C13.8818 39.3247 13.852 39.359 13.779 39.3137Z" fill="white"/>
<path d="M25.2753 33.8706C25.2299 33.9063 25.0732 33.974 24.9275 34.0207C24.7816 34.0675 24.6621 34.1484 24.6621 34.2002C24.6621 34.2521 24.6424 34.3462 24.6182 34.409C24.5826 34.5009 24.6553 34.4871 24.9895 34.338C25.2181 34.2357 25.4446 34.136 25.4934 34.116C25.8112 33.9139 25.5325 33.7886 25.2753 33.8706ZM25.2753 33.8706C25.2815 33.7536 25.812 34.0346 25.9033 33.6018C25.9636 33.6018 26.089 33.526 26.182 33.433C26.4308 33.1957 25.9402 32.9015 23.0357 31.2433C17.8904 28.3052 16.9377 27.7467 16.9062 27.6492C16.8938 27.6106 17.0017 27.4996 17.1462 27.4026C17.2908 27.3057 18.317 26.5793 19.4267 25.7883C21.2216 24.5091 23.4073 22.9765 25.0005 21.8804C25.3009 21.6738 25.7312 21.4013 25.9566 21.2751C26.4364 21.0063 26.4356 20.9184 25.9549 21.0976C25.5257 21.2571 18.7372 24.2532 16.4934 25.273C11.1404 27.7061 11.3709 27.5926 11.4678 27.7487C11.4943 27.7915 11.6093 27.8743 11.7237 27.9332C12.0182 28.0544 12.651 28.4666 13.3972 28.9014C17.723 31.4228 21.1249 33.4302 21.1235 33.4609C21.1227 33.4803 20.5132 33.9241 19.7693 34.4471C19.0257 34.9701 17.4272 36.1082 16.2175 36.976C15.0075 37.8439 13.8827 38.6504 13.7173 38.7684C13.3718 39.0147 13.342 39.0964 13.5975 39.0964C13.7125 39.0964 13.761 39.1252 13.73 39.1748C13.7032 39.2179 13.7255 39.2804 13.779 39.3137C13.852 39.359 13.8818 39.3247 13.8976 39.1764C13.9134 39.0294 13.9827 38.9479 14.1653 38.8611C14.4682 38.7174 14.46 38.7171 14.4995 38.8676C14.5257 38.9671 14.5336 38.9626 14.5401 38.8437C14.5485 38.6915 14.8593 38.4982 14.978 38.5715C15.0439 38.4948 15.0439 38.1254 15.5939 38.4968C15.6607 38.419 15.7869 38.3593 15.8746 38.3641C15.8546 38.2945 16.3575 37.9479 16.2403 38.0296C16.2434 37.9645 16.3615 37.8676 16.5111 37.8078C16.7661 37.7058 16.778 37.7075 16.8222 37.8532C16.7455 37.8067 17.3046 37.8067 17.4511 37.4923C17.4866 37.4041 17.5881 37.3049 17.6763 37.2719C18.0744 37.406 18.319 37.2702 18.5588 37.1629C18.7986 37.0558 19.0105 36.9279 19.0294 36.8785C19.0767 36.9958 19.7507 36.3674 19.6352 36.4793C19.6383 36.4153 19.7363 36.3296 19.853 36.2891C20.0731 36.1208 20.0747 36.9746 20.1153 36.4071C20.1474 36.1975 20.3464 35.9769 20.35 36.1468C20.4247 36.1056 20.9395 36.1056 21.1261 35.7946C21.1261 35.7134 21.4774 35.5646 21.5558 35.6128C21.4078 35.5801 22.2292 35.5801 22.0996 35.6012C22.154 35.5192 22.4665 35.3953 22.5583 35.4195C22.5874 35.4271 22.6113 35.4048 22.6113 35.3705C22.6113 35.3105 22.886 35.2124 22.97 35.2425C22.9923 35.2507 23.0661 35.2017 23.1343 35.1341C23.2445 35.0242 23.391 34.9777 23.5485 35.0022C23.5775 35.007 23.6015 34.9179 23.6015 34.8047C23.6015 34.6322 23.6412 34.5857 23.8478 34.5178C23.983 34.4736 24.1264 34.4569 24.1659 34.4815C24.1098 34.3028 24.5144 34.3155 24.6246 34.3265C24.6677 34.1478 24.7331 34.083 24.936 34.0179C25.0774 33.9726 25.2299 33.9063 25.2753 33.8706ZM164.142 49.0539C160.197 48.8854 156.989 47.7591 154.488 45.6641C151.348 43.0348 149.554 39.7625 148.798 35.2876C148.566 33.9165 148.507 33.2633 148.463 31.5893C148.358 27.526 148.945 24.5654 150.459 21.5242C151.796 18.84 153.544 16.8796 156.113 15.1845C158.119 13.8607 159.894 13.1565 162.121 12.8015C163.196 12.6299 165.859 12.6316 167.113 12.8048C170.379 13.2557 172.979 14.5268 175.211 16.7638C177.483 19.04 179.025 22.0381 179.871 25.8241C180.233 27.4469 180.48 29.7862 180.48 31.5994V32.6459H154.36L154.405 33.4383C154.494 35.0146 154.83 36.6999 155.277 37.82C156.395 40.6217 158.947 42.8748 161.897 43.6654C163.083 43.9833 164.024 44.0788 165.557 44.0371C166.585 44.0092 167.116 43.961 167.643 43.8483C168.996 43.5592 170.215 43.065 171.18 42.4143C171.866 41.9514 172.849 40.9291 173.223 40.2892C173.73 39.4207 173.93 38.8549 174.225 37.4536L174.259 37.2953H177.089C179.448 37.2953 179.925 37.3116 179.957 37.3939C180.009 37.5303 179.607 39.0775 179.306 39.8947C178.964 40.8257 178.291 42.1689 177.777 42.9486C175.437 46.4984 171.212 48.8003 166.618 49.0277C166.209 49.0477 165.748 49.073 165.592 49.084C165.436 49.0947 164.784 49.0812 164.142 49.0539ZM174.398 27.4156C174.398 27.1361 174.195 26.1008 174.005 25.4062C173.157 22.3056 171.257 19.9719 168.518 18.6658C166.059 17.4933 162.823 17.5001 160.104 18.683C158.973 19.1753 157.555 20.3444 156.674 21.5118C155.735 22.7558 154.947 24.668 154.665 26.3885C154.587 26.8661 154.523 27.3282 154.523 27.4156V27.5739H174.398L174.398 27.4156ZM90.8975 48.8807C87.0842 48.5265 84.0057 47.3286 81.9648 45.4046C79.9186 43.4753 78.6286 40.5437 78.6266 37.8183L78.6263 37.2094L79.7047 37.1624C80.2981 37.1362 81.5951 37.1252 82.587 37.1373L84.3907 37.1593L84.409 37.4058C84.4518 37.9863 84.66 39.0652 84.819 39.531C85.1624 40.5369 86.0517 41.6671 87.0075 42.3127C88.6258 43.4057 90.8786 43.9571 93.7268 43.9571C97.0242 43.9571 99.683 43.1662 100.987 41.7976C101.867 40.8734 102.345 39.2974 102.115 38.075C101.939 37.1364 101.304 36.1747 100.393 35.4641C99.7974 35.0003 98.4964 34.3502 97.4401 33.9887C96.6418 33.7157 93.3611 32.8898 91.0037 32.3685C85.8861 31.2369 83.485 30.2157 81.663 28.3957C80.5999 27.3337 79.9642 26.2316 79.6272 24.8667C78.9864 22.2724 79.4195 19.6561 80.8394 17.5405C81.2911 16.8679 82.5949 15.5697 83.3334 15.0572C84.0173 14.5827 85.1974 13.9859 86.1402 13.6373C90.3083 12.0963 97.1304 12.3225 100.969 14.129C102.852 15.0149 104.463 16.5591 105.433 18.4061C105.819 19.1413 106.17 20.0892 106.324 20.8161C106.47 21.5023 106.635 22.7765 106.635 23.2245V23.5987H103.839C101.661 23.5987 101.038 23.5793 101.019 23.5108C101.007 23.4623 100.942 23.1374 100.875 22.7886C100.809 22.4398 100.667 21.9481 100.561 21.6953C100.011 20.3907 98.714 19.1046 97.3285 18.4912C96.1382 17.964 93.9998 17.6366 92.206 17.7067C87.8362 17.8778 85.4806 19.4121 85.4885 22.0813C85.4916 23.0335 85.7195 23.6852 86.2794 24.3429C86.8759 25.0434 87.6522 25.5596 88.9199 26.0992C90.224 26.6537 91.5461 27.0217 94.3633 27.6143C97.8306 28.3436 100.464 29.0322 101.825 29.5665C104.807 30.7367 106.49 32.2521 107.565 34.7377C108.097 35.9651 108.29 37.3255 108.18 39.0658C108.011 41.7305 106.82 44.0524 104.725 45.7994C102.566 47.6005 99.8904 48.496 95.495 48.8891C94.5826 48.9705 91.8127 48.9655 90.8975 48.8807ZM114.876 48.1663C114.857 48.1175 114.85 40.2799 114.86 30.7487L114.878 13.4194L117.478 13.3842C117.478 13.3842 120.077 13.349 120.187 13.666C120.285 13.666 120.293 13.9122 120.258 15.9377C120.193 19.685 120.22 39.1023 120.3 45.8943L120.324 47.9372L120.148 47.9617C119.936 47.9907 119.781 48.1051 119.834 48.1916C119.856 48.2277 118.816 48.2542 117.391 48.2542C115.471 48.2542 114.902 48.2342 114.876 48.1663ZM43.5082 48.1852C43.4916 48.1581 43.4845 40.325 43.4927 30.7778L43.5073 13.4194L46.1096 13.4011C48.6957 13.3825 48.7115 13.3834 48.636 13.5237C48.5281 13.7246 48.4804 14.3532 48.4599 15.8498C48.4497 16.5942 48.4621 16.9416 48.4886 16.6599C48.5213 16.3161 48.5393 16.5931 48.5489 17.5756C48.5605 18.7791 48.5791 18.9967 48.6766 19.0677C48.8476 19.1928 48.9507 19.1189 49.1688 18.7163C50.7966 15.7066 53.9182 13.3879 57.0518 12.8598C58.5982 12.5995 61.1449 12.5546 62.8869 12.7575C67.5373 13.2988 70.6778 15.9504 71.8063 20.2878C72.0165 21.0951 72.0255 21.172 71.9145 21.2134C71.8015 21.2554 71.7942 21.6051 71.8071 26.4263C71.8147 29.2686 71.839 32.7353 71.8609 34.1301C71.9325 38.6445 71.9579 43.0839 71.9102 42.7948L71.864 42.513L71.8314 42.7595C71.7882 43.0853 71.8339 43.4747 71.8956 43.3082C71.9201 43.2417 71.9486 44.0977 71.959 45.2102C71.9691 46.3226 71.9897 47.4432 72.0046 47.7002L72.0314 48.1677L69.687 48.2176C68.3979 48.2446 67.1837 48.2562 66.9893 48.2429L66.6357 48.219L66.5914 35.9264C66.5463 23.3642 66.5441 23.2791 66.273 22.2289C65.8241 20.4909 64.4017 18.9268 62.6291 18.2218C60.7851 17.4886 58.1713 17.4311 55.9405 18.0752C55.5438 18.1896 55.313 18.2268 55.2969 18.1789C55.2248 17.9637 54.5057 18.2528 54.5057 18.4968C54.0757 18.8884 54.0757 18.5143 54.0346 18.6859C53.9762 18.5416 53.7266 18.7202 53.6395 18.9688C53.5755 19.1511 53.5547 19.1668 53.5172 19.0598C53.4778 18.9482 53.3946 18.993 52.9122 19.3847C52.604 19.6349 52.3312 19.9158 52.3044 20.0105C52.2782 20.1049 52.2532 20.1364 52.2495 20.0809C52.2348 19.8735 51.2295 21.0071 50.7085 21.8181C50.1071 22.7544 49.4838 24.185 49.2395 25.0428C49.2131 25.1589 49.1615 25.3268 49.1254 25.4158C49.0891 25.5049 49.0595 25.6384 49.0595 25.7125C49.0595 25.7867 48.9927 25.9095 48.9107 25.9853C48.7777 26.109 48.7707 26.1499 48.8451 26.3742C48.8907 26.5122 48.9082 26.6573 48.8837 26.6965C48.8594 26.7357 48.8236 28.2342 48.8042 30.0263C48.7847 31.8184 48.7397 33.646 48.7042 34.0875C48.6684 34.5288 48.6625 34.925 48.6904 34.9681C48.7183 35.0106 48.7431 37.1539 48.7456 39.7304C48.7498 44.2434 48.7974 45.783 48.924 45.4716C48.9555 45.3936 48.9761 45.8901 48.9696 46.5844C48.9631 47.2736 48.9409 47.8654 48.92 47.8989C48.6968 47.9443 48.3179 48.1601 48.3984 48.2029C48.2976 48.27 43.5502 48.2528 43.5082 48.1852ZM114.883 7.06757C114.857 7.04193 114.836 5.47271 114.836 3.58057V0.140625H120.548L120.58 3.57493C120.597 5.46369 120.599 7.03263 120.584 7.06165C120.55 7.12702 114.948 7.13266 114.883 7.06757ZM119.87 48.2277C119.771 48.1091 119.887 47.9972 120.146 47.9617L120.322 47.9372L120.298 45.8943C120.218 39.1023 120.191 19.685 120.256 15.9377C120.291 13.9122 120.283 13.666 120.292 13.3138C120.412 13.3138 120.547 13.3535 120.593 13.4017C120.657 13.469 120.672 17.5942 120.658 30.8322C120.641 47.2483 120.633 48.1764 120.517 48.2119C120.184 48.3125 119.946 48.3184 119.87 48.2277ZM48.4798 48.159C48.4266 48.0206 48.4883 47.9724 48.7177 47.9724C48.8239 47.9724 48.9239 47.933 48.9403 47.8845C48.9978 47.7152 48.9893 45.331 48.9321 45.4717C48.805 45.7819 48.7574 44.2487 48.7532 39.7304C48.7506 37.1539 48.7258 35.0107 48.6979 34.9681C48.67 34.925 48.676 34.5288 48.7117 34.0876C48.7473 33.646 48.7923 31.8184 48.8118 30.0263C48.8312 28.2342 48.867 26.7357 48.8912 26.6965C48.9158 26.6574 48.8983 26.5122 48.8526 26.3742C48.7782 26.1499 48.7853 26.109 48.9183 25.9853C49.0003 25.9095 49.0671 25.7867 49.0671 25.7126C49.0671 25.6385 49.0967 25.5049 49.133 25.4158C49.1691 25.3268 49.2206 25.1589 49.4342 24.7607C49.4914 24.185 50.1147 22.7545 50.716 21.8181C51.237 21.0072 52.2424 19.8736 52.2571 20.0809C52.2607 20.1365 52.2858 20.1049 52.312 20.0105C52.3388 19.9158 52.6115 19.6349 52.9198 19.3847C53.4022 18.993 53.4853 18.9482 53.5248 19.0598C53.5623 19.1669 53.5831 19.1511 53.6471 18.9688C53.7341 18.7202 53.9838 18.5416 54.3011 18.6374C54.3011 18.7684 54.1247 18.9614 54.0619 18.8989C54.0379 18.8752 54.0182 18.8856 54.0182 18.9226C54.0182 18.9592 53.9148 19.0494 53.7883 19.1226C53.6617 19.1959 53.4231 19.365 53.2577 19.4985C53.0925 19.6321 52.9573 19.7259 52.9573 19.707C52.9573 19.6738 52.0739 20.565 51.7902 20.8846C51.6307 21.0644 51.6124 21.09 51.2339 21.6671C51.0835 21.8964 50.8859 22.1951 50.7949 22.3307C50.5656 22.6725 50.2147 23.4606 50.0454 24.0146C49.9673 24.2701 49.8456 24.606 49.7749 24.761C49.7042 24.916 49.6081 25.233 49.5613 25.4654C49.5145 25.6979 49.4469 25.9687 49.4108 26.067C49.2736 26.4415 49.253 27.6563 49.2139 37.7932L49.1733 48.219L48.8461 48.2401C48.6109 48.2554 48.508 48.2325 48.4798 48.159ZM144.076 18.4455C143.845 18.0792 143.765 17.823 143.765 17.455C143.765 17.2307 143.791 17.0473 143.822 17.0473C143.902 17.0473 143.858 15.7669 143.763 15.3127C143.698 15.0002 143.704 14.9142 143.801 14.7677C143.868 14.6649 143.935 14.3538 143.964 14.0066C144.011 13.4403 144.019 13.4194 144.189 13.4194H144.366L144.344 15.885C144.326 17.7991 144.3 18.3717 144.228 18.4455C144.15 18.5249 144.126 18.5249 144.076 18.4455ZM54.5069 18.5119C54.5069 18.386 54.5723 18.3102 54.7568 18.2226C55.0916 18.0636 55.2849 18.069 55.2849 18.2372C55.2849 18.3609 55.2172 18.4009 54.5954 18.6475C54.5393 18.6697 54.5069 18.6201 54.5069 18.5119ZM72.0481 48.1713C72.0148 48.024 71.985 46.9307 71.9678 45.2453C71.9565 44.1134 71.9269 43.2416 71.9024 43.3081C71.8407 43.4747 71.7951 43.0852 71.8382 42.7595L71.8709 42.5129L71.9173 42.7947C71.9667 43.0951 71.9416 38.8591 71.8649 33.9892C71.8393 32.3619 71.8153 28.8278 71.812 26.1357C71.8063 21.6662 71.8156 21.2387 71.9207 21.2187C72.0915 21.1858 72.2019 21.6448 72.1938 22.3509C72.1915 22.5366 72.2067 22.7161 72.2276 22.7496C72.2484 22.7831 72.2667 28.5117 72.2684 35.4795C72.2713 46.8487 72.2606 48.1508 72.1625 48.1713C72.1022 48.1837 72.0509 48.1837 72.0481 48.1713ZM48.6855 19.0702C48.5838 18.9961 48.5664 18.7969 48.5545 17.5756C48.5449 16.5931 48.5269 16.3161 48.4942 16.6599C48.4677 16.9416 48.4553 16.5942 48.4655 15.8498C48.4928 13.8629 48.5616 13.3842 48.82 13.3842C48.9093 13.3842 48.9236 13.7781 48.9236 16.233C48.9236 17.7999 48.8966 19.0987 48.8633 19.1189C48.8301 19.1395 48.7501 19.1175 48.6855 19.0702ZM16.878 49.3512C13.8148 48.9629 10.9311 47.9175 8.55004 46.3322C6.59591 45.0315 5.15715 43.6739 3.80828 41.8593C2.28725 39.813 1.0432 37.0274 0.54558 34.5528C-0.0565789 31.5606 0.0130202 28.5861 0.752968 25.6723C1.07786 24.3936 1.39824 23.5144 1.98377 22.2954C3.49326 19.1539 5.58771 16.7101 8.38013 14.8329C10.7228 13.2577 13.0993 12.3095 15.9273 11.8212C16.7382 11.6812 17.0882 11.6629 18.9998 11.6614C20.7936 11.66 21.276 11.6817 21.8643 11.7891C25.3446 12.4256 28.1429 13.6587 30.8643 15.7554C31.7054 16.4032 33.2033 17.9132 33.8706 18.7859C36.0851 21.6815 37.3877 24.8571 37.8239 28.4241C37.9516 29.4692 37.9316 31.906 37.7865 32.9678C37.1967 37.2804 35.3849 40.97 32.4067 43.9222C29.5067 46.7977 25.8439 48.6693 21.9263 49.2776C20.8902 49.4388 17.9101 49.4822 16.878 49.3512ZM20.1314 44.4463C23.4259 44.1468 26.2801 42.8652 28.685 40.6057C30.7113 38.7014 32.3028 35.7813 32.8074 33.041C33.0241 31.8641 33.0247 29.5695 32.8086 28.3184C32.1889 24.7331 30.1584 21.4552 27.1941 19.2539C23.5637 16.5585 18.9178 15.8447 14.5437 17.3105C10.0519 18.8161 6.73793 22.4 5.56968 27.0161C5.27353 28.1863 5.13687 29.3278 5.13715 30.629C5.13827 34.1851 6.36824 37.3745 8.73996 39.9728C10.9468 42.3907 14.0844 44.0309 17.1609 44.3756C18.5884 44.5356 19.0336 44.546 20.1314 44.4463ZM137.617 48.1789C136.653 48.1147 136.012 47.9856 135.21 47.694C133.16 46.949 132.1 45.555 131.779 43.1822C131.695 42.5687 131.678 40.394 131.677 30.4501L131.676 18.4579L125.77 18.421L125.733 13.3842H131.675L131.711 2.99362L134.103 2.97502C135.508 2.96403 136.478 2.98263 136.455 3.01983C136.397 3.11394 136.563 3.22468 136.804 3.25145C136.97 3.27033 137.011 3.30583 136.994 3.41629C136.982 3.49378 136.966 5.09456 136.959 6.97373C136.95 9.15413 136.919 10.4092 136.874 10.4421C136.901 10.3134 136.966 11.1311 136.869 11.1015C136.888 11.2021 136.908 11.5588 136.915 11.8941C136.931 12.6118 137.056 13.1621 137.234 13.2915C137.335 13.365 138.051 13.3842 140.692 13.3842H144.024L143.97 13.9914C143.939 14.3456 143.87 14.6705 143.804 14.7702C143.709 14.9139 143.703 15.0016 143.768 15.3127C143.863 15.7669 143.907 17.0473 143.828 17.0473C143.706 17.0473 143.769 17.8613 143.913 18.142L144.056 18.421L141.526 18.4562C139.156 18.4891 138.995 18.4835 138.974 18.3683C138.953 18.2586 138.854 18.2448 138.077 18.2448H137.202L137.049 18.4596C136.853 18.7326 136.789 19.1829 136.913 19.4125C137.022 19.6177 136.749 20.0767 136.901 19.9076C136.93 19.8341 136.956 20.1195 136.958 20.5416C136.961 21.064 136.946 21.219 136.911 21.0274C136.862 20.7614 136.858 20.7693 136.85 21.1683C136.844 21.4332 136.864 21.5546 136.903 21.4937C136.939 21.436 136.958 21.709 136.948 22.17C136.939 22.5952 136.909 22.9798 136.881 23.0244C136.853 23.0689 136.857 23.1055 136.889 23.1055C136.963 23.1055 136.952 24.9495 136.876 25.3172C136.843 25.475 136.846 25.575 136.882 25.5527C136.917 25.5313 136.949 25.8402 136.954 26.2471C136.959 26.65 136.935 26.98 136.901 26.98C136.867 26.98 136.841 27.3048 136.844 27.7019C136.847 28.2113 136.869 28.3826 136.916 28.2832C136.966 28.1775 136.974 28.2125 136.948 28.4241C136.823 29.459 136.819 29.5365 136.894 29.4903C136.977 29.439 136.972 29.7098 136.888 29.8468C136.861 29.8899 136.837 31.6797 136.835 33.8241C136.832 35.9684 136.829 38.4044 136.827 39.2373C136.825 40.4219 136.848 40.8209 137.119 41.4267C137.157 41.7978 137.215 41.9579 137.409 42.2281L137.652 42.5656C137.696 41.8336 137.977 43.0433 138.111 42.8004C138.112 42.9601 138.249 43.0464 138.769 43.214C139.157 43.3391 139.176 43.3417 139.165 43.2701C139.144 43.1393 139.187 42.9441 139.22 43.0238C139.247 43.0917 139.791 43.1117 141.604 43.1117H143.952C143.892 43.3882 143.896 43.9061 143.876 43.8635C143.98 43.9492 144.013 45.0137 143.911 45.0137C143.82 45.0137 143.834 45.4237 143.929 45.5533C143.962 45.5984 143.964 45.6508 143.933 45.67C143.842 45.7263 143.815 47.3384 143.905 47.3384C144.007 47.3384 144.005 47.8797 143.904 47.942C143.86 47.9687 143.649 47.9865 143.434 47.9817C143.052 47.973 142.813 48.0654 142.891 48.1916C142.938 48.2669 138.785 48.2567 137.617 48.1789ZM138.753 43.2107C138.25 43.0434 138.117 42.9577 138.116 42.8005C137.826 42.7602 137.779 42.242 138.046 42.4606C138.046 42.5469 138.518 42.799 138.875 42.9042C139.124 42.9777 139.172 43.0197 139.161 43.1577C139.144 43.3496 139.164 43.3471 138.753 43.2107ZM137.406 42.2284C137.212 41.9579 137.154 41.7978 136.93 41.0688C136.845 40.8209 136.822 40.4219 136.824 39.2373C136.826 38.4044 136.829 35.9684 136.832 33.8241C136.834 31.6797 136.858 29.8899 136.885 29.8468C136.969 29.7098 136.974 29.439 136.891 29.4903C136.816 29.5365 136.82 29.459 136.945 28.4241C136.971 28.2125 136.963 28.1775 136.913 28.2832C136.866 28.3826 136.844 28.2113 136.841 27.7019C136.838 27.3048 136.864 26.98 136.898 26.98C136.932 26.98 136.956 26.65 136.951 26.2471C136.946 25.8402 136.914 25.5313 136.879 25.5528C136.843 25.575 136.84 25.475 136.873 25.3172C136.949 24.9495 136.96 23.1055 136.886 23.1055C136.854 23.1055 136.85 23.0689 136.878 23.0244C136.906 22.9798 136.936 22.5952 136.945 22.17C136.955 21.709 136.936 21.436 136.9 21.4937C136.861 21.5546 136.841 21.4332 136.847 21.1683C136.856 20.7693 136.859 20.7614 136.908 21.0274C136.943 21.219 136.958 21.064 136.955 20.5416C136.953 20.1195 136.927 19.8341 136.898 19.9076C136.701 20.1533 137.03 19.4075 136.91 19.4125C136.786 19.1829 136.851 18.7326 137.046 18.4596L137.199 18.2448H138.079C138.887 18.2448 138.958 18.2553 138.958 18.3753C138.958 18.4937 138.887 18.5069 138.208 18.5165C137.796 18.5224 137.43 18.5447 137.395 18.5664C137.307 18.6199 137.31 41.3295 137.468 41.7028C137.568 41.7028 137.696 42.099 137.672 42.3377L137.649 42.5665L137.406 42.2284ZM19.4229 36.6692C19.4229 36.4782 19.5328 36.3705 19.588 36.5072C19.6108 36.5633 19.6258 36.5531 19.6294 36.4793C19.6325 36.4153 19.7325 36.3291 19.9532 36.5892C19.9143 36.5855 19.779 36.6405 19.6528 36.7112L19.4229 36.84V36.6692ZM23.598 34.7695C23.598 34.6373 23.6533 34.5807 23.8443 34.5178C23.9796 34.4736 24.123 34.457 24.1624 34.4815C24.2022 34.506 24.2346 34.4798 24.2346 34.4237C24.2346 34.3384 24.3732 34.2358 24.4882 34.2358C24.5042 34.2358 24.5175 34.313 24.5175 34.4071C24.5175 34.5646 24.3076 34.7148 24.1464 34.6723C24.1171 34.6646 24.0931 34.6903 24.0931 34.7289C24.0931 34.7675 24.0314 34.7993 23.9559 34.7993C23.8804 34.7993 23.7989 34.8312 23.775 34.8698C23.6953 34.998 23.598 34.943 23.598 34.7695ZM16.0252 38.1454C16.0252 37.9612 16.1291 37.9059 16.2641 37.8989C16.279 37.8989 16.4061 37.851 16.547 37.7924C16.7986 37.6875 16.8034 37.6887 16.8034 37.8496C16.8034 37.9786 16.7282 38.046 16.4489 38.1674C16.0113 38.3579 16.0252 38.3585 16.0252 38.1454ZM20.1333 36.3576C20.1333 36.1984 20.344 35.9907 20.3474 36.1468C20.4604 36.2327 21.0175 35.7461 21.1234 35.7946C21.1234 35.7134 21.4748 35.5646 21.5531 35.6128C21.4255 35.7655 22.0564 35.1966 22.0429 35.4705C22.0429 35.6232 21.9783 35.6819 21.6394 35.8363C21.4176 35.9377 21.1947 36.0203 21.1443 36.0203C21.0938 36.0203 21.0527 36.0425 21.0527 36.0696C21.0527 36.0966 20.9014 36.1747 20.7168 36.2432C20.532 36.3116 20.3505 36.395 20.3136 36.4288C20.2048 36.5278 20.1333 36.4996 20.1333 36.3576Z" stroke="white" stroke-width="0.281778"/>
</svg>
