<svg width="136" height="30" viewBox="0 0 136 30" fill="none" xmlns="http://www.w3.org/2000/svg">
<path d="M44.9863 21.0977V9.43179H51.0525C51.7192 9.43179 52.3302 9.59289 52.8857 9.9151C53.4413 10.2262 53.8857 10.6539 54.219 11.1983C54.5523 11.7427 54.7189 12.3483 54.7189 13.0149C54.7189 13.7037 54.5412 14.3315 54.1856 14.8981C53.8301 15.4536 53.3579 15.898 52.7691 16.2313C52.1913 16.5646 51.5469 16.7313 50.8359 16.7313H46.7862V21.0977H44.9863ZM46.7862 14.9981H50.7192C51.097 14.9981 51.4469 14.9092 51.7691 14.7314C52.0913 14.5426 52.3469 14.2981 52.5358 13.9981C52.7246 13.6982 52.8191 13.3704 52.8191 13.0149C52.8191 12.6705 52.7246 12.3594 52.5358 12.0816C52.3469 11.8039 52.0913 11.5816 51.7691 11.415C51.4469 11.2483 51.097 11.165 50.7192 11.165H46.7862V14.9981ZM62.1261 21.0977L67.3924 9.43179H69.4089L74.6419 21.0977H72.6754L69.209 13.4315C69.1423 13.2649 69.059 13.0649 68.959 12.8316C68.859 12.5871 68.7534 12.3371 68.6423 12.0816C68.5423 11.8261 68.4423 11.5705 68.3424 11.315C68.2535 11.0595 68.1757 10.8317 68.109 10.6317L68.5923 10.615C68.5035 10.8484 68.409 11.0928 68.309 11.3483C68.2201 11.6039 68.1257 11.8594 68.0257 12.1149C67.9257 12.3594 67.8257 12.5982 67.7257 12.8316C67.6257 13.0649 67.5313 13.2871 67.4424 13.4982L63.9927 21.0977H62.1261ZM64.426 18.2978L65.1259 16.5646H71.4588L71.9254 18.2978H64.426ZM83.9699 21.0977V9.43179H90.1195C90.7972 9.43179 91.4194 9.59289 91.986 9.9151C92.5527 10.2373 93.0082 10.6762 93.3526 11.2317C93.697 11.7761 93.8692 12.3871 93.8692 13.0649C93.8692 13.7426 93.6859 14.3648 93.3193 14.9314C92.9637 15.4869 92.486 15.9313 91.886 16.2647C91.2861 16.598 90.625 16.7646 89.9028 16.7646H85.7698V21.0977H83.9699ZM92.236 21.0977L88.6363 15.8314L90.5361 15.4147L94.4692 21.1143L92.236 21.0977ZM85.7698 15.0314H89.8528C90.2417 15.0314 90.5972 14.9425 90.9194 14.7648C91.2416 14.587 91.4972 14.3481 91.6861 14.0481C91.8749 13.7482 91.9694 13.4204 91.9694 13.0649C91.9694 12.6982 91.8694 12.376 91.6694 12.0983C91.4694 11.8094 91.1916 11.5816 90.8361 11.415C90.4917 11.2483 90.1084 11.165 89.6862 11.165H85.7698V15.0314ZM107.017 21.0977V11.165H103.017V9.43179H112.933V11.165H108.817V21.0977H107.017ZM131.516 21.0977V9.43179H133.316V21.0977H131.516ZM122.416 21.0977V9.43179H124.216V21.0977H122.416ZM123.2 16.198V14.4648H132.316V16.198H123.2Z" fill="#EEEEEF"/>
<path d="M25.6261 0H12.8125V12.8136H25.6261V0Z" fill="#EEEEEF"/>
<path d="M29.1495 16.2383H16.3359V29.0519H29.1495V16.2383Z" fill="#333333"/>
<path d="M12.8136 0H0V12.8136H12.8136V0Z" fill="#CCCCCC"/>
<path d="M12.8136 12.8125H0V25.6261H12.8136V12.8125Z" fill="#999999"/>
</svg>
