<svg width="101" height="36" viewBox="0 0 101 36" fill="none" xmlns="http://www.w3.org/2000/svg">
<path d="M44.8856 9.42074C44.8856 9.19385 44.9685 9.00622 45.1343 8.85787C45.3001 8.70079 45.5095 8.62225 45.7626 8.62225H49.4016C50.0299 8.62225 50.584 8.74879 51.064 9.00186C51.5527 9.2462 51.9279 9.59963 52.1897 10.0621C52.4602 10.5159 52.5955 11.0439 52.5955 11.646C52.5955 12.2569 52.4646 12.7936 52.2028 13.2561C51.941 13.7098 51.5701 14.0633 51.0902 14.3163C50.6102 14.5607 50.0474 14.6829 49.4016 14.6829H46.6396V16.6071C46.6396 17.0259 46.4869 17.3488 46.1815 17.5757C45.8848 17.7939 45.4528 17.903 44.8856 17.903V9.42074ZM49.4016 13.1644C49.8641 13.1644 50.2219 13.0292 50.475 12.7587C50.728 12.4881 50.8546 12.1129 50.8546 11.6329C50.8546 11.1617 50.7237 10.7952 50.4619 10.5334C50.2088 10.2716 49.8554 10.1407 49.4016 10.1407H46.6396V13.1644H49.4016ZM53.8593 9.80034C53.8593 9.38147 54.0076 9.06295 54.3044 8.84478C54.6011 8.61789 55.0374 8.50445 55.6133 8.50445V12.4052H59.5272V9.80034C59.5272 9.37274 59.6756 9.04986 59.9723 8.83169C60.2777 8.61353 60.714 8.50445 61.2812 8.50445V16.6071C61.2812 17.0259 61.1285 17.3488 60.8231 17.5757C60.5264 17.7939 60.0944 17.903 59.5272 17.903V13.9236H55.6133V16.6071C55.6133 17.0259 55.4606 17.3488 55.1552 17.5757C54.8585 17.7939 54.4265 17.903 53.8593 17.903V9.80034ZM65.4462 14.4996L62.213 8.6877C62.2915 8.63534 62.4181 8.59171 62.5926 8.55681C62.7671 8.5219 62.9242 8.50445 63.0638 8.50445C63.3867 8.50445 63.6572 8.5699 63.8754 8.70079C64.0936 8.83169 64.2768 9.03677 64.4252 9.31602L66.2839 12.811L65.9305 13.5571L66.0614 13.6095L68.2212 9.31602C68.4917 8.77497 68.9455 8.50445 69.5826 8.50445C69.7222 8.50445 69.8793 8.5219 70.0538 8.55681C70.2283 8.59171 70.3549 8.63534 70.4334 8.6877L67.2002 14.5127V16.6071C67.2002 17.0259 67.0475 17.3488 66.7421 17.5757C66.4454 17.7939 66.0134 17.903 65.4462 17.903V14.4996ZM74.5883 17.903C73.8029 17.903 73.1179 17.807 72.5332 17.615C71.9485 17.423 71.4991 17.1525 71.185 16.8034C70.8795 16.4456 70.7268 16.0311 70.7268 15.5599C70.7268 14.8443 71.2111 14.4865 72.1798 14.4865C72.2147 15.1497 72.4372 15.6515 72.8474 15.9918C73.2662 16.3322 73.8509 16.5024 74.6014 16.5024C75.221 16.5024 75.701 16.3976 76.0413 16.1882C76.3816 15.97 76.5518 15.669 76.5518 15.285C76.5518 15.0319 76.4863 14.8268 76.3554 14.6698C76.2245 14.504 76.002 14.36 75.6879 14.2378C75.3737 14.1069 74.9156 13.976 74.3134 13.8451C73.4582 13.6444 72.7819 13.4219 72.2845 13.1775C71.7958 12.9332 71.4424 12.6408 71.2242 12.3005C71.0061 11.9514 70.897 11.5195 70.897 11.0046C70.897 10.5072 71.041 10.0709 71.3289 9.69562C71.6256 9.32038 72.0402 9.02804 72.5725 8.8186C73.1135 8.60916 73.7331 8.50445 74.4312 8.50445C75.1032 8.50445 75.701 8.59607 76.2245 8.77933C76.7569 8.95386 77.1714 9.20257 77.4681 9.52545C77.7735 9.84834 77.9262 10.2192 77.9262 10.6381C77.9262 11.2839 77.4594 11.6198 76.5256 11.646C76.4733 11.0439 76.2813 10.6032 75.9497 10.3239C75.618 10.0447 75.1119 9.90506 74.4312 9.90506C73.8466 9.90506 73.3971 10.0011 73.083 10.193C72.7688 10.385 72.6117 10.6555 72.6117 11.0046C72.6117 11.249 72.6728 11.454 72.795 11.6198C72.9172 11.7769 73.1222 11.9165 73.4102 12.0387C73.6982 12.1522 74.1084 12.27 74.6407 12.3921C75.5395 12.5928 76.2507 12.8197 76.7743 13.0728C77.2979 13.3172 77.6775 13.6182 77.9131 13.976C78.1488 14.3251 78.2666 14.757 78.2666 15.2719C78.2666 15.8042 78.1138 16.2711 77.8084 16.6725C77.5117 17.0652 77.0841 17.3706 76.5256 17.5888C75.9758 17.7982 75.3301 17.903 74.5883 17.903ZM79.7895 9.81343C79.7895 9.40328 79.9422 9.08476 80.2476 8.85787C80.5531 8.62225 80.985 8.50445 81.5435 8.50445V16.594C81.5435 17.0129 81.3908 17.3357 81.0854 17.5626C80.78 17.7895 80.348 17.903 79.7895 17.903V9.81343ZM87.1069 17.903C86.3303 17.903 85.6365 17.7546 85.0256 17.4579C84.4235 17.1612 83.9523 16.7467 83.6119 16.2144C83.2716 15.6821 83.1014 15.0756 83.1014 14.3949V11.9863C83.1014 11.3057 83.2672 10.7035 83.5988 10.1799C83.9392 9.64763 84.406 9.23748 84.9995 8.9495C85.5929 8.6528 86.2735 8.50445 87.0415 8.50445C87.8094 8.50445 88.4901 8.62225 89.0835 8.85787C89.6856 9.08476 90.1525 9.40765 90.4841 9.82652C90.8157 10.2367 90.9815 10.7079 90.9815 11.2402C90.9815 11.5631 90.8724 11.8205 90.6543 12.0125C90.4448 12.1958 90.1612 12.2874 89.8034 12.2874C89.6289 12.2874 89.4369 12.2612 89.2275 12.2089C89.2449 11.9994 89.2537 11.7944 89.2537 11.5937C89.2537 11.1311 89.0486 10.7559 88.6384 10.4679C88.2283 10.1799 87.696 10.036 87.0415 10.036C86.3957 10.036 85.8678 10.2192 85.4576 10.5857C85.0562 10.9435 84.8555 11.4104 84.8555 11.9863V14.3949C84.8555 14.9796 85.0649 15.4552 85.4838 15.8217C85.9027 16.1882 86.4437 16.3715 87.1069 16.3715C87.7614 16.3715 88.2937 16.2275 88.7039 15.9395C89.114 15.6515 89.3191 15.2806 89.3191 14.8268C89.3191 14.6174 89.3104 14.4167 89.2929 14.2247C89.5111 14.1811 89.6944 14.1593 89.8427 14.1593C90.2092 14.1593 90.5016 14.2553 90.7197 14.4472C90.9379 14.6392 91.047 14.901 91.047 15.2326C91.047 15.7475 90.8812 16.21 90.5496 16.6202C90.2179 17.0216 89.7511 17.3357 89.1489 17.5626C88.5555 17.7895 87.8749 17.903 87.1069 17.903ZM95.9105 17.903C95.1251 17.903 94.44 17.807 93.8554 17.615C93.2707 17.423 92.8213 17.1525 92.5071 16.8034C92.2017 16.4456 92.049 16.0311 92.049 15.5599C92.049 14.8443 92.5333 14.4865 93.5019 14.4865C93.5368 15.1497 93.7594 15.6515 94.1695 15.9918C94.5884 16.3322 95.1731 16.5024 95.9236 16.5024C96.5431 16.5024 97.0231 16.3976 97.3634 16.1882C97.7038 15.97 97.8739 15.669 97.8739 15.285C97.8739 15.0319 97.8085 14.8268 97.6776 14.6698C97.5467 14.504 97.3242 14.36 97.01 14.2378C96.6959 14.1069 96.2377 13.976 95.6356 13.8451C94.7804 13.6444 94.1041 13.4219 93.6066 13.1775C93.118 12.9332 92.7645 12.6408 92.5464 12.3005C92.3282 11.9514 92.2191 11.5195 92.2191 11.0046C92.2191 10.5072 92.3631 10.0709 92.6511 9.69562C92.9478 9.32038 93.3623 9.02804 93.8946 8.8186C94.4357 8.60916 95.0553 8.50445 95.7534 8.50445C96.4253 8.50445 97.0231 8.59607 97.5467 8.77933C98.079 8.95386 98.4935 9.20257 98.7902 9.52545C99.0957 9.84834 99.2484 10.2192 99.2484 10.6381C99.2484 11.2839 98.7815 11.6198 97.8478 11.646C97.7954 11.0439 97.6034 10.6032 97.2718 10.3239C96.9402 10.0447 96.4341 9.90506 95.7534 9.90506C95.1687 9.90506 94.7193 10.0011 94.4051 10.193C94.091 10.385 93.9339 10.6555 93.9339 11.0046C93.9339 11.249 93.995 11.454 94.1172 11.6198C94.2393 11.7769 94.4444 11.9165 94.7324 12.0387C95.0204 12.1522 95.4305 12.27 95.9628 12.3921C96.8617 12.5928 97.5729 12.8197 98.0965 13.0728C98.6201 13.3172 98.9997 13.6182 99.2353 13.976C99.4709 14.3251 99.5887 14.757 99.5887 15.2719C99.5887 15.8042 99.436 16.2711 99.1306 16.6725C98.8339 17.0652 98.4063 17.3706 97.8478 17.5888C97.298 17.7982 96.6522 17.903 95.9105 17.903ZM48.3151 32.903C47.8788 32.903 47.5166 32.807 47.2287 32.615C46.9494 32.4143 46.7618 32.1307 46.6658 31.7641L44.6107 23.7008C44.8201 23.5699 45.0907 23.5044 45.4223 23.5044C45.7452 23.5044 46.0113 23.583 46.2207 23.7401C46.4302 23.8884 46.5698 24.1022 46.6396 24.3815L47.7392 29.3425L47.4774 30.3504L47.5952 30.3897L49.3754 24.0935C49.4278 23.9102 49.5194 23.7662 49.6503 23.6615C49.7899 23.5568 49.9557 23.5044 50.1477 23.5044C50.3397 23.5044 50.5055 23.5568 50.6451 23.6615C50.7847 23.7662 50.8807 23.9102 50.9331 24.0935L52.3599 29.4603L52.1112 30.5206L52.2552 30.5599L53.6689 24.3815C53.73 24.1022 53.8609 23.8884 54.0616 23.7401C54.271 23.583 54.5415 23.5044 54.8731 23.5044C55.196 23.5044 55.4709 23.5699 55.6978 23.7008L53.6296 31.7641C53.5336 32.1307 53.3416 32.4143 53.0537 32.615C52.7744 32.807 52.4166 32.903 51.9803 32.903L49.9906 25.625L49.8728 25.6643L50.0823 26.4366L48.3151 32.903ZM56.77 32.903C56.3948 32.8593 56.0981 32.7284 55.8799 32.5103C55.6705 32.2921 55.5658 32.0172 55.5658 31.6856C55.5658 31.4325 55.6269 31.1707 55.749 30.9002L58.7466 24.0804C58.9124 23.6964 59.2004 23.5044 59.6105 23.5044C60.012 23.5044 60.2956 23.6964 60.4614 24.0804L63.459 30.9002C63.5811 31.1882 63.6422 31.45 63.6422 31.6856C63.6422 32.0172 63.5331 32.2921 63.315 32.5103C63.1055 32.7284 62.8088 32.8593 62.4249 32.903L61.3253 30.4159H57.8827L56.77 32.903ZM60.7886 28.9236L59.3488 25.337L59.1917 25.4025L59.5058 26.214L58.4063 28.9236H60.7886ZM65.8329 32.7852C65.5799 32.7852 65.3617 32.6935 65.1784 32.5103C65.0039 32.327 64.9166 32.1088 64.9166 31.8558V24.8003C64.9166 24.364 65.0606 24.0411 65.3486 23.8317C65.6366 23.6135 66.0773 23.5044 66.6707 23.5044V31.2667H70.2049C70.6151 31.2667 70.9249 31.3976 71.1343 31.6594C71.3438 31.9125 71.4485 32.2877 71.4485 32.7852H65.8329ZM73.5028 32.7852C73.2497 32.7852 73.0315 32.6935 72.8483 32.5103C72.6738 32.327 72.5865 32.1088 72.5865 31.8558V24.8003C72.5865 24.364 72.7305 24.0411 73.0185 23.8317C73.3064 23.6135 73.7471 23.5044 74.3405 23.5044V31.2667H77.8748C78.2849 31.2667 78.5947 31.3976 78.8042 31.6594C79.0136 31.9125 79.1183 32.2877 79.1183 32.7852H73.5028ZM80.8533 32.903C80.4781 32.8593 80.1814 32.7284 79.9632 32.5103C79.7538 32.2921 79.6491 32.0172 79.6491 31.6856C79.6491 31.4325 79.7102 31.1707 79.8323 30.9002L82.8299 24.0804C82.9957 23.6964 83.2837 23.5044 83.6938 23.5044C84.0953 23.5044 84.3789 23.6964 84.5447 24.0804L87.5423 30.9002C87.6644 31.1882 87.7255 31.45 87.7255 31.6856C87.7255 32.0172 87.6164 32.2921 87.3983 32.5103C87.1888 32.7284 86.8921 32.8593 86.5082 32.903L85.4086 30.4159H81.966L80.8533 32.903ZM84.8719 28.9236L83.432 25.337L83.275 25.4025L83.5891 26.214L82.4896 28.9236H84.8719ZM88.9999 24.8003C88.9999 24.3815 89.1483 24.0629 89.445 23.8448C89.7417 23.6179 90.178 23.5044 90.754 23.5044V27.4052H94.6678V24.8003C94.6678 24.3727 94.8162 24.0499 95.1129 23.8317C95.4183 23.6135 95.8547 23.5044 96.4219 23.5044V31.6071C96.4219 32.0259 96.2692 32.3488 95.9637 32.5757C95.667 32.7939 95.2351 32.903 94.6678 32.903V28.9236H90.754V31.6071C90.754 32.0259 90.6013 32.3488 90.2958 32.5757C89.9991 32.7939 89.5672 32.903 88.9999 32.903V24.8003Z" fill="white"/>
<g clip-path="url(#clip0_581_2148)">
<path d="M18.6993 28.2564C18.6311 28.1443 18.5713 28.0753 18.5415 27.9976C18.3025 27.3895 18.0678 26.7813 17.8417 26.1732C17.5857 25.4874 17.3382 24.8016 17.0864 24.1158C16.7536 23.2143 16.4037 22.3215 16.0837 21.4157C15.8746 20.8205 15.6912 20.2166 15.5119 19.6128C15.4053 19.2591 15.5802 18.914 15.9258 18.7717C16.0965 18.7027 16.2757 18.6596 16.4549 18.6078C16.5531 18.5776 16.7024 18.5819 16.6939 18.4439C16.6854 18.2843 16.5317 18.3145 16.4251 18.3145C15.3242 18.3188 14.2233 18.3231 13.1182 18.3318C13.0115 18.3318 12.9049 18.3318 12.7982 18.3361C12.1539 18.3663 11.7059 17.9608 11.6888 17.2966C11.6632 16.2614 11.6589 15.2262 11.6419 14.1911C11.6419 14.0703 11.6376 13.9452 11.6376 13.8244C11.6376 13.5872 11.6931 13.5312 11.9235 13.5268C12.3288 13.5182 12.7342 13.5139 13.1395 13.4966C13.9289 13.4621 14.7183 13.4018 15.4821 13.1904C16.3397 12.9489 17.112 12.5391 17.671 11.8145C18.3367 10.9519 18.5415 9.99001 18.2982 8.91171C18.0593 7.85066 17.415 7.12172 16.5147 6.61708C15.9429 6.29359 15.3114 6.12537 14.6458 6.06499C13.5748 5.9701 12.4995 5.96578 11.4285 5.98735C10.3916 6.00892 9.35478 6.02186 8.31365 6.0348C8.24538 6.0348 8.18138 6.01754 8.11311 6.0046C8.08751 5.82776 8.19845 5.75875 8.29659 5.69837C8.89822 5.33174 9.49132 4.94355 10.1143 4.62006C10.6818 4.32676 11.2792 4.09385 11.8723 3.85663C12.2734 3.69704 12.6872 3.56764 13.1054 3.43824C14.1167 3.13201 15.1578 2.97673 16.2075 2.87753C17.4107 2.76538 18.6055 2.81283 19.8002 2.97673C20.6067 3.08887 21.4003 3.24415 22.1769 3.48569C22.7102 3.64959 23.2393 3.84369 23.7556 4.05935C24.2933 4.28363 24.8224 4.52949 25.3387 4.7969C25.7526 5.01256 26.1536 5.26704 26.5419 5.53015C27.6513 6.26771 28.6455 7.1476 29.533 8.14395C30.0493 8.72624 30.54 9.33871 30.9326 10.0116C31.2953 10.6327 31.6665 11.2581 31.9695 11.9137C32.2383 12.496 32.4516 13.1128 32.6351 13.7252C32.81 14.3162 32.9338 14.9243 33.0533 15.5282C33.1173 15.856 33.1301 16.1967 33.1599 16.5331C33.2709 17.6675 33.2282 18.8062 33.0703 19.932C32.9978 20.4538 32.8612 20.9714 32.7247 21.4847C32.5796 22.0152 32.4132 22.5458 32.2255 23.0633C32.0889 23.4472 31.9097 23.8182 31.7305 24.1848C31.3764 24.9008 30.9582 25.5736 30.4974 26.2206C29.8872 27.0746 29.2045 27.8639 28.4237 28.5584C28.0524 28.8905 27.6769 29.2226 27.2801 29.5245C26.5803 30.0507 25.8464 30.5338 25.0613 30.9263C24.9845 30.9651 24.9205 31.0255 24.8437 31.06C24.7797 31.0859 24.7029 31.0859 24.6304 31.0945C24.6218 31.0212 24.592 30.9393 24.6133 30.8789C24.7712 30.5079 24.9461 30.1499 25.104 29.779C25.2149 29.5159 25.3173 29.2485 25.4112 28.9767C25.7824 27.8898 26.1494 26.8029 26.5206 25.716C26.8748 24.6765 27.2289 23.637 27.5831 22.5975C27.7623 22.0627 27.9202 21.5149 28.1164 20.9844C28.3468 20.3546 28.5815 19.7206 29.0296 19.1944C29.2941 18.8882 29.6227 18.7113 29.9939 18.5949C30.0877 18.5647 30.22 18.5647 30.203 18.431C30.1859 18.2886 30.0493 18.3059 29.9427 18.3059C28.8461 18.3059 27.7537 18.3102 26.6571 18.3102C26.6486 18.3102 26.6401 18.3059 26.6358 18.3102C26.559 18.3447 26.4225 18.3663 26.4139 18.4137C26.3883 18.5431 26.5163 18.5604 26.6102 18.5862C26.9174 18.6682 27.2374 18.7199 27.5063 18.914C27.7495 19.0909 27.8604 19.3065 27.8604 19.6257C27.8604 20.1821 27.7111 20.7083 27.5532 21.2259C27.2929 22.0972 27.007 22.9641 26.7211 23.8311C26.4609 24.6204 26.192 25.4097 25.9318 26.199C25.7483 26.7511 25.5691 27.3032 25.3813 27.851C25.3557 27.9286 25.2789 27.989 25.2277 28.058C25.1723 27.9933 25.0869 27.9373 25.057 27.8596C24.7626 27.0531 24.4767 26.2422 24.1951 25.4313C24.0159 24.918 23.841 24.4004 23.6618 23.8872C23.4911 23.4084 23.3119 22.9296 23.1455 22.4509C22.9492 21.8901 22.7657 21.3251 22.578 20.7601C22.4798 20.4625 22.4073 20.1519 22.2836 19.8629C22.0275 19.2634 22.2836 18.9744 22.8468 18.7501C23.0473 18.6682 23.2735 18.6509 23.4911 18.6035C23.5935 18.5819 23.7386 18.5733 23.73 18.4396C23.7215 18.2843 23.5679 18.3059 23.4612 18.3059C22.5865 18.3145 21.7118 18.3318 20.8413 18.3361C20.1586 18.3361 19.4759 18.3188 18.7932 18.3102C18.6865 18.3102 18.5799 18.3016 18.4732 18.3188C18.422 18.3274 18.3793 18.3878 18.3324 18.4266C18.3751 18.4741 18.4092 18.5474 18.4647 18.5647C18.6695 18.6294 18.8785 18.6682 19.0834 18.7243C19.4887 18.8407 19.7959 19.1038 19.9623 19.4834C20.2738 20.1821 20.5597 20.8938 20.8371 21.6098C20.8883 21.7392 20.8968 21.916 20.8541 22.0454C20.5853 22.8865 20.3037 23.7233 20.0221 24.5557C19.7831 25.2544 19.5357 25.9532 19.2967 26.6519C19.1346 27.1178 18.981 27.5879 18.8188 28.058C18.8103 28.1141 18.7633 28.1615 18.6993 28.2564Z" fill="white"/>
<path d="M21.2429 22.5963C21.324 22.8162 21.4051 23.0362 21.4819 23.2562C21.5928 23.5667 21.6995 23.8773 21.8062 24.1921C21.9854 24.7054 22.1689 25.2187 22.3481 25.7363C22.5401 26.2841 22.7236 26.8361 22.9113 27.3839C23.099 27.9274 23.2868 28.4665 23.4831 29.0057C23.6665 29.519 23.8543 30.0279 24.0463 30.5369C24.1231 30.7396 24.2084 30.9337 24.2895 31.1321C24.3407 31.2572 24.2724 31.3262 24.17 31.365C23.5428 31.5979 22.9198 31.8395 22.2883 32.0551C21.4221 32.3484 20.5261 32.5166 19.6258 32.6288C18.9943 32.7064 18.35 32.728 17.7099 32.7366C17.1083 32.7452 16.4981 32.7323 15.9007 32.6676C15.2394 32.5986 14.578 32.4821 13.9252 32.3355C13.2979 32.1931 12.675 32.0034 12.0605 31.7963C11.5954 31.6411 11.1431 31.447 10.7036 31.2313C10.1063 30.938 9.5089 30.6318 8.93713 30.2824C7.62292 29.4715 6.46659 28.4708 5.45959 27.2933C4.84516 26.5773 4.27766 25.8182 3.8211 24.9901C3.53948 24.4768 3.28346 23.9463 3.04878 23.4071C2.8397 22.937 2.65196 22.4539 2.49835 21.9622C2.34901 21.4705 2.25087 20.9616 2.13566 20.4569C1.93512 19.5641 1.87111 18.6497 1.87965 17.7396C1.88818 16.864 1.93085 15.9884 2.13993 15.1301C2.2466 14.6901 2.31061 14.2416 2.43861 13.8103C2.58796 13.3013 2.7629 12.7967 2.96771 12.3136C3.19813 11.7658 3.45841 11.231 3.74002 10.7091C3.95337 10.3122 4.20512 9.93699 4.45687 9.56606C5.07557 8.66891 5.77534 7.8494 6.56899 7.11184C6.89328 6.80992 7.23463 6.52956 7.57172 6.24057C7.69546 6.13274 7.79787 6.14137 7.95574 6.21901C8.12215 6.30527 8.3355 6.32253 8.52751 6.3484C8.80059 6.38722 9.05234 6.46917 9.26569 6.65464C9.4961 6.85305 9.60704 7.11616 9.61984 7.41377C9.64971 8.12545 9.67104 8.83713 9.67531 9.5488C9.67958 11.2957 9.67958 13.0425 9.66678 14.7894C9.66251 15.5744 9.64117 16.355 9.59851 17.1401C9.5857 17.3859 9.52597 17.6447 9.42783 17.869C9.26995 18.2184 8.94567 18.3779 8.59151 18.4728C8.45497 18.5073 8.31416 18.5289 8.17335 18.5591C8.07095 18.5807 7.96428 18.6152 7.98561 18.7446C8.00268 18.8653 8.10935 18.8653 8.20322 18.8653C8.77926 18.8567 9.35529 18.8395 9.93133 18.8351C10.7719 18.8308 11.6082 18.8351 12.4488 18.8308C12.7987 18.8308 12.9907 19.0594 13.1486 19.3225C13.4558 19.8358 13.6521 20.3965 13.8526 20.9572C14.0105 21.3972 14.1854 21.8285 14.3476 22.2641C14.4756 22.6006 14.5951 22.937 14.7231 23.2734C14.8255 23.5408 14.9279 23.8083 15.0303 24.0757C15.1284 24.3388 15.2308 24.5976 15.329 24.8607C15.6149 25.6241 15.905 26.3876 16.1909 27.1553C16.4384 27.8282 16.6773 28.5054 16.9248 29.1739C17.1083 29.6699 17.3088 30.1616 17.5008 30.6576C17.5392 30.7568 17.5648 30.8647 17.599 30.9639C17.6374 31.0803 17.6971 31.1795 17.8294 31.1925C17.9702 31.2054 17.9958 31.0847 18.0385 30.9854C18.2262 30.5671 18.4225 30.153 18.6017 29.7346C18.7212 29.4586 18.8108 29.1696 18.9132 28.8892C19.0839 28.4148 19.2545 27.9446 19.421 27.4702C19.6983 26.6766 19.9714 25.8829 20.2487 25.0893C20.5133 24.3215 20.7778 23.5581 21.0467 22.7904C21.0723 22.717 21.1277 22.6523 21.1704 22.5876C21.1917 22.5919 21.2173 22.5919 21.2429 22.5963Z" fill="white"/>
<path d="M17.5404 35.5561C16.4267 35.6165 15.3216 35.4784 14.2293 35.293C13.5167 35.1722 12.8127 34.9781 12.1172 34.784C11.5625 34.6287 11.0163 34.4476 10.4829 34.2362C9.90262 34.0033 9.33085 33.7445 8.77188 33.4599C8.22145 33.1795 7.68809 32.8603 7.16326 32.5368C6.44641 32.0969 5.77651 31.5879 5.13647 31.0402C4.42816 30.4363 3.75825 29.7893 3.16515 29.0733C2.67019 28.4738 2.20083 27.8484 1.76987 27.2014C1.39438 26.6364 1.06583 26.0368 0.745808 25.4373C0.532462 25.0319 0.374586 24.6005 0.186841 24.1822C0.148439 24.0959 0.101503 24.0183 0.0545669 23.9363C-0.0649069 23.725 0.0161646 23.5826 0.255112 23.5826C0.583665 23.5826 0.907951 23.5912 1.2365 23.5826C1.44985 23.574 1.58639 23.6603 1.67173 23.8543C1.82961 24.208 1.97895 24.566 2.16669 24.9025C2.47391 25.4589 2.78113 26.0196 3.12675 26.5501C3.72412 27.4731 4.42389 28.3185 5.21327 29.0733C5.72957 29.565 6.27147 30.0309 6.8219 30.4838C7.53874 31.0747 8.32386 31.575 9.14737 32.002C9.84715 32.3643 10.5768 32.6749 11.3022 32.9811C12.2025 33.3607 13.1455 33.6151 14.1055 33.7963C14.8394 33.9343 15.5819 34.0292 16.3243 34.0896C17.5191 34.1802 18.7095 34.1413 19.9 33.9818C20.8686 33.8524 21.8201 33.641 22.7503 33.3477C23.5994 33.0803 24.4229 32.7482 25.2251 32.3643C26.2151 31.8942 27.141 31.3291 28.02 30.6778C29.0099 29.9446 29.9059 29.1121 30.7209 28.1805C31.361 27.4473 31.9455 26.6666 32.4277 25.8212C32.7946 25.1828 33.0933 24.5056 33.4133 23.8457C33.4902 23.6818 33.6054 23.5956 33.776 23.5956C34.1387 23.5912 34.5014 23.5869 34.8641 23.5956C35.0561 23.5999 35.1244 23.725 35.0433 23.9061C34.8385 24.3633 34.6593 24.8334 34.4246 25.2734C34.0619 25.9549 33.6992 26.645 33.2725 27.2833C32.8117 27.9691 32.2997 28.6291 31.7663 29.2588C31.1732 29.9575 30.5161 30.5959 29.7993 31.1652C29.2488 31.6052 28.6813 32.0279 28.1053 32.429C27.7127 32.7007 27.2946 32.938 26.8764 33.1623C26.3815 33.4297 25.8822 33.6885 25.3702 33.9171C24.8838 34.137 24.3888 34.3354 23.8811 34.5037C23.2197 34.7236 22.554 34.9307 21.8756 35.0859C21.2185 35.2369 20.5486 35.349 19.8787 35.4267C19.1021 35.5173 18.3213 35.5561 17.5447 35.6165C17.5447 35.5906 17.5447 35.5733 17.5404 35.5561Z" fill="white"/>
<path d="M33.8933 11.0081C33.7141 11.0081 33.5391 11.0037 33.3599 11.0081C33.1722 11.0124 33.0612 10.9175 32.9716 10.7579C32.6474 10.1756 32.3401 9.5847 31.9774 9.02829C31.4484 8.21741 30.8339 7.47554 30.1683 6.77249C29.3917 5.95729 28.5468 5.21973 27.6167 4.59432C26.9724 4.163 26.3067 3.76618 25.624 3.39524C24.5146 2.79139 23.3327 2.3687 22.1123 2.03227C20.2861 1.53194 18.4214 1.34216 16.5397 1.44999C14.8714 1.54488 13.2414 1.86837 11.6626 2.4334C10.5916 2.82159 9.55478 3.29173 8.57339 3.87401C7.45546 4.53824 6.4186 5.31031 5.47134 6.21608C4.77157 6.88463 4.12726 7.60062 3.5555 8.38131C3.20134 8.86439 2.89412 9.38198 2.57837 9.89525C2.40769 10.1799 2.25835 10.4818 2.10048 10.7751C2.01514 10.9347 1.8914 11.0167 1.70365 11.0124C1.3623 11.0037 1.02094 11.0124 0.679591 11.0124C0.415042 11.0124 0.351039 10.8916 0.474779 10.6587C0.692392 10.2489 0.88867 9.82192 1.11908 9.4208C1.4007 8.9334 1.69512 8.44601 2.01087 7.98018C2.57837 7.14342 3.22694 6.36704 3.93098 5.64674C4.74597 4.80998 5.63349 4.06379 6.59354 3.39956C7.44693 2.80865 8.33871 2.29969 9.27317 1.85112C10.5831 1.22139 11.9443 0.759874 13.3609 0.449323C14.3124 0.242289 15.2725 0.0827006 16.2496 0.0525082C16.4928 0.0438818 16.7317 0.0180025 16.975 0.0093761C18.2124 -0.0294428 19.4412 0.0525082 20.6701 0.250916C21.8563 0.44501 23.0041 0.742621 24.1349 1.14806C25.1376 1.50606 26.0934 1.95463 27.0193 2.47222C27.7745 2.89491 28.4956 3.36074 29.1741 3.89126C30.1896 4.68489 31.1326 5.55185 31.9646 6.54389C32.609 7.31164 33.2021 8.11821 33.7098 8.98516C33.9914 9.46393 34.2304 9.96857 34.4907 10.4646C34.5376 10.5509 34.6016 10.6328 34.64 10.7234C34.7211 10.8959 34.6528 11.0081 34.4651 11.0081C34.2773 11.0124 34.0853 11.0081 33.8933 11.0081Z" fill="white"/>
<path d="M11.6211 9.94771C11.6467 8.98586 11.668 8.02401 11.7022 7.06217C11.7064 6.89827 11.7491 6.73436 11.779 6.57478C11.8088 6.42381 11.907 6.33324 12.0606 6.32461C12.85 6.28579 13.6479 6.24266 14.3989 6.53596C14.9536 6.75162 15.4272 7.10961 15.7856 7.60132C16.4811 8.55023 16.6134 9.5854 16.2934 10.7025C16.0459 11.5695 15.5168 12.2121 14.7573 12.6607C14.3263 12.9152 13.8442 13.0705 13.3492 13.1179C12.867 13.1654 12.3849 13.1697 11.9027 13.1826C11.6851 13.1912 11.6339 13.1265 11.6339 12.9195C11.6339 11.9275 11.6339 10.9354 11.6339 9.94339C11.6296 9.94771 11.6254 9.94771 11.6211 9.94771Z" fill="white"/>
</g>
<defs>
<clipPath id="clip0_581_2148">
<rect width="35.0784" height="35.6098" fill="white"/>
</clipPath>
</defs>
</svg>
