<svg width="157" height="24" viewBox="0 0 157 24" fill="none" xmlns="http://www.w3.org/2000/svg">
<path fill-rule="evenodd" clip-rule="evenodd" d="M23.0981 13.7479C23.1476 13.3152 23.1736 12.875 23.1736 12.4287C23.1724 6.13032 18.0726 1.02344 11.7802 1.02344C11.7678 1.02344 11.7554 1.02344 11.743 1.02344L23.0981 13.7479ZM21.8869 17.6992L11.743 6.33118L1.64495 17.6459C2.15147 18.6304 2.79668 19.5317 3.55583 20.3227L11.7418 11.1492L19.9636 20.3636C20.7253 19.5764 21.3742 18.6799 21.8857 17.6992H21.8869ZM0.453593 13.6735C0.40901 13.2643 0.386719 12.849 0.386719 12.4287C0.386719 6.14272 5.46795 1.04327 11.7418 1.02344L0.453593 13.6735Z" fill="white"/>
<path d="M11.5176 22.4057C12.93 22.4057 14.075 21.2594 14.075 19.8454C14.075 18.4314 12.93 17.2851 11.5176 17.2851C10.1052 17.2851 8.96029 18.4314 8.96029 19.8454C8.96029 21.2594 10.1052 22.4057 11.5176 22.4057Z" fill="white"/>
<path d="M31.8885 18.8652V4.15499H38.1242C39.3802 4.15499 40.3978 4.33666 41.1753 4.70179C41.967 5.05445 42.5434 5.54425 42.9081 6.17299C43.2852 6.78925 43.4738 7.50526 43.4738 8.32279C43.4738 9.25253 43.2283 10.0576 42.7391 10.7362C42.2498 11.4148 41.5275 11.8993 40.5722 12.1878L43.8688 18.7512V18.8634H40.5152L37.5193 12.6402H35.0143V18.8634H31.8867L31.8885 18.8652ZM35.0161 10.3408H37.6723C38.4889 10.3408 39.1222 10.2019 39.5759 9.92579C40.0402 9.64971 40.2733 9.15279 40.2733 8.435C40.2733 7.71721 40.042 7.20959 39.5759 6.94421C39.1115 6.66813 38.4764 6.52921 37.6723 6.52921H35.0161V10.339V10.3408ZM50.3339 19.1484C48.5513 19.1484 47.1885 18.614 46.2456 17.5454C45.317 16.4767 44.8508 15.0251 44.8508 13.1888C44.8508 11.9563 45.059 10.9001 45.4717 10.0202C45.8987 9.14032 46.5143 8.46171 47.3184 7.98259C48.135 7.50526 49.1277 7.26659 50.2948 7.26659C51.9778 7.26659 53.2641 7.77599 54.1572 8.79478C55.0609 9.81358 55.5128 11.3097 55.5128 13.2832V13.9244H47.8272C47.8895 14.8808 48.135 15.6342 48.562 16.1882C49.0014 16.7296 49.5921 16.9986 50.3322 16.9986C50.9228 16.9986 51.3925 16.8222 51.7447 16.4714C52.1095 16.1187 52.3479 15.7108 52.4599 15.246H55.3616C55.2495 15.937 54.9969 16.5782 54.6073 17.1696C54.2177 17.7609 53.6715 18.2382 52.9687 18.6034C52.266 18.9685 51.3872 19.1502 50.3322 19.1502L50.3339 19.1484ZM47.829 12.0008H52.5382C52.4884 11.1458 52.2749 10.4851 51.8977 10.0202C51.5206 9.54285 50.9815 9.30418 50.277 9.30418C49.5725 9.30418 49.0281 9.53038 48.6011 9.98278C48.1866 10.4227 47.9286 11.096 47.829 12.0008ZM57.4823 18.8652V7.54978H60.5334V18.8652H57.4823ZM59.0087 6.24779C58.4696 6.24779 58.0605 6.10887 57.7847 5.83279C57.5089 5.54425 57.3702 5.172 57.3702 4.7196C57.3702 4.2672 57.5089 3.90207 57.7847 3.626C58.0605 3.33746 58.4696 3.19141 59.0087 3.19141C59.5478 3.19141 59.957 3.33568 60.2327 3.626C60.5085 3.90207 60.6472 4.2672 60.6472 4.7196C60.6472 5.172 60.5085 5.54247 60.2327 5.83279C59.957 6.10887 59.5478 6.24779 59.0087 6.24779ZM67.1017 19.0914C66.0716 19.0914 65.2248 18.8402 64.5576 18.3362C63.8923 17.8215 63.3959 17.1161 63.0686 16.2238C62.743 15.3315 62.5793 14.3198 62.5793 13.187C62.5793 12.0542 62.743 10.9927 63.0686 10.1128C63.4084 9.23294 63.9101 8.54721 64.5754 8.0574C65.2533 7.5676 66.0948 7.3218 67.0999 7.3218C67.8418 7.3218 68.4431 7.4536 68.9093 7.71721C69.386 7.98081 69.7632 8.33882 70.039 8.793H70.4909V3.77561H73.542V18.8634H70.7168V17.3922H70.2649C70.0016 17.8695 69.6173 18.2721 69.1156 18.5998C68.6139 18.9257 67.9414 19.0896 67.0999 19.0896L67.1017 19.0914ZM67.9681 16.9416C68.7349 16.9416 69.3434 16.6085 69.7952 15.9424C70.2596 15.2638 70.4926 14.3518 70.4926 13.2084C70.4926 12.0649 70.2596 11.1405 69.7952 10.4744C69.3434 9.80823 68.7349 9.47517 67.9681 9.47517C67.2778 9.47517 66.7317 9.78864 66.3296 10.4174C65.94 11.0336 65.7461 11.9634 65.7461 13.2084C65.7461 14.4534 65.94 15.3902 66.3296 16.019C66.7317 16.6352 67.2778 16.9434 67.9681 16.9434V16.9416ZM76.3369 18.8652V7.54978H79.388V18.8652H76.3369ZM77.8633 6.24779C77.3225 6.24779 76.9151 6.10887 76.6393 5.83279C76.3636 5.54425 76.2248 5.172 76.2248 4.7196C76.2248 4.2672 76.3636 3.90207 76.6393 3.626C76.9151 3.33746 77.3243 3.19141 77.8633 3.19141C78.4024 3.19141 78.8116 3.33568 79.0873 3.626C79.3631 3.90207 79.5019 4.2672 79.5019 4.7196C79.5019 5.172 79.3631 5.54247 79.0873 5.83279C78.8116 6.10887 78.4024 6.24779 77.8633 6.24779ZM85.8425 19.1484C84.5865 19.1484 83.6382 18.753 82.9978 17.9604C82.3573 17.1678 82.037 16.0938 82.037 14.7348V7.54978H85.0882V14.2254C85.0882 14.993 85.2269 15.5897 85.5027 16.0172C85.7784 16.4447 86.225 16.6584 86.8405 16.6584C87.5806 16.6584 88.1535 16.3698 88.5556 15.791C88.9577 15.2121 89.1587 14.5015 89.1587 13.659V7.548H92.2098V18.8634H89.4593V17.166H89.0075C88.8189 17.7324 88.4737 18.2026 87.972 18.5802C87.4703 18.9578 86.7605 19.1466 85.8425 19.1466V19.1484ZM99.2122 19.1484C97.9562 19.1484 96.951 18.9542 96.1985 18.5642C95.4584 18.1616 94.9104 17.6594 94.56 17.0556C94.2202 16.4518 94.0262 15.848 93.9764 15.2442H96.8781C96.9404 15.5701 97.072 15.8729 97.273 16.149C97.4865 16.4126 97.7623 16.621 98.1021 16.7724C98.4543 16.9238 98.8742 16.9986 99.3635 16.9986C99.9666 16.9986 100.399 16.8988 100.664 16.6976C100.927 16.4838 101.059 16.2131 101.059 15.8872C101.059 15.5862 100.933 15.3332 100.682 15.132C100.443 14.9182 100.047 14.7241 99.4951 14.5478L98.1395 14.0954C97.4865 13.8692 96.8834 13.6234 96.3301 13.3598C95.7768 13.0837 95.3321 12.731 94.9923 12.3036C94.6649 11.8761 94.503 11.3222 94.503 10.6436C94.503 9.63725 94.8855 8.82684 95.6523 8.21058C96.4191 7.58184 97.5043 7.26837 98.9116 7.26837C99.9292 7.26837 100.758 7.42511 101.399 7.74036C102.052 8.05384 102.541 8.47596 102.868 9.00317C103.196 9.51791 103.382 10.0914 103.434 10.7202H100.646C100.584 10.2678 100.395 9.92222 100.08 9.68356C99.7673 9.43242 99.3403 9.30596 98.7995 9.30596C98.3102 9.30596 97.9384 9.40036 97.6876 9.58916C97.4492 9.77795 97.33 10.0362 97.33 10.3622C97.33 10.6881 97.4616 10.9588 97.7249 11.1726C97.9882 11.3863 98.3903 11.5804 98.9311 11.7568L100.287 12.1914C100.94 12.3926 101.536 12.6313 102.077 12.9074C102.63 13.171 103.069 13.5236 103.395 13.9636C103.722 14.391 103.884 14.9503 103.884 15.6414C103.884 16.6976 103.482 17.5454 102.678 18.1866C101.886 18.8278 100.732 19.1484 99.2122 19.1484ZM110.285 18.8652V4.15499H113.45V18.8652H110.285ZM116.274 18.8652V7.54978H119.099V9.24718H119.551C119.777 8.68079 120.122 8.21058 120.586 7.83298C121.063 7.45539 121.76 7.26659 122.676 7.26659C123.932 7.26659 124.874 7.662 125.502 8.45459C126.13 9.24718 126.443 10.3212 126.443 11.6802V18.8652H123.392V12.1896C123.392 11.4095 123.253 10.8128 122.977 10.3978C122.701 9.97031 122.249 9.75658 121.621 9.75658C120.892 9.75658 120.328 10.0451 119.926 10.624C119.524 11.1904 119.323 11.901 119.323 12.756V18.867H116.272L116.274 18.8652ZM129.832 18.8652V9.69959H128.25V7.54978H129.832V6.87118C129.832 6.21751 129.946 5.65825 130.172 5.19338C130.41 4.72851 130.8 4.3705 131.341 4.11758C131.894 3.86645 132.641 3.73999 133.582 3.73999C133.947 3.73999 134.304 3.75958 134.657 3.79698V5.87198C134.468 5.83458 134.249 5.81498 133.997 5.81498C133.57 5.81498 133.262 5.90938 133.073 6.09818C132.897 6.27451 132.81 6.57017 132.81 6.98517V7.55157H134.657V9.70137H132.81V18.867H129.834L129.832 18.8652ZM136.569 18.8652V7.54978H139.357V9.62478H139.809C139.884 9.24718 140.022 8.89631 140.223 8.56858C140.437 8.22839 140.757 7.95944 141.184 7.75817C141.611 7.54444 142.182 7.43757 142.899 7.43757H143.502V10.1912H142.673C141.606 10.1912 140.827 10.4619 140.337 11.0016C139.861 11.543 139.622 12.3534 139.622 13.4346V18.867H136.571L136.569 18.8652ZM148.927 19.0914C147.872 19.0914 147.005 18.8402 146.327 18.3362C145.65 17.8215 145.146 17.1161 144.821 16.2238C144.493 15.3315 144.331 14.3198 144.331 13.187C144.331 12.0542 144.495 10.9927 144.821 10.1128C145.16 9.23294 145.669 8.54721 146.347 8.0574C147.025 7.5676 147.879 7.3218 148.909 7.3218C149.701 7.3218 150.346 7.47854 150.85 7.7938C151.366 8.0948 151.754 8.50446 152.019 9.0192H152.471V7.548H155.296V18.8634H152.471V17.3922H152.019C151.755 17.8695 151.371 18.2721 150.869 18.5998C150.368 18.9257 149.72 19.0896 148.928 19.0896L148.927 19.0914ZM149.718 16.9416C150.485 16.9416 151.094 16.6085 151.545 15.9424C152.01 15.2638 152.243 14.3518 152.243 13.2084C152.243 12.0649 152.01 11.1405 151.545 10.4744C151.094 9.80823 150.483 9.47517 149.718 9.47517C149.028 9.47517 148.482 9.78864 148.08 10.4174C147.69 11.0336 147.496 11.9634 147.496 13.2084C147.496 14.4534 147.69 15.3902 148.08 16.019C148.482 16.6352 149.028 16.9434 149.718 16.9434V16.9416Z" fill="white"/>
</svg>
