<svg width="123" height="28" viewBox="0 0 123 28" fill="none" xmlns="http://www.w3.org/2000/svg">
<path fill-rule="evenodd" clip-rule="evenodd" d="M13.5368 27.0737L16.2442 24.3664L13.5367 21.6589L10.8293 24.3662L13.5368 27.0737Z" fill="white"/>
<path fill-rule="evenodd" clip-rule="evenodd" d="M13.5371 0L27.0739 13.5367L24.3663 16.2446L13.5367 5.41511L2.70741 16.2442L0 13.5368L6.76853 6.7684L13.5371 0Z" fill="white"/>
<path fill-rule="evenodd" clip-rule="evenodd" d="M13.5367 10.8296L5.41446 18.9517L8.12187 21.659L13.5367 16.2443L18.9515 21.6591L21.659 18.9517L13.5367 10.8296Z" fill="white"/>
<path d="M70.2461 24.6421V18.5391H71.4231V24.6421H70.2461ZM70.8477 24.6421V23.5261H74.2915V24.6421H70.8477Z" fill="white"/>
<path d="M67.0031 24.6421L64.7973 18.7222L64.7449 18.5391H65.922L68.2411 24.5724V24.6421H67.0031ZM62.4258 24.6421V24.5724L64.7449 18.5391H65.922L65.8435 18.7222L63.6377 24.6421H62.4258ZM63.5418 23.2733L63.8033 22.1573H66.9508L67.2123 23.2733H63.5418Z" fill="white"/>
<path fill-rule="evenodd" clip-rule="evenodd" d="M57.4381 23.6046V21.9132H58.6936C58.9784 21.9132 59.2051 21.9887 59.3737 22.1399C59.548 22.2852 59.6352 22.4886 59.6352 22.7502C59.6352 23.0175 59.5538 23.2268 59.3911 23.3779C59.2283 23.529 58.9958 23.6046 58.6936 23.6046H57.4381ZM56.8801 24.6421H57.4381H58.8069C59.4172 24.6421 59.8968 24.4794 60.2455 24.1539C60.5943 23.8226 60.7686 23.3837 60.7686 22.8374C60.7686 22.5409 60.7018 22.2765 60.5681 22.044C60.4402 21.8057 60.263 21.6167 60.0363 21.4772C59.9435 21.4162 59.8461 21.3675 59.7441 21.3311C59.7965 21.305 59.8474 21.2753 59.8968 21.2418C60.077 21.1198 60.2194 20.9658 60.324 20.7798C60.4286 20.5879 60.4809 20.3787 60.4809 20.152C60.4809 19.6812 60.3124 19.2947 59.9752 18.9924C59.6381 18.6902 59.1731 18.5391 58.5803 18.5391H57.4381H56.8801H56.3047V24.6421H56.8801ZM57.4381 20.9105V19.5766H58.5803C58.8244 19.5766 59.0191 19.6376 59.1644 19.7597C59.3155 19.8759 59.3911 20.0358 59.3911 20.2392C59.3911 20.3729 59.3562 20.492 59.2865 20.5967C59.2167 20.6955 59.1208 20.7739 58.9988 20.8321C58.8825 20.8844 58.743 20.9105 58.5803 20.9105H57.4381Z" fill="white"/>
<path d="M50.9878 24.7844C50.4065 24.7844 49.8921 24.6536 49.4446 24.3921C48.997 24.1247 48.6483 23.7527 48.3983 23.2761C48.1484 22.7936 48.0234 22.2327 48.0234 21.5934C48.0234 20.954 48.1484 20.396 48.3983 19.9194C48.6483 19.437 48.997 19.065 49.4446 18.8034C49.8921 18.536 50.4065 18.4023 50.9878 18.4023C51.5748 18.4023 52.0892 18.536 52.531 18.8034C52.9785 19.065 53.3273 19.437 53.5772 19.9194C53.8272 20.396 53.9521 20.954 53.9521 21.5934C53.9521 22.2327 53.8272 22.7936 53.5772 23.2761C53.3273 23.7527 52.9785 24.1247 52.531 24.3921C52.0892 24.6536 51.5748 24.7844 50.9878 24.7844ZM50.9878 23.6684C51.3365 23.6684 51.6446 23.5841 51.912 23.4156C52.1851 23.247 52.3973 23.0087 52.5484 22.7006C52.6995 22.3868 52.7751 22.0177 52.7751 21.5934C52.7751 21.1633 52.6995 20.7942 52.5484 20.4861C52.3973 20.178 52.1851 19.9397 51.912 19.7712C51.6446 19.6026 51.3365 19.5183 50.9878 19.5183C50.639 19.5183 50.3281 19.6026 50.0549 19.7712C49.7875 19.9397 49.5783 20.178 49.4271 20.4861C49.276 20.7942 49.2005 21.1633 49.2005 21.5934C49.2005 22.0177 49.276 22.3868 49.4271 22.7006C49.5783 23.0087 49.7875 23.247 50.0549 23.4156C50.3281 23.5841 50.639 23.6684 50.9878 23.6684Z" fill="white"/>
<path d="M42.3789 24.6421V18.5391H43.5559V24.6421H42.3789ZM42.9805 24.6421V23.5261H46.4244V24.6421H42.9805Z" fill="white"/>
<path d="M37.0307 24.7844C36.4727 24.7844 35.9786 24.6536 35.5485 24.3921C35.1184 24.1247 34.7813 23.7527 34.5372 23.2761C34.2988 22.7936 34.1797 22.2327 34.1797 21.5934C34.1797 20.954 34.3017 20.396 34.5459 19.9194C34.7958 19.437 35.1387 19.065 35.5747 18.8034C36.0164 18.536 36.525 18.4023 37.1004 18.4023C37.6933 18.4023 38.2135 18.5535 38.6611 18.8557C39.1086 19.158 39.4399 19.5735 39.655 20.1025L38.6175 20.4076L38.5216 20.3902C38.3763 20.1112 38.1786 19.8961 37.9287 19.745C37.6846 19.5939 37.4085 19.5183 37.1004 19.5183C36.7633 19.5183 36.4611 19.6026 36.1937 19.7712C35.9321 19.9397 35.7258 20.178 35.5747 20.4861C35.4294 20.7942 35.3567 21.1633 35.3567 21.5934C35.3567 22.0177 35.4352 22.3868 35.5921 22.7006C35.749 23.0087 35.9641 23.247 36.2373 23.4156C36.5105 23.5841 36.8243 23.6684 37.1789 23.6684C37.4056 23.6684 37.6381 23.6161 37.8764 23.5115C38.1147 23.401 38.3123 23.2354 38.4693 23.0145C38.632 22.7936 38.7134 22.5175 38.7134 22.1862V22.1165L39.036 22.2734H37.1789V21.1574H39.7248L39.8468 21.2795V24.6449H38.7744V23.4243H39.1668C39.0098 23.744 38.8151 24.0055 38.5826 24.209C38.3559 24.4066 38.1089 24.5519 37.8415 24.6449C37.5741 24.7379 37.3039 24.7844 37.0307 24.7844Z" fill="white"/>
<path d="M109.051 5.2602H110.646V13.4425H109.051V5.2602ZM110.646 9.05832L110.423 7.82062C110.423 7.56214 110.453 7.2639 110.512 6.92589C110.582 6.58788 110.716 6.39996 110.915 6.09178C111.124 5.77365 111.427 5.51021 111.824 5.30144C112.232 5.09267 112.769 4.98828 113.435 4.98828V6.59879C112.848 6.59879 112.346 6.67832 111.929 6.83738C111.511 6.99645 111.193 7.26486 110.974 7.64264C110.756 8.01047 110.646 8.39225 110.646 9.05832Z" fill="white" stroke="white" stroke-width="0.359007"/>
<path d="M104.065 2.5625H107.678V3.89732H105.618V13.4442H104.065V2.5625ZM103.137 5.31919H107.489V6.654H103.137V5.31919Z" fill="white" stroke="white" stroke-width="0.359007"/>
<path d="M94.6055 5.0917H96.2011V6.46361C96.3204 6.18525 96.4267 6.06195 96.6554 5.82336C96.8841 5.57482 97.1823 5.376 97.5501 5.22688C97.918 5.06781 98.3653 4.98828 98.8922 4.98828C99.4291 4.98828 99.9062 5.09764 100.324 5.31635C100.751 5.53506 101.152 5.76275 101.39 6.26976C101.639 6.76683 101.763 7.44284 101.763 8.2978V13.4425H100.168V8.49166C100.168 8.03436 100.123 7.64167 100.033 7.3136C99.944 6.9756 99.78 6.71712 99.5414 6.53817C99.3028 6.34929 98.9697 6.25484 98.5423 6.25484C98.1446 6.25484 97.7668 6.36917 97.4089 6.59782C97.0511 6.82648 96.7578 7.16448 96.5291 7.61185C96.3104 8.05921 96.2011 8.61593 96.2011 9.282V13.4425H94.6055V5.0917Z" fill="white" stroke="white" stroke-width="0.359007"/>
<path d="M91.4102 2.5625H93.0356V13.4441H91.4102V2.5625Z" fill="white" stroke="white" stroke-width="0.359007"/>
<path d="M80.2888 10.789C80.3382 11.2926 80.5505 11.6678 80.9258 11.9147C81.3109 12.1616 81.7701 12.285 82.3033 12.285C82.8365 12.285 83.2612 12.1863 83.5772 11.9888C83.903 11.7913 84.066 11.4802 84.066 11.0556C84.066 10.7989 83.9672 10.6063 83.7697 10.4779C83.5821 10.3397 83.3303 10.2311 83.0143 10.1521C82.7082 10.0731 82.3675 10.0039 81.9922 9.94469C81.6269 9.88544 81.2566 9.81138 80.8813 9.7225C80.5061 9.63363 80.1605 9.50526 79.8445 9.33738C79.5384 9.15964 79.2915 8.92264 79.1039 8.6264C78.9162 8.33015 78.8224 7.94504 78.8224 7.47105C78.8224 7.02668 78.9607 6.607 79.2372 6.21201C79.5137 5.80714 79.9037 5.48621 80.4073 5.24921C80.9208 5.00234 81.5133 4.87891 82.1848 4.87891C82.7872 4.87891 83.3402 5.00234 83.8438 5.24921C84.3474 5.48621 84.7473 5.81701 85.0436 6.24163C85.3497 6.66625 85.5027 7.15999 85.5027 7.72285H83.9919C83.9524 7.21924 83.7549 6.84893 83.3994 6.61194C83.0538 6.36507 82.6292 6.24163 82.1256 6.24163C81.5528 6.24163 81.1183 6.36013 80.8221 6.59712C80.5357 6.82425 80.3925 7.11555 80.3925 7.47105C80.3925 7.74754 80.4863 7.95985 80.674 8.10797C80.8715 8.25609 81.1233 8.36965 81.4294 8.44865C81.7454 8.52765 82.091 8.59677 82.4662 8.65602C82.8415 8.71527 83.2118 8.78933 83.5772 8.87821C83.9524 8.96708 84.2931 9.09545 84.5992 9.26332C84.9152 9.42132 85.167 9.6435 85.3546 9.92987C85.5422 10.2162 85.6361 10.5915 85.6361 11.0556C85.6361 11.579 85.4978 12.0381 85.2213 12.4331C84.9448 12.8183 84.5498 13.1194 84.0363 13.3367C83.5327 13.5441 82.9304 13.6477 82.2292 13.6477C81.5775 13.6477 80.99 13.5243 80.4666 13.2774C79.9432 13.0207 79.5235 12.68 79.2076 12.2554C78.9014 11.8209 78.7385 11.3321 78.7188 10.789H80.2888Z" fill="white" stroke="white" stroke-width="0.359007"/>
<path d="M77.1423 13.4443H75.5467L75.5466 5.26564H77.1422L77.1423 13.4443ZM75.5467 9.21711L75.7853 10.8574C75.7853 11.1159 75.7405 11.4042 75.6511 11.7223C75.5616 12.0405 75.4025 12.3487 75.1739 12.6469C74.9552 12.9352 74.6519 13.1738 74.2642 13.3627C73.8765 13.5516 73.3844 13.646 72.7879 13.646C72.2511 13.646 71.7689 13.5367 71.3415 13.3179C70.9239 13.0992 70.5909 12.7364 70.3423 12.2294C70.1038 11.7223 69.9845 11.0463 69.9845 10.2013L69.9844 5.26564H71.58L71.5801 10.0075C71.5801 10.4648 71.6248 10.8624 71.7143 11.2004C71.8037 11.5285 71.9628 11.787 72.1915 11.9759C72.43 12.1548 72.7631 12.2443 73.1906 12.2443C73.5982 12.2443 73.9809 12.1299 74.3388 11.9013C74.6967 11.6726 74.985 11.3346 75.2037 10.8873C75.4323 10.43 75.5467 9.87324 75.5467 9.21711Z" fill="white" stroke="white" stroke-width="0.359007"/>
<path d="M60.4336 13.7166C59.6681 13.7166 59.0021 13.5327 58.4354 13.1648C57.8787 12.7871 57.4462 12.2652 57.1381 11.5991C56.8299 10.933 56.6758 10.1725 56.6758 9.31752C56.6758 8.45262 56.8299 7.68713 57.1381 7.02106C57.4462 6.35498 57.8787 5.83306 58.4354 5.45528C59.0021 5.07751 59.6681 4.88862 60.4336 4.88862C61.0699 4.88862 61.6117 5.02283 62.0591 5.29125C62.5064 5.55967 62.8593 5.93247 63.1178 6.40966V12.2105C62.8693 12.6678 62.5263 13.0356 62.0889 13.314C61.6515 13.5824 61.0997 13.7166 60.4336 13.7166ZM60.6424 12.2552C61.1991 12.2552 61.6564 12.1309 62.0143 11.8824C62.3821 11.6239 62.6555 11.271 62.8345 10.8236C63.0234 10.3763 63.1178 9.87424 63.1178 9.31752C63.1178 8.75086 63.0234 8.24385 62.8345 7.79649C62.6555 7.34912 62.3821 6.9962 62.0143 6.73773C61.6564 6.47925 61.1991 6.35001 60.6424 6.35001C60.1652 6.35001 59.7526 6.47428 59.4047 6.72282C59.0567 6.96141 58.7883 7.30439 58.5994 7.75175C58.4106 8.19911 58.3161 8.72104 58.3161 9.31752C58.3161 9.90407 58.4106 10.421 58.5994 10.8684C58.7883 11.3058 59.0567 11.6488 59.4047 11.8973C59.7526 12.1359 60.1652 12.2552 60.6424 12.2552ZM63.1178 13.478V2.51953H64.7134V13.478H63.1178Z" fill="white" stroke="white" stroke-width="0.359007"/>
<path d="M66.4805 2.89844H68.296V4.7472H66.4805V2.89844Z" fill="white" stroke="white" stroke-width="0.225614"/>
<path d="M66.5469 5.25391L68.2279 6.27777V7.30163V9.34935V13.4448H66.5469V5.25391Z" fill="white" stroke="white" stroke-width="0.359007"/>
<path d="M36.1007 7.98777H38.1682V9.48011H36.1007V7.98777ZM38.1682 7.98777C38.79 7.98777 39.3185 7.93077 39.7538 7.81677C40.1994 7.70277 40.5362 7.50587 40.7642 7.22605C41.0026 6.93588 41.1218 6.5317 41.1218 6.01353C41.1218 5.49536 41.0026 5.09637 40.7642 4.81655C40.5362 4.52638 40.1994 4.32947 39.7538 4.22583C39.3185 4.11184 38.79 4.05484 38.1682 4.05484V2.5625C39.132 2.5625 39.9662 2.67132 40.671 2.88895C41.386 3.10658 41.9353 3.46412 42.3187 3.96157C42.7126 4.45901 42.9095 5.143 42.9095 6.01353C42.9095 6.86333 42.7126 7.54214 42.3187 8.04995C41.9353 8.55776 41.386 8.92566 40.671 9.15366C39.9662 9.37129 39.132 9.48011 38.1682 9.48011V7.98777ZM36.1007 2.5625H38.1682V4.05484H36.1007V2.5625ZM38.6812 8.42303H40.5202L42.8162 13.4441H40.8886L38.6812 8.42303ZM36.101 2.56258L36.1007 13.4441H34.4062L34.4066 2.56258H36.101Z" fill="white"/>
<path d="M38.1682 7.98777H36.1007V9.48011H38.1682M38.1682 7.98777V9.48011M38.1682 7.98777C38.79 7.98777 39.3185 7.93077 39.7538 7.81677C40.1994 7.70277 40.5362 7.50587 40.7642 7.22605C41.0026 6.93588 41.1218 6.5317 41.1218 6.01353C41.1218 5.49536 41.0026 5.09637 40.7642 4.81655C40.5362 4.52638 40.1994 4.32947 39.7538 4.22583C39.3185 4.11184 38.79 4.05484 38.1682 4.05484M38.1682 9.48011C39.132 9.48011 39.9662 9.37129 40.671 9.15366C41.386 8.92566 41.9353 8.55776 42.3187 8.04995C42.7126 7.54214 42.9095 6.86333 42.9095 6.01353C42.9095 5.143 42.7126 4.45901 42.3187 3.96157C41.9353 3.46412 41.386 3.10658 40.671 2.88895C39.9662 2.67132 39.132 2.5625 38.1682 2.5625M38.1682 4.05484V2.5625M38.1682 4.05484H36.1007V2.5625H38.1682M38.6812 8.42303H40.5202L42.8162 13.4441H40.8886L38.6812 8.42303ZM36.101 2.56258L36.1007 13.4441H34.4062L34.4066 2.56258H36.101Z" stroke="white" stroke-width="0.359007"/>
<path fill-rule="evenodd" clip-rule="evenodd" d="M45.8339 9.84674C45.8339 9.84674 45.7327 9.78124 45.7146 9.85218V8.89334V8.67386V8.54312H45.7485C45.7422 8.58609 45.7367 8.62967 45.7319 8.67386H45.8274L45.8339 9.84674ZM44.0664 8.88536C44.0662 8.888 44.0661 8.89066 44.0659 8.89334C44.0661 8.89083 44.0663 8.88788 44.0664 8.88536C44.0664 8.88551 44.0664 8.88522 44.0664 8.88536ZM45.7136 9.85645H45.7146C45.7188 9.89411 45.7234 9.9314 45.7286 9.96829C45.7125 9.91479 45.7092 9.87932 45.7136 9.85645ZM45.7286 9.96829C45.7291 9.97211 45.7297 9.97591 45.7303 9.97972C45.7305 9.98128 45.7307 9.98284 45.7309 9.98441C45.7311 9.98573 45.7312 9.98706 45.7314 9.98838C45.7305 9.9817 45.7295 9.975 45.7286 9.96829Z" fill="white"/>
<path fill-rule="evenodd" clip-rule="evenodd" d="M44.0669 8.87788C44.0729 8.80902 44.08 8.74101 44.0882 8.67386H44.0875C44.0875 8.67386 44.0763 8.74496 44.0669 8.87788ZM44.0659 8.89334C44.0662 8.8881 44.0666 8.88294 44.0669 8.87788C44.0668 8.8803 44.0667 8.8829 44.0664 8.88536C44.0662 8.88805 44.0661 8.8906 44.0659 8.89334ZM45.7314 9.98838L45.7302 9.9738C45.7297 9.97194 45.7291 9.97011 45.7286 9.96829C45.7295 9.975 45.7305 9.9817 45.7314 9.98838ZM45.7146 8.67386V8.89334V9.85218C45.7327 9.78124 45.8339 9.84674 45.8339 9.84674L45.8274 8.67386H45.7319H45.7146Z" fill="white"/>
<path d="M45.7146 9.85218V9.85645H51.9602C52.038 9.08791 51.9894 8.40692 51.8143 7.81349C51.6489 7.21033 51.3911 6.69959 51.0409 6.28127C50.6906 5.86295 50.2723 5.54678 49.7859 5.33276C49.2995 5.11873 48.779 5.01172 48.2245 5.01172C47.4754 5.01172 46.7993 5.16737 46.1961 5.47868C45.593 5.78999 45.1017 6.2375 44.7223 6.8212C44.3866 7.34247 44.1752 7.96002 44.0882 8.67386C44.08 8.74101 44.0729 8.80902 44.0669 8.87788C44.0666 8.88294 44.0662 8.8881 44.0659 8.89334C44.0586 9.0029 44.0528 9.15141 44.0552 9.33423C44.0551 9.56808 44.0685 9.74572 44.0802 9.85645C44.1483 10.6055 44.3623 11.2671 44.7223 11.841C45.0822 12.4053 45.5589 12.8479 46.1524 13.169C46.7555 13.49 47.4462 13.6505 48.2245 13.6505C48.886 13.6505 49.4746 13.5338 49.9902 13.3003C50.5058 13.0571 50.929 12.7263 51.2598 12.308C51.5905 11.8897 51.824 11.3984 51.9602 10.8342H50.2967C50.1605 11.2233 49.9221 11.5541 49.5816 11.8265C49.2508 12.0891 48.7985 12.2205 48.2245 12.2205C47.456 12.2205 46.8625 12.0016 46.4442 11.5638C46.0616 11.1538 45.824 10.6287 45.7314 9.98838C45.7305 9.9817 45.7295 9.975 45.7286 9.96829C45.7125 9.91479 45.7092 9.87932 45.7136 9.85645C45.7139 9.85498 45.7142 9.85355 45.7146 9.85218ZM45.7485 8.54312C45.7422 8.58609 45.7367 8.62967 45.7319 8.67386H45.8274L45.8339 9.84674C45.8339 9.84674 45.7327 9.78124 45.7146 9.85218V8.89334V8.67386V8.54312H45.7485ZM50.4166 8.54312H45.7485C45.8368 7.94069 46.0735 7.45914 46.4588 7.09846C46.9258 6.66068 47.5143 6.44179 48.2245 6.44179C48.7304 6.44179 49.1487 6.55853 49.4795 6.79201C49.8102 7.02549 50.0534 7.3368 50.2091 7.72594C50.3194 7.97888 50.3885 8.25127 50.4166 8.54312ZM50.4166 8.54312H51.0701L50.428 8.99549C50.4345 8.83984 50.4307 8.68905 50.4166 8.54312Z" fill="white"/>
<path d="M45.7146 9.85218C45.7327 9.78124 45.8339 9.84674 45.8339 9.84674L45.8274 8.67386H45.7319M45.7146 9.85218V8.89334V8.67386M45.7146 9.85218V9.85645M45.7286 9.96829C45.7125 9.91479 45.7092 9.87932 45.7136 9.85645C45.7139 9.85498 45.7142 9.85355 45.7146 9.85218M45.7146 8.67386V8.54312H45.7485M45.7146 8.67386H45.7319M45.7485 8.54312C45.7422 8.58609 45.7367 8.62967 45.7319 8.67386M45.7485 8.54312H50.4166M45.7485 8.54312C45.8368 7.94069 46.0735 7.45914 46.4588 7.09846C46.9258 6.66068 47.5143 6.44179 48.2245 6.44179C48.7304 6.44179 49.1487 6.55853 49.4795 6.79201C49.8102 7.02549 50.0534 7.3368 50.2091 7.72594C50.3194 7.97888 50.3885 8.25127 50.4166 8.54312M44.0664 8.88536C44.0662 8.888 44.0661 8.89066 44.0659 8.89334M44.0664 8.88536C44.0663 8.88788 44.0661 8.89083 44.0659 8.89334M44.0664 8.88536C44.0664 8.88522 44.0664 8.88551 44.0664 8.88536ZM44.0664 8.88536C44.0666 8.88285 44.0668 8.88035 44.0669 8.87788M44.0664 8.88536C44.0667 8.8829 44.0668 8.8803 44.0669 8.87788M44.0664 8.88536C44.0662 8.88805 44.0661 8.8906 44.0659 8.89334M44.0659 8.89334C44.0662 8.8881 44.0666 8.88294 44.0669 8.87788M44.0659 8.89334C44.0586 9.0029 44.0528 9.15141 44.0552 9.33423C44.0551 9.56808 44.0685 9.74572 44.0802 9.85645M45.7146 9.85645H51.9602C52.038 9.08791 51.9894 8.40692 51.8143 7.81349C51.6489 7.21033 51.3911 6.69959 51.0409 6.28127C50.6906 5.86295 50.2723 5.54678 49.7859 5.33276C49.2995 5.11873 48.779 5.01172 48.2245 5.01172C47.4754 5.01172 46.7993 5.16737 46.1961 5.47868C45.593 5.78999 45.1017 6.2375 44.7223 6.8212C44.3866 7.34247 44.1752 7.96002 44.0882 8.67386C44.08 8.74101 44.0729 8.80902 44.0669 8.87788M44.0669 8.87788C44.0763 8.74496 44.0875 8.67386 44.0875 8.67386H44.0882M45.7136 9.85645H45.7146M45.7146 9.85645C45.7188 9.89411 45.7234 9.9314 45.7286 9.96829M45.7286 9.96829C45.7291 9.97211 45.7297 9.97591 45.7303 9.97972C45.7305 9.98128 45.7307 9.98284 45.7309 9.98441C45.7311 9.98573 45.7312 9.98706 45.7314 9.98838M45.7286 9.96829C45.7295 9.975 45.7305 9.9817 45.7314 9.98838M45.7286 9.96829C45.7291 9.97011 45.7297 9.97194 45.7302 9.9738L45.7314 9.98838M44.0552 9.3397C44.0553 9.57084 44.0685 9.74658 44.0802 9.85645C44.1483 10.6055 44.3623 11.2671 44.7223 11.841C45.0822 12.4053 45.5589 12.8479 46.1524 13.169C46.7555 13.49 47.4462 13.6505 48.2245 13.6505C48.886 13.6505 49.4746 13.5338 49.9902 13.3003C50.5058 13.0571 50.929 12.7263 51.2598 12.308C51.5905 11.8897 51.824 11.3984 51.9602 10.8342H50.2967C50.1605 11.2233 49.9221 11.5541 49.5816 11.8265C49.2508 12.0891 48.7985 12.2205 48.2245 12.2205C47.456 12.2205 46.8625 12.0016 46.4442 11.5638C46.0616 11.1538 45.824 10.6287 45.7314 9.98838M45.7314 9.98838C45.8139 10.5587 46.0113 11.0376 46.3239 11.4251M50.4166 8.54312H51.0701L50.428 8.99549C50.4345 8.83984 50.4307 8.68905 50.4166 8.54312Z" stroke="white" stroke-width="0.359007"/>
<path d="M53.4336 5.25391L55.1146 6.27777V7.30163V9.34935V13.4448H53.4336V5.25391Z" fill="white" stroke="white" stroke-width="0.359007"/>
<path d="M53.3672 2.89844H55.1827V4.7472H53.3672V2.89844Z" fill="white" stroke="white" stroke-width="0.225614"/>
<path d="M115.951 13.6722V13.6713V13.6722ZM117.71 4.98473C118.353 4.9503 118.953 5.02478 119.513 5.20738C120.081 5.38909 120.543 5.68331 120.903 6.08824C121.176 6.3933 121.333 6.80138 121.367 7.32067C121.402 7.85616 121.42 8.44467 121.42 9.08629V13.6107H119.503V12.6556L119.312 12.8324C118.961 13.1607 118.573 13.3916 118.146 13.5267C117.712 13.6521 117.285 13.7088 116.865 13.6976C115.993 13.6515 115.351 13.4062 114.921 12.9759C114.49 12.5338 114.27 11.9207 114.27 11.1234C114.27 10.5468 114.416 10.0618 114.704 9.66246L114.705 9.66051C114.998 9.24398 115.387 8.91703 115.874 8.67906C116.364 8.43967 116.907 8.29015 117.504 8.23278C118.112 8.17542 118.727 8.21586 119.348 8.35387L119.485 8.38414V7.69957C119.485 7.49693 119.444 7.3153 119.356 7.16051C119.269 7.00533 119.137 6.88312 118.969 6.79235C118.643 6.61686 118.247 6.53808 117.788 6.55016C117.342 6.56226 116.892 6.65339 116.438 6.82067C116.033 6.96271 115.694 7.16525 115.423 7.43004L114.402 6.31774C114.819 5.93108 115.307 5.624 115.867 5.39781C116.465 5.15659 117.079 5.01916 117.71 4.98473ZM119.328 9.62438C118.716 9.57726 118.192 9.57194 117.76 9.6107C117.328 9.64939 116.98 9.73237 116.722 9.86461H116.721C116.472 9.99517 116.28 10.165 116.15 10.3754C116.021 10.586 115.958 10.8316 115.958 11.1068C115.958 11.4625 116.081 11.7415 116.341 11.9193L116.344 11.9213L116.346 11.9232C116.601 12.0765 116.91 12.1497 117.265 12.1498H117.269C117.632 12.1376 118.001 12.0653 118.374 11.933L118.375 11.932H118.376C118.762 11.7871 119.102 11.5867 119.394 11.3314L119.433 11.2982V9.63219L119.328 9.62438ZM117.265 12.0375L117.202 12.0365C117.163 12.0355 117.125 12.0296 117.088 12.0267C117.145 12.0312 117.204 12.0375 117.265 12.0375ZM117.003 12.0209C116.956 12.0151 116.91 12.0054 116.865 11.9964C116.91 12.0054 116.956 12.0151 117.003 12.0209ZM116.776 11.9789C116.768 11.9768 116.761 11.9742 116.753 11.972C116.761 11.9742 116.768 11.9768 116.776 11.9789ZM116.584 11.9154C116.576 11.9123 116.569 11.9089 116.562 11.9056C116.569 11.9089 116.576 11.9123 116.584 11.9154ZM116.081 10.9193H116.082H116.081ZM118.428 8.10778H118.429H118.428ZM115.56 7.45641C115.511 7.50048 115.465 7.54628 115.421 7.5941C115.465 7.54628 115.511 7.50048 115.56 7.45641ZM119.344 7.44078C119.347 7.45612 119.35 7.47184 119.353 7.48766C119.35 7.47184 119.347 7.45612 119.344 7.44078ZM119.261 7.22301C119.264 7.22938 119.267 7.23606 119.271 7.24254C119.267 7.23606 119.264 7.22938 119.261 7.22301ZM119.196 7.12535C119.211 7.14378 119.223 7.16334 119.235 7.18297C119.223 7.16334 119.211 7.14378 119.196 7.12535ZM115.943 7.17223C115.961 7.16166 115.979 7.15121 115.997 7.14098C115.979 7.15121 115.961 7.16166 115.943 7.17223ZM116.06 7.1068C116.087 7.09216 116.115 7.07771 116.144 7.06383C116.115 7.07771 116.087 7.09216 116.06 7.1068ZM119.119 7.03942C119.139 7.0585 119.156 7.07927 119.174 7.09996C119.156 7.07927 119.139 7.0585 119.119 7.03942ZM116.222 7.0277C116.235 7.02189 116.248 7.01675 116.261 7.0111C116.248 7.01675 116.235 7.02189 116.222 7.0277ZM119.031 6.9652C119.052 6.98018 119.07 6.99679 119.089 7.01305C119.07 6.99679 119.052 6.98018 119.031 6.9652ZM116.475 6.92613V6.92711C116.441 6.93897 116.408 6.95151 116.375 6.96422C116.381 6.96171 116.388 6.95889 116.395 6.95641L116.475 6.92613ZM118.916 6.89195L118.943 6.90758C118.954 6.91348 118.963 6.92096 118.973 6.92711C118.954 6.91549 118.936 6.90267 118.916 6.89195ZM119.309 7.32555C119.318 7.35009 119.325 7.37573 119.332 7.40172C119.325 7.37573 119.318 7.35009 119.309 7.32555ZM115.671 7.36168C115.698 7.3399 115.725 7.31797 115.754 7.29723C115.725 7.31797 115.698 7.3399 115.671 7.36168Z" fill="white"/>
</svg>
