<svg width="135" height="20" viewBox="0 0 135 20" fill="none" xmlns="http://www.w3.org/2000/svg">
<g opacity="0.9">
<path fill-rule="evenodd" clip-rule="evenodd" d="M21.2432 11.9019C21.2896 11.4972 21.3139 11.0855 21.3139 10.668C21.3127 4.77676 16.5426 0 10.6569 0C10.6454 0 10.6338 0 10.6222 0L21.2432 11.9019ZM20.1103 15.5978L10.6222 4.96463L1.1769 15.548C1.65067 16.4687 2.25417 17.3118 2.96425 18.0517L10.621 9.47118L18.3114 18.09C19.0238 17.3536 19.6308 16.5151 20.1092 15.5978H20.1103ZM0.0625516 11.8323C0.0208505 11.4496 0 11.0611 0 10.668C0 4.78836 4.75276 0.018555 10.621 0L0.0625516 11.8323Z" fill="white"/>
<path d="M10.4114 20C11.7324 20 12.8034 18.9278 12.8034 17.6052C12.8034 16.2827 11.7324 15.2105 10.4114 15.2105C9.09029 15.2105 8.01935 16.2827 8.01935 17.6052C8.01935 18.9278 9.09029 20 10.4114 20Z" fill="white"/>
<path d="M30.982 16.434V4.13017H36.1976C37.2481 4.13017 38.0993 4.28213 38.7496 4.58753C39.4118 4.8825 39.8939 5.29218 40.1989 5.81806C40.5144 6.33352 40.6721 6.9324 40.6721 7.61619C40.6721 8.39384 40.4668 9.06721 40.0576 9.63481C39.6483 10.2024 39.0442 10.6076 38.2451 10.849L41.0025 16.3387V16.4325H38.1975L35.6916 11.2274H33.5965V16.4325H30.9805L30.982 16.434ZM33.5979 9.30408H35.8196C36.5026 9.30408 37.0324 9.18788 37.4118 8.95697C37.8002 8.72606 37.9951 8.31042 37.9951 7.71005C37.9951 7.10968 37.8017 6.6851 37.4118 6.46313C37.0234 6.23221 36.4922 6.11601 35.8196 6.11601H33.5979V9.30259V9.30408ZM46.41 16.6709C44.919 16.6709 43.7792 16.224 42.9905 15.3301C42.2137 14.4363 41.8239 13.2221 41.8239 11.6862C41.8239 10.6553 41.998 9.77186 42.3432 9.03593C42.7003 8.29999 43.2152 7.73239 43.8878 7.33165C44.5708 6.9324 45.4011 6.73277 46.3773 6.73277C47.785 6.73277 48.8609 7.15884 49.6079 8.01098C50.3638 8.86312 50.7418 10.1145 50.7418 11.7652V12.3015H44.3134C44.3655 13.1015 44.5708 13.7316 44.9279 14.1949C45.2955 14.6478 45.7895 14.8728 46.4086 14.8728C46.9026 14.8728 47.2954 14.7253 47.5901 14.4318C47.8951 14.1368 48.0945 13.7957 48.1883 13.4069H50.6153C50.5215 13.9849 50.3102 14.5212 49.9843 15.0158C49.6585 15.5104 49.2016 15.9096 48.6138 16.215C48.0261 16.5204 47.291 16.6724 46.4086 16.6724L46.41 16.6709ZM44.3149 10.6925H48.2537C48.2121 9.97745 48.0335 9.42475 47.718 9.03593C47.4026 8.63667 46.9517 8.43705 46.3624 8.43705C45.7732 8.43705 45.3178 8.62624 44.9607 9.00464C44.614 9.37261 44.3982 9.93574 44.3149 10.6925ZM52.389 16.434V6.96964H54.941V16.434H52.389ZM53.6658 5.88063C53.2149 5.88063 52.8726 5.76443 52.642 5.53352C52.4113 5.29218 52.2953 4.98082 52.2953 4.60243C52.2953 4.22403 52.4113 3.91863 52.642 3.68772C52.8726 3.44638 53.2149 3.32422 53.6658 3.32422C54.1166 3.32422 54.4589 3.44489 54.6895 3.68772C54.9202 3.91863 55.0363 4.22403 55.0363 4.60243C55.0363 4.98082 54.9202 5.29069 54.6895 5.53352C54.4589 5.76443 54.1166 5.88063 53.6658 5.88063ZM60.4349 16.6232C59.5733 16.6232 58.865 16.4132 58.307 15.9916C57.7505 15.561 57.3353 14.9711 57.0615 14.2247C56.7892 13.4784 56.6523 12.6322 56.6523 11.6847C56.6523 10.7372 56.7892 9.84933 57.0615 9.11339C57.3457 8.37746 57.7653 7.8039 58.3219 7.39422C58.8888 6.98454 59.5927 6.77895 60.4334 6.77895C61.0539 6.77895 61.5569 6.88919 61.9468 7.10968C62.3455 7.33016 62.661 7.6296 62.8917 8.00949H63.2696V3.81286H65.8216V16.4325H63.4586V15.202H63.0806C62.8604 15.6013 62.539 15.9379 62.1194 16.2121C61.6997 16.4847 61.1373 16.6217 60.4334 16.6217L60.4349 16.6232ZM61.1596 14.8251C61.8009 14.8251 62.3098 14.5465 62.6878 13.9894C63.0762 13.4218 63.2711 12.659 63.2711 11.7026C63.2711 10.7462 63.0762 9.97298 62.6878 9.41581C62.3098 8.85865 61.8009 8.58006 61.1596 8.58006C60.5822 8.58006 60.1254 8.84226 59.7891 9.36814C59.4632 9.8836 59.301 10.6612 59.301 11.7026C59.301 12.7439 59.4632 13.5275 59.7891 14.0534C60.1254 14.5689 60.5822 14.8266 61.1596 14.8266V14.8251ZM68.1594 16.434V6.96964H70.7114V16.434H68.1594ZM69.4361 5.88063C68.9837 5.88063 68.643 5.76443 68.4123 5.53352C68.1817 5.29218 68.0656 4.98082 68.0656 4.60243C68.0656 4.22403 68.1817 3.91863 68.4123 3.68772C68.643 3.44638 68.9852 3.32422 69.4361 3.32422C69.887 3.32422 70.2292 3.44489 70.4599 3.68772C70.6905 3.91863 70.8066 4.22403 70.8066 4.60243C70.8066 4.98082 70.6905 5.29069 70.4599 5.53352C70.2292 5.76443 69.887 5.88063 69.4361 5.88063ZM76.11 16.6709C75.0594 16.6709 74.2663 16.3402 73.7306 15.6772C73.1949 15.0143 72.9271 14.116 72.9271 12.9793V6.96964H75.4791V12.5532C75.4791 13.1953 75.5951 13.6944 75.8258 14.0519C76.0564 14.4095 76.4299 14.5882 76.9448 14.5882C77.5638 14.5882 78.043 14.3469 78.3793 13.8627C78.7156 13.3786 78.8837 12.7841 78.8837 12.0795V6.96815H81.4357V16.4325H79.1352V15.0128H78.7572C78.5995 15.4866 78.3108 15.8798 77.8912 16.1957C77.4716 16.5115 76.8778 16.6694 76.11 16.6694V16.6709ZM87.2927 16.6709C86.2421 16.6709 85.4014 16.5085 84.7719 16.1823C84.1529 15.8456 83.6946 15.4255 83.4014 14.9204C83.1172 14.4154 82.955 13.9104 82.9134 13.4054H85.3404C85.3924 13.678 85.5026 13.9313 85.6707 14.1622C85.8493 14.3826 86.0799 14.5569 86.3641 14.6836C86.6588 14.8102 87.01 14.8728 87.4192 14.8728C87.9236 14.8728 88.2852 14.7893 88.5069 14.621C88.7272 14.4422 88.8373 14.2158 88.8373 13.9432C88.8373 13.6914 88.7316 13.4799 88.5218 13.3115C88.3224 13.1327 87.9906 12.9704 87.5293 12.8229L86.3954 12.4445C85.8493 12.2553 85.3448 12.0497 84.882 11.8292C84.4193 11.5983 84.0472 11.3033 83.763 10.9458C83.4892 10.5882 83.3538 10.1249 83.3538 9.55734C83.3538 8.71563 83.6738 8.03779 84.3151 7.52234C84.9565 6.99646 85.8642 6.73426 87.0412 6.73426C87.8924 6.73426 88.5858 6.86536 89.1215 7.12904C89.6676 7.39124 90.0768 7.74431 90.3506 8.18528C90.6244 8.61582 90.7807 9.09552 90.8238 9.6214H88.492C88.44 9.243 88.2822 8.95399 88.0188 8.75436C87.757 8.54431 87.3998 8.43854 86.9475 8.43854C86.5382 8.43854 86.2272 8.51749 86.0174 8.67541C85.818 8.83332 85.7183 9.04933 85.7183 9.32196C85.7183 9.59458 85.8284 9.82103 86.0487 9.9998C86.2689 10.1786 86.6052 10.3409 87.0576 10.4884L88.1915 10.8519C88.7376 11.0203 89.2361 11.2199 89.6884 11.4508C90.1512 11.6713 90.5188 11.9663 90.7911 12.3342C91.0649 12.6918 91.2003 13.1596 91.2003 13.7376C91.2003 14.621 90.864 15.3301 90.1914 15.8664C89.5292 16.4027 88.5635 16.6709 87.2927 16.6709ZM96.5543 16.434V4.13017H99.2015V16.434H96.5543ZM101.563 16.434V6.96964H103.926V8.38937H104.304C104.493 7.91563 104.782 7.52234 105.17 7.20651C105.569 6.89068 106.152 6.73277 106.919 6.73277C107.969 6.73277 108.756 7.0635 109.282 7.72644C109.807 8.38937 110.069 9.2877 110.069 10.4244V16.434H107.517V10.8504C107.517 10.1979 107.401 9.69887 107.17 9.35175C106.939 8.99421 106.561 8.81544 106.036 8.81544C105.426 8.81544 104.954 9.05678 104.618 9.54095C104.282 10.0147 104.114 10.6091 104.114 11.3242V16.4355H101.562L101.563 16.434ZM112.903 16.434V8.76777H111.581V6.96964H112.903V6.40205C112.903 5.85531 112.999 5.38752 113.188 4.9987C113.387 4.60987 113.713 4.31043 114.165 4.09889C114.628 3.88883 115.253 3.78306 116.04 3.78306C116.345 3.78306 116.644 3.79945 116.939 3.83073V5.5663C116.781 5.53501 116.598 5.51862 116.387 5.51862C116.03 5.51862 115.772 5.59758 115.615 5.75549C115.467 5.90298 115.394 6.15028 115.394 6.49739V6.97113H116.939V8.76926H115.394V16.4355H112.905L112.903 16.434ZM118.539 16.434V6.96964H120.87V8.7052H121.248C121.311 8.38937 121.427 8.09589 121.595 7.82178C121.774 7.53724 122.042 7.31228 122.399 7.14394C122.756 6.96517 123.234 6.87579 123.833 6.87579H124.338V9.17894H123.644C122.751 9.17894 122.1 9.40538 121.69 9.85678C121.292 10.3097 121.092 10.9875 121.092 11.8918V16.4355H118.54L118.539 16.434ZM128.875 16.6232C127.992 16.6232 127.268 16.4132 126.701 15.9916C126.134 15.561 125.713 14.9711 125.44 14.2247C125.166 13.4784 125.031 12.6322 125.031 11.6847C125.031 10.7372 125.168 9.84933 125.44 9.11339C125.725 8.37746 126.15 7.8039 126.717 7.39422C127.284 6.98454 127.998 6.77895 128.86 6.77895C129.522 6.77895 130.062 6.91005 130.483 7.17374C130.915 7.4255 131.239 7.76815 131.461 8.19869H131.839V6.96815H134.202V16.4325H131.839V15.202H131.461C131.241 15.6013 130.919 15.9379 130.5 16.2121C130.08 16.4847 129.538 16.6217 128.876 16.6217L128.875 16.6232ZM129.537 14.8251C130.178 14.8251 130.687 14.5465 131.065 13.9894C131.453 13.4218 131.648 12.659 131.648 11.7026C131.648 10.7462 131.453 9.97298 131.065 9.41581C130.687 8.85865 130.177 8.58006 129.537 8.58006C128.96 8.58006 128.503 8.84226 128.166 9.36814C127.841 9.8836 127.678 10.6612 127.678 11.7026C127.678 12.7439 127.841 13.5275 128.166 14.0534C128.503 14.5689 128.96 14.8266 129.537 14.8266V14.8251Z" fill="white"/>
</g>
</svg>
