<svg width="86" height="24" viewBox="0 0 86 24" fill="none" xmlns="http://www.w3.org/2000/svg">
<path opacity="0.9" d="M-0.000666151 23.0898V0.209383H7.01948C8.1895 0.209383 9.07352 0.478055 9.67153 1.0154C10.2695 1.54408 10.6682 2.28942 10.8676 3.25144C11.0756 4.2048 11.1796 5.32715 11.1796 6.61851C11.1796 7.86654 11.0192 8.86322 10.6985 9.60857C10.3865 10.3539 9.79286 10.8696 8.91751 11.1556C9.63686 11.3029 10.1395 11.6626 10.4255 12.2346C10.7202 12.798 10.8676 13.5303 10.8676 14.4317V23.0898H6.35646V14.1327C6.35646 13.4653 6.21779 13.0536 5.94045 12.8976C5.67178 12.733 5.23411 12.6506 4.62743 12.6506V23.0898H-0.000666151ZM4.65343 8.68555H5.75845C6.39113 8.68555 6.70747 7.99654 6.70747 6.61851C6.70747 5.72583 6.63813 5.14082 6.49946 4.86348C6.3608 4.58614 6.10079 4.44747 5.71945 4.44747H4.65343V8.68555ZM18.1217 23.2978C16.033 23.2978 14.525 22.7778 13.5976 21.7378C12.6789 20.6978 12.2196 19.0424 12.2196 16.7717V14.5357H16.7437V17.3957C16.7437 17.9244 16.8217 18.3404 16.9777 18.6438C17.1423 18.9384 17.424 19.0858 17.8227 19.0858C18.2387 19.0858 18.5247 18.9644 18.6807 18.7218C18.8454 18.4791 18.9277 18.0804 18.9277 17.5257C18.9277 16.8237 18.8584 16.2387 18.7197 15.7707C18.581 15.294 18.3384 14.8433 17.9917 14.4187C17.6537 13.9853 17.1813 13.4827 16.5747 12.9106L14.5206 10.9606C12.9866 9.51324 12.2196 7.85787 12.2196 5.9945C12.2196 4.04446 12.6703 2.5581 13.5716 1.53541C14.4816 0.512722 15.7947 0.00137849 17.5107 0.00137849C19.6081 0.00137849 21.0944 0.56039 21.9698 1.67841C22.8538 2.79643 23.2958 4.49514 23.2958 6.77451H18.6417V5.20148C18.6417 4.88948 18.5507 4.64681 18.3687 4.47347C18.1954 4.30013 17.957 4.21346 17.6537 4.21346C17.2897 4.21346 17.021 4.31747 16.8477 4.52547C16.683 4.72481 16.6007 4.98481 16.6007 5.30549C16.6007 5.62616 16.6873 5.97283 16.8607 6.34551C17.034 6.71818 17.3764 7.14719 17.8877 7.63253L20.5267 10.1676C21.0554 10.6703 21.5408 11.2033 21.9828 11.7666C22.4248 12.3213 22.7801 12.9713 23.0488 13.7167C23.3175 14.4533 23.4518 15.3547 23.4518 16.4207C23.4518 18.5701 23.0531 20.2558 22.2558 21.4778C21.4671 22.6912 20.0891 23.2978 18.1217 23.2978ZM31.018 23.0898V0.209383H35.438V23.0898H31.018ZM37.2581 23.0898V0.209383H41.9642L44.0702 11.1686V0.209383H48.4903V23.0898H44.0182L41.7302 11.6496V23.0898H37.2581ZM50.5184 23.0898V0.209383H59.6705V4.66847H55.1204V8.30855H59.4365V12.7156H55.1204V23.0898H50.5184ZM61.1526 23.0898V0.209383H68.1727C69.3427 0.209383 70.2267 0.478055 70.8248 1.0154C71.4228 1.54408 71.8214 2.28942 72.0208 3.25144C72.2288 4.2048 72.3328 5.32715 72.3328 6.61851C72.3328 7.86654 72.1725 8.86322 71.8518 9.60857C71.5398 10.3539 70.9461 10.8696 70.0707 11.1556C70.7901 11.3029 71.2928 11.6626 71.5788 12.2346C71.8734 12.798 72.0208 13.5303 72.0208 14.4317V23.0898H67.5097V14.1327C67.5097 13.4653 67.371 13.0536 67.0937 12.8976C66.825 12.733 66.3873 12.6506 65.7807 12.6506V23.0898H61.1526ZM65.8067 8.68555H66.9117C67.5444 8.68555 67.8607 7.99654 67.8607 6.61851C67.8607 5.72583 67.7914 5.14082 67.6527 4.86348C67.514 4.58614 67.254 4.44747 66.8727 4.44747H65.8067V8.68555ZM73.2168 23.0898L75.4269 0.209383H83.188L85.3591 23.0898H81.03L80.705 19.3978H77.9489L77.6629 23.0898H73.2168ZM78.2739 15.7447H80.354L79.3529 4.10946H79.1449L78.2739 15.7447Z" fill="white"/>
</svg>
