<svg width="140" height="25" viewBox="0 0 140 25" fill="none" xmlns="http://www.w3.org/2000/svg">
<path d="M26.19 21.1659C25.1116 21.1659 24.1715 20.9931 23.3697 20.6475C22.5679 20.3018 21.9457 19.818 21.5033 19.1959C21.0748 18.5737 20.8605 17.841 20.8605 16.9977V16.4793C20.8605 16.4101 20.8812 16.3548 20.9227 16.3134C20.978 16.2581 21.0402 16.2304 21.1093 16.2304H22.9549C23.0241 16.2304 23.0794 16.2581 23.1208 16.3134C23.1761 16.3548 23.2038 16.4101 23.2038 16.4793V16.8733C23.2038 17.5092 23.4872 18.0415 24.054 18.47C24.6208 18.8848 25.395 19.0922 26.3766 19.0922C27.2199 19.0922 27.8559 18.9124 28.2844 18.553C28.713 18.1935 28.9273 17.7304 28.9273 17.1636C28.9273 16.7765 28.8098 16.4516 28.5748 16.1889C28.3397 15.9124 28.001 15.6636 27.5586 15.4424C27.1301 15.2212 26.4803 14.9447 25.6093 14.6129C24.6278 14.2535 23.8328 13.9147 23.2245 13.5968C22.6162 13.2788 22.1047 12.8502 21.69 12.3111C21.289 11.7581 21.0886 11.0737 21.0886 10.2581C21.0886 9.04147 21.531 8.08064 22.4158 7.37557C23.3006 6.6705 24.4826 6.31796 25.9619 6.31796C26.9987 6.31796 27.9112 6.49769 28.6992 6.85713C29.501 7.21658 30.1232 7.72119 30.5656 8.37096C31.008 9.0069 31.2291 9.74654 31.2291 10.5899V10.9424C31.2291 11.0115 31.2015 11.0737 31.1462 11.129C31.1047 11.1705 31.0494 11.1912 30.9803 11.1912H29.1139C29.0448 11.1912 28.9826 11.1705 28.9273 11.129C28.8858 11.0737 28.8651 11.0115 28.8651 10.9424V10.7143C28.8651 10.0645 28.5955 9.51842 28.0563 9.07603C27.531 8.61981 26.7983 8.3917 25.8582 8.3917C25.0978 8.3917 24.5033 8.55068 24.0748 8.86865C23.66 9.18663 23.4526 9.63594 23.4526 10.2166C23.4526 10.6313 23.5632 10.97 23.7844 11.2327C24.0056 11.4954 24.3374 11.7373 24.7798 11.9585C25.2222 12.1659 25.9066 12.4355 26.8328 12.7673C27.8144 13.1405 28.5955 13.4793 29.1762 13.7834C29.7706 14.0876 30.2752 14.5161 30.69 15.0691C31.1186 15.6083 31.3328 16.2857 31.3328 17.1014C31.3328 18.3456 30.8697 19.3341 29.9434 20.0668C29.031 20.7995 27.7798 21.1659 26.19 21.1659ZM38.4005 10.2373C39.5204 10.2373 40.4121 10.5691 41.0757 11.2327C41.7531 11.8963 42.0918 12.8018 42.0918 13.9493V20.7512C42.0918 20.8203 42.0641 20.8825 42.0088 20.9378C41.9674 20.9793 41.9121 21 41.8429 21H39.9351C39.866 21 39.8038 20.9793 39.7485 20.9378C39.707 20.8825 39.6863 20.8203 39.6863 20.7512V14.447C39.6863 13.8111 39.5065 13.2995 39.1471 12.9124C38.7876 12.5115 38.3107 12.3111 37.7162 12.3111C37.1217 12.3111 36.6379 12.5046 36.2646 12.8917C35.9051 13.2788 35.7254 13.7903 35.7254 14.4263V20.7512C35.7254 20.8203 35.6978 20.8825 35.6425 20.9378C35.601 20.9793 35.5457 21 35.4766 21H33.5687C33.4996 21 33.4374 20.9793 33.3821 20.9378C33.3406 20.8825 33.3199 20.8203 33.3199 20.7512V6.73271C33.3199 6.66358 33.3406 6.60828 33.3821 6.56681C33.4374 6.51151 33.4996 6.48386 33.5687 6.48386H35.4766C35.5457 6.48386 35.601 6.51151 35.6425 6.56681C35.6978 6.60828 35.7254 6.66358 35.7254 6.73271V11.3157C35.7254 11.3571 35.7392 11.3848 35.7669 11.3986C35.7945 11.4124 35.8153 11.3986 35.8291 11.3571C36.3959 10.6106 37.2531 10.2373 38.4005 10.2373ZM48.8115 21.1659C47.7193 21.1659 46.7792 20.8894 45.9912 20.3364C45.217 19.7834 44.6709 19.0161 44.353 18.0346C44.1179 17.288 44.0004 16.5 44.0004 15.6705C44.0004 14.7857 44.111 13.9977 44.3322 13.3064C44.6502 12.3387 45.2032 11.5852 45.9912 11.0461C46.7792 10.5069 47.7262 10.2373 48.8322 10.2373C49.8829 10.2373 50.7885 10.5069 51.5488 11.0461C52.323 11.5852 52.8691 12.3318 53.1871 13.2857C53.4359 13.9493 53.5603 14.7373 53.5603 15.6498C53.5603 16.5207 53.4428 17.3088 53.2078 18.0138C52.8898 18.9954 52.3438 19.7696 51.5696 20.3364C50.7954 20.8894 49.876 21.1659 48.8115 21.1659ZM48.8115 19.0922C49.323 19.0922 49.7585 18.947 50.118 18.6567C50.4912 18.3664 50.7608 17.9585 50.9267 17.4332C51.065 16.977 51.1341 16.3963 51.1341 15.6912C51.1341 14.9447 51.065 14.3641 50.9267 13.9493C50.7746 13.424 50.512 13.023 50.1387 12.7465C49.7654 12.4562 49.3092 12.3111 48.77 12.3111C48.2585 12.3111 47.8161 12.4562 47.4428 12.7465C47.0696 13.023 46.8 13.424 46.6341 13.9493C46.4958 14.4332 46.4267 15.0138 46.4267 15.6912C46.4267 16.3687 46.4958 16.9493 46.6341 17.4332C46.7862 17.9585 47.0488 18.3664 47.4221 18.6567C47.8092 18.947 48.2723 19.0922 48.8115 19.0922ZM64.5649 14.5092C64.6202 14.8548 64.6479 15.2419 64.6479 15.6705L64.6271 16.3134C64.6271 16.4793 64.5442 16.5622 64.3783 16.5622H57.8875C57.8184 16.5622 57.7838 16.5968 57.7838 16.6659C57.8253 17.1221 57.8875 17.4332 57.9704 17.5991C58.3022 18.5945 59.111 19.0991 60.3967 19.1129C61.3368 19.1129 62.0833 18.7258 62.6363 17.9516C62.6916 17.8687 62.7608 17.8272 62.8437 17.8272C62.899 17.8272 62.9474 17.8479 62.9889 17.8894L64.2746 18.947C64.399 19.0438 64.4197 19.1544 64.3368 19.2788C63.9082 19.8871 63.3345 20.3571 62.6156 20.6889C61.9105 21.0207 61.1225 21.1866 60.2515 21.1866C59.1732 21.1866 58.2538 20.9447 57.4935 20.4608C56.7469 19.977 56.2008 19.2995 55.8552 18.4286C55.5373 17.682 55.3783 16.6452 55.3783 15.318C55.3783 14.5161 55.4612 13.8664 55.6271 13.3687C55.9036 12.4009 56.422 11.6405 57.1824 11.0876C57.9566 10.5207 58.8829 10.2373 59.9612 10.2373C62.6847 10.2373 64.2193 11.6613 64.5649 14.5092ZM59.9612 12.3111C59.4497 12.3111 59.0211 12.4424 58.6755 12.7051C58.3437 12.9539 58.1087 13.3064 57.9704 13.7627C57.8875 13.9977 57.8322 14.3018 57.8045 14.6751C57.7769 14.7442 57.8045 14.7788 57.8875 14.7788H62.0972C62.1663 14.7788 62.2009 14.7442 62.2009 14.6751C62.1732 14.3295 62.1317 14.0668 62.0764 13.8871C61.952 13.3894 61.7032 13.0023 61.3299 12.7258C60.9704 12.4493 60.5142 12.3111 59.9612 12.3111ZM76.2196 6.64976C76.2887 6.53916 76.3855 6.48386 76.5099 6.48386H78.4178C78.4869 6.48386 78.5422 6.51151 78.5837 6.56681C78.639 6.60828 78.6666 6.66358 78.6666 6.73271V20.7512C78.6666 20.8203 78.639 20.8825 78.5837 20.9378C78.5422 20.9793 78.4869 21 78.4178 21H76.5099C76.4408 21 76.3786 20.9793 76.3233 20.9378C76.2818 20.8825 76.2611 20.8203 76.2611 20.7512V10.8594C76.2611 10.818 76.2404 10.7903 76.1989 10.7765C76.1712 10.7627 76.1505 10.7765 76.1367 10.818L73.5445 14.7995C73.4754 14.9101 73.3786 14.9654 73.2542 14.9654H72.3003C72.1758 14.9654 72.0791 14.9101 72.0099 14.7995L69.397 10.8387C69.3832 10.7972 69.3556 10.7834 69.3141 10.7972C69.2864 10.8111 69.2726 10.8387 69.2726 10.8802V20.7512C69.2726 20.8203 69.245 20.8825 69.1897 20.9378C69.1482 20.9793 69.0929 21 69.0238 21H67.1159C67.0468 21 66.9846 20.9793 66.9293 20.9378C66.8878 20.8825 66.8671 20.8203 66.8671 20.7512V6.73271C66.8671 6.66358 66.8878 6.60828 66.9293 6.56681C66.9846 6.51151 67.0468 6.48386 67.1159 6.48386H69.0238C69.1482 6.48386 69.245 6.53916 69.3141 6.64976L72.6943 11.7719C72.7219 11.7995 72.7496 11.8134 72.7772 11.8134C72.8049 11.8134 72.8256 11.7995 72.8394 11.7719L76.2196 6.64976ZM85.7556 21.1659C84.6634 21.1659 83.7233 20.8894 82.9353 20.3364C82.1611 19.7834 81.615 19.0161 81.297 18.0346C81.062 17.288 80.9445 16.5 80.9445 15.6705C80.9445 14.7857 81.0551 13.9977 81.2763 13.3064C81.5943 12.3387 82.1473 11.5852 82.9353 11.0461C83.7233 10.5069 84.6703 10.2373 85.7763 10.2373C86.827 10.2373 87.7325 10.5069 88.4929 11.0461C89.2671 11.5852 89.8132 12.3318 90.1311 13.2857C90.38 13.9493 90.5044 14.7373 90.5044 15.6498C90.5044 16.5207 90.3869 17.3088 90.1519 18.0138C89.8339 18.9954 89.2878 19.7696 88.5136 20.3364C87.7394 20.8894 86.8201 21.1659 85.7556 21.1659ZM85.7556 19.0922C86.2671 19.0922 86.7026 18.947 87.062 18.6567C87.4353 18.3664 87.7049 17.9585 87.8708 17.4332C88.009 16.977 88.0781 16.3963 88.0781 15.6912C88.0781 14.9447 88.009 14.3641 87.8708 13.9493C87.7187 13.424 87.456 13.023 87.0827 12.7465C86.7095 12.4562 86.2533 12.3111 85.7141 12.3111C85.2026 12.3111 84.7602 12.4562 84.3869 12.7465C84.0136 13.023 83.744 13.424 83.5781 13.9493C83.4399 14.4332 83.3708 15.0138 83.3708 15.6912C83.3708 16.3687 83.4399 16.9493 83.5781 17.4332C83.7302 17.9585 83.9929 18.3664 84.3662 18.6567C84.7533 18.947 85.2164 19.0922 85.7556 19.0922ZM97.6518 10.2373C98.7716 10.2373 99.6633 10.5691 100.327 11.2327C101.004 11.8963 101.343 12.8018 101.343 13.9493V20.7512C101.343 20.8203 101.315 20.8825 101.26 20.9378C101.219 20.9793 101.163 21 101.094 21H99.1864C99.1173 21 99.0551 20.9793 98.9998 20.9378C98.9583 20.8825 98.9375 20.8203 98.9375 20.7512V14.447C98.9375 13.8111 98.7578 13.2995 98.3984 12.9124C98.0389 12.5115 97.562 12.3111 96.9675 12.3111C96.373 12.3111 95.8892 12.5046 95.5159 12.8917C95.1564 13.2788 94.9767 13.7903 94.9767 14.4263V20.7512C94.9767 20.8203 94.9491 20.8825 94.8938 20.9378C94.8523 20.9793 94.797 21 94.7279 21H92.82C92.7509 21 92.6887 20.9793 92.6334 20.9378C92.5919 20.8825 92.5712 20.8203 92.5712 20.7512V10.6521C92.5712 10.5829 92.5919 10.5276 92.6334 10.4862C92.6887 10.4309 92.7509 10.4032 92.82 10.4032H94.7279C94.797 10.4032 94.8523 10.4309 94.8938 10.4862C94.9491 10.5276 94.9767 10.5829 94.9767 10.6521V11.3157C94.9767 11.3571 94.9905 11.3848 95.0182 11.3986C95.0458 11.4124 95.0666 11.3986 95.0804 11.3571C95.6472 10.6106 96.5044 10.2373 97.6518 10.2373ZM103.872 21C103.803 21 103.741 20.9793 103.686 20.9378C103.644 20.8825 103.624 20.8203 103.624 20.7512V6.73271C103.624 6.66358 103.644 6.60828 103.686 6.56681C103.741 6.51151 103.803 6.48386 103.872 6.48386H105.78C105.849 6.48386 105.905 6.51151 105.946 6.56681C106.001 6.60828 106.029 6.66358 106.029 6.73271V14.2189C106.029 14.2604 106.043 14.288 106.071 14.3018C106.098 14.3157 106.126 14.3018 106.153 14.2604L109.513 10.5484C109.61 10.4516 109.713 10.4032 109.824 10.4032H112.022C112.16 10.4032 112.23 10.4516 112.23 10.5484C112.23 10.5899 112.209 10.6452 112.167 10.7143L109.534 13.8664C109.492 13.9078 109.485 13.9562 109.513 14.0115L112.624 20.7097C112.651 20.765 112.665 20.8065 112.665 20.8341C112.665 20.9447 112.589 21 112.437 21H110.425C110.287 21 110.19 20.9378 110.135 20.8134L107.875 15.5461C107.861 15.5184 107.833 15.5046 107.792 15.5046C107.764 15.4908 107.743 15.4977 107.73 15.5253L106.071 17.4332C106.043 17.4885 106.029 17.5369 106.029 17.5783V20.7512C106.029 20.8203 106.001 20.8825 105.946 20.9378C105.905 20.9793 105.849 21 105.78 21H103.872ZM115.619 8.9516C115.191 8.9516 114.838 8.81336 114.562 8.53686C114.285 8.26036 114.147 7.90782 114.147 7.47925C114.147 7.05068 114.285 6.69815 114.562 6.42165C114.838 6.14515 115.191 6.0069 115.619 6.0069C116.048 6.0069 116.4 6.14515 116.677 6.42165C116.953 6.69815 117.092 7.05068 117.092 7.47925C117.092 7.90782 116.953 8.26036 116.677 8.53686C116.4 8.81336 116.048 8.9516 115.619 8.9516ZM114.624 21C114.555 21 114.493 20.9793 114.437 20.9378C114.396 20.8825 114.375 20.8203 114.375 20.7512V10.6313C114.375 10.5622 114.396 10.5069 114.437 10.4654C114.493 10.4101 114.555 10.3825 114.624 10.3825H116.532C116.601 10.3825 116.656 10.4101 116.698 10.4654C116.753 10.5069 116.781 10.5622 116.781 10.6313V20.7512C116.781 20.8203 116.753 20.8825 116.698 20.9378C116.656 20.9793 116.601 21 116.532 21H114.624ZM128.267 14.5092C128.322 14.8548 128.35 15.2419 128.35 15.6705L128.329 16.3134C128.329 16.4793 128.246 16.5622 128.08 16.5622H121.589C121.52 16.5622 121.486 16.5968 121.486 16.6659C121.527 17.1221 121.589 17.4332 121.672 17.5991C122.004 18.5945 122.813 19.0991 124.098 19.1129C125.039 19.1129 125.785 18.7258 126.338 17.9516C126.393 17.8687 126.462 17.8272 126.545 17.8272C126.601 17.8272 126.649 17.8479 126.691 17.8894L127.976 18.947C128.101 19.0438 128.121 19.1544 128.039 19.2788C127.61 19.8871 127.036 20.3571 126.317 20.6889C125.612 21.0207 124.824 21.1866 123.953 21.1866C122.875 21.1866 121.956 20.9447 121.195 20.4608C120.449 19.977 119.903 19.2995 119.557 18.4286C119.239 17.682 119.08 16.6452 119.08 15.318C119.08 14.5161 119.163 13.8664 119.329 13.3687C119.605 12.4009 120.124 11.6405 120.884 11.0876C121.658 10.5207 122.585 10.2373 123.663 10.2373C126.386 10.2373 127.921 11.6613 128.267 14.5092ZM123.663 12.3111C123.151 12.3111 122.723 12.4424 122.377 12.7051C122.045 12.9539 121.81 13.3064 121.672 13.7627C121.589 13.9977 121.534 14.3018 121.506 14.6751C121.479 14.7442 121.506 14.7788 121.589 14.7788H125.799C125.868 14.7788 125.903 14.7442 125.903 14.6751C125.875 14.3295 125.833 14.0668 125.778 13.8871C125.654 13.3894 125.405 13.0023 125.032 12.7258C124.672 12.4493 124.216 12.3111 123.663 12.3111ZM134.119 21.1244C133.248 21.1244 132.481 21 131.817 20.7512C131.167 20.4885 130.663 20.1359 130.303 19.6935C129.944 19.2373 129.764 18.7327 129.764 18.1797V17.9931C129.764 17.924 129.785 17.8687 129.826 17.8272C129.881 17.7719 129.944 17.7442 130.013 17.7442H131.838C131.907 17.7442 131.962 17.7719 132.004 17.8272C132.059 17.8687 132.087 17.924 132.087 17.9931V18.0346C132.087 18.3802 132.273 18.6843 132.646 18.947C133.034 19.1959 133.517 19.3203 134.098 19.3203C134.651 19.3203 135.1 19.2097 135.446 18.9885C135.792 18.7535 135.964 18.4631 135.964 18.1175C135.964 17.7995 135.819 17.5645 135.529 17.4124C135.252 17.2465 134.796 17.0737 134.16 16.894L133.372 16.6452C132.667 16.4378 132.073 16.2166 131.589 15.9816C131.105 15.7465 130.697 15.4286 130.365 15.0276C130.034 14.6129 129.868 14.0876 129.868 13.4516C129.868 12.4839 130.248 11.7166 131.008 11.1498C131.769 10.5691 132.771 10.2788 134.015 10.2788C134.858 10.2788 135.598 10.417 136.234 10.6935C136.87 10.9562 137.361 11.3295 137.706 11.8134C138.052 12.2834 138.225 12.8226 138.225 13.4309C138.225 13.5 138.197 13.5622 138.142 13.6175C138.1 13.659 138.045 13.6797 137.976 13.6797H136.213C136.144 13.6797 136.082 13.659 136.027 13.6175C135.985 13.5622 135.964 13.5 135.964 13.4309C135.964 13.0714 135.785 12.7742 135.425 12.5392C135.08 12.2903 134.603 12.1659 133.994 12.1659C133.455 12.1659 133.013 12.2696 132.667 12.477C132.335 12.6705 132.169 12.947 132.169 13.3064C132.169 13.6382 132.328 13.894 132.646 14.0737C132.978 14.2396 133.524 14.4263 134.285 14.6336L134.741 14.7581C135.474 14.9793 136.089 15.2074 136.587 15.4424C137.084 15.6636 137.506 15.9816 137.851 16.3963C138.197 16.7972 138.37 17.3226 138.37 17.9723C138.37 18.9539 137.983 19.7281 137.209 20.2949C136.434 20.8479 135.404 21.1244 134.119 21.1244Z" fill="#FFFAF3"/>
<mask id="path-2-outside-1_582_3622" maskUnits="userSpaceOnUse" x="-0.8125" y="9.3125" width="3" height="9" fill="black">
<rect fill="white" x="-0.8125" y="9.3125" width="3" height="9"/>
<path d="M1.58496 11.3848V18.0947H0.1875V10.3125L1.58496 11.3848ZM1.43848 11.457V17.9492H1.43945V11.457L0.333008 10.6084L1.43848 11.457Z"/>
</mask>
<path d="M1.58496 11.3848V18.0947H0.1875V10.3125L1.58496 11.3848ZM1.43848 11.457V17.9492H1.43945V11.457L0.333008 10.6084L1.43848 11.457Z" fill="#FFFAF3"/>
<path d="M1.58496 11.3848H1.7709V11.2931L1.69815 11.2372L1.58496 11.3848ZM1.58496 18.0947V18.2807H1.7709V18.0947H1.58496ZM0.1875 18.0947H0.00156088V18.2807H0.1875V18.0947ZM0.1875 10.3125L0.30069 10.165L0.00156088 9.93546V10.3125H0.1875ZM1.43848 11.457H1.62442V11.3654L1.5517 11.3095L1.43848 11.457ZM1.43848 17.9492H1.25254V18.1352H1.43848V17.9492ZM1.43945 17.9492V18.1352H1.62539V17.9492H1.43945ZM1.43945 11.457H1.62539V11.3653L1.55261 11.3095L1.43945 11.457ZM0.333008 10.6084L0.446169 10.4609L0.219784 10.7559L0.333008 10.6084ZM1.58496 11.3848H1.39902V18.0947H1.58496H1.7709V11.3848H1.58496ZM1.58496 18.0947V17.9088H0.1875V18.0947V18.2807H1.58496V18.0947ZM0.1875 18.0947H0.373439V10.3125H0.1875H0.00156088V18.0947H0.1875ZM0.1875 10.3125L0.0743104 10.46L1.47177 11.5323L1.58496 11.3848L1.69815 11.2372L0.30069 10.165L0.1875 10.3125ZM1.43848 11.457H1.25254V17.9492H1.43848H1.62442V11.457H1.43848ZM1.43848 17.9492V18.1352H1.43945V17.9492V17.7633H1.43848V17.9492ZM1.43945 17.9492H1.62539V11.457H1.43945H1.25351V17.9492H1.43945ZM1.43945 11.457L1.55261 11.3095L0.446169 10.4609L0.333008 10.6084L0.219847 10.7559L1.32629 11.6046L1.43945 11.457ZM0.333008 10.6084L0.219784 10.7559L1.32525 11.6045L1.43848 11.457L1.5517 11.3095L0.446232 10.4609L0.333008 10.6084Z" fill="#FFFAF3" mask="url(#path-2-outside-1_582_3622)"/>
<path d="M12.7142 7.56133V5.54675H3.05909C2.62906 5.54763 2.21691 5.71896 1.91298 6.0232C1.60906 6.32744 1.43814 6.73976 1.4377 7.1698V8.668L2.50309 9.48702L7.07594 12.9981L7.98352 13.6973L12.7142 17.3293L12.8806 17.4578L12.9109 17.4811L13.8189 18.1839V20.2208C13.8189 20.9449 13.5312 21.6393 13.0192 22.1513C12.5073 22.6632 11.8129 22.9509 11.0888 22.9509H0.332031V19.0555H1.4377V21.8465H11.0928C11.5233 21.8457 11.9358 21.6739 12.2398 21.3691C12.5438 21.0643 12.7144 20.6513 12.7142 20.2208V18.7226L11.7037 17.9469L7.07594 14.3925L6.16836 13.6953L2.69586 11.0275L1.4377 10.062L0.332031 9.21235V7.1698C0.332473 6.44603 0.620298 5.75206 1.13224 5.24043C1.64417 4.72881 2.33832 4.44141 3.06209 4.44141H13.8199V7.56166L12.7142 7.56133Z" fill="#FFFAF3"/>
<mask id="path-5-outside-2_582_3622" maskUnits="userSpaceOnUse" x="-0.8125" y="3.29688" width="15" height="20" fill="black">
<rect fill="white" x="-0.8125" y="3.29688" width="15" height="20"/>
<path d="M13.9668 7.70898H12.5693V5.69434H3.06055C2.66924 5.69517 2.29418 5.85114 2.01758 6.12793C1.74102 6.40477 1.58546 6.78057 1.58496 7.17188V8.59766L2.59277 9.37305L7.16602 12.8838L12.8047 17.2158L12.9707 17.3438L13.002 17.3672L13.9658 18.1143V20.2227C13.9658 20.9851 13.663 21.7166 13.124 22.2559C12.5847 22.7952 11.8526 23.0986 11.0898 23.0986H0.1875V18.9111H1.58496V21.7021H11.0938C11.4856 21.7013 11.861 21.545 12.1377 21.2676C12.4143 20.9902 12.5695 20.6144 12.5693 20.2227V18.7959L11.6162 18.0645L6.98828 14.5098L6.08105 13.8125L2.6084 11.1445L0.1875 9.28613V7.1709C0.188172 6.40876 0.491179 5.67744 1.03027 5.13867C1.56954 4.59983 2.30113 4.29687 3.06348 4.29688H13.9668V7.70898ZM11.6172 22.9004C11.4447 22.9344 11.2682 22.9521 11.0898 22.9521L11.3604 22.9395C11.4468 22.9309 11.5324 22.9171 11.6172 22.9004ZM11.6543 22.8916C11.7271 22.8762 11.799 22.8581 11.8701 22.8369C11.799 22.8582 11.7271 22.8762 11.6543 22.8916ZM11.9062 22.8252C11.9793 22.8023 12.0513 22.777 12.1221 22.748C12.0513 22.777 11.9792 22.8023 11.9062 22.8252ZM12.1484 22.7363C12.2155 22.7081 12.2811 22.6771 12.3457 22.6436C12.2811 22.6771 12.2154 22.7081 12.1484 22.7363ZM12.8809 17.459L12.9111 17.4824L13.8193 18.1846V20.2217C13.8193 20.9457 13.5314 21.6404 13.0195 22.1523C12.8349 22.3369 12.6262 22.4919 12.4014 22.6152C12.6264 22.4919 12.8358 22.338 13.0205 22.1533C13.5323 21.6414 13.8202 20.9465 13.8203 20.2227V18.1855L12.8818 17.459L12.7529 17.3594L12.8809 17.459ZM0.333008 9.21387L5.2627 13L2.69629 11.0283L1.43848 10.0625L0.333008 9.21289V9.21387ZM1.62988 6.4082C1.50568 6.64084 1.4388 6.9024 1.43848 7.1709V8.66895H1.43945V7.1709C1.43986 6.90257 1.50604 6.64084 1.62988 6.4082ZM13.8203 7.5625L13.8213 7.56348V4.44336H13.8203V7.5625ZM2.05566 5.89941C2.04638 5.90676 2.03647 5.91334 2.02734 5.9209C2.03648 5.91334 2.04638 5.90675 2.05566 5.89941ZM2.19141 5.80273C2.17732 5.8117 2.16323 5.82067 2.14941 5.83008C2.16324 5.82068 2.17732 5.81169 2.19141 5.80273ZM2.33887 5.71973C2.31555 5.73136 2.29229 5.7431 2.26953 5.75586C2.2923 5.74313 2.31554 5.73134 2.33887 5.71973ZM2.47266 5.66016C2.44724 5.67009 2.42235 5.68118 2.39746 5.69238C2.42235 5.68121 2.44724 5.67007 2.47266 5.66016ZM2.61426 5.61133C2.58653 5.61931 2.55946 5.62924 2.53223 5.63867C2.55945 5.62926 2.58654 5.61929 2.61426 5.61133ZM3.05957 5.54785C2.9249 5.54814 2.7924 5.56701 2.66406 5.59961C2.74149 5.57998 2.8203 5.56473 2.90039 5.55664L3.06055 5.54785H3.05957Z"/>
</mask>
<path d="M13.9668 7.70898H12.5693V5.69434H3.06055C2.66924 5.69517 2.29418 5.85114 2.01758 6.12793C1.74102 6.40477 1.58546 6.78057 1.58496 7.17188V8.59766L2.59277 9.37305L7.16602 12.8838L12.8047 17.2158L12.9707 17.3438L13.002 17.3672L13.9658 18.1143V20.2227C13.9658 20.9851 13.663 21.7166 13.124 22.2559C12.5847 22.7952 11.8526 23.0986 11.0898 23.0986H0.1875V18.9111H1.58496V21.7021H11.0938C11.4856 21.7013 11.861 21.545 12.1377 21.2676C12.4143 20.9902 12.5695 20.6144 12.5693 20.2227V18.7959L11.6162 18.0645L6.98828 14.5098L6.08105 13.8125L2.6084 11.1445L0.1875 9.28613V7.1709C0.188172 6.40876 0.491179 5.67744 1.03027 5.13867C1.56954 4.59983 2.30113 4.29687 3.06348 4.29688H13.9668V7.70898ZM11.6172 22.9004C11.4447 22.9344 11.2682 22.9521 11.0898 22.9521L11.3604 22.9395C11.4468 22.9309 11.5324 22.9171 11.6172 22.9004ZM11.6543 22.8916C11.7271 22.8762 11.799 22.8581 11.8701 22.8369C11.799 22.8582 11.7271 22.8762 11.6543 22.8916ZM11.9062 22.8252C11.9793 22.8023 12.0513 22.777 12.1221 22.748C12.0513 22.777 11.9792 22.8023 11.9062 22.8252ZM12.1484 22.7363C12.2155 22.7081 12.2811 22.6771 12.3457 22.6436C12.2811 22.6771 12.2154 22.7081 12.1484 22.7363ZM12.8809 17.459L12.9111 17.4824L13.8193 18.1846V20.2217C13.8193 20.9457 13.5314 21.6404 13.0195 22.1523C12.8349 22.3369 12.6262 22.4919 12.4014 22.6152C12.6264 22.4919 12.8358 22.338 13.0205 22.1533C13.5323 21.6414 13.8202 20.9465 13.8203 20.2227V18.1855L12.8818 17.459L12.7529 17.3594L12.8809 17.459ZM0.333008 9.21387L5.2627 13L2.69629 11.0283L1.43848 10.0625L0.333008 9.21289V9.21387ZM1.62988 6.4082C1.50568 6.64084 1.4388 6.9024 1.43848 7.1709V8.66895H1.43945V7.1709C1.43986 6.90257 1.50604 6.64084 1.62988 6.4082ZM13.8203 7.5625L13.8213 7.56348V4.44336H13.8203V7.5625ZM2.05566 5.89941C2.04638 5.90676 2.03647 5.91334 2.02734 5.9209C2.03648 5.91334 2.04638 5.90675 2.05566 5.89941ZM2.19141 5.80273C2.17732 5.8117 2.16323 5.82067 2.14941 5.83008C2.16324 5.82068 2.17732 5.81169 2.19141 5.80273ZM2.33887 5.71973C2.31555 5.73136 2.29229 5.7431 2.26953 5.75586C2.2923 5.74313 2.31554 5.73134 2.33887 5.71973ZM2.47266 5.66016C2.44724 5.67009 2.42235 5.68118 2.39746 5.69238C2.42235 5.68121 2.44724 5.67007 2.47266 5.66016ZM2.61426 5.61133C2.58653 5.61931 2.55946 5.62924 2.53223 5.63867C2.55945 5.62926 2.58654 5.61929 2.61426 5.61133ZM3.05957 5.54785C2.9249 5.54814 2.7924 5.56701 2.66406 5.59961C2.74149 5.57998 2.8203 5.56473 2.90039 5.55664L3.06055 5.54785H3.05957Z" fill="#FFFAF3"/>
<path d="M13.9668 7.70898V7.89492H14.1527V7.70898H13.9668ZM12.5693 7.70898H12.3834V7.89492H12.5693V7.70898ZM12.5693 5.69434H12.7553V5.5084H12.5693V5.69434ZM3.06055 5.69434V5.5084L3.06015 5.5084L3.06055 5.69434ZM2.01758 6.12793L1.88605 5.9965L1.88603 5.99652L2.01758 6.12793ZM1.58496 7.17188L1.39902 7.17164V7.17188H1.58496ZM1.58496 8.59766H1.39902V8.6892L1.47158 8.74503L1.58496 8.59766ZM2.59277 9.37305L2.47939 9.52042L2.47955 9.52054L2.59277 9.37305ZM7.16602 12.8838L7.2793 12.7363L7.27924 12.7363L7.16602 12.8838ZM12.8047 17.2158L12.9182 17.0685L12.918 17.0684L12.8047 17.2158ZM12.9707 17.3438L12.8572 17.491L12.8591 17.4925L12.9707 17.3438ZM13.002 17.3672L13.1159 17.2202L13.1135 17.2184L13.002 17.3672ZM13.9658 18.1143H14.1518V18.0231L14.0797 17.9673L13.9658 18.1143ZM13.9658 20.2227L14.1518 20.2227V20.2227H13.9658ZM13.124 22.2559L13.2555 22.3873L13.2555 22.3873L13.124 22.2559ZM0.1875 23.0986H0.00156088V23.2846H0.1875V23.0986ZM0.1875 18.9111V18.7252H0.00156088V18.9111H0.1875ZM1.58496 18.9111H1.7709V18.7252H1.58496V18.9111ZM1.58496 21.7021H1.39902V21.8881H1.58496V21.7021ZM11.0938 21.7021V21.8881L11.0941 21.8881L11.0938 21.7021ZM12.1377 21.2676L12.2693 21.3989L12.2694 21.3989L12.1377 21.2676ZM12.5693 20.2227H12.3834V20.2227L12.5693 20.2227ZM12.5693 18.7959H12.7553V18.7042L12.6825 18.6484L12.5693 18.7959ZM11.6162 18.0645L11.5029 18.2119L11.503 18.212L11.6162 18.0645ZM6.98828 14.5098L6.87497 14.6572L6.87502 14.6572L6.98828 14.5098ZM6.08105 13.8125L6.19436 13.6651L6.19434 13.6651L6.08105 13.8125ZM2.6084 11.1445L2.72168 10.9971L2.72162 10.997L2.6084 11.1445ZM0.1875 9.28613H0.00156088V9.3778L0.0742776 9.43363L0.1875 9.28613ZM0.1875 7.1709L0.00156088 7.17073V7.1709H0.1875ZM1.03027 5.13867L0.898846 5.00714L0.898835 5.00715L1.03027 5.13867ZM3.06348 4.29688V4.48281V4.48281V4.29688ZM13.9668 4.29688H14.1527V4.11094H13.9668V4.29688ZM11.6172 22.9004L11.6532 23.0828L11.5813 22.718L11.6172 22.9004ZM11.0898 22.9521L11.0811 22.7664L11.0899 23.1381L11.0898 22.9521ZM11.3604 22.9395L11.3691 23.1254L11.3788 23.1245L11.3604 22.9395ZM11.6543 22.8916L11.6158 22.7097L11.6928 23.0735L11.6543 22.8916ZM11.8701 22.8369L11.9234 23.0151L11.8169 22.6587L11.8701 22.8369ZM11.9062 22.8252L11.8505 22.6478L11.9619 23.0026L11.9062 22.8252ZM12.1221 22.748L12.1925 22.9201L12.0517 22.5759L12.1221 22.748ZM12.1484 22.7363L12.0762 22.565L12.2206 22.9077L12.1484 22.7363ZM12.3457 22.6436L12.4314 22.8086L12.2601 22.4785L12.3457 22.6436ZM12.8809 17.459L12.7666 17.6057L12.767 17.606L12.8809 17.459ZM12.9111 17.4824L12.7973 17.6294L12.7974 17.6295L12.9111 17.4824ZM13.8193 18.1846H14.0053V18.0933L13.9331 18.0375L13.8193 18.1846ZM13.0195 22.1523L13.151 22.2838L13.151 22.2838L13.0195 22.1523ZM12.4014 22.6152L12.3119 22.4522L12.4907 22.7783L12.4014 22.6152ZM13.0205 22.1533L13.152 22.2848L13.152 22.2848L13.0205 22.1533ZM13.8203 20.2227L14.0063 20.2227V20.2227H13.8203ZM13.8203 18.1855H14.0063V18.0943L13.9341 18.0385L13.8203 18.1855ZM12.8818 17.459L12.9957 17.312L12.9955 17.3119L12.8818 17.459ZM12.7529 17.3594L12.8666 17.2122L12.6387 17.5061L12.7529 17.3594ZM0.333008 9.21387H0.147069V9.30551L0.21975 9.36133L0.333008 9.21387ZM5.2627 13L5.14944 13.1475L5.37598 12.8526L5.2627 13ZM2.69629 11.0283L2.80957 10.8809L2.80953 10.8808L2.69629 11.0283ZM1.43848 10.0625L1.32517 10.2099L1.32523 10.21L1.43848 10.0625ZM0.333008 9.21289L0.446314 9.06546L0.147069 8.83548V9.21289H0.333008ZM1.62988 6.4082L1.79401 6.49558L1.46586 6.32063L1.62988 6.4082ZM1.43848 7.1709L1.25254 7.17067V7.1709H1.43848ZM1.43848 8.66895H1.25254V8.85488H1.43848V8.66895ZM1.43945 8.66895V8.85488H1.62539V8.66895H1.43945ZM1.43945 7.1709L1.25351 7.17062V7.1709H1.43945ZM13.8203 7.5625H13.6344V7.63952L13.6888 7.69398L13.8203 7.5625ZM13.8213 7.56348L13.6898 7.69496L14.0072 8.01237V7.56348H13.8213ZM13.8213 4.44336H14.0072V4.25742H13.8213V4.44336ZM13.8203 4.44336V4.25742H13.6344V4.44336H13.8203ZM2.05566 5.89941L2.17107 6.0452L1.94034 5.75356L2.05566 5.89941ZM2.02734 5.9209L1.90878 5.77767L2.14584 6.06419L2.02734 5.9209ZM2.19141 5.80273L2.29128 5.95958L2.09167 5.64581L2.19141 5.80273ZM2.14941 5.83008L2.04476 5.67639L2.25395 5.98385L2.14941 5.83008ZM2.33887 5.71973L2.42188 5.88611L2.25601 5.55327L2.33887 5.71973ZM2.26953 5.75586L2.17861 5.59367L2.3603 5.91814L2.26953 5.75586ZM2.47266 5.66016L2.54034 5.83334L2.40512 5.48692L2.47266 5.66016ZM2.39746 5.69238L2.32114 5.52283L2.47363 5.86201L2.39746 5.69238ZM2.61426 5.61133L2.66569 5.79001L2.56293 5.43262L2.61426 5.61133ZM2.53223 5.63867L2.47135 5.46298L2.59297 5.81441L2.53223 5.63867ZM3.05957 5.54785V5.36191L3.05917 5.36191L3.05957 5.54785ZM2.66406 5.59961L2.61829 5.41939L2.70976 5.77985L2.66406 5.59961ZM2.90039 5.55664L2.89019 5.37079L2.88171 5.37164L2.90039 5.55664ZM3.06055 5.54785L3.07074 5.73351L3.06055 5.36191V5.54785ZM13.9668 7.70898V7.52305H12.5693V7.70898V7.89492H13.9668V7.70898ZM12.5693 7.70898H12.7553V5.69434H12.5693H12.3834V7.70898H12.5693ZM12.5693 5.69434V5.5084H3.06055V5.69434V5.88028H12.5693V5.69434ZM3.06055 5.69434L3.06015 5.5084C2.61962 5.50934 2.19742 5.68492 1.88605 5.9965L2.01758 6.12793L2.1491 6.25936C2.39094 6.01736 2.71885 5.881 3.06094 5.88027L3.06055 5.69434ZM2.01758 6.12793L1.88603 5.99652C1.57464 6.30823 1.39959 6.73122 1.39902 7.17164L1.58496 7.17188L1.7709 7.17211C1.77134 6.82992 1.9074 6.50132 2.14912 6.25934L2.01758 6.12793ZM1.58496 7.17188H1.39902V8.59766H1.58496H1.7709V7.17188H1.58496ZM1.58496 8.59766L1.47158 8.74503L2.47939 9.52042L2.59277 9.37305L2.70616 9.22568L1.69834 8.45029L1.58496 8.59766ZM2.59277 9.37305L2.47955 9.52054L7.05279 13.0313L7.16602 12.8838L7.27924 12.7363L2.706 9.22556L2.59277 9.37305ZM7.16602 12.8838L7.05274 13.0312L12.6914 17.3633L12.8047 17.2158L12.918 17.0684L7.2793 12.7363L7.16602 12.8838ZM12.8047 17.2158L12.6912 17.3631L12.8572 17.491L12.9707 17.3438L13.0842 17.1965L12.9182 17.0685L12.8047 17.2158ZM12.9707 17.3438L12.8591 17.4925L12.8904 17.5159L13.002 17.3672L13.1135 17.2184L13.0823 17.195L12.9707 17.3438ZM13.002 17.3672L12.888 17.5142L13.8519 18.2612L13.9658 18.1143L14.0797 17.9673L13.1159 17.2202L13.002 17.3672ZM13.9658 18.1143H13.7799V20.2227H13.9658H14.1518V18.1143H13.9658ZM13.9658 20.2227L13.7799 20.2226C13.7798 20.9358 13.4967 21.6201 12.9925 22.1244L13.124 22.2559L13.2555 22.3873C13.8294 21.8132 14.1517 21.0344 14.1518 20.2227L13.9658 20.2227ZM13.124 22.2559L12.9925 22.1244C12.4881 22.6289 11.8032 22.9127 11.0898 22.9127V23.0986V23.2846C11.9019 23.2846 12.6813 22.9615 13.2555 22.3873L13.124 22.2559ZM11.0898 23.0986V22.9127H0.1875V23.0986V23.2846H11.0898V23.0986ZM0.1875 23.0986H0.373439V18.9111H0.1875H0.00156088V23.0986H0.1875ZM0.1875 18.9111V19.0971H1.58496V18.9111V18.7252H0.1875V18.9111ZM1.58496 18.9111H1.39902V21.7021H1.58496H1.7709V18.9111H1.58496ZM1.58496 21.7021V21.8881H11.0938V21.7021V21.5162H1.58496V21.7021ZM11.0938 21.7021L11.0941 21.8881C11.5353 21.8872 11.9579 21.7112 12.2693 21.3989L12.1377 21.2676L12.006 21.1363C11.7641 21.3789 11.4359 21.5155 11.0934 21.5162L11.0938 21.7021ZM12.1377 21.2676L12.2694 21.3989C12.5807 21.0866 12.7555 20.6636 12.7553 20.2226L12.5693 20.2227L12.3834 20.2227C12.3836 20.5652 12.2478 20.8938 12.006 21.1363L12.1377 21.2676ZM12.5693 20.2227H12.7553V18.7959H12.5693H12.3834V20.2227H12.5693ZM12.5693 18.7959L12.6825 18.6484L11.7294 17.9169L11.6162 18.0645L11.503 18.212L12.4561 18.9434L12.5693 18.7959ZM11.6162 18.0645L11.7295 17.917L7.10154 14.3623L6.98828 14.5098L6.87502 14.6572L11.5029 18.2119L11.6162 18.0645ZM6.98828 14.5098L7.10159 14.3623L6.19436 13.6651L6.08105 13.8125L5.96775 13.9599L6.87497 14.6572L6.98828 14.5098ZM6.08105 13.8125L6.19434 13.6651L2.72168 10.9971L2.6084 11.1445L2.49512 11.292L5.96777 13.9599L6.08105 13.8125ZM2.6084 11.1445L2.72162 10.997L0.300722 9.13864L0.1875 9.28613L0.0742776 9.43363L2.49518 11.292L2.6084 11.1445ZM0.1875 9.28613H0.373439V7.1709H0.1875H0.00156088V9.28613H0.1875ZM0.1875 7.1709L0.373439 7.17106C0.374068 6.45813 0.657521 5.77407 1.16171 5.27019L1.03027 5.13867L0.898835 5.00715C0.324836 5.5808 0.00227682 6.35939 0.00156096 7.17073L0.1875 7.1709ZM1.03027 5.13867L1.1617 5.2702C1.66611 4.76619 2.35043 4.48281 3.06348 4.48281V4.29688V4.11094C2.25183 4.11094 1.47297 4.43347 0.898846 5.00714L1.03027 5.13867ZM3.06348 4.29688V4.48281H13.9668V4.29688V4.11094H3.06348V4.29688ZM13.9668 4.29688H13.7809V7.70898H13.9668H14.1527V4.29688H13.9668ZM11.6172 22.9004L11.5812 22.718C11.4203 22.7497 11.2559 22.7662 11.0898 22.7662L11.0898 22.9521L11.0899 23.1381C11.2805 23.1381 11.4691 23.1191 11.6532 23.0828L11.6172 22.9004ZM11.0898 22.9521L11.0986 23.1379L11.3691 23.1252L11.3604 22.9395L11.3516 22.7537L11.0811 22.7664L11.0898 22.9521ZM11.3604 22.9395L11.3788 23.1245C11.4726 23.1151 11.5642 23.1003 11.6531 23.0828L11.6172 22.9004L11.5813 22.718C11.5006 22.7338 11.4211 22.7466 11.342 22.7544L11.3604 22.9395ZM11.6543 22.8916L11.6928 23.0735C11.7701 23.0572 11.847 23.0379 11.9233 23.0151L11.8701 22.8369L11.8169 22.6587C11.751 22.6784 11.6841 22.6953 11.6158 22.7097L11.6543 22.8916ZM11.8701 22.8369L11.8169 22.6588C11.7511 22.6784 11.6841 22.6952 11.6158 22.7097L11.6543 22.8916L11.6928 23.0735C11.77 23.0571 11.8469 23.0379 11.9234 23.0151L11.8701 22.8369ZM11.9062 22.8252L11.9619 23.0026C12.0389 22.9785 12.1159 22.9514 12.1924 22.9202L12.1221 22.748L12.0517 22.5759C11.9866 22.6025 11.9197 22.6261 11.8506 22.6478L11.9062 22.8252ZM12.1221 22.748L12.0517 22.576C11.9867 22.6025 11.9197 22.6261 11.8505 22.6478L11.9062 22.8252L11.962 23.0026C12.0388 22.9785 12.1159 22.9515 12.1925 22.9201L12.1221 22.748ZM12.1484 22.7363L12.2206 22.9077C12.2926 22.8774 12.3626 22.8442 12.4313 22.8086L12.3457 22.6436L12.2601 22.4785C12.1995 22.5099 12.1384 22.5388 12.0763 22.565L12.1484 22.7363ZM12.3457 22.6436L12.26 22.4785C12.1996 22.5099 12.1384 22.5388 12.0762 22.565L12.1484 22.7363L12.2207 22.9077C12.2925 22.8774 12.3626 22.8443 12.4314 22.8086L12.3457 22.6436ZM12.8809 17.459L12.767 17.606L12.7973 17.6294L12.9111 17.4824L13.025 17.3354L12.9947 17.312L12.8809 17.459ZM12.9111 17.4824L12.7974 17.6295L13.7056 18.3317L13.8193 18.1846L13.9331 18.0375L13.0249 17.3353L12.9111 17.4824ZM13.8193 18.1846H13.6334V20.2217H13.8193H14.0053V18.1846H13.8193ZM13.8193 20.2217H13.6334C13.6334 20.8963 13.3651 21.5438 12.888 22.0209L13.0195 22.1523L13.151 22.2838C13.6978 21.737 14.0053 20.995 14.0053 20.2217H13.8193ZM13.0195 22.1523L12.8881 22.0208C12.7162 22.1926 12.5217 22.3371 12.3119 22.4522L12.4014 22.6152L12.4908 22.7783C12.7307 22.6467 12.9536 22.4812 13.151 22.2838L13.0195 22.1523ZM12.4014 22.6152L12.4907 22.7783C12.7303 22.647 12.9541 22.4826 13.152 22.2848L13.0205 22.1533L12.889 22.0218C12.7175 22.1933 12.5225 22.3368 12.312 22.4522L12.4014 22.6152ZM13.0205 22.1533L13.152 22.2848C13.6987 21.738 14.0062 20.9959 14.0063 20.2227L13.8203 20.2227L13.6344 20.2226C13.6343 20.8972 13.366 21.5448 12.889 22.0219L13.0205 22.1533ZM13.8203 20.2227H14.0063V18.1855H13.8203H13.6344V20.2227H13.8203ZM13.8203 18.1855L13.9341 18.0385L12.9957 17.312L12.8818 17.459L12.768 17.606L13.7065 18.3326L13.8203 18.1855ZM12.8818 17.459L12.9955 17.3119L12.8666 17.2122L12.7529 17.3594L12.6392 17.5065L12.7681 17.6061L12.8818 17.459ZM12.7529 17.3594L12.6387 17.5061L12.7666 17.6057L12.8809 17.459L12.9951 17.3123L12.8672 17.2127L12.7529 17.3594ZM0.333008 9.21387L0.21975 9.36133L5.14944 13.1475L5.2627 13L5.37595 12.8525L0.446265 9.0664L0.333008 9.21387ZM5.2627 13L5.37598 12.8526L2.80957 10.8809L2.69629 11.0283L2.58301 11.1758L5.14942 13.1474L5.2627 13ZM2.69629 11.0283L2.80953 10.8808L1.55172 9.91502L1.43848 10.0625L1.32523 10.21L2.58305 11.1758L2.69629 11.0283ZM1.43848 10.0625L1.55178 9.91507L0.446314 9.06546L0.333008 9.21289L0.219702 9.36032L1.32517 10.2099L1.43848 10.0625ZM0.333008 9.21289H0.147069V9.21387H0.333008H0.518947V9.21289H0.333008ZM1.62988 6.4082L1.46586 6.32063C1.32745 6.57988 1.2529 6.87139 1.25254 7.17067L1.43848 7.1709L1.62442 7.17112C1.6247 6.9334 1.68391 6.70181 1.79391 6.49578L1.62988 6.4082ZM1.43848 7.1709H1.25254V8.66895H1.43848H1.62442V7.1709H1.43848ZM1.43848 8.66895V8.85488H1.43945V8.66895V8.48301H1.43848V8.66895ZM1.43945 8.66895H1.62539V7.1709H1.43945H1.25351V8.66895H1.43945ZM1.43945 7.1709L1.62539 7.17118C1.62575 6.93325 1.68443 6.70143 1.79401 6.49558L1.62988 6.4082L1.46575 6.32083C1.32765 6.58026 1.25396 6.87189 1.25351 7.17062L1.43945 7.1709ZM13.8203 7.5625L13.6888 7.69398L13.6898 7.69496L13.8213 7.56348L13.9528 7.432L13.9518 7.43102L13.8203 7.5625ZM13.8213 7.56348H14.0072V4.44336H13.8213H13.6354V7.56348H13.8213ZM13.8213 4.44336V4.25742H13.8203V4.44336V4.6293H13.8213V4.44336ZM13.8203 4.44336H13.6344V7.5625H13.8203H14.0063V4.44336H13.8203ZM2.05566 5.89941L1.94026 5.75363C1.93894 5.75467 1.93752 5.75571 1.93142 5.76019C1.92657 5.76374 1.91792 5.7701 1.90878 5.77767L2.02734 5.9209L2.14591 6.06413C2.1459 6.06414 2.14677 6.06343 2.15148 6.05996C2.15494 6.05743 2.16311 6.0515 2.17107 6.0452L2.05566 5.89941ZM2.02734 5.9209L2.14584 6.06419C2.14568 6.06432 2.14595 6.06409 2.14694 6.06334C2.14797 6.06255 2.14931 6.06156 2.15152 6.05994C2.15498 6.05739 2.1631 6.05151 2.17099 6.04527L2.05566 5.89941L1.94034 5.75356C1.93895 5.75466 1.93747 5.75574 1.93138 5.76022C1.92652 5.76378 1.91793 5.7701 1.90885 5.77761L2.02734 5.9209ZM2.19141 5.80273L2.09154 5.64589C2.0779 5.65457 2.06136 5.66509 2.04476 5.67639L2.14941 5.83008L2.25407 5.98377C2.26511 5.97625 2.27674 5.96883 2.29128 5.95958L2.19141 5.80273ZM2.14941 5.83008L2.25395 5.98385C2.26513 5.97625 2.27699 5.96866 2.29114 5.95966L2.19141 5.80273L2.09167 5.64581C2.07765 5.65472 2.06135 5.66511 2.04488 5.67631L2.14941 5.83008ZM2.33887 5.71973L2.25586 5.55335C2.23245 5.56503 2.20564 5.57851 2.17861 5.59367L2.26953 5.75586L2.36045 5.91805C2.37893 5.90769 2.39865 5.8977 2.42188 5.88611L2.33887 5.71973ZM2.26953 5.75586L2.3603 5.91814C2.37898 5.90769 2.39891 5.89754 2.42172 5.88618L2.33887 5.71973L2.25601 5.55327C2.23217 5.56514 2.20561 5.57856 2.17876 5.59358L2.26953 5.75586ZM2.47266 5.66016L2.40497 5.48697C2.3747 5.4988 2.34594 5.51167 2.32114 5.52283L2.39746 5.69238L2.47378 5.86194C2.49875 5.8507 2.51978 5.84138 2.54034 5.83334L2.47266 5.66016ZM2.39746 5.69238L2.47363 5.86201C2.49903 5.8506 2.51979 5.84135 2.5402 5.83339L2.47266 5.66016L2.40512 5.48692C2.37468 5.49878 2.34567 5.51181 2.32129 5.52276L2.39746 5.69238ZM2.61426 5.61133L2.56283 5.43264C2.52884 5.44243 2.4943 5.45503 2.47135 5.46298L2.53223 5.63867L2.5931 5.81436C2.62462 5.80344 2.64423 5.79619 2.66569 5.79001L2.61426 5.61133ZM2.53223 5.63867L2.59297 5.81441C2.62492 5.80337 2.64415 5.7962 2.66559 5.79004L2.61426 5.61133L2.56293 5.43262C2.52893 5.44238 2.49399 5.45515 2.47148 5.46294L2.53223 5.63867ZM3.05957 5.54785L3.05917 5.36191C2.90737 5.36224 2.75958 5.38351 2.61829 5.41939L2.66406 5.59961L2.70984 5.77983C2.82523 5.75052 2.94242 5.73404 3.05997 5.73379L3.05957 5.54785ZM2.66406 5.59961L2.70976 5.77985C2.78039 5.76194 2.85001 5.74861 2.91908 5.74164L2.90039 5.55664L2.88171 5.37164C2.79059 5.38085 2.70258 5.39802 2.61837 5.41937L2.66406 5.59961ZM2.90039 5.55664L2.91058 5.7423L3.07074 5.73351L3.06055 5.54785L3.05036 5.36219L2.8902 5.37098L2.90039 5.55664ZM3.06055 5.54785V5.36191H3.05957V5.54785V5.73379H3.06055V5.54785Z" fill="#FFFAF3" mask="url(#path-5-outside-2_582_3622)"/>
<mask id="path-7-outside-3_582_3622" maskUnits="userSpaceOnUse" x="6.74219" y="7.52344" width="8" height="10" fill="black">
<rect fill="white" x="6.74219" y="7.52344" width="8" height="10"/>
<path d="M13.9639 17.082L12.5674 16.0088V10.3594L8.88965 13.1836L7.74219 12.3027L11.5586 9.37207L12.6631 8.52344H13.9639V17.082ZM8.88965 12.999V13L12.7129 10.0635V10.0625L8.88965 12.999Z"/>
</mask>
<path d="M13.9639 17.082L12.5674 16.0088V10.3594L8.88965 13.1836L7.74219 12.3027L11.5586 9.37207L12.6631 8.52344H13.9639V17.082ZM8.88965 12.999V13L12.7129 10.0635V10.0625L8.88965 12.999Z" fill="#FFFAF3"/>
<path d="M13.9639 17.082L13.8506 17.2295L14.1498 17.4594V17.082H13.9639ZM12.5674 16.0088H12.3814V16.1004L12.4541 16.1562L12.5674 16.0088ZM12.5674 10.3594H12.7533V9.98215L12.4541 10.2119L12.5674 10.3594ZM8.88965 13.1836L8.77643 13.3311L8.88967 13.418L9.0029 13.3311L8.88965 13.1836ZM7.74219 12.3027L7.62894 12.1553L7.43686 12.3028L7.62896 12.4502L7.74219 12.3027ZM11.5586 9.37207L11.6718 9.51954L11.6719 9.51951L11.5586 9.37207ZM12.6631 8.52344V8.3375H12.5999L12.5498 8.37599L12.6631 8.52344ZM13.9639 8.52344H14.1498V8.3375H13.9639V8.52344ZM8.88965 12.999L8.77639 12.8516L8.70371 12.9074V12.999H8.88965ZM8.88965 13H8.70371V13.3773L9.00291 13.1475L8.88965 13ZM12.7129 10.0635L12.8262 10.2109L12.8988 10.1551V10.0635H12.7129ZM12.7129 10.0625H12.8988V9.68523L12.5996 9.91504L12.7129 10.0625ZM13.9639 17.082L14.0772 16.9346L12.6807 15.8614L12.5674 16.0088L12.4541 16.1562L13.8506 17.2295L13.9639 17.082ZM12.5674 16.0088H12.7533V10.3594H12.5674H12.3814V16.0088H12.5674ZM12.5674 10.3594L12.4541 10.2119L8.7764 13.0361L8.88965 13.1836L9.0029 13.3311L12.6806 10.5068L12.5674 10.3594ZM8.88965 13.1836L9.00287 13.0361L7.85541 12.1552L7.74219 12.3027L7.62896 12.4502L8.77643 13.3311L8.88965 13.1836ZM7.74219 12.3027L7.85543 12.4502L11.6718 9.51954L11.5586 9.37207L11.4453 9.2246L7.62894 12.1553L7.74219 12.3027ZM11.5586 9.37207L11.6719 9.51951L12.7764 8.67088L12.6631 8.52344L12.5498 8.37599L11.4453 9.22463L11.5586 9.37207ZM12.6631 8.52344V8.70938H13.9639V8.52344V8.3375H12.6631V8.52344ZM13.9639 8.52344H13.7779V17.082H13.9639H14.1498V8.52344H13.9639ZM8.88965 12.999H8.70371V13H8.88965H9.07559V12.999H8.88965ZM8.88965 13L9.00291 13.1475L12.8262 10.2109L12.7129 10.0635L12.5996 9.91601L8.77639 12.8525L8.88965 13ZM12.7129 10.0635H12.8988V10.0625H12.7129H12.527V10.0635H12.7129ZM12.7129 10.0625L12.5996 9.91504L8.77639 12.8516L8.88965 12.999L9.00291 13.1465L12.8262 10.21L12.7129 10.0625Z" fill="#FFFAF3" mask="url(#path-7-outside-3_582_3622)"/>
<path d="M12.8828 17.4609L12.9131 17.4839L13.8207 18.1871" fill="#FFFAF3"/>
<path d="M136.402 6.38415V6.16507H137.434V6.38415H137.049V7.42188H136.786V6.38415H136.402ZM137.587 6.16507H137.914L138.26 7.00948H138.275L138.621 6.16507H138.949V7.42188H138.691V6.60384H138.681L138.355 7.41574H138.18L137.855 6.60078H137.844V7.42188H137.587V6.16507Z" fill="#FFFAF3"/>
</svg>
