<svg width="128" height="29" viewBox="0 0 128 29" fill="none" xmlns="http://www.w3.org/2000/svg">
<path d="M117.337 9.16813H122.544L122.674 9.65427H117.095L117.337 9.16813ZM126.988 14.1852C127.037 14.1852 127.062 14.224 127.062 14.3018C127.062 14.3796 127.037 14.4185 126.988 14.4185C126.752 14.4185 126.374 14.4055 125.854 14.3796C125.333 14.3537 124.955 14.3407 124.719 14.3407C124.409 14.3407 124.044 14.3537 123.622 14.3796C123.201 14.4055 122.872 14.4185 122.637 14.4185C122.587 14.4185 122.562 14.3796 122.562 14.3018C122.562 14.224 122.587 14.1852 122.637 14.1852C123.009 14.1852 123.275 14.1463 123.436 14.0685C123.597 13.9777 123.678 13.8351 123.678 13.6407C123.678 13.4462 123.573 13.1156 123.362 12.6489L119.476 4.38445L120.238 3.08158L116.556 11.7544C116.395 12.1433 116.314 12.4934 116.314 12.8045C116.314 13.2582 116.469 13.6018 116.779 13.8351C117.089 14.0685 117.523 14.1852 118.081 14.1852C118.143 14.1852 118.174 14.224 118.174 14.3018C118.174 14.3796 118.143 14.4185 118.081 14.4185C117.858 14.4185 117.535 14.4055 117.114 14.3796C116.643 14.3537 116.234 14.3407 115.887 14.3407C115.552 14.3407 115.161 14.3537 114.715 14.3796C114.319 14.4055 113.99 14.4185 113.73 14.4185C113.668 14.4185 113.637 14.3796 113.637 14.3018C113.637 14.224 113.668 14.1852 113.73 14.1852C114.077 14.1852 114.368 14.1138 114.604 13.9712C114.839 13.8286 115.069 13.5758 115.292 13.2129C115.515 12.8369 115.781 12.2859 116.091 11.56L120.089 2.14818C120.114 2.10929 120.17 2.08984 120.256 2.08984C120.343 2.08984 120.393 2.10929 120.405 2.14818L124.961 11.7544C125.382 12.6878 125.736 13.3295 126.021 13.6796C126.318 14.0166 126.641 14.1852 126.988 14.1852Z" fill="white"/>
<path d="M103.321 2.71678L103.823 2.75568V12.0702C103.823 12.7573 103.947 13.2824 104.195 13.6453C104.456 14.0083 104.834 14.1898 105.33 14.1898C105.367 14.1898 105.385 14.2287 105.385 14.3065C105.385 14.3843 105.367 14.4232 105.33 14.4232C105.007 14.4232 104.759 14.4167 104.586 14.4037L103.6 14.3843L102.503 14.4037C102.305 14.4167 102.02 14.4232 101.648 14.4232C101.611 14.4232 101.592 14.3843 101.592 14.3065C101.592 14.2287 101.611 14.1898 101.648 14.1898C102.181 14.1898 102.59 14.0083 102.875 13.6453C103.173 13.2824 103.321 12.7573 103.321 12.0702V2.71678ZM112.768 14.6954C112.768 14.7343 112.737 14.7602 112.675 14.7732C112.613 14.7862 112.569 14.7797 112.544 14.7538L103.6 3.86409C103.179 3.3585 102.807 3.00847 102.485 2.81401C102.162 2.60659 101.846 2.50288 101.536 2.50288C101.499 2.50288 101.48 2.46399 101.48 2.38621C101.48 2.30842 101.499 2.26953 101.536 2.26953L102.28 2.28898C102.429 2.30194 102.652 2.30842 102.949 2.30842L104.14 2.28898C104.288 2.27601 104.462 2.26953 104.66 2.26953C104.759 2.26953 104.834 2.29546 104.883 2.34731C104.933 2.39917 105.007 2.50288 105.106 2.65845C105.317 2.95662 105.472 3.16404 105.571 3.28071L112.619 11.9536L112.768 14.6954ZM112.768 14.6954L112.265 14.112V4.64192C112.265 3.95484 112.135 3.4298 111.875 3.06681C111.627 2.69086 111.255 2.50288 110.759 2.50288C110.735 2.50288 110.722 2.46399 110.722 2.38621C110.722 2.30842 110.735 2.26953 110.759 2.26953L111.522 2.28898C111.918 2.3149 112.247 2.32787 112.507 2.32787C112.743 2.32787 113.084 2.3149 113.53 2.28898L114.311 2.26953C114.348 2.26953 114.367 2.30842 114.367 2.38621C114.367 2.46399 114.348 2.50288 114.311 2.50288C113.815 2.50288 113.431 2.69086 113.158 3.06681C112.898 3.4298 112.768 3.95484 112.768 4.64192V14.6954Z" fill="white"/>
<path d="M98.8548 4.64192C98.8548 3.9678 98.7061 3.44276 98.4086 3.06681C98.1234 2.69086 97.7081 2.50288 97.1627 2.50288C97.1379 2.50288 97.1255 2.46399 97.1255 2.38621C97.1255 2.30842 97.1379 2.26953 97.1627 2.26953L98.0181 2.28898C98.4891 2.3149 98.861 2.32787 99.1338 2.32787C99.3569 2.32787 99.6916 2.3149 100.138 2.28898L100.956 2.26953C100.981 2.26953 100.993 2.30842 100.993 2.38621C100.993 2.46399 100.981 2.50288 100.956 2.50288C100.473 2.50288 100.094 2.69086 99.8218 3.06681C99.5614 3.44276 99.4313 3.9678 99.4313 4.64192V10.0868C99.4313 11.0202 99.2391 11.8369 98.8548 12.5369C98.4829 13.224 97.9499 13.7555 97.2557 14.1315C96.5739 14.5074 95.7805 14.6954 94.8755 14.6954C93.9706 14.6954 93.1648 14.5139 92.4582 14.1509C91.7516 13.775 91.1999 13.2435 90.8032 12.5564C90.419 11.8563 90.2268 11.0396 90.2268 10.1062V3.84464C90.2268 3.45573 90.1896 3.17052 90.1152 2.98903C90.0409 2.80753 89.9045 2.68437 89.7062 2.61955C89.5202 2.54177 89.2227 2.50288 88.8136 2.50288C88.7764 2.50288 88.7578 2.46399 88.7578 2.38621C88.7578 2.30842 88.7764 2.26953 88.8136 2.26953L89.7805 2.28898C90.326 2.3149 90.7661 2.32787 91.1008 2.32787C91.4727 2.32787 91.9313 2.3149 92.4768 2.28898L93.4065 2.26953C93.4437 2.26953 93.4623 2.30842 93.4623 2.38621C93.4623 2.46399 93.4437 2.50288 93.4065 2.50288C92.9974 2.50288 92.6937 2.54177 92.4954 2.61955C92.297 2.69734 92.1607 2.83346 92.0863 3.02792C92.0243 3.20941 91.9933 3.49462 91.9933 3.88353V9.4256C91.9933 10.9683 92.297 12.1221 92.9045 12.887C93.5243 13.6389 94.3859 14.0148 95.4892 14.0148C96.5429 14.0148 97.3672 13.6778 97.9623 13.0036C98.5573 12.3165 98.8548 11.3507 98.8548 10.1062V4.64192Z" fill="white"/>
<path d="M75.3751 2.71678L75.8772 2.75568L75.6726 12.0702C75.6602 12.7573 75.7842 13.2824 76.0445 13.6453C76.3173 14.0083 76.7201 14.1898 77.2532 14.1898C77.2904 14.1898 77.309 14.2287 77.309 14.3065C77.309 14.3843 77.2904 14.4232 77.2532 14.4232C76.9185 14.4232 76.6582 14.4167 76.4722 14.4037L75.4495 14.3843L74.3524 14.4037C74.1664 14.4167 73.9061 14.4232 73.5714 14.4232C73.5342 14.4232 73.5156 14.3843 73.5156 14.3065C73.5156 14.2287 73.5342 14.1898 73.5714 14.1898C74.0797 14.1898 74.4702 14.0083 74.7429 13.6453C75.028 13.2824 75.1768 12.7573 75.1892 12.0702L75.3751 2.71678ZM88.3543 14.1898C88.3791 14.1898 88.3915 14.2287 88.3915 14.3065C88.3915 14.3843 88.3791 14.4232 88.3543 14.4232C87.9453 14.4232 87.6167 14.4167 87.3688 14.4037L86.03 14.3843L84.7283 14.4037C84.5052 14.4167 84.1891 14.4232 83.78 14.4232C83.7552 14.4232 83.7428 14.3843 83.7428 14.3065C83.7428 14.2287 83.7552 14.1898 83.78 14.1898C84.1891 14.1898 84.4928 14.1574 84.6911 14.0926C84.8895 14.0148 85.0197 13.8852 85.0816 13.7037C85.1436 13.5222 85.1622 13.237 85.1374 12.8481L84.7469 3.96132L85.5651 2.61955L80.8048 14.2871C80.78 14.3389 80.7304 14.3648 80.6561 14.3648C80.5941 14.3648 80.5383 14.3389 80.4887 14.2871L75.4495 3.88353C75.2264 3.40387 74.9722 3.05385 74.6871 2.83346C74.402 2.61307 74.0735 2.50288 73.7016 2.50288C73.6644 2.50288 73.6458 2.46399 73.6458 2.38621C73.6458 2.30842 73.6644 2.26953 73.7016 2.26953L74.5012 2.28898C74.6623 2.30194 74.873 2.30842 75.1334 2.30842L75.9887 2.28898C76.1003 2.27601 76.2305 2.26953 76.3792 2.26953C76.5404 2.26953 76.6706 2.33435 76.7697 2.46399C76.8689 2.58066 77.0239 2.85291 77.2346 3.28071L81.4184 11.8563L80.6189 13.3342L85.0258 2.75568C85.1002 2.57418 85.1808 2.45102 85.2676 2.38621C85.3544 2.30842 85.4597 2.26953 85.5837 2.26953C85.6705 2.26953 85.782 2.27601 85.9184 2.28898C86.0548 2.30194 86.2221 2.30842 86.4205 2.30842L87.4246 2.28898C87.5857 2.27601 87.8213 2.26953 88.1312 2.26953C88.1684 2.26953 88.187 2.30842 88.187 2.38621C88.187 2.46399 88.1684 2.50288 88.1312 2.50288C87.5486 2.50288 87.1209 2.61956 86.8482 2.85291C86.5878 3.07329 86.4701 3.44276 86.4948 3.96132L86.9039 12.8481C86.9287 13.2499 86.9783 13.5416 87.0527 13.7231C87.1271 13.9046 87.2572 14.0278 87.4432 14.0926C87.6291 14.1574 87.9329 14.1898 88.3543 14.1898Z" fill="white"/>
<path d="M64.0402 9.16813H69.2468L69.377 9.65427H63.7985L64.0402 9.16813ZM73.691 14.1852C73.7406 14.1852 73.7653 14.224 73.7653 14.3018C73.7653 14.3796 73.7406 14.4185 73.691 14.4185C73.4554 14.4185 73.0773 14.4055 72.5567 14.3796C72.036 14.3537 71.6579 14.3407 71.4224 14.3407C71.1125 14.3407 70.7468 14.3537 70.3253 14.3796C69.9038 14.4055 69.5753 14.4185 69.3398 14.4185C69.2902 14.4185 69.2654 14.3796 69.2654 14.3018C69.2654 14.224 69.2902 14.1852 69.3398 14.1852C69.7117 14.1852 69.9782 14.1463 70.1393 14.0685C70.3005 13.9777 70.3811 13.8351 70.3811 13.6407C70.3811 13.4462 70.2757 13.1156 70.065 12.6489L66.1786 4.38445L66.941 3.08158L63.2592 11.7544C63.0981 12.1433 63.0175 12.4934 63.0175 12.8045C63.0175 13.2582 63.1725 13.6018 63.4824 13.8351C63.7923 14.0685 64.2262 14.1852 64.784 14.1852C64.846 14.1852 64.877 14.224 64.877 14.3018C64.877 14.3796 64.846 14.4185 64.784 14.4185C64.5609 14.4185 64.2386 14.4055 63.8171 14.3796C63.346 14.3537 62.9369 14.3407 62.5898 14.3407C62.2551 14.3407 61.8646 14.3537 61.4183 14.3796C61.0217 14.4055 60.6931 14.4185 60.4328 14.4185C60.3708 14.4185 60.3398 14.3796 60.3398 14.3018C60.3398 14.224 60.3708 14.1852 60.4328 14.1852C60.7799 14.1852 61.0712 14.1138 61.3068 13.9712C61.5423 13.8286 61.7717 13.5758 61.9948 13.2129C62.2179 12.8369 62.4845 12.2859 62.7944 11.56L66.7923 2.14818C66.8171 2.10929 66.8728 2.08984 66.9596 2.08984C67.0464 2.08984 67.096 2.10929 67.1084 2.14818L71.6641 11.7544C72.0856 12.6878 72.4389 13.3295 72.724 13.6796C73.0216 14.0166 73.3439 14.1852 73.691 14.1852Z" fill="white"/>
<path d="M59.8027 3.12967C60.1641 2.5099 60.3448 1.97327 60.3448 1.51978C60.3448 0.854654 59.9473 0.522094 59.1523 0.522094C59.1234 0.522094 59.1089 0.476745 59.1089 0.386047C59.1089 0.295349 59.1234 0.25 59.1523 0.25L60.2797 0.272674C60.8868 0.302907 61.4434 0.318023 61.9493 0.318023C62.195 0.318023 62.4913 0.302907 62.8383 0.272674L63.6405 0.25C63.6694 0.25 63.6839 0.295349 63.6839 0.386047C63.6839 0.476745 63.6694 0.522094 63.6405 0.522094C63.1635 0.522094 62.6214 0.78663 62.0143 1.3157C61.4072 1.82966 60.8652 2.49478 60.3882 3.31107L57.3743 8.41284L56.9407 8.05005L59.8027 3.12967ZM52.5392 2.6535C52.0477 1.85234 51.6213 1.30059 51.2599 0.99826C50.913 0.680816 50.5733 0.522094 50.2408 0.522094C50.1975 0.522094 50.1758 0.476745 50.1758 0.386047C50.1758 0.295349 50.1975 0.25 50.2408 0.25L50.9563 0.272674C51.2744 0.302907 51.5056 0.318023 51.6502 0.318023C52.1272 0.318023 52.8138 0.302907 53.71 0.272674L55.076 0.25C55.1049 0.25 55.1193 0.295349 55.1193 0.386047C55.1193 0.476745 55.1049 0.522094 55.076 0.522094C54.4689 0.522094 54.1653 0.726165 54.1653 1.13431C54.1653 1.3157 54.2593 1.56512 54.4472 1.88257L57.7646 7.21109L56.03 8.23145L52.5392 2.6535ZM57.9164 7.18842V12.585C57.9164 13.0536 57.9525 13.3937 58.0248 13.6053C58.0971 13.817 58.2416 13.9606 58.4584 14.0361C58.6897 14.1117 59.0511 14.1495 59.5425 14.1495C59.5859 14.1495 59.6076 14.1949 59.6076 14.2856C59.6076 14.3763 59.5859 14.4216 59.5425 14.4216C59.08 14.4216 58.7186 14.414 58.4584 14.3989L56.8756 14.3763L55.3145 14.3989C55.0254 14.414 54.6423 14.4216 54.1653 14.4216C54.1364 14.4216 54.122 14.3763 54.122 14.2856C54.122 14.1949 54.1364 14.1495 54.1653 14.1495C54.6568 14.1495 55.0182 14.1117 55.2494 14.0361C55.4807 13.9606 55.6397 13.817 55.7265 13.6053C55.8132 13.3786 55.8566 13.0385 55.8566 12.585V7.39249L57.9164 7.18842Z" fill="white"/>
<path d="M40.5969 12.8481C40.5969 13.2499 40.6279 13.5416 40.6899 13.7231C40.7643 13.9046 40.8944 14.0278 41.0804 14.0926C41.2787 14.1574 41.5886 14.1898 42.0101 14.1898C42.0473 14.1898 42.0659 14.2287 42.0659 14.3065C42.0659 14.3843 42.0473 14.4232 42.0101 14.4232C41.6134 14.4232 41.2973 14.4167 41.0618 14.4037L39.6858 14.3843L38.3469 14.4037C38.1114 14.4167 37.7891 14.4232 37.38 14.4232C37.3428 14.4232 37.3242 14.3843 37.3242 14.3065C37.3242 14.2287 37.3428 14.1898 37.38 14.1898C37.8015 14.1898 38.1052 14.1574 38.2912 14.0926C38.4895 14.0278 38.6259 13.9046 38.7002 13.7231C38.7746 13.5287 38.8118 13.237 38.8118 12.8481V3.84464C38.8118 3.45573 38.7746 3.17052 38.7002 2.98903C38.6259 2.80753 38.4895 2.68437 38.2912 2.61955C38.1052 2.54177 37.8015 2.50288 37.38 2.50288C37.3428 2.50288 37.3242 2.46399 37.3242 2.38621C37.3242 2.30842 37.3428 2.26953 37.38 2.26953L38.3469 2.28898C38.8924 2.3149 39.3387 2.32787 39.6858 2.32787C40.0701 2.32787 40.5349 2.3149 41.0804 2.28898L42.0101 2.26953C42.0473 2.26953 42.0659 2.30842 42.0659 2.38621C42.0659 2.46399 42.0473 2.50288 42.0101 2.50288C41.601 2.50288 41.2973 2.54177 41.099 2.61955C40.9006 2.69734 40.7643 2.83346 40.6899 3.02792C40.6279 3.20941 40.5969 3.49462 40.5969 3.88353V12.8481Z" fill="white"/>
<path d="M34.8609 14.4229C34.5634 14.4229 34.0117 13.8784 33.2059 12.7895C32.4125 11.7005 31.4456 10.1837 30.3051 8.23915L32.2105 7.77245C33.2519 9.39293 33.7018 10.6634 34.396 11.5838C35.1026 12.4913 35.7286 13.1525 36.2741 13.5673C36.8195 13.9821 37.3464 14.1896 37.8546 14.1896C37.8794 14.1896 37.8918 14.2285 37.8918 14.3062C37.8918 14.384 37.8794 14.4229 37.8546 14.4229H34.8609ZM30.6398 2.21094C31.7059 2.21094 33.5114 2.43781 34.1065 2.89154C34.7015 3.33231 34.999 3.94162 34.999 4.71945C34.999 5.44543 34.8007 6.1001 34.404 6.68348C34.0073 7.26685 33.4804 7.72707 32.8234 8.06413C32.1788 8.38823 30.5221 8.55028 29.8031 8.55028C29.5427 8.55028 29.2266 8.53732 28.8547 8.51139V12.8478C28.8547 13.2497 28.8857 13.5414 28.9477 13.7229C29.0097 13.9044 29.1337 14.0275 29.3196 14.0923C29.5179 14.1572 29.8341 14.1896 30.2679 14.1896C30.2927 14.1896 30.3051 14.2285 30.3051 14.3062C30.3051 14.384 30.2927 14.4229 30.2679 14.4229C29.8589 14.4229 29.5365 14.4164 29.301 14.4035L27.9436 14.384L26.6048 14.4035C26.3692 14.4164 26.0469 14.4229 25.6378 14.4229C25.6006 14.4229 25.582 14.384 25.582 14.3062C25.582 14.2285 25.6006 14.1896 25.6378 14.1896C26.0593 14.1896 26.363 14.1572 26.549 14.0923C26.7473 14.0275 26.8837 13.9044 26.9581 13.7229C27.0324 13.5284 27.0696 13.2367 27.0696 12.8478V3.84439C27.0696 3.45547 27.0324 3.17027 26.9581 2.98877C26.8961 2.80728 26.7659 2.68412 26.5676 2.6193C26.3692 2.54152 26.0655 2.50262 25.6564 2.50262C25.6316 2.50262 25.6192 2.46373 25.6192 2.38595C25.6192 2.30817 25.6316 2.26928 25.6564 2.26928L26.6233 2.28872C27.1688 2.31465 27.6089 2.32761 27.9436 2.32761C28.3527 2.32761 28.7989 2.30817 29.2824 2.26928C29.4436 2.25631 29.6357 2.24335 29.8589 2.23038C30.0944 2.21742 30.3547 2.21094 30.6398 2.21094ZM33.1581 5.40005C33.1581 4.34998 32.9846 3.61752 32.6375 3.20268C32.3028 2.78783 30.8382 2.58041 30.1936 2.58041C29.6977 2.58041 29.3506 2.67764 29.1522 2.8721C28.9539 3.05359 28.8547 3.39065 28.8547 3.88328V7.98635C29.1522 8.03821 29.5117 8.06413 29.9332 8.06413C30.739 8.06413 32.2904 7.85671 32.6375 7.44187C32.9846 7.01406 33.1581 6.33345 33.1581 5.40005Z" fill="white"/>
<path d="M20.979 3.88353C20.979 3.49462 20.9418 3.20941 20.8675 3.02792C20.7931 2.83346 20.6443 2.69734 20.4212 2.61955C20.198 2.54177 19.8571 2.50288 19.3985 2.50288C19.3613 2.50288 19.3427 2.46399 19.3427 2.38621C19.3427 2.30842 19.3613 2.26953 19.3985 2.26953L20.291 2.28898C20.8861 2.3149 21.4129 2.32787 21.8716 2.32787C22.2063 2.32787 22.6588 2.3149 23.229 2.28898L24.2517 2.26953C24.2889 2.26953 24.3075 2.30842 24.3075 2.38621C24.3075 2.46399 24.2889 2.50288 24.2517 2.50288C23.8054 2.50288 23.4769 2.54177 23.2662 2.61955C23.0555 2.68437 22.9129 2.80753 22.8385 2.98903C22.7641 3.17052 22.7269 3.45573 22.7269 3.84464V12.8481C22.7269 13.237 22.7641 13.5287 22.8385 13.7231C22.9129 13.9046 23.0555 14.0278 23.2662 14.0926C23.4769 14.1574 23.8054 14.1898 24.2517 14.1898C24.2889 14.1898 24.3075 14.2287 24.3075 14.3065C24.3075 14.3843 24.2889 14.4232 24.2517 14.4232C23.8302 14.4232 23.4893 14.4167 23.229 14.4037L21.8716 14.3843L20.291 14.4037C20.0679 14.4167 19.7704 14.4232 19.3985 14.4232C19.3613 14.4232 19.3427 14.3843 19.3427 14.3065C19.3427 14.2287 19.3613 14.1898 19.3985 14.1898C19.8695 14.1898 20.2104 14.1574 20.4212 14.0926C20.6443 14.0278 20.7931 13.9046 20.8675 13.7231C20.9418 13.5287 20.979 13.237 20.979 12.8481V3.88353ZM13.6341 7.85048H21.7786V8.35608H13.6341V7.85048ZM12.8159 3.84464C12.8159 3.45573 12.7787 3.17052 12.7043 2.98903C12.6299 2.80753 12.4874 2.68437 12.2766 2.61955C12.0659 2.54177 11.7436 2.50288 11.3097 2.50288C11.2849 2.50288 11.2725 2.46399 11.2725 2.38621C11.2725 2.30842 11.2849 2.26953 11.3097 2.26953L12.2952 2.28898C12.8655 2.3149 13.3117 2.32787 13.6341 2.32787C14.0679 2.32787 14.5824 2.3149 15.1774 2.28898L16.1444 2.26953C16.1692 2.26953 16.1815 2.30842 16.1815 2.38621C16.1815 2.46399 16.1692 2.50288 16.1444 2.50288C15.6981 2.50288 15.3634 2.54177 15.1402 2.61955C14.9295 2.69734 14.7807 2.83346 14.694 3.02792C14.6196 3.20941 14.5824 3.49462 14.5824 3.88353V12.8481C14.5824 13.237 14.6196 13.5287 14.694 13.7231C14.7683 13.9046 14.9109 14.0278 15.1216 14.0926C15.3448 14.1574 15.6857 14.1898 16.1444 14.1898C16.1692 14.1898 16.1815 14.2287 16.1815 14.3065C16.1815 14.3843 16.1692 14.4232 16.1444 14.4232C15.7229 14.4232 15.3944 14.4167 15.1588 14.4037L13.6341 14.3843L12.2766 14.4037C12.0411 14.4167 11.7126 14.4232 11.2911 14.4232C11.2663 14.4232 11.2539 14.3843 11.2539 14.3065C11.2539 14.2287 11.2663 14.1898 11.2911 14.1898C11.7374 14.1898 12.0659 14.1574 12.2766 14.0926C12.4874 14.0278 12.6299 13.9046 12.7043 13.7231C12.7787 13.5287 12.8159 13.237 12.8159 12.8481V3.84464Z" fill="white"/>
<path d="M2.29954 2.65292C2.29954 3.21223 2.44951 3.71107 2.74945 4.14945C3.06605 4.5727 3.44931 4.94306 3.89922 5.2605C4.34913 5.56283 4.96567 5.94074 5.74885 6.39423C6.59868 6.87795 7.26521 7.29365 7.74845 7.64133C8.24835 7.989 8.67326 8.41982 9.02319 8.93378C9.37312 9.43262 9.54809 10.0222 9.54809 10.7024C9.54809 11.4733 9.32313 12.1611 8.87322 12.7658C8.43998 13.3704 7.8151 13.8466 6.9986 14.1943C6.19876 14.5268 5.28227 14.6931 4.24915 14.6931C3.54929 14.6931 2.82443 14.61 2.07458 14.4437C1.3414 14.2774 0.783177 14.0733 0.39992 13.8315C0.24995 13.7408 0.166633 13.5972 0.14997 13.4007L0 9.97681V9.95413C0 9.89367 0.0416585 9.86344 0.124975 9.86344C0.208292 9.84832 0.258282 9.87099 0.274945 9.93146C0.824835 11.171 1.44971 12.1914 2.14957 12.9925C2.86609 13.7937 3.76591 14.1943 4.84903 14.1943C5.58221 14.1943 6.19043 14.0204 6.67366 13.6728C7.1569 13.31 7.39852 12.7129 7.39852 11.8815C7.39852 11.2164 7.23188 10.6344 6.89862 10.1355C6.58201 9.63669 6.1821 9.22099 5.69886 8.88843C5.23229 8.55587 4.59075 8.14773 3.77424 7.664C2.9744 7.1954 2.34953 6.80237 1.89962 6.48493C1.44971 6.15237 1.06645 5.75178 0.74985 5.28317C0.433247 4.79945 0.274945 4.24014 0.274945 3.60526C0.274945 2.8192 0.516563 2.15408 0.9998 1.60989C1.48304 1.06571 2.10791 0.665121 2.87442 0.408142C3.6576 0.136048 4.4741 0 5.32393 0C5.87382 0 6.43204 0.0529077 6.9986 0.158723C7.56515 0.249421 8.04839 0.370351 8.44831 0.521515C8.69826 0.612213 8.82323 0.755819 8.82323 0.952332L8.87322 4.0134C8.87322 4.07386 8.83156 4.11165 8.74825 4.12677C8.68159 4.14189 8.6316 4.12677 8.59828 4.08142C8.26501 3.15932 7.8151 2.32792 7.24855 1.58722C6.69866 0.8314 5.86549 0.453491 4.74905 0.453491C3.9992 0.453491 3.39932 0.657562 2.94941 1.0657C2.51616 1.45873 2.29954 1.9878 2.29954 2.65292Z" fill="white"/>
<path d="M13.8306 23.6167C10.3927 23.8448 5.07545 23.6499 3.13281 23.4123C5.07544 23.8242 11.0841 25.003 15.558 24.9649C21.1505 24.9174 31.3466 22.6827 34.1473 22.4379C38.9545 22.0178 43.2126 21.8938 46.2321 21.8841C42.6141 21.314 41.3398 20.7559 35.4247 20.8171C32.3215 20.8493 27.1305 21.8771 24.6581 22.2415C22.2445 22.6059 17.2685 23.3886 13.8306 23.6167Z" fill="white"/>
<path d="M19.7305 25.7438C21.7613 25.7438 27.902 25.5713 31.5108 25.1025C36.0219 24.5164 44.6225 22.9045 53.1412 22.7624C61.66 22.6203 65.9059 24.3128 72.3125 24.256C76.8277 24.2159 79.0723 24.0107 79.6883 23.8101C79.7532 23.7802 79.8073 23.7531 79.8504 23.7294C79.825 23.7559 79.7715 23.7829 79.6883 23.8101C78.4875 24.3634 73.6174 25.8929 67.6221 25.4141C58.293 24.6691 53.5789 23.8634 40.7897 25.7454C28.8517 27.5021 22.4284 26.1397 19.7305 25.7438Z" fill="white"/>
<path d="M88.1925 20.9079V26.1484H87.4018V20.9079H88.1925ZM97.537 20.9079V26.1484H96.8102L94.1464 22.305H94.0978V26.1484H93.3071V20.9079H94.039L96.7053 24.7564H96.7539V20.9079H97.537ZM102.654 26.1484V20.9079H105.903V21.5885H103.444V23.1853H105.67V23.8634H103.444V26.1484H102.654ZM110.839 26.1484V20.9079H112.707C113.113 20.9079 113.45 20.9778 113.718 21.1177C113.987 21.2576 114.188 21.4512 114.322 21.6985C114.455 21.9442 114.521 22.2282 114.521 22.5507C114.521 22.8714 114.454 23.1537 114.319 23.3976C114.186 23.6399 113.985 23.8284 113.715 23.9632C113.447 24.0979 113.11 24.1653 112.704 24.1653H111.289V23.4846H112.633C112.889 23.4846 113.097 23.448 113.257 23.3746C113.419 23.3013 113.538 23.1946 113.613 23.0548C113.688 22.9149 113.725 22.7468 113.725 22.5507C113.725 22.3528 113.687 22.1813 113.61 22.0363C113.535 21.8913 113.417 21.7804 113.254 21.7037C113.094 21.6252 112.883 21.586 112.622 21.586H111.63V26.1484H110.839ZM113.426 23.784L114.721 26.1484H113.82L112.551 23.784H113.426ZM119.889 26.1484H119.05L120.936 20.9079H121.849L123.735 26.1484H122.896L121.414 21.8598H121.373L119.889 26.1484ZM120.03 24.0962H122.753V24.7615H120.03V24.0962Z" fill="white"/>
</svg>
