<svg width="160" height="36" viewBox="0 0 160 36" fill="none" xmlns="http://www.w3.org/2000/svg">
<path d="M147.495 11.5274H154.04L154.204 12.1385H147.191L147.495 11.5274ZM159.626 17.8339C159.689 17.8339 159.72 17.8828 159.72 17.9806C159.72 18.0784 159.689 18.1273 159.626 18.1273C159.33 18.1273 158.855 18.111 158.201 18.0784C157.546 18.0458 157.071 18.0295 156.775 18.0295C156.385 18.0295 155.925 18.0458 155.396 18.0784C154.866 18.111 154.453 18.1273 154.157 18.1273C154.095 18.1273 154.063 18.0784 154.063 17.9806C154.063 17.8828 154.095 17.8339 154.157 17.8339C154.624 17.8339 154.959 17.7851 155.162 17.6873C155.364 17.5732 155.466 17.394 155.466 17.1495C155.466 16.9051 155.333 16.4895 155.068 15.9029L150.183 5.51425L151.142 3.87652L146.513 14.7785C146.311 15.2673 146.21 15.7073 146.21 16.0984C146.21 16.6688 146.404 17.1006 146.794 17.3939C147.184 17.6873 147.729 17.8339 148.43 17.8339C148.508 17.8339 148.547 17.8828 148.547 17.9806C148.547 18.0784 148.508 18.1273 148.43 18.1273C148.15 18.1273 147.745 18.111 147.215 18.0784C146.623 18.0458 146.108 18.0295 145.672 18.0295C145.251 18.0295 144.76 18.0458 144.199 18.0784C143.701 18.111 143.288 18.1273 142.961 18.1273C142.883 18.1273 142.844 18.0784 142.844 17.9806C142.844 17.8828 142.883 17.8339 142.961 17.8339C143.397 17.8339 143.763 17.7443 144.059 17.5651C144.355 17.3858 144.644 17.068 144.924 16.6117C145.205 16.1392 145.54 15.4466 145.929 14.534L150.955 2.70321C150.986 2.65433 151.056 2.62988 151.165 2.62988C151.274 2.62988 151.336 2.65433 151.352 2.70321L157.079 14.7785C157.608 15.9518 158.053 16.7584 158.411 17.1984C158.785 17.6221 159.19 17.8339 159.626 17.8339Z" fill="white"/>
<path d="M129.877 3.41279L130.508 3.46168V15.1703C130.508 16.034 130.663 16.6939 130.975 17.1502C131.302 17.6065 131.778 17.8346 132.401 17.8346C132.448 17.8346 132.471 17.8835 132.471 17.9813C132.471 18.0791 132.448 18.128 132.401 18.128C131.996 18.128 131.684 18.1198 131.466 18.1035L130.227 18.0791L128.848 18.1035C128.599 18.1198 128.24 18.128 127.773 18.128C127.726 18.128 127.703 18.0791 127.703 17.9813C127.703 17.8835 127.726 17.8346 127.773 17.8346C128.443 17.8346 128.957 17.6065 129.316 17.1502C129.69 16.6939 129.877 16.034 129.877 15.1703V3.41279ZM141.751 18.4702C141.751 18.5191 141.712 18.5517 141.634 18.568C141.556 18.5843 141.501 18.5761 141.47 18.5435L130.227 4.85498C129.697 4.21944 129.23 3.77945 128.825 3.53501C128.42 3.27428 128.022 3.14391 127.633 3.14391C127.586 3.14391 127.562 3.09502 127.562 2.99725C127.562 2.89947 127.586 2.85059 127.633 2.85059L128.568 2.87503C128.755 2.89132 129.035 2.89947 129.409 2.89947L130.905 2.87503C131.092 2.85873 131.31 2.85059 131.559 2.85059C131.684 2.85059 131.778 2.88318 131.84 2.94836C131.902 3.01354 131.996 3.14391 132.12 3.33946C132.385 3.71427 132.58 3.975 132.705 4.12166L141.564 15.0236L141.751 18.4702ZM141.751 18.4702L141.12 17.7369V5.83273C141.12 4.96905 140.956 4.30907 140.629 3.85278C140.317 3.3802 139.85 3.14391 139.226 3.14391C139.195 3.14391 139.179 3.09502 139.179 2.99725C139.179 2.89947 139.195 2.85059 139.226 2.85059L140.185 2.87503C140.683 2.90762 141.096 2.92392 141.423 2.92392C141.719 2.92392 142.148 2.90762 142.709 2.87503L143.691 2.85059C143.737 2.85059 143.761 2.89947 143.761 2.99725C143.761 3.09502 143.737 3.14391 143.691 3.14391C143.067 3.14391 142.584 3.3802 142.241 3.85278C141.914 4.30907 141.751 4.96905 141.751 5.83273V18.4702Z" fill="white"/>
<path d="M124.262 5.83273C124.262 4.98534 124.075 4.32536 123.701 3.85278C123.343 3.3802 122.821 3.14391 122.135 3.14391C122.104 3.14391 122.089 3.09502 122.089 2.99725C122.089 2.89947 122.104 2.85059 122.135 2.85059L123.211 2.87503C123.803 2.90762 124.27 2.92392 124.613 2.92392C124.894 2.92392 125.314 2.90762 125.875 2.87503L126.904 2.85059C126.935 2.85059 126.951 2.89947 126.951 2.99725C126.951 3.09502 126.935 3.14391 126.904 3.14391C126.296 3.14391 125.821 3.3802 125.478 3.85278C125.151 4.32536 124.987 4.98534 124.987 5.83273V12.677C124.987 13.8503 124.746 14.8769 124.262 15.7569C123.795 16.6206 123.125 17.2887 122.252 17.7613C121.395 18.2339 120.398 18.4702 119.26 18.4702C118.123 18.4702 117.11 18.242 116.222 17.7858C115.334 17.3132 114.64 16.645 114.141 15.7814C113.658 14.9014 113.417 13.8747 113.417 12.7014V4.83053C113.417 4.34166 113.37 3.98315 113.277 3.75501C113.183 3.52686 113.012 3.37205 112.762 3.29057C112.529 3.1928 112.155 3.14391 111.64 3.14391C111.594 3.14391 111.57 3.09502 111.57 2.99725C111.57 2.89947 111.594 2.85059 111.64 2.85059L112.856 2.87503C113.542 2.90762 114.095 2.92392 114.515 2.92392C114.983 2.92392 115.56 2.90762 116.245 2.87503L117.414 2.85059C117.461 2.85059 117.484 2.89947 117.484 2.99725C117.484 3.09502 117.461 3.14391 117.414 3.14391C116.9 3.14391 116.518 3.1928 116.269 3.29057C116.019 3.38835 115.848 3.55946 115.754 3.80389C115.676 4.03204 115.637 4.39055 115.637 4.87942V11.8459C115.637 13.7851 116.019 15.2355 116.783 16.1969C117.562 17.1421 118.645 17.6147 120.032 17.6147C121.356 17.6147 122.393 17.191 123.141 16.3436C123.888 15.4799 124.262 14.2658 124.262 12.7014V5.83273Z" fill="white"/>
<path d="M94.7476 3.41279L95.3787 3.46168L95.1216 15.1703C95.106 16.034 95.2618 16.6939 95.589 17.1502C95.9319 17.6065 96.4383 17.8346 97.1084 17.8346C97.1551 17.8346 97.1785 17.8835 97.1785 17.9813C97.1785 18.0791 97.1551 18.128 97.1084 18.128C96.6876 18.128 96.3604 18.1198 96.1266 18.1035L94.8411 18.0791L93.462 18.1035C93.2283 18.1198 92.901 18.128 92.4803 18.128C92.4335 18.128 92.4102 18.0791 92.4102 17.9813C92.4102 17.8835 92.4335 17.8346 92.4803 17.8346C93.1192 17.8346 93.61 17.6065 93.9529 17.1502C94.3113 16.6939 94.4982 16.034 94.5138 15.1703L94.7476 3.41279ZM111.063 17.8346C111.094 17.8346 111.109 17.8835 111.109 17.9813C111.109 18.0791 111.094 18.128 111.063 18.128C110.548 18.128 110.136 18.1198 109.824 18.1035L108.141 18.0791L106.505 18.1035C106.224 18.1198 105.827 18.128 105.313 18.128C105.282 18.128 105.266 18.0791 105.266 17.9813C105.266 17.8835 105.282 17.8346 105.313 17.8346C105.827 17.8346 106.209 17.7939 106.458 17.7124C106.707 17.6147 106.871 17.4517 106.949 17.2236C107.027 16.9954 107.05 16.6369 107.019 16.148L106.528 4.9772L107.557 3.29057L101.573 17.9569C101.542 18.022 101.479 18.0546 101.386 18.0546C101.308 18.0546 101.238 18.022 101.175 17.9569L94.8411 4.87942C94.5606 4.27647 94.2411 3.83649 93.8827 3.55946C93.5243 3.28243 93.1114 3.14391 92.6439 3.14391C92.5972 3.14391 92.5738 3.09502 92.5738 2.99725C92.5738 2.89947 92.5972 2.85059 92.6439 2.85059L93.649 2.87503C93.8516 2.89132 94.1165 2.89947 94.4437 2.89947L95.5189 2.87503C95.6592 2.85873 95.8228 2.85059 96.0098 2.85059C96.2124 2.85059 96.376 2.93206 96.5006 3.09502C96.6253 3.24169 96.8201 3.5839 97.085 4.12166L102.344 14.9014L101.339 16.7591L106.879 3.46168C106.972 3.23354 107.074 3.07873 107.183 2.99725C107.292 2.89947 107.424 2.85059 107.58 2.85059C107.689 2.85059 107.829 2.85873 108.001 2.87503C108.172 2.89132 108.382 2.89947 108.632 2.89947L109.894 2.87503C110.097 2.85873 110.393 2.85059 110.782 2.85059C110.829 2.85059 110.852 2.89947 110.852 2.99725C110.852 3.09502 110.829 3.14391 110.782 3.14391C110.05 3.14391 109.512 3.29057 109.169 3.5839C108.842 3.86093 108.694 4.32536 108.725 4.9772L109.24 16.148C109.271 16.6532 109.333 17.0199 109.427 17.248C109.52 17.4761 109.684 17.6309 109.917 17.7124C110.151 17.7939 110.533 17.8346 111.063 17.8346Z" fill="white"/>
<path d="M80.503 11.5274H87.0478L87.2114 12.1385H80.1992L80.503 11.5274ZM92.6342 17.8339C92.6965 17.8339 92.7277 17.8828 92.7277 17.9806C92.7277 18.0784 92.6965 18.1273 92.6342 18.1273C92.3381 18.1273 91.8629 18.111 91.2084 18.0784C90.5539 18.0458 90.0786 18.0295 89.7826 18.0295C89.393 18.0295 88.9333 18.0458 88.4035 18.0784C87.8737 18.111 87.4607 18.1273 87.1647 18.1273C87.1023 18.1273 87.0712 18.0784 87.0712 17.9806C87.0712 17.8828 87.1023 17.8339 87.1647 17.8339C87.6321 17.8339 87.9672 17.7851 88.1697 17.6873C88.3723 17.5732 88.4736 17.394 88.4736 17.1495C88.4736 16.9051 88.3412 16.4895 88.0762 15.9029L83.191 5.51425L84.1494 3.87652L79.5213 14.7785C79.3187 15.2673 79.2174 15.7073 79.2174 16.0984C79.2174 16.6688 79.4122 17.1006 79.8018 17.3939C80.1914 17.6873 80.7368 17.8339 81.438 17.8339C81.5159 17.8339 81.5549 17.8828 81.5549 17.9806C81.5549 18.0784 81.5159 18.1273 81.438 18.1273C81.1575 18.1273 80.7523 18.111 80.2225 18.0784C79.6304 18.0458 79.1162 18.0295 78.6798 18.0295C78.2591 18.0295 77.7682 18.0458 77.2073 18.0784C76.7086 18.111 76.2957 18.1273 75.9684 18.1273C75.8905 18.1273 75.8516 18.0784 75.8516 17.9806C75.8516 17.8828 75.8905 17.8339 75.9684 17.8339C76.4048 17.8339 76.7709 17.7443 77.067 17.5651C77.3631 17.3858 77.6514 17.068 77.9319 16.6117C78.2124 16.1392 78.5474 15.4466 78.937 14.534L83.9624 2.70321C83.9936 2.65433 84.0637 2.62988 84.1728 2.62988C84.2818 2.62988 84.3442 2.65433 84.3598 2.70321L90.0864 14.7785C90.6162 15.9518 91.0603 16.7584 91.4188 17.1984C91.7927 17.6221 92.1979 17.8339 92.6342 17.8339Z" fill="white"/>
<path d="M75.1716 3.93328C75.6258 3.15422 75.853 2.47966 75.853 1.90961C75.853 1.07354 75.3533 0.655504 74.3539 0.655504C74.3176 0.655504 74.2994 0.5985 74.2994 0.48449C74.2994 0.370481 74.3176 0.313477 74.3539 0.313477L75.7712 0.341979C76.5343 0.379981 77.2339 0.398982 77.8698 0.398982C78.1787 0.398982 78.5512 0.379981 78.9873 0.341979L79.9957 0.313477C80.0321 0.313477 80.0503 0.370481 80.0503 0.48449C80.0503 0.5985 80.0321 0.655504 79.9957 0.655504C79.3961 0.655504 78.7148 0.988032 77.9516 1.65309C77.1885 2.29914 76.5071 3.13521 75.9075 4.1613L72.119 10.5743L71.5739 10.1183L75.1716 3.93328ZM66.0411 3.33473C65.4233 2.32765 64.8873 1.63409 64.4331 1.25406C63.997 0.855021 63.57 0.655504 63.1521 0.655504C63.0976 0.655504 63.0703 0.5985 63.0703 0.48449C63.0703 0.370481 63.0976 0.313477 63.1521 0.313477L64.0515 0.341979C64.4512 0.379981 64.742 0.398982 64.9237 0.398982C65.5233 0.398982 66.3864 0.379981 67.5129 0.341979L69.23 0.313477C69.2663 0.313477 69.2845 0.370481 69.2845 0.48449C69.2845 0.5985 69.2663 0.655504 69.23 0.655504C68.4668 0.655504 68.0853 0.912026 68.0853 1.42507C68.0853 1.65309 68.2034 1.96662 68.4396 2.36565L72.6096 9.06372L70.4292 10.3463L66.0411 3.33473ZM72.8004 9.03521V15.8188C72.8004 16.4078 72.8458 16.8354 72.9367 17.1014C73.0275 17.3674 73.2092 17.5479 73.4818 17.6429C73.7725 17.738 74.2267 17.7855 74.8445 17.7855C74.899 17.7855 74.9263 17.8425 74.9263 17.9565C74.9263 18.0705 74.899 18.1275 74.8445 18.1275C74.2631 18.1275 73.8088 18.118 73.4818 18.099L71.4921 18.0705L69.5298 18.099C69.1664 18.118 68.6849 18.1275 68.0853 18.1275C68.0489 18.1275 68.0307 18.0705 68.0307 17.9565C68.0307 17.8425 68.0489 17.7855 68.0853 17.7855C68.703 17.7855 69.1573 17.738 69.448 17.6429C69.7387 17.5479 69.9386 17.3674 70.0476 17.1014C70.1566 16.8164 70.2112 16.3888 70.2112 15.8188V9.29174L72.8004 9.03521Z" fill="white"/>
<path d="M51.0318 16.148C51.0318 16.6532 51.0708 17.0199 51.1487 17.248C51.2422 17.4761 51.4058 17.6309 51.6395 17.7124C51.8889 17.7939 52.2784 17.8346 52.8083 17.8346C52.855 17.8346 52.8784 17.8835 52.8784 17.9813C52.8784 18.0791 52.855 18.128 52.8083 18.128C52.3096 18.128 51.9122 18.1198 51.6162 18.1035L49.8865 18.0791L48.2035 18.1035C47.9075 18.1198 47.5023 18.128 46.9881 18.128C46.9413 18.128 46.918 18.0791 46.918 17.9813C46.918 17.8835 46.9413 17.8346 46.9881 17.8346C47.5179 17.8346 47.8997 17.7939 48.1334 17.7124C48.3827 17.6309 48.5542 17.4761 48.6477 17.248C48.7412 17.0036 48.7879 16.6369 48.7879 16.148V4.83053C48.7879 4.34166 48.7412 3.98315 48.6477 3.75501C48.5542 3.52686 48.3827 3.37205 48.1334 3.29057C47.8997 3.1928 47.5179 3.14391 46.9881 3.14391C46.9413 3.14391 46.918 3.09502 46.918 2.99725C46.918 2.89947 46.9413 2.85059 46.9881 2.85059L48.2035 2.87503C48.8892 2.90762 49.4502 2.92392 49.8865 2.92392C50.3696 2.92392 50.9539 2.90762 51.6395 2.87503L52.8083 2.85059C52.855 2.85059 52.8784 2.89947 52.8784 2.99725C52.8784 3.09502 52.855 3.14391 52.8083 3.14391C52.294 3.14391 51.9122 3.1928 51.6629 3.29057C51.4136 3.38835 51.2422 3.55946 51.1487 3.80389C51.0708 4.03204 51.0318 4.39055 51.0318 4.87942V16.148Z" fill="white"/>
<path d="M43.82 18.1281C43.446 18.1281 42.7525 17.4436 41.7397 16.0748C40.7424 14.7059 39.5269 12.7993 38.0933 10.3549L40.4884 9.76828C41.7974 11.8053 42.363 13.4023 43.2356 14.5593C44.1238 15.7 44.9107 16.5311 45.5964 17.0525C46.282 17.574 46.9443 17.8347 47.5832 17.8347C47.6144 17.8347 47.6299 17.8836 47.6299 17.9814C47.6299 18.0792 47.6144 18.1281 47.5832 18.1281H43.82ZM38.514 2.77734C39.8541 2.77734 42.1237 3.06252 42.8717 3.63288C43.6196 4.18694 43.9936 4.95284 43.9936 5.9306C43.9936 6.84317 43.7443 7.66611 43.2456 8.39942C42.747 9.13274 42.0847 9.71124 41.2588 10.1349C40.4485 10.5423 38.366 10.746 37.4622 10.746C37.1349 10.746 36.7376 10.7297 36.2701 10.6971V16.1481C36.2701 16.6533 36.3091 17.0199 36.387 17.2481C36.4649 17.4762 36.6207 17.631 36.8545 17.7125C37.1038 17.794 37.5011 17.8347 38.0465 17.8347C38.0777 17.8347 38.0933 17.8836 38.0933 17.9814C38.0933 18.0792 38.0777 18.1281 38.0465 18.1281C37.5323 18.1281 37.1272 18.1199 36.8311 18.1036L35.1248 18.0792L33.4418 18.1036C33.1458 18.1199 32.7406 18.1281 32.2264 18.1281C32.1796 18.1281 32.1562 18.0792 32.1562 17.9814C32.1562 17.8836 32.1796 17.8347 32.2264 17.8347C32.7562 17.8347 33.138 17.794 33.3717 17.7125C33.621 17.631 33.7924 17.4762 33.8859 17.2481C33.9794 17.0036 34.0262 16.637 34.0262 16.1481V4.83062C34.0262 4.34175 33.9794 3.98324 33.8859 3.7551C33.808 3.52695 33.6444 3.37214 33.3951 3.29066C33.1458 3.19289 32.764 3.144 32.2497 3.144C32.2186 3.144 32.203 3.09511 32.203 2.99734C32.203 2.89956 32.2186 2.85068 32.2497 2.85068L33.4652 2.87512C34.1508 2.90771 34.704 2.92401 35.1248 2.92401C35.639 2.92401 36.2 2.89956 36.8077 2.85068C37.0103 2.83438 37.2518 2.81808 37.5323 2.80179C37.8284 2.78549 38.1556 2.77734 38.514 2.77734ZM41.6796 6.78613C41.6796 5.46616 41.4614 4.54545 41.0251 4.02398C40.6044 3.50251 38.7633 3.24178 37.953 3.24178C37.3297 3.24178 36.8934 3.364 36.6441 3.60843C36.3948 3.83658 36.2701 4.26027 36.2701 4.87951V10.0372C36.6441 10.1023 37.096 10.1349 37.6258 10.1349C38.6387 10.1349 40.5888 9.8742 41.0251 9.35273C41.4614 8.81497 41.6796 7.95943 41.6796 6.78613Z" fill="white"/>
<path d="M26.3692 4.87942C26.3692 4.39055 26.3225 4.03204 26.229 3.80389C26.1355 3.55946 25.9485 3.38835 25.668 3.29057C25.3875 3.1928 24.959 3.14391 24.3824 3.14391C24.3357 3.14391 24.3123 3.09502 24.3123 2.99725C24.3123 2.89947 24.3357 2.85059 24.3824 2.85059L25.5044 2.87503C26.2523 2.90762 26.9146 2.92392 27.4912 2.92392C27.9119 2.92392 28.4807 2.90762 29.1975 2.87503L30.4831 2.85059C30.5298 2.85059 30.5532 2.89947 30.5532 2.99725C30.5532 3.09502 30.5298 3.14391 30.4831 3.14391C29.9221 3.14391 29.5091 3.1928 29.2442 3.29057C28.9793 3.37205 28.8001 3.52686 28.7066 3.75501C28.6131 3.98315 28.5664 4.34166 28.5664 4.83053V16.148C28.5664 16.6369 28.6131 17.0036 28.7066 17.248C28.8001 17.4761 28.9793 17.6309 29.2442 17.7124C29.5091 17.7939 29.9221 17.8346 30.4831 17.8346C30.5298 17.8346 30.5532 17.8835 30.5532 17.9813C30.5532 18.0791 30.5298 18.128 30.4831 18.128C29.9532 18.128 29.5247 18.1198 29.1975 18.1035L27.4912 18.0791L25.5044 18.1035C25.2239 18.1198 24.8499 18.128 24.3824 18.128C24.3357 18.128 24.3123 18.0791 24.3123 17.9813C24.3123 17.8835 24.3357 17.8346 24.3824 17.8346C24.9746 17.8346 25.4031 17.7939 25.668 17.7124C25.9485 17.6309 26.1355 17.4761 26.229 17.248C26.3225 17.0036 26.3692 16.6369 26.3692 16.148V4.87942ZM17.1364 9.86596H27.3743V10.5015H17.1364V9.86596ZM16.108 4.83053C16.108 4.34166 16.0612 3.98315 15.9677 3.75501C15.8742 3.52686 15.695 3.37205 15.4301 3.29057C15.1652 3.1928 14.7601 3.14391 14.2147 3.14391C14.1835 3.14391 14.1679 3.09502 14.1679 2.99725C14.1679 2.89947 14.1835 2.85059 14.2147 2.85059L15.4535 2.87503C16.1703 2.90762 16.7313 2.92392 17.1364 2.92392C17.6818 2.92392 18.3285 2.90762 19.0765 2.87503L20.2919 2.85059C20.3231 2.85059 20.3387 2.89947 20.3387 2.99725C20.3387 3.09502 20.3231 3.14391 20.2919 3.14391C19.731 3.14391 19.3102 3.1928 19.0297 3.29057C18.7648 3.38835 18.5778 3.55946 18.4687 3.80389C18.3753 4.03204 18.3285 4.39055 18.3285 4.87942V16.148C18.3285 16.6369 18.3753 17.0036 18.4687 17.248C18.5622 17.4761 18.7414 17.6309 19.0064 17.7124C19.2868 17.7939 19.7154 17.8346 20.2919 17.8346C20.3231 17.8346 20.3387 17.8835 20.3387 17.9813C20.3387 18.0791 20.3231 18.128 20.2919 18.128C19.7621 18.128 19.3492 18.1198 19.0531 18.1035L17.1364 18.0791L15.4301 18.1035C15.134 18.1198 14.7211 18.128 14.1913 18.128C14.1601 18.128 14.1445 18.0791 14.1445 17.9813C14.1445 17.8835 14.1601 17.8346 14.1913 17.8346C14.7523 17.8346 15.1652 17.7939 15.4301 17.7124C15.695 17.6309 15.8742 17.4761 15.9677 17.248C16.0612 17.0036 16.108 16.6369 16.108 16.148V4.83053Z" fill="white"/>
<path d="M2.89057 3.33478C2.89057 4.03784 3.07908 4.6649 3.45612 5.21594C3.85409 5.74799 4.33585 6.21353 4.9014 6.61256C5.46695 6.99259 6.24195 7.46763 7.22642 8.03768C8.29468 8.64573 9.13252 9.16827 9.73996 9.60531C10.3683 10.0423 10.9025 10.5839 11.3423 11.2299C11.7822 11.857 12.0021 12.5981 12.0021 13.4531C12.0021 14.4222 11.7194 15.2868 11.1538 16.0469C10.6092 16.8069 9.82375 17.4055 8.79739 17.8425C7.79197 18.2605 6.63993 18.4696 5.34127 18.4696C4.46153 18.4696 3.55037 18.3651 2.6078 18.156C1.68617 17.947 0.984469 17.6905 0.502708 17.3865C0.314192 17.2725 0.209461 17.0919 0.188515 16.8449L0 12.5411V12.5126C0 12.4366 0.0523655 12.3985 0.157096 12.3985C0.261827 12.3795 0.324665 12.4081 0.345612 12.4841C1.03683 14.0422 1.82232 15.3248 2.70205 16.3319C3.60274 17.339 4.73383 17.8425 6.09533 17.8425C7.01696 17.8425 7.7815 17.624 8.38893 17.187C8.99637 16.7309 9.30009 15.9804 9.30009 14.9353C9.30009 14.0992 9.09063 13.3676 8.67171 12.7406C8.27373 12.1135 7.77102 11.591 7.16359 11.1729C6.57709 10.7549 5.77067 10.2419 4.7443 9.63382C3.73889 9.04477 2.95341 8.55072 2.38786 8.15169C1.82232 7.73365 1.34055 7.23011 0.942577 6.64106C0.5446 6.03301 0.345612 5.32995 0.345612 4.53188C0.345612 3.5438 0.649331 2.70773 1.25677 2.02367C1.86421 1.33961 2.64969 0.836071 3.61321 0.513044C4.59768 0.171015 5.62404 0 6.6923 0C7.38352 0 8.08522 0.0665061 8.79739 0.199518C9.50955 0.313527 10.117 0.46554 10.6197 0.655556C10.9339 0.769565 11.091 0.95008 11.091 1.1971L11.1538 5.04493C11.1538 5.12093 11.1015 5.16844 10.9967 5.18744C10.9129 5.20644 10.8501 5.18744 10.8082 5.13043C10.3893 3.97134 9.82375 2.92625 9.11158 1.99517C8.42035 1.04509 7.37305 0.570048 5.96965 0.570048C5.02708 0.570048 4.27302 0.826569 3.70747 1.33961C3.16287 1.83366 2.89057 2.49871 2.89057 3.33478Z" fill="white"/>
<path d="M17.3848 29.5328C13.0634 29.8195 6.37944 29.5745 3.9375 29.2758C6.37943 29.7936 13.9324 31.2753 19.5563 31.2275C26.5861 31.1678 39.4029 28.3587 42.9234 28.051C48.9661 27.5229 54.3187 27.367 58.1142 27.3548C53.5664 26.6383 51.9645 25.9366 44.5291 26.0136C40.6283 26.054 34.1031 27.346 30.9952 27.8041C27.9613 28.2622 21.7063 29.2461 17.3848 29.5328Z" fill="white"/>
<path d="M24.8047 32.2047C27.3575 32.2046 35.0765 31.9878 39.6129 31.3985C45.2834 30.6618 56.0944 28.6356 66.8027 28.4569C77.511 28.2783 82.8481 30.4059 90.9015 30.3344C96.5771 30.2841 99.3985 30.0261 100.173 29.7739C100.254 29.7363 100.323 29.7023 100.377 29.6725C100.345 29.7058 100.278 29.7398 100.173 29.7739C98.6635 30.4694 92.5416 32.392 85.0055 31.7902C73.2786 30.8538 67.3529 29.841 51.2765 32.2066C36.2703 34.4148 28.1961 32.7023 24.8047 32.2047Z" fill="white"/>
<path d="M110.472 26.4808V33.0684H109.479V26.4808H110.472ZM122.219 26.4808V33.0684H121.305L117.957 28.2371H117.896V33.0684H116.902V26.4808H117.822L121.173 31.3185H121.234V26.4808H122.219ZM128.65 33.0684V26.4808H132.735V27.3364H129.644V29.3436H132.443V30.196H129.644V33.0684H128.65ZM138.94 33.0684V26.4808H141.288C141.798 26.4808 142.222 26.5688 142.558 26.7446C142.897 26.9204 143.15 27.1638 143.317 27.4748C143.485 27.7835 143.568 28.1406 143.568 28.5459C143.568 28.949 143.483 29.3039 143.314 29.6106C143.147 29.9151 142.894 30.152 142.555 30.3214C142.218 30.4908 141.795 30.5755 141.284 30.5755H139.506V29.7199H141.194C141.516 29.7199 141.778 29.6738 141.979 29.5816C142.183 29.4894 142.332 29.3554 142.426 29.1795C142.521 29.0037 142.568 28.7925 142.568 28.5459C142.568 28.2971 142.52 28.0816 142.423 27.8993C142.329 27.7171 142.18 27.5777 141.976 27.4812C141.774 27.3825 141.51 27.3332 141.182 27.3332H139.933V33.0684H138.94ZM142.192 30.0963L143.819 33.0684H142.687L141.091 30.0963H142.192ZM150.316 33.0684H149.261L151.631 26.4808H152.78L155.15 33.0684H154.095L152.233 27.6774H152.182L150.316 33.0684ZM150.493 30.4887H153.915V31.325H150.493V30.4887Z" fill="white"/>
</svg>
