<svg width="124" height="36" viewBox="0 0 124 36" fill="none" xmlns="http://www.w3.org/2000/svg">
<g clip-path="url(#clip0_582_3598)">
<path d="M16.6838 0C16.6838 0 13.1758 3.50798 13.1758 7.01595C13.1758 8.95293 14.7468 10.5239 16.6838 10.5239C18.6207 10.5239 20.1917 8.95293 20.1917 7.01595C20.1917 3.50798 16.6838 0 16.6838 0ZM16.6838 10.1356C16.2642 10.1356 15.867 9.97051 15.568 9.67148C15.269 9.37246 15.1038 8.97525 15.1038 8.55572C15.1038 8.13619 15.269 7.73897 15.568 7.43995C15.867 7.14092 16.2642 6.97579 16.6838 6.97579C17.1033 6.97579 17.5005 7.14092 17.7995 7.43995C18.0986 7.73897 18.2637 8.13619 18.2637 8.55572C18.2637 8.97525 18.0986 9.37246 17.7995 9.67148C17.5005 9.97051 17.1033 10.1356 16.6838 10.1356ZM16.6481 6.35988L16.7507 6.25723L17.2416 5.76629L18.8171 4.19083C18.7636 4.07925 18.7055 3.97214 18.6475 3.86502L17.1925 5.31999C17.0944 4.95401 16.8534 4.61928 16.5008 4.41844L16.1214 4.19975C15.8581 4.04801 15.6706 3.80254 15.5903 3.50798C15.51 3.21341 15.5501 2.90546 15.7063 2.64214C16.0188 2.09765 16.7195 1.9102 17.264 2.22261C17.8085 2.53503 17.9959 3.23573 17.6835 3.78023L17.987 3.95428C18.1476 3.67757 18.2101 3.36516 18.1789 3.05274C18.8305 4.07925 19.5357 5.48066 19.6606 6.89992C19.6562 6.82851 19.6472 6.75263 19.6383 6.68122C18.7368 6.13227 17.6389 6.02515 16.657 6.36435L16.6481 6.35988ZM16.6882 1.08899C16.8623 1.28537 17.0854 1.54869 17.3309 1.86557C16.9114 1.66473 16.4383 1.67812 16.0411 1.86557C16.2865 1.54869 16.5097 1.28537 16.6838 1.08899H16.6882ZM15.2913 4.91831C15.7376 5.36462 15.7376 6.08764 15.2913 6.52948C15.0771 6.74371 14.7914 6.86421 14.4835 6.86421C14.2157 6.86421 13.9613 6.77049 13.756 6.60089C13.8854 5.70381 14.2291 4.82012 14.6263 4.04801C14.6977 4.25331 14.8182 4.44522 14.9789 4.60589L15.2868 4.91385L15.2913 4.91831ZM13.7069 7.32837C13.7069 7.21679 13.7069 7.10968 13.7203 6.9981C13.9479 7.13646 14.2157 7.21233 14.4879 7.21233C14.8851 7.21233 15.26 7.05612 15.5412 6.77495C16.1214 6.19475 16.1214 5.24858 15.5412 4.66838L15.2333 4.36042C15.019 4.1462 14.903 3.86502 14.8985 3.566C15.0012 3.38747 15.1038 3.21788 15.2065 3.05721C15.1886 3.23573 15.202 3.41872 15.2511 3.6017C15.3538 3.98553 15.5992 4.30687 15.9474 4.50771L16.3267 4.7264C16.6659 4.92277 16.8667 5.26643 16.8935 5.62794L15.3225 7.19894C14.9565 7.56491 14.7557 8.04693 14.7557 8.56464C14.7557 9.08236 14.9565 9.56437 15.3225 9.93034C15.3672 9.97497 15.4073 10.0151 15.4564 10.0508C14.4254 9.58222 13.7113 8.54233 13.7113 7.3373L13.7069 7.32837ZM17.9022 10.0553C17.9513 10.0151 18.0004 9.97051 18.045 9.92588C18.411 9.55991 18.6118 9.0779 18.6118 8.56018C18.6118 8.04246 18.411 7.56045 18.045 7.19448C17.737 6.88653 17.3443 6.69461 16.9158 6.64552C17.8397 6.37774 18.8573 6.54287 19.6606 7.12753C19.6606 7.05166 19.6517 6.98025 19.6472 6.90438C19.6606 7.0472 19.6651 7.18555 19.6651 7.32837C19.6651 8.54233 18.9376 9.58669 17.8977 10.0508L17.9022 10.0553Z" fill="white"/>
<path d="M6.37381 3.35156C6.37381 3.35156 5.59724 8.25202 7.65918 11.0905C8.79726 12.6571 10.9931 13.0052 12.5596 11.8671C14.1262 10.729 14.4743 8.53319 13.3362 6.96665C11.2743 4.12814 6.37381 3.35156 6.37381 3.35156ZM12.332 11.5502C11.9928 11.8002 11.5733 11.8984 11.1582 11.8314C10.7432 11.7645 10.3772 11.5413 10.1273 11.2021C9.87733 10.8629 9.77914 10.4434 9.84608 10.0283C9.91303 9.61326 10.1362 9.24729 10.4754 8.99735C10.8146 8.74742 11.2341 8.64923 11.6492 8.71618C12.0642 8.78313 12.4302 9.00628 12.6801 9.34547C12.9301 9.68467 13.0283 10.1042 12.9613 10.5193C12.8944 10.9343 12.6712 11.3003 12.332 11.5502ZM10.0826 8.51534L10.1049 8.36806L10.2121 7.68521L10.5602 5.48491C10.4486 5.42689 10.3415 5.37334 10.2299 5.31978L9.90857 7.35494C9.614 7.11394 9.22572 6.98897 8.81511 7.0336L8.37773 7.07823C8.07424 7.10947 7.77968 7.02021 7.54314 6.8283C7.30659 6.63639 7.15931 6.36414 7.12807 6.06065C7.06112 5.43582 7.51636 4.87347 8.14119 4.80653C8.76602 4.73958 9.32837 5.19481 9.39531 5.81964L9.74343 5.78394C9.71219 5.46706 9.5783 5.1725 9.36853 4.94042C10.4977 5.38672 11.8946 6.10528 12.8274 7.18088C12.7783 7.12732 12.7292 7.0693 12.6801 7.01575C11.6269 7.10055 10.6762 7.66289 10.0826 8.51088V8.51534ZM7.01649 4.22633C7.27535 4.28435 7.61008 4.36468 7.99391 4.47626C7.53867 4.56106 7.15931 4.84669 6.95401 5.23498C6.9674 4.8333 6.99418 4.48965 7.01649 4.22633ZM8.13673 8.14491C8.75709 8.24309 9.18109 8.82776 9.0829 9.44812C9.0338 9.74715 8.87313 10.0149 8.62766 10.1935C8.40897 10.3497 8.15011 10.4255 7.88679 10.4077C7.4628 9.60433 7.22179 8.6894 7.09237 7.83249C7.27089 7.95746 7.48065 8.04226 7.70381 8.0735L8.13673 8.14044V8.14491ZM8.27508 11.0325C8.2126 10.9433 8.15011 10.854 8.09209 10.7603C8.35988 10.738 8.61874 10.6442 8.83743 10.4791C9.15877 10.247 9.373 9.89889 9.43548 9.50614C9.56491 8.69386 9.00703 7.93068 8.19475 7.80125L7.76183 7.7343C7.4628 7.68521 7.20394 7.529 7.02542 7.288C7.0031 7.08269 6.98525 6.88632 6.97633 6.69441C7.06559 6.85061 7.18609 6.98897 7.32891 7.10947C7.63686 7.3594 8.02515 7.47544 8.42236 7.43528L8.85974 7.39065C9.24803 7.35048 9.614 7.51115 9.84608 7.78786L9.49796 9.97923C9.41763 10.488 9.53813 10.9968 9.84162 11.4163C10.1451 11.8314 10.5914 12.1081 11.1002 12.1885C11.1582 12.1974 11.2207 12.2063 11.2787 12.2063C10.1719 12.4295 8.98025 12.0099 8.27062 11.037L8.27508 11.0325ZM13.2693 10.7647C13.2871 10.7022 13.3005 10.6398 13.3094 10.5728C13.3898 10.064 13.2693 9.55524 12.9658 9.13571C12.6623 8.71618 12.216 8.44393 11.7072 8.3636C11.2787 8.29665 10.8458 8.37252 10.4709 8.58229C11.06 7.82356 11.9794 7.35494 12.9792 7.3594C12.9345 7.30138 12.8854 7.24337 12.8363 7.18981C12.9301 7.29692 13.0193 7.4085 13.0997 7.52008C13.8138 8.50195 13.8405 9.77393 13.2693 10.7603V10.7647Z" fill="white"/>
<path d="M0 12.1191C0 12.1191 2.25385 16.542 5.58777 17.6221C7.43102 18.2201 9.40816 17.2115 10.0107 15.3682C10.6087 13.525 9.60008 11.5478 7.75682 10.9453C4.42291 9.86525 0 12.1191 0 12.1191ZM9.64024 15.2522C9.51081 15.6539 9.22964 15.9797 8.85474 16.1716C8.47984 16.3635 8.05139 16.3947 7.64971 16.2653C7.24803 16.1359 6.92223 15.8547 6.73032 15.4798C6.53841 15.1049 6.50716 14.6764 6.63659 14.2748C6.76602 13.8731 7.0472 13.5473 7.42209 13.3554C7.79699 13.1635 8.22545 13.1322 8.62713 13.2617C9.0288 13.3911 9.35461 13.6723 9.54652 14.0472C9.73843 14.4221 9.76967 14.8505 9.64024 15.2522ZM6.03854 14.1186L5.9716 13.9847L5.65918 13.3688L4.64606 11.3827C4.5211 11.4006 4.40059 11.4229 4.28455 11.4407L5.21734 13.275C4.83797 13.2572 4.44969 13.3822 4.14173 13.6544L3.81593 13.949C3.58831 14.1543 3.29821 14.2569 2.99472 14.2391C2.69123 14.2212 2.41006 14.0918 2.20922 13.8642C1.78969 13.3955 1.8254 12.6725 2.29402 12.253C2.76264 11.8335 3.48566 11.8692 3.90519 12.3378L4.16405 12.1013C3.94982 11.8647 3.67311 11.704 3.36516 11.6416C4.53895 11.3381 6.0921 11.1015 7.48011 11.4229C7.40871 11.405 7.3373 11.3916 7.26142 11.3782C6.45807 12.0655 6.02069 13.0787 6.03854 14.1141V14.1186ZM1.03543 12.4494C1.27644 12.3467 1.59778 12.2128 1.97268 12.0789C1.65134 12.4137 1.51745 12.8689 1.57547 13.3063C1.35231 12.976 1.16933 12.6815 1.03543 12.4538V12.4494ZM4.24885 14.9621C4.8112 14.6764 5.49851 14.8996 5.78415 15.4619C5.9225 15.7342 5.94482 16.0421 5.85109 16.3322C5.76629 16.5866 5.60116 16.8009 5.37801 16.9437C4.56573 16.542 3.83378 15.944 3.22234 15.3281C3.44103 15.3236 3.65972 15.27 3.86056 15.1674L4.25331 14.9665L4.24885 14.9621ZM6.05193 17.2159C5.94928 17.1802 5.84663 17.1445 5.74398 17.1044C5.94482 16.9303 6.10102 16.7027 6.18582 16.4394C6.31079 16.06 6.27508 15.6583 6.09656 15.3013C5.72166 14.5693 4.82458 14.2748 4.09264 14.6497L3.69989 14.8505C3.43211 14.9889 3.12862 15.0112 2.83852 14.9219C2.70016 14.7702 2.57073 14.6184 2.45023 14.4711C2.61536 14.5426 2.79389 14.5872 2.98133 14.5961C3.37855 14.6184 3.76237 14.4801 4.05694 14.2168L4.38274 13.9222C4.67284 13.6589 5.06113 13.5785 5.41371 13.6633L6.42237 15.6405C6.65445 16.1002 7.05612 16.4394 7.54706 16.6C8.038 16.7607 8.56018 16.7161 9.01988 16.484C9.07343 16.4572 9.12699 16.426 9.17608 16.3947C8.40843 17.2293 7.19894 17.5864 6.05639 17.2159H6.05193ZM9.93927 14.065C9.91695 14.007 9.89018 13.9445 9.85893 13.8865C9.62685 13.4268 9.22518 13.0876 8.73424 12.9269C8.2433 12.7663 7.72112 12.8109 7.26142 13.043C6.87314 13.2393 6.56965 13.5562 6.38666 13.9445C6.4179 12.9849 6.88653 12.0655 7.69434 11.4809C7.62293 11.463 7.55152 11.4407 7.48011 11.4273C7.61847 11.4586 7.75683 11.4987 7.89072 11.5389C9.04219 11.9138 9.8143 12.9269 9.93481 14.0605L9.93927 14.065Z" fill="white"/>
<path d="M0 22.961C0 22.961 4.42291 25.2148 7.75682 24.1303C9.60008 23.5323 10.6087 21.5507 10.0107 19.7074C9.41263 17.8642 7.43102 16.8555 5.58777 17.4536C2.24939 18.5381 0 22.9565 0 22.9565V22.961ZM9.64024 19.8279C9.76967 20.2296 9.73843 20.658 9.54652 21.0329C9.35461 21.4078 9.0288 21.689 8.62713 21.8184C8.22545 21.9479 7.79699 21.9166 7.42209 21.7247C7.0472 21.5328 6.76602 21.207 6.63659 20.8053C6.50716 20.4036 6.53841 19.9752 6.73032 19.6003C6.92223 19.2254 7.24803 18.9442 7.64971 18.8148C8.05139 18.6854 8.47984 18.7166 8.85474 18.9085C9.22964 19.1004 9.51081 19.4262 9.64024 19.8279ZM6.06086 21.0285L5.92696 20.9615L5.31106 20.6491L3.32499 19.636C3.23573 19.7253 3.15093 19.8101 3.06613 19.8993L4.90046 20.8321C4.57912 21.0419 4.34257 21.3677 4.25331 21.7693L4.16405 22.1978C4.10157 22.4968 3.92304 22.7512 3.66865 22.9164C3.41425 23.0815 3.1063 23.1395 2.81174 23.077C2.19583 22.9476 1.80308 22.3406 1.93251 21.7247C2.06194 21.1088 2.66892 20.7161 3.28482 20.8455L3.35623 20.5018C3.04382 20.4349 2.72694 20.4706 2.43684 20.6C3.20895 19.6628 4.32472 18.5604 5.63686 18.0025C5.56992 18.0293 5.50297 18.0605 5.43603 18.0918C5.19056 19.1183 5.43156 20.1983 6.05193 21.024L6.06086 21.0285ZM1.03543 22.6173C1.16933 22.3897 1.35231 22.0951 1.57547 21.7649C1.51298 22.2246 1.67365 22.6709 1.97268 22.9922C1.59778 22.8539 1.27644 22.7244 1.03543 22.6218V22.6173ZM5.10576 22.7646C5.3914 22.2023 6.07871 21.9791 6.64106 22.2647C6.9133 22.4031 7.11414 22.6396 7.20787 22.9297C7.29267 23.1841 7.28374 23.4564 7.18555 23.7019C6.29294 23.8581 5.34677 23.8 4.48985 23.6617C4.66391 23.5278 4.80673 23.3582 4.90938 23.1574L5.11022 22.7646H5.10576ZM7.89072 23.5278C7.78807 23.5635 7.68095 23.5903 7.57384 23.6171C7.63632 23.3537 7.62293 23.0815 7.53813 22.8182C7.41317 22.4388 7.14985 22.1309 6.79726 21.9523C6.06532 21.5774 5.16378 21.872 4.79334 22.6039L4.5925 22.9967C4.45415 23.2645 4.22207 23.4653 3.9409 23.559C3.74006 23.5189 3.54815 23.4698 3.3607 23.4251C3.53922 23.3894 3.70882 23.318 3.86502 23.2154C4.19975 22.9967 4.42737 22.6664 4.51217 22.2737L4.60143 21.8452C4.68177 21.4614 4.94955 21.1668 5.28428 21.0285L7.26142 22.0371C7.72112 22.2692 8.2433 22.3138 8.73424 22.1532C9.22518 21.9925 9.62239 21.6533 9.85893 21.1936C9.88571 21.1401 9.91249 21.0865 9.93481 21.0285C9.80538 22.1532 9.03773 23.1529 7.89518 23.5278H7.89072ZM9.18501 18.6943C9.13145 18.6586 9.07343 18.6273 9.01541 18.5961C8.55572 18.364 8.03354 18.3194 7.5426 18.4801C7.05166 18.6407 6.65445 18.9799 6.4179 19.4396C6.22153 19.8279 6.15904 20.2608 6.24384 20.6848C5.70381 19.8904 5.54314 18.8683 5.85556 17.9222C5.78415 17.949 5.7172 17.9757 5.65025 18.0025C5.77968 17.949 5.91358 17.8954 6.04747 17.8552C7.19894 17.4803 8.41736 17.8508 9.18501 18.6943Z" fill="white"/>
<path d="M6.37381 31.7319C6.37381 31.7319 11.2743 30.9553 13.3362 28.1168C14.4743 26.5503 14.1262 24.3545 12.5596 23.2164C10.9931 22.0783 8.79726 22.4264 7.65918 23.9929C5.59724 26.8315 6.37381 31.7319 6.37381 31.7319ZM12.332 23.5288C12.6712 23.7787 12.8988 24.1447 12.9613 24.5598C13.0283 24.9748 12.9256 25.3944 12.6801 25.7335C12.4347 26.0727 12.0642 26.3004 11.6492 26.3628C11.2341 26.4298 10.8146 26.3271 10.4754 26.0817C10.1362 25.8317 9.90857 25.4658 9.84608 25.0507C9.77914 24.6356 9.88179 24.2161 10.1273 23.8769C10.3727 23.5377 10.7432 23.3101 11.1582 23.2476C11.5733 23.1807 11.9928 23.2833 12.332 23.5288ZM10.1406 26.6083L9.99336 26.6306L9.31051 26.7377L7.11022 27.0859C7.0879 27.2064 7.07005 27.3313 7.05666 27.4518L9.09182 27.1305C8.95347 27.4875 8.95347 27.8937 9.12307 28.2686L9.30159 28.6702C9.42655 28.947 9.43548 29.2594 9.3239 29.5406C9.21679 29.8262 9.00256 30.0493 8.72139 30.1743C8.14565 30.4287 7.47173 30.1743 7.21733 29.5986C6.96294 29.0228 7.21733 28.3489 7.79307 28.0945L7.65025 27.7732C7.36015 27.9026 7.11914 28.1168 6.96294 28.3891C7.03881 27.1796 7.2932 25.6264 8.02515 24.408C7.98498 24.4705 7.94928 24.5374 7.91357 24.5999C8.31971 25.5773 9.14538 26.3093 10.1362 26.6083H10.1406ZM7.00757 30.8482C6.98079 30.5849 6.95847 30.2413 6.94508 29.8396C7.16377 30.2457 7.55653 30.518 7.98944 30.5983C7.60562 30.7099 7.26643 30.7902 7.01203 30.8482H7.00757ZM10.3861 28.5721C10.2879 27.9517 10.7119 27.367 11.3323 27.2688C11.6313 27.2197 11.9348 27.2956 12.1803 27.4741C12.399 27.6304 12.5507 27.858 12.6132 28.1124C11.9839 28.764 11.185 29.2728 10.4084 29.6655C10.4709 29.4558 10.4843 29.2326 10.4486 29.0094L10.3817 28.5765L10.3861 28.5721ZM13.0907 27.55C13.0283 27.6393 12.9568 27.7241 12.8899 27.8089C12.7873 27.5634 12.6177 27.3447 12.3945 27.184C12.0732 26.952 11.6804 26.8538 11.2832 26.9163C10.4709 27.0457 9.91303 27.8089 10.0425 28.6212L10.1094 29.0541C10.1585 29.3531 10.0871 29.6477 9.91303 29.8931C9.72558 29.9779 9.54259 30.0538 9.36407 30.1252C9.48457 29.9913 9.58276 29.8351 9.64971 29.6611C9.79253 29.2906 9.7836 28.8845 9.61847 28.5185L9.43994 28.1168C9.27927 27.7598 9.31944 27.3626 9.51135 27.0546L11.7027 26.7065C12.2115 26.6262 12.6578 26.3539 12.9613 25.9344C13.2648 25.5149 13.3853 25.0061 13.305 24.4973C13.296 24.4393 13.2827 24.3812 13.2693 24.3232C13.8271 25.3096 13.7959 26.5726 13.0863 27.5456L13.0907 27.55ZM11.2966 22.8816C11.2341 22.8816 11.1672 22.8906 11.1047 22.904C10.5959 22.9843 10.1496 23.2565 9.84608 23.6761C9.54259 24.0956 9.42209 24.6044 9.50243 25.1132C9.56937 25.5416 9.77914 25.9299 10.0916 26.22C9.19001 25.8942 8.45807 25.1623 8.15458 24.2161C8.11441 24.2786 8.07424 24.3411 8.03407 24.4035C8.10548 24.283 8.18582 24.1625 8.27062 24.051C8.98471 23.0691 10.1853 22.654 11.301 22.8861L11.2966 22.8816Z" fill="white"/>
<path d="M16.6838 35.0825C16.6838 35.0825 20.1917 31.5745 20.1917 28.0666C20.1917 26.1296 18.6207 24.5586 16.6838 24.5586C14.7468 24.5586 13.1758 26.1296 13.1758 28.0666C13.1758 31.5745 16.6838 35.0825 16.6838 35.0825ZM16.6838 24.9424C17.1033 24.9424 17.5005 25.1076 17.7995 25.4066C18.0986 25.7056 18.2637 26.1028 18.2637 26.5223C18.2637 26.9419 18.0986 27.3391 17.7995 27.6381C17.5005 27.9371 17.1033 28.1023 16.6838 28.1023C16.2642 28.1023 15.867 27.9371 15.568 27.6381C15.269 27.3391 15.1038 26.9419 15.1038 26.5223C15.1038 26.1028 15.269 25.7056 15.568 25.4066C15.867 25.1076 16.2642 24.9424 16.6838 24.9424ZM16.7195 28.7182L16.6168 28.8208L16.1259 29.3118L14.5504 30.8872C14.604 30.9988 14.662 31.1059 14.72 31.213L16.175 29.7581C16.2732 30.124 16.5142 30.4588 16.8667 30.6596L17.2461 30.8783C17.5094 31.0301 17.6969 31.2755 17.7772 31.5701C17.8575 31.8646 17.8174 32.1726 17.6612 32.4359C17.3488 32.9804 16.6481 33.1679 16.1036 32.8555C15.5591 32.543 15.3716 31.8423 15.684 31.2978L15.3805 31.1238C15.2199 31.4005 15.1574 31.7129 15.1886 32.0253C14.537 30.9988 13.8319 29.5974 13.7069 28.1781C13.7113 28.2496 13.7203 28.3254 13.7292 28.3968C14.6307 28.9458 15.7287 29.0529 16.7105 28.7137L16.7195 28.7182ZM16.6793 33.9935C16.5052 33.7972 16.2821 33.5338 16.0366 33.217C16.4561 33.4178 16.9292 33.4044 17.3264 33.217C17.081 33.5338 16.8578 33.7972 16.6838 33.9935H16.6793ZM18.0762 30.1642C17.6299 29.7179 17.6299 28.9949 18.0762 28.553C18.2905 28.3388 18.5761 28.2183 18.8841 28.2183C19.1518 28.2183 19.4062 28.312 19.6115 28.4816C19.4821 29.3787 19.1385 30.2624 18.7412 31.0345C18.6698 30.8292 18.5493 30.6373 18.3887 30.4766L18.0807 30.1687L18.0762 30.1642ZM19.6606 27.7497C19.6606 27.8613 19.6606 27.9684 19.6472 28.08C19.4196 27.9416 19.1518 27.8657 18.8796 27.8657C18.4824 27.8657 18.1075 28.0219 17.8263 28.3031C17.2461 28.8833 17.2461 29.8295 17.8263 30.4097L18.1343 30.7176C18.3485 30.9319 18.4645 31.213 18.469 31.5121C18.3663 31.6906 18.2637 31.8602 18.161 32.0209C18.1789 31.8423 18.1655 31.6593 18.1164 31.4764C18.0138 31.0925 17.7683 30.7712 17.4202 30.5704L17.0408 30.3517C16.7016 30.1553 16.5008 29.8116 16.474 29.4501L18.045 27.8791C18.411 27.5132 18.6118 27.0311 18.6118 26.5134C18.6118 26.0002 18.411 25.5137 18.045 25.1477C18.0004 25.1031 17.9602 25.0629 17.9111 25.0272C18.9421 25.4958 19.6562 26.5357 19.6562 27.7408L19.6606 27.7497ZM15.4653 25.0272C15.4162 25.0674 15.3672 25.112 15.3225 25.1566C14.9565 25.5226 14.7557 26.0046 14.7557 26.5223C14.7557 27.0356 14.9565 27.5221 15.3225 27.888C15.6305 28.196 16.0232 28.3879 16.4517 28.437C15.5278 28.7048 14.5102 28.5397 13.7069 27.955C13.7069 28.0309 13.7158 28.1023 13.7203 28.1781C13.7069 28.0353 13.7024 27.897 13.7024 27.7542C13.7024 26.5402 14.4299 25.4958 15.4698 25.0317L15.4653 25.0272Z" fill="white"/>
<path d="M26.9952 31.7319C26.9952 31.7319 27.7718 26.8315 25.7098 23.9929C24.5717 22.4264 22.3759 22.0783 20.8094 23.2164C19.2428 24.3545 18.8947 26.5503 20.0328 28.1168C22.0947 30.9553 26.9952 31.7319 26.9952 31.7319ZM21.037 23.5288C21.3762 23.2789 21.7957 23.1807 22.2108 23.2476C22.6258 23.3146 22.9918 23.5377 23.2417 23.8769C23.4917 24.2161 23.5898 24.6356 23.5229 25.0507C23.456 25.4658 23.2328 25.8317 22.8936 26.0817C22.5544 26.3316 22.1349 26.4298 21.7198 26.3628C21.3048 26.2959 20.9388 26.0727 20.6888 25.7335C20.4389 25.3944 20.3407 24.9748 20.4077 24.5598C20.4746 24.1447 20.6978 23.7787 21.037 23.5288ZM23.2864 26.5637L23.264 26.711L23.1569 27.3938L22.8088 29.5941C22.9204 29.6521 23.0275 29.7057 23.1391 29.7592L23.4604 27.7241C23.755 27.9651 24.1433 28.0901 24.5539 28.0454L24.9913 28.0008C25.2947 27.9695 25.5893 28.0588 25.8259 28.2507C26.0624 28.4426 26.2097 28.7149 26.2409 29.0184C26.3079 29.6432 25.8526 30.2055 25.2278 30.2725C24.603 30.3394 24.0406 29.8842 23.9737 29.2594L23.6256 29.2951C23.6568 29.612 23.7907 29.9065 24.0005 30.1386C22.8713 29.6923 21.4744 28.9737 20.5416 27.8981C20.5907 27.9517 20.6398 28.0097 20.6888 28.0633C21.7421 27.9785 22.6928 27.4161 23.2864 26.5681V26.5637ZM26.3525 30.8527C26.0936 30.7947 25.7589 30.7143 25.3751 30.6028C25.8303 30.518 26.2097 30.2323 26.415 29.844C26.4016 30.2457 26.3748 30.5894 26.3525 30.8527ZM25.2323 26.9386C24.6119 26.8404 24.1879 26.2557 24.2861 25.6354C24.3352 25.3363 24.4959 25.0685 24.7413 24.89C24.96 24.7338 25.2189 24.6579 25.4822 24.6758C25.9062 25.4792 26.1472 26.3941 26.2766 27.251C26.0981 27.126 25.8883 27.0412 25.6652 27.01L25.2323 26.943V26.9386ZM25.0939 24.051C25.1564 24.1402 25.2189 24.2295 25.2769 24.3232C25.0091 24.3455 24.7502 24.4393 24.5316 24.6044C24.2102 24.8365 23.996 25.1846 23.9335 25.5773C23.8041 26.3896 24.362 27.1528 25.1742 27.2822L25.6072 27.3492C25.9062 27.3983 26.165 27.5545 26.3436 27.7955C26.3659 28.0008 26.3837 28.1972 26.3927 28.3891C26.3034 28.2329 26.1829 28.0945 26.0401 27.974C25.7321 27.7241 25.3438 27.608 24.9466 27.6482L24.5092 27.6928C24.121 27.733 23.755 27.5723 23.5229 27.2956L23.871 25.1043C23.9514 24.5955 23.8309 24.0867 23.5274 23.6671C23.2239 23.2476 22.7776 22.9754 22.2688 22.895C22.2108 22.8861 22.1483 22.8772 22.0903 22.8772C23.1971 22.654 24.3887 23.0736 25.0984 24.0465L25.0939 24.051ZM20.0997 24.3143C20.0819 24.3768 20.0685 24.4393 20.0596 24.5062C19.9792 25.015 20.0997 25.5238 20.4032 25.9433C20.7067 26.3584 21.153 26.6351 21.6618 26.7154C22.0903 26.7824 22.5232 26.7065 22.8981 26.4967C22.3089 27.2555 21.3896 27.7241 20.3898 27.7196C20.4345 27.7776 20.4835 27.8357 20.5326 27.8892C20.4389 27.7821 20.3497 27.6705 20.2693 27.5589C19.5552 26.5771 19.5284 25.3051 20.0997 24.3188V24.3143Z" fill="white"/>
<path d="M33.3683 22.9604C33.3683 22.9604 31.1144 18.5375 27.7805 17.4575C25.9372 16.8594 23.9601 17.8681 23.3576 19.7113C22.7551 21.5546 23.7682 23.5317 25.6114 24.1342C28.9498 25.2187 33.3683 22.9649 33.3683 22.9649V22.9604ZM23.728 19.8274C23.8575 19.4257 24.1386 19.0999 24.5135 18.908C24.8884 18.716 25.3169 18.6848 25.7186 18.8142C26.1202 18.9437 26.446 19.2248 26.6379 19.5997C26.8299 19.9746 26.8611 20.4031 26.7317 20.8048C26.6022 21.2064 26.3211 21.5322 25.9462 21.7242C25.5713 21.9161 25.1428 21.9473 24.7411 21.8179C24.3395 21.6885 24.0137 21.4073 23.8217 21.0324C23.6298 20.6575 23.5986 20.229 23.728 19.8274ZM27.3297 20.961L27.3967 21.0949L27.7091 21.7108L28.7222 23.6968C28.8472 23.679 28.9677 23.6567 29.0837 23.6388L28.1509 21.8045C28.5303 21.8223 28.9186 21.6974 29.2265 21.4251L29.5523 21.1306C29.78 20.9253 30.0701 20.8226 30.3735 20.8405C30.677 20.8583 30.9582 20.9878 31.159 21.2154C31.5786 21.684 31.5429 22.407 31.0742 22.8265C30.6056 23.2461 29.8826 23.2104 29.4631 22.7417L29.2042 22.9783C29.4184 23.2148 29.6952 23.3755 30.0031 23.438C28.8293 23.7415 27.2762 23.978 25.8882 23.6567C25.9596 23.6745 26.031 23.6879 26.1068 23.7013C26.9102 23.014 27.3476 22.0009 27.3297 20.9654V20.961ZM32.3284 22.6302C32.0874 22.7328 31.766 22.8667 31.3911 23.0006C31.7125 22.6659 31.8464 22.2106 31.7883 21.7733C32.0115 22.1035 32.1945 22.3981 32.3284 22.6257V22.6302ZM29.1194 20.1175C28.5571 20.4031 27.8698 20.1799 27.5841 19.6176C27.4458 19.3453 27.4235 19.0374 27.5172 18.7473C27.602 18.4929 27.7671 18.2787 27.9903 18.1358C28.8025 18.5375 29.5345 19.1356 30.1459 19.7515C29.9272 19.7559 29.7085 19.8095 29.5077 19.9121L29.115 20.113L29.1194 20.1175ZM27.3163 17.8636C27.419 17.8993 27.5216 17.935 27.6243 17.9752C27.4234 18.1492 27.2672 18.3769 27.1824 18.6402C27.0575 19.0195 27.0932 19.4212 27.2717 19.7783C27.6466 20.5102 28.5437 20.8048 29.2756 20.4299L29.6684 20.229C29.9362 20.0907 30.2397 20.0684 30.5298 20.1576C30.6681 20.3094 30.7975 20.4611 30.918 20.6084C30.7529 20.537 30.5744 20.4923 30.3869 20.4834C29.9897 20.4611 29.6059 20.5995 29.3113 20.8628L28.9855 21.1573C28.6954 21.4207 28.3071 21.501 27.9546 21.4162L26.9459 19.4391C26.7138 18.9794 26.3121 18.6402 25.8212 18.4795C25.3303 18.3188 24.8081 18.3635 24.3484 18.5955C24.2948 18.6223 24.2413 18.6536 24.1922 18.6848C24.9598 17.8502 26.1693 17.4932 27.3119 17.8636H27.3163ZM23.429 21.0145C23.4513 21.0725 23.4781 21.135 23.5093 21.1931C23.7414 21.6528 24.1431 21.9919 24.634 22.1526C25.125 22.3133 25.6471 22.2687 26.1068 22.0366C26.4951 21.8402 26.7986 21.5233 26.9816 21.135C26.9504 22.0946 26.4817 23.014 25.6739 23.5987C25.7453 23.6165 25.8167 23.6388 25.8882 23.6522C25.7498 23.621 25.6114 23.5808 25.4775 23.5406C24.3261 23.1657 23.554 22.1526 23.4335 21.019L23.429 21.0145Z" fill="white"/>
<path d="M33.3666 12.1207C33.3666 12.1207 28.9437 9.86682 25.6097 10.9513C23.7665 11.5494 22.7578 13.531 23.3559 15.3743C23.9539 17.2175 25.9356 18.2262 27.7788 17.6281C31.1172 16.5436 33.3666 12.1251 33.3666 12.1251V12.1207ZM23.7263 15.2538C23.5969 14.8521 23.6281 14.4236 23.8201 14.0487C24.012 13.6738 24.3378 13.3926 24.7394 13.2632C25.1411 13.1338 25.5696 13.165 25.9445 13.3569C26.3194 13.5489 26.6005 13.8747 26.73 14.2763C26.8594 14.678 26.8282 15.1065 26.6363 15.4814C26.4443 15.8563 26.1185 16.1374 25.7169 16.2669C25.3152 16.3963 24.8867 16.3651 24.5118 16.1731C24.1369 15.9812 23.8558 15.6554 23.7263 15.2538ZM27.3057 14.0532L27.4396 14.1201L28.0555 14.4325L30.0416 15.4457C30.1308 15.3564 30.2156 15.2716 30.3004 15.1823L28.4661 14.2496C28.7875 14.0398 29.024 13.714 29.1133 13.3123L29.2025 12.8839C29.265 12.5848 29.4435 12.3304 29.6979 12.1653C29.9523 12.0002 30.2603 11.9421 30.5548 12.0046C31.1707 12.1341 31.5635 12.741 31.4341 13.3569C31.3046 13.9728 30.6977 14.3656 30.0817 14.2362L30.0103 14.5798C30.3228 14.6468 30.6396 14.6111 30.9297 14.4816C30.1576 15.4189 29.0419 16.5213 27.7297 17.0791C27.7967 17.0524 27.8636 17.0211 27.9305 16.9899C28.176 15.9634 27.935 14.8833 27.3146 14.0576L27.3057 14.0532ZM32.3311 12.4599C32.1972 12.6875 32.0143 12.982 31.7911 13.3123C31.8536 12.8526 31.6929 12.4063 31.3939 12.085C31.7688 12.2233 32.0901 12.3528 32.3311 12.4554V12.4599ZM28.2608 12.317C27.9752 12.8794 27.2879 13.1025 26.7255 12.8169C26.4533 12.6786 26.2524 12.442 26.1587 12.1519C26.0739 11.8975 26.0828 11.6253 26.181 11.3798C27.0736 11.2236 28.0198 11.2816 28.8767 11.42C28.7027 11.5539 28.5598 11.7235 28.4572 11.9243L28.2564 12.317H28.2608ZM25.4759 11.5539C25.5785 11.5182 25.6856 11.4914 25.7927 11.4646C25.7303 11.7279 25.7436 12.0002 25.8284 12.2635C25.9534 12.6429 26.2167 12.9508 26.5693 13.1293C27.3013 13.5042 28.2028 13.2097 28.5732 12.4777L28.7741 12.085C28.9124 11.8172 29.1445 11.6163 29.4257 11.5226C29.6265 11.5628 29.8184 11.6119 30.0059 11.6565C29.8274 11.6922 29.6578 11.7636 29.5015 11.8663C29.1668 12.085 28.9392 12.4152 28.8544 12.808L28.7651 13.2364C28.6848 13.6203 28.417 13.9148 28.0823 14.0532L26.1051 13.0445C25.6455 12.8124 25.1233 12.7678 24.6323 12.9285C24.1414 13.0892 23.7442 13.4284 23.5076 13.8881C23.4809 13.9416 23.4541 13.9952 23.4318 14.0532C23.5612 12.9285 24.3288 11.9288 25.4714 11.5539H25.4759ZM24.1816 16.3874C24.2351 16.4231 24.2931 16.4543 24.3512 16.4856C24.8109 16.7176 25.333 16.7623 25.824 16.6016C26.3149 16.4409 26.7121 16.1017 26.9487 15.642C27.145 15.2538 27.2075 14.8208 27.1227 14.3968C27.6628 15.1913 27.8234 16.2133 27.511 17.1595C27.5824 17.1327 27.6494 17.1059 27.7163 17.0791C27.5869 17.1327 27.453 17.1863 27.3191 17.2264C26.1676 17.6013 24.9492 17.2309 24.1816 16.3874Z" fill="white"/>
<path d="M26.9952 3.35156C26.9952 3.35156 22.0947 4.12814 20.0328 6.96665C18.8947 8.53319 19.2428 10.729 20.8094 11.8671C22.3759 13.0052 24.5717 12.6571 25.7098 11.0905C27.7718 8.25202 26.9952 3.35156 26.9952 3.35156ZM21.037 11.5502C20.6978 11.3003 20.4702 10.9343 20.4077 10.5193C20.3407 10.1042 20.4434 9.68467 20.6888 9.34547C20.9343 9.00628 21.3048 8.77866 21.7198 8.71618C22.1349 8.6537 22.5544 8.75188 22.8936 8.99735C23.2328 9.24282 23.4604 9.61326 23.5229 10.0283C23.5898 10.4434 23.4872 10.8629 23.2417 11.2021C22.9963 11.5413 22.6258 11.7689 22.2108 11.8314C21.7957 11.8984 21.3762 11.7957 21.037 11.5502ZM23.2283 8.47517L23.3756 8.45286L24.0585 8.34574L26.2588 7.99762C26.2811 7.87712 26.2989 7.75216 26.3123 7.63165L24.2772 7.95299C24.4155 7.59595 24.4155 7.18981 24.2459 6.81491L24.0674 6.41323C23.9424 6.13652 23.9335 5.82411 24.0451 5.54293C24.1567 5.26176 24.3664 5.03414 24.6476 4.90918C25.2233 4.65478 25.8973 4.90918 26.1517 5.48491C26.4061 6.06065 26.1517 6.73457 25.5759 6.98897L25.7187 7.31031C26.0088 7.18088 26.2498 6.96665 26.406 6.69441C26.3302 7.9039 26.0758 9.45705 25.3438 10.6755C25.384 10.613 25.4197 10.546 25.4554 10.4836C25.0493 9.50614 24.2236 8.7742 23.2328 8.47517H23.2283ZM26.3614 4.23525C26.3882 4.49857 26.4105 4.84223 26.4239 5.24391C26.2052 4.83777 25.8125 4.56552 25.3795 4.48518C25.7634 4.37361 26.1026 4.29327 26.357 4.23525H26.3614ZM22.9784 6.51142C23.0766 7.13179 22.6526 7.71645 22.0322 7.81464C21.7332 7.86373 21.4297 7.78786 21.1843 7.60934C20.9656 7.45313 20.8138 7.22551 20.7513 6.97112C21.3806 6.31951 22.1795 5.81072 22.9561 5.41797C22.8936 5.62773 22.8802 5.85088 22.9159 6.07404L22.9829 6.50696L22.9784 6.51142ZM20.2782 7.529C20.3407 7.43974 20.4121 7.35494 20.4791 7.27014C20.5817 7.51561 20.7513 7.7343 20.9745 7.89497C21.2958 8.12705 21.6886 8.22524 22.0858 8.16276C22.8981 8.03333 23.456 7.27014 23.3265 6.45786L23.2596 6.02495C23.2105 5.72592 23.2819 5.43136 23.456 5.18589C23.6434 5.10109 23.8264 5.02522 24.0049 4.95381C23.8844 5.0877 23.7862 5.24391 23.7193 5.41797C23.5765 5.7884 23.5854 6.19454 23.7505 6.56051L23.929 6.96219C24.0897 7.31924 24.0495 7.71645 23.8576 8.0244L21.6663 8.37252C21.1575 8.45286 20.7112 8.72511 20.4077 9.14463C20.1042 9.56416 19.9837 10.073 20.064 10.5817C20.0729 10.6398 20.0863 10.6978 20.0997 10.7558C19.5418 9.76947 19.5731 8.50641 20.2827 7.53346L20.2782 7.529ZM22.0724 12.2018C22.1349 12.2018 22.2018 12.1929 22.2643 12.1795C22.7731 12.0992 23.2194 11.8269 23.5229 11.4074C23.8264 10.9923 23.9469 10.4791 23.8666 9.9703C23.7996 9.54185 23.5898 9.15356 23.2774 8.86346C24.179 9.18927 24.9109 9.92121 25.2144 10.8674C25.2546 10.8049 25.2947 10.7424 25.3349 10.6799C25.2635 10.8004 25.1832 10.9209 25.0984 11.0325C24.3843 12.0144 23.1837 12.4295 22.0679 12.1974L22.0724 12.2018Z" fill="white"/>
<path d="M43.3585 27.6479C42.6533 27.6479 42.4257 28.0674 42.2963 28.8395L41.0421 28.6788C40.8502 26.1081 40.5914 24.0506 40.0156 21.4799L41.2385 21.0604C42.1713 23.6311 44.3894 27.1346 48.2143 27.1346C50.8163 27.1346 52.5212 25.5591 52.5212 23.5686C52.5212 20.8685 49.5978 19.6143 46.737 18.3959C43.5548 17.0481 41.0466 15.4726 41.0466 12.2904C41.0466 8.33614 44.5501 7.01953 47.1208 7.01953C49.2408 7.01953 50.7181 8.08174 51.6196 8.08174C52.1329 8.08174 52.5212 7.69792 52.6818 7.05524L53.8378 7.18467C53.9003 9.56348 53.9984 11.4246 54.1279 13.0313L52.905 13.4508C52.5212 10.59 50.1423 8.56376 47.1833 8.56376C44.8357 8.56376 43.6798 9.59026 43.6798 11.7147C43.6798 13.4821 44.5456 14.3479 47.6341 15.7315C53.5789 18.4004 55.0562 19.7795 55.0562 22.6403C55.0562 26.1126 52.2623 28.6833 48.5312 28.6833C46.1524 28.6833 44.4832 27.6568 43.3585 27.6568V27.6479Z" fill="white"/>
<path d="M56.2148 20.9286C56.2148 16.2067 59.4283 12.7969 63.445 12.7969C67.078 12.7969 70.6127 15.6265 70.6127 20.6073C70.6127 25.3292 67.3993 28.7077 63.3825 28.7077C59.7496 28.7077 56.2148 25.9139 56.2148 20.9286ZM63.5432 27.226C65.9845 27.226 67.5912 24.8472 67.5912 21.0893C67.5912 17.3314 66.0827 14.2742 63.4138 14.2742C61.1019 14.2742 59.2363 16.6217 59.2363 20.5403C59.2363 24.1733 60.8118 27.226 63.5432 27.226Z" fill="white"/>
<path d="M71.5705 26.782L73.6592 26.5589C73.8823 26.5276 73.918 26.4964 73.918 26.2063C74.0162 23.7962 74.0162 22.6715 74.0162 21.5468V11.8397C74.0162 10.0723 74.0207 11.8397 73.9582 10.4918C73.927 9.97855 73.8957 9.9116 73.7975 9.88036L71.7713 9.13949V8.20671L76.7209 7.01953V23.3142C76.7164 26.367 76.9083 26.6258 77.8411 26.7553L79.1265 26.9472L79.1577 28.0719H71.4767C71.3786 27.7818 71.3473 27.2685 71.5749 26.7865L71.5705 26.782Z" fill="white"/>
<path d="M80.4421 26.783L82.5308 26.5599C82.754 26.5286 82.7897 26.4974 82.7897 26.2073C82.8879 23.7972 82.8879 22.6725 82.8879 21.5479V20.2625C82.8879 18.4951 82.8879 17.9506 82.8254 16.5983C82.7942 16.085 82.7629 16.0181 82.6647 15.9869L80.6385 15.246V14.3132L85.5568 13.126V16.21H85.7175C86.6815 14.3132 88.3194 12.8047 90.1181 12.8047C91.3409 12.8047 92.1086 13.4786 92.1086 14.1882C92.1086 14.7997 91.3365 16.1475 90.6001 16.1475C89.9886 16.1475 89.2522 15.2147 88.5426 15.2147C87.6768 15.2147 86.3914 16.6295 85.5523 17.8837V23.3152C85.5523 26.368 85.7442 26.6268 86.677 26.7563L88.2837 26.9482L88.315 28.0729H80.3439C80.2457 27.7828 80.2145 27.2695 80.4421 26.7875V26.783Z" fill="white"/>
<path d="M92.7775 26.7804L94.8662 26.5573C95.0894 26.526 95.1251 26.4948 95.1251 26.2047C95.2233 23.7946 95.2233 22.6699 95.2233 21.5452V20.2599C95.2233 18.4925 95.2233 17.948 95.1608 16.5957C95.1295 16.0824 95.0983 16.0155 95.0001 15.9842L92.9739 15.2434V14.3106L97.8922 13.1234V23.3126C97.8922 26.3654 98.0841 26.6242 99.0169 26.7536L100.302 26.9456L100.333 28.0703H92.6838C92.5856 27.7802 92.5543 27.2669 92.782 26.7849L92.7775 26.7804ZM96.2498 5.21484C97.3745 5.21484 98.401 6.11639 98.401 7.40175C98.401 8.58893 97.437 9.55295 96.2498 9.55295C95.0626 9.55295 94.0629 8.55769 94.0629 7.40175C94.0629 6.24581 95.0581 5.21484 96.2498 5.21484Z" fill="white"/>
<path d="M101.328 20.9286C101.328 16.2067 104.542 12.7969 108.558 12.7969C112.191 12.7969 115.726 15.6265 115.726 20.6073C115.726 25.3292 112.513 28.7077 108.496 28.7077C104.863 28.7077 101.328 25.9139 101.328 20.9286ZM108.652 27.226C111.093 27.226 112.7 24.8472 112.7 21.0893C112.7 17.3314 111.192 14.2742 108.523 14.2742C106.211 14.2742 104.345 16.6217 104.345 20.5403C104.345 24.1733 105.921 27.226 108.652 27.226Z" fill="white"/>
<path d="M114.234 9.79166C114.234 8.26975 115.488 7.01562 117.01 7.01562C118.532 7.01562 119.786 8.26975 119.786 9.79166C119.786 11.3136 118.532 12.5677 117.01 12.5677C115.488 12.5677 114.234 11.3136 114.234 9.79166ZM117.006 11.9741C118.193 11.9741 119.193 10.9788 119.193 9.78719C119.193 8.59555 118.198 7.60029 117.006 7.60029C115.814 7.60029 114.819 8.59555 114.819 9.78719C114.819 10.9788 115.814 11.9741 117.006 11.9741ZM115.895 10.6798L116.261 10.6352C116.27 10.4522 116.27 10.2692 116.27 10.0996V9.25163C116.27 8.77854 116.238 8.73837 116.14 8.72498L115.895 8.68035V8.51076H116.667L117.256 8.50183C117.8 8.50183 118.068 8.69374 118.068 9.0374C118.068 9.38105 117.791 9.65777 117.35 9.75595C117.595 9.77827 117.702 9.86307 117.863 10.1219C118.162 10.6039 118.238 10.6887 118.407 10.6887H118.47L118.492 10.8806H117.644C117.559 10.72 117.506 10.5816 117.399 10.354C117.153 9.86307 117.068 9.81844 116.787 9.78719H116.778V10.1398C116.778 10.6129 116.81 10.653 116.908 10.6664L117.153 10.7111V10.8806H115.877C115.854 10.836 115.854 10.7512 115.886 10.6753L115.895 10.6798ZM116.899 9.59975C117.082 9.59975 117.497 9.59975 117.497 9.14898C117.497 8.83656 117.292 8.72945 117.091 8.72945H116.778V9.59528H116.894L116.899 9.59975Z" fill="white"/>
</g>
<defs>
<clipPath id="clip0_582_3598">
<rect width="123.484" height="35.0842" fill="white"/>
</clipPath>
</defs>
</svg>
