<svg width="126" height="42" viewBox="0 0 126 42" fill="none" xmlns="http://www.w3.org/2000/svg">
<g clip-path="url(#clip0_581_3538)">
<g clip-path="url(#clip1_581_3538)">
<mask id="mask0_581_3538" style="mask-type:luminance" maskUnits="userSpaceOnUse" x="9" y="7" width="31" height="28">
<path d="M9.33303 7H39.971V35H9.33203L9.33303 7Z" fill="white"/>
</mask>
<g mask="url(#mask0_581_3538)">
<path fill-rule="evenodd" clip-rule="evenodd" d="M14.0317 30.2768C7.18772 24.2168 8.09572 14.3768 14.9577 9.50082C19.7777 6.07882 27.1177 5.65781 31.7897 11.4908C35.0997 15.6268 35.3267 21.5718 33.2297 25.1608C31.9147 27.4008 28.8957 29.0588 27.0477 26.8458C25.3677 24.8358 27.2427 23.0538 27.8997 20.7058C30.2477 12.2928 18.6017 6.33382 12.4667 14.4278C9.33672 18.5578 9.51272 24.9238 14.0317 30.2768Z" fill="white"/>
<path fill-rule="evenodd" clip-rule="evenodd" d="M35.5002 11.9219C42.2042 18.1399 41.0702 27.9569 34.0972 32.6709C29.1972 35.9809 21.8542 36.2309 17.3172 30.2949C14.0972 26.0819 14.0102 20.1319 16.1912 16.5939C17.5572 14.3849 20.6132 12.7919 22.4142 15.0519C24.0492 17.0989 22.1272 18.8399 21.4192 21.1689C18.8812 29.5309 30.3832 35.7589 36.7032 27.8039C39.9262 23.7479 39.8982 17.3719 35.5042 11.9219H35.5002Z" fill="white"/>
</g>
<path d="M109.217 31.85L111.121 26.623L111.157 28.161L106.846 17.571H109.143L112.201 25.406H111.615L114.59 17.57H116.796L111.285 31.85H109.217ZM106.059 27.456C105.426 27.5767 104.781 27.629 104.137 27.612C103.515 27.6 102.956 27.487 102.462 27.273C101.981 27.0654 101.584 26.7009 101.336 26.239C101.117 25.8364 100.994 25.3882 100.979 24.93C100.966 24.4268 100.96 23.9234 100.961 23.42V14.824H103.158V23.291C103.158 23.688 103.161 24.036 103.167 24.335C103.179 24.635 103.243 24.878 103.359 25.067C103.579 25.433 103.93 25.638 104.412 25.681C104.962 25.7207 105.515 25.6959 106.059 25.607V27.457V27.456ZM99.167 19.301V17.571H106.059V19.301H99.167ZM95.317 16.069V14.046H97.523V16.069H95.317ZM95.317 27.456V17.57H97.523V27.456H95.317ZM89.165 27.73C88.145 27.73 87.275 27.504 86.555 27.053C85.8384 26.5988 85.2644 25.9517 84.899 25.186C84.521 24.398 84.329 23.507 84.322 22.513C84.328 21.5 84.527 20.603 84.917 19.821C85.2922 19.0575 85.8765 18.4163 86.602 17.972C87.328 17.521 88.192 17.295 89.192 17.295C90.315 17.295 91.264 17.579 92.039 18.146C92.82 18.708 93.329 19.476 93.568 20.453L91.371 21.048C91.2 20.518 90.916 20.105 90.519 19.812C90.1303 19.5159 89.6537 19.3582 89.165 19.364C88.591 19.364 88.118 19.501 87.745 19.776C87.374 20.044 87.099 20.416 86.922 20.892C86.745 21.368 86.656 21.909 86.656 22.512C86.656 23.452 86.867 24.212 87.288 24.792C87.709 25.372 88.335 25.662 89.165 25.662C89.75 25.662 90.211 25.527 90.547 25.259C90.889 24.99 91.145 24.603 91.316 24.096L93.568 24.6C93.263 25.607 92.728 26.382 91.966 26.925C91.203 27.462 90.269 27.73 89.165 27.73ZM77.92 27.73C76.932 27.73 76.068 27.508 75.33 27.062C74.596 26.6212 73.9998 25.9839 73.609 25.222C73.206 24.435 73.005 23.532 73.005 22.512C73.005 21.475 73.212 20.566 73.627 19.785C74.0217 19.0253 74.6209 18.3911 75.357 17.954C76.096 17.514 76.95 17.294 77.921 17.294C78.915 17.294 79.781 17.518 80.521 17.964C81.2563 18.4065 81.8524 19.0469 82.241 19.812C82.65 20.593 82.854 21.493 82.854 22.512C82.854 23.538 82.647 24.444 82.232 25.232C81.8412 25.9939 81.2451 26.6312 80.511 27.072C79.773 27.511 78.908 27.73 77.92 27.73ZM77.92 25.661C78.8 25.661 79.452 25.369 79.88 24.783C80.307 24.197 80.52 23.44 80.52 22.513C80.52 21.554 80.304 20.792 79.87 20.224C79.437 19.651 78.787 19.364 77.92 19.364C77.329 19.364 76.84 19.498 76.456 19.766C76.077 20.029 75.796 20.398 75.614 20.874C75.431 21.344 75.339 21.89 75.339 22.513C75.339 23.471 75.556 24.237 75.989 24.81C76.429 25.378 77.072 25.662 77.92 25.662V25.661ZM68.606 27.456V14H70.812V27.456H68.606ZM61.904 27.73C60.904 27.73 60.024 27.514 59.268 27.08C58.52 26.6557 57.905 26.0313 57.492 25.277C57.071 24.508 56.86 23.623 56.86 22.622C56.86 21.542 57.068 20.606 57.483 19.812C57.898 19.012 58.475 18.393 59.213 17.954C59.951 17.514 60.806 17.294 61.776 17.294C62.801 17.294 63.671 17.536 64.385 18.018C65.105 18.494 65.639 19.168 65.987 20.041C66.335 20.914 66.466 21.942 66.38 23.126H64.193V22.32C64.186 21.246 63.997 20.462 63.625 19.968C63.253 19.474 62.667 19.226 61.867 19.226C60.964 19.226 60.293 19.507 59.854 20.069C59.414 20.624 59.194 21.439 59.194 22.513C59.194 23.513 59.414 24.288 59.854 24.838C60.293 25.387 60.934 25.661 61.776 25.661C62.319 25.661 62.786 25.542 63.176 25.304C63.573 25.06 63.878 24.709 64.092 24.252L66.27 24.911C65.9173 25.7711 65.3025 26.4982 64.513 26.989C63.7325 27.4813 62.8268 27.7385 61.904 27.73ZM58.5 23.126V21.46H65.3V23.126H58.5ZM49.738 27.456L45.582 14.274H47.852L51.331 25.314L54.855 14.274H57.125L52.969 27.456H49.738Z" fill="white"/>
</g>
</g>
<defs>
<clipPath id="clip0_581_3538">
<rect width="126" height="42" fill="white"/>
</clipPath>
<clipPath id="clip1_581_3538">
<rect width="126" height="42" fill="white"/>
</clipPath>
</defs>
</svg>
