<svg xmlns="http://www.w3.org/2000/svg" width="44" height="44" fill="none"><g clip-path="url(#a)"><mask id="c" width="44" height="44" x="0" y="0" maskUnits="userSpaceOnUse" style="mask-type:alpha"><path fill="#D9D9D9" d="M34 0H10C4.477 0 0 4.477 0 10v24c0 5.523 4.477 10 10 10h24c5.523 0 10-4.477 10-10V10c0-5.523-4.477-10-10-10"/></mask><g filter="url(#b)" mask="url(#c)"><path fill="url(#d)" d="M0 22C0 9.85 9.85 0 22 0s22 9.85 22 22-9.85 22-22 22S0 34.15 0 22"/><g filter="url(#e)"><path fill="#fff" d="M22 12.25A9.75 9.75 0 1 0 31.75 22 9.76 9.76 0 0 0 22 12.25M30.25 22a8.2 8.2 0 0 1-.312 2.25h-3.61a14.8 14.8 0 0 0 0-4.5h3.61A8.2 8.2 0 0 1 30.25 22m-10.688 3.75h4.875A10.8 10.8 0 0 1 22 29.969a10.8 10.8 0 0 1-2.438-4.219m-.365-1.5a13.2 13.2 0 0 1 0-4.5h5.614a13.2 13.2 0 0 1 0 4.5zM13.75 22c0-.76.104-1.518.312-2.25h3.61a14.8 14.8 0 0 0 0 4.5h-3.61A8.2 8.2 0 0 1 13.75 22m10.688-3.75h-4.875A10.8 10.8 0 0 1 22 14.031a10.8 10.8 0 0 1 2.438 4.219m4.905 0h-3.339a12.7 12.7 0 0 0-2.09-4.275 8.28 8.28 0 0 1 5.433 4.275zm-9.256-4.275c-.96 1.28-1.67 2.73-2.091 4.275h-3.343a8.28 8.28 0 0 1 5.434-4.275M14.653 25.75h3.343a12.7 12.7 0 0 0 2.09 4.275 8.28 8.28 0 0 1-5.433-4.275m9.26 4.275c.96-1.28 1.67-2.73 2.091-4.275h3.343a8.28 8.28 0 0 1-5.434 4.275"/></g></g></g><defs><filter id="b" width="44" height="48" x="0" y="0" color-interpolation-filters="sRGB" filterUnits="userSpaceOnUse"><feFlood flood-opacity="0" result="BackgroundImageFix"/><feBlend in="SourceGraphic" in2="BackgroundImageFix" result="shape"/><feColorMatrix in="SourceAlpha" result="hardAlpha" values="0 0 0 0 0 0 0 0 0 0 0 0 0 0 0 0 0 0 127 0"/><feOffset dy="4"/><feGaussianBlur stdDeviation="2"/><feComposite in2="hardAlpha" k2="-1" k3="1" operator="arithmetic"/><feColorMatrix values="0 0 0 0 1 0 0 0 0 1 0 0 0 0 1 0 0 0 0.15 0"/><feBlend in2="shape" result="effect1_innerShadow_869_96"/></filter><filter id="e" width="32" height="32" x="6" y="10" color-interpolation-filters="sRGB" filterUnits="userSpaceOnUse"><feFlood flood-opacity="0" result="BackgroundImageFix"/><feColorMatrix in="SourceAlpha" result="hardAlpha" values="0 0 0 0 0 0 0 0 0 0 0 0 0 0 0 0 0 0 127 0"/><feOffset dy="4"/><feGaussianBlur stdDeviation="2"/><feComposite in2="hardAlpha" operator="out"/><feColorMatrix values="0 0 0 0 0 0 0 0 0 0 0 0 0 0 0 0 0 0 0.25 0"/><feBlend in2="BackgroundImageFix" result="effect1_dropShadow_869_96"/><feBlend in="SourceGraphic" in2="effect1_dropShadow_869_96" result="shape"/></filter><linearGradient id="d" x1="22" x2="22" y1="0" y2="44" gradientUnits="userSpaceOnUse"><stop stop-color="#05F" stop-opacity="0"/><stop offset="1" stop-color="#05F"/></linearGradient><clipPath id="a"><path fill="#fff" d="M0 0h44v44H0z"/></clipPath></defs></svg>