<svg xmlns="http://www.w3.org/2000/svg" width="44" height="44" fill="none"><g clip-path="url(#a)"><mask id="c" width="44" height="44" x="0" y="0" maskUnits="userSpaceOnUse" style="mask-type:alpha"><path fill="#D9D9D9" d="M34 0H10C4.477 0 0 4.477 0 10v24c0 5.523 4.477 10 10 10h24c5.523 0 10-4.477 10-10V10c0-5.523-4.477-10-10-10"/></mask><g filter="url(#b)" mask="url(#c)"><path fill="url(#d)" d="M0 22C0 9.85 9.85 0 22 0s22 9.85 22 22-9.85 22-22 22S0 34.15 0 22"/><g filter="url(#e)"><path fill="#fff" d="m27.586 23.579-3-1.5a.75.75 0 0 0-.75.047l-1.377.918a3.8 3.8 0 0 1-1.5-1.5l.918-1.377a.75.75 0 0 0 .047-.75l-1.5-3A.75.75 0 0 0 19.75 16 3.75 3.75 0 0 0 16 19.75 8.26 8.26 0 0 0 24.25 28 3.75 3.75 0 0 0 28 24.25a.75.75 0 0 0-.414-.671M24.25 26.5a6.76 6.76 0 0 1-6.75-6.75 2.25 2.25 0 0 1 1.809-2.207l1.076 2.156-.916 1.363a.75.75 0 0 0-.069.705 5.3 5.3 0 0 0 2.827 2.826.75.75 0 0 0 .71-.062l1.37-.913 2.157 1.076A2.25 2.25 0 0 1 24.25 26.5M22 12.25a9.75 9.75 0 0 0-8.608 14.332l-1.064 3.193a1.5 1.5 0 0 0 1.898 1.897l3.192-1.064A9.75 9.75 0 1 0 22 12.25m0 18a8.24 8.24 0 0 1-4.13-1.107.75.75 0 0 0-.614-.063l-3.506 1.17 1.17-3.506a.75.75 0 0 0-.063-.613A8.25 8.25 0 1 1 22 30.25"/></g></g></g><defs><filter id="b" width="44" height="48" x="0" y="0" color-interpolation-filters="sRGB" filterUnits="userSpaceOnUse"><feFlood flood-opacity="0" result="BackgroundImageFix"/><feBlend in="SourceGraphic" in2="BackgroundImageFix" result="shape"/><feColorMatrix in="SourceAlpha" result="hardAlpha" values="0 0 0 0 0 0 0 0 0 0 0 0 0 0 0 0 0 0 127 0"/><feOffset dy="4"/><feGaussianBlur stdDeviation="2"/><feComposite in2="hardAlpha" k2="-1" k3="1" operator="arithmetic"/><feColorMatrix values="0 0 0 0 0.826025 0 0 0 0 0.826025 0 0 0 0 0.826025 0 0 0 0.15 0"/><feBlend in2="shape" result="effect1_innerShadow_869_125"/></filter><filter id="e" width="32" height="32" x="6" y="10" color-interpolation-filters="sRGB" filterUnits="userSpaceOnUse"><feFlood flood-opacity="0" result="BackgroundImageFix"/><feColorMatrix in="SourceAlpha" result="hardAlpha" values="0 0 0 0 0 0 0 0 0 0 0 0 0 0 0 0 0 0 127 0"/><feOffset dy="4"/><feGaussianBlur stdDeviation="2"/><feComposite in2="hardAlpha" operator="out"/><feColorMatrix values="0 0 0 0 0 0 0 0 0 0 0 0 0 0 0 0 0 0 0.25 0"/><feBlend in2="BackgroundImageFix" result="effect1_dropShadow_869_125"/><feBlend in="SourceGraphic" in2="effect1_dropShadow_869_125" result="shape"/></filter><linearGradient id="d" x1="22" x2="22" y1="0" y2="44" gradientUnits="userSpaceOnUse"><stop stop-color="#00AC3C"/><stop offset="1" stop-color="#138D3E"/></linearGradient><clipPath id="a"><path fill="#fff" d="M0 0h44v44H0z"/></clipPath></defs></svg>