<svg xmlns="http://www.w3.org/2000/svg" width="242" height="233" fill="none"><path fill="#fff" d="M202.228 32.861c.426-1.996 3.275-1.996 3.701 0l4.558 21.329c.156.73.726 1.299 1.455 1.455l21.329 4.558c1.996.426 1.996 3.275 0 3.701l-21.329 4.558a1.89 1.89 0 0 0-1.455 1.456l-4.558 21.328c-.426 1.996-3.275 1.996-3.701 0l-4.558-21.328a1.89 1.89 0 0 0-1.456-1.456l-21.328-4.558c-1.996-.426-1.996-3.275 0-3.701l21.328-4.558c.73-.156 1.3-.726 1.456-1.456zM65.583 187.122c.24-1.121 1.839-1.121 2.079 0l2.558 11.974c.088.409.408.729.817.817l11.974 2.558c1.12.24 1.12 1.839 0 2.079l-11.974 2.558c-.41.088-.73.408-.817.817l-2.558 11.974c-.24 1.121-1.84 1.121-2.079 0l-2.558-11.974a1.06 1.06 0 0 0-.817-.817l-11.974-2.558c-1.121-.24-1.121-1.839 0-2.079l11.974-2.558c.409-.088.729-.408.817-.817zM67.76 22.824c.563-3.988 5.637-5.347 8.12-2.176l26.502 33.854a4.57 4.57 0 0 0 5.305 1.422l39.878-16.068c3.736-1.505 7.45 2.21 5.945 5.945L137.443 85.68a4.57 4.57 0 0 0 1.421 5.304l33.854 26.502c3.172 2.483 1.812 7.557-2.176 8.121l-42.569 6.025a4.57 4.57 0 0 0-3.884 3.883l-6.024 42.57c-.564 3.987-5.638 5.347-8.121 2.176l-26.502-33.855a4.57 4.57 0 0 0-5.305-1.421L38.26 161.053c-3.736 1.505-7.45-2.21-5.945-5.945l16.067-39.879a4.57 4.57 0 0 0-1.421-5.305L13.106 83.422c-3.172-2.482-1.812-7.556 2.176-8.12l42.57-6.025a4.57 4.57 0 0 0 3.883-3.883l6.024-42.57z"/><path fill="#fff" fill-rule="evenodd" d="M137.647 130.277 93.258 85.889c-4.15-4.15-10.877-4.15-15.027 0s-4.15 10.877 0 15.026l44.473 44.474 1.396-9.861a4.57 4.57 0 0 1 3.883-3.883zm14.288 14.288-13.066 1.849-1.877 13.262 69.532 69.533c4.15 4.149 10.878 4.149 15.027 0 4.15-4.15 4.15-10.878 0-15.027z" clip-rule="evenodd"/></svg>