<svg xmlns="http://www.w3.org/2000/svg" xmlns:xlink="http://www.w3.org/1999/xlink" style="width:100%;height:100%;" viewBox="0 0 91 25">
<path d="M82.7534 24.6816C80.7627 24.5966 79.1439 24.0283 77.8819 22.9711C76.2978 21.6444 75.3924 19.9932 75.0106 17.7352C74.8936 17.0433 74.8639 16.7137 74.842 15.869C74.7888 13.8187 75.0851 12.3247 75.8492 10.7901C76.5236 9.43566 77.4057 8.44648 78.7019 7.59109C79.7142 6.92311 80.6097 6.56779 81.7334 6.38863C82.276 6.30204 83.6198 6.30289 84.2525 6.39034C85.9006 6.61783 87.2124 7.25923 88.3389 8.38804C89.4853 9.53662 90.2634 11.0495 90.6902 12.9599C90.8732 13.7787 90.9978 14.9591 90.9978 15.8741V16.4022H84.4076H77.8173L77.8401 16.802C77.8851 17.5974 78.0543 18.4478 78.28 19.013C78.8443 20.4267 80.1321 21.5636 81.6208 21.9626C82.2191 22.123 82.6939 22.1712 83.4673 22.1502C83.9862 22.1361 84.2541 22.1118 84.5201 22.0549C85.203 21.909 85.8177 21.6596 86.3047 21.3313C86.651 21.0977 87.1468 20.5819 87.3355 20.259C87.5914 19.8207 87.6924 19.5352 87.8415 18.8281L87.8585 18.7482H89.2866C90.4767 18.7482 90.7177 18.7565 90.7337 18.798C90.7602 18.8668 90.5573 19.6476 90.4054 20.0599C90.2327 20.5297 89.8933 21.2075 89.6338 21.6009C88.4529 23.3922 86.3207 24.5537 84.0027 24.6684C83.7965 24.6785 83.5636 24.6913 83.4851 24.6968C83.4066 24.7023 83.0773 24.6954 82.7534 24.6816ZM87.9284 13.7629C87.9284 13.6219 87.8263 13.0995 87.7305 12.749C87.3025 11.1844 86.3439 10.0068 84.9616 9.34779C83.7207 8.75616 82.088 8.75957 80.7156 9.35647C80.145 9.60487 79.4297 10.1948 78.985 10.7839C78.511 11.4116 78.1138 12.3765 77.9715 13.2447C77.9321 13.4857 77.8997 13.7189 77.8997 13.7629V13.8428H82.9141H87.9286L87.9284 13.7629Z" fill="white" stroke="white" stroke-width="0.142185"/>
<path d="M45.7936 24.5934C43.8694 24.4147 42.316 23.8103 41.2862 22.8395C40.2536 21.8659 39.6027 20.3866 39.6017 19.0114L39.6016 18.7041L40.1457 18.6804C40.4451 18.6672 41.0996 18.6616 41.6001 18.6677L42.5102 18.6788L42.5195 18.8032C42.5411 19.0961 42.6462 19.6406 42.7264 19.8756C42.8997 20.3832 43.3484 20.9535 43.8307 21.2793C44.6473 21.8308 45.7841 22.109 47.2213 22.109C48.8851 22.109 50.2268 21.7099 50.8847 21.0193C51.329 20.553 51.57 19.7577 51.4541 19.1409C51.3651 18.6673 51.0449 18.182 50.5848 17.8234C50.2845 17.5894 49.628 17.2614 49.095 17.079C48.6922 16.9412 47.0367 16.5244 45.8472 16.2614C43.2648 15.6904 42.0533 15.1751 41.1339 14.2567C40.5974 13.7208 40.2767 13.1647 40.1066 12.476C39.7833 11.1669 40.0018 9.8467 40.7183 8.77917C40.9462 8.43977 41.6041 7.78472 41.9768 7.52609C42.3219 7.28665 42.9173 6.9855 43.3931 6.80962C45.4963 6.03201 48.9387 6.14618 50.8759 7.05773C51.8258 7.50476 52.6388 8.28394 53.1282 9.21596C53.323 9.58693 53.4999 10.0652 53.578 10.4321C53.6518 10.7783 53.7346 11.4213 53.7346 11.6473V11.8362H52.3237C51.2251 11.8362 50.9103 11.8263 50.9012 11.7918C50.8946 11.7673 50.8619 11.6034 50.8284 11.4274C50.7948 11.2513 50.7233 11.0032 50.6697 10.8757C50.3924 10.2174 49.7378 9.56844 49.0387 9.2589C48.4381 8.99287 47.3591 8.82765 46.4539 8.86306C44.2489 8.94936 43.0602 9.72357 43.0642 11.0705C43.0658 11.5509 43.1808 11.8798 43.4633 12.2117C43.7643 12.5651 44.156 12.8256 44.7957 13.0979C45.4538 13.3777 46.1209 13.5634 47.5425 13.8624C49.2921 14.2304 50.6206 14.5779 51.3077 14.8475C52.8126 15.438 53.6614 16.2027 54.2043 17.4569C54.4724 18.0762 54.5698 18.7627 54.5142 19.6409C54.4291 20.9855 53.8281 22.1571 52.7711 23.0387C51.6813 23.9475 50.3314 24.3994 48.1135 24.5977C47.6531 24.6388 46.2554 24.6362 45.7936 24.5934Z" fill="white" stroke="white" stroke-width="0.142185"/>
<path d="M57.8929 24.2353C57.8835 24.2107 57.8801 20.2558 57.8851 15.4464L57.8942 6.70195L59.2059 6.68418C59.2059 6.68418 60.5175 6.66641 60.573 6.82637C60.6224 6.82637 60.6263 6.95064 60.6087 7.97266C60.5758 9.86359 60.5896 19.6616 60.63 23.0888L60.6421 24.1197L60.5531 24.132C60.4464 24.1467 60.3679 24.2044 60.3949 24.2481C60.4062 24.2663 59.8814 24.2796 59.1622 24.2796C58.1932 24.2796 57.906 24.2695 57.8929 24.2353Z" fill="white" stroke="white" stroke-width="0.142185"/>
<path d="M21.8845 24.2417C21.8762 24.228 21.8726 20.2754 21.8767 15.4579L21.8841 6.69883L23.1972 6.68958C24.5022 6.6802 24.5101 6.68063 24.472 6.75143C24.4176 6.85281 24.3935 7.17003 24.3832 7.92517C24.378 8.30083 24.3843 8.47614 24.3977 8.33396C24.4142 8.16049 24.4233 8.30026 24.4281 8.79606C24.4339 9.40333 24.4433 9.5131 24.4925 9.54893C24.5788 9.61206 24.6309 9.57481 24.7409 9.37163C25.5623 7.85295 27.1374 6.6829 28.7187 6.41645C29.499 6.28507 30.7841 6.26246 31.6631 6.36483C34.0097 6.63797 35.5943 7.97594 36.1638 10.1646C36.2699 10.572 36.2744 10.6108 36.2184 10.6317C36.1614 10.6529 36.1577 10.8293 36.1642 13.2621C36.1681 14.6963 36.1803 16.4456 36.1914 17.1494C36.2275 19.4274 36.2403 21.6675 36.2163 21.5216L36.1929 21.3795L36.1764 21.5039C36.1547 21.6682 36.1777 21.8647 36.2089 21.7807C36.2212 21.7472 36.2356 22.1791 36.2409 22.7405C36.246 23.3018 36.2564 23.8673 36.2639 23.997L36.2774 24.2328L35.0944 24.258C34.4439 24.2717 33.8312 24.2775 33.7331 24.2708L33.5547 24.2587L33.5324 18.0559C33.5096 11.717 33.5085 11.674 33.3717 11.1441C33.1452 10.2671 32.4274 9.47784 31.533 9.12209C30.6025 8.75212 29.2836 8.72312 28.1579 9.04815C27.9577 9.10588 27.8413 9.12465 27.8331 9.10048C27.7967 8.99185 27.4339 9.13773 27.4339 9.26086C27.2169 9.4585 27.2169 9.26968 27.1962 9.35627C27.1667 9.28347 27.0407 9.37362 26.9968 9.49902C26.9645 9.59102 26.954 9.59898 26.9351 9.54495C26.9152 9.48864 26.8733 9.51125 26.6298 9.70889C26.4743 9.83515 26.3366 9.97691 26.3231 10.0247C26.3099 10.0723 26.2973 10.0882 26.2954 10.0602C26.288 9.95558 25.7807 10.5276 25.5178 10.9368C25.2144 11.4093 24.8999 12.1312 24.7766 12.564C24.7632 12.6226 24.7372 12.7073 24.719 12.7522C24.7007 12.7972 24.6857 12.8646 24.6857 12.9019C24.6857 12.9393 24.652 13.0013 24.6107 13.0396C24.5435 13.102 24.54 13.1226 24.5775 13.2358C24.6006 13.3055 24.6094 13.3787 24.597 13.3985C24.5848 13.4182 24.5667 14.1744 24.5569 15.0787C24.5471 15.983 24.5244 16.9052 24.5064 17.128C24.4884 17.3506 24.4854 17.5506 24.4995 17.5723C24.5135 17.5938 24.5261 18.6752 24.5273 19.9754C24.5295 22.2526 24.5535 23.0295 24.6173 22.8724C24.6333 22.833 24.6436 23.0836 24.6404 23.4339C24.6371 23.7817 24.6259 24.0803 24.6154 24.0972C24.5027 24.1201 24.3115 24.229 24.3522 24.2506C24.3013 24.2845 21.9057 24.2758 21.8845 24.2417Z" fill="white" stroke="white" stroke-width="0.142185"/>
<path d="M57.8987 3.49534C57.8857 3.4824 57.875 2.69057 57.875 1.7358V0L59.3162 0L60.7574 0L60.7734 1.73296C60.7823 2.68602 60.7833 3.47771 60.7756 3.49236C60.7584 3.52534 57.9317 3.52819 57.8987 3.49534Z" fill="white" stroke="white" stroke-width="0.142185"/>
<path d="M60.4162 24.2661C60.3662 24.2062 60.4245 24.1497 60.5552 24.1318L60.6442 24.1195L60.6321 23.0886C60.5917 19.6614 60.5779 9.86339 60.6108 7.97247C60.6284 6.95044 60.6246 6.82617 60.6291 6.64844C60.6894 6.64844 60.7576 6.66849 60.7808 6.6928C60.8129 6.72678 60.8208 8.80838 60.8137 15.4882C60.805 23.7718 60.8011 24.2402 60.7423 24.2581C60.5746 24.3089 60.4542 24.3118 60.4162 24.2661Z" fill="white" stroke="white" stroke-width="0.142185"/>
<path d="M24.3918 24.2302C24.365 24.1604 24.3961 24.1361 24.5118 24.1361C24.5654 24.1361 24.6159 24.1162 24.6242 24.0917C24.6532 24.0063 24.6489 22.8032 24.62 22.8742C24.5559 23.0307 24.5319 22.2571 24.5298 19.9771C24.5285 18.677 24.516 17.5955 24.5019 17.5741C24.4878 17.5523 24.4908 17.3524 24.5089 17.1297C24.5268 16.9069 24.5495 15.9847 24.5593 15.0804C24.5691 14.1761 24.5872 13.42 24.5994 13.4002C24.6118 13.3805 24.603 13.3072 24.58 13.2376C24.5424 13.1244 24.546 13.1038 24.6131 13.0413C24.6545 13.0031 24.6882 12.9411 24.6882 12.9037C24.6882 12.8663 24.7031 12.7989 24.7214 12.754C24.7396 12.7091 24.7656 12.6243 24.8734 12.4234C24.9023 12.1329 25.2168 11.411 25.5202 10.9386C25.7831 10.5294 26.2904 9.95735 26.2978 10.062C26.2997 10.09 26.3123 10.0741 26.3256 10.0264C26.3391 9.97867 26.4767 9.83691 26.6323 9.71065C26.8757 9.51302 26.9176 9.49041 26.9375 9.54671C26.9564 9.60075 26.967 9.59278 26.9992 9.50079C27.0432 9.37538 27.1691 9.28524 27.3292 9.33358C27.3292 9.3997 27.2402 9.49709 27.2085 9.46553C27.1964 9.45358 27.1865 9.45884 27.1865 9.47747C27.1865 9.49595 27.1343 9.54145 27.0705 9.57842C27.0066 9.61539 26.8862 9.7007 26.8027 9.7681C26.7194 9.83549 26.6512 9.88284 26.6512 9.87331C26.6512 9.85654 26.2054 10.3063 26.0622 10.4675C25.9818 10.5582 25.9725 10.5712 25.7816 10.8624C25.7056 10.9781 25.606 11.1288 25.56 11.1972C25.4443 11.3697 25.2673 11.7674 25.1818 12.0469C25.1424 12.1759 25.081 12.3453 25.0453 12.4236C25.0096 12.5018 24.9612 12.6617 24.9375 12.779C24.9139 12.8963 24.8798 13.033 24.8616 13.0826C24.7924 13.2715 24.782 13.8845 24.7622 18.9996L24.7418 24.2605L24.5767 24.2711C24.458 24.2788 24.4061 24.2673 24.3918 24.2302Z" fill="white" stroke="white" stroke-width="0.142185"/>
<path d="M72.6327 9.23538C72.5164 9.05054 72.4758 8.92129 72.4758 8.7356C72.4758 8.62242 72.4889 8.52986 72.5048 8.52986C72.5448 8.52986 72.5227 7.88376 72.4748 7.65456C72.442 7.49688 72.445 7.45351 72.4937 7.37958C72.5279 7.32768 72.5614 7.17071 72.5761 6.99553C72.5998 6.70974 72.6039 6.69922 72.69 6.69922H72.7793L72.7677 7.94334C72.7589 8.90921 72.7458 9.19813 72.7096 9.23538C72.6703 9.27548 72.6578 9.27548 72.6327 9.23538Z" fill="white" stroke="white" stroke-width="0.142185"/>
<path d="M27.4375 9.27069C27.4375 9.20714 27.4705 9.16889 27.5636 9.12467C27.7325 9.04448 27.8301 9.04718 27.8301 9.13207C27.8301 9.19448 27.7959 9.21467 27.4821 9.33909C27.4539 9.35032 27.4375 9.32529 27.4375 9.27069Z" fill="white" stroke="white" stroke-width="0.142185"/>
<path d="M36.2839 24.2379C36.2671 24.1635 36.252 23.6118 36.2433 22.7614C36.2376 22.1903 36.2227 21.7503 36.2103 21.7839C36.1792 21.8679 36.1562 21.6714 36.1779 21.5071L36.1944 21.3826L36.2179 21.5248C36.2428 21.6764 36.2301 19.5389 36.1914 17.0815C36.1785 16.2604 36.1664 14.4771 36.1647 13.1187C36.1619 10.8633 36.1665 10.6477 36.2196 10.6376C36.3057 10.6209 36.3615 10.8525 36.3574 11.2089C36.3562 11.3026 36.3639 11.3931 36.3744 11.4101C36.3849 11.427 36.3942 14.3176 36.395 17.8336C36.3965 23.5705 36.3911 24.2275 36.3416 24.2379C36.3112 24.2441 36.2853 24.2441 36.2839 24.2379Z" fill="white" stroke="white" stroke-width="0.142185"/>
<path d="M24.4956 9.55275C24.4443 9.51536 24.4355 9.41483 24.4295 8.7986C24.4247 8.3028 24.4156 8.16303 24.3991 8.3365C24.3857 8.47868 24.3795 8.30337 24.3846 7.92772C24.3984 6.92517 24.4331 6.68359 24.5635 6.68359C24.6085 6.68359 24.6158 6.88237 24.6158 8.12109C24.6158 8.91178 24.6021 9.56711 24.5854 9.57735C24.5686 9.58773 24.5282 9.57664 24.4956 9.55275Z" fill="white" stroke="white" stroke-width="0.142185"/>
<path d="M8.44569 24.8308C6.89999 24.6349 5.44487 24.1074 4.2434 23.3074C3.25734 22.6511 2.53135 21.9661 1.8507 21.0504C1.08319 20.0178 0.45544 18.6122 0.204341 17.3635C-0.0995093 15.8537 -0.0643895 14.3528 0.308989 12.8824C0.472929 12.2372 0.634594 11.7936 0.930055 11.1785C1.69174 9.59324 2.74861 8.36007 4.15766 7.41283C5.33979 6.61801 6.53898 6.13956 7.96595 5.89315C8.37516 5.82248 8.55176 5.81324 9.51634 5.81253C10.4215 5.81182 10.6649 5.82277 10.9618 5.87694C12.7179 6.19814 14.13 6.82034 15.5032 7.87834C15.9276 8.20523 16.6835 8.9672 17.0202 9.40755C18.1376 10.8686 18.7949 12.4711 19.015 14.271C19.0794 14.7984 19.0694 16.028 18.9961 16.5637C18.6985 18.7399 17.7843 20.6017 16.2815 22.0913C14.8181 23.5423 12.9699 24.4867 10.9931 24.7937C10.4703 24.875 8.96651 24.8969 8.44569 24.8308ZM10.0874 22.3558C11.7498 22.2047 13.19 21.558 14.4035 20.4178C15.426 19.4569 16.2291 17.9835 16.4837 16.6007C16.5931 16.0068 16.5933 14.849 16.4843 14.2177C16.1716 12.4085 15.147 10.7545 13.6512 9.64371C11.8193 8.28357 9.47497 7.92342 7.26782 8.66306C5.00125 9.42276 3.32901 11.2312 2.73951 13.5605C2.59007 14.151 2.52111 14.727 2.52125 15.3836C2.52182 17.178 3.14246 18.7874 4.33923 20.0985C5.45283 21.3186 7.03606 22.1462 8.58844 22.3201C9.30875 22.4009 9.5334 22.4061 10.0874 22.3558Z" fill="white" stroke="white" stroke-width="0.142185"/>
<path d="M69.3717 24.2412C68.8852 24.2088 68.5621 24.1437 68.157 23.9965C67.1227 23.6206 66.5878 22.9172 66.4257 21.7198C66.3838 21.4103 66.3751 20.3129 66.3745 15.2952L66.3738 9.24393L64.8837 9.23455L63.3936 9.2253L63.3842 7.95459L63.375 6.68374H64.8742H66.3733L66.3825 4.06213L66.3916 1.44065L67.5985 1.43127C68.3074 1.42572 68.7972 1.43511 68.7856 1.45388C68.7562 1.50137 68.8399 1.55725 68.9613 1.57075C69.0452 1.58028 69.066 1.5982 69.0573 1.65393C69.0513 1.69303 69.0434 2.50079 69.0395 3.44902C69.0351 4.54925 69.0198 5.18255 68.997 5.19918C69.0104 5.1342 69.0435 5.54683 68.9946 5.5319C69.0038 5.58266 69.0142 5.76266 69.0178 5.93186C69.0255 6.29401 69.0887 6.5717 69.1784 6.63696C69.2293 6.67407 69.5906 6.68374 70.9236 6.68374H72.6045L72.5775 6.99015C72.5619 7.16888 72.5269 7.33282 72.4938 7.38315C72.446 7.45566 72.443 7.49988 72.4757 7.65686C72.5236 7.88606 72.5457 8.53215 72.5057 8.53215C72.4443 8.53215 72.4763 8.94292 72.5488 9.08454L72.6209 9.2253L71.3443 9.24308C70.1486 9.25971 70.067 9.25687 70.0563 9.19871C70.0461 9.1434 69.9957 9.13644 69.6037 9.13644H69.1624L69.085 9.24478C68.9865 9.38256 68.9541 9.60977 69.0163 9.72565C69.0717 9.82916 68.9337 10.0608 69.0107 9.97547C69.0253 9.93836 69.0382 10.0824 69.0394 10.2954C69.0407 10.559 69.0331 10.6372 69.0154 10.5405C68.9908 10.4063 68.989 10.4103 68.9848 10.6116C68.9819 10.7453 68.9919 10.8065 69.0114 10.7758C69.0299 10.7467 69.0391 10.8845 69.0341 11.1171C69.0296 11.3316 69.0144 11.5257 69.0003 11.5482C68.9863 11.5707 68.9882 11.5891 69.0044 11.5891C69.0417 11.5891 69.0363 12.5196 68.9979 12.7051C68.9814 12.7848 68.9828 12.8352 69.001 12.824C69.0186 12.8132 69.0347 12.969 69.0372 13.1744C69.0397 13.3777 69.0276 13.5442 69.0104 13.5442C68.9932 13.5442 68.9802 13.7081 68.9817 13.9085C68.9834 14.1655 68.9942 14.252 69.0179 14.2018C69.0432 14.1485 69.0473 14.1661 69.0344 14.2729C68.9711 14.7951 68.9691 14.8342 69.007 14.8109C69.049 14.785 69.0465 14.9217 69.0037 14.9908C68.9902 15.0125 68.9781 15.9157 68.977 16.9977C68.9758 18.0798 68.9741 19.3089 68.9733 19.7292C68.972 20.327 68.9836 20.5283 69.1204 20.834C69.1396 21.0213 69.1689 21.102 69.267 21.2384L69.3896 21.4087C69.4115 21.0393 69.5532 21.6497 69.6211 21.5272C69.6216 21.6078 69.6907 21.6513 69.9529 21.7359C70.1489 21.799 70.1584 21.8003 70.1527 21.7642C70.1422 21.6982 70.1642 21.5997 70.1806 21.6399C70.1944 21.6742 70.4689 21.6843 71.3835 21.6843H72.5683C72.5383 21.8238 72.5404 22.0851 72.5303 22.0636C72.5828 22.1069 72.599 22.644 72.5478 22.644C72.5019 22.644 72.5087 22.8509 72.5569 22.9163C72.5737 22.9391 72.5744 22.9655 72.5588 22.9752C72.5127 23.0036 72.4993 23.8171 72.545 23.8171C72.5961 23.8171 72.5953 24.0902 72.5441 24.1216C72.5222 24.1351 72.4154 24.1441 72.3068 24.1417C72.1143 24.1373 71.9936 24.1839 72.0331 24.2476C72.0566 24.2856 69.9612 24.2805 69.3717 24.2412Z" fill="white" stroke="white" stroke-width="0.142185"/>
<path d="M69.9458 21.7337C69.6919 21.6492 69.6248 21.606 69.6242 21.5267C69.4779 21.5063 69.4541 21.2448 69.5889 21.3552C69.5889 21.3987 69.827 21.5259 70.0075 21.579C70.1331 21.6161 70.1571 21.6373 70.1514 21.7069C70.1433 21.8038 70.1533 21.8025 69.9458 21.7337Z" fill="white" stroke="white" stroke-width="0.142185"/>
<path d="M69.2626 21.2388C69.1645 21.1023 69.1352 21.0216 69.0222 20.6537C68.9792 20.5286 68.9676 20.3273 68.9688 19.7295C68.9697 19.3092 68.9714 18.08 68.9725 16.998C68.9737 15.916 68.9858 15.0128 68.9993 14.9911C69.0421 14.922 69.0446 14.7853 69.0025 14.8112C68.9647 14.8345 68.9667 14.7954 69.03 14.2732C69.0429 14.1664 69.0388 14.1488 69.0135 14.2021C68.9897 14.2523 68.9789 14.1658 68.9772 13.9087C68.9758 13.7084 68.9888 13.5445 69.006 13.5445C69.0232 13.5445 69.0352 13.378 69.0328 13.1746C69.0303 12.9693 69.0142 12.8135 68.9966 12.8243C68.9784 12.8355 68.977 12.7851 68.9934 12.7054C69.0318 12.5199 69.0372 11.5894 69 11.5894C68.9838 11.5894 68.9819 11.5709 68.9959 11.5485C69.0099 11.526 69.0252 11.3319 69.0297 11.1174C69.0347 10.8847 69.0254 10.747 69.0069 10.7761C68.9875 10.8068 68.9775 10.7455 68.9804 10.6119C68.9846 10.4106 68.9863 10.4066 69.0109 10.5408C69.0287 10.6375 69.0362 10.5593 69.035 10.2957C69.0338 10.0827 69.0209 9.93864 69.0062 9.97575C68.9067 10.0997 69.0728 9.72338 69.0119 9.72593C68.9497 9.61005 68.9821 9.38284 69.0806 9.24506L69.158 9.13672H69.6017C70.0098 9.13672 70.0453 9.14198 70.0453 9.20255C70.0453 9.26227 70.0096 9.26895 69.6671 9.27379C69.459 9.27677 69.2743 9.288 69.2566 9.29895C69.2126 9.32597 69.214 20.7853 69.2936 20.9736C69.3444 20.9736 69.4086 21.1736 69.3967 21.294L69.3852 21.4094L69.2626 21.2388Z" fill="white" stroke="white" stroke-width="0.142185"/>
<path d="M9.72656 18.4303C9.72656 18.3339 9.78201 18.2796 9.80988 18.3485C9.8214 18.3768 9.82894 18.3717 9.83078 18.3345C9.83235 18.3022 9.88282 18.2587 9.99415 18.3899C9.97453 18.3881 9.90628 18.4158 9.84258 18.4515L9.72656 18.5165V18.4303Z" fill="white" stroke="white" stroke-width="0.142185"/>
<path d="M11.8359 17.4724C11.8359 17.4057 11.8638 17.3772 11.9602 17.3455C12.0285 17.3231 12.1008 17.3147 12.1207 17.3271C12.1408 17.3395 12.1571 17.3263 12.1571 17.298C12.1571 17.2549 12.2271 17.2031 12.2851 17.2031C12.2932 17.2031 12.2999 17.2421 12.2999 17.2896C12.2999 17.3691 12.194 17.4448 12.1126 17.4234C12.0978 17.4195 12.0858 17.4325 12.0858 17.4519C12.0858 17.4714 12.0546 17.4875 12.0165 17.4875C11.9784 17.4875 11.9373 17.5036 11.9252 17.523C11.885 17.5877 11.8359 17.56 11.8359 17.4724Z" fill="white" stroke="white" stroke-width="0.142185"/>
<path d="M12.3479 17.2924C12.3601 17.2607 12.37 17.2132 12.37 17.187C12.37 17.1608 12.4303 17.12 12.504 17.0964C12.5775 17.0728 12.6566 17.0387 12.6794 17.0206C12.8093 16.9793 12.9499 17.0425 12.7895 17.1445C12.7649 17.1546 12.6506 17.2049 12.5353 17.2565C12.3666 17.3317 12.33 17.3387 12.3479 17.2924Z" fill="white" stroke="white" stroke-width="0.142185"/>
<path d="M8.01565 19.1756C8.01565 19.0826 8.06812 19.0547 8.13622 19.0511C8.14376 19.0511 8.20788 19.027 8.27898 18.9974C8.40595 18.9445 8.40837 18.9451 8.40837 19.0263C8.40837 19.0914 8.3704 19.1254 8.2295 19.1866C8.00868 19.2828 8.01565 19.283 8.01565 19.1756Z" fill="white" stroke="white" stroke-width="0.142185"/>
<path d="M10.0859 18.2749C10.0859 18.1945 10.1923 18.0897 10.194 18.1685C10.251 18.2119 10.5321 17.9663 10.5856 17.9908C10.5856 17.9498 10.7629 17.8748 10.8024 17.8991C10.738 17.9761 11.0564 17.6891 11.0495 17.8273C11.0495 17.9043 11.017 17.9339 10.8459 18.0118C10.734 18.063 10.6216 18.1047 10.5961 18.1047C10.5706 18.1047 10.5499 18.1159 10.5499 18.1296C10.5499 18.1432 10.4735 18.1826 10.3804 18.2171C10.2871 18.2517 10.1956 18.2938 10.1769 18.3108C10.1221 18.3607 10.0859 18.3465 10.0859 18.2749Z" fill="white" stroke="white" stroke-width="0.142185"/>
<path d="M6.87838 19.7665C6.85136 19.7497 6.84013 19.7182 6.85364 19.6964C6.86928 19.6714 6.84482 19.6569 6.78681 19.6569C6.65785 19.6569 6.67292 19.6156 6.84724 19.4914C6.9307 19.4318 7.4983 19.0249 8.10885 18.5869C8.71925 18.149 9.52587 17.5747 9.9011 17.3108C10.2765 17.0469 10.584 16.823 10.5844 16.8132C10.5851 16.7977 8.86854 15.7847 6.68571 14.5125C6.30921 14.2931 5.98986 14.0851 5.84128 14.0239C5.78355 13.9942 5.72554 13.9524 5.71217 13.9308C5.66326 13.852 5.54695 13.9093 8.24805 12.6815C9.38027 12.167 12.8058 10.6551 13.0223 10.5746C13.2649 10.4842 13.2653 10.5286 13.0232 10.6642C12.9095 10.7279 12.6923 10.8654 12.5408 10.9696C11.7369 11.5227 10.6339 12.2961 9.7282 12.9416C9.16827 13.3407 8.65043 13.7073 8.57749 13.7562C8.50455 13.8051 8.45009 13.8611 8.45635 13.8806C8.47227 13.9298 8.953 14.2116 11.5493 15.6942C13.015 16.5309 13.2625 16.6794 13.1369 16.7991C13.09 16.846 13.0268 16.8843 12.9963 16.8843C12.9503 17.1027 12.6827 16.9609 12.6795 17.0199C12.6566 17.038 12.5796 17.0714 12.5082 17.0943C12.4058 17.1271 12.3728 17.1598 12.3511 17.25C12.2955 17.2444 12.0913 17.238 12.1196 17.3282C12.0997 17.3158 12.0273 17.3242 11.9591 17.3465C11.8549 17.3808 11.8348 17.4042 11.8348 17.4912C11.8348 17.5484 11.8227 17.5933 11.8081 17.5909C11.7286 17.5785 11.6547 17.602 11.5991 17.6575C11.5647 17.6916 11.5274 17.7163 11.5162 17.7122C11.4738 17.697 11.3352 17.7465 11.3352 17.7768C11.3352 17.7941 11.3231 17.8053 11.3084 17.8015C11.2621 17.7893 11.1044 17.8518 11.077 17.8932C11.1424 17.8825 10.7279 17.8825 10.8025 17.899C10.763 17.8747 10.5857 17.9498 10.5857 17.9907C10.4916 18.1477 10.2318 18.1477 10.1941 18.1685C10.1923 18.0827 10.0919 18.1941 10.0757 18.2999C10.0552 18.5862 10.0544 18.1554 9.94332 18.2403C9.88446 18.2608 9.83498 18.304 9.83341 18.3363C9.89171 18.2798 9.5516 18.5969 9.52772 18.5377C9.51819 18.5626 9.41127 18.6272 9.29027 18.6812C9.16927 18.7354 9.04585 18.8039 8.84494 18.7362C8.80044 18.7529 8.74925 18.8029 8.73134 18.8474C8.6574 19.0061 8.3753 19.0061 8.41398 19.0295C8.39166 18.956 8.38568 18.9552 8.25701 19.0067C8.1815 19.0368 8.12193 19.0857 8.12037 19.1186C8.17951 19.0773 7.92571 19.2522 7.93581 19.2873C7.89159 19.2849 7.82789 19.3151 7.79419 19.3543C7.51665 19.1669 7.51665 19.3533 7.48337 19.392C7.42351 19.355 7.26669 19.4525 7.26242 19.5293C7.25915 19.5893 7.25517 19.5916 7.24194 19.5414C7.22204 19.4655 7.22616 19.4656 7.07331 19.5381C6.98118 19.5819 6.9462 19.623 6.93824 19.6973C6.93027 19.772 6.9152 19.7894 6.87838 19.7665Z" fill="white" stroke="white" stroke-width="0.142185"/>
</svg>