<svg xmlns="http://www.w3.org/2000/svg" xmlns:xlink="http://www.w3.org/1999/xlink" viewBox="0 0 91 14.918" overflow="visible"><g><path d="M 0 14.918 L 2.12 0 L 2.363 0 L 8.428 12.241 L 14.431 0 L 14.675 0 L 16.815 14.918 L 15.344 14.918 L 13.884 4.25 L 8.61 14.918 L 8.235 14.918 L 2.89 4.168 L 1.44 14.918 Z M 25.861 0 L 32.818 14.918 L 31.215 14.918 L 28.873 10.01 L 22.444 10.01 L 20.111 14.918 L 18.448 14.918 L 25.496 0 Z M 25.679 3.164 L 23.113 8.57 L 28.214 8.57 L 25.679 3.164 Z M 35.141 0 L 36.661 0 L 36.661 5.598 L 42.615 0 L 44.633 0 L 37.463 6.693 L 45.19 14.918 L 43.213 14.918 L 36.662 7.961 L 36.662 14.917 L 35.141 14.917 L 35.141 0 Z M 47.422 0 L 55.971 0 L 55.971 1.471 L 48.913 1.471 L 48.913 6.135 L 55.91 6.135 L 55.91 7.596 L 48.913 7.596 L 48.913 13.448 L 55.91 13.448 L 55.91 14.918 L 47.422 14.918 Z M 58.547 0 L 60.048 0 L 60.048 13.478 L 65.778 13.478 L 65.778 14.918 L 58.547 14.918 Z M 68.151 0 L 76.7 0 L 76.7 1.471 L 69.642 1.471 L 69.642 6.135 L 76.64 6.135 L 76.64 7.596 L 69.642 7.596 L 69.642 13.448 L 76.64 13.448 L 76.64 14.918 L 68.151 14.918 Z M 79.286 14.918 L 79.286 0 L 79.611 0 L 89.529 11.42 L 89.529 0 L 91 0 L 91 14.918 L 90.665 14.918 L 80.828 3.641 L 80.828 14.918 Z" fill="rgb(255,255,255)"></path></g></svg>