<svg xmlns="http://www.w3.org/2000/svg" xmlns:xlink="http://www.w3.org/1999/xlink" viewBox="0 0 82 68"><path d="M 12 67.61 C 5.373 67.61 0 62.237 0 55.61 L 0 12 C 0 5.373 5.373 0 12 0 L 70 0 C 76.627 0 82 5.373 82 12 L 82 55.61 C 82 62.237 76.627 67.61 70 67.61 Z" fill="rgb(28,12,40)"></path><path d="M 42.389 44.315 C 41.94 43.516 41.3 42.257 40.471 40.538 C 40.371 40.321 40.087 39.733 39.621 38.775 C 39.155 37.817 38.723 36.992 38.326 36.301 C 37.928 35.61 37.576 35.067 37.272 34.672 L 34.708 38.05 L 34.708 43.337 C 34.708 43.741 34.988 44.068 35.335 44.068 L 37.019 44.068 L 37.019 45.52 L 29.883 45.52 L 29.883 44.068 L 31.364 44.068 C 31.71 44.068 31.991 43.74 31.991 43.337 L 31.991 25.712 C 31.991 25.307 31.71 24.98 31.364 24.98 L 29.908 24.98 L 29.908 23.499 L 36.816 23.499 L 36.816 24.98 L 35.333 24.98 C 34.987 24.98 34.706 25.307 34.706 25.712 L 34.706 35.707 L 41.563 26.18 C 41.905 25.704 41.615 24.98 41.083 24.98 L 40.038 24.98 L 40.038 23.499 L 46.309 23.499 L 46.309 24.98 L 44.876 24.98 C 44.696 24.98 44.526 25.07 44.408 25.227 L 38.871 32.506 C 39.463 33.098 40.093 33.959 40.763 35.083 C 41.431 36.209 42.248 37.661 43.212 39.439 C 44.041 40.961 44.647 42.042 45.027 42.683 C 45.408 43.325 45.707 43.676 45.928 43.735 L 47.122 44.06 L 47.122 45.512 L 43.491 45.512 C 43.203 45.512 42.834 45.112 42.387 44.312 Z M 48.265 44.064 L 49.746 44.064 C 50.093 44.064 50.373 43.736 50.373 43.332 L 50.373 25.712 C 50.373 25.307 50.093 24.98 49.746 24.98 L 48.393 24.98 L 48.393 23.499 L 56.633 23.499 C 59.122 23.499 59.891 23.73 60.948 24.67 C 61.992 25.594 62.521 27.042 62.535 29.013 C 62.543 30.014 62.377 31.001 62.025 31.912 C 61.347 33.659 60.265 34.795 58.778 35.322 C 59.32 35.659 59.823 36.236 60.289 37.056 C 60.753 37.876 61.325 39.018 62.003 40.479 C 62.527 41.586 62.929 42.394 63.209 42.91 C 63.488 43.424 63.756 43.709 64.009 43.768 L 65 44.063 L 65 45.516 L 61.497 45.516 C 61.226 45.516 60.922 45.176 60.583 44.494 C 60.245 43.812 59.795 42.76 59.238 41.337 C 58.629 39.777 58.099 38.538 57.652 37.619 C 57.203 36.699 56.759 36.113 56.319 35.856 C 54.508 35.856 53.433 35.846 53.095 35.826 L 53.095 43.334 C 53.095 43.739 53.375 44.066 53.722 44.066 L 55.609 44.066 L 55.609 45.518 L 48.27 45.518 L 48.27 44.066 Z M 58.676 33.01 C 59.301 32.181 59.615 30.945 59.615 29.306 C 59.615 27.865 59.298 26.763 58.663 26.002 C 58.028 25.241 57.266 24.98 56.313 24.98 L 53.089 24.98 L 53.089 34.225 C 53.343 34.245 53.868 34.254 54.665 34.254 L 56.112 34.254 C 57.196 34.254 58.05 33.839 58.677 33.01 L 58.675 33.01 Z M 32.356 51.895 L 31.238 51.895 L 31.058 52.513 L 30.294 52.513 L 31.379 49.015 L 32.226 49.015 L 33.309 52.513 L 32.536 52.513 Z M 32.169 51.237 L 31.797 49.956 L 31.43 51.237 L 32.168 51.237 Z M 37.747 49.014 L 36.708 51.357 L 36.708 52.513 L 35.978 52.513 L 35.978 51.357 L 34.939 49.014 L 35.768 49.014 L 36.35 50.48 L 36.926 49.014 Z M 40.295 49.014 L 40.295 51.108 C 40.295 51.318 40.339 51.479 40.427 51.592 C 40.516 51.706 40.645 51.761 40.817 51.761 C 40.988 51.761 41.117 51.704 41.209 51.592 C 41.3 51.479 41.346 51.318 41.346 51.108 L 41.346 49.014 L 42.077 49.014 L 42.077 51.102 C 42.077 51.415 42.02 51.679 41.906 51.895 C 41.803 52.098 41.644 52.268 41.448 52.384 C 41.258 52.494 41.042 52.547 40.805 52.547 C 40.57 52.547 40.358 52.494 40.171 52.385 C 39.985 52.277 39.837 52.115 39.728 51.896 C 39.62 51.679 39.566 51.413 39.566 51.102 L 39.566 49.014 L 40.297 49.014 L 40.295 49.014 Z M 45.654 52.512 L 45.03 51.193 L 44.855 51.193 L 44.855 52.513 L 44.124 52.513 L 44.124 49.014 L 45.35 49.014 C 45.586 49.014 45.788 49.062 45.954 49.16 C 46.121 49.255 46.246 49.388 46.328 49.556 C 46.41 49.726 46.452 49.911 46.452 50.117 C 46.452 50.349 46.395 50.557 46.283 50.74 C 46.172 50.923 46.004 51.053 45.786 51.128 L 46.477 52.515 L 45.654 52.515 L 45.654 52.513 Z M 44.855 50.59 L 45.307 50.59 C 45.441 50.59 45.542 50.551 45.608 50.476 C 45.674 50.398 45.709 50.292 45.709 50.152 C 45.709 50.013 45.675 49.915 45.608 49.838 C 45.54 49.761 45.441 49.724 45.307 49.724 L 44.855 49.724 L 44.855 50.592 L 44.855 50.59 Z M 51.262 49.014 L 50.198 52.513 L 49.284 52.513 L 48.221 49.014 L 48.998 49.014 L 49.741 51.656 L 50.488 49.014 L 51.261 49.014 Z M 53.832 49.696 L 53.832 50.404 L 54.81 50.404 L 54.81 51.062 L 53.832 51.062 L 53.832 51.829 L 54.938 51.829 L 54.938 52.511 L 53.101 52.511 L 53.101 49.012 L 54.938 49.012 L 54.938 49.695 L 53.832 49.695 Z M 58.9 49.233 C 59.137 49.378 59.32 49.584 59.449 49.849 C 59.578 50.114 59.644 50.419 59.644 50.764 C 59.644 51.11 59.579 51.41 59.449 51.676 C 59.33 51.931 59.138 52.146 58.898 52.294 C 58.66 52.441 58.384 52.513 58.071 52.513 L 56.948 52.513 L 56.948 49.014 L 58.071 49.014 C 58.388 49.014 58.663 49.088 58.9 49.233 L 58.901 49.233 Z M 58.669 51.511 C 58.822 51.334 58.899 51.086 58.899 50.763 C 58.899 50.439 58.822 50.189 58.669 50.011 C 58.516 49.833 58.3 49.743 58.025 49.743 L 57.679 49.743 L 57.679 51.776 L 58.025 51.776 C 58.3 51.776 58.516 51.687 58.669 51.511 Z M 63.457 51.895 L 62.338 51.895 L 62.158 52.513 L 61.395 52.513 L 62.48 49.014 L 63.326 49.014 L 64.41 52.513 L 63.636 52.513 Z M 63.269 51.237 L 62.897 49.955 L 62.53 51.237 Z M 26.754 29.635 C 26.84 29.53 26.887 29.399 26.886 29.264 L 26.886 24.019 C 26.886 23.807 26.775 23.616 26.609 23.533 C 26.44 23.452 26.248 23.496 26.119 23.647 L 22.392 27.997 L 22.392 20.524 C 22.392 20.233 22.19 20 21.943 20 C 19.722 20 17.838 21.719 17.217 24.076 C 17.214 24.089 17.21 24.101 17.208 24.114 C 17.069 24.655 16.999 25.211 17 25.769 L 17 29.265 C 17 29.405 17.047 29.537 17.132 29.636 L 21.494 34.727 L 21.494 38.488 L 17.767 34.139 C 17.638 33.988 17.446 33.944 17.277 34.025 C 17.108 34.105 17 34.297 17 34.508 L 17 44.996 C 17 45.287 17.202 45.52 17.449 45.52 L 21.492 45.52 L 21.492 51.987 C 21.492 52.277 21.694 52.511 21.941 52.511 C 22.189 52.511 22.39 52.276 22.39 51.987 L 22.39 45.52 L 26.433 45.52 C 26.683 45.52 26.883 45.284 26.883 44.996 L 26.883 34.508 C 26.883 34.297 26.772 34.105 26.606 34.023 C 26.437 33.942 26.245 33.986 26.116 34.137 L 22.389 38.486 L 22.389 34.725 L 26.75 29.635 Z M 25.987 25.287 L 25.987 29.048 L 22.392 33.243 L 22.392 29.482 Z M 21.494 21.077 L 21.494 27.998 L 18.158 24.105 C 18.684 22.478 19.961 21.276 21.492 21.077 Z M 17.9 29.047 L 17.9 25.767 C 17.9 25.613 17.906 25.458 17.918 25.307 L 21.494 29.48 L 21.494 33.242 L 17.9 29.046 Z M 21.494 39.97 L 21.494 43.731 L 17.9 39.536 L 17.9 35.775 Z M 17.9 41.018 L 20.859 44.472 L 17.9 44.472 L 17.9 41.018 Z M 23.028 44.472 L 25.988 41.018 L 25.988 44.472 L 23.028 44.472 Z M 25.987 35.775 L 25.987 39.536 L 22.392 43.731 L 22.392 39.969 Z" fill="rgb(255,255,255)"></path></svg>