<svg xmlns="http://www.w3.org/2000/svg" xmlns:xlink="http://www.w3.org/1999/xlink" style="width:100%;height:100%;" viewBox="0 0 91 26">
<g clip-path="url(#svg940626830_32676_clip0_1151_1178)">
<path d="M12.2961 0C12.2961 0 9.71094 2.58515 9.71094 5.17031C9.71094 6.59773 10.8687 7.75546 12.2961 7.75546C13.7235 7.75546 14.8812 6.59773 14.8812 5.17031C14.8812 2.58515 12.2961 0 12.2961 0ZM12.2961 7.46931C11.9869 7.46931 11.6942 7.34762 11.4738 7.12726C11.2535 6.9069 11.1318 6.61418 11.1318 6.30501C11.1318 5.99584 11.2535 5.70312 11.4738 5.48276C11.6942 5.2624 11.9869 5.1407 12.2961 5.1407C12.6053 5.1407 12.898 5.2624 13.1183 5.48276C13.3387 5.70312 13.4604 5.99584 13.4604 6.30501C13.4604 6.61418 13.3387 6.9069 13.1183 7.12726C12.898 7.34762 12.6053 7.46931 12.2961 7.46931ZM12.2698 4.68682L12.3454 4.61118L12.7072 4.24939L13.8682 3.08837C13.8288 3.00614 13.786 2.92721 13.7432 2.84827L12.671 3.92049C12.5987 3.65079 12.4211 3.40411 12.1612 3.25611L11.8817 3.09495C11.6876 2.98312 11.5495 2.80223 11.4903 2.58515C11.4311 2.36808 11.4607 2.14114 11.5758 1.94709C11.806 1.54583 12.3224 1.40769 12.7237 1.63792C13.1249 1.86815 13.2631 2.38452 13.0328 2.78578L13.2565 2.91405C13.3749 2.71013 13.4209 2.4799 13.3979 2.24967C13.8781 3.00614 14.3978 4.03889 14.4899 5.08479C14.4866 5.03217 14.48 4.97625 14.4734 4.92363C13.809 4.51908 12.9999 4.44015 12.2764 4.69011L12.2698 4.68682ZM12.2994 0.802516C12.4276 0.947232 12.5921 1.14128 12.773 1.3748C12.4638 1.2268 12.1152 1.23666 11.8225 1.3748C12.0034 1.14128 12.1678 0.947232 12.2961 0.802516H12.2994ZM11.2699 3.62448C11.5988 3.95338 11.5988 4.48619 11.2699 4.8118C11.1121 4.96968 10.9016 5.05848 10.6746 5.05848C10.4773 5.05848 10.2898 4.98941 10.1385 4.86443C10.2339 4.20334 10.4871 3.55212 10.7799 2.98312C10.8325 3.13442 10.9213 3.27584 11.0397 3.39425L11.2666 3.62119L11.2699 3.62448ZM10.1023 5.40054C10.1023 5.31831 10.1023 5.23937 10.1122 5.15715C10.2799 5.25911 10.4773 5.31502 10.6779 5.31502C10.9706 5.31502 11.2469 5.19991 11.4541 4.9927C11.8817 4.56513 11.8817 3.86786 11.4541 3.44029L11.2272 3.21335C11.0693 3.05548 10.9838 2.84827 10.9805 2.62791C11.0561 2.49635 11.1318 2.37137 11.2074 2.25296C11.1943 2.38452 11.2041 2.51937 11.2403 2.65422C11.316 2.93708 11.4969 3.17388 11.7534 3.32189L12.033 3.48305C12.2829 3.62777 12.4309 3.88102 12.4507 4.14743L11.2929 5.30515C11.0232 5.57485 10.8752 5.93006 10.8752 6.31159C10.8752 6.69311 11.0232 7.04832 11.2929 7.31802C11.3258 7.35091 11.3554 7.38051 11.3916 7.40682C10.6319 7.06148 10.1056 6.29514 10.1056 5.40711L10.1023 5.40054ZM13.194 7.41011C13.2302 7.38051 13.2663 7.34762 13.2992 7.31473C13.5689 7.04503 13.7169 6.68982 13.7169 6.3083C13.7169 5.92678 13.5689 5.57156 13.2992 5.30187C13.0723 5.07492 12.7829 4.9335 12.4671 4.89732C13.1479 4.69998 13.8978 4.82167 14.4899 5.25253C14.4899 5.19662 14.4833 5.14399 14.48 5.08808C14.4899 5.19333 14.4931 5.29529 14.4931 5.40054C14.4931 6.29514 13.957 7.06477 13.1907 7.40682L13.194 7.41011Z" fill="white"/>
<path d="M4.69938 2.46875C4.69938 2.46875 4.1271 6.08007 5.64662 8.17187C6.48531 9.32631 8.1035 9.58285 9.25794 8.74416C10.4124 7.90546 10.6689 6.28728 9.83022 5.13284C8.3107 3.04104 4.69938 2.46875 4.69938 2.46875ZM9.0902 8.51064C8.84023 8.69482 8.53107 8.76718 8.22519 8.71785C7.91931 8.66851 7.64962 8.50406 7.46543 8.2541C7.28125 8.00413 7.20889 7.69497 7.25822 7.38909C7.30756 7.08321 7.47201 6.81352 7.72197 6.62933C7.97194 6.44515 8.2811 6.37279 8.58698 6.42213C8.89286 6.47146 9.16255 6.63591 9.34674 6.88587C9.53092 7.13584 9.60328 7.445 9.55395 7.75088C9.50461 8.05676 9.34016 8.32646 9.0902 8.51064ZM7.43254 6.27412L7.44899 6.16558L7.52792 5.66237L7.78446 4.04089C7.70224 3.99813 7.6233 3.95867 7.54108 3.9192L7.30427 5.41898C7.0872 5.24138 6.80105 5.14928 6.49847 5.18217L6.17614 5.21506C5.95249 5.23809 5.73542 5.17231 5.5611 5.03088C5.38678 4.88945 5.27825 4.68882 5.25522 4.46517C5.20589 4.00471 5.54137 3.5903 6.00183 3.54096C6.46229 3.49163 6.8767 3.82711 6.92604 4.28757L7.18258 4.26125C7.15955 4.02774 7.06088 3.81066 6.9063 3.63963C7.73842 3.96853 8.76787 4.49806 9.45528 5.29071C9.4191 5.25124 9.38292 5.20849 9.34674 5.16902C8.57053 5.23151 7.86998 5.64592 7.43254 6.27083V6.27412ZM5.173 3.11339C5.36376 3.15615 5.61044 3.21535 5.89329 3.29758C5.55781 3.36007 5.27825 3.57056 5.12695 3.85671C5.13682 3.5607 5.15655 3.30744 5.173 3.11339ZM5.99854 6.00113C6.45571 6.07349 6.76816 6.50435 6.69581 6.96152C6.65963 7.18188 6.54122 7.37922 6.36033 7.51078C6.19917 7.6259 6.0084 7.68181 5.81435 7.66866C5.5019 7.07664 5.32429 6.40239 5.22891 5.7709C5.36047 5.863 5.51506 5.92549 5.67951 5.94851L5.99854 5.99785V6.00113ZM6.1005 8.12912C6.05445 8.06334 6.0084 7.99756 5.96565 7.92849C6.16299 7.91204 6.35375 7.84297 6.51491 7.72128C6.75172 7.55025 6.90959 7.29371 6.95564 7.00428C7.05102 6.40568 6.63989 5.84326 6.0413 5.74788L5.72226 5.69855C5.5019 5.66237 5.31114 5.54725 5.17958 5.36965C5.16313 5.21835 5.14998 5.07364 5.1434 4.93221C5.20918 5.04732 5.29798 5.14928 5.40323 5.23809C5.63017 5.42227 5.91631 5.50778 6.20903 5.47818L6.53136 5.44529C6.8175 5.41569 7.0872 5.5341 7.25822 5.73801L7.00168 7.35291C6.94248 7.72786 7.03128 8.1028 7.25494 8.41197C7.47859 8.71785 7.80749 8.92176 8.18243 8.98097C8.22519 8.98754 8.27124 8.99412 8.31399 8.99412C7.49832 9.15857 6.62016 8.84941 6.09721 8.1324L6.1005 8.12912ZM9.78089 7.93178C9.79404 7.88573 9.80391 7.83968 9.81049 7.79035C9.86969 7.4154 9.78089 7.04046 9.55723 6.73129C9.33358 6.42213 9.00468 6.2215 8.62974 6.16229C8.31399 6.11296 7.99496 6.16887 7.71868 6.32346C8.15283 5.76433 8.83037 5.41898 9.5671 5.42227C9.53421 5.37951 9.49803 5.33676 9.46185 5.29729C9.53092 5.37622 9.5967 5.45845 9.6559 5.54067C10.1821 6.26425 10.2019 7.20162 9.78089 7.92849V7.93178Z" fill="white"/>
<path d="M0 8.93247C0 8.93247 1.66094 12.1919 4.11783 12.9878C5.47618 13.4285 6.93321 12.6852 7.37722 11.3269C7.81795 9.96851 7.07464 8.51148 5.71628 8.06746C3.2594 7.27153 0 8.93247 0 8.93247ZM7.10424 11.2413C7.00886 11.5374 6.80165 11.7775 6.52537 11.9189C6.2491 12.0603 5.93335 12.0833 5.63734 11.988C5.34133 11.8926 5.10124 11.6854 4.95981 11.4091C4.81838 11.1328 4.79536 10.8171 4.89074 10.5211C4.98612 10.225 5.19333 9.98495 5.4696 9.84352C5.74588 9.7021 6.06162 9.67907 6.35763 9.77445C6.65364 9.86984 6.89374 10.077 7.03517 10.3533C7.17659 10.6296 7.19962 10.9453 7.10424 11.2413ZM4.45001 10.4059L4.40068 10.3073L4.17045 9.85339L3.42385 8.38979C3.33176 8.40294 3.24295 8.41939 3.15744 8.43254L3.84484 9.78432C3.56527 9.77117 3.27913 9.86326 3.05219 10.0639L2.81209 10.281C2.64435 10.4323 2.43057 10.5079 2.20692 10.4947C1.98327 10.4816 1.77606 10.3862 1.62805 10.2185C1.31889 9.87312 1.3452 9.34031 1.69055 9.03114C2.03589 8.72198 2.56871 8.74829 2.87787 9.09363L3.06864 8.91932C2.91076 8.745 2.70685 8.62659 2.4799 8.58055C3.34491 8.3569 4.48948 8.18258 5.51236 8.41939C5.45974 8.40623 5.40711 8.39636 5.3512 8.3865C4.75918 8.893 4.43686 9.63961 4.45001 10.4027V10.4059ZM0.763048 9.17586C0.940654 9.10021 1.17746 9.00154 1.45374 8.90287C1.21693 9.14955 1.11826 9.48502 1.16102 9.80734C0.996566 9.56396 0.861718 9.34689 0.763048 9.17915V9.17586ZM3.13113 11.0276C3.54554 10.8171 4.05205 10.9815 4.26254 11.3959C4.3645 11.5966 4.38095 11.8235 4.31188 12.0373C4.24939 12.2248 4.12769 12.3826 3.96324 12.4879C3.36465 12.1919 2.82525 11.7511 2.37466 11.2973C2.53582 11.294 2.69698 11.2545 2.84498 11.1789L3.13442 11.0309L3.13113 11.0276ZM4.45988 12.6885C4.38423 12.6622 4.30859 12.6359 4.23294 12.6063C4.38095 12.478 4.49606 12.3103 4.55855 12.1162C4.65064 11.8367 4.62433 11.5406 4.49277 11.2775C4.2165 10.7381 3.55541 10.5211 3.01601 10.7973L2.72658 10.9453C2.52924 11.0473 2.30559 11.0637 2.0918 10.998C1.98984 10.8861 1.89446 10.7743 1.80566 10.6658C1.92735 10.7184 2.05891 10.7513 2.19705 10.7579C2.48977 10.7743 2.77263 10.6724 2.9897 10.4783L3.2298 10.2612C3.44358 10.0672 3.72972 10.008 3.98955 10.0705L4.73287 11.5275C4.9039 11.8663 5.19991 12.1162 5.5617 12.2346C5.92349 12.353 6.3083 12.3201 6.64707 12.1491C6.68653 12.1294 6.726 12.1064 6.76218 12.0833C6.19647 12.6984 5.30515 12.9615 4.46317 12.6885H4.45988ZM7.3246 10.3665C7.30815 10.3237 7.28842 10.2777 7.2654 10.2349C7.09437 9.89615 6.79836 9.64618 6.43657 9.52778C6.07478 9.40938 5.68997 9.44227 5.3512 9.61329C5.06506 9.75801 4.84141 9.99153 4.70656 10.2777C4.72958 9.57054 5.07492 8.893 5.67023 8.46214C5.61761 8.44899 5.56499 8.43254 5.51236 8.42268C5.61432 8.4457 5.71628 8.4753 5.81495 8.5049C6.66351 8.78118 7.23251 9.52778 7.32131 10.3632L7.3246 10.3665Z" fill="white"/>
<path d="M0 16.92C0 16.92 3.2594 18.5809 5.71628 17.7817C7.07464 17.341 7.81795 15.8806 7.37722 14.5223C6.9365 13.1639 5.47618 12.4206 4.11783 12.8613C1.65766 13.6606 0 16.9167 0 16.9167V16.92ZM7.10424 14.6111C7.19962 14.9071 7.17659 15.2229 7.03517 15.4991C6.89374 15.7754 6.65364 15.9826 6.35763 16.078C6.06162 16.1734 5.74588 16.1503 5.4696 16.0089C5.19333 15.8675 4.98612 15.6274 4.89074 15.3314C4.79536 15.0354 4.81838 14.7196 4.95981 14.4434C5.10124 14.1671 5.34133 13.9599 5.63734 13.8645C5.93335 13.7691 6.2491 13.7921 6.52537 13.9336C6.80165 14.075 7.00886 14.3151 7.10424 14.6111ZM4.46646 15.4958L4.36779 15.4465L3.91391 15.2163L2.4503 14.4697C2.38452 14.5354 2.32203 14.5979 2.25954 14.6637L3.61132 15.3511C3.37451 15.5057 3.2002 15.7458 3.13442 16.0418L3.06864 16.3576C3.02259 16.5779 2.89103 16.7654 2.70356 16.8871C2.51608 17.0088 2.28914 17.0515 2.07207 17.0055C1.61819 16.9101 1.32876 16.4628 1.42414 16.0089C1.51952 15.555 1.96682 15.2656 2.4207 15.361L2.47333 15.1077C2.2431 15.0584 2.00958 15.0847 1.79579 15.1801C2.36479 14.4894 3.18704 13.677 4.154 13.2659C4.10467 13.2856 4.05534 13.3087 4.006 13.3317C3.82511 14.0881 4.00271 14.8841 4.45988 15.4925L4.46646 15.4958ZM0.763048 16.6667C0.861718 16.499 0.996566 16.2819 1.16102 16.0385C1.11497 16.3773 1.23337 16.7062 1.45374 16.943C1.17746 16.841 0.940654 16.7457 0.763048 16.67V16.6667ZM3.76261 16.7753C3.97311 16.3608 4.47962 16.1964 4.89403 16.4069C5.09466 16.5088 5.24266 16.6832 5.31173 16.897C5.37422 17.0844 5.36765 17.2851 5.29529 17.4659C4.63749 17.5811 3.94022 17.5383 3.30873 17.4363C3.437 17.3377 3.54225 17.2127 3.6179 17.0647L3.7659 16.7753H3.76261ZM5.81495 17.3377C5.7393 17.364 5.66037 17.3837 5.58143 17.4035C5.62748 17.2094 5.61761 17.0088 5.55512 16.8147C5.46303 16.5352 5.26898 16.3082 5.00914 16.1767C4.46975 15.9004 3.80537 16.1175 3.53238 16.6569L3.38438 16.9463C3.28242 17.1436 3.11139 17.2916 2.90419 17.3607C2.75618 17.3311 2.61475 17.2949 2.47662 17.262C2.60818 17.2357 2.73316 17.1831 2.84827 17.1074C3.09495 16.9463 3.26269 16.7029 3.32518 16.4135L3.39096 16.0977C3.45016 15.8149 3.6475 15.5978 3.89417 15.4958L5.3512 16.2392C5.68997 16.4102 6.07478 16.4431 6.43657 16.3247C6.79836 16.2063 7.09108 15.9563 7.2654 15.6175C7.28513 15.5781 7.30487 15.5386 7.32131 15.4958C7.22593 16.3247 6.66022 17.0614 5.81824 17.3377H5.81495ZM6.76876 13.7757C6.72929 13.7494 6.68653 13.7264 6.64378 13.7033C6.30501 13.5323 5.9202 13.4994 5.55841 13.6178C5.19662 13.7362 4.9039 13.9862 4.72958 14.325C4.58486 14.6111 4.53882 14.9301 4.60131 15.2426C4.20334 14.6571 4.08494 13.904 4.31517 13.2067C4.26254 13.2264 4.21321 13.2462 4.16387 13.2659C4.25925 13.2264 4.35792 13.187 4.45659 13.1574C5.30515 12.8811 6.20305 13.1541 6.76876 13.7757Z" fill="white"/>
<path d="M4.69938 23.386C4.69938 23.386 8.3107 22.8137 9.83022 20.7219C10.6689 19.5674 10.4124 17.9493 9.25794 17.1106C8.1035 16.2719 6.48531 16.5284 5.64662 17.6828C4.1271 19.7747 4.69938 23.386 4.69938 23.386ZM9.0902 17.3408C9.34016 17.525 9.5079 17.7947 9.55395 18.1006C9.60328 18.4064 9.52763 18.7156 9.34674 18.9656C9.16584 19.2155 8.89286 19.3833 8.58698 19.4293C8.2811 19.4786 7.97194 19.403 7.72197 19.2221C7.47201 19.0379 7.30427 18.7682 7.25822 18.4623C7.20889 18.1565 7.28454 17.8473 7.46543 17.5973C7.64633 17.3474 7.91931 17.1796 8.22519 17.1336C8.53107 17.0843 8.84023 17.1599 9.0902 17.3408ZM7.4753 19.6102L7.36676 19.6266L6.86354 19.7056L5.24207 19.9621C5.22562 20.0509 5.21247 20.143 5.2026 20.2318L6.70238 19.995C6.60042 20.2581 6.60042 20.5574 6.72541 20.8337L6.85697 21.1297C6.94906 21.3336 6.95564 21.5639 6.87341 21.7711C6.79448 21.9816 6.6366 22.146 6.4294 22.2381C6.00512 22.4256 5.50848 22.2381 5.321 21.8138C5.13353 21.3895 5.321 20.8929 5.74528 20.7054L5.64004 20.4686C5.42625 20.564 5.24865 20.7219 5.13353 20.9225C5.18944 20.0312 5.37692 18.8866 5.91631 17.9887C5.88671 18.0348 5.8604 18.0841 5.83409 18.1302C6.13339 18.8504 6.74185 19.3898 7.47201 19.6102H7.4753ZM5.16642 22.7348C5.14669 22.5407 5.13024 22.2874 5.12038 21.9914C5.28154 22.2907 5.57097 22.4914 5.89 22.5506C5.60715 22.6328 5.35718 22.692 5.16971 22.7348H5.16642ZM7.65619 21.0574C7.58384 20.6002 7.89629 20.1693 8.35346 20.097C8.57382 20.0608 8.79748 20.1167 8.97837 20.2483C9.13953 20.3634 9.25136 20.5311 9.2974 20.7186C8.83365 21.1988 8.24492 21.5737 7.67264 21.8632C7.71868 21.7086 7.72855 21.5441 7.70224 21.3797L7.6529 21.0606L7.65619 21.0574ZM9.64933 20.3042C9.60328 20.37 9.55066 20.4325 9.50132 20.4949C9.42567 20.314 9.30069 20.1529 9.13624 20.0345C8.89943 19.8635 8.61 19.7911 8.31728 19.8371C7.71868 19.9325 7.30756 20.4949 7.40294 21.0935L7.45228 21.4126C7.48845 21.6329 7.43583 21.85 7.30756 22.0309C7.16942 22.0934 7.03457 22.1493 6.90301 22.2019C6.99182 22.1033 7.06417 21.9881 7.11351 21.8599C7.21876 21.5869 7.21218 21.2876 7.09049 21.0179L6.95893 20.7219C6.84052 20.4588 6.87012 20.166 7.01155 19.9391L8.62645 19.6826C9.00139 19.6234 9.33029 19.4227 9.55395 19.1136C9.7776 18.8044 9.8664 18.4295 9.8072 18.0545C9.80062 18.0117 9.79075 17.969 9.78089 17.9262C10.192 18.6531 10.169 19.5839 9.64604 20.3009L9.64933 20.3042ZM8.32715 16.8639C8.2811 16.8639 8.23177 16.8705 8.18572 16.8803C7.81078 16.9395 7.48188 17.1402 7.25822 17.4493C7.03457 17.7585 6.94577 18.1334 7.00497 18.5084C7.05431 18.8241 7.20889 19.1103 7.43912 19.3241C6.77474 19.084 6.23535 18.5446 6.01169 17.8473C5.98209 17.8933 5.95249 17.9394 5.92289 17.9854C5.97551 17.8966 6.03472 17.8078 6.09721 17.7256C6.62345 17.002 7.50819 16.6961 8.33044 16.8672L8.32715 16.8639Z" fill="white"/>
<path d="M12.2961 25.8531C12.2961 25.8531 14.8812 23.268 14.8812 20.6828C14.8812 19.2554 13.7235 18.0977 12.2961 18.0977C10.8687 18.0977 9.71094 19.2554 9.71094 20.6828C9.71094 23.268 12.2961 25.8531 12.2961 25.8531ZM12.2961 18.3805C12.6053 18.3805 12.898 18.5022 13.1183 18.7226C13.3387 18.9429 13.4604 19.2357 13.4604 19.5448C13.4604 19.854 13.3387 20.1467 13.1183 20.3671C12.898 20.5874 12.6053 20.7091 12.2961 20.7091C11.9869 20.7091 11.6942 20.5874 11.4738 20.3671C11.2535 20.1467 11.1318 19.854 11.1318 19.5448C11.1318 19.2357 11.2535 18.9429 11.4738 18.7226C11.6942 18.5022 11.9869 18.3805 12.2961 18.3805ZM12.3224 21.163L12.2468 21.2387L11.885 21.6004L10.7239 22.7615C10.7634 22.8437 10.8062 22.9226 10.8489 23.0016L11.9211 21.9293C11.9935 22.199 12.1711 22.4457 12.4309 22.5937L12.7105 22.7549C12.9046 22.8667 13.0427 23.0476 13.1019 23.2647C13.1611 23.4817 13.1315 23.7087 13.0164 23.9027C12.7862 24.304 12.2698 24.4421 11.8685 24.2119C11.4673 23.9817 11.3291 23.4653 11.5594 23.064L11.3357 22.9358C11.2173 23.1397 11.1713 23.3699 11.1943 23.6002C10.7141 22.8437 10.1944 21.8109 10.1023 20.765C10.1056 20.8177 10.1122 20.8736 10.1188 20.9262C10.7832 21.3307 11.5922 21.4097 12.3158 21.1597L12.3224 21.163ZM12.2928 25.0506C12.1645 24.9059 12.0001 24.7118 11.8192 24.4783C12.1284 24.6263 12.477 24.6165 12.7697 24.4783C12.5888 24.7118 12.4244 24.9059 12.2961 25.0506H12.2928ZM13.3223 22.2286C12.9934 21.8997 12.9934 21.3669 13.3223 21.0413C13.4801 20.8834 13.6906 20.7946 13.9176 20.7946C14.1149 20.7946 14.3024 20.8637 14.4537 20.9887C14.3583 21.6498 14.105 22.301 13.8123 22.87C13.7597 22.7187 13.6709 22.5773 13.5525 22.4589L13.3255 22.2319L13.3223 22.2286ZM14.4899 20.4493C14.4899 20.5315 14.4899 20.6105 14.48 20.6927C14.3122 20.5907 14.1149 20.5348 13.9143 20.5348C13.6216 20.5348 13.3453 20.6499 13.1381 20.8571C12.7105 21.2847 12.7105 21.982 13.1381 22.4095L13.365 22.6365C13.5229 22.7943 13.6084 23.0016 13.6117 23.2219C13.536 23.3535 13.4604 23.4785 13.3847 23.5969C13.3979 23.4653 13.388 23.3305 13.3519 23.1956C13.2762 22.9127 13.0953 22.6759 12.8388 22.5279L12.5592 22.3668C12.3092 22.2221 12.1612 21.9688 12.1415 21.7024L13.2992 20.5447C13.5689 20.275 13.7169 19.9198 13.7169 19.5382C13.7169 19.16 13.5689 18.8015 13.2992 18.5318C13.2663 18.4989 13.2367 18.4693 13.2006 18.443C13.9603 18.7883 14.4866 19.5547 14.4866 20.4427L14.4899 20.4493ZM11.3982 18.443C11.362 18.4726 11.3258 18.5055 11.2929 18.5384C11.0232 18.8081 10.8752 19.1633 10.8752 19.5448C10.8752 19.9231 11.0232 20.2816 11.2929 20.5512C11.5199 20.7782 11.8093 20.9196 12.1251 20.9558C11.4442 21.1531 10.6943 21.0314 10.1023 20.6006C10.1023 20.6565 10.1089 20.7091 10.1122 20.765C10.1023 20.6598 10.099 20.5578 10.099 20.4526C10.099 19.558 10.6351 18.7883 11.4015 18.4463L11.3982 18.443Z" fill="white"/>
<path d="M19.8898 23.386C19.8898 23.386 20.4621 19.7747 18.9426 17.6828C18.1039 16.5284 16.4857 16.2719 15.3313 17.1106C14.1768 17.9493 13.9203 19.5674 14.759 20.7219C16.2785 22.8137 19.8898 23.386 19.8898 23.386ZM15.499 17.3408C15.749 17.1566 16.0582 17.0843 16.364 17.1336C16.6699 17.1829 16.9396 17.3474 17.1238 17.5973C17.308 17.8473 17.3803 18.1565 17.331 18.4623C17.2817 18.7682 17.1172 19.0379 16.8672 19.2221C16.6173 19.4063 16.3081 19.4786 16.0022 19.4293C15.6964 19.38 15.4267 19.2155 15.2425 18.9656C15.0583 18.7156 14.9859 18.4064 15.0353 18.1006C15.0846 17.7947 15.2491 17.525 15.499 17.3408ZM17.1567 19.5773L17.1402 19.6858L17.0613 20.1891L16.8048 21.8105C16.887 21.8533 16.9659 21.8928 17.0481 21.9322L17.285 20.4325C17.502 20.6101 17.7882 20.7021 18.0908 20.6693L18.4131 20.6364C18.6367 20.6133 18.8538 20.6791 19.0281 20.8206C19.2024 20.962 19.311 21.1626 19.334 21.3863C19.3833 21.8467 19.0479 22.2611 18.5874 22.3105C18.1269 22.3598 17.7125 22.0243 17.6632 21.5639L17.4066 21.5902C17.4297 21.8237 17.5283 22.0408 17.6829 22.2118C16.8508 21.8829 15.8213 21.3534 15.1339 20.5607C15.1701 20.6002 15.2063 20.6429 15.2425 20.6824C16.0187 20.6199 16.7192 20.2055 17.1567 19.5806V19.5773ZM19.4162 22.738C19.2255 22.6953 18.9788 22.6361 18.6959 22.5539C19.0314 22.4914 19.311 22.2809 19.4623 21.9947C19.4524 22.2907 19.4327 22.544 19.4162 22.738ZM18.5907 19.8536C18.1335 19.7812 17.8211 19.3504 17.8934 18.8932C17.9296 18.6728 18.048 18.4755 18.2289 18.3439C18.3901 18.2288 18.5808 18.1729 18.7749 18.1861C19.0873 18.7781 19.2649 19.4523 19.3603 20.0838C19.2287 19.9917 19.0742 19.9292 18.9097 19.9062L18.5907 19.8569V19.8536ZM18.4887 17.7256C18.5348 17.7914 18.5808 17.8572 18.6236 17.9262C18.4262 17.9427 18.2355 18.0117 18.0743 18.1334C17.8375 18.3045 17.6796 18.561 17.6336 18.8504C17.5382 19.449 17.9493 20.0115 18.5479 20.1068L18.867 20.1562C19.0873 20.1924 19.2781 20.3075 19.4096 20.4851C19.4261 20.6364 19.4392 20.7811 19.4458 20.9225C19.38 20.8074 19.2912 20.7054 19.186 20.6166C18.9591 20.4325 18.6729 20.3469 18.3802 20.3765L18.0579 20.4094C17.7717 20.439 17.502 20.3206 17.331 20.1167L17.5875 18.5018C17.6467 18.1269 17.5579 17.7519 17.3343 17.4428C17.1106 17.1336 16.7817 16.933 16.4068 16.8738C16.364 16.8672 16.318 16.8606 16.2752 16.8606C17.0909 16.6961 17.9691 17.0053 18.492 17.7223L18.4887 17.7256ZM14.8083 17.9197C14.7952 17.9657 14.7853 18.0117 14.7787 18.0611C14.7195 18.436 14.8083 18.811 15.032 19.1201C15.2556 19.426 15.5845 19.6299 15.9595 19.6891C16.2752 19.7385 16.5943 19.6826 16.8705 19.528C16.4364 20.0871 15.7589 20.4325 15.0221 20.4292C15.055 20.4719 15.0912 20.5147 15.1274 20.5541C15.0583 20.4752 14.9925 20.393 14.9333 20.3108C14.4071 19.5872 14.3873 18.6498 14.8083 17.9229V17.9197Z" fill="white"/>
<path d="M24.5914 16.9206C24.5914 16.9206 22.9304 13.6612 20.4736 12.8653C19.1152 12.4245 17.6582 13.1678 17.2142 14.5262C16.7701 15.8846 17.5167 17.3416 18.8751 17.7856C21.3353 18.5848 24.5914 16.9239 24.5914 16.9239V16.9206ZM17.4871 14.6117C17.5825 14.3157 17.7897 14.0756 18.066 13.9342C18.3423 13.7928 18.658 13.7697 18.954 13.8651C19.25 13.9605 19.4901 14.1677 19.6316 14.444C19.773 14.7203 19.796 15.036 19.7006 15.332C19.6053 15.628 19.3981 15.8681 19.1218 16.0095C18.8455 16.151 18.5298 16.174 18.2337 16.0786C17.9377 15.9832 17.6976 15.776 17.5562 15.4997C17.4148 15.2235 17.3918 14.9077 17.4871 14.6117ZM20.1414 15.4471L20.1907 15.5458L20.4209 15.9997L21.1675 17.4633C21.2596 17.4501 21.3484 17.4337 21.4339 17.4205L20.7465 16.0687C21.0261 16.0819 21.3123 15.9898 21.5392 15.7892L21.7793 15.5721C21.947 15.4208 22.1608 15.3452 22.3845 15.3583C22.6081 15.3715 22.8153 15.4669 22.9633 15.6346C23.2725 15.9799 23.2462 16.5128 22.9008 16.8219C22.5555 17.1311 22.0227 17.1048 21.7135 16.7594L21.5227 16.9337C21.6806 17.1081 21.8845 17.2265 22.1115 17.2725C21.2465 17.4962 20.1019 17.6705 19.079 17.4337C19.1316 17.4468 19.1843 17.4567 19.2402 17.4666C19.8322 16.9601 20.1545 16.2135 20.1414 15.4504V15.4471ZM23.825 16.6772C23.6474 16.7529 23.4106 16.8515 23.1344 16.9502C23.3712 16.7035 23.4698 16.368 23.4271 16.0457C23.5915 16.2891 23.7264 16.5062 23.825 16.6739V16.6772ZM21.4603 14.8255C21.0458 15.036 20.5393 14.8715 20.3288 14.4571C20.2269 14.2565 20.2104 14.0296 20.2795 13.8158C20.342 13.6283 20.4637 13.4704 20.6281 13.3652C21.2267 13.6612 21.7661 14.1019 22.2167 14.5558C22.0556 14.5591 21.8944 14.5986 21.7464 14.6742L21.457 14.8222L21.4603 14.8255ZM20.1315 13.1646C20.2071 13.1909 20.2828 13.2172 20.3584 13.2468C20.2104 13.3751 20.0953 13.5428 20.0328 13.7368C19.9407 14.0164 19.9671 14.3124 20.0986 14.5755C20.3749 15.1149 21.036 15.332 21.5754 15.0557L21.8648 14.9077C22.0621 14.8058 22.2858 14.7893 22.4996 14.8551C22.6015 14.9669 22.6969 15.0788 22.7857 15.1873C22.664 15.1347 22.5325 15.1018 22.3943 15.0952C22.1016 15.0788 21.8188 15.1807 21.6017 15.3748L21.3616 15.5918C21.1478 15.7859 20.8617 15.8451 20.6018 15.7826L19.8585 14.3256C19.6875 13.9868 19.3915 13.7368 19.0297 13.6184C18.6679 13.5 18.2831 13.5329 17.9443 13.704C17.9048 13.7237 17.8654 13.7467 17.8292 13.7697C18.3949 13.1547 19.2862 12.8916 20.1282 13.1646H20.1315ZM17.2668 15.4866C17.2832 15.5293 17.303 15.5754 17.326 15.6181C17.497 15.9569 17.793 16.2069 18.1548 16.3253C18.5166 16.4437 18.9014 16.4108 19.2402 16.2398C19.5263 16.0951 19.75 15.8615 19.8848 15.5754C19.8618 16.2825 19.5165 16.9601 18.9212 17.3909C18.9738 17.4041 19.0264 17.4205 19.079 17.4304C18.9771 17.4074 18.8751 17.3778 18.7764 17.3482C17.9279 17.0719 17.3589 16.3253 17.2701 15.4899L17.2668 15.4866Z" fill="white"/>
<path d="M24.5901 8.93465C24.5901 8.93465 21.3307 7.27371 18.8739 8.07294C17.5155 8.51366 16.7722 9.97398 17.2129 11.3323C17.6536 12.6907 19.114 13.434 20.4723 12.9933C22.9325 12.194 24.5901 8.93794 24.5901 8.93794V8.93465ZM17.4859 11.2435C17.3905 10.9475 17.4135 10.6318 17.555 10.3555C17.6964 10.0792 17.9365 9.87202 18.2325 9.77664C18.5285 9.68126 18.8443 9.70428 19.1205 9.84571C19.3968 9.98713 19.604 10.2272 19.6994 10.5232C19.7948 10.8192 19.7718 11.135 19.6303 11.4113C19.4889 11.6875 19.2488 11.8948 18.9528 11.9901C18.6568 12.0855 18.341 12.0625 18.0648 11.9211C17.7885 11.7796 17.5813 11.5395 17.4859 11.2435ZM20.1237 10.3588L20.2223 10.4081L20.6762 10.6384L22.1398 11.385C22.2056 11.3192 22.2681 11.2567 22.3306 11.1909L20.9788 10.5035C21.2156 10.3489 21.3899 10.1088 21.4557 9.81282L21.5215 9.49707C21.5675 9.27671 21.6991 9.08924 21.8866 8.96754C22.0741 8.84585 22.301 8.80309 22.5181 8.84914C22.9719 8.94452 23.2614 9.39182 23.166 9.84571C23.0706 10.2996 22.6233 10.589 22.1694 10.4936L22.1168 10.7469C22.347 10.7962 22.5806 10.7699 22.7943 10.6745C22.2253 11.3652 21.4031 12.1776 20.4361 12.5887C20.4855 12.569 20.5348 12.546 20.5841 12.5229C20.765 11.7665 20.5874 10.9705 20.1303 10.3621L20.1237 10.3588ZM23.8271 9.18462C23.7284 9.35236 23.5936 9.56943 23.4291 9.81282C23.4752 9.47405 23.3568 9.14515 23.1364 8.90834C23.4127 9.0103 23.6495 9.10568 23.8271 9.18133V9.18462ZM20.8275 9.07937C20.617 9.49378 20.1105 9.65823 19.6961 9.44774C19.4955 9.34578 19.3475 9.17146 19.2784 8.95768C19.2159 8.7702 19.2225 8.56957 19.2948 8.38868C19.9526 8.27356 20.6499 8.31632 21.2814 8.41828C21.1531 8.51695 21.0479 8.64193 20.9722 8.78994L20.8242 9.07937H20.8275ZM18.7752 8.51695C18.8508 8.49064 18.9298 8.4709 19.0087 8.45117C18.9627 8.64522 18.9725 8.84585 19.035 9.0399C19.1271 9.31947 19.3212 9.54641 19.581 9.67797C20.1204 9.95424 20.7848 9.73717 21.0577 9.19777L21.2058 8.90834C21.3077 8.711 21.4787 8.563 21.6859 8.49393C21.834 8.52353 21.9754 8.55971 22.1135 8.5926C21.982 8.61891 21.857 8.67153 21.7419 8.74718C21.4952 8.90834 21.3274 9.15173 21.265 9.44116L21.1992 9.7569C21.14 10.0398 20.9426 10.2568 20.696 10.3588L19.2389 9.61548C18.9002 9.44445 18.5154 9.41156 18.1536 9.52996C17.7918 9.64837 17.4991 9.89833 17.3247 10.2371C17.305 10.2766 17.2853 10.316 17.2688 10.3588C17.3642 9.52996 17.9299 8.79323 18.7719 8.51695H18.7752ZM17.8214 12.0789C17.8608 12.1052 17.9036 12.1283 17.9464 12.1513C18.2851 12.3223 18.6699 12.3552 19.0317 12.2368C19.3935 12.1184 19.6862 11.8684 19.8606 11.5297C20.0053 11.2435 20.0513 10.9245 19.9888 10.612C20.3868 11.1975 20.5052 11.9507 20.275 12.6479C20.3276 12.6282 20.3769 12.6085 20.4263 12.5887C20.3309 12.6282 20.2322 12.6677 20.1335 12.6973C19.285 12.9735 18.3871 12.7006 17.8214 12.0789Z" fill="white"/>
<path d="M19.8898 2.46875C19.8898 2.46875 16.2785 3.04104 14.759 5.13284C13.9203 6.28728 14.1768 7.90546 15.3313 8.74416C16.4857 9.58285 18.1039 9.32631 18.9426 8.17187C20.4621 6.08007 19.8898 2.46875 19.8898 2.46875ZM15.499 8.51064C15.2491 8.32646 15.0813 8.05676 15.0353 7.75088C14.9859 7.445 15.0616 7.13584 15.2425 6.88587C15.4234 6.63591 15.6964 6.46817 16.0022 6.42213C16.3081 6.37608 16.6173 6.44844 16.8672 6.62933C17.1172 6.81023 17.285 7.08321 17.331 7.38909C17.3803 7.69497 17.3047 8.00413 17.1238 8.2541C16.9429 8.50406 16.6699 8.6718 16.364 8.71785C16.0582 8.76718 15.749 8.69153 15.499 8.51064ZM17.1139 6.24452L17.2225 6.22808L17.7257 6.14914L19.3472 5.8926C19.3636 5.80379 19.3768 5.7117 19.3866 5.6229L17.8868 5.85971C17.9888 5.59659 17.9888 5.29729 17.8638 5.02101L17.7323 4.725C17.6402 4.52108 17.6336 4.29086 17.7158 4.08365C17.798 3.87644 17.9526 3.7087 18.1598 3.61661C18.5841 3.42914 19.0807 3.61661 19.2682 4.04089C19.4557 4.46517 19.2682 4.96181 18.8439 5.14928L18.9492 5.38609C19.163 5.29071 19.3406 5.13284 19.4557 4.93221C19.3998 5.82353 19.2123 6.9681 18.6729 7.866C18.7025 7.81995 18.7288 7.77062 18.7551 7.72457C18.4558 7.00428 17.8474 6.46488 17.1172 6.24452H17.1139ZM19.4228 3.11997C19.4425 3.31402 19.459 3.56728 19.4688 3.86329C19.3077 3.56399 19.0183 3.36336 18.6992 3.30416C18.9821 3.22193 19.232 3.16273 19.4195 3.11997H19.4228ZM16.9297 4.79736C17.0021 5.25453 16.6896 5.68539 16.2325 5.75775C16.0121 5.79393 15.7885 5.73801 15.6076 5.60645C15.4464 5.49134 15.3346 5.3236 15.2885 5.13613C15.7523 4.65593 16.341 4.28099 16.9133 3.99156C16.8672 4.14614 16.8574 4.31059 16.8837 4.47504L16.933 4.79407L16.9297 4.79736ZM14.9399 5.54725C14.9859 5.48147 15.0386 5.41898 15.0879 5.35649C15.1635 5.53739 15.2885 5.69855 15.453 5.81695C15.6898 5.98798 15.9792 6.06034 16.2719 6.01429C16.8705 5.91891 17.2817 5.35649 17.1863 4.75789L17.1369 4.43886C17.1008 4.2185 17.1534 4.00142 17.2817 3.82053C17.4198 3.75804 17.5546 3.70212 17.6862 3.6495C17.5974 3.74817 17.525 3.86329 17.4757 3.99156C17.3705 4.26454 17.377 4.56384 17.4987 4.83354L17.6303 5.12955C17.7487 5.39267 17.7191 5.68539 17.5777 5.91233L15.9628 6.16887C15.5878 6.22808 15.2589 6.4287 15.0353 6.73787C14.8116 7.04704 14.7228 7.42198 14.782 7.79693C14.7886 7.83968 14.7985 7.88244 14.8083 7.9252C14.3972 7.19833 14.4202 6.26754 14.9432 5.55054L14.9399 5.54725ZM16.2621 8.99083C16.3081 8.99083 16.3575 8.98426 16.4035 8.97439C16.7784 8.91519 17.1073 8.71456 17.331 8.40539C17.5546 8.09951 17.6435 7.72128 17.5843 7.34633C17.5349 7.03059 17.3803 6.74445 17.1501 6.53066C17.8145 6.77076 18.3539 7.31016 18.5775 8.00742C18.6071 7.96138 18.6367 7.91533 18.6663 7.86929C18.6137 7.95809 18.5545 8.04689 18.492 8.12912C17.9658 8.8527 17.081 9.15857 16.2588 8.98754L16.2621 8.99083Z" fill="white"/>
<path d="M31.9556 20.3736C31.436 20.3736 31.2682 20.6828 31.1729 21.2518L30.2487 21.1334C30.1072 19.2389 29.9165 17.7227 29.4922 15.8282L30.3934 15.5191C31.0808 17.4135 32.7154 19.9954 35.5341 19.9954C37.4516 19.9954 38.708 18.8344 38.708 17.3675C38.708 15.3776 36.5537 14.4534 34.4454 13.5555C32.1004 12.5623 30.2519 11.4012 30.2519 9.05618C30.2519 6.14213 32.8338 5.17188 34.7283 5.17188C36.2905 5.17188 37.3792 5.95466 38.0436 5.95466C38.4218 5.95466 38.708 5.6718 38.8264 5.19819L39.6782 5.29357C39.7243 7.0466 39.7966 8.41812 39.892 9.60216L38.9908 9.91132C38.708 7.80307 36.9549 6.30987 34.7743 6.30987C33.0443 6.30987 32.1925 7.06634 32.1925 8.6319C32.1925 9.93434 32.8305 10.5724 35.1065 11.592C39.4875 13.5588 40.5761 14.5751 40.5761 16.6834C40.5761 19.2422 38.5172 21.1367 35.7676 21.1367C34.0146 21.1367 32.7845 20.3802 31.9556 20.3802V20.3736Z" fill="white"/>
<path d="M41.4297 15.4261C41.4297 11.9464 43.7978 9.43359 46.7579 9.43359C49.4351 9.43359 52.04 11.5188 52.04 15.1893C52.04 18.6691 49.6719 21.1589 46.7118 21.1589C44.0346 21.1589 41.4297 19.1 41.4297 15.4261ZM46.8302 20.0669C48.6293 20.0669 49.8133 18.3139 49.8133 15.5446C49.8133 12.7752 48.7017 10.5223 46.7348 10.5223C45.0311 10.5223 43.6563 12.2523 43.6563 15.14C43.6563 17.8172 44.8174 20.0669 46.8302 20.0669Z" fill="white"/>
<path d="M52.7489 19.7356L54.2881 19.5711C54.4526 19.5481 54.4789 19.5251 54.4789 19.3113C54.5513 17.5352 54.5513 16.7064 54.5513 15.8776V8.72399C54.5513 7.42155 54.5546 8.72399 54.5085 7.73072C54.4855 7.35248 54.4625 7.30315 54.3901 7.28012L52.8969 6.73415V6.04675L56.5444 5.17188V17.18C56.5411 19.4297 56.6825 19.6204 57.3699 19.7158L58.3172 19.8573L58.3402 20.6861H52.6798C52.6075 20.4723 52.5844 20.0941 52.7522 19.7388L52.7489 19.7356Z" fill="white"/>
<path d="M59.2834 19.7347L60.8227 19.5703C60.9871 19.5473 61.0134 19.5242 61.0134 19.3105C61.0858 17.5344 61.0858 16.7056 61.0858 15.8767V14.9295C61.0858 13.6271 61.0858 13.2258 61.0398 12.2292C61.0167 11.851 60.9937 11.8017 60.9214 11.7786L59.4281 11.2327V10.5453L63.0526 9.6704V11.9431H63.171C63.8815 10.5453 65.0885 9.43359 66.414 9.43359C67.3152 9.43359 67.8809 9.93023 67.8809 10.4532C67.8809 10.9038 67.3119 11.8971 66.7692 11.8971C66.3186 11.8971 65.7759 11.2097 65.253 11.2097C64.6149 11.2097 63.6677 12.2523 63.0493 13.1765V17.1792C63.0493 19.4289 63.1908 19.6196 63.8782 19.715L65.0622 19.8564L65.0852 20.6853H59.2111C59.1387 20.4715 59.1157 20.0932 59.2834 19.738V19.7347Z" fill="white"/>
<path d="M68.3739 19.7362L69.9131 19.5717C70.0776 19.5487 70.1039 19.5257 70.1039 19.3119C70.1763 17.5359 70.1763 16.707 70.1763 15.8782V14.931C70.1763 13.6285 70.1763 13.2273 70.1302 12.2307C70.1072 11.8525 70.0842 11.8031 70.0118 11.7801L68.5186 11.2341V10.5467L72.1431 9.67186V17.1806C72.1431 19.4303 72.2845 19.6211 72.9719 19.7165L73.9191 19.8579L73.9422 20.6867H68.3048C68.2325 20.4729 68.2094 20.0947 68.3772 19.7395L68.3739 19.7362ZM70.9327 3.84375C71.7616 3.84375 72.518 4.50813 72.518 5.45536C72.518 6.33023 71.8076 7.04066 70.9327 7.04066C70.0579 7.04066 69.3211 6.30721 69.3211 5.45536C69.3211 4.60351 70.0546 3.84375 70.9327 3.84375Z" fill="white"/>
<path d="M74.6797 15.4261C74.6797 11.9464 77.0478 9.43359 80.0079 9.43359C82.6851 9.43359 85.29 11.5188 85.29 15.1893C85.29 18.6691 82.9219 21.1589 79.9618 21.1589C77.2846 21.1589 74.6797 19.1 74.6797 15.4261ZM80.0769 20.0669C81.876 20.0669 83.0601 18.3139 83.0601 15.5446C83.0601 12.7752 81.9484 10.5223 79.9816 10.5223C78.2779 10.5223 76.9031 12.2523 76.9031 15.14C76.9031 17.8172 78.0641 20.0669 80.0769 20.0669Z" fill="white"/>
<path d="M84.1875 7.21373C84.1875 6.09218 85.1117 5.16797 86.2333 5.16797C87.3548 5.16797 88.279 6.09218 88.279 7.21373C88.279 8.33527 87.3548 9.25948 86.2333 9.25948C85.1117 9.25948 84.1875 8.33527 84.1875 7.21373ZM86.23 8.82205C87.1048 8.82205 87.8416 8.0886 87.8416 7.21044C87.8416 6.33227 87.1081 5.59883 86.23 5.59883C85.3518 5.59883 84.6184 6.33227 84.6184 7.21044C84.6184 8.0886 85.3518 8.82205 86.23 8.82205ZM85.411 7.86824L85.6807 7.83535C85.6873 7.7005 85.6873 7.56565 85.6873 7.44067V6.81576C85.6873 6.46712 85.6643 6.43752 85.5919 6.42765L85.411 6.39477V6.26978H85.98L86.4141 6.2632C86.8154 6.2632 87.0127 6.40463 87.0127 6.65788C87.0127 6.91114 86.8088 7.11506 86.4832 7.18741C86.6641 7.20386 86.7431 7.26635 86.8615 7.45711C87.0818 7.81232 87.1377 7.87481 87.2627 7.87481H87.3088L87.3252 8.01624H86.7003C86.6378 7.89784 86.5983 7.79588 86.5194 7.62814C86.3385 7.26635 86.276 7.23346 86.0688 7.21044H86.0622V7.47027C86.0622 7.8189 86.0852 7.8485 86.1576 7.85837L86.3385 7.89126V8.01624H85.3978C85.3814 7.98335 85.3814 7.92086 85.4044 7.86495L85.411 7.86824ZM86.151 7.0723C86.2859 7.0723 86.5918 7.0723 86.5918 6.74011C86.5918 6.50988 86.4405 6.43094 86.2925 6.43094H86.0622V7.06901H86.1477L86.151 7.0723Z" fill="white"/>
</g>
<defs>
<clipPath id="svg940626830_32676_clip0_1151_1178">
<rect width="91" height="25.8548" fill="white"/>
</clipPath>
</defs>
</svg>