<svg xmlns="http://www.w3.org/2000/svg" xmlns:xlink="http://www.w3.org/1999/xlink" style="width:100%;height:100%;" viewBox="0 0 23 24">
<path d="M21.323 11.6697C21.304 10.9947 21.098 10.3367 20.727 9.77068C20.357 9.20668 19.836 8.75468 19.224 8.46868C19.457 7.83368 19.506 7.14668 19.37 6.48568C19.233 5.82268 18.913 5.21168 18.448 4.72168C17.957 4.25668 17.347 3.93768 16.684 3.79968C16.023 3.66368 15.336 3.71268 14.701 3.94568C14.416 3.33168 13.965 2.81068 13.4 2.44068C12.834 2.07068 12.176 1.86368 11.5 1.84668C10.825 1.86468 10.169 2.06968 9.605 2.44068C9.04 2.81168 8.592 3.33368 8.308 3.94568C7.673 3.71268 6.984 3.66168 6.32 3.79968C5.656 3.93568 5.044 4.25568 4.553 4.72168C4.088 5.21268 3.77 5.82468 3.635 6.48668C3.499 7.14768 3.551 7.83468 3.786 8.46868C3.172 8.75468 2.649 9.20568 2.277 9.76968C1.905 10.3347 1.697 10.9937 1.677 11.6697C1.698 12.3457 1.905 13.0037 2.277 13.5697C2.649 14.1337 3.172 14.5857 3.786 14.8707C3.551 15.5047 3.499 16.1917 3.635 16.8527C3.771 17.5157 4.088 18.1267 4.552 18.6177C5.043 19.0807 5.654 19.3987 6.316 19.5357C6.977 19.6737 7.664 19.6237 8.299 19.3937C8.585 20.0057 9.036 20.5267 9.601 20.8977C10.166 21.2677 10.825 21.4737 11.5 21.4927C12.176 21.4757 12.834 21.2697 13.4 20.8997C13.965 20.5297 14.416 20.0067 14.701 19.3947C15.333 19.6447 16.025 19.7037 16.691 19.5657C17.356 19.4277 17.966 19.0987 18.447 18.6177C18.928 18.1367 19.258 17.5267 19.396 16.8607C19.534 16.1947 19.475 15.5027 19.224 14.8707C19.836 14.5847 20.357 14.1337 20.728 13.5687C21.098 13.0037 21.304 12.3447 21.323 11.6697ZM10.101 15.6947L6.516 12.1107L7.868 10.7497L10.034 12.9157L14.634 7.90368L16.042 9.20668L10.101 15.6947Z" fill="white"/>
<path d="M8 10.6697L6.5 12.1697L10 15.6697L16 9.16968L14.5 7.66968L10 12.6697L8 10.6697Z" fill="#692083"/>
</svg>