<svg xmlns="http://www.w3.org/2000/svg" xmlns:xlink="http://www.w3.org/1999/xlink" style="width:100%;height:100%;" viewBox="0 0 25 30">
<path d="M9.36445 25.3789C9.36445 25.3789 9.31001 25.6505 9.60295 25.8135L9.26465 25.7424L9.36316 25.3802L9.36445 25.3789Z" fill="#C89645"/>
<path d="M10.4504 1.40752L20.1352 0.949378C22.6728 0.829862 24.7974 2.85043 24.7974 5.38642V22.7499C24.7974 25.688 22.3047 28.0123 19.3667 27.8119L9.03818 27.1085C7.44629 27.0002 6.20996 25.6793 6.20996 24.087V5.84457C6.20996 3.47291 8.07631 1.51957 10.4504 1.40752Z" fill="white"/>
<g filter="url(#svg-443059062_17533_filter0_ii_85_3021)">
<path d="M24.8035 16.8262C24.8035 16.8262 2.61068 25.1213 1.72117 25.5807C0.800473 25.816 0.429948 27.188 1.50909 27.6349C1.6563 27.6959 1.81474 27.7258 1.97443 27.737L21.2804 29.0604C21.2804 29.0604 22.4431 29.0953 23.0682 28.1205L23.798 27.2614C24.4467 26.497 24.8035 25.5272 24.8035 24.525V16.8262Z" fill="white"/>
</g>
<path d="M24.812 23.3037L9.98893 22.376C9.97752 22.376 8.95323 22.7816 8.95323 22.7816L10.7673 22.8906C10.8548 22.8956 10.8763 23.016 10.7952 23.0503L4.95853 25.5104C4.67077 25.6334 4.74303 26.0592 5.05361 26.0808C5.53533 26.115 6.01705 26.0276 6.45567 25.8273L8.9583 24.6954C8.97097 24.6903 8.98492 24.6878 8.99886 24.6878L18.7486 25.3291C18.826 25.3342 18.8551 25.4343 18.7917 25.48L17.6144 26.2924C17.3431 26.4876 17.4648 26.9147 17.7982 26.9375L18.1785 26.9641C18.6437 26.9971 19.1052 26.8526 19.469 26.5598L22.8407 23.8526C23.0068 23.7182 23.2185 23.651 23.4315 23.665L24.8056 23.7499L24.812 23.3025V23.3037ZM19.7514 24.7651L10.4935 24.1707C10.4073 24.1656 10.3857 24.0477 10.4643 24.0122L12.3836 23.139C12.5725 23.0528 12.7791 23.0148 12.9858 23.0274L21.2396 23.5332C21.3182 23.5382 21.3474 23.6384 21.2827 23.684L19.8046 24.7512C19.7894 24.7626 19.7704 24.7676 19.7501 24.7664L19.7514 24.7651Z" fill="white"/>
<g style="mix-blend-mode:multiply" opacity="0.69" filter="url(#svg-443059062_17533_filter1_f_85_3021)">
<ellipse cx="18.1379" cy="24.6461" rx="1.45113" ry="0.458568" fill="white"/>
</g>
<g style="mix-blend-mode:multiply" opacity="0.69" filter="url(#svg-443059062_17533_filter2_f_85_3021)">
<ellipse cx="14.6787" cy="24.4283" rx="1.45113" ry="0.458568" fill="white"/>
</g>
<g style="mix-blend-mode:multiply" opacity="0.69" filter="url(#svg-443059062_17533_filter3_f_85_3021)">
<ellipse cx="11.2194" cy="24.2095" rx="1.45113" ry="0.458568" fill="white"/>
</g>
<g filter="url(#svg-443059062_17533_filter4_i_85_3021)">
<path d="M12.3644 8.00861C12.3644 7.74468 12.2933 7.5293 12.2047 7.5293C12.2022 7.5293 12.2032 7.52929 12.2003 7.52931L12.1985 7.5293L11.206 7.53675C11.1212 7.53675 10.9495 7.67731 10.9738 8.02726C10.9738 8.28124 11.1149 8.4879 11.1998 8.4879L12.2072 8.48792C12.2946 8.48045 12.3644 8.27005 12.3644 8.00861Z" fill="#111111"/>
</g>
<g filter="url(#svg-443059062_17533_filter5_ii_85_3021)">
<path d="M13.7588 7.07422H12.1207C11.9548 7.07422 11.8201 7.47634 11.8201 7.97184C11.8201 8.46733 11.9548 8.86945 12.1207 8.86945H13.7588C13.9247 8.86945 14.0594 8.46733 14.0594 7.97184C14.0594 7.47634 13.9247 7.07422 13.7588 7.07422Z" fill="#111111"/>
</g>
<g filter="url(#svg-443059062_17533_filter6_dii_85_3021)">
<path d="M15.631 7.98289C15.631 7.71107 15.5059 7.48926 15.35 7.48926C15.3456 7.48926 15.3473 7.48925 15.3422 7.48927L15.339 7.48926L14.0184 7.49693C13.8691 7.49693 13.6523 7.74054 13.6523 8.0021C13.6523 8.26365 13.8582 8.47649 14.0074 8.47649L15.3544 8.47651C15.5081 8.46882 15.631 8.25214 15.631 7.98289Z" fill="#111111"/>
</g>
<g filter="url(#svg-443059062_17533_filter7_ii_85_3021)">
<path d="M17.238 7.0498H15.6C15.4341 7.0498 15.2993 7.45193 15.2993 7.94742C15.2993 8.44292 15.4341 8.84504 15.6 8.84504H17.238C17.404 8.84504 17.5387 8.44292 17.5387 7.94742C17.5387 7.45193 17.404 7.0498 17.238 7.0498Z" fill="#111111"/>
</g>
<g filter="url(#svg-443059062_17533_filter8_dii_85_3021)">
<path d="M18.266 7.96369C18.266 7.69976 18.1949 7.48438 18.1063 7.48438C18.1038 7.48438 18.1048 7.48436 18.1018 7.48439L18.1 7.48438L17.3494 7.49183C17.2646 7.49183 17.1414 7.72837 17.1414 7.98234C17.1414 8.23631 17.2583 8.44298 17.3432 8.44298L18.1088 8.443C18.1961 8.43553 18.266 8.22513 18.266 7.96369Z" fill="#111111"/>
</g>
<g filter="url(#svg-443059062_17533_filter9_ii_85_3021)">
<path d="M12.2207 23.985V9.20859C12.2207 8.63466 11.7379 8.17403 11.1553 8.20889C10.6188 8.24126 10.2134 8.71185 10.2134 9.24843V23.9801C10.2184 24.066 10.2508 24.2427 10.4392 24.3486C10.6238 24.4357 10.9033 24.4917 11.2177 24.4917C11.5321 24.4917 11.814 24.4357 11.9986 24.3486C12.1808 24.2452 12.2157 24.0734 12.222 23.9863L12.2207 23.985Z" fill="#0E0E0E"/>
</g>
<g filter="url(#svg-443059062_17533_filter10_ii_85_3021)">
<path d="M15.4148 24.5577C15.6007 24.4531 15.6344 24.2775 15.6407 24.1916V9.1438C15.6407 8.59103 15.1915 8.1416 14.6364 8.1416C14.0812 8.1416 13.6321 8.58979 13.6321 9.1438V24.1916C13.6371 24.2775 13.672 24.4531 13.8579 24.5577H13.8529C14.0363 24.6448 14.3195 24.7021 14.6364 24.7021C14.9532 24.7021 15.2364 24.6448 15.4198 24.5564H15.4148V24.5577Z" fill="#0E0E0E"/>
</g>
<g filter="url(#svg-443059062_17533_filter11_ii_85_3021)">
<path d="M19.1299 24.4006V9.09008C19.1299 8.53732 18.6808 8.08789 18.1256 8.08789C17.5705 8.08789 17.1213 8.53608 17.1213 9.09008V24.4019C17.1251 24.4728 17.15 24.6035 17.2623 24.7069C17.437 24.8202 17.7576 24.8974 18.1256 24.8974C18.4937 24.8974 18.8143 24.8214 18.9889 24.7069C19.1012 24.6035 19.1249 24.4728 19.1299 24.4019V24.4006Z" fill="#0E0E0E"/>
</g>
<defs>
<filter id="svg-443059062_17533_filter0_ii_85_3021" x="0.849609" y="15.5307" width="24.0978" height="14.0097" filterUnits="userSpaceOnUse" color-interpolation-filters="sRGB">
<feFlood flood-opacity="0" result="BackgroundImageFix"/>
<feBlend mode="normal" in="SourceGraphic" in2="BackgroundImageFix" result="shape"/>
<feColorMatrix in="SourceAlpha" type="matrix" values="0 0 0 0 0 0 0 0 0 0 0 0 0 0 0 0 0 0 127 0" result="hardAlpha"/>
<feOffset dx="0.119952" dy="-1.67933"/>
<feGaussianBlur stdDeviation="0.647742"/>
<feComposite in2="hardAlpha" operator="arithmetic" k2="-1" k3="1"/>
<feColorMatrix type="matrix" values="0 0 0 0 1 0 0 0 0 1 0 0 0 0 1 0 0 0 1 0"/>
<feBlend mode="normal" in2="shape" result="effect1_innerShadow_85_3021"/>
<feColorMatrix in="SourceAlpha" type="matrix" values="0 0 0 0 0 0 0 0 0 0 0 0 0 0 0 0 0 0 127 0" result="hardAlpha"/>
<feOffset dx="0.143943" dy="0.479809"/>
<feGaussianBlur stdDeviation="1.69133"/>
<feComposite in2="hardAlpha" operator="arithmetic" k2="-1" k3="1"/>
<feColorMatrix type="matrix" values="0 0 0 0 1 0 0 0 0 1 0 0 0 0 1 0 0 0 1 0"/>
<feBlend mode="normal" in2="effect1_innerShadow_85_3021" result="effect2_innerShadow_85_3021"/>
</filter>
<filter id="svg-443059062_17533_filter1_f_85_3021" x="15.7991" y="23.2999" width="4.67764" height="2.69228" filterUnits="userSpaceOnUse" color-interpolation-filters="sRGB">
<feFlood flood-opacity="0" result="BackgroundImageFix"/>
<feBlend mode="normal" in="SourceGraphic" in2="BackgroundImageFix" result="shape"/>
<feGaussianBlur stdDeviation="0.443823" result="effect1_foregroundBlur_85_3021"/>
</filter>
<filter id="svg-443059062_17533_filter2_f_85_3021" x="12.3399" y="23.0821" width="4.67764" height="2.69228" filterUnits="userSpaceOnUse" color-interpolation-filters="sRGB">
<feFlood flood-opacity="0" result="BackgroundImageFix"/>
<feBlend mode="normal" in="SourceGraphic" in2="BackgroundImageFix" result="shape"/>
<feGaussianBlur stdDeviation="0.443823" result="effect1_foregroundBlur_85_3021"/>
</filter>
<filter id="svg-443059062_17533_filter3_f_85_3021" x="8.88066" y="22.8633" width="4.67764" height="2.69228" filterUnits="userSpaceOnUse" color-interpolation-filters="sRGB">
<feFlood flood-opacity="0" result="BackgroundImageFix"/>
<feBlend mode="normal" in="SourceGraphic" in2="BackgroundImageFix" result="shape"/>
<feGaussianBlur stdDeviation="0.443823" result="effect1_foregroundBlur_85_3021"/>
</filter>
<filter id="svg-443059062_17533_filter4_i_85_3021" x="10.9714" y="7.48132" width="1.58499" height="1.00697" filterUnits="userSpaceOnUse" color-interpolation-filters="sRGB">
<feFlood flood-opacity="0" result="BackgroundImageFix"/>
<feBlend mode="normal" in="SourceGraphic" in2="BackgroundImageFix" result="shape"/>
<feColorMatrix in="SourceAlpha" type="matrix" values="0 0 0 0 0 0 0 0 0 0 0 0 0 0 0 0 0 0 127 0" result="hardAlpha"/>
<feOffset dx="0.191923" dy="-0.0479809"/>
<feGaussianBlur stdDeviation="0.383847"/>
<feComposite in2="hardAlpha" operator="arithmetic" k2="-1" k3="1"/>
<feColorMatrix type="matrix" values="0 0 0 0 1 0 0 0 0 1 0 0 0 0 1 0 0 0 0.25 0"/>
<feBlend mode="normal" in2="shape" result="effect1_innerShadow_85_3021"/>
</filter>
<filter id="svg-443059062_17533_filter5_ii_85_3021" x="11.2923" y="6.71436" width="3.05493" height="2.44266" filterUnits="userSpaceOnUse" color-interpolation-filters="sRGB">
<feFlood flood-opacity="0" result="BackgroundImageFix"/>
<feBlend mode="normal" in="SourceGraphic" in2="BackgroundImageFix" result="shape"/>
<feColorMatrix in="SourceAlpha" type="matrix" values="0 0 0 0 0 0 0 0 0 0 0 0 0 0 0 0 0 0 127 0" result="hardAlpha"/>
<feOffset dx="0.287885" dy="0.287885"/>
<feGaussianBlur stdDeviation="0.383847"/>
<feComposite in2="hardAlpha" operator="arithmetic" k2="-1" k3="1"/>
<feColorMatrix type="matrix" values="0 0 0 0 1 0 0 0 0 1 0 0 0 0 1 0 0 0 0.25 0"/>
<feBlend mode="normal" in2="shape" result="effect1_innerShadow_85_3021"/>
<feColorMatrix in="SourceAlpha" type="matrix" values="0 0 0 0 0 0 0 0 0 0 0 0 0 0 0 0 0 0 127 0" result="hardAlpha"/>
<feOffset dx="-0.52779" dy="-0.359857"/>
<feGaussianBlur stdDeviation="0.455818"/>
<feComposite in2="hardAlpha" operator="arithmetic" k2="-1" k3="1"/>
<feColorMatrix type="matrix" values="0 0 0 0 0.114479 0 0 0 0 0.143299 0 0 0 0 0.175 0 0 0 1 0"/>
<feBlend mode="normal" in2="effect1_innerShadow_85_3021" result="effect2_innerShadow_85_3021"/>
</filter>
<filter id="svg-443059062_17533_filter6_dii_85_3021" x="13.1246" y="7.22536" width="2.79419" height="1.89894" filterUnits="userSpaceOnUse" color-interpolation-filters="sRGB">
<feFlood flood-opacity="0" result="BackgroundImageFix"/>
<feColorMatrix in="SourceAlpha" type="matrix" values="0 0 0 0 0 0 0 0 0 0 0 0 0 0 0 0 0 0 127 0" result="hardAlpha"/>
<feOffset dx="-0.119952" dy="0.239904"/>
<feGaussianBlur stdDeviation="0.203919"/>
<feComposite in2="hardAlpha" operator="out"/>
<feColorMatrix type="matrix" values="0 0 0 0 0 0 0 0 0 0 0 0 0 0 0 0 0 0 1 0"/>
<feBlend mode="normal" in2="BackgroundImageFix" result="effect1_dropShadow_85_3021"/>
<feBlend mode="normal" in="SourceGraphic" in2="effect1_dropShadow_85_3021" result="shape"/>
<feColorMatrix in="SourceAlpha" type="matrix" values="0 0 0 0 0 0 0 0 0 0 0 0 0 0 0 0 0 0 127 0" result="hardAlpha"/>
<feOffset dx="-0.119952" dy="0.239904"/>
<feGaussianBlur stdDeviation="0.0959617"/>
<feComposite in2="hardAlpha" operator="arithmetic" k2="-1" k3="1"/>
<feColorMatrix type="matrix" values="0 0 0 0 0.254167 0 0 0 0 0.254167 0 0 0 0 0.254167 0 0 0 1 0"/>
<feBlend mode="normal" in2="shape" result="effect2_innerShadow_85_3021"/>
<feColorMatrix in="SourceAlpha" type="matrix" values="0 0 0 0 0 0 0 0 0 0 0 0 0 0 0 0 0 0 127 0" result="hardAlpha"/>
<feOffset dx="0.143943" dy="-0.263895"/>
<feGaussianBlur stdDeviation="0.167933"/>
<feComposite in2="hardAlpha" operator="arithmetic" k2="-1" k3="1"/>
<feColorMatrix type="matrix" values="0 0 0 0 0.103056 0 0 0 0 0.109503 0 0 0 0 0.116667 0 0 0 1 0"/>
<feBlend mode="normal" in2="effect2_innerShadow_85_3021" result="effect3_innerShadow_85_3021"/>
</filter>
<filter id="svg-443059062_17533_filter7_ii_85_3021" x="14.7715" y="6.68995" width="3.05493" height="2.44266" filterUnits="userSpaceOnUse" color-interpolation-filters="sRGB">
<feFlood flood-opacity="0" result="BackgroundImageFix"/>
<feBlend mode="normal" in="SourceGraphic" in2="BackgroundImageFix" result="shape"/>
<feColorMatrix in="SourceAlpha" type="matrix" values="0 0 0 0 0 0 0 0 0 0 0 0 0 0 0 0 0 0 127 0" result="hardAlpha"/>
<feOffset dx="0.287885" dy="0.287885"/>
<feGaussianBlur stdDeviation="0.383847"/>
<feComposite in2="hardAlpha" operator="arithmetic" k2="-1" k3="1"/>
<feColorMatrix type="matrix" values="0 0 0 0 1 0 0 0 0 1 0 0 0 0 1 0 0 0 0.25 0"/>
<feBlend mode="normal" in2="shape" result="effect1_innerShadow_85_3021"/>
<feColorMatrix in="SourceAlpha" type="matrix" values="0 0 0 0 0 0 0 0 0 0 0 0 0 0 0 0 0 0 127 0" result="hardAlpha"/>
<feOffset dx="-0.52779" dy="-0.359857"/>
<feGaussianBlur stdDeviation="0.455818"/>
<feComposite in2="hardAlpha" operator="arithmetic" k2="-1" k3="1"/>
<feColorMatrix type="matrix" values="0 0 0 0 0.0684722 0 0 0 0 0.103327 0 0 0 0 0.141667 0 0 0 1 0"/>
<feBlend mode="normal" in2="effect1_innerShadow_85_3021" result="effect2_innerShadow_85_3021"/>
</filter>
<filter id="svg-443059062_17533_filter8_dii_85_3021" x="16.6136" y="7.22048" width="1.94019" height="1.87062" filterUnits="userSpaceOnUse" color-interpolation-filters="sRGB">
<feFlood flood-opacity="0" result="BackgroundImageFix"/>
<feColorMatrix in="SourceAlpha" type="matrix" values="0 0 0 0 0 0 0 0 0 0 0 0 0 0 0 0 0 0 127 0" result="hardAlpha"/>
<feOffset dx="-0.119952" dy="0.239904"/>
<feGaussianBlur stdDeviation="0.203919"/>
<feComposite in2="hardAlpha" operator="out"/>
<feColorMatrix type="matrix" values="0 0 0 0 0 0 0 0 0 0 0 0 0 0 0 0 0 0 1 0"/>
<feBlend mode="normal" in2="BackgroundImageFix" result="effect1_dropShadow_85_3021"/>
<feBlend mode="normal" in="SourceGraphic" in2="effect1_dropShadow_85_3021" result="shape"/>
<feColorMatrix in="SourceAlpha" type="matrix" values="0 0 0 0 0 0 0 0 0 0 0 0 0 0 0 0 0 0 127 0" result="hardAlpha"/>
<feOffset dx="-0.119952" dy="0.239904"/>
<feGaussianBlur stdDeviation="0.0959617"/>
<feComposite in2="hardAlpha" operator="arithmetic" k2="-1" k3="1"/>
<feColorMatrix type="matrix" values="0 0 0 0 0.254167 0 0 0 0 0.254167 0 0 0 0 0.254167 0 0 0 1 0"/>
<feBlend mode="normal" in2="shape" result="effect2_innerShadow_85_3021"/>
<feColorMatrix in="SourceAlpha" type="matrix" values="0 0 0 0 0 0 0 0 0 0 0 0 0 0 0 0 0 0 127 0" result="hardAlpha"/>
<feOffset dx="0.143943" dy="-0.263895"/>
<feGaussianBlur stdDeviation="0.167933"/>
<feComposite in2="hardAlpha" operator="arithmetic" k2="-1" k3="1"/>
<feColorMatrix type="matrix" values="0 0 0 0 0.103056 0 0 0 0 0.109503 0 0 0 0 0.116667 0 0 0 1 0"/>
<feBlend mode="normal" in2="effect2_innerShadow_85_3021" result="effect3_innerShadow_85_3021"/>
</filter>
<filter id="svg-443059062_17533_filter9_ii_85_3021" x="9.75756" y="7.75121" width="2.65629" height="16.741" filterUnits="userSpaceOnUse" color-interpolation-filters="sRGB">
<feFlood flood-opacity="0" result="BackgroundImageFix"/>
<feBlend mode="normal" in="SourceGraphic" in2="BackgroundImageFix" result="shape"/>
<feColorMatrix in="SourceAlpha" type="matrix" values="0 0 0 0 0 0 0 0 0 0 0 0 0 0 0 0 0 0 127 0" result="hardAlpha"/>
<feOffset dx="0.191923" dy="-0.0479809"/>
<feGaussianBlur stdDeviation="0.383847"/>
<feComposite in2="hardAlpha" operator="arithmetic" k2="-1" k3="1"/>
<feColorMatrix type="matrix" values="0 0 0 0 1 0 0 0 0 1 0 0 0 0 1 0 0 0 0.59 0"/>
<feBlend mode="normal" in2="shape" result="effect1_innerShadow_85_3021"/>
<feColorMatrix in="SourceAlpha" type="matrix" values="0 0 0 0 0 0 0 0 0 0 0 0 0 0 0 0 0 0 127 0" result="hardAlpha"/>
<feOffset dx="-0.455818" dy="-0.455818"/>
<feGaussianBlur stdDeviation="0.52779"/>
<feComposite in2="hardAlpha" operator="arithmetic" k2="-1" k3="1"/>
<feColorMatrix type="matrix" values="0 0 0 0 0.102569 0 0 0 0 0.108977 0 0 0 0 0.116667 0 0 0 1 0"/>
<feBlend mode="normal" in2="effect1_innerShadow_85_3021" result="effect2_innerShadow_85_3021"/>
</filter>
<filter id="svg-443059062_17533_filter10_ii_85_3021" x="13.1763" y="7.68578" width="2.65629" height="17.0164" filterUnits="userSpaceOnUse" color-interpolation-filters="sRGB">
<feFlood flood-opacity="0" result="BackgroundImageFix"/>
<feBlend mode="normal" in="SourceGraphic" in2="BackgroundImageFix" result="shape"/>
<feColorMatrix in="SourceAlpha" type="matrix" values="0 0 0 0 0 0 0 0 0 0 0 0 0 0 0 0 0 0 127 0" result="hardAlpha"/>
<feOffset dx="0.191923" dy="-0.0479809"/>
<feGaussianBlur stdDeviation="0.383847"/>
<feComposite in2="hardAlpha" operator="arithmetic" k2="-1" k3="1"/>
<feColorMatrix type="matrix" values="0 0 0 0 1 0 0 0 0 1 0 0 0 0 1 0 0 0 0.59 0"/>
<feBlend mode="normal" in2="shape" result="effect1_innerShadow_85_3021"/>
<feColorMatrix in="SourceAlpha" type="matrix" values="0 0 0 0 0 0 0 0 0 0 0 0 0 0 0 0 0 0 127 0" result="hardAlpha"/>
<feOffset dx="-0.455818" dy="-0.455818"/>
<feGaussianBlur stdDeviation="0.52779"/>
<feComposite in2="hardAlpha" operator="arithmetic" k2="-1" k3="1"/>
<feColorMatrix type="matrix" values="0 0 0 0 0.101961 0 0 0 0 0.109804 0 0 0 0 0.117647 0 0 0 1 0"/>
<feBlend mode="normal" in2="effect1_innerShadow_85_3021" result="effect2_innerShadow_85_3021"/>
</filter>
<filter id="svg-443059062_17533_filter11_ii_85_3021" x="16.6655" y="7.63207" width="2.65629" height="17.2654" filterUnits="userSpaceOnUse" color-interpolation-filters="sRGB">
<feFlood flood-opacity="0" result="BackgroundImageFix"/>
<feBlend mode="normal" in="SourceGraphic" in2="BackgroundImageFix" result="shape"/>
<feColorMatrix in="SourceAlpha" type="matrix" values="0 0 0 0 0 0 0 0 0 0 0 0 0 0 0 0 0 0 127 0" result="hardAlpha"/>
<feOffset dx="0.191923" dy="-0.0479809"/>
<feGaussianBlur stdDeviation="0.383847"/>
<feComposite in2="hardAlpha" operator="arithmetic" k2="-1" k3="1"/>
<feColorMatrix type="matrix" values="0 0 0 0 1 0 0 0 0 1 0 0 0 0 1 0 0 0 0.59 0"/>
<feBlend mode="normal" in2="shape" result="effect1_innerShadow_85_3021"/>
<feColorMatrix in="SourceAlpha" type="matrix" values="0 0 0 0 0 0 0 0 0 0 0 0 0 0 0 0 0 0 127 0" result="hardAlpha"/>
<feOffset dx="-0.455818" dy="-0.455818"/>
<feGaussianBlur stdDeviation="0.52779"/>
<feComposite in2="hardAlpha" operator="arithmetic" k2="-1" k3="1"/>
<feColorMatrix type="matrix" values="0 0 0 0 0.101961 0 0 0 0 0.109804 0 0 0 0 0.117647 0 0 0 1 0"/>
<feBlend mode="normal" in2="effect1_innerShadow_85_3021" result="effect2_innerShadow_85_3021"/>
</filter>
</defs>
</svg>