<svg xmlns="http://www.w3.org/2000/svg" xmlns:xlink="http://www.w3.org/1999/xlink" style="width:100%;height:100%;" viewBox="0 0 155 67">
<rect width="154.85" height="67" rx="12" fill="#1C0C28"/>
<path fill-rule="evenodd" clip-rule="evenodd" d="M34.7827 34.9801C34.8208 34.647 34.8408 34.3082 34.8408 33.9647C34.8399 29.1165 30.9143 25.1855 26.0708 25.1855C26.0613 25.1855 26.0517 25.1855 26.0422 25.1855L34.7827 34.9801ZM33.8504 38.0216L26.0422 29.2711L18.2693 37.9806C18.6592 38.7383 19.1558 39.4322 19.7402 40.041L26.0413 32.9798L32.37 40.0725C32.9562 39.4665 33.4557 38.7765 33.8494 38.0216H33.8504ZM17.3523 34.9228C17.3179 34.6079 17.3008 34.2882 17.3008 33.9647C17.3008 29.1261 21.212 25.2008 26.0413 25.1855L17.3523 34.9228Z" fill="white"/>
<path d="M25.8687 41.6444C26.9559 41.6444 27.8372 40.762 27.8372 39.6736C27.8372 38.5852 26.9559 37.7029 25.8687 37.7029C24.7815 37.7029 23.9002 38.5852 23.9002 39.6736C23.9002 40.762 24.7815 41.6444 25.8687 41.6444Z" fill="white"/>
<path d="M41.549 38.9212V27.5982H46.3488C47.3156 27.5982 48.099 27.738 48.6974 28.0191C49.3068 28.2905 49.7505 28.6675 50.0312 29.1515C50.3215 29.6259 50.4667 30.177 50.4667 30.8063C50.4667 31.5219 50.2777 32.1416 49.9011 32.664C49.5245 33.1863 48.9685 33.5593 48.2332 33.7814L50.7707 38.8335V38.9199H48.1893L45.8832 34.1296H43.9551V38.9199H41.5476L41.549 38.9212ZM43.9564 32.3596H46.001C46.6296 32.3596 47.1171 32.2527 47.4663 32.0402C47.8237 31.8277 48.0031 31.4452 48.0031 30.8927C48.0031 30.3401 47.8251 29.9494 47.4663 29.7451C47.1089 29.5326 46.62 29.4257 46.001 29.4257H43.9564V32.3583V32.3596ZM55.7472 39.1392C54.3751 39.1392 53.3261 38.7279 52.6003 37.9053C51.8854 37.0827 51.5266 35.9654 51.5266 34.5519C51.5266 33.6031 51.6869 32.7901 52.0046 32.1128C52.3332 31.4356 52.8071 30.9132 53.426 30.5444C54.0546 30.177 54.8187 29.9933 55.7171 29.9933C57.0126 29.9933 58.0027 30.3854 58.6901 31.1696C59.3858 31.9538 59.7336 33.1055 59.7336 34.6245V35.1181H53.8177C53.8656 35.8543 54.0546 36.4342 54.3833 36.8606C54.7215 37.2774 55.1762 37.4844 55.7459 37.4844C56.2005 37.4844 56.562 37.3487 56.8332 37.0786C57.1139 36.8071 57.2974 36.4932 57.3837 36.1354H59.6172C59.531 36.6673 59.3365 37.1609 59.0366 37.616C58.7367 38.0712 58.3163 38.4386 57.7753 38.7197C57.2344 39.0007 56.5579 39.1406 55.7459 39.1406L55.7472 39.1392ZM53.8191 33.6374H57.4439C57.4056 32.9793 57.2413 32.4707 56.951 32.1128C56.6606 31.7454 56.2457 31.5617 55.7034 31.5617C55.1611 31.5617 54.7421 31.7358 54.4134 32.0841C54.0943 32.4227 53.8958 32.9409 53.8191 33.6374ZM61.2496 38.9212V30.2113H63.5982V38.9212H61.2496ZM62.4246 29.2091C62.0096 29.2091 61.6947 29.1021 61.4824 28.8896C61.2701 28.6675 61.1633 28.381 61.1633 28.0328C61.1633 27.6845 61.2701 27.4035 61.4824 27.191C61.6947 26.9689 62.0096 26.8564 62.4246 26.8564C62.8395 26.8564 63.1545 26.9675 63.3667 27.191C63.579 27.4035 63.6858 27.6845 63.6858 28.0328C63.6858 28.381 63.579 28.6662 63.3667 28.8896C63.1545 29.1021 62.8395 29.2091 62.4246 29.2091ZM68.6541 39.0953C67.8612 39.0953 67.2093 38.902 66.6958 38.514C66.1836 38.1178 65.8016 37.5749 65.5496 36.888C65.299 36.2012 65.173 35.4224 65.173 34.5505C65.173 33.6785 65.299 32.8614 65.5496 32.1841C65.8112 31.5069 66.1973 30.979 66.7095 30.602C67.2313 30.225 67.879 30.0358 68.6527 30.0358C69.2238 30.0358 69.6866 30.1372 70.0454 30.3401C70.4124 30.5431 70.7028 30.8186 70.915 31.1682H71.2629V27.3061H73.6114V38.9199H71.4368V37.7874H71.0889C70.8863 38.1548 70.5905 38.4647 70.2043 38.7169C69.8181 38.9678 69.3005 39.094 68.6527 39.094L68.6541 39.0953ZM69.321 37.4405C69.9112 37.4405 70.3796 37.1842 70.7274 36.6714C71.0848 36.1491 71.2642 35.4471 71.2642 34.5669C71.2642 33.6868 71.0848 32.9752 70.7274 32.4625C70.3796 31.9497 69.9112 31.6933 69.321 31.6933C68.7897 31.6933 68.3693 31.9346 68.0598 32.4186C67.7599 32.8929 67.6106 33.6086 67.6106 34.5669C67.6106 35.5253 67.7599 36.2464 68.0598 36.7304C68.3693 37.2047 68.7897 37.4419 69.321 37.4419V37.4405ZM75.7628 38.9212V30.2113H78.1114V38.9212H75.7628ZM76.9378 29.2091C76.5215 29.2091 76.2079 29.1021 75.9956 28.8896C75.7833 28.6675 75.6765 28.381 75.6765 28.0328C75.6765 27.6845 75.7833 27.4035 75.9956 27.191C76.2079 26.9689 76.5228 26.8564 76.9378 26.8564C77.3527 26.8564 77.6677 26.9675 77.8799 27.191C78.0922 27.4035 78.199 27.6845 78.199 28.0328C78.199 28.381 78.0922 28.6662 77.8799 28.8896C77.6677 29.1021 77.3527 29.2091 76.9378 29.2091ZM83.0797 39.1392C82.1129 39.1392 81.3829 38.8348 80.89 38.2248C80.397 37.6147 80.1505 36.7879 80.1505 35.7419V30.2113H82.499V35.3498C82.499 35.9407 82.6058 36.4 82.8181 36.729C83.0304 37.058 83.3741 37.2226 83.8479 37.2226C84.4176 37.2226 84.8586 37.0005 85.1681 36.5549C85.4775 36.1093 85.6323 35.5623 85.6323 34.9138V30.2099H87.9809V38.9199H85.8637V37.6133H85.5159C85.3707 38.0493 85.1051 38.4112 84.7189 38.7019C84.3327 38.9925 83.7863 39.1378 83.0797 39.1378V39.1392ZM93.3709 39.1392C92.4041 39.1392 91.6304 38.9898 91.0511 38.6895C90.4814 38.3797 90.0597 37.9931 89.7899 37.5283C89.5283 37.0635 89.379 36.5988 89.3407 36.134H91.5742C91.6222 36.3849 91.7235 36.6179 91.8783 36.8305C92.0426 37.0334 92.2548 37.1938 92.5164 37.3103C92.7876 37.4268 93.1107 37.4844 93.4873 37.4844C93.9516 37.4844 94.2843 37.4076 94.4884 37.2527C94.6911 37.0882 94.7924 36.8798 94.7924 36.6289C94.7924 36.3972 94.6952 36.2025 94.5021 36.0476C94.3186 35.8831 94.0132 35.7337 93.5887 35.5979L92.5452 35.2497C92.0426 35.0756 91.5784 34.8864 91.1525 34.6835C90.7266 34.471 90.3842 34.1995 90.1226 33.8705C89.8707 33.5414 89.7461 33.115 89.7461 32.5927C89.7461 31.8181 90.0405 31.1943 90.6307 30.7199C91.2209 30.236 92.0563 29.9947 93.1395 29.9947C93.9228 29.9947 94.561 30.1153 95.054 30.358C95.5565 30.5993 95.9331 30.9242 96.1851 31.33C96.4371 31.7262 96.5809 32.1677 96.6206 32.6517H94.4747C94.4268 32.3034 94.2816 32.0374 94.0392 31.8537C93.7982 31.6604 93.4695 31.5631 93.0532 31.5631C92.6766 31.5631 92.3904 31.6357 92.1973 31.7811C92.0138 31.9264 91.9221 32.1252 91.9221 32.3761C91.9221 32.627 92.0234 32.8354 92.2261 32.9999C92.4288 33.1644 92.7383 33.3138 93.1546 33.4496L94.1981 33.7841C94.7006 33.939 95.1594 34.1227 95.5757 34.3352C96.0016 34.5381 96.3399 34.8096 96.5905 35.1482C96.8424 35.4773 96.9671 35.9078 96.9671 36.4397C96.9671 37.2527 96.6576 37.9053 96.0386 38.3989C95.4292 38.8924 94.5404 39.1392 93.3709 39.1392ZM101.894 38.9212V27.5982H104.33V38.9212H101.894ZM106.504 38.9212V30.2113H108.678V31.5178H109.026C109.2 31.0819 109.466 30.7199 109.823 30.4293C110.19 30.1386 110.727 29.9933 111.432 29.9933C112.399 29.9933 113.124 30.2976 113.607 30.9077C114.09 31.5178 114.331 32.3445 114.331 33.3906V38.9212H111.983V33.7827C111.983 33.1822 111.876 32.7229 111.664 32.4035C111.452 32.0745 111.104 31.9099 110.62 31.9099C110.059 31.9099 109.625 32.132 109.315 32.5776C109.006 33.0136 108.851 33.5606 108.851 34.2187V38.9226H106.502L106.504 38.9212ZM116.94 38.9212V31.8661H115.723V30.2113H116.94V29.6889C116.94 29.1858 117.028 28.7553 117.202 28.3974C117.385 28.0396 117.685 27.764 118.101 27.5694C118.527 27.3761 119.103 27.2787 119.827 27.2787C120.108 27.2787 120.383 27.2938 120.654 27.3226V28.9198C120.509 28.891 120.34 28.8759 120.146 28.8759C119.817 28.8759 119.58 28.9486 119.435 29.0939C119.3 29.2296 119.233 29.4572 119.233 29.7767V30.2126H120.654V31.8674H119.233V38.9226H116.942L116.94 38.9212ZM122.126 38.9212V30.2113H124.272V31.8085H124.62C124.677 31.5178 124.784 31.2477 124.939 30.9955C125.103 30.7336 125.35 30.5266 125.679 30.3717C126.007 30.2072 126.447 30.1249 126.999 30.1249H127.463V32.2445H126.825C126.003 32.2445 125.403 32.4529 125.027 32.8683C124.66 33.2851 124.476 33.9089 124.476 34.7411V38.9226H122.128L122.126 38.9212ZM131.638 39.0953C130.826 39.0953 130.159 38.902 129.638 38.514C129.116 38.1178 128.728 37.5749 128.478 36.888C128.226 36.2012 128.101 35.4224 128.101 34.5505C128.101 33.6785 128.227 32.8614 128.478 32.1841C128.739 31.5069 129.131 30.979 129.653 30.602C130.174 30.225 130.832 30.0358 131.625 30.0358C132.234 30.0358 132.731 30.1564 133.119 30.3991C133.516 30.6308 133.814 30.9461 134.018 31.3423H134.366V30.2099H136.541V38.9199H134.366V37.7874H134.018C133.816 38.1548 133.52 38.4647 133.134 38.7169C132.748 38.9678 132.249 39.094 131.64 39.094L131.638 39.0953ZM132.248 37.4405C132.838 37.4405 133.306 37.1842 133.654 36.6714C134.011 36.1491 134.191 35.4471 134.191 34.5669C134.191 33.6868 134.011 32.9752 133.654 32.4625C133.306 31.9497 132.837 31.6933 132.248 31.6933C131.716 31.6933 131.296 31.9346 130.986 32.4186C130.687 32.8929 130.537 33.6086 130.537 34.5669C130.537 35.5253 130.687 36.2464 130.986 36.7304C131.296 37.2047 131.716 37.4419 132.248 37.4419V37.4405Z" fill="white"/>
</svg>