<svg xmlns="http://www.w3.org/2000/svg" xmlns:xlink="http://www.w3.org/1999/xlink" style="width:100%;height:100%;" viewBox="0 0 188 42">
<path fill-rule="evenodd" clip-rule="evenodd" d="M0.609375 5.21748C0.609375 2.71369 2.6391 0.68396 5.14289 0.68396H182.506C185.009 0.68396 187.039 2.71368 187.039 5.21747V36.7826C187.039 39.2863 185.009 41.3161 182.506 41.3161H5.14288C2.63909 41.3161 0.609375 39.2864 0.609375 36.7826V5.21748ZM41.4302 29.4718C40.1136 29.4718 38.9657 29.2608 37.9867 28.8388C37.0076 28.4168 36.248 27.826 35.7079 27.0664C35.1846 26.3068 34.923 25.4122 34.923 24.3825V23.7495C34.923 23.6651 34.9483 23.5976 34.9989 23.5469C35.0664 23.4794 35.1424 23.4456 35.2268 23.4456H37.4803C37.5647 23.4456 37.6322 23.4794 37.6828 23.5469C37.7504 23.5976 37.7841 23.6651 37.7841 23.7495V24.2306C37.7841 25.007 38.1302 25.6569 38.8222 26.1802C39.5143 26.6866 40.4596 26.9398 41.6581 26.9398C42.6878 26.9398 43.4642 26.7204 43.9875 26.2815C44.5108 25.8426 44.7724 25.2771 44.7724 24.585C44.7724 24.1124 44.629 23.7157 44.342 23.395C44.055 23.0574 43.6415 22.7536 43.1013 22.4835C42.578 22.2134 41.7847 21.8758 40.7212 21.4707C39.5228 21.0318 38.5522 20.6182 37.8094 20.23C37.0667 19.8418 36.4422 19.3185 35.9358 18.6602C35.4462 17.985 35.2015 17.1494 35.2015 16.1535C35.2015 14.6681 35.7416 13.4949 36.822 12.634C37.9023 11.7731 39.3455 11.3427 41.1517 11.3427C42.4177 11.3427 43.5318 11.5621 44.4939 12.001C45.473 12.4399 46.2326 13.056 46.7727 13.8494C47.3129 14.6259 47.583 15.5289 47.583 16.5586V16.9891C47.583 17.0735 47.5492 17.1494 47.4817 17.2169C47.431 17.2676 47.3635 17.2929 47.2791 17.2929H45.0003C44.9159 17.2929 44.84 17.2676 44.7724 17.2169C44.7218 17.1494 44.6965 17.0735 44.6965 16.9891V16.7105C44.6965 15.9172 44.3673 15.2504 43.709 14.7103C43.0676 14.1532 42.1729 13.8747 41.0251 13.8747C40.0967 13.8747 39.3708 14.0688 38.8476 14.4571C38.3412 14.8453 38.088 15.3939 38.088 16.1029C38.088 16.6093 38.223 17.0228 38.4931 17.3435C38.7632 17.6643 39.1683 17.9597 39.7084 18.2297C40.2486 18.4829 41.0842 18.8121 42.2151 19.2172C43.4136 19.673 44.3673 20.0865 45.0763 20.4579C45.8021 20.8293 46.4182 21.3525 46.9246 22.0277C47.4479 22.686 47.7096 23.5132 47.7096 24.5091C47.7096 26.0283 47.1441 27.2352 46.0131 28.1298C44.899 29.0245 43.3714 29.4718 41.4302 29.4718ZM56.3391 16.1282C57.7064 16.1282 58.7952 16.5333 59.6054 17.3435C60.4325 18.1538 60.8461 19.2594 60.8461 20.6604V28.9654C60.8461 29.0498 60.8123 29.1258 60.7448 29.1933C60.6941 29.2439 60.6266 29.2692 60.5422 29.2692H58.2128C58.1284 29.2692 58.0524 29.2439 57.9849 29.1933C57.9343 29.1258 57.909 29.0498 57.909 28.9654V21.2681C57.909 20.4916 57.6895 19.8671 57.2506 19.3945C56.8118 18.9049 56.2294 18.6602 55.5036 18.6602C54.7777 18.6602 54.1869 18.8965 53.7312 19.3691C53.2923 19.8418 53.0728 20.4663 53.0728 21.2428V28.9654C53.0728 29.0498 53.0391 29.1258 52.9716 29.1933C52.9209 29.2439 52.8534 29.2692 52.769 29.2692H50.4396C50.3552 29.2692 50.2792 29.2439 50.2117 29.1933C50.161 29.1258 50.1357 29.0498 50.1357 28.9654V11.8491C50.1357 11.7647 50.161 11.6972 50.2117 11.6465C50.2792 11.579 50.3552 11.5453 50.4396 11.5453H52.769C52.8534 11.5453 52.9209 11.579 52.9716 11.6465C53.0391 11.6972 53.0728 11.7647 53.0728 11.8491V17.4448C53.0728 17.4955 53.0897 17.5292 53.1235 17.5461C53.1572 17.563 53.1826 17.5461 53.1994 17.4955C53.8915 16.5839 54.9381 16.1282 56.3391 16.1282ZM69.0507 29.4718C67.7172 29.4718 66.5694 29.1342 65.6072 28.459C64.6619 27.7838 63.9952 26.847 63.6069 25.6485C63.32 24.737 63.1765 23.7748 63.1765 22.762C63.1765 21.6817 63.3115 20.7195 63.5816 19.8755C63.9699 18.6939 64.6451 17.774 65.6072 17.1157C66.5694 16.4573 67.7256 16.1282 69.076 16.1282C70.3589 16.1282 71.4646 16.4573 72.393 17.1157C73.3382 17.774 74.005 18.6855 74.3932 19.8502C74.6971 20.6604 74.849 21.6226 74.849 22.7367C74.849 23.8001 74.7055 24.7623 74.4186 25.6232C74.0303 26.8216 73.3636 27.7669 72.4183 28.459C71.473 29.1342 70.3505 29.4718 69.0507 29.4718ZM69.0507 26.9398C69.6753 26.9398 70.207 26.7626 70.6459 26.4081C71.1016 26.0536 71.4308 25.5556 71.6334 24.9142C71.8022 24.3572 71.8866 23.6482 71.8866 22.7873C71.8866 21.8758 71.8022 21.1668 71.6334 20.6604C71.4477 20.019 71.127 19.5295 70.6712 19.1919C70.2154 18.8374 69.6584 18.6602 69.0001 18.6602C68.3755 18.6602 67.8354 18.8374 67.3796 19.1919C66.9239 19.5295 66.5947 20.019 66.3921 20.6604C66.2233 21.2512 66.1389 21.9602 66.1389 22.7873C66.1389 23.6144 66.2233 24.3234 66.3921 24.9142C66.5778 25.5556 66.8985 26.0536 67.3543 26.4081C67.8269 26.7626 68.3924 26.9398 69.0507 26.9398ZM88.2854 21.3441C88.3529 21.7661 88.3867 22.2387 88.3867 22.762L88.3614 23.5469C88.3614 23.7495 88.2601 23.8508 88.0575 23.8508H80.1324C80.048 23.8508 80.0058 23.893 80.0058 23.9774C80.0564 24.5344 80.1324 24.9142 80.2337 25.1168C80.6388 26.3321 81.6263 26.9482 83.1961 26.9651C84.3439 26.9651 85.2554 26.4925 85.9306 25.5472C85.9982 25.4459 86.0826 25.3953 86.1838 25.3953C86.2514 25.3953 86.3104 25.4206 86.3611 25.4712L87.9309 26.7626C88.0828 26.8807 88.1082 27.0158 88.0069 27.1677C87.4836 27.9104 86.7831 28.4843 85.9053 28.8894C85.0444 29.2946 84.0823 29.4971 83.0188 29.4971C81.7022 29.4971 80.5797 29.2017 79.6513 28.6109C78.7398 28.0201 78.073 27.193 77.651 26.1296C77.2628 25.218 77.0687 23.952 77.0687 22.3316C77.0687 21.3525 77.1699 20.5592 77.3725 19.9515C77.7101 18.7699 78.3431 17.8415 79.2715 17.1663C80.2168 16.4742 81.3477 16.1282 82.6644 16.1282C85.9897 16.1282 87.8634 17.8668 88.2854 21.3441ZM82.6644 18.6602C82.0398 18.6602 81.5165 18.8205 81.0945 19.1413C80.6894 19.4451 80.4025 19.8755 80.2337 20.4326C80.1324 20.7195 80.0648 21.0909 80.0311 21.5466C79.9973 21.6311 80.0311 21.6732 80.1324 21.6732H85.2723C85.3567 21.6732 85.3989 21.6311 85.3989 21.5466C85.3652 21.1246 85.3145 20.8039 85.247 20.5845C85.0951 19.9768 84.7912 19.5042 84.3355 19.1666C83.8966 18.829 83.3396 18.6602 82.6644 18.6602ZM102.516 11.7478C102.6 11.6128 102.718 11.5453 102.87 11.5453H105.2C105.284 11.5453 105.351 11.579 105.402 11.6465C105.47 11.6972 105.503 11.7647 105.503 11.8491V28.9654C105.503 29.0498 105.47 29.1258 105.402 29.1933C105.351 29.2439 105.284 29.2692 105.2 29.2692H102.87C102.786 29.2692 102.71 29.2439 102.642 29.1933C102.592 29.1258 102.566 29.0498 102.566 28.9654V16.8878C102.566 16.8371 102.541 16.8034 102.49 16.7865C102.457 16.7696 102.431 16.7865 102.414 16.8371L99.2494 21.6986C99.1649 21.8336 99.0468 21.9011 98.8949 21.9011H97.7301C97.5782 21.9011 97.4601 21.8336 97.3757 21.6986L94.1854 16.8625C94.1685 16.8118 94.1347 16.7949 94.0841 16.8118C94.0503 16.8287 94.0334 16.8625 94.0334 16.9131V28.9654C94.0334 29.0498 93.9997 29.1258 93.9322 29.1933C93.8815 29.2439 93.814 29.2692 93.7296 29.2692H91.4002C91.3158 29.2692 91.2398 29.2439 91.1723 29.1933C91.1216 29.1258 91.0963 29.0498 91.0963 28.9654V11.8491C91.0963 11.7647 91.1216 11.6972 91.1723 11.6465C91.2398 11.579 91.3158 11.5453 91.4002 11.5453H93.7296C93.8815 11.5453 93.9997 11.6128 94.0841 11.7478L98.2112 18.0019C98.245 18.0356 98.2787 18.0525 98.3125 18.0525C98.3463 18.0525 98.3716 18.0356 98.3885 18.0019L102.516 11.7478ZM114.159 29.4718C112.825 29.4718 111.677 29.1342 110.715 28.459C109.77 27.7838 109.103 26.847 108.715 25.6485C108.428 24.737 108.285 23.7748 108.285 22.762C108.285 21.6817 108.42 20.7195 108.69 19.8755C109.078 18.6939 109.753 17.774 110.715 17.1157C111.677 16.4573 112.834 16.1282 114.184 16.1282C115.467 16.1282 116.573 16.4573 117.501 17.1157C118.446 17.774 119.113 18.6855 119.501 19.8502C119.805 20.6604 119.957 21.6226 119.957 22.7367C119.957 23.8001 119.814 24.7623 119.527 25.6232C119.138 26.8216 118.472 27.7669 117.526 28.459C116.581 29.1342 115.459 29.4718 114.159 29.4718ZM114.159 26.9398C114.783 26.9398 115.315 26.7626 115.754 26.4081C116.21 26.0536 116.539 25.5556 116.741 24.9142C116.91 24.3572 116.995 23.6482 116.995 22.7873C116.995 21.8758 116.91 21.1668 116.741 20.6604C116.556 20.019 116.235 19.5295 115.779 19.1919C115.324 18.8374 114.767 18.6602 114.108 18.6602C113.484 18.6602 112.943 18.8374 112.488 19.1919C112.032 19.5295 111.703 20.019 111.5 20.6604C111.331 21.2512 111.247 21.9602 111.247 22.7873C111.247 23.6144 111.331 24.3234 111.5 24.9142C111.686 25.5556 112.007 26.0536 112.462 26.4081C112.935 26.7626 113.501 26.9398 114.159 26.9398ZM128.684 16.1282C130.051 16.1282 131.14 16.5333 131.95 17.3435C132.777 18.1538 133.191 19.2594 133.191 20.6604V28.9654C133.191 29.0498 133.157 29.1258 133.09 29.1933C133.039 29.2439 132.972 29.2692 132.887 29.2692H130.558C130.473 29.2692 130.397 29.2439 130.33 29.1933C130.279 29.1258 130.254 29.0498 130.254 28.9654V21.2681C130.254 20.4916 130.034 19.8671 129.596 19.3945C129.157 18.9049 128.574 18.6602 127.848 18.6602C127.123 18.6602 126.532 18.8965 126.076 19.3691C125.637 19.8418 125.418 20.4663 125.418 21.2428V28.9654C125.418 29.0498 125.384 29.1258 125.316 29.1933C125.266 29.2439 125.198 29.2692 125.114 29.2692H122.784C122.7 29.2692 122.624 29.2439 122.557 29.1933C122.506 29.1258 122.481 29.0498 122.481 28.9654V16.6346C122.481 16.5502 122.506 16.4827 122.557 16.432C122.624 16.3645 122.7 16.3307 122.784 16.3307H125.114C125.198 16.3307 125.266 16.3645 125.316 16.432C125.384 16.4827 125.418 16.5502 125.418 16.6346V17.4448C125.418 17.4955 125.435 17.5292 125.468 17.5461C125.502 17.563 125.527 17.5461 125.544 17.4955C126.236 16.5839 127.283 16.1282 128.684 16.1282ZM136.279 29.2692C136.195 29.2692 136.119 29.2439 136.051 29.1933C136.001 29.1258 135.975 29.0498 135.975 28.9654V11.8491C135.975 11.7647 136.001 11.6972 136.051 11.6465C136.119 11.579 136.195 11.5453 136.279 11.5453H138.609C138.693 11.5453 138.761 11.579 138.811 11.6465C138.879 11.6972 138.912 11.7647 138.912 11.8491V20.9896C138.912 21.0403 138.929 21.074 138.963 21.0909C138.997 21.1078 139.031 21.0909 139.064 21.0402L143.166 16.508C143.284 16.3898 143.411 16.3307 143.546 16.3307H146.23C146.399 16.3307 146.483 16.3898 146.483 16.508C146.483 16.5586 146.458 16.6261 146.407 16.7105L143.192 20.5592C143.141 20.6098 143.132 20.6689 143.166 20.7364L146.964 28.9148C146.998 28.9823 147.015 29.0329 147.015 29.0667C147.015 29.2017 146.922 29.2692 146.736 29.2692H144.28C144.112 29.2692 143.993 29.1933 143.926 29.0414L141.166 22.6101C141.149 22.5763 141.115 22.5594 141.065 22.5594C141.031 22.5426 141.006 22.551 140.989 22.5848L138.963 24.9142C138.929 24.9817 138.912 25.0408 138.912 25.0914V28.9654C138.912 29.0498 138.879 29.1258 138.811 29.1933C138.761 29.2439 138.693 29.2692 138.609 29.2692H136.279ZM150.622 14.5583C150.099 14.5583 149.668 14.3895 149.331 14.0519C148.993 13.7143 148.824 13.2839 148.824 12.7606C148.824 12.2373 148.993 11.8069 149.331 11.4693C149.668 11.1317 150.099 10.9629 150.622 10.9629C151.145 10.9629 151.576 11.1317 151.913 11.4693C152.251 11.8069 152.42 12.2373 152.42 12.7606C152.42 13.2839 152.251 13.7143 151.913 14.0519C151.576 14.3895 151.145 14.5583 150.622 14.5583ZM149.407 29.2692C149.322 29.2692 149.246 29.2439 149.179 29.1933C149.128 29.1258 149.103 29.0498 149.103 28.9654V16.6093C149.103 16.5249 149.128 16.4573 149.179 16.4067C149.246 16.3392 149.322 16.3054 149.407 16.3054H151.736C151.82 16.3054 151.888 16.3392 151.939 16.4067C152.006 16.4573 152.04 16.5249 152.04 16.6093V28.9654C152.04 29.0498 152.006 29.1258 151.939 29.1933C151.888 29.2439 151.82 29.2692 151.736 29.2692H149.407ZM166.064 21.3441C166.132 21.7661 166.165 22.2387 166.165 22.762L166.14 23.5469C166.14 23.7495 166.039 23.8508 165.836 23.8508H157.911C157.827 23.8508 157.785 23.893 157.785 23.9774C157.835 24.5344 157.911 24.9142 158.012 25.1168C158.418 26.3321 159.405 26.9482 160.975 26.9651C162.123 26.9651 163.034 26.4925 163.709 25.5472C163.777 25.4459 163.861 25.3953 163.963 25.3953C164.03 25.3953 164.089 25.4206 164.14 25.4712L165.71 26.7626C165.862 26.8807 165.887 27.0158 165.786 27.1677C165.262 27.9104 164.562 28.4843 163.684 28.8894C162.823 29.2946 161.861 29.4971 160.798 29.4971C159.481 29.4971 158.358 29.2017 157.43 28.6109C156.519 28.0201 155.852 27.193 155.43 26.1296C155.042 25.218 154.847 23.952 154.847 22.3316C154.847 21.3525 154.949 20.5592 155.151 19.9515C155.489 18.7699 156.122 17.8415 157.05 17.1663C157.996 16.4742 159.127 16.1282 160.443 16.1282C163.769 16.1282 165.642 17.8668 166.064 21.3441ZM160.443 18.6602C159.819 18.6602 159.295 18.8205 158.873 19.1413C158.468 19.4451 158.181 19.8755 158.012 20.4326C157.911 20.7195 157.844 21.0909 157.81 21.5466C157.776 21.6311 157.81 21.6732 157.911 21.6732H163.051C163.136 21.6732 163.178 21.6311 163.178 21.5466C163.144 21.1246 163.093 20.8039 163.026 20.5845C162.874 19.9768 162.57 19.5042 162.114 19.1666C161.675 18.829 161.118 18.6602 160.443 18.6602ZM173.21 29.4212C172.146 29.4212 171.209 29.2692 170.399 28.9654C169.606 28.6447 168.99 28.2142 168.551 27.6741C168.112 27.117 167.892 26.5009 167.892 25.8257V25.5978C167.892 25.5134 167.918 25.4459 167.968 25.3953C168.036 25.3278 168.112 25.294 168.196 25.294H170.424C170.509 25.294 170.576 25.3278 170.627 25.3953C170.694 25.4459 170.728 25.5134 170.728 25.5978V25.6485C170.728 26.0705 170.956 26.4418 171.412 26.7626C171.885 27.0664 172.475 27.2183 173.184 27.2183C173.859 27.2183 174.408 27.0833 174.83 26.8132C175.252 26.5262 175.463 26.1718 175.463 25.7498C175.463 25.3615 175.286 25.0746 174.931 24.8889C174.594 24.6863 174.037 24.4753 173.26 24.2559L172.298 23.952C171.437 23.6988 170.711 23.4288 170.121 23.1418C169.53 22.8548 169.032 22.4666 168.627 21.9771C168.222 21.4707 168.019 20.8293 168.019 20.0528C168.019 18.8712 168.483 17.9343 169.412 17.2423C170.34 16.5333 171.564 16.1788 173.083 16.1788C174.113 16.1788 175.016 16.3476 175.792 16.6852C176.569 17.0059 177.168 17.4617 177.59 18.0525C178.012 18.6264 178.223 19.2847 178.223 20.0275C178.223 20.1119 178.189 20.1878 178.122 20.2553C178.071 20.306 178.004 20.3313 177.919 20.3313H175.767C175.683 20.3313 175.607 20.306 175.539 20.2553C175.488 20.1878 175.463 20.1119 175.463 20.0275C175.463 19.5886 175.244 19.2257 174.805 18.9387C174.383 18.6349 173.8 18.4829 173.058 18.4829C172.399 18.4829 171.859 18.6095 171.437 18.8627C171.032 19.0991 170.83 19.4367 170.83 19.8755C170.83 20.2807 171.024 20.5929 171.412 20.8124C171.817 21.0149 172.484 21.2428 173.412 21.496L173.969 21.6479C174.864 21.918 175.615 22.1965 176.223 22.4835C176.83 22.7536 177.345 23.1418 177.767 23.6482C178.189 24.1377 178.4 24.7792 178.4 25.5725C178.4 26.771 177.928 27.7163 176.982 28.4084C176.037 29.0836 174.779 29.4212 173.21 29.4212ZM176.731 11.1593V11.5223H177.369V13.2419H177.804V11.5223H178.442V11.1593H176.731ZM179.238 11.1593H178.695V13.2419H179.122V11.8813H179.139L179.678 13.2317H179.969L180.508 11.8864H180.525V13.2419H180.952V11.1593H180.409L179.836 12.5585H179.811L179.238 11.1593ZM9.7224 27.1063V17.7893L7.78211 16.2995V27.1063H9.7224ZM9.51993 26.9034V26.9038H7.98458V16.7102L7.98576 16.7111V26.9034H9.51993ZM25.1794 9.68346V12.4809H25.181V12.481L25.1788 12.481V9.68356H11.7717C11.6558 9.68379 11.5409 9.69294 11.4278 9.71062C11.5411 9.69288 11.6562 9.6837 11.7723 9.68346H25.1794ZM8.53931 9.96661C8.18045 10.5555 7.9859 11.2363 7.98548 11.9372V14.7736L9.46084 15.9073L7.98487 14.7736V11.9373C7.98548 10.9323 8.38516 9.96865 9.09604 9.25821C9.15532 9.19895 9.21637 9.14187 9.27906 9.087C9.21679 9.14155 9.15613 9.19829 9.09722 9.25717C8.88188 9.47238 8.69509 9.71082 8.53931 9.96661ZM25.1788 27.9797L9.55526 15.9798L11.2679 17.2941L16.0899 20.9986L17.3501 21.9667L23.7763 26.9024L25.1794 27.9796V30.06C25.1797 30.479 25.0634 30.886 24.8485 31.2378C24.7569 31.3875 24.6474 31.5273 24.5213 31.6536C24.4857 31.6894 24.449 31.7238 24.4113 31.7569C24.4486 31.7241 24.4849 31.69 24.5202 31.6547C24.9423 31.2314 25.1792 30.6579 25.1788 30.0601V27.9797ZM7.98487 28.442H7.98548V33.851H22.9224C23.0617 33.851 23.2001 33.8433 23.3373 33.8282C23.1999 33.8434 23.0613 33.8511 22.9218 33.8511H7.98487V28.442ZM24.9764 9.88603V12.6834L26.9167 12.684V7.9462H11.7759C10.7171 7.9462 9.70176 8.3666 8.95291 9.11499C8.20406 9.86338 7.78304 10.8786 7.78239 11.9373V14.8734L11.144 17.4548L15.9659 21.1593L17.2262 22.1274L23.6524 27.0631L24.9764 28.0795V30.0602C24.9767 30.6044 24.7611 31.1264 24.3768 31.5117C23.9925 31.897 23.4711 32.114 22.9269 32.1151H9.72269V28.2395H7.78239V34.0536H22.9218C23.9809 34.0536 24.9967 33.6328 25.7456 32.8839C26.4945 32.135 26.9153 31.1192 26.9153 30.0601V27.1323L25.576 26.0956L25.5334 26.0629L25.3026 25.8846L25.3021 25.8843L17.4728 19.87L11.1229 14.9945L9.72269 13.918V11.9374C9.72328 11.3939 9.9393 10.8728 10.3234 10.4883C10.7076 10.1038 11.2284 9.88719 11.7719 9.88603H24.9764ZM26.9144 13.8161V25.7016L24.9741 24.2106V16.3656L19.8679 20.2881L18.2751 19.0652L23.5733 14.9953L25.1078 13.8161H26.9144ZM18.6076 19.0652L19.8678 20.0328L19.8696 20.0314L19.5473 19.7839L18.6116 19.0655L23.7008 15.1562L25.1806 14.0189H25.181V14.0185H25.1766L18.6076 19.0652ZM25.1766 15.9582V24.1109L26.7119 25.2907V25.2879L25.1806 24.1112V15.9551L25.1766 15.9582Z" fill="#6F1E2E"/>
</svg>