<svg xmlns="http://www.w3.org/2000/svg" xmlns:xlink="http://www.w3.org/1999/xlink" style="width:100%;height:100%;" viewBox="0 0 131 29">
<path fill-rule="evenodd" clip-rule="evenodd" d="M0 3.16983C0 1.41918 1.41918 0 3.16983 0H127.182C128.932 0 130.352 1.41918 130.352 3.16983V25.2401C130.352 26.9908 128.932 28.41 127.182 28.41H3.16983C1.41918 28.41 0 26.9908 0 25.2401V3.16983ZM28.5415 20.6484C27.6209 20.6484 26.8184 20.5009 26.1338 20.2058C25.4493 19.9107 24.9182 19.4977 24.5405 18.9665C24.1746 18.4354 23.9917 17.8099 23.9917 17.09V16.6474C23.9917 16.5883 24.0094 16.5411 24.0448 16.5057C24.092 16.4585 24.1451 16.4349 24.2041 16.4349H25.7798C25.8388 16.4349 25.886 16.4585 25.9214 16.5057C25.9686 16.5411 25.9922 16.5883 25.9922 16.6474V16.9837C25.9922 17.5266 26.2341 17.981 26.718 18.3469C27.202 18.701 27.8629 18.878 28.7009 18.878C29.4208 18.878 29.9637 18.7246 30.3296 18.4177C30.6955 18.1109 30.8784 17.7155 30.8784 17.2316C30.8784 16.9011 30.7781 16.6238 30.5775 16.3995C30.3768 16.1635 30.0877 15.951 29.71 15.7622C29.3441 15.5733 28.7894 15.3373 28.0458 15.054C27.2079 14.7472 26.5292 14.458 26.0099 14.1865C25.4906 13.9151 25.0539 13.5492 24.6998 13.0889C24.3576 12.6168 24.1864 12.0326 24.1864 11.3362C24.1864 10.2976 24.5641 9.47735 25.3195 8.87543C26.0748 8.2735 27.0839 7.97254 28.3468 7.97254C29.232 7.97254 30.0109 8.12597 30.6837 8.43283C31.3682 8.7397 31.8993 9.17049 32.277 9.7252C32.6547 10.2681 32.8435 10.8996 32.8435 11.6195V11.9205C32.8435 11.9795 32.8199 12.0326 32.7727 12.0798C32.7373 12.1152 32.6901 12.1329 32.6311 12.1329H31.0378C30.9787 12.1329 30.9256 12.1152 30.8784 12.0798C30.843 12.0326 30.8253 11.9795 30.8253 11.9205V11.7257C30.8253 11.171 30.5952 10.7048 30.1349 10.3271C29.6864 9.93765 29.0608 9.74291 28.2583 9.74291C27.6091 9.74291 27.1016 9.87864 26.7358 10.1501C26.3817 10.4216 26.2046 10.8051 26.2046 11.3008C26.2046 11.6549 26.2991 11.9441 26.4879 12.1683C26.6767 12.3926 26.96 12.5991 27.3377 12.7879C27.7154 12.965 28.2996 13.1951 29.0903 13.4784C29.9283 13.7971 30.5952 14.0862 31.0909 14.3459C31.5984 14.6055 32.0292 14.9714 32.3832 15.4435C32.7491 15.9038 32.9321 16.4821 32.9321 17.1785C32.9321 18.2407 32.5367 19.0846 31.7459 19.7101C30.9669 20.3356 29.8988 20.6484 28.5415 20.6484ZM38.9658 11.3185C39.9218 11.3185 40.6831 11.6018 41.2496 12.1683C41.8279 12.7348 42.1171 13.5079 42.1171 14.4875V20.2943C42.1171 20.3533 42.0935 20.4064 42.0463 20.4537C42.0109 20.4891 41.9637 20.5068 41.9047 20.5068H40.2759C40.2169 20.5068 40.1638 20.4891 40.1166 20.4537C40.0812 20.4064 40.0635 20.3533 40.0635 20.2943V14.9124C40.0635 14.3695 39.91 13.9328 39.6032 13.6023C39.2963 13.26 38.8891 13.0889 38.3816 13.0889C37.8741 13.0889 37.461 13.2541 37.1424 13.5846C36.8355 13.9151 36.6821 14.3518 36.6821 14.8947V20.2943C36.6821 20.3533 36.6585 20.4064 36.6112 20.4537C36.5758 20.4891 36.5286 20.5068 36.4696 20.5068H34.8409C34.7819 20.5068 34.7287 20.4891 34.6815 20.4537C34.6461 20.4064 34.6284 20.3533 34.6284 20.2943V8.32661C34.6284 8.2676 34.6461 8.22039 34.6815 8.18498C34.7287 8.13777 34.7819 8.11417 34.8409 8.11417H36.4696C36.5286 8.11417 36.5758 8.13777 36.6112 8.18498C36.6585 8.22039 36.6821 8.2676 36.6821 8.32661V12.2391C36.6821 12.2745 36.6939 12.2981 36.7175 12.3099C36.7411 12.3217 36.7588 12.3099 36.7706 12.2745C37.2545 11.6372 37.9862 11.3185 38.9658 11.3185ZM47.8538 20.6484C46.9214 20.6484 46.1188 20.4123 45.4461 19.9402C44.7852 19.4682 44.319 18.8131 44.0475 17.9751C43.8469 17.3378 43.7465 16.6651 43.7465 15.9569C43.7465 15.2016 43.841 14.5288 44.0298 13.9387C44.3013 13.1125 44.7733 12.4693 45.4461 12.009C46.1188 11.5487 46.9273 11.3185 47.8715 11.3185C48.7685 11.3185 49.5415 11.5487 50.1907 12.009C50.8516 12.4693 51.3178 13.1066 51.5893 13.921C51.8017 14.4875 51.9079 15.1602 51.9079 15.9392C51.9079 16.6828 51.8076 17.3555 51.607 17.9574C51.3355 18.7954 50.8693 19.4563 50.2084 19.9402C49.5475 20.4123 48.7626 20.6484 47.8538 20.6484ZM47.8538 18.878C48.2905 18.878 48.6623 18.7541 48.9691 18.5062C49.2878 18.2584 49.5179 17.9102 49.6596 17.4617C49.7776 17.0722 49.8366 16.5765 49.8366 15.9746C49.8366 15.3373 49.7776 14.8416 49.6596 14.4875C49.5297 14.039 49.3055 13.6967 48.9868 13.4607C48.6682 13.2128 48.2787 13.0889 47.8184 13.0889C47.3817 13.0889 47.004 13.2128 46.6854 13.4607C46.3667 13.6967 46.1365 14.039 45.9949 14.4875C45.8769 14.9006 45.8179 15.3963 45.8179 15.9746C45.8179 16.5529 45.8769 17.0486 45.9949 17.4617C46.1247 17.9102 46.349 18.2584 46.6676 18.5062C46.9981 18.7541 47.3935 18.878 47.8538 18.878ZM61.3027 14.9655C61.3499 15.2606 61.3735 15.591 61.3735 15.9569L61.3558 16.5057C61.3558 16.6474 61.285 16.7182 61.1433 16.7182H55.6021C55.5431 16.7182 55.5136 16.7477 55.5136 16.8067C55.549 17.1962 55.6021 17.4617 55.6729 17.6034C55.9562 18.4531 56.6466 18.8839 57.7442 18.8957C58.5468 18.8957 59.1841 18.5653 59.6562 17.9043C59.7034 17.8335 59.7625 17.7981 59.8333 17.7981C59.8805 17.7981 59.9218 17.8158 59.9572 17.8512L61.0548 18.7541C61.161 18.8367 61.1787 18.9311 61.1079 19.0374C60.7421 19.5567 60.2523 19.958 59.6385 20.2412C59.0366 20.5245 58.3639 20.6661 57.6203 20.6661C56.6997 20.6661 55.9148 20.4596 55.2657 20.0465C54.6284 19.6334 54.1622 19.0551 53.8671 18.3115C53.5957 17.6742 53.4599 16.789 53.4599 15.6559C53.4599 14.9714 53.5307 14.4167 53.6724 13.9918C53.9084 13.1656 54.351 12.5165 55.0001 12.0444C55.6611 11.5605 56.4519 11.3185 57.3724 11.3185C59.6975 11.3185 61.0076 12.5342 61.3027 14.9655ZM57.3724 13.0889C56.9358 13.0889 56.5699 13.201 56.2748 13.4253C55.9916 13.6377 55.7909 13.9387 55.6729 14.3282C55.6021 14.5288 55.5549 14.7885 55.5313 15.1071C55.5077 15.1661 55.5313 15.1957 55.6021 15.1957H59.1959C59.2549 15.1957 59.2845 15.1661 59.2845 15.1071C59.2608 14.8121 59.2254 14.5878 59.1782 14.4344C59.072 14.0095 58.8596 13.679 58.5409 13.443C58.234 13.2069 57.8445 13.0889 57.3724 13.0889ZM71.2524 8.2558C71.3114 8.16138 71.3941 8.11417 71.5003 8.11417H73.129C73.188 8.11417 73.2353 8.13777 73.2707 8.18498C73.3179 8.22039 73.3415 8.2676 73.3415 8.32661V20.2943C73.3415 20.3533 73.3179 20.4064 73.2707 20.4537C73.2353 20.4891 73.188 20.5068 73.129 20.5068H71.5003C71.4413 20.5068 71.3882 20.4891 71.341 20.4537C71.3055 20.4064 71.2878 20.3533 71.2878 20.2943V11.8497C71.2878 11.8142 71.2701 11.7906 71.2347 11.7788C71.2111 11.767 71.1934 11.7788 71.1816 11.8142L68.9687 15.2134C68.9096 15.3078 68.827 15.355 68.7208 15.355H67.9064C67.8002 15.355 67.7176 15.3078 67.6586 15.2134L65.4279 11.8319C65.4161 11.7965 65.3925 11.7847 65.3571 11.7965C65.3335 11.8083 65.3217 11.8319 65.3217 11.8674V20.2943C65.3217 20.3533 65.2981 20.4064 65.2509 20.4537C65.2155 20.4891 65.1683 20.5068 65.1092 20.5068H63.4805C63.4215 20.5068 63.3684 20.4891 63.3212 20.4537C63.2858 20.4064 63.2681 20.3533 63.2681 20.2943V8.32661C63.2681 8.2676 63.2858 8.22039 63.3212 8.18498C63.3684 8.13777 63.4215 8.11417 63.4805 8.11417H65.1092C65.2155 8.11417 65.2981 8.16138 65.3571 8.2558L68.2428 12.6286C68.2664 12.6522 68.29 12.664 68.3136 12.664C68.3372 12.664 68.3549 12.6522 68.3667 12.6286L71.2524 8.2558ZM79.3934 20.6484C78.461 20.6484 77.6584 20.4123 76.9857 19.9402C76.3247 19.4682 75.8585 18.8131 75.5871 17.9751C75.3864 17.3378 75.2861 16.6651 75.2861 15.9569C75.2861 15.2016 75.3805 14.5288 75.5694 13.9387C75.8408 13.1125 76.3129 12.4693 76.9857 12.009C77.6584 11.5487 78.4669 11.3185 79.4111 11.3185C80.3081 11.3185 81.0811 11.5487 81.7303 12.009C82.3912 12.4693 82.8574 13.1066 83.1289 13.921C83.3413 14.4875 83.4475 15.1602 83.4475 15.9392C83.4475 16.6828 83.3472 17.3555 83.1466 17.9574C82.8751 18.7954 82.4089 19.4563 81.748 19.9402C81.087 20.4123 80.3022 20.6484 79.3934 20.6484ZM79.3934 18.878C79.8301 18.878 80.2019 18.7541 80.5087 18.5062C80.8274 18.2584 81.0575 17.9102 81.1992 17.4617C81.3172 17.0722 81.3762 16.5765 81.3762 15.9746C81.3762 15.3373 81.3172 14.8416 81.1992 14.4875C81.0693 14.039 80.8451 13.6967 80.5264 13.4607C80.2078 13.2128 79.8183 13.0889 79.358 13.0889C78.9213 13.0889 78.5436 13.2128 78.2249 13.4607C77.9063 13.6967 77.6761 14.039 77.5345 14.4875C77.4165 14.9006 77.3575 15.3963 77.3575 15.9746C77.3575 16.5529 77.4165 17.0486 77.5345 17.4617C77.6643 17.9102 77.8886 18.2584 78.2072 18.5062C78.5377 18.7541 78.9331 18.878 79.3934 18.878ZM89.5494 11.3185C90.5054 11.3185 91.2666 11.6018 91.8331 12.1683C92.4115 12.7348 92.7006 13.5079 92.7006 14.4875V20.2943C92.7006 20.3533 92.677 20.4064 92.6298 20.4537C92.5944 20.4891 92.5472 20.5068 92.4882 20.5068H90.8594C90.8004 20.5068 90.7473 20.4891 90.7001 20.4537C90.6647 20.4064 90.647 20.3533 90.647 20.2943V14.9124C90.647 14.3695 90.4936 13.9328 90.1867 13.6023C89.8798 13.26 89.4726 13.0889 88.9651 13.0889C88.4576 13.0889 88.0445 13.2541 87.7259 13.5846C87.419 13.9151 87.2656 14.3518 87.2656 14.8947V20.2943C87.2656 20.3533 87.242 20.4064 87.1948 20.4537C87.1594 20.4891 87.1122 20.5068 87.0531 20.5068H85.4244C85.3654 20.5068 85.3123 20.4891 85.2651 20.4537C85.2297 20.4064 85.212 20.3533 85.212 20.2943V11.6726C85.212 11.6136 85.2297 11.5664 85.2651 11.531C85.3123 11.4838 85.3654 11.4602 85.4244 11.4602H87.0531C87.1122 11.4602 87.1594 11.4838 87.1948 11.531C87.242 11.5664 87.2656 11.6136 87.2656 11.6726V12.2391C87.2656 12.2745 87.2774 12.2981 87.301 12.3099C87.3246 12.3217 87.3423 12.3099 87.3541 12.2745C87.838 11.6372 88.5698 11.3185 89.5494 11.3185ZM94.8599 20.5068C94.8009 20.5068 94.7478 20.4891 94.7006 20.4537C94.6652 20.4064 94.6475 20.3533 94.6475 20.2943V8.32661C94.6475 8.2676 94.6652 8.22039 94.7006 8.18498C94.7478 8.13777 94.8009 8.11417 94.8599 8.11417H96.4887C96.5477 8.11417 96.5949 8.13777 96.6303 8.18498C96.6775 8.22039 96.7011 8.2676 96.7011 8.32661V14.7177C96.7011 14.7531 96.7129 14.7767 96.7365 14.7885C96.7601 14.8003 96.7837 14.7885 96.8073 14.7531L99.6753 11.5841C99.758 11.5015 99.8465 11.4602 99.9409 11.4602H101.817C101.936 11.4602 101.995 11.5015 101.995 11.5841C101.995 11.6195 101.977 11.6667 101.941 11.7257L99.693 14.4167C99.6576 14.4521 99.6517 14.4934 99.6753 14.5406L102.331 20.2589C102.355 20.3061 102.366 20.3415 102.366 20.3651C102.366 20.4596 102.301 20.5068 102.172 20.5068H100.454C100.336 20.5068 100.254 20.4537 100.206 20.3474L98.2767 15.8507C98.2649 15.8271 98.2413 15.8153 98.2059 15.8153C98.1823 15.8035 98.1646 15.8094 98.1528 15.833L96.7365 17.4617C96.7129 17.5089 96.7011 17.5502 96.7011 17.5857V20.2943C96.7011 20.3533 96.6775 20.4064 96.6303 20.4537C96.5949 20.4891 96.5477 20.5068 96.4887 20.5068H94.8599ZM104.888 10.2209C104.523 10.2209 104.222 10.1029 103.986 9.86683C103.749 9.63078 103.631 9.32982 103.631 8.96395C103.631 8.59807 103.749 8.2971 103.986 8.06106C104.222 7.82501 104.523 7.70698 104.888 7.70698C105.254 7.70698 105.555 7.82501 105.791 8.06106C106.027 8.2971 106.145 8.59807 106.145 8.96395C106.145 9.32982 106.027 9.63078 105.791 9.86683C105.555 10.1029 105.254 10.2209 104.888 10.2209ZM104.039 20.5068C103.98 20.5068 103.926 20.4891 103.879 20.4537C103.844 20.4064 103.826 20.3533 103.826 20.2943V11.6549C103.826 11.5959 103.844 11.5487 103.879 11.5133C103.926 11.4661 103.98 11.4425 104.039 11.4425H105.667C105.726 11.4425 105.774 11.4661 105.809 11.5133C105.856 11.5487 105.88 11.5959 105.88 11.6549V20.2943C105.88 20.3533 105.856 20.4064 105.809 20.4537C105.774 20.4891 105.726 20.5068 105.667 20.5068H104.039ZM115.686 14.9655C115.733 15.2606 115.756 15.591 115.756 15.9569L115.739 16.5057C115.739 16.6474 115.668 16.7182 115.526 16.7182H109.985C109.926 16.7182 109.896 16.7477 109.896 16.8067C109.932 17.1962 109.985 17.4617 110.056 17.6034C110.339 18.4531 111.03 18.8839 112.127 18.8957C112.93 18.8957 113.567 18.5653 114.039 17.9043C114.086 17.8335 114.145 17.7981 114.216 17.7981C114.263 17.7981 114.305 17.8158 114.34 17.8512L115.438 18.7541C115.544 18.8367 115.562 18.9311 115.491 19.0374C115.125 19.5567 114.635 19.958 114.021 20.2412C113.42 20.5245 112.747 20.6661 112.003 20.6661C111.083 20.6661 110.298 20.4596 109.649 20.0465C109.011 19.6334 108.545 19.0551 108.25 18.3115C107.979 17.6742 107.843 16.789 107.843 15.6559C107.843 14.9714 107.914 14.4167 108.055 13.9918C108.291 13.1656 108.734 12.5165 109.383 12.0444C110.044 11.5605 110.835 11.3185 111.755 11.3185C114.08 11.3185 115.391 12.5342 115.686 14.9655ZM111.755 13.0889C111.319 13.0889 110.953 13.201 110.658 13.4253C110.374 13.6377 110.174 13.9387 110.056 14.3282C109.985 14.5288 109.938 14.7885 109.914 15.1071C109.891 15.1661 109.914 15.1957 109.985 15.1957H113.579C113.638 15.1957 113.667 15.1661 113.667 15.1071C113.644 14.8121 113.608 14.5878 113.561 14.4344C113.455 14.0095 113.242 13.679 112.924 13.443C112.617 13.2069 112.227 13.0889 111.755 13.0889ZM120.682 20.613C119.938 20.613 119.283 20.5068 118.717 20.2943C118.162 20.0701 117.731 19.7691 117.424 19.3914C117.117 19.002 116.964 18.5712 116.964 18.0991V17.9397C116.964 17.8807 116.982 17.8335 117.017 17.7981C117.064 17.7509 117.117 17.7273 117.176 17.7273H118.734C118.793 17.7273 118.84 17.7509 118.876 17.7981C118.923 17.8335 118.947 17.8807 118.947 17.9397V17.9751C118.947 18.2702 119.106 18.5299 119.425 18.7541C119.755 18.9665 120.168 19.0728 120.664 19.0728C121.136 19.0728 121.52 18.9783 121.815 18.7895C122.11 18.5889 122.257 18.341 122.257 18.046C122.257 17.7745 122.133 17.5739 121.885 17.444C121.649 17.3024 121.26 17.1549 120.717 17.0014L120.044 16.789C119.442 16.6119 118.935 16.4231 118.522 16.2225C118.109 16.0218 117.761 15.7504 117.477 15.4081C117.194 15.054 117.052 14.6055 117.052 14.0626C117.052 13.2364 117.377 12.5814 118.026 12.0975C118.675 11.6018 119.531 11.3539 120.593 11.3539C121.313 11.3539 121.945 11.472 122.487 11.708C123.03 11.9323 123.449 12.2509 123.744 12.664C124.039 13.0653 124.187 13.5256 124.187 14.0449C124.187 14.1039 124.163 14.157 124.116 14.2042C124.081 14.2397 124.034 14.2574 123.975 14.2574H122.47C122.411 14.2574 122.358 14.2397 122.31 14.2042C122.275 14.157 122.257 14.1039 122.257 14.0449C122.257 13.738 122.104 13.4843 121.797 13.2837C121.502 13.0712 121.095 12.965 120.575 12.965C120.115 12.965 119.737 13.0535 119.442 13.2305C119.159 13.3958 119.017 13.6318 119.017 13.9387C119.017 14.2219 119.153 14.4403 119.425 14.5937C119.708 14.7354 120.174 14.8947 120.823 15.0717L121.213 15.1779C121.838 15.3668 122.363 15.5615 122.788 15.7622C123.213 15.951 123.573 16.2225 123.868 16.5765C124.163 16.9188 124.311 17.3673 124.311 17.922C124.311 18.76 123.98 19.4209 123.319 19.9048C122.659 20.3769 121.779 20.613 120.682 20.613ZM123.14 7.22661V7.48044H123.585V8.68278H123.89V7.48044H124.335V7.22661H123.14ZM124.892 7.22661H124.512V8.68278H124.811V7.73143H124.823L125.2 8.67566H125.403L125.78 7.73499H125.792V8.68278H126.091V7.22661H125.711L125.31 8.20497H125.293L124.892 7.22661ZM6.36912 18.4747V11.9602L5.01247 10.9185V18.4747H6.36912ZM6.22755 18.3328V18.3331H5.15404V11.2057L5.15449 11.2061V18.3328H6.22755ZM17.1755 8.24801V6.29252H7.80329C7.75556 6.29262 7.70806 6.29488 7.66091 6.29925C7.70722 6.29503 7.75386 6.29285 7.80073 6.29276H17.175V8.24875L17.1785 8.24875V8.24851H17.1776V8.24801L17.1755 8.24801ZM5.15554 23.1899V23.1905H15.5995C15.68 23.1905 15.7602 23.1868 15.8398 23.1795C15.7594 23.1869 15.6783 23.1907 15.5969 23.1907H5.15298V19.4087H5.15344V23.1899H5.15554ZM17.0334 6.43433V8.39028L18.3901 8.39068V5.078H7.80364C7.06339 5.078 6.35343 5.37194 5.82984 5.89522C5.30624 6.41849 5.01187 7.12836 5.01141 7.8686V9.9215L7.36188 11.7264L10.7333 14.3166L11.6145 14.9935L16.1077 18.4445L17.0334 19.1552V20.5401C17.0337 20.9206 16.8829 21.2856 16.6142 21.555C16.3455 21.8244 15.9809 21.9761 15.6005 21.9769H6.36807V19.2671H5.01141V23.3323H15.5969C16.3374 23.3323 17.0476 23.0381 17.5713 22.5144C18.0949 21.9908 18.3891 21.2806 18.3891 20.54V18.4929L17.4527 17.7681L17.4229 17.7452L17.2615 17.6205L17.2612 17.6203L11.787 13.4151L7.34712 10.0061L6.36807 9.2535V7.86867C6.36848 7.48864 6.51953 7.12427 6.78811 6.85541C7.05669 6.58656 7.42088 6.43514 7.8009 6.43433H17.0334ZM17.175 20.54V19.0854L5.15298 9.85175V7.8686C5.15328 7.3745 5.29153 6.8947 5.54637 6.4807C5.29182 6.89454 5.15374 7.37406 5.15344 7.86787V9.85101L6.22695 10.6759L7.44852 11.6134L10.82 14.2036L11.7012 14.8805L16.1944 18.3315L17.1755 19.0847V20.5393C17.1756 20.835 17.0928 21.1221 16.9398 21.3696C17.0925 21.1223 17.1752 20.8354 17.175 20.54ZM18.3894 9.18208V17.4925L17.0327 16.45V10.9647L13.4624 13.7073L12.3488 12.8523L16.0533 10.0066L17.1262 9.18208H18.3894ZM12.5812 12.8523L13.4624 13.5288L13.4635 13.528L13.2379 13.3549L12.5837 12.8525L16.142 10.1191L17.1768 9.32394H17.1785V9.32365H17.1743L12.5812 12.8523ZM17.1743 10.6796V16.3802L18.2478 17.2052V17.2035L17.1768 16.3805V10.6777L17.1743 10.6796Z" fill="#6F1E2E"/>
</svg>