<svg xmlns="http://www.w3.org/2000/svg" xmlns:xlink="http://www.w3.org/1999/xlink" style="width:100%;height:100%;" viewBox="0 0 48 46">
<path d="M39.4538 6.4681C39.5369 6.07771 40.0941 6.07771 40.1772 6.4681L41.0659 10.6399C41.0963 10.7825 41.2076 10.8939 41.3502 10.9245L45.514 11.8171C45.9038 11.9006 45.9038 12.4568 45.514 12.5403L41.3502 13.4329C41.2076 13.4635 41.0963 13.5749 41.0659 13.7175L40.1772 17.8893C40.0941 18.2797 39.5369 18.2797 39.4538 17.8893L38.565 13.7175C38.5347 13.5749 38.4234 13.4635 38.2808 13.4329L34.117 12.5403C33.7272 12.4568 33.7272 11.9006 34.117 11.8171L38.2808 10.9245C38.4234 10.8939 38.5347 10.7825 38.565 10.6399L39.4538 6.4681Z" fill="white"/>
<path d="M12.799 36.6602C12.8457 36.4411 13.1585 36.4411 13.2052 36.6602L13.7042 39.0022C13.7212 39.0823 13.7837 39.1448 13.8637 39.162L16.2014 39.663C16.4202 39.7099 16.4202 40.0222 16.2014 40.0691L13.8637 40.5701C13.7837 40.5873 13.7212 40.6498 13.7042 40.7299L13.2052 43.0719C13.1585 43.291 12.8457 43.291 12.799 43.0719L12.3001 40.7299C12.283 40.6498 12.2205 40.5873 12.1405 40.5701L9.80282 40.0691C9.58399 40.0222 9.58399 39.7099 9.80282 39.663L12.1405 39.162C12.2205 39.1448 12.283 39.0823 12.3001 39.0022L12.799 36.6602Z" fill="white"/>
<path d="M13.2198 4.50132C13.3299 3.72078 14.3198 3.45469 14.8042 4.07542L19.9748 10.7015C20.2195 11.0151 20.6415 11.1286 21.0098 10.9797L28.7901 7.83491C29.5189 7.54031 30.2436 8.26729 29.9499 8.99849L26.8152 16.8037C26.6668 17.1731 26.7799 17.5965 27.0925 17.842L33.6974 23.0291C34.3162 23.515 34.0509 24.5081 33.2729 24.6186L24.9675 25.7977C24.5744 25.8535 24.2655 26.1634 24.2099 26.5578L23.0345 34.8897C22.9244 35.6702 21.9345 35.9363 21.4501 35.3156L16.2796 28.6895C16.0348 28.3759 15.6129 28.2625 15.2446 28.4113L7.4643 31.5561C6.73544 31.8507 6.01078 31.1237 6.30444 30.3925L9.43921 22.5873C9.58758 22.2179 9.47451 21.7945 9.1619 21.549L2.55695 16.3619C1.9382 15.876 2.20344 14.8829 2.98149 14.7724L11.2868 13.5933C11.6799 13.5375 11.9888 13.2276 12.0445 12.8332L13.2198 4.50132Z" fill="white"/>
<path d="M43.2258 41.9546C44.0354 42.7667 44.0354 44.0838 43.2258 44.896C42.4163 45.7081 41.1037 45.7081 40.2942 44.896L26.7249 31.2827L27.0911 28.6909L29.6428 28.3276L43.2258 41.9546ZM15.2649 16.8452C16.0744 16.0332 17.387 16.0332 18.1965 16.8452L26.8557 25.5317L24.967 25.8003C24.5742 25.8562 24.266 26.166 24.2102 26.5601L23.9377 28.4868L15.2649 19.7866C14.4553 18.9745 14.4553 17.6574 15.2649 16.8452Z" fill="white"/>
</svg>