<svg xmlns="http://www.w3.org/2000/svg" xmlns:xlink="http://www.w3.org/1999/xlink" style="width:100%;height:100%;" viewBox="0 0 55 55">
<rect x="0.65" y="0.65" width="53.3" height="53.3" rx="12.35" fill="#1C0C28"/>
<rect x="0.65" y="0.65" width="53.3" height="53.3" rx="12.35" stroke="#0D0817" stroke-width="1.3"/>
<g clip-path="url(#svg-2097856341_3355_clip0_46_22)">
<g clip-path="url(#svg-2097856341_3355_clip1_46_22)">
<path fill-rule="evenodd" clip-rule="evenodd" d="M34.4201 33.2299C34.4214 33.4665 34.346 33.5341 34.1159 33.5289C33.4639 33.511 32.8114 33.5123 32.1594 33.5328C31.8318 33.5458 31.7343 33.4613 31.7382 33.1207C31.7577 31.6543 31.746 30.1866 31.7486 28.7189C31.7486 28.3159 31.7226 27.9181 31.5744 27.5385C31.3235 26.8989 30.8919 26.466 30.1756 26.4023C29.4151 26.336 28.8626 26.6831 28.4882 27.3253C28.2425 27.7465 28.1866 28.2158 28.1879 28.6968C28.1905 30.1788 28.1801 31.6608 28.197 33.1428C28.2009 33.4626 28.1034 33.5419 27.7979 33.5315C27.1459 33.5123 26.4935 33.5118 25.8414 33.5302C25.5918 33.5354 25.5164 33.4613 25.5164 33.2065C25.5229 30.1541 25.5229 27.1004 25.5164 24.048C25.5164 23.8296 25.5619 23.7308 25.8089 23.736C26.5044 23.7516 27.2012 23.7516 27.898 23.736C28.1385 23.7321 28.2022 23.8192 28.1931 24.0441C28.1775 24.4094 28.1892 24.776 28.1892 25.2375C29.2214 23.9609 30.4642 23.5423 31.941 23.84C33.371 24.1286 34.3551 25.4156 34.3967 27.1394C34.4448 29.1674 34.4097 31.1993 34.4201 33.2299ZM22.4029 22.5998C22.1987 22.6007 21.9963 22.5608 21.8076 22.4825C21.619 22.4042 21.4478 22.289 21.3043 22.1437C21.1607 21.9985 21.0475 21.826 20.9714 21.6364C20.8953 21.4469 20.8578 21.244 20.8611 21.0398C20.8604 20.6272 21.0232 20.2311 21.3139 19.9382C21.6046 19.6454 21.9994 19.4796 22.412 19.4772C22.8243 19.482 23.2179 19.6499 23.5066 19.9443C23.7953 20.2386 23.9556 20.6353 23.9525 21.0476C23.9551 21.2519 23.9169 21.4547 23.8399 21.6441C23.763 21.8334 23.649 22.0054 23.5046 22.1501C23.3603 22.2947 23.1884 22.409 22.9992 22.4862C22.81 22.5634 22.6073 22.6021 22.4029 22.5998ZM23.361 33.5328C22.711 33.5068 22.0571 33.5159 21.4058 33.5289C21.1718 33.5328 21.0678 33.4899 21.0678 33.2182C21.0769 30.1671 21.0756 27.1173 21.0678 24.0662C21.0678 23.8205 21.1263 23.7282 21.3876 23.736C22.0532 23.7529 22.7214 23.7568 23.3857 23.7347C23.6925 23.723 23.7497 23.8374 23.7471 24.1143C23.7354 25.6249 23.7419 27.1342 23.7419 28.6461C23.7419 30.1411 23.7328 31.6374 23.7484 33.1337C23.7523 33.4379 23.6821 33.5445 23.361 33.5328ZM37.9275 20.1948C37.8664 19.7086 37.8586 19.2094 37.5895 18.7752C36.7224 17.3673 35.5251 16.5652 33.8078 16.5743C29.4658 16.5964 25.1212 16.5743 20.7779 16.5899C20.1253 16.5912 19.4532 16.6133 18.8617 16.963C17.4148 17.8197 16.5659 19.017 16.575 20.7707C16.5958 25.1283 16.575 29.4859 16.5893 33.8448C16.5919 34.4597 16.601 35.1019 16.9221 35.6544C17.6826 36.9635 18.6836 37.9346 20.3281 37.9294C20.3749 37.9294 20.4113 37.9515 20.4516 37.971H34.1484C34.2238 37.9034 34.3174 37.9372 34.4032 37.9268C34.8946 37.8657 35.4042 37.8618 35.841 37.5797C37.063 36.7906 37.96 35.7948 37.934 34.2231C37.934 34.1958 37.9522 34.1711 37.973 34.1477V20.4509C37.9119 20.3729 37.9379 20.2819 37.9275 20.1948Z" fill="white"/>
</g>
</g>
<defs>
<clipPath id="svg-2097856341_3355_clip0_46_22">
<rect width="28.6" height="28.6" fill="white" transform="translate(13 13)"/>
</clipPath>
<clipPath id="svg-2097856341_3355_clip1_46_22">
<rect width="28.6" height="28.6" fill="white" transform="translate(13 13)"/>
</clipPath>
</defs>
</svg>