<svg xmlns="http://www.w3.org/2000/svg" xmlns:xlink="http://www.w3.org/1999/xlink" style="width:100%;height:100%;" viewBox="0 0 23 22">
<path d="M18.487 3.0043C18.526 2.82179 18.7864 2.82179 18.8254 3.0043L19.2421 4.9543C19.2564 5.021 19.3085 5.07311 19.3752 5.08736L21.3252 5.50406C21.5077 5.54307 21.5077 5.80351 21.3252 5.84251L19.3752 6.25922C19.3085 6.27347 19.2564 6.32558 19.2421 6.39228L18.8254 8.34228C18.7864 8.52479 18.526 8.52479 18.487 8.34228L18.0703 6.39228C18.056 6.32558 18.0039 6.27347 17.9372 6.25922L15.9872 5.84251C15.8047 5.80351 15.8047 5.54307 15.9872 5.50406L17.9372 5.08736C18.0039 5.07311 18.056 5.021 18.0703 4.9543L18.487 3.0043Z" fill="#5D007E"/>
<path d="M6.0042 17.1081C6.0261 17.0057 6.17231 17.0057 6.19421 17.1081L6.42815 18.2029C6.43615 18.2403 6.4654 18.2696 6.50285 18.2776L7.59758 18.5115C7.70005 18.5334 7.70005 18.6796 7.59759 18.7015L6.50285 18.9355C6.4654 18.9435 6.43615 18.9727 6.42815 19.0102L6.19421 20.1049C6.17231 20.2074 6.0261 20.2074 6.0042 20.1049L5.77026 19.0102C5.76226 18.9727 5.73301 18.9435 5.69556 18.9355L4.60082 18.7015C4.49836 18.6796 4.49836 18.5334 4.60082 18.5115L5.69556 18.2776C5.73301 18.2696 5.76226 18.2403 5.77026 18.2029L6.0042 17.1081Z" fill="#5D007E"/>
<path d="M6.19505 2.08652C6.24665 1.72192 6.71054 1.59762 6.93753 1.88758L9.36055 4.98278C9.47523 5.12927 9.67298 5.18226 9.84555 5.11273L13.4915 3.64372C13.8331 3.5061 14.1727 3.8457 14.0351 4.18725L12.5661 7.83325C12.4965 8.00582 12.5495 8.20357 12.696 8.31825L15.7912 10.7413C16.0812 10.9683 15.9569 11.4321 15.5923 11.4837L11.7002 12.0345C11.516 12.0606 11.3713 12.2054 11.3452 12.3896L10.7944 16.2816C10.7428 16.6462 10.2789 16.7705 10.0519 16.4806L7.62891 13.3854C7.51422 13.2389 7.31647 13.1859 7.1439 13.2554L3.49791 14.7244C3.15635 14.862 2.81676 14.5224 2.95438 14.1809L4.42339 10.5349C4.49292 10.3623 4.43993 10.1646 4.29343 10.0499L1.19823 7.62687C0.908274 7.39989 1.03257 6.936 1.39718 6.8844L5.28921 6.3336C5.47342 6.30753 5.61819 6.16277 5.64425 5.97855L6.19505 2.08652Z" fill="#5D007E"/>
<path fill-rule="evenodd" clip-rule="evenodd" d="M12.5839 11.9112L8.5256 7.8529C8.14622 7.47351 7.53111 7.47351 7.15173 7.8529C6.77234 8.23228 6.77234 8.84739 7.15173 9.22677L11.2196 13.2947L11.3475 12.391C11.3736 12.2068 11.5184 12.062 11.7026 12.036L12.5839 11.9112ZM13.8902 13.2175L12.6978 13.3863L12.5259 14.601L18.8813 20.9563C19.2607 21.3357 19.8758 21.3357 20.2551 20.9563C20.6345 20.5769 20.6345 19.9618 20.2551 19.5824L13.8902 13.2175Z" fill="#5D007E"/>
</svg>