<svg xmlns="http://www.w3.org/2000/svg" xmlns:xlink="http://www.w3.org/1999/xlink" style="width:100%;height:100%;" viewBox="0 0 39 39">
<path fill-rule="evenodd" clip-rule="evenodd" d="M19.5322 0.765244C9.23948 0.799684 0.90625 9.15418 0.90625 19.455C0.90625 20.1432 0.943443 20.8227 1.01593 21.4916L19.5322 0.765244ZM2.97025 28.0012L19.5324 9.4623V0.765243C19.5325 0.765243 19.5325 0.765243 19.5326 0.765242V9.4623L36.1753 28.0913C35.3367 29.6978 34.2715 31.1672 33.0221 32.4571L19.5326 17.3577V38.1448C19.5325 38.1448 19.5325 38.1448 19.5324 38.1448V17.3577L6.10416 32.3886C4.85999 31.0911 3.80117 29.6145 2.97025 28.0012ZM38.1622 21.6181C38.2439 20.9084 38.286 20.1866 38.286 19.455C38.286 9.13287 29.9182 0.765137 19.5961 0.765137C19.575 0.765137 19.5539 0.765172 19.5328 0.765242L38.1622 21.6181Z" fill="black"/>
</svg>