<svg xmlns="http://www.w3.org/2000/svg" xmlns:xlink="http://www.w3.org/1999/xlink" style="width:100%;height:100%;" viewBox="0 0 22 19">
<path fill-rule="evenodd" clip-rule="evenodd" d="M0.063085 12.3611L10.718 0.434506V0.434146C4.79516 0.454298 0 5.2619 0 11.1895C0 11.5854 0.0213926 11.9763 0.063085 12.3611ZM1.18765 16.1073C1.66581 17.0357 2.27513 17.8855 2.99111 18.6322L10.718 9.98309V9.98238L10.7183 9.98273L10.7186 9.98238V9.98309L18.4812 18.6721C19.2002 17.9299 19.8133 17.0843 20.2959 16.1598L10.7183 5.43914L1.18765 16.1073ZM21.4394 12.4349C21.4866 12.0263 21.5108 11.6107 21.5108 11.1895C21.5108 5.24943 16.6954 0.434082 10.7554 0.434082C10.7431 0.434082 10.7309 0.434103 10.7186 0.434143V0.434506L21.4394 12.4349ZM10.7183 0.434145C10.7183 0.434145 10.7183 0.434145 10.7183 0.434145L10.7183 0.434154L10.7183 0.434145Z" fill="black"/>
</svg>