<svg xmlns="http://www.w3.org/2000/svg" xmlns:xlink="http://www.w3.org/1999/xlink" style="width:100%;height:100%;" viewBox="0 0 29 26">
<path d="M23.5399 3.49811C23.5886 3.28553 23.8914 3.28553 23.9401 3.49811L24.4858 5.87865C24.5038 5.95746 24.5665 6.01833 24.6458 6.03413L27.1335 6.52979C27.3538 6.57367 27.3538 6.8886 27.1335 6.93249L24.6458 7.42814C24.5665 7.44394 24.5038 7.50481 24.4858 7.58362L23.9401 9.96416C23.8914 10.1767 23.5886 10.1767 23.5399 9.96416L22.9943 7.58362C22.9762 7.50481 22.9136 7.44394 22.8343 7.42814L20.3465 6.93249C20.1263 6.8886 20.1263 6.57367 20.3465 6.52979L22.8343 6.03413C22.9136 6.01833 22.9762 5.95746 22.9943 5.87865L23.5399 3.49811Z" fill="#E7E8E9"/>
<path d="M7.64137 20.2612C7.66872 20.1418 7.83871 20.1418 7.86606 20.2612L8.17238 21.5976C8.18252 21.6419 8.21769 21.676 8.2622 21.6849L9.65883 21.9632C9.78248 21.9878 9.78248 22.1646 9.65883 22.1892L8.2622 22.4675C8.21769 22.4764 8.18252 22.5105 8.17238 22.5548L7.86606 23.8912C7.83871 24.0106 7.66872 24.0106 7.64137 23.8912L7.33506 22.5548C7.32492 22.5105 7.28975 22.4764 7.24523 22.4675L5.8486 22.1892C5.72495 22.1646 5.72495 21.9878 5.8486 21.9632L7.24523 21.6849C7.28975 21.676 7.32492 21.6419 7.33506 21.5976L7.64137 20.2612Z" fill="#E7E8E9"/>
<path d="M7.88339 2.47599C7.94905 2.04341 8.53937 1.89594 8.82822 2.23996L11.9116 5.91222C12.0575 6.08603 12.3092 6.1489 12.5288 6.06641L17.1684 4.32351C17.603 4.16024 18.0352 4.56315 17.8601 4.96838L15.9907 9.29414C15.9022 9.49888 15.9696 9.7335 16.1561 9.86957L20.0948 12.7443C20.4638 13.0136 20.3056 13.564 19.8416 13.6252L14.8889 14.2787C14.6545 14.3097 14.4703 14.4814 14.4371 14.7L13.7362 19.3176C13.6705 19.7502 13.0802 19.8977 12.7914 19.5537L9.70801 15.8814C9.56207 15.7076 9.31043 15.6447 9.09083 15.7272L4.45119 17.4701C4.01655 17.6334 3.58441 17.2305 3.75953 16.8252L5.62889 12.4995C5.71737 12.2947 5.64994 12.0601 5.46352 11.9241L1.52479 9.04929C1.15581 8.77998 1.31398 8.2296 1.77795 8.16838L6.73068 7.5149C6.96509 7.48397 7.14931 7.31221 7.18248 7.09365L7.88339 2.47599Z" fill="#E7E8E9"/>
<path fill-rule="evenodd" clip-rule="evenodd" d="M16.0165 14.1312L10.8526 9.31659C10.3698 8.86647 9.58705 8.86647 9.10427 9.31659C8.62149 9.76671 8.62149 10.4965 9.10427 10.9466L14.2754 15.7679L14.4373 14.7012C14.4705 14.4826 14.6547 14.3109 14.8891 14.2799L16.0165 14.1312ZM17.6788 15.681L16.1556 15.882L15.9377 17.3177L24.0305 24.863C24.5132 25.3131 25.296 25.3131 25.7788 24.863C26.2615 24.4129 26.2615 23.6831 25.7788 23.233L17.6788 15.681Z" fill="#E7E8E9"/>
</svg>