<svg xmlns="http://www.w3.org/2000/svg" xmlns:xlink="http://www.w3.org/1999/xlink" style="width:100%;height:100%;" viewBox="0 0 26 25">
<path d="M21.4038 3.47738C21.4489 3.26613 21.7504 3.26614 21.7955 3.47739L22.2778 5.73446C22.2943 5.81166 22.3546 5.87197 22.4318 5.88847L24.6889 6.37079C24.9002 6.41594 24.9002 6.71739 24.6889 6.76254L22.4318 7.24486C22.3546 7.26136 22.2943 7.32167 22.2778 7.39887L21.7955 9.65595C21.7504 9.86719 21.4489 9.86719 21.4038 9.65594L20.9214 7.39887C20.9049 7.32167 20.8446 7.26136 20.7674 7.24486L18.5103 6.76254C18.2991 6.71739 18.2991 6.41594 18.5103 6.37079L20.7674 5.88847C20.8446 5.87197 20.9049 5.81166 20.9214 5.73445L21.4038 3.47738Z" fill="#E7E8E9"/>
<path d="M6.94364 19.8022C6.96898 19.6836 7.13822 19.6836 7.16356 19.8022L7.43434 21.0693C7.4436 21.1126 7.47746 21.1465 7.5208 21.1558L8.78793 21.4265C8.90653 21.4519 8.90653 21.6211 8.78793 21.6465L7.5208 21.9173C7.47746 21.9265 7.4436 21.9604 7.43434 22.0037L7.16356 23.2708C7.13822 23.3894 6.96898 23.3894 6.94364 23.2708L6.67286 22.0037C6.6636 21.9604 6.62974 21.9265 6.58639 21.9173L5.31927 21.6465C5.20067 21.6211 5.20067 21.4519 5.31927 21.4265L6.58639 21.1558C6.62974 21.1465 6.6636 21.1126 6.67286 21.0693L6.94364 19.8022Z" fill="#E7E8E9"/>
<path d="M7.17059 2.41539C7.23031 1.99336 7.76725 1.84949 8.02999 2.18511L10.8346 5.76771C10.9673 5.93728 11.1962 5.99861 11.3959 5.91813L15.6161 4.2178C16.0114 4.05851 16.4045 4.45158 16.2452 4.84692L14.5449 9.06705C14.4644 9.26679 14.5257 9.49568 14.6953 9.62843L18.2779 12.433C18.6135 12.6957 18.4696 13.2327 18.0476 13.2924L13.5427 13.9299C13.3295 13.9601 13.1619 14.1277 13.1317 14.3409L12.4942 18.8458C12.4345 19.2678 11.8975 19.4117 11.6348 19.0761L8.83023 15.4935C8.69749 15.3239 8.4686 15.2626 8.26886 15.343L4.04873 17.0434C3.65338 17.2027 3.26032 16.8096 3.4196 16.4143L5.11994 12.1941C5.20042 11.9944 5.13909 11.7655 4.96952 11.6328L1.38692 8.82818C1.0513 8.56545 1.19517 8.02851 1.61719 7.96878L6.1221 7.33125C6.33532 7.30108 6.50288 7.13352 6.53306 6.92029L7.17059 2.41539Z" fill="#E7E8E9"/>
<path fill-rule="evenodd" clip-rule="evenodd" d="M14.5622 13.7869L9.86488 9.0896C9.42575 8.65047 8.71379 8.65047 8.27466 9.0896C7.83553 9.52873 7.83553 10.2407 8.27466 10.6798L12.9808 15.386L13.1285 14.3426C13.1586 14.1294 13.3262 13.9618 13.5394 13.9316L14.5622 13.7869ZM16.0742 15.2989L14.6914 15.4946L14.4928 16.898L21.8513 24.2564C22.2904 24.6955 23.0023 24.6955 23.4415 24.2564C23.8806 23.8173 23.8806 23.1053 23.4415 22.6662L16.0742 15.2989Z" fill="#E7E8E9"/>
</svg>