<svg xmlns="http://www.w3.org/2000/svg" xmlns:xlink="http://www.w3.org/1999/xlink" style="width:100%;height:100%;" viewBox="0 0 979 1023">
<path d="M225.706 380.57H201.018V406.218M225.706 380.57V406.218H250.394M225.706 380.57H250.394M201.018 406.218H225.705V431.866V457.514V483.162V508.81V534.458V560.106V585.754V611.402V637.05V662.698V688.346H250.394M201.018 406.218V431.866M250.394 380.57V406.218M250.394 380.57H275.083M250.394 406.218H275.083M250.394 406.218V431.866M201.018 431.866H225.706H250.394M201.018 431.866V457.514M275.083 380.57V406.218M275.083 380.57H299.77M275.083 406.218H299.77M275.083 406.218L275.081 431.866M250.394 431.866H275.081M250.394 431.866V457.514M299.77 380.57V406.218M299.77 380.57H324.459M299.77 406.218H324.459M299.77 406.218V431.866M275.081 431.866H299.77M275.081 431.866V457.514M324.459 380.57V406.218M324.459 380.57H349.145M324.459 406.218H349.145M324.459 406.218L324.457 431.866M299.77 431.866H324.457M299.77 431.866V457.514M349.145 380.57V406.218M349.145 380.57H373.833M349.145 406.218H373.833M349.145 406.218V431.866M324.457 431.866H349.145M324.457 431.866V457.514M373.833 380.57V406.218M373.833 380.57H398.521M373.833 406.218H398.521M373.833 406.218V431.866M349.145 431.866H373.833M349.145 431.866V457.514M398.521 380.57V406.218M398.521 380.57H423.21M398.521 406.218H423.21M398.521 406.218V431.866M373.833 431.866H398.521M373.833 431.866V457.514M423.21 380.57V406.218M423.21 380.57H447.897M423.21 406.218H447.897M423.21 406.218V431.866M398.521 431.866H423.21M398.521 431.866V457.514M447.897 380.57V406.218M447.897 380.57H472.586M447.897 406.218H472.586M447.897 406.218V431.866M423.21 431.866H447.897M423.21 431.866V457.514M472.586 380.57V406.218M472.586 380.57H497.273M472.586 406.218H497.273M472.586 406.218V431.866M447.897 431.866H472.586M447.897 431.866V457.514M497.273 380.57V406.218M497.273 380.57H521.96M497.273 406.218H521.96M497.273 406.218V431.866M472.586 431.866H497.273M472.586 431.866V457.514M521.96 380.57V406.218M521.96 380.57H546.649M521.96 406.218H546.649M521.96 406.218V431.866M497.273 431.866H521.96M497.273 431.866V457.514M546.649 380.57V406.218M546.649 380.57H571.337M546.649 406.218H571.337M546.649 406.218V431.866M521.96 431.866H546.649M521.96 431.866V457.514M571.337 380.57V406.218M571.337 380.57H596.025M571.337 406.218H596.025M571.337 406.218V431.866M546.649 431.866H571.337M546.649 431.866V457.514M596.025 380.57V406.218M596.025 380.57H620.713V406.218M596.025 406.218H620.713M596.025 406.218V431.866M571.337 431.866H596.025M571.337 431.866V457.514M620.713 406.218V431.866M596.025 431.866H620.713M596.025 431.866V457.514M620.713 431.866V457.514M201.018 457.514H225.706H250.394M201.018 457.514V483.162M250.394 457.514H275.081M250.394 457.514V483.162M275.081 457.514H299.77M275.081 457.514V483.162M299.77 457.514H324.457M299.77 457.514V483.162M324.457 457.514H349.145M324.457 457.514V483.162M349.145 457.514H373.833M349.145 457.514V483.162M373.833 457.514H398.521M373.833 457.514V483.162M398.521 457.514H423.21M398.521 457.514V483.162M423.21 457.514H447.897M423.21 457.514V483.162M447.897 457.514H472.586M447.897 457.514V483.162M472.586 457.514H497.273M472.586 457.514V483.162M497.273 457.514H521.96M497.273 457.514V483.162M521.96 457.514H546.649M521.96 457.514V483.162M546.649 457.514H571.337M546.649 457.514V483.162M571.337 457.514H596.025M571.337 457.514V483.162M596.025 457.514H620.713M596.025 457.514V483.162M620.713 457.514V483.162M201.018 483.162H225.706H250.394M201.018 483.162V508.81M250.394 483.162H275.081M250.394 483.162V508.81M275.081 483.162H299.77M275.081 483.162V508.81M299.77 483.162H324.457M299.77 483.162V508.81M324.457 483.162H349.145M324.457 483.162V508.81M349.145 483.162H373.833M349.145 483.162V508.81M373.833 483.162H398.521M373.833 483.162V508.81M398.521 483.162H423.21M398.521 483.162V508.81M423.21 483.162H447.897M423.21 483.162V508.81M447.897 483.162H472.586M447.897 483.162V508.81M472.586 483.162H497.273M472.586 483.162V508.81M497.273 483.162H521.96M497.273 483.162V508.81M521.96 483.162H546.649M521.96 483.162V508.81M546.649 483.162H571.337M546.649 483.162V508.81M571.337 483.162H596.025M571.337 483.162V508.81M596.025 483.162H620.713M596.025 483.162V508.81M620.713 483.162V508.81M201.018 508.81H225.706H250.394M201.018 508.81V534.458M250.394 508.81H275.081M250.394 508.81V534.458M275.081 508.81H299.77M275.081 508.81V534.458M299.77 508.81H324.457M299.77 508.81V534.458M324.457 508.81H349.145M324.457 508.81V534.458M349.145 508.81H373.833M349.145 508.81V534.458M373.833 508.81H398.521M373.833 508.81V534.458M398.521 508.81H423.21M398.521 508.81V534.458M423.21 508.81H447.897M423.21 508.81V534.458M447.897 508.81H472.586M447.897 508.81V534.458M472.586 508.81H497.273M472.586 508.81V534.458M497.273 508.81H521.96M497.273 508.81V534.458M521.96 508.81H546.649M521.96 508.81V534.458M546.649 508.81H571.337M546.649 508.81V534.458M571.337 508.81H596.025M571.337 508.81V534.458M596.025 508.81H620.713M596.025 508.81V534.458M620.713 508.81V534.458M201.018 534.458H225.706H250.394M201.018 534.458V560.106M250.394 534.458H275.081M250.394 534.458V560.106M275.081 534.458H299.77M275.081 534.458V560.106M299.77 534.458H324.457M299.77 534.458V560.106M324.457 534.458H349.145M324.457 534.458V560.106M349.145 534.458H373.833M349.145 534.458V560.106M373.833 534.458H398.521M373.833 534.458V560.106M398.521 534.458H423.21M398.521 534.458V560.106M423.21 534.458H447.897M423.21 534.458V560.106M447.897 534.458H472.586M447.897 534.458V560.106M472.586 534.458H497.273M472.586 534.458V560.106M497.273 534.458H521.96M497.273 534.458V560.106M521.96 534.458H546.649M521.96 534.458V560.106M546.649 534.458H571.337M546.649 534.458V560.106M571.337 534.458H596.025M571.337 534.458V560.106M596.025 534.458H620.713M596.025 534.458V560.106M620.713 534.458V560.106M201.018 560.106H225.706H250.394M201.018 560.106V585.754M250.394 560.106H275.081M250.394 560.106V585.754M275.081 560.106H299.77M275.081 560.106V585.754M299.77 560.106H324.457M299.77 560.106V585.754M324.457 560.106H349.145M324.457 560.106V585.754M349.145 560.106H373.833M349.145 560.106V585.754M373.833 560.106H398.521M373.833 560.106V585.754M398.521 560.106H423.21M398.521 560.106V585.754M423.21 560.106H447.897M423.21 560.106V585.754M447.897 560.106H472.586M447.897 560.106V585.754M472.586 560.106H497.273M472.586 560.106V585.754M497.273 560.106H521.96M497.273 560.106V585.754M521.96 560.106H546.649M521.96 560.106V585.754M546.649 560.106H571.337M546.649 560.106V585.754M571.337 560.106H596.025M571.337 560.106V585.754M596.025 560.106H620.713M596.025 560.106V585.754M620.713 560.106V585.754M201.018 585.754H225.706H250.394M201.018 585.754V611.402M250.394 585.754H275.081M250.394 585.754V611.402M275.081 585.754H299.77M275.081 585.754V611.402M299.77 585.754H324.457M299.77 585.754V611.402M324.457 585.754H349.145M324.457 585.754V611.402M349.145 585.754H373.833M349.145 585.754V611.402M373.833 585.754H398.521M373.833 585.754V611.402M398.521 585.754H423.21M398.521 585.754V611.402M423.21 585.754H447.897M423.21 585.754V611.402M447.897 585.754H472.586M447.897 585.754V611.402M472.586 585.754H497.273M472.586 585.754V611.402M497.273 585.754H521.96M497.273 585.754V611.402M521.96 585.754H546.649M521.96 585.754V611.402M546.649 585.754H571.337M546.649 585.754V611.402M571.337 585.754H596.025M571.337 585.754V611.402M596.025 585.754H620.713M596.025 585.754V611.402M620.713 585.754V611.402M201.018 611.402H225.706H250.394M201.018 611.402V637.05M250.394 611.402H275.081M250.394 611.402V637.05M275.081 611.402H299.77M275.081 611.402V637.05M299.77 611.402H324.457M299.77 611.402V637.05M324.457 611.402H349.145M324.457 611.402V637.05M349.145 611.402H373.833M349.145 611.402V637.05M373.833 611.402H398.521M373.833 611.402V637.05M398.521 611.402H423.21M398.521 611.402V637.05M423.21 611.402H447.897M423.21 611.402V637.05M447.897 611.402H472.586M447.897 611.402V637.05M472.586 611.402H497.273M472.586 611.402V637.05M497.273 611.402H521.96M497.273 611.402V637.05M521.96 611.402H546.649M521.96 611.402V637.05M546.649 611.402H571.337M546.649 611.402V637.05M571.337 611.402H596.025M571.337 611.402V637.05M596.025 611.402H620.713M596.025 611.402V637.05M620.713 611.402V637.05M201.018 637.05H225.706H250.394M201.018 637.05V662.698M250.394 637.05H275.081M250.394 637.05V662.698M275.081 637.05H299.77M275.081 637.05V662.698M299.77 637.05H324.457M299.77 637.05V662.698M324.457 637.05H349.145M324.457 637.05V662.698M349.145 637.05H373.833M349.145 637.05V662.698M373.833 637.05H398.521M373.833 637.05V662.698M398.521 637.05H423.21M398.521 637.05V662.698M423.21 637.05H447.897M423.21 637.05V662.698M447.897 637.05H472.586M447.897 637.05V662.698M472.586 637.05H497.273M472.586 637.05V662.698M497.273 637.05H521.96M497.273 637.05V662.698M521.96 637.05H546.649M521.96 637.05V662.698M546.649 637.05H571.337M546.649 637.05V662.698M571.337 637.05H596.025M571.337 637.05V662.698M596.025 637.05H620.713M596.025 637.05V662.698M620.713 637.05V662.698M201.018 662.698H225.706H250.394M201.018 662.698V688.346H225.706M250.394 662.698H275.081M250.394 662.698V688.346M275.081 662.698H299.77M275.081 662.698V688.346M299.77 662.698H324.457M299.77 662.698V688.346M324.457 662.698H349.145M324.457 662.698V688.346M349.145 662.698H373.833M349.145 662.698V688.346M373.833 662.698H398.521M373.833 662.698V688.346M398.521 662.698H423.21M398.521 662.698V688.346M423.21 662.698H447.897M423.21 662.698V688.346M447.897 662.698H472.586M447.897 662.698V688.346M472.586 662.698H497.273M472.586 662.698V688.346M497.273 662.698H521.96M497.273 662.698V688.346M521.96 662.698H546.649M521.96 662.698V688.346M546.649 662.698H571.337M546.649 662.698V688.346M571.337 662.698H596.025M571.337 662.698V688.346M596.025 662.698H620.713M596.025 662.698V688.346M620.713 662.698V688.346H596.025M250.394 688.346H275.081M275.081 688.346H299.77M299.77 688.346H324.457M324.457 688.346H349.145M349.145 688.346H373.833M373.833 688.346H398.521M398.521 688.346H423.21M423.21 688.346H447.897M447.897 688.346H472.586M472.586 688.346H497.273M497.273 688.346H521.96M521.96 688.346H546.649M546.649 688.346H571.337M571.337 688.346H596.025" stroke="url(#svg292299869_11117_paint0_radial_21_3891)" stroke-opacity="0.1" stroke-width="1.33237"/>
<g filter="url(#svg292299869_11117_filter0_f_21_3891)">
<path d="M440.858 666.059L0.00012207 76.5111L128.356 0L465.433 649.958L440.858 666.059Z" fill="url(#svg292299869_11117_paint1_linear_21_3891)" fill-opacity="0.5"/>
</g>
<defs>
<filter id="svg292299869_11117_filter0_f_21_3891" x="-110.093" y="-110.093" width="685.619" height="886.245" filterUnits="userSpaceOnUse" color-interpolation-filters="sRGB">
<feFlood flood-opacity="0" result="BackgroundImageFix"/>
<feBlend mode="normal" in="SourceGraphic" in2="BackgroundImageFix" result="shape"/>
<feGaussianBlur stdDeviation="55.0467" result="effect1_foregroundBlur_21_3891"/>
</filter>
<radialGradient id="svg292299869_11117_paint0_radial_21_3891" cx="0" cy="0" r="1" gradientUnits="userSpaceOnUse" gradientTransform="translate(201.018 285.971) rotate(62.438) scale(453.516 655.686)">
<stop stop-color="#10B981"/>
<stop offset="0.884" stop-color="#10B981" stop-opacity="0"/>
</radialGradient>
<linearGradient id="svg292299869_11117_paint1_linear_21_3891" x1="187.742" y1="391.466" x2="316.097" y2="314.955" gradientUnits="userSpaceOnUse">
<stop stop-color="#C156E6"/>
<stop offset="1" stop-color="#C156E6"/>
</linearGradient>
</defs>
</svg>