<svg xmlns="http://www.w3.org/2000/svg" xmlns:xlink="http://www.w3.org/1999/xlink" viewBox="0 0 110 68"><path d="M 16.098 61 C 7.207 61 0 56.629 0 51.238 L 0 15.762 C 0 10.371 7.207 6 16.098 6 L 93.902 6 C 102.793 6 110 10.371 110 15.762 L 110 51.238 C 110 56.629 102.793 61 93.902 61 Z" fill="rgb(12, 12, 45)"></path><g transform="translate(31 16)"><path d="M 0 0 L 48 0 L 48 35.451 L 0 35.451 Z" fill="transparent"></path><path d="M 5.87 21.594 L 5.87 27.043 L 4.972 27.043 L 1.381 21.93 L 1.381 26.235 C 1.381 26.37 1.381 26.437 1.45 26.504 C 1.519 26.572 1.589 26.572 1.657 26.572 L 2.21 26.572 L 2.21 26.975 L 0.001 26.975 L 0.001 26.572 L 0.483 26.572 C 0.552 26.572 0.621 26.572 0.691 26.504 C 0.76 26.437 0.76 26.37 0.76 26.235 L 0.76 21.526 C 0.76 21.392 0.76 21.324 0.691 21.257 C 0.621 21.19 0.552 21.19 0.484 21.19 L 0 21.19 L 0 20.786 L 2.003 20.786 L 5.318 25.428 L 5.318 21.526 C 5.318 21.392 5.318 21.324 5.249 21.257 C 5.18 21.19 5.111 21.19 5.042 21.19 L 4.489 21.19 L 4.489 20.786 L 6.63 20.786 L 6.63 21.19 L 6.216 21.19 C 6.147 21.19 6.078 21.19 6.009 21.257 C 5.94 21.393 5.87 21.459 5.87 21.594 Z M 7.322 20.786 L 10.154 20.786 L 10.154 21.19 L 9.671 21.19 C 9.602 21.19 9.532 21.19 9.463 21.257 C 9.394 21.324 9.394 21.393 9.394 21.526 L 9.394 26.235 C 9.394 26.37 9.394 26.437 9.463 26.504 C 9.532 26.572 9.602 26.572 9.67 26.572 L 10.154 26.572 L 10.154 26.975 L 7.322 26.975 L 7.322 26.572 L 7.806 26.572 C 7.875 26.572 7.944 26.572 8.012 26.504 C 8.082 26.437 8.082 26.37 8.082 26.235 L 8.082 21.526 C 8.082 21.392 8.082 21.324 8.013 21.257 C 7.944 21.19 7.875 21.19 7.806 21.19 L 7.322 21.19 Z M 10.842 21.19 L 10.842 20.786 L 13.95 20.786 C 14.848 20.786 15.54 20.921 15.953 21.257 C 16.368 21.526 16.644 21.997 16.644 22.535 C 16.644 22.872 16.506 23.208 16.299 23.477 C 16.092 23.746 15.746 23.948 15.263 24.083 C 15.676 24.15 15.954 24.352 16.229 24.554 C 16.436 24.756 16.575 25.092 16.575 25.428 L 16.575 26.1 C 16.575 26.302 16.575 26.437 16.644 26.504 C 16.713 26.572 16.782 26.639 16.851 26.639 C 16.92 26.639 16.989 26.639 17.058 26.572 C 17.127 26.504 17.127 26.37 17.127 26.235 L 17.127 25.697 L 17.611 25.697 L 17.611 26.235 C 17.611 26.572 17.541 26.774 17.335 26.975 C 17.127 27.11 16.851 27.245 16.506 27.245 C 16.16 27.245 15.885 27.177 15.677 26.975 C 15.47 26.841 15.331 26.504 15.331 26.1 L 15.331 25.562 C 15.331 25.092 15.194 24.756 14.986 24.553 C 14.71 24.285 14.295 24.217 13.812 24.217 L 12.914 24.217 L 12.914 26.302 C 12.914 26.437 12.914 26.504 12.984 26.572 C 13.052 26.639 13.121 26.639 13.19 26.639 L 13.674 26.639 L 13.674 27.043 L 10.842 27.043 L 10.842 26.639 L 11.326 26.639 C 11.395 26.639 11.464 26.639 11.533 26.572 C 11.602 26.504 11.602 26.437 11.602 26.302 L 11.602 21.594 C 11.602 21.459 11.602 21.392 11.533 21.324 C 11.464 21.257 11.395 21.257 11.326 21.257 L 10.842 21.257 Z M 13.536 21.19 L 12.845 21.19 L 12.845 23.746 L 13.536 23.746 C 14.019 23.746 14.365 23.679 14.572 23.611 C 14.848 23.477 14.986 23.343 15.125 23.208 C 15.263 23.007 15.263 22.805 15.263 22.535 C 15.263 22.267 15.194 21.997 15.125 21.795 C 14.99 21.588 14.798 21.424 14.572 21.324 C 14.365 21.257 14.019 21.19 13.536 21.19 Z M 24.518 26.302 L 24.518 21.459 L 22.515 27.11 L 21.617 27.11 L 19.546 21.459 L 19.546 26.302 C 19.546 26.437 19.546 26.504 19.615 26.572 C 19.684 26.638 19.753 26.638 19.821 26.638 L 20.375 26.638 L 20.375 27.042 L 18.165 27.042 L 18.165 26.638 L 18.648 26.638 C 18.717 26.638 18.855 26.638 18.855 26.572 C 18.924 26.504 18.924 26.437 18.924 26.302 L 18.924 21.594 C 18.924 21.459 18.924 21.392 18.855 21.324 C 18.786 21.257 18.717 21.257 18.648 21.257 L 18.164 21.257 L 18.164 20.854 L 20.583 20.854 L 22.379 25.764 L 24.174 20.853 L 26.592 20.853 L 26.592 21.257 L 26.108 21.257 C 26.038 21.257 25.969 21.257 25.901 21.324 C 25.832 21.392 25.832 21.459 25.832 21.594 L 25.832 26.302 C 25.832 26.437 25.832 26.504 25.901 26.572 C 25.969 26.638 26.038 26.638 26.108 26.638 L 26.592 26.638 L 26.592 27.042 L 23.759 27.042 L 23.759 26.638 L 24.174 26.638 C 24.243 26.638 24.312 26.638 24.381 26.572 C 24.45 26.504 24.519 26.37 24.519 26.302 Z M 27.833 26.168 L 29.835 20.786 L 31.079 20.786 L 33.082 26.1 C 33.151 26.302 33.22 26.437 33.288 26.504 C 33.358 26.572 33.428 26.639 33.565 26.639 L 33.842 26.639 L 33.842 27.043 L 30.941 27.043 L 30.941 26.639 L 31.424 26.639 C 31.562 26.639 31.632 26.572 31.701 26.504 C 31.77 26.437 31.77 26.302 31.701 26.168 L 31.286 24.957 L 28.869 24.957 L 28.385 26.235 C 28.316 26.37 28.316 26.504 28.385 26.572 C 28.454 26.639 28.523 26.639 28.593 26.639 L 29.076 26.639 L 29.076 27.043 L 27.004 27.043 L 27.004 26.639 L 27.419 26.639 C 27.556 26.639 27.625 26.572 27.695 26.504 C 27.695 26.504 27.764 26.37 27.833 26.168 Z M 28.937 24.621 L 31.079 24.621 L 29.975 21.594 L 28.938 24.621 Z M 34.879 26.168 L 36.882 20.786 L 38.126 20.786 L 40.128 26.1 C 40.198 26.302 40.267 26.437 40.335 26.504 C 40.405 26.572 40.473 26.639 40.612 26.639 L 41.026 26.639 L 41.026 27.043 L 37.987 27.043 L 37.987 26.639 L 38.47 26.639 C 38.608 26.639 38.677 26.572 38.746 26.504 C 38.816 26.437 38.816 26.302 38.746 26.168 L 38.332 24.957 L 35.915 24.957 L 35.431 26.235 C 35.362 26.37 35.362 26.504 35.431 26.572 C 35.5 26.639 35.569 26.639 35.638 26.639 L 36.122 26.639 L 36.122 27.043 L 34.05 27.043 L 34.05 26.639 L 34.465 26.639 C 34.602 26.639 34.671 26.572 34.74 26.504 C 34.74 26.504 34.81 26.37 34.879 26.168 Z M 35.984 24.621 L 38.126 24.621 L 37.021 21.594 L 35.985 24.621 Z M 47.172 21.594 L 47.172 27.043 L 46.274 27.043 L 42.682 21.93 L 42.682 26.235 C 42.682 26.37 42.682 26.437 42.752 26.504 C 42.821 26.572 42.889 26.572 42.958 26.572 L 43.512 26.572 L 43.512 26.975 L 41.301 26.975 L 41.301 26.572 L 41.784 26.572 C 41.853 26.572 41.922 26.572 41.99 26.504 C 42.06 26.437 42.06 26.37 42.06 26.235 L 42.06 21.526 C 42.06 21.392 42.06 21.324 41.991 21.257 C 41.922 21.19 41.853 21.19 41.784 21.19 L 41.301 21.19 L 41.301 20.786 L 43.303 20.786 L 46.618 25.428 L 46.618 21.526 C 46.618 21.392 46.618 21.324 46.549 21.257 C 46.481 21.19 46.411 21.19 46.342 21.19 L 45.79 21.19 L 45.79 20.786 L 47.931 20.786 L 47.931 21.19 L 47.447 21.19 C 47.378 21.19 47.309 21.19 47.24 21.257 C 47.24 21.393 47.171 21.459 47.171 21.594 Z M 14.23 32.626 L 13.47 35.383 L 12.849 35.383 L 12.227 33.231 L 11.606 35.384 L 10.984 35.384 L 10.225 32.626 C 10.225 32.558 10.155 32.491 10.155 32.424 C 10.155 32.357 10.086 32.357 10.017 32.357 L 9.811 32.357 L 9.811 32.155 L 11.26 32.155 L 11.26 32.356 L 11.054 32.356 C 10.984 32.356 10.984 32.356 10.915 32.424 L 10.915 32.559 L 11.537 34.845 L 12.158 32.76 L 12.089 32.626 C 12.089 32.558 12.02 32.491 12.02 32.424 C 12.02 32.357 11.951 32.357 11.882 32.357 L 11.675 32.357 L 11.675 32.155 L 13.056 32.155 L 13.056 32.356 L 12.85 32.356 C 12.78 32.356 12.78 32.356 12.71 32.424 L 12.71 32.559 L 13.332 34.779 L 13.954 32.558 L 13.954 32.356 C 13.954 32.356 13.885 32.29 13.816 32.29 L 13.609 32.29 L 13.609 32.088 L 14.645 32.088 L 14.645 32.29 L 14.437 32.29 C 14.368 32.29 14.368 32.29 14.299 32.356 C 14.299 32.491 14.23 32.558 14.23 32.626 Z M 20.447 33.769 C 20.452 34.073 20.381 34.374 20.24 34.643 C 20.112 34.89 19.921 35.099 19.687 35.249 C 19.408 35.387 19.1 35.456 18.789 35.451 C 18.444 35.451 18.168 35.384 17.891 35.249 C 17.615 35.115 17.477 34.913 17.339 34.644 C 17.198 34.375 17.127 34.074 17.132 33.77 C 17.132 33.433 17.201 33.164 17.339 32.895 C 17.477 32.626 17.685 32.491 17.891 32.29 C 18.168 32.154 18.444 32.088 18.789 32.088 C 19.135 32.088 19.411 32.155 19.687 32.29 C 19.964 32.425 20.101 32.626 20.239 32.895 C 20.378 33.164 20.447 33.501 20.447 33.769 Z M 17.823 33.769 C 17.823 34.241 17.892 34.577 18.099 34.845 C 18.237 35.115 18.513 35.182 18.79 35.182 C 19.066 35.182 19.342 35.047 19.48 34.845 C 19.661 34.516 19.756 34.145 19.756 33.769 C 19.756 33.299 19.687 32.962 19.48 32.693 C 19.341 32.424 19.066 32.356 18.789 32.356 C 18.444 32.356 18.237 32.491 18.099 32.693 C 17.892 32.962 17.823 33.299 17.823 33.769 Z M 23.208 32.424 L 23.208 32.222 L 24.798 32.222 C 25.28 32.222 25.626 32.29 25.833 32.424 C 26.04 32.559 26.178 32.761 26.178 33.029 C 26.178 33.231 26.109 33.366 25.972 33.501 C 25.833 33.635 25.695 33.703 25.419 33.769 C 25.626 33.837 25.764 33.904 25.903 34.039 C 26.04 34.174 26.04 34.307 26.04 34.509 L 26.04 34.846 C 26.04 34.98 26.04 35.048 26.109 35.048 C 26.109 35.115 26.178 35.115 26.247 35.115 C 26.317 35.115 26.317 35.115 26.317 35.048 C 26.317 35.048 26.386 34.98 26.386 34.913 L 26.386 34.644 L 26.592 34.644 L 26.592 34.98 C 26.592 35.115 26.524 35.249 26.455 35.317 C 26.386 35.384 26.248 35.452 26.04 35.452 C 25.833 35.452 25.695 35.384 25.626 35.317 C 25.488 35.25 25.488 35.115 25.488 34.846 L 25.488 34.577 C 25.488 34.307 25.419 34.173 25.281 34.039 C 25.109 33.954 24.92 33.908 24.728 33.904 L 24.245 33.904 L 24.245 34.98 C 24.245 35.048 24.245 35.115 24.314 35.115 C 24.314 35.115 24.383 35.182 24.452 35.182 L 24.659 35.182 L 24.659 35.384 L 23.208 35.384 L 23.208 35.182 L 23.485 35.182 C 23.554 35.182 23.554 35.182 23.623 35.115 C 23.623 35.115 23.692 35.048 23.692 34.98 L 23.692 32.559 C 23.692 32.491 23.692 32.424 23.623 32.424 C 23.623 32.424 23.554 32.357 23.485 32.357 L 23.208 32.357 Z M 24.59 32.424 L 24.245 32.424 L 24.245 33.769 L 24.59 33.769 C 24.797 33.769 25.005 33.769 25.143 33.703 C 25.28 33.635 25.349 33.567 25.419 33.501 C 25.488 33.433 25.488 33.299 25.488 33.164 C 25.488 33.029 25.488 32.895 25.419 32.828 C 25.349 32.761 25.28 32.626 25.143 32.626 C 25.005 32.424 24.797 32.424 24.59 32.424 Z M 30.667 35.181 L 30.667 35.384 L 29.286 35.384 L 29.286 35.182 L 29.562 35.182 C 29.63 35.182 29.63 35.182 29.7 35.115 C 29.7 35.115 29.769 35.047 29.769 34.98 L 29.769 32.559 C 29.769 32.492 29.769 32.425 29.7 32.425 C 29.7 32.425 29.63 32.357 29.562 32.357 L 29.286 32.357 L 29.286 32.155 L 30.736 32.155 L 30.736 32.357 L 30.459 32.357 C 30.39 32.357 30.39 32.357 30.321 32.425 C 30.321 32.425 30.252 32.492 30.252 32.56 L 30.252 33.77 L 31.496 32.626 C 31.565 32.559 31.634 32.491 31.634 32.425 C 31.634 32.357 31.565 32.357 31.496 32.357 L 31.219 32.357 L 31.219 32.155 L 32.6 32.155 L 32.6 32.357 L 32.255 32.357 C 32.186 32.357 32.117 32.425 32.049 32.492 C 31.979 32.559 31.841 32.626 31.703 32.761 L 31.219 33.232 L 32.186 34.779 C 32.255 34.914 32.325 34.981 32.393 35.048 C 32.463 35.115 32.531 35.115 32.6 35.115 L 32.739 35.115 L 32.739 35.317 L 31.219 35.317 L 31.219 35.115 L 31.426 35.115 C 31.496 35.115 31.565 35.115 31.565 35.048 C 31.565 34.981 31.565 34.914 31.496 34.846 L 30.736 33.568 L 30.253 34.039 L 30.253 34.981 C 30.253 35.048 30.253 35.115 30.321 35.115 C 30.321 35.115 30.39 35.183 30.459 35.183 L 30.667 35.183 Z M 38.197 34.509 C 38.197 34.711 38.127 34.913 38.058 35.048 C 37.92 35.182 37.783 35.317 37.644 35.384 C 37.448 35.468 37.237 35.514 37.023 35.519 C 36.746 35.519 36.539 35.451 36.331 35.384 C 36.125 35.317 35.986 35.182 35.779 34.98 L 35.71 35.451 L 35.434 35.451 L 35.434 34.307 L 35.71 34.307 C 35.779 34.509 35.848 34.644 35.917 34.779 C 36.056 34.914 36.194 35.048 36.332 35.115 C 36.47 35.182 36.677 35.25 36.885 35.25 C 37.023 35.25 37.16 35.25 37.229 35.182 C 37.299 35.115 37.437 35.115 37.437 34.98 C 37.506 34.913 37.506 34.779 37.506 34.711 C 37.506 34.577 37.506 34.509 37.437 34.442 C 37.358 34.359 37.264 34.291 37.16 34.241 C 36.991 34.147 36.801 34.101 36.608 34.105 C 36.47 34.039 36.263 34.039 36.125 33.971 C 35.986 33.904 35.848 33.836 35.779 33.769 C 35.657 33.717 35.559 33.621 35.503 33.501 C 35.434 33.366 35.434 33.299 35.434 33.164 C 35.434 32.962 35.503 32.828 35.572 32.693 C 35.661 32.531 35.81 32.41 35.986 32.357 C 36.193 32.29 36.332 32.222 36.539 32.222 C 36.746 32.222 36.954 32.29 37.16 32.357 C 37.368 32.424 37.506 32.559 37.644 32.693 L 37.713 32.29 L 37.989 32.29 L 37.989 33.299 L 37.713 33.299 C 37.644 33.029 37.506 32.828 37.299 32.693 C 37.095 32.556 36.853 32.486 36.608 32.491 C 36.47 32.491 36.401 32.491 36.263 32.559 C 36.194 32.626 36.125 32.626 36.056 32.693 C 35.986 32.761 35.986 32.828 35.986 32.962 C 35.986 33.097 35.986 33.165 36.056 33.232 C 36.125 33.299 36.194 33.366 36.332 33.433 C 36.47 33.501 36.608 33.568 36.815 33.568 C 37.022 33.635 37.16 33.703 37.368 33.703 L 37.783 33.904 C 37.905 33.956 38.003 34.052 38.058 34.173 C 38.197 34.241 38.197 34.308 38.197 34.509 Z M 23.968 0 L 21.137 5.987 L 23.969 11.1 L 26.87 5.987 Z M 15.198 2.758 L 16.51 9.283 L 21.898 11.705 L 21.137 5.987 L 15.198 2.758 Z M 9.81 10.09 L 14.713 14.53 L 20.584 13.454 L 16.509 9.283 Z M 38.195 10.09 L 31.496 9.283 L 27.42 13.454 L 33.291 14.53 L 38.194 10.09 Z" fill="rgb(255,255,255)"></path><path d="M 32.808 2.758 L 26.869 5.988 L 26.109 11.706 L 31.496 9.285 L 32.808 2.759 Z" fill="rgb(255,255,255)"></path></g></svg>