<svg xmlns="http://www.w3.org/2000/svg" xmlns:xlink="http://www.w3.org/1999/xlink" viewBox="0 0 155 67"><path d="M 12 67 C 5.373 67 0 61.627 0 55 L 0 12 C 0 5.373 5.373 0 12 0 L 142.85 0 C 149.477 0 154.85 5.373 154.85 12 L 154.85 55 C 154.85 61.627 149.477 67 142.85 67 Z" fill="rgb(12, 12, 45)"></path><path d="M 26.042 25.186 C 26.052 25.186 26.061 25.186 26.071 25.186 C 30.914 25.186 34.84 29.116 34.841 33.965 C 34.841 34.308 34.821 34.647 34.783 34.98 Z M 33.849 38.022 C 33.456 38.776 32.956 39.466 32.37 40.072 L 26.041 32.98 L 19.74 40.041 C 19.156 39.432 18.659 38.738 18.269 37.981 L 26.042 29.271 L 33.85 38.022 Z M 17.352 34.923 C 17.318 34.608 17.301 34.288 17.301 33.965 C 17.301 29.126 21.212 25.201 26.041 25.186 Z" fill="rgb(255,255,255)"></path><path d="M 25.869 41.644 C 26.956 41.644 27.837 40.762 27.837 39.674 C 27.837 38.585 26.956 37.703 25.869 37.703 C 24.782 37.703 23.9 38.585 23.9 39.674 C 23.9 40.762 24.782 41.644 25.869 41.644 Z" fill="rgb(255,255,255)"></path><path d="M 41.549 38.921 L 41.549 27.598 L 46.349 27.598 C 47.316 27.598 48.099 27.738 48.697 28.019 C 49.307 28.291 49.751 28.668 50.031 29.152 C 50.322 29.626 50.467 30.177 50.467 30.806 C 50.467 31.522 50.278 32.142 49.901 32.664 C 49.525 33.186 48.968 33.559 48.233 33.781 L 50.771 38.834 L 50.771 38.92 L 48.189 38.92 L 45.883 34.13 L 43.955 34.13 L 43.955 38.92 L 41.548 38.92 Z M 43.956 32.36 L 46.001 32.36 C 46.63 32.36 47.117 32.253 47.466 32.04 C 47.824 31.828 48.003 31.445 48.003 30.893 C 48.003 30.34 47.825 29.949 47.466 29.745 C 47.109 29.533 46.62 29.426 46.001 29.426 L 43.956 29.426 L 43.956 32.358 Z M 55.747 39.139 C 54.375 39.139 53.326 38.728 52.6 37.905 C 51.885 37.083 51.527 35.965 51.527 34.552 C 51.527 33.603 51.687 32.79 52.005 32.113 C 52.333 31.436 52.807 30.913 53.426 30.544 C 54.055 30.177 54.819 29.993 55.717 29.993 C 57.013 29.993 58.003 30.385 58.69 31.17 C 59.386 31.954 59.734 33.105 59.734 34.624 L 59.734 35.118 L 53.818 35.118 C 53.866 35.854 54.055 36.434 54.383 36.861 C 54.722 37.277 55.176 37.484 55.746 37.484 C 56.201 37.484 56.562 37.349 56.833 37.079 C 57.114 36.807 57.297 36.493 57.384 36.135 L 59.617 36.135 C 59.531 36.667 59.337 37.161 59.037 37.616 C 58.737 38.071 58.316 38.439 57.775 38.72 C 57.234 39.001 56.558 39.141 55.746 39.141 Z M 53.819 33.637 L 57.444 33.637 C 57.406 32.979 57.241 32.471 56.951 32.113 C 56.661 31.745 56.246 31.562 55.703 31.562 C 55.161 31.562 54.742 31.736 54.413 32.084 C 54.094 32.423 53.896 32.941 53.819 33.637 Z M 61.25 38.921 L 61.25 30.211 L 63.598 30.211 L 63.598 38.921 Z M 62.425 29.209 C 62.01 29.209 61.695 29.102 61.482 28.89 C 61.27 28.668 61.163 28.381 61.163 28.033 C 61.163 27.684 61.27 27.404 61.482 27.191 C 61.695 26.969 62.01 26.856 62.425 26.856 C 62.839 26.856 63.154 26.968 63.367 27.191 C 63.579 27.404 63.686 27.684 63.686 28.033 C 63.686 28.381 63.579 28.666 63.367 28.89 C 63.154 29.102 62.839 29.209 62.425 29.209 Z M 68.654 39.095 C 67.861 39.095 67.209 38.902 66.696 38.514 C 66.184 38.118 65.802 37.575 65.55 36.888 C 65.299 36.201 65.173 35.422 65.173 34.55 C 65.173 33.678 65.299 32.861 65.55 32.184 C 65.811 31.507 66.197 30.979 66.71 30.602 C 67.231 30.225 67.879 30.036 68.653 30.036 C 69.224 30.036 69.687 30.137 70.045 30.34 C 70.412 30.543 70.703 30.819 70.915 31.168 L 71.263 31.168 L 71.263 27.306 L 73.611 27.306 L 73.611 38.92 L 71.437 38.92 L 71.437 37.787 L 71.089 37.787 C 70.886 38.155 70.591 38.465 70.204 38.717 C 69.818 38.968 69.301 39.094 68.653 39.094 Z M 69.321 37.441 C 69.911 37.441 70.38 37.184 70.727 36.671 C 71.085 36.149 71.264 35.447 71.264 34.567 C 71.264 33.687 71.085 32.975 70.727 32.463 C 70.38 31.95 69.911 31.693 69.321 31.693 C 68.79 31.693 68.369 31.935 68.06 32.419 C 67.76 32.893 67.611 33.609 67.611 34.567 C 67.611 35.525 67.76 36.246 68.06 36.73 C 68.369 37.205 68.79 37.442 69.321 37.442 Z M 75.763 38.921 L 75.763 30.211 L 78.111 30.211 L 78.111 38.921 Z M 76.938 29.209 C 76.521 29.209 76.208 29.102 75.996 28.89 C 75.783 28.668 75.676 28.381 75.676 28.033 C 75.676 27.684 75.783 27.404 75.996 27.191 C 76.208 26.969 76.523 26.856 76.938 26.856 C 77.353 26.856 77.668 26.968 77.88 27.191 C 78.092 27.404 78.199 27.684 78.199 28.033 C 78.199 28.381 78.092 28.666 77.88 28.89 C 77.668 29.102 77.353 29.209 76.938 29.209 Z M 83.08 39.139 C 82.113 39.139 81.383 38.835 80.89 38.225 C 80.397 37.615 80.151 36.788 80.151 35.742 L 80.151 30.211 L 82.499 30.211 L 82.499 35.35 C 82.499 35.941 82.606 36.4 82.818 36.729 C 83.03 37.058 83.374 37.223 83.848 37.223 C 84.418 37.223 84.859 37 85.168 36.555 C 85.478 36.109 85.632 35.562 85.632 34.914 L 85.632 30.21 L 87.981 30.21 L 87.981 38.92 L 85.864 38.92 L 85.864 37.613 L 85.516 37.613 C 85.371 38.049 85.105 38.411 84.719 38.702 C 84.333 38.992 83.786 39.138 83.08 39.138 Z M 93.371 39.139 C 92.404 39.139 91.63 38.99 91.051 38.689 C 90.481 38.38 90.06 37.993 89.79 37.528 C 89.528 37.063 89.379 36.599 89.341 36.134 L 91.574 36.134 C 91.622 36.385 91.723 36.618 91.878 36.83 C 92.043 37.033 92.255 37.194 92.516 37.31 C 92.788 37.427 93.111 37.484 93.487 37.484 C 93.952 37.484 94.284 37.408 94.488 37.253 C 94.691 37.088 94.792 36.88 94.792 36.629 C 94.792 36.397 94.695 36.202 94.502 36.048 C 94.319 35.883 94.013 35.734 93.589 35.598 L 92.545 35.25 C 92.043 35.076 91.578 34.886 91.152 34.683 C 90.727 34.471 90.384 34.199 90.123 33.87 C 89.871 33.541 89.746 33.115 89.746 32.593 C 89.746 31.818 90.04 31.194 90.631 30.72 C 91.221 30.236 92.056 29.995 93.139 29.995 C 93.923 29.995 94.561 30.115 95.054 30.358 C 95.556 30.599 95.933 30.924 96.185 31.33 C 96.437 31.726 96.581 32.168 96.621 32.652 L 94.475 32.652 C 94.427 32.303 94.282 32.037 94.039 31.854 C 93.798 31.66 93.469 31.563 93.053 31.563 C 92.677 31.563 92.39 31.636 92.197 31.781 C 92.014 31.926 91.922 32.125 91.922 32.376 C 91.922 32.627 92.023 32.835 92.226 33 C 92.429 33.164 92.738 33.314 93.155 33.45 L 94.198 33.784 C 94.701 33.939 95.159 34.123 95.576 34.335 C 96.002 34.538 96.34 34.81 96.59 35.148 C 96.842 35.477 96.967 35.908 96.967 36.44 C 96.967 37.253 96.658 37.905 96.039 38.399 C 95.429 38.892 94.54 39.139 93.371 39.139 Z M 101.894 38.921 L 101.894 27.598 L 104.33 27.598 L 104.33 38.921 Z M 106.504 38.921 L 106.504 30.211 L 108.678 30.211 L 108.678 31.518 L 109.026 31.518 C 109.2 31.082 109.466 30.72 109.823 30.429 C 110.19 30.139 110.727 29.993 111.432 29.993 C 112.399 29.993 113.124 30.298 113.607 30.908 C 114.09 31.518 114.331 32.344 114.331 33.391 L 114.331 38.921 L 111.983 38.921 L 111.983 33.783 C 111.983 33.182 111.876 32.723 111.664 32.403 C 111.452 32.074 111.104 31.91 110.62 31.91 C 110.059 31.91 109.625 32.132 109.315 32.578 C 109.006 33.014 108.851 33.561 108.851 34.219 L 108.851 38.923 L 106.502 38.923 Z M 116.94 38.921 L 116.94 31.866 L 115.723 31.866 L 115.723 30.211 L 116.94 30.211 L 116.94 29.689 C 116.94 29.186 117.028 28.755 117.202 28.397 C 117.385 28.04 117.685 27.764 118.101 27.569 C 118.527 27.376 119.103 27.279 119.827 27.279 C 120.108 27.279 120.383 27.294 120.654 27.323 L 120.654 28.92 C 120.509 28.891 120.34 28.876 120.146 28.876 C 119.817 28.876 119.58 28.949 119.435 29.094 C 119.3 29.23 119.233 29.457 119.233 29.777 L 119.233 30.213 L 120.654 30.213 L 120.654 31.867 L 119.233 31.867 L 119.233 38.923 L 116.942 38.923 Z M 122.126 38.921 L 122.126 30.211 L 124.272 30.211 L 124.272 31.809 L 124.62 31.809 C 124.677 31.518 124.784 31.248 124.939 30.996 C 125.103 30.734 125.35 30.527 125.679 30.372 C 126.007 30.207 126.447 30.125 126.999 30.125 L 127.463 30.125 L 127.463 32.245 L 126.825 32.245 C 126.003 32.245 125.403 32.453 125.027 32.868 C 124.66 33.285 124.476 33.909 124.476 34.741 L 124.476 38.923 L 122.128 38.923 Z M 131.638 39.095 C 130.826 39.095 130.159 38.902 129.638 38.514 C 129.116 38.118 128.728 37.575 128.478 36.888 C 128.226 36.201 128.101 35.422 128.101 34.55 C 128.101 33.678 128.227 32.861 128.478 32.184 C 128.739 31.507 129.131 30.979 129.653 30.602 C 130.174 30.225 130.832 30.036 131.625 30.036 C 132.234 30.036 132.731 30.156 133.119 30.399 C 133.516 30.631 133.814 30.946 134.018 31.342 L 134.366 31.342 L 134.366 30.21 L 136.541 30.21 L 136.541 38.92 L 134.366 38.92 L 134.366 37.787 L 134.018 37.787 C 133.816 38.155 133.52 38.465 133.134 38.717 C 132.748 38.968 132.249 39.094 131.64 39.094 Z M 132.248 37.441 C 132.838 37.441 133.306 37.184 133.654 36.671 C 134.011 36.149 134.191 35.447 134.191 34.567 C 134.191 33.687 134.011 32.975 133.654 32.463 C 133.306 31.95 132.837 31.693 132.248 31.693 C 131.716 31.693 131.296 31.935 130.986 32.419 C 130.687 32.893 130.537 33.609 130.537 34.567 C 130.537 35.525 130.687 36.246 130.986 36.73 C 131.296 37.205 131.716 37.442 132.248 37.442 Z" fill="rgb(255,255,255)"></path></svg>