<svg xmlns="http://www.w3.org/2000/svg" xmlns:xlink="http://www.w3.org/1999/xlink" viewBox="0 0 92 55"><path d="M 13.463 55 C 6.028 55 0 50.629 0 45.238 L 0 9.762 C 0 4.371 6.028 0 13.463 0 L 78.537 0 C 85.972 0 92 4.371 92 9.762 L 92 45.238 C 92 50.629 85.972 55 78.537 55 Z" fill="rgb(12, 12, 45)"></path><path d="M 31.891 28.485 L 31.891 19.933 L 34.597 19.933 C 35.167 19.933 35.659 20.038 36.073 20.249 C 36.479 20.446 36.821 20.755 37.057 21.14 C 37.291 21.514 37.408 21.959 37.408 22.475 C 37.408 23.037 37.264 23.533 36.975 23.963 C 36.703 24.385 36.3 24.706 35.827 24.876 L 37.526 28.485 L 35.886 28.485 L 34.398 25.088 L 33.355 25.088 L 33.355 28.485 Z M 33.355 23.799 L 34.597 23.799 C 35.011 23.799 35.335 23.686 35.569 23.459 C 35.804 23.233 35.921 22.92 35.921 22.522 C 35.921 22.116 35.804 21.799 35.569 21.573 C 35.335 21.338 35.011 21.222 34.597 21.222 L 33.355 21.222 Z M 41.54 28.602 C 40.993 28.602 40.516 28.501 40.11 28.297 C 39.725 28.098 39.404 27.794 39.185 27.419 C 38.974 27.036 38.869 26.587 38.869 26.071 L 38.869 22.347 C 38.869 21.831 38.974 21.386 39.185 21.011 C 39.399 20.633 39.721 20.327 40.11 20.133 C 40.516 19.921 40.993 19.816 41.54 19.816 C 42.094 19.816 42.57 19.921 42.969 20.133 C 43.367 20.335 43.672 20.629 43.883 21.011 C 44.101 21.386 44.21 21.827 44.21 22.335 L 44.21 26.072 C 44.21 26.588 44.101 27.037 43.883 27.42 C 43.671 27.796 43.353 28.101 42.969 28.298 C 42.57 28.501 42.094 28.602 41.54 28.602 Z M 41.54 27.314 C 41.938 27.314 42.239 27.208 42.441 26.997 C 42.645 26.779 42.747 26.47 42.747 26.072 L 42.747 22.346 C 42.747 21.939 42.645 21.631 42.441 21.42 C 42.239 21.21 41.938 21.104 41.54 21.104 C 41.141 21.104 40.841 21.209 40.637 21.42 C 40.434 21.631 40.333 21.939 40.333 22.346 L 40.333 26.071 C 40.333 26.47 40.434 26.777 40.637 26.997 C 40.848 27.207 41.15 27.313 41.54 27.313 Z M 45.893 28.485 L 45.893 19.933 L 47.685 19.933 L 50.064 26.845 L 49.982 25.966 C 49.958 25.619 49.938 25.271 49.923 24.923 C 49.908 24.611 49.901 24.299 49.9 23.987 L 49.9 19.933 L 51.235 19.933 L 51.235 28.485 L 49.443 28.485 L 47.088 21.573 C 47.104 21.799 47.123 22.073 47.147 22.393 C 47.17 22.713 47.19 23.041 47.205 23.377 C 47.221 23.713 47.229 24.022 47.229 24.302 L 47.229 28.485 Z M 52.485 28.485 L 54.64 19.933 L 56.526 19.933 L 58.693 28.485 L 57.194 28.485 L 56.725 26.411 L 54.452 26.411 L 53.983 28.485 Z M 54.722 25.217 L 56.456 25.217 L 55.941 22.92 C 55.854 22.538 55.78 22.194 55.718 21.889 C 55.655 21.577 55.612 21.35 55.589 21.21 C 55.565 21.35 55.522 21.577 55.46 21.889 C 55.397 22.231 55.323 22.571 55.237 22.908 Z M 59.989 28.485 L 59.989 19.933 L 61.453 19.933 L 61.453 23.389 L 62.473 23.389 L 64.078 19.933 L 65.671 19.933 L 63.761 24.033 L 65.765 28.485 L 64.137 28.485 L 62.45 24.724 L 61.454 24.724 L 61.454 28.485 Z M 31.946 37.109 L 31.946 36.37 L 33.288 36.37 L 33.288 31.271 L 31.946 31.271 L 31.946 30.533 L 35.459 30.533 L 35.459 31.271 L 34.117 31.271 L 34.117 36.37 L 35.459 36.37 L 35.459 37.109 L 31.946 37.109 Z M 37.213 37.109 L 37.213 30.532 L 38.294 30.532 L 40.303 36.163 L 40.257 35.613 L 40.221 34.919 C 40.216 34.688 40.213 34.457 40.213 34.226 L 40.213 30.532 L 40.996 30.532 L 40.996 37.109 L 39.915 37.109 L 37.916 31.478 C 37.948 31.892 37.969 32.306 37.979 32.721 C 37.99 32.962 37.996 33.193 37.996 33.415 L 37.996 37.109 Z M 42.66 37.109 L 42.66 30.523 L 46.534 30.523 L 46.534 31.262 L 43.453 31.262 L 43.453 33.451 L 46.299 33.451 L 46.299 34.19 L 43.47 34.19 L 43.47 37.109 Z M 48.035 37.109 L 48.035 30.532 L 50.07 30.532 C 50.461 30.532 50.803 30.613 51.098 30.776 C 51.392 30.932 51.621 31.151 51.782 31.433 C 51.944 31.716 52.025 32.046 52.025 32.424 C 52.025 32.869 51.908 33.25 51.674 33.568 C 51.446 33.886 51.134 34.106 50.737 34.226 L 52.116 37.109 L 51.161 37.109 L 49.9 34.316 L 48.846 34.316 L 48.846 37.109 L 48.035 37.109 Z M 48.845 33.587 L 50.07 33.587 C 50.407 33.587 50.677 33.481 50.882 33.271 C 51.086 33.055 51.188 32.773 51.188 32.424 C 51.188 32.07 51.085 31.788 50.882 31.578 C 50.677 31.368 50.407 31.262 50.07 31.262 L 48.846 31.262 L 48.846 33.587 Z M 53.059 37.109 L 54.77 30.532 L 55.86 30.532 L 57.563 37.109 L 56.743 37.109 L 56.311 35.361 L 54.32 35.361 L 53.887 37.109 Z M 54.482 34.676 L 56.139 34.676 L 55.635 32.65 C 55.554 32.33 55.479 32.008 55.41 31.685 C 55.356 31.427 55.323 31.259 55.311 31.181 C 55.281 31.35 55.248 31.518 55.212 31.686 C 55.158 31.944 55.082 32.262 54.987 32.64 Z M 26.941 19.603 L 29.64 19.603 L 29.64 37.032 L 26.941 37.032 Z" fill="rgb(255,255,255)" opacity="0.9"></path></svg>