<svg xmlns="http://www.w3.org/2000/svg" xmlns:xlink="http://www.w3.org/1999/xlink" viewBox="0 0 97.208 40.102" overflow="visible"><g><path d="M 41.98 6.84 L 40 6.84 C 40.673 2.96 43.951 0.012 47.9 0 Z M 50.47 6.84 L 45.329 6.84 L 47.9 3.87 Z M 47.928 0 C 51.888 0 55.178 2.952 55.853 6.84 L 53.82 6.84 L 47.9 0 L 47.927 0 Z" fill="rgb(255,255,255)"></path><path d="M 0.114 20.199 L 0.114 8.752 L 5.02 8.752 C 6.008 8.752 6.809 8.893 7.42 9.177 C 8.044 9.452 8.497 9.833 8.784 10.322 C 9.081 10.802 9.229 11.359 9.229 11.995 C 9.229 12.719 9.036 13.345 8.651 13.873 C 8.266 14.401 7.698 14.778 6.946 15.003 L 9.54 20.111 L 9.54 20.198 L 6.901 20.198 L 4.544 15.355 L 2.574 15.355 L 2.574 20.198 L 0.112 20.198 L 0.113 20.199 Z M 2.574 13.566 L 4.664 13.566 C 5.307 13.566 5.805 13.457 6.162 13.243 C 6.528 13.028 6.711 12.641 6.711 12.083 C 6.711 11.523 6.529 11.129 6.162 10.923 C 5.797 10.708 5.297 10.599 4.665 10.599 L 2.575 10.599 L 2.575 13.566 Z M 14.627 20.42 C 13.224 20.42 12.152 20.004 11.41 19.172 C 10.68 18.341 10.312 17.211 10.312 15.782 C 10.312 14.822 10.476 14.001 10.801 13.316 C 11.116 12.654 11.622 12.102 12.254 11.73 C 12.896 11.359 13.678 11.173 14.596 11.173 C 15.92 11.173 16.932 11.57 17.635 12.363 C 18.345 13.155 18.701 14.32 18.701 15.855 L 18.701 16.355 L 12.654 16.355 C 12.704 17.099 12.896 17.685 13.232 18.116 C 13.578 18.537 14.042 18.746 14.625 18.746 C 15.09 18.746 15.459 18.61 15.736 18.336 C 16.013 18.08 16.208 17.749 16.299 17.383 L 18.582 17.383 C 18.494 17.919 18.292 18.429 17.989 18.88 C 17.682 19.34 17.252 19.711 16.699 19.996 C 16.147 20.28 15.455 20.421 14.625 20.421 Z M 12.656 14.856 L 16.361 14.856 C 16.321 14.191 16.154 13.676 15.857 13.316 C 15.56 12.944 15.136 12.758 14.582 12.758 C 14.027 12.758 13.599 12.934 13.263 13.286 C 12.937 13.628 12.734 14.152 12.656 14.856 Z M 20.251 20.198 L 20.251 11.393 L 22.651 11.393 L 22.651 20.198 Z M 21.451 10.379 C 21.027 10.379 20.706 10.271 20.489 10.056 C 20.272 9.832 20.163 9.542 20.163 9.19 C 20.163 8.838 20.272 8.554 20.489 8.34 C 20.706 8.115 21.027 8 21.452 8 C 21.876 8 22.198 8.113 22.415 8.34 C 22.632 8.554 22.741 8.838 22.741 9.19 C 22.741 9.542 22.631 9.83 22.415 10.056 C 22.198 10.271 21.875 10.379 21.452 10.379 Z M 27.819 20.374 C 27.009 20.374 26.342 20.179 25.817 19.787 C 25.294 19.387 24.903 18.837 24.646 18.143 C 24.39 17.448 24.261 16.661 24.261 15.78 C 24.261 14.898 24.39 14.072 24.646 13.387 C 24.913 12.702 25.308 12.169 25.831 11.787 C 26.365 11.407 27.027 11.215 27.818 11.215 C 28.401 11.215 28.874 11.318 29.241 11.523 C 29.616 11.728 29.913 12.007 30.13 12.36 L 30.485 12.36 L 30.485 8.457 L 32.886 8.457 L 32.886 20.197 L 30.663 20.197 L 30.663 19.053 L 30.308 19.053 C 30.101 19.424 29.798 19.738 29.404 19.993 C 29.009 20.246 28.48 20.373 27.818 20.373 L 27.819 20.375 Z M 28.501 18.701 C 29.104 18.701 29.583 18.442 29.938 17.924 C 30.304 17.396 30.487 16.686 30.487 15.796 C 30.487 14.906 30.304 14.186 29.938 13.669 C 29.583 13.15 29.104 12.891 28.501 12.891 C 27.958 12.891 27.528 13.135 27.211 13.624 C 26.905 14.104 26.752 14.827 26.752 15.796 C 26.752 16.765 26.905 17.494 27.212 17.983 C 27.528 18.463 27.958 18.703 28.501 18.703 Z M 35.085 20.198 L 35.085 11.393 L 37.485 11.393 L 37.485 20.198 Z M 36.286 10.379 C 35.861 10.379 35.54 10.271 35.323 10.056 C 35.106 9.832 34.997 9.542 34.997 9.19 C 34.997 8.838 35.106 8.554 35.323 8.34 C 35.54 8.115 35.862 8 36.286 8 C 36.71 8 37.032 8.113 37.249 8.34 C 37.466 8.554 37.575 8.838 37.575 9.19 C 37.575 9.542 37.466 9.83 37.249 10.056 C 37.032 10.271 36.71 10.379 36.286 10.379 Z M 42.564 20.419 C 41.576 20.419 40.83 20.111 40.326 19.494 C 39.822 18.877 39.57 18.042 39.57 16.984 L 39.57 11.393 L 41.97 11.393 L 41.97 16.588 C 41.97 17.185 42.08 17.649 42.296 17.982 C 42.513 18.315 42.865 18.481 43.349 18.481 C 43.931 18.481 44.382 18.256 44.699 17.806 C 45.015 17.356 45.173 16.802 45.173 16.146 L 45.173 11.391 L 47.573 11.391 L 47.573 20.197 L 45.41 20.197 L 45.41 18.876 L 45.054 18.876 C 44.906 19.316 44.634 19.683 44.239 19.976 C 43.845 20.27 43.286 20.417 42.564 20.417 Z M 53.083 20.419 C 52.095 20.419 51.303 20.268 50.712 19.964 C 50.129 19.651 49.698 19.26 49.422 18.79 C 49.155 18.32 49.002 17.85 48.963 17.38 L 51.246 17.38 C 51.296 17.634 51.399 17.87 51.557 18.084 C 51.725 18.29 51.942 18.452 52.209 18.57 C 52.487 18.687 52.817 18.746 53.202 18.746 C 53.676 18.746 54.016 18.668 54.225 18.511 C 54.423 18.362 54.538 18.128 54.535 17.881 C 54.536 17.649 54.426 17.43 54.239 17.293 C 54.051 17.127 53.739 16.976 53.305 16.838 L 52.239 16.486 C 51.754 16.322 51.279 16.131 50.815 15.914 C 50.408 15.721 50.049 15.44 49.763 15.092 C 49.505 14.759 49.378 14.328 49.378 13.8 C 49.378 13.017 49.678 12.386 50.282 11.907 C 50.885 11.417 51.739 11.174 52.846 11.174 C 53.646 11.174 54.299 11.296 54.803 11.541 C 55.317 11.785 55.702 12.113 55.959 12.524 C 56.217 12.924 56.364 13.371 56.404 13.86 L 54.211 13.86 C 54.162 13.508 54.014 13.239 53.766 13.053 C 53.519 12.858 53.184 12.759 52.758 12.759 C 52.373 12.759 52.081 12.833 51.883 12.979 C 51.697 13.122 51.593 13.347 51.602 13.581 C 51.602 13.835 51.705 14.045 51.912 14.211 C 52.12 14.378 52.436 14.529 52.862 14.666 L 53.928 15.005 C 54.442 15.161 54.911 15.347 55.336 15.562 C 55.772 15.767 56.118 16.042 56.374 16.384 C 56.631 16.716 56.759 17.152 56.759 17.69 C 56.759 18.511 56.442 19.171 55.809 19.67 C 55.187 20.17 54.279 20.419 53.083 20.419 Z M 61.795 20.199 L 61.795 8.751 L 64.285 8.751 L 64.285 20.198 L 61.795 20.198 Z M 66.506 20.199 L 66.506 11.393 L 68.729 11.393 L 68.729 12.713 L 69.085 12.713 C 69.262 12.273 69.534 11.907 69.899 11.613 C 70.274 11.319 70.823 11.173 71.544 11.173 C 72.532 11.173 73.273 11.48 73.767 12.097 C 74.261 12.714 74.507 13.549 74.507 14.607 L 74.507 20.198 L 72.107 20.198 L 72.107 15.003 C 72.107 14.396 71.997 13.932 71.78 13.609 C 71.563 13.276 71.208 13.109 70.714 13.109 C 70.14 13.109 69.696 13.335 69.38 13.785 C 69.064 14.225 68.905 14.779 68.905 15.445 L 68.905 20.2 L 66.505 20.2 L 66.506 20.198 Z M 77.174 20.199 L 77.174 13.066 L 75.929 13.066 L 75.929 11.393 L 77.174 11.393 L 77.174 10.865 C 77.174 10.355 77.264 9.921 77.441 9.559 C 77.629 9.197 77.935 8.919 78.361 8.722 C 78.796 8.526 79.384 8.428 80.124 8.428 C 80.411 8.428 80.693 8.443 80.97 8.472 L 80.97 10.087 C 80.798 10.056 80.624 10.041 80.45 10.043 C 80.114 10.043 79.872 10.116 79.724 10.263 C 79.585 10.4 79.517 10.63 79.517 10.953 L 79.517 11.394 L 80.97 11.394 L 80.97 13.067 L 79.516 13.067 L 79.516 20.2 L 77.174 20.2 L 77.173 20.198 Z M 82.474 20.199 L 82.474 11.393 L 84.668 11.393 L 84.668 13.007 L 85.023 13.007 C 85.083 12.714 85.191 12.441 85.349 12.185 C 85.518 11.921 85.769 11.711 86.105 11.555 C 86.441 11.388 86.891 11.305 87.455 11.305 L 87.929 11.305 L 87.929 13.448 L 87.277 13.448 C 86.437 13.448 85.824 13.658 85.439 14.078 C 85.064 14.5 84.876 15.131 84.876 15.972 L 84.876 20.2 L 82.476 20.2 L 82.474 20.198 Z M 92.197 20.374 C 91.367 20.374 90.685 20.179 90.152 19.787 C 89.619 19.387 89.222 18.837 88.966 18.143 C 88.709 17.448 88.581 16.661 88.581 15.78 C 88.581 14.898 88.711 14.072 88.966 13.387 C 89.234 12.702 89.634 12.169 90.167 11.787 C 90.701 11.407 91.373 11.215 92.183 11.215 C 92.806 11.215 93.314 11.337 93.71 11.582 C 94.116 11.817 94.421 12.136 94.63 12.536 L 94.985 12.536 L 94.985 11.391 L 97.208 11.391 L 97.208 20.197 L 94.986 20.197 L 94.986 19.052 L 94.631 19.052 C 94.424 19.423 94.121 19.737 93.727 19.992 C 93.332 20.245 92.822 20.372 92.199 20.372 L 92.198 20.374 Z M 92.82 18.701 C 93.423 18.701 93.902 18.442 94.257 17.924 C 94.623 17.396 94.807 16.686 94.807 15.796 C 94.807 14.906 94.623 14.186 94.257 13.669 C 93.902 13.15 93.422 12.891 92.82 12.891 C 92.277 12.891 91.847 13.135 91.53 13.624 C 91.224 14.104 91.072 14.827 91.072 15.796 C 91.072 16.765 91.224 17.494 91.531 17.983 C 91.847 18.463 92.277 18.703 92.82 18.703 Z M 3.256 39.911 L 0 39.911 L 0 28.804 L 3.45 28.804 C 4.509 28.804 5.414 29.025 6.167 29.466 C 6.922 29.907 7.501 30.54 7.902 31.364 C 8.303 32.189 8.504 33.178 8.504 34.331 C 8.504 35.495 8.298 36.495 7.886 37.33 C 7.5 38.137 6.875 38.806 6.096 39.245 C 5.316 39.689 4.368 39.911 3.254 39.911 Z M 1.016 39.001 L 3.196 39.001 C 4.15 39.001 4.949 38.812 5.593 38.436 C 6.233 38.064 6.739 37.501 7.041 36.826 C 7.362 36.128 7.523 35.296 7.523 34.331 C 7.52 33.373 7.361 32.548 7.046 31.858 C 6.76 31.196 6.275 30.641 5.658 30.268 C 5.047 29.9 4.291 29.716 3.391 29.716 L 1.015 29.716 L 1.015 39 Z M 31.806 28.804 L 32.82 28.804 L 32.82 36.159 C 32.82 36.914 32.643 37.59 32.288 38.187 C 31.932 38.782 31.42 39.268 30.808 39.592 C 30.178 39.932 29.446 40.102 28.611 40.102 C 27.78 40.102 27.047 39.93 26.415 39.586 C 25.803 39.262 25.291 38.776 24.935 38.182 C 24.58 37.588 24.403 36.914 24.403 36.159 L 24.403 28.804 L 25.417 28.804 L 25.417 36.088 C 25.417 36.678 25.549 37.203 25.813 37.666 C 26.077 38.126 26.447 38.487 26.924 38.751 C 27.405 39.015 27.968 39.147 28.611 39.147 C 29.255 39.147 29.817 39.015 30.298 38.751 C 30.778 38.487 31.149 38.126 31.41 37.666 C 31.679 37.184 31.815 36.64 31.806 36.088 Z M 49.206 39.911 L 49.206 28.804 L 52.954 28.804 C 53.678 28.804 54.28 28.931 54.76 29.184 C 55.245 29.437 55.608 29.783 55.85 30.22 C 56.093 30.658 56.214 31.155 56.214 31.711 C 56.214 32.174 56.136 32.571 55.981 32.899 C 55.838 33.213 55.62 33.486 55.346 33.696 C 55.079 33.899 54.775 34.048 54.451 34.136 L 54.451 34.222 C 54.809 34.248 55.156 34.374 55.493 34.602 C 55.829 34.826 56.105 35.141 56.323 35.546 C 56.539 35.951 56.648 36.436 56.648 36.999 C 56.648 37.559 56.523 38.06 56.274 38.501 C 56.024 38.939 55.641 39.284 55.124 39.537 C 54.61 39.787 53.956 39.911 53.161 39.911 Z M 50.221 39.001 L 53.161 39.001 C 54.017 39.001 54.651 38.811 55.059 38.431 C 55.471 38.051 55.677 37.574 55.677 36.999 C 55.677 36.576 55.574 36.193 55.367 35.849 C 55.162 35.5 54.864 35.214 54.506 35.025 C 54.136 34.823 53.703 34.721 53.204 34.721 L 50.221 34.721 Z M 50.221 33.821 L 53.047 33.821 C 53.484 33.821 53.867 33.731 54.197 33.55 C 54.525 33.37 54.782 33.12 54.967 32.802 C 55.155 32.47 55.25 32.093 55.243 31.712 C 55.243 31.122 55.052 30.643 54.668 30.274 C 54.285 29.902 53.714 29.716 52.954 29.716 L 50.221 29.716 Z M 72.551 39.911 L 71.488 39.911 L 75.528 28.804 L 76.613 28.804 L 80.653 39.911 L 79.59 39.911 L 76.109 30.122 L 76.033 30.122 L 72.551 39.912 Z M 73.315 35.654 L 78.825 35.654 L 78.825 36.565 L 73.315 36.565 L 73.315 35.655 Z M 97.011 28.804 L 97.011 39.911 L 95.996 39.911 L 95.996 28.804 L 97.01 28.804 Z" fill="rgb(255,255,255)" opacity="0.9"></path></g></svg>