<svg xmlns="http://www.w3.org/2000/svg" xmlns:xlink="http://www.w3.org/1999/xlink" viewBox="0 0 256.122 25.725" overflow="visible"><g><path d="M 35.926 3.664 L 39.347 3.664 L 43.928 14.845 L 44.109 14.845 L 48.689 3.665 L 52.11 3.665 L 52.11 19.095 L 49.428 19.095 L 49.428 8.493 L 49.285 8.493 L 45.021 19.048 L 43.016 19.048 L 38.752 8.47 L 38.609 8.47 L 38.609 19.093 L 35.926 19.093 Z M 58.364 19.328 C 57.631 19.328 56.97 19.198 56.382 18.936 C 55.818 18.685 55.337 18.278 54.996 17.761 C 54.659 17.244 54.491 16.606 54.491 15.847 C 54.491 15.194 54.611 14.654 54.853 14.227 C 55.094 13.8 55.423 13.459 55.84 13.203 C 56.257 12.946 56.726 12.753 57.249 12.623 C 57.787 12.486 58.333 12.388 58.884 12.329 C 59.562 12.259 60.112 12.196 60.534 12.14 C 60.956 12.08 61.262 11.99 61.453 11.869 C 61.649 11.743 61.747 11.55 61.747 11.289 L 61.747 11.244 C 61.747 10.676 61.578 10.237 61.242 9.925 C 60.905 9.614 60.421 9.458 59.788 9.458 C 59.12 9.458 58.59 9.604 58.198 9.895 C 57.811 10.186 57.55 10.53 57.414 10.927 L 54.868 10.566 C 55.068 9.862 55.4 9.275 55.862 8.803 C 56.336 8.319 56.917 7.952 57.558 7.733 C 58.226 7.492 58.964 7.371 59.773 7.371 C 60.334 7.372 60.893 7.438 61.438 7.567 C 61.99 7.697 62.495 7.914 62.952 8.215 C 63.409 8.511 63.776 8.915 64.052 9.428 C 64.333 9.94 64.474 10.581 64.474 11.349 L 64.474 19.094 L 61.852 19.094 L 61.852 17.504 L 61.762 17.504 C 61.596 17.826 61.362 18.127 61.062 18.409 C 60.735 18.704 60.354 18.932 59.939 19.079 C 59.492 19.245 58.967 19.328 58.364 19.328 Z M 59.072 17.324 C 59.619 17.324 60.094 17.216 60.496 17 C 60.879 16.798 61.199 16.496 61.423 16.126 C 61.643 15.764 61.754 15.37 61.754 14.943 L 61.754 13.579 C 61.669 13.649 61.524 13.715 61.317 13.775 C 61.117 13.835 60.89 13.888 60.639 13.933 C 60.388 13.979 60.139 14.019 59.893 14.054 L 59.253 14.144 C 58.88 14.192 58.513 14.283 58.16 14.416 C 57.866 14.524 57.604 14.705 57.4 14.943 C 57.214 15.164 57.12 15.45 57.12 15.802 C 57.12 16.304 57.304 16.683 57.67 16.94 C 58.037 17.196 58.504 17.324 59.072 17.324 Z M 72.249 23.675 C 71.27 23.675 70.429 23.542 69.726 23.275 C 69.022 23.015 68.457 22.663 68.03 22.221 C 67.621 21.809 67.317 21.305 67.141 20.751 L 69.597 20.157 C 69.707 20.383 69.869 20.607 70.08 20.827 C 70.29 21.053 70.574 21.239 70.931 21.385 C 71.293 21.535 71.747 21.611 72.295 21.611 C 73.068 21.611 73.709 21.422 74.216 21.046 C 74.723 20.674 74.976 20.061 74.976 19.207 L 74.976 17.015 L 74.841 17.015 C 74.677 17.331 74.469 17.623 74.224 17.881 C 73.957 18.178 73.604 18.426 73.161 18.627 C 72.724 18.828 72.174 18.929 71.511 18.929 C 70.622 18.929 69.816 18.72 69.093 18.303 C 68.374 17.881 67.802 17.253 67.375 16.42 C 66.953 15.58 66.742 14.531 66.742 13.27 C 66.742 12 66.952 10.927 67.375 10.053 C 67.802 9.174 68.377 8.509 69.1 8.057 C 69.824 7.6 70.664 7.362 71.519 7.371 C 72.197 7.371 72.754 7.487 73.191 7.718 C 73.633 7.944 73.985 8.218 74.246 8.538 C 74.507 8.855 74.706 9.154 74.841 9.435 L 74.992 9.435 L 74.992 7.522 L 77.682 7.522 L 77.682 19.282 C 77.682 20.272 77.446 21.091 76.973 21.739 C 76.501 22.387 75.856 22.872 75.037 23.193 C 74.218 23.515 73.289 23.675 72.249 23.675 Z M 72.272 16.789 C 72.85 16.789 73.342 16.649 73.749 16.367 C 74.156 16.086 74.465 15.681 74.676 15.154 C 74.886 14.627 74.992 13.994 74.992 13.255 C 74.992 12.527 74.886 11.889 74.675 11.342 C 74.47 10.794 74.163 10.37 73.756 10.068 C 73.355 9.762 72.86 9.608 72.272 9.608 C 71.664 9.608 71.157 9.767 70.75 10.083 C 70.343 10.4 70.037 10.834 69.831 11.387 C 69.625 11.934 69.522 12.557 69.522 13.255 C 69.522 13.964 69.625 14.584 69.831 15.116 C 70.042 15.644 70.351 16.056 70.758 16.352 C 71.17 16.643 71.674 16.789 72.272 16.789 Z M 80.477 19.094 L 80.477 7.522 L 83.204 7.522 L 83.204 19.094 Z M 81.848 5.879 C 81.435 5.887 81.035 5.732 80.733 5.449 C 80.434 5.185 80.264 4.803 80.266 4.403 C 80.266 3.991 80.422 3.642 80.733 3.355 C 81.033 3.069 81.434 2.912 81.848 2.918 C 82.285 2.918 82.657 3.064 82.963 3.355 C 83.275 3.642 83.43 3.991 83.43 4.403 C 83.43 4.809 83.275 5.158 82.963 5.45 C 82.657 5.736 82.285 5.88 81.848 5.88 Z M 91.057 19.32 C 89.902 19.32 88.91 19.067 88.081 18.56 C 87.259 18.055 86.598 17.325 86.175 16.457 C 85.733 15.558 85.512 14.524 85.512 13.353 C 85.512 12.178 85.738 11.141 86.19 10.242 C 86.642 9.337 87.28 8.634 88.103 8.132 C 88.933 7.625 89.912 7.371 91.042 7.371 C 91.982 7.371 92.812 7.544 93.536 7.891 C 94.237 8.21 94.838 8.713 95.276 9.345 C 95.708 9.968 95.954 10.696 96.015 11.53 L 93.408 11.53 C 93.316 10.996 93.051 10.507 92.654 10.136 C 92.262 9.759 91.738 9.571 91.08 9.571 C 90.555 9.561 90.04 9.72 89.61 10.023 C 89.189 10.319 88.86 10.746 88.623 11.303 C 88.393 11.862 88.277 12.529 88.277 13.308 C 88.277 14.097 88.392 14.775 88.623 15.342 C 88.854 15.905 89.178 16.339 89.595 16.646 C 90.017 16.947 90.512 17.098 91.08 17.098 C 91.481 17.098 91.84 17.023 92.157 16.872 C 92.478 16.716 92.747 16.492 92.963 16.202 C 93.19 15.886 93.342 15.523 93.408 15.139 L 96.014 15.139 C 95.949 15.958 95.708 16.683 95.291 17.316 C 94.866 17.952 94.278 18.462 93.588 18.793 C 92.87 19.145 92.026 19.32 91.057 19.32 Z M 98.375 3.664 L 101.795 3.664 L 106.376 14.845 L 106.557 14.845 L 111.138 3.665 L 114.558 3.665 L 114.558 19.095 L 111.876 19.095 L 111.876 8.493 L 111.733 8.493 L 107.468 19.048 L 105.464 19.048 L 101.2 8.47 L 101.057 8.47 L 101.057 19.093 L 98.375 19.093 Z M 122.53 19.32 C 121.399 19.32 120.42 19.072 119.591 18.575 C 118.762 18.078 118.093 17.354 117.662 16.488 C 117.21 15.593 116.984 14.548 116.984 13.353 C 116.984 12.158 117.21 11.111 117.662 10.211 C 118.119 9.312 118.762 8.614 119.591 8.117 C 120.42 7.62 121.399 7.371 122.53 7.371 C 123.66 7.371 124.639 7.62 125.468 8.117 C 126.298 8.615 126.965 9.343 127.389 10.212 C 127.846 11.111 128.075 12.158 128.075 13.353 C 128.075 14.549 127.846 15.593 127.389 16.488 C 126.963 17.355 126.296 18.079 125.468 18.575 C 124.639 19.072 123.66 19.32 122.53 19.32 Z M 122.545 17.136 C 123.157 17.136 123.67 16.967 124.082 16.631 C 124.493 16.289 124.8 15.832 125.001 15.259 C 125.207 14.687 125.31 14.049 125.31 13.346 C 125.31 12.638 125.207 11.997 125.001 11.425 C 124.8 10.847 124.493 10.387 124.082 10.045 C 123.67 9.705 123.157 9.533 122.545 9.533 C 121.917 9.533 121.394 9.704 120.977 10.046 C 120.566 10.387 120.257 10.846 120.051 11.424 C 119.85 11.997 119.749 12.637 119.749 13.346 C 119.749 14.049 119.85 14.686 120.051 15.259 C 120.257 15.832 120.566 16.289 120.977 16.631 C 121.394 16.967 121.917 17.136 122.545 17.136 Z M 133.117 12.314 L 133.117 19.094 L 130.39 19.094 L 130.39 7.522 L 132.997 7.522 L 132.997 9.488 L 133.132 9.488 C 133.387 8.855 133.832 8.315 134.405 7.944 C 134.993 7.562 135.719 7.371 136.583 7.371 C 137.381 7.371 138.077 7.541 138.67 7.883 C 139.271 8.228 139.754 8.746 140.056 9.368 C 140.388 10.016 140.551 10.802 140.546 11.726 L 140.546 19.094 L 137.818 19.094 L 137.818 12.148 C 137.818 11.374 137.618 10.769 137.216 10.332 C 136.819 9.895 136.269 9.677 135.566 9.677 C 135.089 9.677 134.664 9.782 134.292 9.993 C 133.923 10.203 133.622 10.514 133.426 10.89 C 133.22 11.281 133.117 11.756 133.117 12.314 Z M 147.613 19.298 C 146.704 19.298 145.89 19.064 145.172 18.598 C 144.454 18.13 143.886 17.452 143.469 16.563 C 143.052 15.673 142.844 14.593 142.844 13.323 C 142.844 12.037 143.055 10.953 143.477 10.068 C 143.904 9.179 144.479 8.508 145.202 8.057 C 145.926 7.6 146.766 7.362 147.621 7.371 C 148.299 7.371 148.856 7.487 149.293 7.718 C 149.73 7.944 150.077 8.218 150.333 8.538 C 150.589 8.855 150.787 9.154 150.928 9.435 L 151.041 9.435 L 151.041 3.665 L 153.776 3.665 L 153.776 19.095 L 151.094 19.095 L 151.094 17.271 L 150.928 17.271 C 150.787 17.552 150.584 17.851 150.318 18.168 C 150.023 18.502 149.665 18.773 149.263 18.966 C 148.826 19.187 148.276 19.298 147.613 19.298 Z M 148.374 17.06 C 148.952 17.06 149.444 16.904 149.851 16.593 C 150.258 16.277 150.566 15.837 150.777 15.274 C 150.988 14.712 151.094 14.056 151.094 13.308 C 151.094 12.56 150.988 11.909 150.777 11.357 C 150.571 10.804 150.265 10.375 149.858 10.068 C 149.456 9.762 148.962 9.608 148.374 9.608 C 147.766 9.608 147.259 9.767 146.852 10.083 C 146.445 10.4 146.139 10.837 145.933 11.394 C 145.727 11.952 145.624 12.59 145.624 13.308 C 145.624 14.031 145.727 14.677 145.933 15.244 C 146.144 15.807 146.453 16.252 146.86 16.578 C 147.271 16.899 147.776 17.06 148.374 17.06 Z M 164.281 3.664 L 164.281 19.094 L 162.412 19.094 L 162.412 3.664 Z M 169.564 12.133 L 169.564 19.094 L 167.786 19.094 L 167.786 7.522 L 169.504 7.522 L 169.504 9.33 L 169.655 9.33 C 169.921 8.749 170.35 8.257 170.89 7.914 C 171.443 7.552 172.156 7.371 173.03 7.371 C 173.813 7.371 174.499 7.531 175.087 7.853 C 175.674 8.17 176.132 8.652 176.458 9.3 C 176.784 9.943 176.948 10.757 176.948 11.74 L 176.948 19.094 L 175.17 19.094 L 175.17 11.862 C 175.17 10.952 174.934 10.244 174.461 9.737 C 173.989 9.225 173.341 8.968 172.518 8.968 C 171.95 8.968 171.443 9.091 170.996 9.338 C 170.55 9.589 170.187 9.963 169.948 10.415 C 169.692 10.887 169.564 11.46 169.564 12.133 Z M 185.35 7.522 L 185.35 9.029 L 179.112 9.029 L 179.112 7.522 Z M 180.98 19.094 L 180.98 5.924 C 180.98 5.261 181.136 4.709 181.448 4.267 C 181.753 3.83 182.173 3.486 182.661 3.272 C 183.157 3.052 183.693 2.939 184.235 2.941 C 184.672 2.941 185.029 2.976 185.305 3.046 C 185.581 3.116 185.787 3.182 185.923 3.242 L 185.411 4.779 C 185.287 4.739 185.161 4.701 185.034 4.666 C 184.833 4.616 184.625 4.593 184.416 4.598 C 183.828 4.598 183.404 4.747 183.143 5.043 C 182.887 5.339 182.759 5.773 182.759 6.346 L 182.759 19.094 Z M 187.842 19.094 L 187.842 7.522 L 189.56 7.522 L 189.56 9.27 L 189.681 9.27 C 189.892 8.697 190.273 8.233 190.826 7.876 C 191.383 7.519 192.033 7.332 192.694 7.341 C 192.825 7.341 192.988 7.343 193.184 7.348 C 193.38 7.353 193.528 7.361 193.629 7.371 L 193.629 9.179 C 193.492 9.152 193.354 9.129 193.214 9.112 C 192.993 9.076 192.769 9.059 192.544 9.059 C 191.981 9.059 191.479 9.177 191.037 9.413 C 190.61 9.635 190.251 9.968 189.997 10.377 C 189.743 10.797 189.612 11.281 189.62 11.771 L 189.62 19.094 Z M 199.142 19.366 C 198.454 19.376 197.773 19.234 197.145 18.951 C 196.568 18.687 196.075 18.267 195.721 17.738 C 195.37 17.206 195.194 16.563 195.194 15.809 C 195.194 15.146 195.324 14.609 195.586 14.197 C 195.843 13.785 196.204 13.447 196.633 13.217 C 197.089 12.975 197.576 12.797 198.08 12.69 C 198.612 12.57 199.147 12.474 199.684 12.404 C 200.388 12.314 200.958 12.246 201.395 12.2 C 201.837 12.15 202.158 12.067 202.359 11.952 C 202.565 11.836 202.668 11.635 202.668 11.349 L 202.668 11.289 C 202.668 10.545 202.464 9.968 202.058 9.556 C 201.656 9.144 201.046 8.938 200.227 8.938 C 199.378 8.938 198.712 9.124 198.23 9.496 C 197.748 9.867 197.409 10.264 197.213 10.686 L 195.525 10.083 C 195.827 9.38 196.229 8.833 196.731 8.441 C 197.221 8.054 197.785 7.771 198.388 7.612 C 198.968 7.455 199.567 7.375 200.167 7.372 C 200.538 7.371 200.965 7.416 201.447 7.507 C 201.946 7.597 202.424 7.778 202.856 8.042 C 203.313 8.312 203.693 8.722 203.994 9.27 C 204.295 9.817 204.446 10.55 204.446 11.47 L 204.446 19.094 L 202.668 19.094 L 202.668 17.527 L 202.577 17.527 C 202.457 17.778 202.256 18.047 201.975 18.333 C 201.693 18.62 201.319 18.863 200.852 19.064 C 200.385 19.265 199.815 19.366 199.142 19.366 Z M 199.413 17.768 C 200.116 17.768 200.709 17.63 201.191 17.354 C 201.678 17.078 202.045 16.721 202.291 16.284 C 202.542 15.847 202.668 15.388 202.668 14.905 L 202.668 13.278 C 202.593 13.368 202.427 13.451 202.171 13.527 C 201.884 13.605 201.592 13.668 201.297 13.715 C 200.97 13.765 200.651 13.81 200.34 13.851 C 200.033 13.886 199.785 13.916 199.594 13.941 C 199.132 14.001 198.7 14.099 198.298 14.235 C 197.931 14.348 197.599 14.552 197.334 14.83 C 197.093 15.091 196.972 15.448 196.972 15.9 C 196.972 16.518 197.201 16.985 197.658 17.301 C 198.12 17.613 198.705 17.768 199.413 17.768 Z M 207.932 19.094 L 207.932 3.664 L 217.245 3.664 L 217.245 5.322 L 209.801 5.322 L 209.801 10.535 L 216.763 10.535 L 216.763 12.193 L 209.801 12.193 L 209.801 17.437 L 217.365 17.437 L 217.365 19.094 Z M 224.741 19.336 C 223.777 19.336 222.926 19.092 222.187 18.605 C 221.449 18.112 220.871 17.419 220.454 16.525 C 220.038 15.626 219.829 14.564 219.829 13.338 C 219.829 12.123 220.038 11.068 220.454 10.174 C 220.871 9.28 221.451 8.589 222.195 8.102 C 222.938 7.615 223.797 7.371 224.772 7.371 C 225.525 7.371 226.12 7.497 226.557 7.748 C 226.999 7.994 227.336 8.275 227.567 8.592 C 227.803 8.903 227.986 9.159 228.117 9.36 L 228.267 9.36 L 228.267 3.664 L 230.046 3.664 L 230.046 19.094 L 228.328 19.094 L 228.328 17.317 L 228.117 17.317 C 227.986 17.528 227.8 17.794 227.559 18.116 C 227.318 18.432 226.974 18.716 226.527 18.967 C 226.08 19.213 225.485 19.337 224.741 19.337 Z M 224.983 17.738 C 225.696 17.738 226.299 17.552 226.791 17.181 C 227.283 16.804 227.657 16.284 227.913 15.621 C 228.17 14.953 228.298 14.182 228.298 13.308 C 228.298 12.444 228.172 11.688 227.921 11.04 C 227.67 10.387 227.298 9.88 226.806 9.518 C 226.314 9.152 225.706 8.968 224.983 8.968 C 224.229 8.968 223.601 9.162 223.099 9.548 C 222.602 9.93 222.228 10.45 221.976 11.108 C 221.73 11.761 221.607 12.494 221.607 13.308 C 221.607 14.132 221.733 14.88 221.984 15.553 C 222.24 16.221 222.617 16.753 223.114 17.15 C 223.616 17.542 224.239 17.738 224.983 17.738 Z M 238.22 23.675 C 237.361 23.675 236.623 23.565 236.005 23.344 C 235.387 23.128 234.873 22.841 234.461 22.484 C 234.079 22.162 233.751 21.781 233.489 21.354 L 234.905 20.36 C 235.066 20.571 235.269 20.812 235.515 21.083 C 235.762 21.36 236.098 21.598 236.525 21.799 C 236.957 22.005 237.522 22.109 238.22 22.109 C 239.155 22.109 239.926 21.882 240.533 21.43 C 241.141 20.978 241.445 20.27 241.445 19.305 L 241.445 16.955 L 241.294 16.955 C 241.164 17.165 240.978 17.427 240.737 17.738 C 240.501 18.045 240.159 18.318 239.712 18.56 C 239.27 18.796 238.672 18.914 237.919 18.914 C 236.985 18.914 236.146 18.693 235.402 18.251 C 234.664 17.809 234.079 17.166 233.647 16.321 C 233.22 15.478 233.007 14.453 233.007 13.248 C 233.007 12.062 233.215 11.03 233.632 10.151 C 234.049 9.267 234.629 8.584 235.372 8.101 C 236.116 7.615 236.975 7.371 237.949 7.371 C 238.702 7.371 239.3 7.497 239.742 7.748 C 240.189 7.994 240.531 8.275 240.767 8.592 C 241.008 8.903 241.194 9.159 241.324 9.36 L 241.505 9.36 L 241.505 7.522 L 243.223 7.522 L 243.223 19.426 C 243.223 20.42 242.997 21.229 242.545 21.852 C 242.098 22.48 241.495 22.939 240.737 23.231 C 239.983 23.527 239.144 23.675 238.22 23.675 Z M 238.16 17.316 C 238.873 17.316 239.476 17.153 239.968 16.826 C 240.46 16.5 240.835 16.03 241.091 15.418 C 241.347 14.805 241.475 14.072 241.475 13.218 C 241.475 12.384 241.35 11.648 241.098 11.01 C 240.847 10.372 240.476 9.872 239.983 9.51 C 239.491 9.15 238.883 8.968 238.16 8.968 C 237.407 8.968 236.779 9.159 236.276 9.541 C 235.779 9.923 235.405 10.435 235.154 11.078 C 234.908 11.721 234.785 12.434 234.785 13.218 C 234.785 14.021 234.91 14.732 235.161 15.35 C 235.418 15.963 235.794 16.445 236.292 16.796 C 236.794 17.143 237.417 17.316 238.16 17.316 Z M 251.33 19.336 C 250.215 19.336 249.253 19.089 248.444 18.597 C 247.641 18.1 247.02 17.407 246.583 16.517 C 246.151 15.624 245.935 14.584 245.935 13.398 C 245.935 12.213 246.151 11.168 246.583 10.264 C 247.02 9.355 247.628 8.647 248.407 8.14 C 249.19 7.627 250.104 7.371 251.149 7.371 C 251.752 7.371 252.347 7.471 252.935 7.672 C 253.534 7.881 254.082 8.215 254.54 8.652 C 255.022 9.099 255.406 9.692 255.692 10.43 C 255.979 11.168 256.122 12.077 256.122 13.157 L 256.122 13.911 L 247.201 13.911 L 247.201 12.374 L 254.313 12.374 C 254.313 11.721 254.183 11.138 253.922 10.626 C 253.678 10.126 253.296 9.706 252.822 9.413 C 252.35 9.117 251.792 8.968 251.149 8.968 C 250.441 8.968 249.828 9.144 249.311 9.496 C 248.805 9.836 248.396 10.304 248.128 10.852 C 247.852 11.41 247.71 12.024 247.713 12.645 L 247.713 13.67 C 247.713 14.544 247.864 15.285 248.166 15.892 C 248.472 16.495 248.896 16.955 249.439 17.272 C 249.981 17.582 250.612 17.738 251.33 17.738 C 251.76 17.744 252.188 17.678 252.596 17.542 C 252.977 17.407 253.306 17.206 253.583 16.94 C 253.859 16.668 254.072 16.332 254.223 15.93 L 255.941 16.412 C 255.764 16.99 255.451 17.517 255.029 17.949 C 254.582 18.4 254.042 18.75 253.447 18.974 C 252.819 19.214 252.113 19.335 251.33 19.335 Z M 23.264 1.701 C 23.316 1.458 23.664 1.458 23.715 1.701 L 24.271 4.301 C 24.29 4.39 24.36 4.46 24.448 4.478 L 27.048 5.033 C 27.291 5.085 27.291 5.433 27.048 5.485 L 24.448 6.04 C 24.36 6.059 24.29 6.129 24.271 6.217 L 23.715 8.817 C 23.663 9.06 23.316 9.06 23.265 8.817 L 22.709 6.217 C 22.69 6.128 22.621 6.059 22.531 6.04 L 19.931 5.485 C 19.689 5.433 19.689 5.085 19.931 5.033 L 22.531 4.478 C 22.621 4.46 22.69 4.39 22.709 4.301 Z M 6.612 20.501 C 6.641 20.365 6.836 20.365 6.865 20.501 L 7.177 21.961 C 7.187 22.011 7.227 22.049 7.277 22.06 L 8.736 22.372 C 8.873 22.401 8.873 22.596 8.736 22.625 L 7.276 22.937 C 7.227 22.949 7.188 22.988 7.177 23.037 L 6.865 24.496 C 6.835 24.632 6.641 24.632 6.612 24.496 L 6.3 23.036 C 6.289 22.987 6.25 22.948 6.2 22.937 L 4.741 22.625 C 4.604 22.596 4.604 22.401 4.741 22.372 L 6.201 22.06 C 6.251 22.049 6.29 22.01 6.3 21.96 Z M 6.875 0.479 C 6.907 0.258 7.067 0.077 7.283 0.019 C 7.498 -0.039 7.728 0.038 7.865 0.213 L 11.095 4.339 C 11.248 4.534 11.512 4.605 11.741 4.512 L 16.602 2.554 C 16.81 2.471 17.047 2.519 17.205 2.677 C 17.363 2.835 17.411 3.072 17.327 3.279 L 15.368 8.139 C 15.276 8.37 15.347 8.633 15.542 8.785 L 19.668 12.015 C 20.054 12.317 19.888 12.935 19.403 13.005 L 14.214 13.739 C 13.969 13.774 13.776 13.967 13.741 14.212 L 13.006 19.4 C 12.975 19.621 12.815 19.802 12.599 19.86 C 12.383 19.918 12.154 19.841 12.016 19.665 L 8.786 15.539 C 8.634 15.345 8.37 15.274 8.14 15.366 L 3.28 17.324 C 3.073 17.408 2.837 17.36 2.679 17.202 C 2.521 17.044 2.472 16.808 2.555 16.6 L 4.513 11.74 C 4.606 11.51 4.536 11.247 4.34 11.093 L 0.213 7.863 C 0.038 7.726 -0.039 7.496 0.019 7.281 C 0.077 7.065 0.258 6.905 0.479 6.873 L 5.667 6.14 C 5.914 6.106 6.107 5.913 6.141 5.666 Z" fill="rgb(255,255,255)"></path><path d="M 25.349 23.514 C 25.855 24.019 25.855 24.839 25.35 25.345 C 24.844 25.851 24.024 25.851 23.518 25.346 L 15.039 16.869 L 15.269 15.256 L 16.862 15.029 Z M 7.879 7.88 C 8.122 7.637 8.452 7.5 8.796 7.5 C 9.139 7.5 9.469 7.637 9.712 7.88 L 15.122 13.288 L 13.942 13.456 C 13.697 13.49 13.504 13.683 13.469 13.929 L 13.299 15.129 L 7.879 9.711 C 7.374 9.205 7.374 8.385 7.879 7.88 Z" fill="rgb(255,255,255)"></path></g></svg>