<svg xmlns="http://www.w3.org/2000/svg" xmlns:xlink="http://www.w3.org/1999/xlink" viewBox="0 0 85.359 23.296" overflow="visible"><path d="M 0 23.088 L 0 0.208 L 7.02 0.208 C 8.19 0.208 9.074 0.476 9.672 1.014 C 10.27 1.542 10.669 2.288 10.868 3.25 C 11.076 4.203 11.18 5.325 11.18 6.617 C 11.18 7.865 11.02 8.861 10.7 9.607 C 10.387 10.352 9.793 10.867 8.918 11.154 C 9.638 11.301 10.14 11.661 10.426 12.233 C 10.721 12.796 10.868 13.529 10.868 14.43 L 10.868 23.088 L 6.357 23.088 L 6.357 14.131 C 6.357 13.464 6.218 13.051 5.941 12.896 C 5.672 12.731 5.235 12.649 4.628 12.649 L 4.628 23.088 Z M 4.654 8.684 L 5.759 8.684 C 6.392 8.684 6.708 7.994 6.708 6.617 C 6.708 5.724 6.638 5.139 6.5 4.862 C 6.361 4.584 6.101 4.446 5.72 4.446 L 4.654 4.446 Z M 18.122 23.296 C 16.034 23.296 14.526 22.776 13.598 21.736 C 12.68 20.696 12.22 19.041 12.22 16.77 L 12.22 14.534 L 16.744 14.534 L 16.744 17.394 C 16.744 17.923 16.822 18.339 16.978 18.642 C 17.143 18.937 17.425 19.084 17.823 19.084 C 18.239 19.084 18.525 18.963 18.681 18.72 C 18.846 18.477 18.928 18.079 18.928 17.524 C 18.928 16.822 18.858 16.237 18.72 15.769 C 18.571 15.274 18.324 14.814 17.992 14.417 C 17.654 13.983 17.182 13.481 16.575 12.909 L 14.521 10.959 C 12.987 9.511 12.221 7.856 12.221 5.993 C 12.221 4.043 12.671 2.556 13.572 1.533 C 14.482 0.511 15.795 0 17.512 0 C 19.609 0 21.095 0.559 21.97 1.677 C 22.854 2.795 23.296 4.493 23.296 6.773 L 18.642 6.773 L 18.642 5.2 C 18.642 4.888 18.552 4.645 18.369 4.472 C 18.196 4.298 17.958 4.212 17.654 4.212 C 17.29 4.212 17.022 4.316 16.848 4.524 C 16.683 4.723 16.601 4.983 16.601 5.304 C 16.601 5.624 16.688 5.971 16.861 6.344 C 17.035 6.716 17.377 7.145 17.888 7.631 L 20.528 10.166 C 21.051 10.663 21.537 11.197 21.983 11.765 C 22.443 12.352 22.803 13.011 23.049 13.715 C 23.318 14.451 23.452 15.353 23.452 16.419 C 23.452 18.569 23.054 20.254 22.256 21.476 C 21.468 22.689 20.09 23.296 18.122 23.296 Z M 31.018 23.088 L 31.018 0.208 L 35.438 0.208 L 35.438 23.088 Z M 37.258 23.088 L 37.258 0.208 L 41.965 0.208 L 44.071 11.167 L 44.071 0.207 L 48.491 0.207 L 48.491 23.088 L 44.019 23.088 L 41.731 11.648 L 41.731 23.088 L 37.259 23.088 Z M 50.518 23.088 L 50.518 0.208 L 59.671 0.208 L 59.671 4.667 L 55.121 4.667 L 55.121 8.307 L 59.437 8.307 L 59.437 12.714 L 55.121 12.714 L 55.121 23.088 L 50.519 23.088 Z M 61.153 23.088 L 61.153 0.208 L 68.173 0.208 C 69.343 0.208 70.227 0.476 70.825 1.014 C 71.423 1.542 71.822 2.288 72.021 3.25 C 72.229 4.203 72.333 5.325 72.333 6.617 C 72.333 7.865 72.173 8.861 71.853 9.607 C 71.54 10.352 70.947 10.867 70.071 11.154 C 70.791 11.301 71.293 11.661 71.579 12.233 C 71.874 12.796 72.021 13.529 72.021 14.43 L 72.021 23.088 L 67.511 23.088 L 67.511 14.131 C 67.511 13.464 67.371 13.051 67.094 12.896 C 66.826 12.731 66.388 12.649 65.781 12.649 L 65.781 23.088 Z M 65.807 8.684 L 66.912 8.684 C 67.545 8.684 67.862 7.994 67.862 6.617 C 67.862 5.724 67.792 5.139 67.653 4.862 C 67.515 4.584 67.255 4.446 66.873 4.446 L 65.807 4.446 Z M 73.217 23.088 L 75.427 0.208 L 83.189 0.208 L 85.359 23.088 L 81.03 23.088 L 80.705 19.396 L 77.949 19.396 L 77.663 23.088 Z M 78.275 15.743 L 80.355 15.743 L 79.353 4.108 L 79.146 4.108 L 78.276 15.743 Z" fill="rgb(255,255,255)" opacity="0.9"></path></svg>