<svg xmlns="http://www.w3.org/2000/svg" xmlns:xlink="http://www.w3.org/1999/xlink" viewBox="0 0 84.866 12.593" overflow="visible"><g><path d="M 12.018 0 L 9.614 5.188 L 12.018 9.619 L 14.48 5.189 L 12.018 0 Z M 4.572 2.391 L 5.686 8.047 L 10.259 10.145 L 9.614 5.19 L 4.572 2.391 Z" fill="rgb(255,255,255)"></path><path d="M 0 8.745 L 4.162 12.592 L 9.146 11.66 L 5.687 8.045 L 0 8.744 Z M 24.097 8.745 L 18.41 8.045 L 14.951 11.659 L 19.934 12.593 Z M 19.522 2.391 L 14.48 5.189 L 13.835 10.145 L 18.408 8.046 Z M 35.491 5.789 L 35.491 12.319 L 34.437 12.319 L 30.221 6.192 L 30.221 11.352 C 30.221 11.513 30.221 11.594 30.303 11.675 C 30.383 11.755 30.465 11.755 30.546 11.755 L 31.194 11.755 L 31.194 12.239 L 28.6 12.239 L 28.6 11.755 L 29.167 11.755 C 29.249 11.755 29.329 11.755 29.411 11.675 C 29.492 11.594 29.492 11.513 29.492 11.352 L 29.492 5.709 C 29.492 5.548 29.492 5.467 29.41 5.386 C 29.329 5.305 29.248 5.305 29.168 5.305 L 28.6 5.305 L 28.6 4.822 L 30.951 4.822 L 34.842 10.384 L 34.842 5.709 C 34.842 5.548 34.842 5.467 34.761 5.386 C 34.68 5.305 34.599 5.305 34.518 5.305 L 33.87 5.305 L 33.87 4.822 L 36.383 4.822 L 36.383 5.305 L 35.896 5.305 C 35.815 5.305 35.734 5.305 35.653 5.386 C 35.572 5.548 35.491 5.628 35.491 5.789 Z M 37.193 4.822 L 40.517 4.822 L 40.517 5.305 L 39.95 5.305 C 39.868 5.305 39.788 5.305 39.706 5.386 C 39.625 5.467 39.625 5.548 39.625 5.709 L 39.625 11.352 C 39.625 11.513 39.625 11.594 39.707 11.675 C 39.788 11.755 39.869 11.755 39.95 11.755 L 40.517 11.755 L 40.517 12.239 L 37.193 12.239 L 37.193 11.755 L 37.76 11.755 C 37.842 11.755 37.923 11.755 38.004 11.675 C 38.085 11.594 38.085 11.513 38.085 11.352 L 38.085 5.709 C 38.085 5.548 38.085 5.467 38.004 5.386 C 37.923 5.305 37.842 5.305 37.761 5.305 L 37.193 5.305 Z M 41.329 5.305 L 41.329 4.822 L 44.977 4.822 C 46.031 4.822 46.842 4.983 47.328 5.386 C 47.838 5.728 48.143 6.303 48.139 6.918 C 48.139 7.321 47.977 7.724 47.733 8.047 C 47.49 8.369 47.085 8.611 46.518 8.772 C 47.004 8.853 47.328 9.094 47.652 9.336 C 47.895 9.579 48.058 9.982 48.058 10.384 L 48.058 11.19 C 48.058 11.432 48.058 11.593 48.139 11.675 C 48.22 11.755 48.301 11.836 48.382 11.836 C 48.463 11.836 48.544 11.836 48.625 11.755 C 48.707 11.675 48.707 11.513 48.707 11.352 L 48.707 10.707 L 49.274 10.707 L 49.274 11.352 C 49.274 11.755 49.193 11.997 48.95 12.239 C 48.706 12.4 48.382 12.561 47.977 12.561 C 47.572 12.561 47.247 12.481 47.004 12.239 C 46.761 12.078 46.598 11.675 46.598 11.19 L 46.598 10.546 C 46.598 9.982 46.436 9.579 46.193 9.337 C 45.869 9.014 45.382 8.934 44.815 8.934 L 43.761 8.934 L 43.761 11.433 C 43.761 11.595 43.761 11.675 43.842 11.756 C 43.924 11.836 44.004 11.836 44.085 11.836 L 44.653 11.836 L 44.653 12.32 L 41.328 12.32 L 41.328 11.836 L 41.896 11.836 C 41.977 11.836 42.059 11.836 42.139 11.756 C 42.221 11.675 42.221 11.595 42.221 11.433 L 42.221 5.789 C 42.221 5.628 42.221 5.548 42.139 5.467 C 42.058 5.386 41.977 5.386 41.896 5.386 L 41.329 5.386 Z M 44.49 5.305 L 43.68 5.305 L 43.68 8.369 L 44.49 8.369 C 45.058 8.369 45.464 8.288 45.707 8.208 C 46.031 8.047 46.193 7.885 46.355 7.724 C 46.518 7.482 46.518 7.24 46.518 6.918 C 46.518 6.595 46.436 6.273 46.355 6.031 C 46.193 5.789 46.031 5.628 45.707 5.467 C 45.464 5.386 45.058 5.305 44.49 5.305 Z M 57.381 11.432 L 57.381 5.628 L 55.03 12.399 L 53.976 12.399 L 51.543 5.628 L 51.543 11.432 C 51.543 11.593 51.543 11.674 51.625 11.755 C 51.706 11.835 51.786 11.835 51.868 11.835 L 52.516 11.835 L 52.516 12.319 L 49.922 12.319 L 49.922 11.835 L 50.489 11.835 C 50.571 11.835 50.733 11.835 50.733 11.755 C 50.814 11.674 50.814 11.593 50.814 11.432 L 50.814 5.789 C 50.814 5.628 50.814 5.547 50.733 5.466 C 50.651 5.386 50.571 5.386 50.489 5.386 L 49.922 5.386 L 49.922 4.902 L 52.76 4.902 L 54.867 10.787 L 56.975 4.902 L 59.813 4.902 L 59.813 5.386 L 59.246 5.386 C 59.164 5.386 59.083 5.386 59.002 5.466 C 58.921 5.547 58.921 5.628 58.921 5.789 L 58.921 11.432 C 58.921 11.593 58.921 11.674 59.002 11.755 C 59.084 11.835 59.164 11.835 59.246 11.835 L 59.813 11.835 L 59.813 12.319 L 56.488 12.319 L 56.488 11.835 L 56.975 11.835 C 57.057 11.835 57.138 11.835 57.219 11.755 C 57.299 11.674 57.381 11.513 57.381 11.432 Z M 61.272 11.271 L 63.623 4.822 L 65.082 4.822 L 67.433 11.19 C 67.515 11.432 67.596 11.593 67.677 11.675 C 67.758 11.755 67.839 11.836 68.001 11.836 L 68.326 11.836 L 68.326 12.319 L 64.92 12.319 L 64.92 11.836 L 65.488 11.836 C 65.65 11.836 65.731 11.755 65.812 11.675 C 65.893 11.594 65.893 11.432 65.812 11.272 L 65.325 9.82 L 62.488 9.82 L 61.92 11.352 C 61.84 11.513 61.84 11.675 61.92 11.755 C 62.002 11.836 62.083 11.836 62.164 11.836 L 62.731 11.836 L 62.731 12.319 L 60.299 12.319 L 60.299 11.836 L 60.786 11.836 C 60.948 11.836 61.029 11.755 61.11 11.675 C 61.11 11.675 61.191 11.513 61.272 11.272 Z M 62.569 9.417 L 65.082 9.417 L 63.785 5.789 L 62.569 9.417 Z M 69.541 11.271 L 71.893 4.822 L 73.352 4.822 L 75.703 11.19 C 75.784 11.432 75.865 11.593 75.947 11.675 C 76.027 11.755 76.108 11.836 76.271 11.836 L 76.757 11.836 L 76.757 12.319 L 73.19 12.319 L 73.19 11.836 L 73.757 11.836 C 73.92 11.836 74 11.755 74.082 11.675 C 74.163 11.594 74.163 11.432 74.082 11.272 L 73.596 9.82 L 70.758 9.82 L 70.19 11.352 C 70.109 11.513 70.109 11.675 70.19 11.755 C 70.271 11.836 70.352 11.836 70.434 11.836 L 71.001 11.836 L 71.001 12.319 L 68.569 12.319 L 68.569 11.836 L 69.055 11.836 C 69.217 11.836 69.298 11.755 69.38 11.675 C 69.38 11.675 69.461 11.513 69.541 11.272 Z M 70.839 9.417 L 73.352 9.417 L 72.055 5.789 L 70.839 9.417 Z M 83.974 5.789 L 83.974 12.319 L 82.92 12.319 L 78.704 6.192 L 78.704 11.352 C 78.704 11.513 78.704 11.594 78.786 11.675 C 78.866 11.755 78.947 11.755 79.029 11.755 L 79.677 11.755 L 79.677 12.239 L 77.083 12.239 L 77.083 11.755 L 77.65 11.755 C 77.732 11.755 77.812 11.755 77.893 11.675 C 77.975 11.594 77.975 11.513 77.975 11.352 L 77.975 5.709 C 77.975 5.548 77.975 5.467 77.893 5.386 C 77.812 5.305 77.732 5.305 77.65 5.305 L 77.083 5.305 L 77.083 4.822 L 79.434 4.822 L 83.325 10.384 L 83.325 5.709 C 83.325 5.548 83.325 5.467 83.245 5.386 C 83.163 5.305 83.082 5.305 83.001 5.305 L 82.352 5.305 L 82.352 4.822 L 84.866 4.822 L 84.866 5.305 L 84.299 5.305 C 84.217 5.305 84.136 5.305 84.055 5.386 C 84.055 5.548 83.974 5.628 83.974 5.789 Z" fill="rgb(255,255,255)"></path></g></svg>