<svg xmlns="http://www.w3.org/2000/svg" xmlns:xlink="http://www.w3.org/1999/xlink" viewBox="0 0 47.395 44.638" overflow="visible"><g><path d="M 23.62 0 L 23.697 0 C 36.786 0 47.393 10.622 47.395 23.723 C 47.395 24.651 47.341 25.566 47.238 26.466 Z M 44.716 34.684 C 43.657 36.714 42.311 38.58 40.719 40.226 L 23.618 21.06 L 6.591 40.142 C 5.004 38.488 3.666 36.612 2.617 34.573 L 23.62 11.04 L 44.718 34.684 Z M 0.139 26.31 C 0.046 25.45 -0.001 24.586 0 23.721 C -0.001 10.648 10.569 0.042 23.617 0.001 L 0.139 26.312 Z" fill="rgb(255,255,255)"></path><path d="M 23.398 44.638 C 26.335 44.638 28.717 42.254 28.717 39.313 C 28.717 36.372 26.335 33.988 23.398 33.988 C 20.461 33.988 18.079 36.372 18.079 39.313 C 18.079 42.254 20.461 44.638 23.398 44.638 Z" fill="rgb(255,255,255)"></path></g></svg>