<svg xmlns="http://www.w3.org/2000/svg" width="44" height="44" fill="none"><g clip-path="url(#a)"><mask id="c" width="44" height="44" x="0" y="0" maskUnits="userSpaceOnUse" style="mask-type:alpha"><path fill="#D9D9D9" d="M44 22C44 9.85 34.15 0 22 0S0 9.85 0 22s9.85 22 22 22 22-9.85 22-22"/></mask><g filter="url(#b)" mask="url(#c)"><path fill="url(#d)" d="M0 0h44v44H0z"/><g filter="url(#e)"><path fill="#000" d="M29.5 13h-12a1.5 1.5 0 0 0-1.5 1.5V16h-1.5a1.5 1.5 0 0 0-1.5 1.5v12a1.5 1.5 0 0 0 1.5 1.5h12a1.5 1.5 0 0 0 1.5-1.5V28h1.5a1.5 1.5 0 0 0 1.5-1.5v-12a1.5 1.5 0 0 0-1.5-1.5m-12 1.5h12v6.504l-1.566-1.565a1.5 1.5 0 0 0-2.12 0l-7.06 7.061H17.5zm9 15h-12v-12H16v9a1.5 1.5 0 0 0 1.5 1.5h9zm3-3h-8.625l6-6 2.625 2.625zm-8.25-6a2.25 2.25 0 1 0 0-4.5 2.25 2.25 0 0 0 0 4.5m0-3a.75.75 0 1 1 0 1.5.75.75 0 0 1 0-1.5"/></g></g></g><defs><filter id="b" width="44" height="48" x="0" y="0" color-interpolation-filters="sRGB" filterUnits="userSpaceOnUse"><feFlood flood-opacity="0" result="BackgroundImageFix"/><feBlend in="SourceGraphic" in2="BackgroundImageFix" result="shape"/><feColorMatrix in="SourceAlpha" result="hardAlpha" values="0 0 0 0 0 0 0 0 0 0 0 0 0 0 0 0 0 0 127 0"/><feOffset dy="4"/><feGaussianBlur stdDeviation="2"/><feComposite in2="hardAlpha" k2="-1" k3="1" operator="arithmetic"/><feColorMatrix values="0 0 0 0 1 0 0 0 0 1 0 0 0 0 1 0 0 0 0.15 0"/><feBlend in2="shape" result="effect1_innerShadow_869_111"/></filter><filter id="e" width="32" height="32" x="6" y="10" color-interpolation-filters="sRGB" filterUnits="userSpaceOnUse"><feFlood flood-opacity="0" result="BackgroundImageFix"/><feColorMatrix in="SourceAlpha" result="hardAlpha" values="0 0 0 0 0 0 0 0 0 0 0 0 0 0 0 0 0 0 127 0"/><feOffset dy="4"/><feGaussianBlur stdDeviation="2"/><feComposite in2="hardAlpha" operator="out"/><feColorMatrix values="0 0 0 0 0 0 0 0 0 0 0 0 0 0 0 0 0 0 0.25 0"/><feBlend in2="BackgroundImageFix" result="effect1_dropShadow_869_111"/><feBlend in="SourceGraphic" in2="effect1_dropShadow_869_111" result="shape"/></filter><linearGradient id="d" x1="22" x2="22" y1="0" y2="44" gradientUnits="userSpaceOnUse"><stop stop-color="#FEE863"/><stop offset="1" stop-color="#9F8D22"/></linearGradient><clipPath id="a"><path fill="#fff" d="M0 0h44v44H0z"/></clipPath></defs></svg>