<svg xmlns="http://www.w3.org/2000/svg" xmlns:xlink="http://www.w3.org/1999/xlink" style="width:100%;height:100%;" viewBox="0 0 191 75">
<mask id="svg1508132911_9268_mask0_184_385" style="mask-type:alpha" maskUnits="userSpaceOnUse" x="3" y="-2" width="183" height="79">
<path d="M20.2955 75V27.8893H3.89084V14.9548H10.3055C13.6004 14.9548 16.2294 14.4992 18.1923 13.5878C20.2254 12.6764 21.6976 11.1692 22.6089 9.066C23.5203 6.89273 23.976 3.98337 23.976 0.337894H38.5929V75H20.2955ZM80.7769 76.6825C74.0468 76.6825 68.228 75.1402 63.3207 72.0556C58.4834 68.9008 54.7328 64.4141 52.0688 58.5954C49.4749 52.7766 48.1779 45.8362 48.1779 37.7741C48.1779 29.712 49.4749 22.7716 52.0688 16.9528C54.7328 11.064 58.4834 6.54221 63.3207 3.38747C68.228 0.232737 74.0468 -1.34463 80.7769 -1.34463C87.507 -1.34463 93.2907 0.232737 98.1279 3.38747C102.965 6.54221 106.681 11.064 109.275 16.9528C111.939 22.7716 113.271 29.712 113.271 37.7741C113.271 45.7661 111.939 52.6715 109.275 58.4902C106.681 64.3089 102.965 68.7957 98.1279 71.9504C93.2907 75.1052 87.507 76.6825 80.7769 76.6825ZM80.7769 61.7501C85.1935 61.7501 88.5586 59.7872 90.872 55.8613C93.2556 51.8653 94.4474 45.8362 94.4474 37.7741C94.4474 32.376 93.9216 27.8893 92.87 24.3139C91.8185 20.7385 90.2761 18.0745 88.2431 16.3219C86.2801 14.4992 83.7914 13.5878 80.7769 13.5878C77.7623 13.5878 75.2386 14.4992 73.2055 16.3219C71.1725 18.0745 69.6301 20.7385 68.5786 24.3139C67.527 27.8893 67.0012 32.376 67.0012 37.7741C67.0012 45.8362 68.1579 51.8653 70.4714 55.8613C72.855 59.7872 76.2901 61.7501 80.7769 61.7501ZM153.434 76.6825C146.704 76.6825 140.886 75.1402 135.978 72.0556C131.141 68.9008 127.39 64.4141 124.726 58.5954C122.132 52.7766 120.835 45.8362 120.835 37.7741C120.835 29.712 122.132 22.7716 124.726 16.9528C127.39 11.064 131.141 6.54221 135.978 3.38747C140.886 0.232737 146.704 -1.34463 153.434 -1.34463C160.165 -1.34463 165.948 0.232737 170.785 3.38747C175.623 6.54221 179.338 11.064 181.932 16.9528C184.596 22.7716 185.928 29.712 185.928 37.7741C185.928 45.7661 184.596 52.6715 181.932 58.4902C179.338 64.3089 175.623 68.7957 170.785 71.9504C165.948 75.1052 160.165 76.6825 153.434 76.6825ZM153.434 61.7501C157.851 61.7501 161.216 59.7872 163.53 55.8613C165.913 51.8653 167.105 45.8362 167.105 37.7741C167.105 32.376 166.579 27.8893 165.528 24.3139C164.476 20.7385 162.934 18.0745 160.901 16.3219C158.938 14.4992 156.449 13.5878 153.434 13.5878C150.42 13.5878 147.896 14.4992 145.863 16.3219C143.83 18.0745 142.288 20.7385 141.236 24.3139C140.185 27.8893 139.659 32.376 139.659 37.7741C139.659 45.8362 140.815 51.8653 143.129 55.8613C145.513 59.7872 148.948 61.7501 153.434 61.7501Z" fill="white"/>
</mask>
<g mask="url(#svg1508132911_9268_mask0_184_385)">
<g filter="url(#svg1508132911_9268_filter0_i_184_385)">
<path d="M20.2955 75V27.8893H3.89084V14.9548H10.3055C13.6004 14.9548 16.2294 14.4992 18.1923 13.5878C20.2254 12.6764 21.6976 11.1692 22.6089 9.066C23.5203 6.89273 23.976 3.98337 23.976 0.337894H38.5929V75H20.2955ZM80.7769 76.6825C74.0468 76.6825 68.228 75.1402 63.3207 72.0556C58.4834 68.9008 54.7328 64.4141 52.0688 58.5954C49.4749 52.7766 48.1779 45.8362 48.1779 37.7741C48.1779 29.712 49.4749 22.7716 52.0688 16.9528C54.7328 11.064 58.4834 6.54221 63.3207 3.38747C68.228 0.232737 74.0468 -1.34463 80.7769 -1.34463C87.507 -1.34463 93.2907 0.232737 98.1279 3.38747C102.965 6.54221 106.681 11.064 109.275 16.9528C111.939 22.7716 113.271 29.712 113.271 37.7741C113.271 45.7661 111.939 52.6715 109.275 58.4902C106.681 64.3089 102.965 68.7957 98.1279 71.9504C93.2907 75.1052 87.507 76.6825 80.7769 76.6825ZM80.7769 61.7501C85.1935 61.7501 88.5586 59.7872 90.872 55.8613C93.2556 51.8653 94.4474 45.8362 94.4474 37.7741C94.4474 32.376 93.9216 27.8893 92.87 24.3139C91.8185 20.7385 90.2761 18.0745 88.2431 16.3219C86.2801 14.4992 83.7914 13.5878 80.7769 13.5878C77.7623 13.5878 75.2386 14.4992 73.2055 16.3219C71.1725 18.0745 69.6301 20.7385 68.5786 24.3139C67.527 27.8893 67.0012 32.376 67.0012 37.7741C67.0012 45.8362 68.1579 51.8653 70.4714 55.8613C72.855 59.7872 76.2901 61.7501 80.7769 61.7501ZM153.434 76.6825C146.704 76.6825 140.886 75.1402 135.978 72.0556C131.141 68.9008 127.39 64.4141 124.726 58.5954C122.132 52.7766 120.835 45.8362 120.835 37.7741C120.835 29.712 122.132 22.7716 124.726 16.9528C127.39 11.064 131.141 6.54221 135.978 3.38747C140.886 0.232737 146.704 -1.34463 153.434 -1.34463C160.165 -1.34463 165.948 0.232737 170.785 3.38747C175.623 6.54221 179.338 11.064 181.932 16.9528C184.596 22.7716 185.928 29.712 185.928 37.7741C185.928 45.7661 184.596 52.6715 181.932 58.4902C179.338 64.3089 175.623 68.7957 170.785 71.9504C165.948 75.1052 160.165 76.6825 153.434 76.6825ZM153.434 61.7501C157.851 61.7501 161.216 59.7872 163.53 55.8613C165.913 51.8653 167.105 45.8362 167.105 37.7741C167.105 32.376 166.579 27.8893 165.528 24.3139C164.476 20.7385 162.934 18.0745 160.901 16.3219C158.938 14.4992 156.449 13.5878 153.434 13.5878C150.42 13.5878 147.896 14.4992 145.863 16.3219C143.83 18.0745 142.288 20.7385 141.236 24.3139C140.185 27.8893 139.659 32.376 139.659 37.7741C139.659 45.8362 140.815 51.8653 143.129 55.8613C145.513 59.7872 148.948 61.7501 153.434 61.7501Z" fill="#9665E4"/>
</g>
<g filter="url(#svg1508132911_9268_filter1_f_184_385)" style="mix-blend-mode:plus-lighter">
<ellipse cx="85.8315" cy="9.84826" rx="8.43336" ry="34.2156" transform="rotate(30 85.8315 9.84826)" fill="white"/>
</g>
<g filter="url(#svg1508132911_9268_filter2_f_184_385)" style="mix-blend-mode:plus-lighter">
<ellipse cx="118.58" cy="35.9344" rx="8.71314" ry="55.9552" transform="rotate(30 118.58 35.9344)" fill="white"/>
</g>
<g filter="url(#svg1508132911_9268_filter3_f_184_385)" style="mix-blend-mode:plus-lighter">
<ellipse cx="166.116" cy="18.9227" rx="24.3853" ry="14.9349" transform="rotate(126.507 166.116 18.9227)" fill="white"/>
</g>
<g filter="url(#svg1508132911_9268_filter4_f_184_385)" style="mix-blend-mode:plus-lighter">
<ellipse cx="100.799" cy="65.8436" rx="1.66833" ry="119.157" transform="rotate(110.1 100.799 65.8436)" fill="white"/>
</g>
<g filter="url(#svg1508132911_9268_filter5_f_184_385)" style="mix-blend-mode:plus-lighter">
<ellipse cx="26.1457" cy="7.48457" rx="6.72569" ry="34.7816" transform="rotate(30 26.1457 7.48457)" fill="white"/>
</g>
<g filter="url(#svg1508132911_9268_filter6_f_184_385)">
<ellipse cx="47.7073" cy="36.9963" rx="6.02483" ry="53.1067" transform="rotate(30 47.7073 36.9963)" fill="#DFCCFF"/>
</g>
</g>
<defs>
<filter id="svg1508132911_9268_filter0_i_184_385" x="3.89062" y="-1.34375" width="182.037" height="79.0254" filterUnits="userSpaceOnUse" color-interpolation-filters="sRGB">
<feFlood flood-opacity="0" result="BackgroundImageFix"/>
<feBlend mode="normal" in="SourceGraphic" in2="BackgroundImageFix" result="shape"/>
<feColorMatrix in="SourceAlpha" type="matrix" values="0 0 0 0 0 0 0 0 0 0 0 0 0 0 0 0 0 0 127 0" result="hardAlpha"/>
<feOffset dy="1"/>
<feGaussianBlur stdDeviation="2"/>
<feComposite in2="hardAlpha" operator="arithmetic" k2="-1" k3="1"/>
<feColorMatrix type="matrix" values="0 0 0 0 1 0 0 0 0 0.859845 0 0 0 0 0.859845 0 0 0 1 0"/>
<feBlend mode="normal" in2="shape" result="effect1_innerShadow_184_385"/>
</filter>
<filter id="svg1508132911_9268_filter1_f_184_385" x="25.8221" y="-61.4894" width="120.019" height="142.674" filterUnits="userSpaceOnUse" color-interpolation-filters="sRGB">
<feFlood flood-opacity="0" result="BackgroundImageFix"/>
<feBlend mode="normal" in="SourceGraphic" in2="BackgroundImageFix" result="shape"/>
<feGaussianBlur stdDeviation="20.7017" result="effect1_foregroundBlur_184_385"/>
</filter>
<filter id="svg1508132911_9268_filter2_f_184_385" x="-12.4674" y="-114.786" width="262.095" height="301.441" filterUnits="userSpaceOnUse" color-interpolation-filters="sRGB">
<feFlood flood-opacity="0" result="BackgroundImageFix"/>
<feBlend mode="normal" in="SourceGraphic" in2="BackgroundImageFix" result="shape"/>
<feGaussianBlur stdDeviation="51.0316" result="effect1_foregroundBlur_184_385"/>
</filter>
<filter id="svg1508132911_9268_filter3_f_184_385" x="100.086" y="-49.8035" width="132.06" height="137.453" filterUnits="userSpaceOnUse" color-interpolation-filters="sRGB">
<feFlood flood-opacity="0" result="BackgroundImageFix"/>
<feBlend mode="normal" in="SourceGraphic" in2="BackgroundImageFix" result="shape"/>
<feGaussianBlur stdDeviation="23.6" result="effect1_foregroundBlur_184_385"/>
</filter>
<filter id="svg1508132911_9268_filter4_f_184_385" x="-75.3657" y="-39.3999" width="352.329" height="210.487" filterUnits="userSpaceOnUse" color-interpolation-filters="sRGB">
<feFlood flood-opacity="0" result="BackgroundImageFix"/>
<feBlend mode="normal" in="SourceGraphic" in2="BackgroundImageFix" result="shape"/>
<feGaussianBlur stdDeviation="32.1316" result="effect1_foregroundBlur_184_385"/>
</filter>
<filter id="svg1508132911_9268_filter5_f_184_385" x="-31.1466" y="-61.7735" width="114.585" height="138.518" filterUnits="userSpaceOnUse" color-interpolation-filters="sRGB">
<feFlood flood-opacity="0" result="BackgroundImageFix"/>
<feBlend mode="normal" in="SourceGraphic" in2="BackgroundImageFix" result="shape"/>
<feGaussianBlur stdDeviation="19.4737" result="effect1_foregroundBlur_184_385"/>
</filter>
<filter id="svg1508132911_9268_filter6_f_184_385" x="-43.6225" y="-73.3589" width="182.659" height="220.71" filterUnits="userSpaceOnUse" color-interpolation-filters="sRGB">
<feFlood flood-opacity="0" result="BackgroundImageFix"/>
<feBlend mode="normal" in="SourceGraphic" in2="BackgroundImageFix" result="shape"/>
<feGaussianBlur stdDeviation="32.1316" result="effect1_foregroundBlur_184_385"/>
</filter>
</defs>
</svg>