<svg xmlns="http://www.w3.org/2000/svg" xmlns:xlink="http://www.w3.org/1999/xlink" style="width:100%;height:100%;" viewBox="0 0 138 54">
<mask id="svg2074767659_9263_mask0_193_480" style="mask-type:alpha" maskUnits="userSpaceOnUse" x="2" y="-2" width="133" height="58">
<path d="M14.6658 54V19.9571H2.81158V10.6104H7.44689C9.82787 10.6104 11.7276 10.2812 13.146 9.62259C14.6152 8.96402 15.679 7.87485 16.3376 6.35508C16.9961 4.78464 17.3254 2.68229 17.3254 0.0480141H27.8879V54H14.6658ZM58.3706 55.2158C53.5073 55.2158 49.3026 54.1013 45.7565 51.8723C42.261 49.5927 39.5507 46.3505 37.6257 42.1458C35.7513 37.9411 34.8141 32.9258 34.8141 27.1C34.8141 21.2742 35.7513 16.2589 37.6257 12.0542C39.5507 7.79886 42.261 4.53135 45.7565 2.25169C49.3026 -0.0279737 53.5073 -1.1678 58.3706 -1.1678C63.2339 -1.1678 67.4133 -0.0279737 70.9087 2.25169C74.4042 4.53135 77.0892 7.79886 78.9636 12.0542C80.8886 16.2589 81.8511 21.2742 81.8511 27.1C81.8511 32.8751 80.8886 37.8651 78.9636 42.0698C77.0892 46.2745 74.4042 49.5167 70.9087 51.7963C67.4133 54.076 63.2339 55.2158 58.3706 55.2158ZM58.3706 44.4254C61.5621 44.4254 63.9938 43.007 65.6655 40.1701C67.3879 37.2825 68.2491 32.9258 68.2491 27.1C68.2491 23.1992 67.8692 19.9571 67.1093 17.3734C66.3494 14.7898 65.2349 12.8648 63.7658 11.5983C62.3474 10.2812 60.549 9.62259 58.3706 9.62259C56.1923 9.62259 54.3685 10.2812 52.8994 11.5983C51.4303 12.8648 50.3158 14.7898 49.5559 17.3734C48.796 19.9571 48.4161 23.1992 48.4161 27.1C48.4161 32.9258 49.252 37.2825 50.9237 40.1701C52.6461 43.007 55.1284 44.4254 58.3706 44.4254ZM110.874 55.2158C106.011 55.2158 101.806 54.1013 98.2599 51.8723C94.7644 49.5927 92.0542 46.3505 90.1291 42.1458C88.2547 37.9411 87.3176 32.9258 87.3176 27.1C87.3176 21.2742 88.2547 16.2589 90.1291 12.0542C92.0542 7.79886 94.7644 4.53135 98.2599 2.25169C101.806 -0.0279737 106.011 -1.1678 110.874 -1.1678C115.737 -1.1678 119.917 -0.0279737 123.412 2.25169C126.908 4.53135 129.593 7.79886 131.467 12.0542C133.392 16.2589 134.355 21.2742 134.355 27.1C134.355 32.8751 133.392 37.8651 131.467 42.0698C129.593 46.2745 126.908 49.5167 123.412 51.7963C119.917 54.076 115.737 55.2158 110.874 55.2158ZM110.874 44.4254C114.066 44.4254 116.497 43.007 118.169 40.1701C119.891 37.2825 120.753 32.9258 120.753 27.1C120.753 23.1992 120.373 19.9571 119.613 17.3734C118.853 14.7898 117.738 12.8648 116.269 11.5983C114.851 10.2812 113.052 9.62259 110.874 9.62259C108.696 9.62259 106.872 10.2812 105.403 11.5983C103.934 12.8648 102.819 14.7898 102.059 17.3734C101.299 19.9571 100.92 23.1992 100.92 27.1C100.92 32.9258 101.755 37.2825 103.427 40.1701C105.15 43.007 107.632 44.4254 110.874 44.4254Z" fill="white"/>
</mask>
<g mask="url(#svg2074767659_9263_mask0_193_480)">
<g filter="url(#svg2074767659_9263_filter0_i_193_480)">
<path d="M14.6658 54V19.9571H2.81158V10.6104H7.44689C9.82787 10.6104 11.7276 10.2812 13.146 9.62259C14.6152 8.96402 15.679 7.87485 16.3376 6.35508C16.9961 4.78464 17.3254 2.68229 17.3254 0.0480141H27.8879V54H14.6658ZM58.3706 55.2158C53.5073 55.2158 49.3026 54.1013 45.7565 51.8723C42.261 49.5927 39.5507 46.3505 37.6257 42.1458C35.7513 37.9411 34.8141 32.9258 34.8141 27.1C34.8141 21.2742 35.7513 16.2589 37.6257 12.0542C39.5507 7.79886 42.261 4.53135 45.7565 2.25169C49.3026 -0.0279737 53.5073 -1.1678 58.3706 -1.1678C63.2339 -1.1678 67.4133 -0.0279737 70.9087 2.25169C74.4042 4.53135 77.0892 7.79886 78.9636 12.0542C80.8886 16.2589 81.8511 21.2742 81.8511 27.1C81.8511 32.8751 80.8886 37.8651 78.9636 42.0698C77.0892 46.2745 74.4042 49.5167 70.9087 51.7963C67.4133 54.076 63.2339 55.2158 58.3706 55.2158ZM58.3706 44.4254C61.5621 44.4254 63.9938 43.007 65.6655 40.1701C67.3879 37.2825 68.2491 32.9258 68.2491 27.1C68.2491 23.1992 67.8692 19.9571 67.1093 17.3734C66.3494 14.7898 65.2349 12.8648 63.7658 11.5983C62.3474 10.2812 60.549 9.62259 58.3706 9.62259C56.1923 9.62259 54.3685 10.2812 52.8994 11.5983C51.4303 12.8648 50.3158 14.7898 49.5559 17.3734C48.796 19.9571 48.4161 23.1992 48.4161 27.1C48.4161 32.9258 49.252 37.2825 50.9237 40.1701C52.6461 43.007 55.1284 44.4254 58.3706 44.4254ZM110.874 55.2158C106.011 55.2158 101.806 54.1013 98.2599 51.8723C94.7644 49.5927 92.0542 46.3505 90.1291 42.1458C88.2547 37.9411 87.3176 32.9258 87.3176 27.1C87.3176 21.2742 88.2547 16.2589 90.1291 12.0542C92.0542 7.79886 94.7644 4.53135 98.2599 2.25169C101.806 -0.0279737 106.011 -1.1678 110.874 -1.1678C115.737 -1.1678 119.917 -0.0279737 123.412 2.25169C126.908 4.53135 129.593 7.79886 131.467 12.0542C133.392 16.2589 134.355 21.2742 134.355 27.1C134.355 32.8751 133.392 37.8651 131.467 42.0698C129.593 46.2745 126.908 49.5167 123.412 51.7963C119.917 54.076 115.737 55.2158 110.874 55.2158ZM110.874 44.4254C114.066 44.4254 116.497 43.007 118.169 40.1701C119.891 37.2825 120.753 32.9258 120.753 27.1C120.753 23.1992 120.373 19.9571 119.613 17.3734C118.853 14.7898 117.738 12.8648 116.269 11.5983C114.851 10.2812 113.052 9.62259 110.874 9.62259C108.696 9.62259 106.872 10.2812 105.403 11.5983C103.934 12.8648 102.819 14.7898 102.059 17.3734C101.299 19.9571 100.92 23.1992 100.92 27.1C100.92 32.9258 101.755 37.2825 103.427 40.1701C105.15 43.007 107.632 44.4254 110.874 44.4254Z" fill="#9665E4"/>
</g>
<g filter="url(#svg2074767659_9263_filter1_f_193_480)" style="mix-blend-mode:plus-lighter">
<ellipse cx="62.0227" cy="7.11552" rx="6.09408" ry="24.7247" transform="rotate(30 62.0227 7.11552)" fill="white"/>
</g>
<g filter="url(#svg2074767659_9263_filter2_f_193_480)" style="mix-blend-mode:plus-lighter">
<ellipse cx="85.6878" cy="25.9659" rx="6.29625" ry="40.4341" transform="rotate(30 85.6878 25.9659)" fill="white"/>
</g>
<g filter="url(#svg2074767659_9263_filter3_f_193_480)" style="mix-blend-mode:plus-lighter">
<ellipse cx="120.039" cy="13.673" rx="17.6212" ry="10.7922" transform="rotate(126.507 120.039 13.673)" fill="white"/>
</g>
<g filter="url(#svg2074767659_9263_filter4_f_193_480)" style="mix-blend-mode:plus-lighter">
<ellipse cx="72.8393" cy="47.5784" rx="1.20556" ry="86.1049" transform="rotate(110.1 72.8393 47.5784)" fill="white"/>
</g>
<g filter="url(#svg2074767659_9263_filter5_f_193_480)" style="mix-blend-mode:plus-lighter">
<ellipse cx="18.8931" cy="5.4074" rx="4.86009" ry="25.1337" transform="rotate(30 18.8931 5.4074)" fill="white"/>
</g>
<g filter="url(#svg2074767659_9263_filter6_f_193_480)">
<ellipse cx="34.4741" cy="26.7334" rx="4.35363" ry="38.3757" transform="rotate(30 34.4741 26.7334)" fill="#DFCCFF"/>
</g>
</g>
<defs>
<filter id="svg2074767659_9263_filter0_i_193_480" x="2.81152" y="-1.16797" width="131.543" height="57.1054" filterUnits="userSpaceOnUse" color-interpolation-filters="sRGB">
<feFlood flood-opacity="0" result="BackgroundImageFix"/>
<feBlend mode="normal" in="SourceGraphic" in2="BackgroundImageFix" result="shape"/>
<feColorMatrix in="SourceAlpha" type="matrix" values="0 0 0 0 0 0 0 0 0 0 0 0 0 0 0 0 0 0 127 0" result="hardAlpha"/>
<feOffset dy="0.722615"/>
<feGaussianBlur stdDeviation="1.44523"/>
<feComposite in2="hardAlpha" operator="arithmetic" k2="-1" k3="1"/>
<feColorMatrix type="matrix" values="0 0 0 0 1 0 0 0 0 0.859845 0 0 0 0 0.859845 0 0 0 1 0"/>
<feBlend mode="normal" in2="shape" result="effect1_innerShadow_193_480"/>
</filter>
<filter id="svg2074767659_9263_filter1_f_193_480" x="18.6583" y="-44.4344" width="86.7282" height="103.099" filterUnits="userSpaceOnUse" color-interpolation-filters="sRGB">
<feFlood flood-opacity="0" result="BackgroundImageFix"/>
<feBlend mode="normal" in="SourceGraphic" in2="BackgroundImageFix" result="shape"/>
<feGaussianBlur stdDeviation="14.9594" result="effect1_foregroundBlur_193_480"/>
</filter>
<filter id="svg2074767659_9263_filter2_f_193_480" x="-9.0092" y="-82.9477" width="189.394" height="217.827" filterUnits="userSpaceOnUse" color-interpolation-filters="sRGB">
<feFlood flood-opacity="0" result="BackgroundImageFix"/>
<feBlend mode="normal" in="SourceGraphic" in2="BackgroundImageFix" result="shape"/>
<feGaussianBlur stdDeviation="36.8762" result="effect1_foregroundBlur_193_480"/>
</filter>
<filter id="svg2074767659_9263_filter3_f_193_480" x="72.3242" y="-35.9903" width="95.4288" height="99.3262" filterUnits="userSpaceOnUse" color-interpolation-filters="sRGB">
<feFlood flood-opacity="0" result="BackgroundImageFix"/>
<feBlend mode="normal" in="SourceGraphic" in2="BackgroundImageFix" result="shape"/>
<feGaussianBlur stdDeviation="17.0537" result="effect1_foregroundBlur_193_480"/>
</filter>
<filter id="svg2074767659_9263_filter4_f_193_480" x="-54.46" y="-28.4727" width="254.599" height="152.102" filterUnits="userSpaceOnUse" color-interpolation-filters="sRGB">
<feFlood flood-opacity="0" result="BackgroundImageFix"/>
<feBlend mode="normal" in="SourceGraphic" in2="BackgroundImageFix" result="shape"/>
<feGaussianBlur stdDeviation="23.2188" result="effect1_foregroundBlur_193_480"/>
</filter>
<filter id="svg2074767659_9263_filter5_f_193_480" x="-22.5072" y="-44.6401" width="82.8006" height="100.095" filterUnits="userSpaceOnUse" color-interpolation-filters="sRGB">
<feFlood flood-opacity="0" result="BackgroundImageFix"/>
<feBlend mode="normal" in="SourceGraphic" in2="BackgroundImageFix" result="shape"/>
<feGaussianBlur stdDeviation="14.072" result="effect1_foregroundBlur_193_480"/>
</filter>
<filter id="svg2074767659_9263_filter6_f_193_480" x="-31.5215" y="-53.0118" width="131.991" height="159.49" filterUnits="userSpaceOnUse" color-interpolation-filters="sRGB">
<feFlood flood-opacity="0" result="BackgroundImageFix"/>
<feBlend mode="normal" in="SourceGraphic" in2="BackgroundImageFix" result="shape"/>
<feGaussianBlur stdDeviation="23.2188" result="effect1_foregroundBlur_193_480"/>
</filter>
</defs>
</svg>