<svg xmlns="http://www.w3.org/2000/svg" xmlns:xlink="http://www.w3.org/1999/xlink" style="width:100%;height:100%;overflow: visible;"><g><path d="M 0 0 L 100 0 L 100 25.28 L 0 25.28 Z" fill="transparent"/><path d="M 48.499 19.796 L 48.499 19.421 L 48.949 19.421 L 48.949 20.173 L 48.499 20.173 L 48.499 19.797 Z M 83.859 24.24 C 83.599 24.147 83.362 23.9 83.301 23.657 C 83.197 23.243 83.281 22.679 83.473 22.499 C 83.682 22.304 83.708 22.299 84.703 22.279 L 85.643 22.261 L 85.632 21.922 C 85.62 21.545 85.577 21.45 85.357 21.321 C 85.245 21.254 85.162 21.245 84.678 21.245 C 84.18 21.245 84.118 21.253 84.021 21.323 C 83.881 21.435 83.795 21.602 83.784 21.781 L 83.784 21.903 L 83.371 21.903 L 83.371 21.754 C 83.371 21.359 83.591 21.038 83.934 20.935 C 84.227 20.847 85.181 20.849 85.482 20.939 C 85.748 21.018 85.973 21.219 86.032 21.433 C 86.059 21.53 86.073 22.063 86.074 22.928 L 86.074 24.274 L 85.661 24.274 L 85.661 24.123 C 85.661 23.951 85.653 23.947 85.517 24.043 C 85.242 24.235 85.06 24.284 84.554 24.299 C 84.142 24.311 84.034 24.301 83.859 24.239 Z M 85.16 23.861 C 85.26 23.817 85.405 23.719 85.483 23.643 L 85.623 23.506 L 85.623 22.569 L 84.837 22.591 C 83.781 22.621 83.741 22.643 83.718 23.176 C 83.708 23.437 83.718 23.528 83.773 23.631 C 83.913 23.899 84.12 23.977 84.635 23.956 C 84.88 23.946 85.031 23.918 85.16 23.861 Z M 98.105 24.307 C 97.694 24.271 97.555 24.231 97.384 24.1 C 97.204 23.963 97.112 23.745 97.111 23.455 L 97.11 23.219 L 97.513 23.219 L 97.539 23.453 C 97.562 23.653 97.584 23.703 97.694 23.807 C 97.854 23.957 98.033 23.985 98.711 23.965 C 99.081 23.955 99.222 23.935 99.317 23.885 C 99.497 23.787 99.587 23.617 99.587 23.37 C 99.593 23.256 99.568 23.143 99.514 23.043 C 99.386 22.833 99.263 22.797 98.555 22.761 C 97.711 22.719 97.542 22.683 97.369 22.51 C 97.158 22.298 97.091 21.883 97.205 21.498 C 97.278 21.25 97.417 21.086 97.633 20.992 C 98.021 20.825 99.086 20.83 99.449 21.001 C 99.694 21.116 99.833 21.324 99.868 21.631 L 99.895 21.865 L 99.475 21.865 L 99.475 21.743 C 99.466 21.559 99.355 21.396 99.188 21.319 C 99.003 21.229 98.456 21.201 98.096 21.262 C 97.876 21.299 97.813 21.327 97.708 21.435 C 97.602 21.545 97.582 21.595 97.571 21.78 C 97.556 22.021 97.601 22.138 97.751 22.25 C 97.831 22.31 97.97 22.332 98.537 22.374 C 99.337 22.434 99.537 22.478 99.724 22.632 C 99.921 22.795 99.999 22.993 99.999 23.337 C 100 23.67 99.945 23.828 99.769 23.998 C 99.576 24.184 99.325 24.277 98.916 24.313 C 98.777 24.327 98.638 24.336 98.499 24.341 C 98.368 24.331 98.236 24.319 98.105 24.307 Z M 24.887 24.312 C 24.617 24.277 24.432 24.187 24.271 24.009 C 24.044 23.756 24.016 23.597 23.996 22.401 C 23.986 21.816 23.99 21.244 24.004 21.13 L 24.03 20.922 L 24.232 20.933 L 24.433 20.944 L 24.449 22.186 C 24.466 23.48 24.476 23.568 24.637 23.741 C 24.777 23.893 24.921 23.944 25.209 23.946 C 25.572 23.948 25.793 23.88 25.992 23.704 C 26.264 23.464 26.277 23.391 26.277 22.048 L 26.277 20.888 L 26.727 20.888 L 26.727 24.274 L 26.314 24.274 L 26.314 24.092 C 26.319 24.022 26.311 23.952 26.29 23.885 C 26.276 23.872 26.185 23.935 26.087 24.027 C 25.83 24.267 25.381 24.375 24.887 24.312 Z M 32.94 24.311 C 32.508 24.251 32.301 24.117 32.154 23.806 C 32.072 23.631 32.058 23.55 32.058 23.251 C 32.059 22.837 32.126 22.654 32.338 22.478 C 32.568 22.288 32.714 22.267 33.635 22.288 L 34.46 22.306 L 34.46 22.039 C 34.459 21.356 34.302 21.226 33.473 21.226 C 32.835 21.226 32.678 21.312 32.636 21.683 L 32.611 21.903 L 32.163 21.903 L 32.188 21.706 C 32.232 21.369 32.288 21.23 32.438 21.096 C 32.648 20.904 32.815 20.869 33.522 20.869 C 34.048 20.869 34.172 20.88 34.342 20.944 C 34.592 21.036 34.809 21.269 34.868 21.507 C 34.895 21.614 34.91 22.141 34.91 22.973 L 34.91 24.273 L 34.46 24.273 L 34.46 24.123 C 34.46 24.04 34.453 23.973 34.445 23.973 C 34.437 23.973 34.343 24.031 34.235 24.103 C 34.133 24.173 34.021 24.229 33.904 24.27 C 33.692 24.326 33.191 24.347 32.94 24.311 Z M 33.995 23.862 C 34.116 23.806 34.228 23.73 34.325 23.638 L 34.462 23.496 L 34.452 23.066 L 34.442 22.637 L 33.66 22.627 C 32.619 22.613 32.53 22.653 32.483 23.157 C 32.445 23.567 32.592 23.833 32.913 23.937 C 32.969 23.956 33.193 23.965 33.409 23.957 C 33.711 23.947 33.849 23.925 33.995 23.862 Z M 71.246 24.259 C 70.826 24.139 70.66 23.967 70.546 23.539 C 70.479 23.284 70.479 21.963 70.546 21.674 C 70.691 21.059 71.21 20.801 72.166 20.866 C 72.611 20.896 72.836 20.979 73.054 21.189 C 73.274 21.401 73.335 21.602 73.37 22.233 L 73.396 22.693 L 70.896 22.693 L 70.919 23.06 C 70.943 23.457 71.002 23.646 71.139 23.769 C 71.309 23.921 71.462 23.954 71.996 23.951 C 72.724 23.948 72.897 23.853 72.897 23.461 L 72.897 23.267 L 73.087 23.242 C 73.19 23.228 73.291 23.227 73.311 23.24 C 73.378 23.28 73.351 23.628 73.268 23.805 C 73.178 23.995 73.038 24.115 72.785 24.218 C 72.566 24.308 71.511 24.336 71.245 24.259 Z M 72.922 22.057 C 72.892 21.693 72.824 21.522 72.664 21.402 C 72.462 21.252 72.288 21.215 71.851 21.234 C 71.407 21.254 71.201 21.328 71.065 21.518 C 70.986 21.629 70.909 21.972 70.909 22.211 L 70.909 22.355 L 72.947 22.355 Z M 20.064 24.231 C 19.94 24.189 19.822 24.13 19.713 24.058 C 19.414 23.831 19.263 23.189 19.31 22.343 C 19.37 21.243 19.765 20.856 20.828 20.852 C 21.391 20.849 21.804 21.002 22.014 21.293 C 22.231 21.593 22.278 21.824 22.277 22.6 C 22.276 23.274 22.259 23.393 22.121 23.71 C 22.005 23.973 21.757 24.17 21.424 24.258 C 21.11 24.342 20.342 24.327 20.064 24.231 Z M 21.322 23.891 C 21.524 23.817 21.682 23.655 21.752 23.452 C 21.838 23.2 21.835 21.969 21.748 21.745 C 21.579 21.308 21.132 21.146 20.429 21.269 C 20.133 21.32 19.978 21.444 19.857 21.725 C 19.779 21.906 19.772 21.977 19.773 22.6 C 19.774 23.155 19.786 23.307 19.841 23.446 C 19.999 23.853 20.276 23.986 20.891 23.948 C 21.055 23.938 21.249 23.912 21.321 23.89 Z M 68.071 24.276 C 68.063 24.268 68.056 23.586 68.056 22.762 L 68.056 21.264 L 67.53 21.264 L 67.53 20.887 L 68.044 20.887 L 68.068 20.471 C 68.081 20.242 68.113 19.985 68.138 19.9 C 68.205 19.686 68.377 19.521 68.594 19.463 C 68.886 19.414 69.184 19.407 69.478 19.443 C 69.59 19.466 69.595 19.475 69.595 19.651 L 69.595 19.834 L 69.156 19.834 C 68.731 19.834 68.714 19.837 68.612 19.935 C 68.509 20.035 68.506 20.045 68.506 20.462 L 68.506 20.887 L 69.52 20.887 L 69.52 21.263 L 68.506 21.263 L 68.506 24.266 L 68.296 24.279 C 68.221 24.288 68.146 24.287 68.071 24.276 Z M 93.361 24.268 C 93.159 24.207 92.983 24.081 92.859 23.911 C 92.667 23.632 92.634 23.476 92.614 22.775 C 92.589 21.827 92.684 21.437 93.01 21.149 C 93.384 20.819 94.192 20.759 94.71 21.021 C 94.79 21.059 94.864 21.108 94.93 21.167 C 94.957 21.199 94.994 21.226 95.012 21.226 C 95.031 21.226 95.045 20.836 95.045 20.361 L 95.045 19.495 L 95.499 19.495 L 95.493 21.885 L 95.488 24.273 L 95.037 24.273 L 95.061 24.144 C 95.094 23.971 95.036 23.947 94.879 24.067 C 94.632 24.255 94.413 24.311 93.929 24.307 C 93.739 24.31 93.549 24.296 93.361 24.267 Z M 94.557 23.871 C 94.65 23.828 94.794 23.734 94.877 23.661 L 95.027 23.529 L 95.017 22.652 C 95.008 21.782 95.008 21.775 94.912 21.63 C 94.844 21.527 94.747 21.451 94.583 21.374 C 94.376 21.276 94.313 21.264 93.994 21.265 C 93.704 21.266 93.606 21.282 93.469 21.35 C 93.137 21.514 93.073 21.733 93.078 22.693 C 93.083 23.598 93.195 23.82 93.713 23.949 C 93.889 23.993 94.391 23.946 94.557 23.871 Z M 50.839 23.737 C 50.857 23.173 50.865 22.608 50.864 22.044 L 50.864 20.888 L 51.277 20.888 L 51.277 21.113 C 51.277 21.237 51.284 21.339 51.293 21.339 C 51.302 21.339 51.395 21.255 51.501 21.152 C 51.732 20.926 51.951 20.85 52.371 20.85 C 52.961 20.85 53.319 21.012 53.491 21.358 L 53.585 21.546 L 53.597 22.909 L 53.608 24.273 L 53.157 24.273 L 53.147 22.966 C 53.135 21.73 53.131 21.652 53.058 21.528 C 52.928 21.304 52.778 21.245 52.347 21.245 C 52.004 21.245 51.954 21.255 51.777 21.353 C 51.554 21.476 51.467 21.561 51.355 21.763 C 51.28 21.899 51.277 21.957 51.277 23.089 L 51.277 24.273 L 50.815 24.273 Z M 41.056 24.271 C 40.865 24.224 40.652 24.111 40.552 24.004 C 40.478 23.907 40.416 23.802 40.367 23.69 C 40.271 23.48 40.263 23.423 40.247 22.841 C 40.215 21.587 40.385 21.14 40.971 20.935 C 41.252 20.836 42.247 20.839 42.511 20.939 C 42.952 21.106 43.115 21.356 43.169 21.949 C 43.188 22.161 43.204 22.416 43.205 22.514 L 43.206 22.693 L 40.691 22.693 L 40.691 23.007 C 40.691 23.499 40.794 23.718 41.092 23.859 C 41.242 23.929 41.336 23.942 41.703 23.944 C 42.252 23.947 42.497 23.891 42.628 23.735 C 42.712 23.635 42.724 23.592 42.708 23.438 L 42.692 23.258 L 43.209 23.258 L 43.184 23.455 C 43.134 23.862 42.981 24.065 42.606 24.218 C 42.47 24.274 42.316 24.289 41.817 24.297 C 41.477 24.302 41.134 24.291 41.057 24.271 Z M 42.734 22.044 C 42.705 21.661 42.604 21.427 42.418 21.321 C 42.314 21.261 42.2 21.242 41.876 21.231 C 41.066 21.203 40.769 21.376 40.71 21.907 C 40.697 22.019 40.679 22.165 40.669 22.232 L 40.65 22.354 L 42.757 22.354 Z M 64.286 24.309 C 63.946 24.256 63.817 24.202 63.641 24.039 C 63.426 23.841 63.345 23.621 63.347 23.239 C 63.349 22.888 63.404 22.698 63.557 22.523 C 63.751 22.303 63.934 22.268 64.892 22.271 L 65.729 22.274 L 65.729 21.921 C 65.729 21.58 65.725 21.563 65.613 21.435 C 65.463 21.263 65.317 21.227 64.78 21.226 C 64.133 21.226 63.977 21.313 63.938 21.693 L 63.916 21.903 L 63.476 21.903 L 63.476 21.757 C 63.476 21.533 63.586 21.244 63.716 21.121 C 63.908 20.941 64.118 20.881 64.642 20.859 C 65.451 20.826 65.833 20.941 66.048 21.284 L 66.16 21.464 L 66.171 22.869 L 66.182 24.273 L 65.766 24.273 L 65.766 24.104 C 65.766 24.011 65.756 23.934 65.744 23.934 C 65.681 23.971 65.623 24.015 65.57 24.065 C 65.486 24.137 65.34 24.221 65.245 24.251 C 65.017 24.324 64.564 24.351 64.285 24.309 Z M 65.053 23.933 C 65.146 23.912 65.336 23.817 65.475 23.723 L 65.729 23.551 L 65.729 22.618 L 64.112 22.618 L 63.959 22.76 C 63.817 22.894 63.805 22.92 63.787 23.155 C 63.765 23.428 63.833 23.685 63.957 23.795 C 64.132 23.951 64.67 24.019 65.053 23.933 Z M 15.924 25.602 L 15.935 25.389 L 16.211 25.398 C 16.429 25.405 16.501 25.393 16.559 25.342 C 16.644 25.264 16.912 24.454 16.879 24.369 C 16.867 24.337 16.814 24.311 16.761 24.311 C 16.683 24.311 16.651 24.28 16.597 24.151 C 16.512 23.952 15.541 21.021 15.541 20.966 C 15.541 20.941 15.629 20.926 15.761 20.926 L 15.982 20.926 L 16.322 21.969 L 16.808 23.464 C 16.889 23.713 16.968 23.916 16.983 23.916 C 17.026 23.916 17.249 23.196 17.749 21.452 L 17.894 20.944 L 18.13 20.932 C 18.344 20.922 18.363 20.927 18.338 20.989 C 18.305 21.071 18.311 21.054 18.008 22.035 C 17.723 22.961 17.408 24.01 17.278 24.461 C 16.983 25.494 16.929 25.604 16.652 25.738 C 16.534 25.796 16.419 25.815 16.202 25.815 L 15.912 25.815 Z M 78.679 21.846 L 78.679 19.416 L 78.895 19.428 L 79.111 19.439 L 79.129 20.372 L 79.149 21.305 L 79.279 21.169 C 79.521 20.919 79.826 20.832 80.367 20.858 C 80.843 20.881 81.108 20.997 81.271 21.253 C 81.438 21.518 81.457 21.693 81.457 23.033 L 81.457 24.273 L 81.011 24.273 L 80.999 22.94 C 80.988 21.653 80.985 21.604 80.909 21.501 C 80.773 21.319 80.612 21.251 80.274 21.233 C 79.834 21.21 79.576 21.291 79.351 21.523 C 79.246 21.633 79.169 21.752 79.153 21.831 C 79.139 21.901 79.129 22.476 79.131 23.107 L 79.134 24.254 L 78.907 24.265 L 78.679 24.277 L 78.679 21.847 Z M 48.499 22.581 L 48.499 20.888 L 48.949 20.888 L 48.949 24.274 L 48.499 24.274 Z M 59.599 24.27 C 59.138 24.16 58.897 23.856 58.897 23.382 L 58.897 23.22 L 59.347 23.22 L 59.35 23.38 C 59.354 23.624 59.43 23.792 59.576 23.878 C 59.688 23.944 59.771 23.953 60.248 23.953 C 61.07 23.953 61.253 23.873 61.318 23.489 C 61.352 23.279 61.279 23.013 61.16 22.919 C 61.033 22.819 60.775 22.777 60.077 22.739 C 59.334 22.699 59.204 22.646 59.035 22.317 C 58.939 22.132 58.93 22.081 58.944 21.828 C 58.982 21.12 59.361 20.85 60.316 20.85 C 60.94 20.85 61.328 20.965 61.494 21.199 C 61.588 21.331 61.674 21.609 61.674 21.777 L 61.674 21.903 L 61.234 21.903 L 61.214 21.73 C 61.203 21.541 61.091 21.373 60.921 21.29 C 60.731 21.19 59.885 21.211 59.667 21.32 C 59.467 21.42 59.379 21.585 59.372 21.863 C 59.368 22.052 59.382 22.102 59.458 22.183 C 59.585 22.319 59.727 22.349 60.436 22.389 C 61.284 22.439 61.503 22.523 61.661 22.861 C 61.817 23.197 61.766 23.721 61.55 23.992 C 61.443 24.126 61.304 24.205 61.055 24.271 C 60.876 24.318 59.801 24.317 59.599 24.27 Z M 36.825 22.58 L 36.825 20.887 L 37.243 20.887 L 37.233 21.113 C 37.223 21.378 37.249 21.423 37.325 21.276 C 37.455 21.027 37.705 20.889 38.077 20.86 C 38.459 20.832 38.731 20.897 38.927 21.065 C 39.127 21.237 39.187 21.378 39.215 21.755 L 39.238 22.053 L 38.739 22.053 L 38.739 21.858 C 38.739 21.593 38.619 21.347 38.453 21.278 C 38.183 21.164 37.817 21.234 37.57 21.446 C 37.283 21.693 37.277 21.725 37.276 23.079 L 37.275 24.273 L 36.825 24.273 Z M 87.988 22.58 L 87.988 20.888 L 88.439 20.888 L 88.439 21.382 L 88.612 21.209 C 88.868 20.952 89.035 20.881 89.427 20.859 C 90.072 20.821 90.463 20.963 90.654 21.303 L 90.747 21.471 L 90.758 22.872 L 90.77 24.273 L 90.353 24.273 L 90.35 24.133 C 90.348 24.054 90.344 23.475 90.34 22.843 C 90.335 21.763 90.33 21.688 90.257 21.548 C 90.151 21.345 89.964 21.255 89.607 21.234 C 89.211 21.212 88.948 21.293 88.703 21.514 C 88.599 21.608 88.513 21.716 88.513 21.754 C 88.513 21.792 88.497 21.834 88.476 21.847 C 88.453 21.862 88.439 22.311 88.439 23.072 L 88.439 24.273 L 87.988 24.273 L 87.988 22.581 Z M 56.782 8.532 C 56.369 8.412 56.156 8.148 56.157 7.756 C 56.159 7.372 56.367 7.094 56.757 6.953 C 56.907 6.899 57.027 6.888 57.317 6.9 C 57.664 6.913 57.701 6.923 57.907 7.05 C 58.259 7.267 58.373 7.572 58.259 7.986 C 58.212 8.155 57.991 8.372 57.761 8.473 C 57.53 8.576 57.035 8.605 56.782 8.532 Z M 56.888 17.317 C 56.791 17.268 56.703 17.204 56.626 17.127 L 56.513 17.007 L 56.503 13.436 C 56.493 9.908 56.494 9.862 56.57 9.714 C 56.683 9.492 56.9 9.364 57.194 9.344 C 57.464 9.327 57.622 9.375 57.784 9.523 C 58.008 9.728 57.996 9.513 57.996 13.325 C 57.996 16.693 57.993 16.832 57.925 16.967 C 57.729 17.342 57.272 17.496 56.888 17.317 Z M 63.345 17.308 C 61.964 17.234 61.145 16.885 60.664 16.162 C 60.332 15.666 60.224 15.124 60.26 14.134 C 60.284 13.45 60.354 13.12 60.549 12.774 C 60.681 12.519 60.867 12.295 61.093 12.118 L 61.323 11.938 C 61.394 11.878 61.74 11.711 61.908 11.654 C 61.996 11.624 62.246 11.562 62.463 11.516 C 62.853 11.432 62.891 11.431 66.755 11.416 L 70.653 11.401 L 70.628 11.302 C 70.55 11.05 70.418 10.819 70.241 10.624 C 70.118 10.511 69.978 10.416 69.828 10.342 L 69.576 10.222 L 67.316 10.203 L 65.054 10.185 L 64.896 10.027 C 64.754 9.883 64.738 9.847 64.723 9.647 C 64.706 9.513 64.727 9.376 64.783 9.253 C 64.926 8.927 64.797 8.945 67.116 8.93 C 68.534 8.92 69.279 8.93 69.539 8.961 C 70.74 9.104 71.539 9.566 71.899 10.329 C 72.164 10.887 72.16 10.853 72.176 12.893 C 72.192 14.905 72.179 15.102 71.994 15.584 C 71.714 16.316 71.053 16.874 70.194 17.104 C 69.456 17.303 69.204 17.318 66.392 17.325 C 64.964 17.329 63.592 17.321 63.345 17.308 Z M 68.488 16.072 C 69.508 16.025 69.908 15.912 70.264 15.569 C 70.602 15.244 70.644 15.04 70.645 13.711 L 70.646 12.648 L 67.09 12.649 C 65.133 12.649 63.342 12.666 63.11 12.685 C 62.591 12.728 62.319 12.836 62.076 13.096 C 61.806 13.386 61.768 13.535 61.768 14.323 L 61.768 15.001 L 61.892 15.252 C 62.023 15.52 62.249 15.752 62.492 15.868 C 62.851 16.04 62.944 16.047 65.091 16.071 C 66.216 16.083 67.271 16.096 67.437 16.101 C 67.602 16.104 68.075 16.091 68.487 16.072 Z M 30.396 17.321 C 30.25 17.311 30.19 17.284 30.071 17.17 C 29.815 16.926 29.813 16.52 30.068 16.246 L 30.213 16.091 L 33.923 16.071 C 37.39 16.053 37.645 16.047 37.838 15.982 C 38.267 15.839 38.463 15.701 38.648 15.414 C 38.754 15.249 38.748 14.621 38.638 14.379 C 38.533 14.145 38.302 13.927 37.98 13.754 L 37.707 13.608 L 34.892 13.586 C 32.152 13.564 32.068 13.562 31.757 13.481 C 30.762 13.223 30.287 12.852 30.035 12.135 C 29.83 11.555 29.865 10.68 30.115 10.185 C 30.391 9.634 30.868 9.286 31.677 9.044 L 32.001 8.946 L 34.727 8.934 L 37.453 8.921 L 37.572 9.021 C 37.741 9.164 37.801 9.303 37.801 9.553 C 37.801 9.808 37.715 9.977 37.529 10.091 C 37.41 10.163 37.335 10.166 34.909 10.166 C 32.197 10.166 32.166 10.168 31.811 10.376 C 31.609 10.482 31.46 10.668 31.401 10.889 C 31.252 11.394 31.416 11.862 31.845 12.154 C 32.15 12.362 32.121 12.36 35.079 12.384 L 37.819 12.407 L 38.257 12.525 C 39.54 12.868 40.173 13.536 40.264 14.641 C 40.311 15.188 40.175 15.735 39.876 16.195 C 39.472 16.81 38.73 17.175 37.686 17.271 C 37.298 17.307 30.851 17.351 30.396 17.321 Z M 43.107 17.391 C 42.917 17.344 42.752 17.224 42.651 17.056 L 42.568 16.908 L 42.568 11.091 C 42.568 4.771 42.557 5.134 42.767 4.904 C 43.031 4.616 43.622 4.596 43.867 4.868 C 44.051 5.069 44.047 5.031 44.049 7.025 L 44.051 8.905 L 47.598 8.928 C 51.451 8.952 51.408 8.95 52.046 9.169 C 52.443 9.306 52.735 9.465 53.02 9.7 C 53.317 9.947 53.509 10.208 53.656 10.573 L 53.773 10.862 L 53.784 13.796 C 53.797 16.864 53.794 16.91 53.634 17.136 C 53.379 17.496 52.638 17.471 52.383 17.094 L 52.29 16.958 L 52.29 14.246 C 52.29 12.448 52.277 11.459 52.25 11.312 C 52.152 10.786 51.834 10.452 51.24 10.255 C 51.046 10.19 50.805 10.185 47.557 10.175 L 44.082 10.163 L 44.057 12.033 C 44.043 13.061 44.032 14.603 44.032 15.458 L 44.032 17.014 L 43.879 17.18 C 43.795 17.272 43.681 17.355 43.626 17.365 C 43.394 17.41 43.218 17.418 43.107 17.391 Z M 18.413 17.314 C 17.368 17.234 16.668 16.974 16.176 16.481 C 15.883 16.19 15.682 15.819 15.597 15.414 C 15.521 15.05 15.521 13.708 15.597 13.346 C 15.717 12.783 16.112 12.206 16.537 11.976 C 16.619 11.933 16.711 11.882 16.742 11.865 C 17.061 11.7 17.403 11.583 17.757 11.519 C 18.246 11.429 18.987 11.412 22.329 11.41 L 25.869 11.408 L 25.844 11.286 C 25.748 10.817 25.415 10.432 24.964 10.271 C 24.724 10.191 24.671 10.19 22.465 10.187 C 19.96 10.185 20.095 10.199 19.933 9.932 C 19.761 9.648 19.812 9.26 20.047 9.062 L 20.164 8.962 L 22.517 8.963 C 24.786 8.963 25.156 8.978 25.488 9.083 C 25.746 9.163 26.036 9.278 26.22 9.373 C 26.455 9.493 26.991 10.023 27.081 10.223 C 27.118 10.306 27.172 10.423 27.201 10.484 C 27.353 10.8 27.365 11.002 27.365 13.072 C 27.365 14.385 27.351 15.154 27.323 15.317 C 27.275 15.595 27.088 16.007 26.893 16.261 C 26.481 16.796 25.727 17.157 24.775 17.272 C 24.372 17.322 18.969 17.357 18.412 17.314 Z M 24.92 15.952 C 25.362 15.792 25.549 15.633 25.755 15.245 C 25.844 15.078 25.845 15.06 25.856 13.862 L 25.868 12.649 L 22.304 12.649 C 20.136 12.649 18.593 12.664 18.364 12.688 C 17.724 12.754 17.334 12.976 17.131 13.39 C 17.031 13.595 17.025 13.639 17.011 14.223 C 16.993 14.939 17.041 15.191 17.249 15.477 C 17.465 15.774 17.803 15.948 18.356 16.047 C 18.408 16.057 19.844 16.062 21.547 16.058 L 24.644 16.052 Z M 91.048 17.312 C 89.298 17.17 88.325 16.432 88.136 15.1 C 88.076 14.68 88.11 13.572 88.191 13.269 C 88.407 12.465 89.022 11.859 89.868 11.616 C 90.503 11.433 90.43 11.436 94.623 11.418 C 99.123 11.398 98.661 11.444 98.461 11.042 C 98.292 10.733 98.034 10.483 97.721 10.323 L 97.504 10.222 L 95.252 10.203 C 92.807 10.183 92.867 10.188 92.708 9.972 C 92.56 9.772 92.56 9.304 92.708 9.139 C 92.888 8.942 92.868 8.944 94.796 8.931 C 97.529 8.911 97.944 8.958 98.818 9.377 C 99.287 9.601 99.754 10.091 99.923 10.534 C 99.998 10.731 100 10.804 100 13.081 L 100 15.426 L 99.843 15.739 C 99.719 15.987 99.613 16.125 99.346 16.393 C 99.056 16.683 98.953 16.759 98.649 16.906 C 98.274 17.087 98.033 17.159 97.448 17.264 C 97.136 17.319 96.735 17.328 94.258 17.334 C 92.698 17.339 91.254 17.328 91.048 17.312 Z M 97.448 15.966 C 97.808 15.859 97.99 15.761 98.19 15.568 C 98.483 15.288 98.538 15.125 98.579 14.416 C 98.598 14.075 98.609 13.542 98.603 13.231 L 98.593 12.667 L 95.102 12.657 C 91.233 12.645 90.639 12.664 90.314 12.808 C 90.034 12.932 89.834 13.116 89.728 13.344 C 89.647 13.519 89.641 13.58 89.64 14.209 C 89.64 14.813 89.648 14.912 89.723 15.124 C 89.901 15.634 90.321 15.932 91.004 16.034 C 91.111 16.051 92.541 16.061 94.182 16.057 C 97.155 16.05 97.168 16.05 97.448 15.967 Z M 75.276 17.383 C 75.081 17.339 74.825 17.095 74.793 16.924 C 74.781 16.859 74.777 15.476 74.784 13.852 C 74.797 10.999 74.8 10.892 74.874 10.673 C 74.972 10.385 75.052 10.231 75.227 9.996 C 75.705 9.355 76.417 9.04 77.572 8.962 C 78.226 8.917 82.774 8.915 83.258 8.959 C 84.628 9.084 85.581 9.732 85.856 10.726 C 85.919 10.955 85.924 11.186 85.924 13.892 L 85.924 16.812 L 85.836 16.978 C 85.773 17.093 85.68 17.19 85.567 17.257 C 85.412 17.353 85.341 17.371 85.082 17.382 C 84.814 17.393 84.764 17.384 84.651 17.307 C 84.574 17.252 84.504 17.187 84.445 17.113 C 84.367 17.008 84.365 16.976 84.347 14.047 L 84.329 11.087 L 84.235 10.9 C 84.099 10.649 83.892 10.444 83.639 10.312 C 83.482 10.249 83.315 10.211 83.146 10.2 C 82.73 10.162 77.942 10.16 77.477 10.198 C 77.058 10.232 76.787 10.342 76.569 10.568 C 76.316 10.828 76.314 10.845 76.314 12.7 C 76.314 13.613 76.304 14.96 76.29 15.695 L 76.265 17.031 L 76.112 17.186 C 76.02 17.29 75.896 17.359 75.759 17.383 C 75.533 17.432 75.493 17.432 75.275 17.383 Z M 4.373 17.312 C 3.973 17.272 3.605 17.189 3.285 17.069 L 2.91 16.929 C 2.832 16.898 2.756 16.862 2.684 16.819 C 2.591 16.764 2.498 16.711 2.403 16.659 C 2.129 16.51 1.626 16.083 1.362 15.776 C 1.052 15.414 0.789 15.015 0.579 14.587 C 0.412 14.249 0.129 13.375 0.087 13.072 C 0.075 12.983 0.05 12.902 0.033 12.891 C -0.015 12.861 -0.007 11.996 0.043 11.731 C 0.206 10.861 0.487 10.127 0.888 9.517 C 1.101 9.193 1.761 8.521 2.102 8.281 C 2.973 7.668 3.915 7.345 4.831 7.346 C 5.081 7.346 5.357 7.368 5.464 7.397 C 6.613 7.704 7.281 8.866 6.982 10.038 C 6.631 11.412 4.894 11.986 3.857 11.071 C 3.66 10.896 3.439 10.531 3.344 10.221 C 3.323 10.143 3.294 10.068 3.258 9.996 C 3.238 9.976 2.825 10.046 2.785 10.076 C 2.76 10.094 2.901 10.457 3.025 10.694 C 3.454 11.512 4.127 11.91 5.068 11.904 C 6.258 11.897 7.218 11.107 7.452 9.941 C 7.574 9.328 7.469 8.692 7.157 8.151 C 6.941 7.781 6.444 7.328 6.005 7.101 C 5.717 6.951 5.242 6.821 4.983 6.82 C 4.797 6.819 4.754 6.774 4.878 6.707 C 4.982 6.651 5.384 6.036 5.475 5.792 C 5.707 5.169 5.728 4.378 5.529 3.678 L 5.423 3.302 L 5.217 3.314 C 5.104 3.322 4.997 3.34 4.981 3.356 C 4.965 3.372 5.003 3.578 5.066 3.813 C 5.162 4.173 5.18 4.312 5.18 4.669 C 5.18 4.936 5.158 5.183 5.121 5.328 C 4.868 6.312 4.067 6.895 2.969 6.894 C 2.771 6.894 2.523 6.87 2.417 6.842 C 1.947 6.717 1.422 6.328 1.21 5.949 C 0.826 5.267 0.926 4.009 1.436 3.057 C 1.666 2.63 1.785 2.469 2.168 2.073 C 2.574 1.647 3.054 1.297 3.585 1.042 C 4.376 0.656 4.904 0.536 5.813 0.538 C 6.733 0.54 7.193 0.644 7.994 1.033 C 9.104 1.57 10.002 2.423 10.503 3.414 C 10.871 4.144 11.047 4.747 11.103 5.464 C 11.119 5.682 11.127 8.446 11.119 11.606 L 11.105 17.352 L 7.889 17.347 C 6.121 17.344 4.539 17.328 4.374 17.312 Z M 97.298 4.911 C 96.759 4.817 96.144 4.378 95.852 3.879 C 95.629 3.497 95.554 3.209 95.559 2.755 C 95.569 1.87 95.983 1.189 96.753 0.794 C 97.092 0.618 97.471 0.529 97.853 0.536 C 98.319 0.536 99.055 0.914 99.401 1.331 C 99.721 1.716 99.891 2.167 99.917 2.69 C 99.932 3.01 99.921 3.097 99.837 3.369 C 99.547 4.316 98.663 4.955 97.673 4.932 C 97.548 4.931 97.423 4.924 97.298 4.911 Z M 98.236 4.695 C 98.736 4.568 98.984 4.42 99.324 4.047 C 99.684 3.653 99.794 3.319 99.765 2.702 C 99.745 2.232 99.661 1.942 99.468 1.665 C 99.078 1.103 98.541 0.774 97.948 0.735 C 97.631 0.713 97.035 0.783 97.035 0.842 C 97.035 0.86 96.998 0.874 96.953 0.874 C 96.84 0.874 96.386 1.19 96.209 1.392 C 95.833 1.819 95.74 2.096 95.74 2.779 L 95.74 3.31 L 95.904 3.634 C 96.273 4.364 96.876 4.742 97.674 4.746 C 97.863 4.748 98.051 4.731 98.236 4.696 Z" fill="rgb(255,255,255)" stroke-width="0.224" stroke="rgb(255,255,255)" stroke-miterlimit="10" stroke-dasharray=""/><path d="M 96.785 3.143 C 96.799 2.63 96.81 2.053 96.81 1.861 L 96.81 1.514 L 97.502 1.514 C 97.899 1.514 98.239 1.531 98.299 1.554 C 98.776 1.734 98.879 2.466 98.469 2.779 C 98.407 2.83 98.34 2.875 98.269 2.913 C 98.237 2.924 98.252 2.969 98.319 3.058 C 98.451 3.233 98.799 3.895 98.799 3.972 C 98.799 4.017 98.765 4.034 98.673 4.034 C 98.551 4.034 98.541 4.023 98.378 3.684 C 98.296 3.511 98.206 3.342 98.11 3.177 L 98.01 3.018 L 97.037 3.018 L 97.027 3.535 C 97.027 3.535 97.017 4.053 96.76 4.077 Z M 98.295 2.558 C 98.405 2.438 98.424 2.391 98.424 2.229 C 98.424 2.076 98.404 2.02 98.321 1.929 L 98.218 1.818 L 97.636 1.808 L 97.054 1.8 L 97.043 2.21 C 97.035 2.363 97.038 2.517 97.053 2.67 C 97.069 2.713 97.179 2.72 97.62 2.71 L 98.167 2.699 L 98.296 2.559 Z" fill="rgb(255,255,255)" stroke-width="0.224" stroke="rgb(255,255,255)" stroke-miterlimit="10" stroke-dasharray=""/></g></svg>