<svg xmlns="http://www.w3.org/2000/svg" xmlns:xlink="http://www.w3.org/1999/xlink" style="width:100%;height:100%;" viewBox="0 0 55 55">
<rect x="0.849951" y="0.65" width="53.3" height="53.3" rx="12.35" fill="#1C0C28"/>
<rect x="0.849951" y="0.65" width="53.3" height="53.3" rx="12.35" stroke="#0D0817" stroke-width="1.3"/>
<g clip-path="url(#svg172343872_2726_clip0_46_32)">
<g clip-path="url(#svg172343872_2726_clip1_46_32)">
<path d="M27.3098 23.7832C26.6497 23.783 26.0043 23.9785 25.4554 24.3451C24.9064 24.7117 24.4784 25.2328 24.2257 25.8427C23.973 26.4525 23.9068 27.1236 24.0355 27.771C24.1642 28.4185 24.4821 29.0132 24.9489 29.48C25.4156 29.9468 26.0104 30.2646 26.6578 30.3934C27.3053 30.5221 27.9764 30.4559 28.5862 30.2031C29.196 29.9504 29.7172 29.5225 30.0838 28.9735C30.4504 28.4245 30.6459 27.7791 30.6456 27.119C30.647 26.6806 30.5617 26.2462 30.3945 25.8408C30.2274 25.4355 29.9817 25.0672 29.6717 24.7572C29.3616 24.4472 28.9934 24.2015 28.588 24.0343C28.1827 23.8672 27.7483 23.7818 27.3098 23.7832Z" fill="white"/>
<path fill-rule="evenodd" clip-rule="evenodd" d="M31.8975 15.3828H22.7325C20.8362 15.3828 19.0176 16.1361 17.6767 17.477C16.3358 18.8179 15.5825 20.6365 15.5825 22.5328V31.6978C15.5825 33.5941 16.3358 35.4127 17.6767 36.7536C19.0176 38.0945 20.8362 38.8478 22.7325 38.8478H31.8975C33.7938 38.8478 35.6124 38.0945 36.9533 36.7536C38.2942 35.4127 39.0475 33.5941 39.0475 31.6978V22.5328C39.0475 20.6365 38.2942 18.8179 36.9533 17.477C35.6124 16.1361 33.7938 15.3828 31.8975 15.3828ZM27.3085 32.2334C25.9494 32.2301 24.6472 31.6871 23.6885 30.7237C22.7298 29.7604 22.193 28.4556 22.1963 27.0965C22.1995 25.7373 22.7426 24.4352 23.706 23.4764C24.6693 22.5177 25.9741 21.9809 27.3332 21.9842C28.6923 21.9873 29.9946 22.5302 30.9534 23.4934C31.9123 24.4567 32.4492 25.7614 32.4461 27.1205C32.443 28.4796 31.9001 29.7819 30.9369 30.7407C29.9736 31.6996 28.6689 32.2365 27.3098 32.2334H27.3085ZM31.7597 21.2354C31.8595 21.4732 32.0277 21.6759 32.243 21.8178C32.4583 21.9597 32.7109 22.0344 32.9687 22.0323C33.3101 22.0323 33.6374 21.8967 33.8788 21.6554C34.1201 21.414 34.2557 21.0866 34.2557 20.7453C34.2586 20.5518 34.2181 20.36 34.1374 20.1841C34.0567 20.0082 33.9377 19.8525 33.7891 19.7284C33.6406 19.6044 33.4662 19.515 33.2787 19.467C33.0912 19.4189 32.8953 19.4133 32.7054 19.4506C32.5154 19.4879 32.3362 19.5671 32.1808 19.6825C32.0254 19.7979 31.8978 19.9466 31.8071 20.1176C31.7165 20.2886 31.6652 20.4778 31.657 20.6711C31.6488 20.8645 31.6839 21.0573 31.7597 21.2354Z" fill="white"/>
</g>
</g>
<defs>
<clipPath id="svg172343872_2726_clip0_46_32">
<rect width="28.6" height="28.6" fill="white" transform="translate(13.1997 13)"/>
</clipPath>
<clipPath id="svg172343872_2726_clip1_46_32">
<rect width="28.6" height="28.6" fill="white" transform="translate(13.1997 13)"/>
</clipPath>
</defs>
</svg>