<svg xmlns="http://www.w3.org/2000/svg" xmlns:xlink="http://www.w3.org/1999/xlink" viewBox="0 0 155 67"><path d="M 12 67 C 5.373 67 0 61.627 0 55 L 0 12 C 0 5.373 5.373 0 12 0 L 142.85 0 C 149.477 0 154.85 5.373 154.85 12 L 154.85 55 C 154.85 61.627 149.477 67 142.85 67 Z" fill="rgb(28,12,40)"></path><g transform="translate(17.5 22.12)"><path d="M 13.396 18.017 C 14.087 19.225 14.838 20.397 15.646 21.53 C 15.727 21.634 15.799 21.74 15.881 21.845 C 16.204 22.282 16.536 22.72 16.876 23.14 C 16.94 23.108 17.005 23.084 17.062 23.051 C 15.532 21.044 14.165 18.802 12.999 16.584 C 11.729 14.173 10.709 11.623 9.868 9.033 C 9.026 6.443 7.95 3.481 8.371 0.697 C 8.298 0.721 8.217 0.746 8.144 0.77 C 7.61 3.675 8.848 7.196 9.763 9.94 C 10.701 12.747 11.918 15.453 13.396 18.017 Z" fill="rgb(255,255,255)"></path><path d="M 13.577 18.097 L 14.037 17.832 L 14.037 17.832 Z M 15.827 21.61 L 15.396 21.919 L 15.401 21.926 L 15.407 21.933 L 15.827 21.609 Z M 16.062 21.925 L 16.488 21.609 L 16.482 21.602 L 16.061 21.925 Z M 17.057 23.22 L 16.645 23.553 L 16.912 23.886 L 17.294 23.695 L 17.057 23.221 Z M 17.243 23.131 L 17.506 23.591 L 18.032 23.292 L 17.665 22.81 L 17.243 23.131 Z M 13.181 16.664 L 13.651 16.418 M 8.552 0.777 L 9.076 0.857 L 9.206 0 L 8.384 0.274 L 8.552 0.777 Z M 8.326 0.85 L 8.159 0.347 L 7.861 0.446 L 7.804 0.754 Z M 9.944 10.02 L 9.441 10.187 L 9.441 10.188 Z M 13.577 18.097 L 13.117 18.362 C 13.818 19.585 14.578 20.772 15.396 21.919 L 15.827 21.609 L 16.258 21.301 C 15.46 20.182 14.719 19.025 14.037 17.832 Z M 15.827 21.61 L 15.407 21.933 C 15.442 21.979 15.477 22.027 15.516 22.08 C 15.554 22.132 15.597 22.19 15.642 22.248 L 16.061 21.925 L 16.482 21.602 C 16.445 21.554 16.408 21.504 16.372 21.455 C 16.335 21.403 16.293 21.345 16.247 21.287 L 15.827 21.609 Z M 16.062 21.925 L 15.636 22.241 C 15.962 22.681 16.298 23.124 16.645 23.553 L 17.057 23.22 L 17.469 22.887 C 17.133 22.468 16.806 22.042 16.488 21.61 Z M 17.057 23.22 L 17.294 23.694 L 17.371 23.659 C 17.404 23.644 17.455 23.621 17.506 23.591 L 17.243 23.131 L 16.98 22.671 C 16.965 22.679 16.95 22.686 16.935 22.692 C 16.911 22.704 16.865 22.724 16.82 22.746 L 17.057 23.22 Z M 17.243 23.131 L 17.665 22.809 C 16.158 20.831 14.805 18.616 13.651 16.418 L 13.181 16.664 L 12.712 16.911 C 13.887 19.148 15.27 21.417 16.821 23.453 Z M 13.181 16.664 L 13.65 16.418 C 12.397 14.038 11.388 11.518 10.553 8.95 L 10.049 9.113 L 9.545 9.277 C 10.394 11.889 11.425 14.468 12.712 16.912 Z M 10.049 9.113 L 10.553 8.95 C 9.696 6.311 8.678 3.488 9.076 0.857 L 8.552 0.777 L 8.028 0.698 C 7.584 3.635 8.719 6.736 9.545 9.277 Z M 8.552 0.777 L 8.385 0.274 L 8.279 0.308 L 8.158 0.347 L 8.325 0.85 L 8.493 1.353 L 8.598 1.319 L 8.72 1.28 Z M 8.326 0.85 L 7.804 0.754 C 7.519 2.308 7.71 3.996 8.074 5.612 C 8.439 7.23 8.987 8.825 9.441 10.187 L 9.944 10.02 L 10.447 9.852 C 9.987 8.472 9.459 6.934 9.109 5.379 C 8.759 3.822 8.599 2.296 8.847 0.946 Z M 9.944 10.02 L 9.442 10.188 C 10.391 13.029 11.623 15.767 13.118 18.362 L 13.577 18.097 L 14.037 17.832 C 12.577 15.299 11.375 12.625 10.447 9.852 Z" fill="rgb(255,255,255)"></path><path d="M 6.621 1.533 C 6.293 2.471 5.935 3.447 5.669 4.429 C 5.35 5.609 5.158 6.828 5.301 8.072 C 5.301 8.075 5.3 8.079 5.299 8.081 C 5.297 8.096 5.296 8.11 5.296 8.124 L 5.296 8.15 L 5.302 8.176 L 5.313 8.235 L 5.321 8.277 C 5.321 8.317 5.32 8.373 5.334 8.442 C 5.339 8.47 5.347 8.495 5.354 8.514 C 5.381 8.679 5.41 8.884 5.458 9.079 L 5.46 9.084 C 5.5 9.229 5.625 9.336 5.775 9.351 C 5.917 9.366 6.055 9.298 6.129 9.176 C 6.209 9.052 6.313 8.945 6.434 8.861 C 6.502 8.81 6.573 8.762 6.645 8.716 L 6.869 8.574 L 6.895 8.566 C 8.908 12.842 11.165 16.851 13.874 20.709 L 14.434 21.496 C 14.843 22.084 15.264 22.66 15.697 23.216 C 10.63 25.02 4.818 23.146 1.821 18.406 C -1.652 12.914 -0.007 5.639 5.485 2.164 L 5.485 2.165 C 5.86 1.929 6.238 1.72 6.621 1.533 Z M 8.833 0.722 C 13.656 -0.527 18.931 1.402 21.724 5.839 C 25.197 11.331 23.56 18.604 18.062 22.08 C 17.819 22.231 17.572 22.374 17.321 22.509 C 15.926 20.682 14.699 18.598 13.619 16.602 C 12.447 14.433 11.481 12.131 10.675 9.795 C 10.183 8.371 9.608 6.812 9.215 5.223 C 8.838 3.695 8.636 2.161 8.833 0.722 Z" fill="rgb(255,255,255)" stroke-width="0.53" stroke="rgb(255,255,255)" stroke-miterlimit="10" stroke-dasharray=""></path><path d="M 20.277 4.53 C 20.394 4.53 20.585 4.645 20.763 5.034 C 20.93 5.399 21.04 5.923 21.04 6.515 C 21.04 7.108 20.93 7.63 20.762 7.996 C 20.585 8.384 20.394 8.5 20.277 8.5 C 20.161 8.5 19.97 8.384 19.792 7.996 C 19.625 7.63 19.516 7.108 19.515 6.515 C 19.515 5.923 19.626 5.4 19.792 5.034 C 19.97 4.645 20.161 4.53 20.277 4.53 Z" fill="rgb(255,255,255)" stroke-width="0.53" stroke="rgb(255,255,255)" stroke-miterlimit="10" stroke-dasharray=""></path><path d="M 0.106 10.803 C 0.823 16.147 3.851 20.746 8.157 23.58 C 3.425 22.052 0 17.626 0 12.383 C 0 11.844 0.037 11.319 0.107 10.803 Z" fill="rgb(255,255,255)" stroke-width="0.53" stroke="rgb(255,255,255)" stroke-miterlimit="10" stroke-dasharray="" opacity="0.054"></path><path d="M 35.315 9.893 C 35.191 10.61 35.131 11.335 35.136 12.062 C 35.136 12.421 35.149 12.776 35.176 13.127 C 35.202 13.479 35.249 13.85 35.315 14.242 C 35.388 14.633 35.477 14.994 35.583 15.326 C 35.69 15.658 35.832 15.98 36.011 16.291 C 36.197 16.597 36.403 16.859 36.628 17.078 C 37.139 17.555 37.782 17.794 38.559 17.794 C 40.714 17.794 41.793 15.877 41.793 12.043 C 41.793 8.918 41.063 7.034 39.603 6.39 C 39.267 6.248 38.905 6.177 38.539 6.182 C 38.154 6.182 37.796 6.252 37.464 6.391 C 37.152 6.522 36.869 6.711 36.628 6.949 C 36.387 7.195 36.179 7.473 36.011 7.774 C 35.835 8.093 35.691 8.43 35.583 8.779 C 35.472 9.145 35.383 9.517 35.315 9.894 Z M 32.857 13.555 C 32.791 13.057 32.758 12.555 32.757 12.053 C 32.757 11.555 32.787 11.055 32.846 10.55 C 32.906 10.046 33.006 9.535 33.145 9.018 C 33.285 8.494 33.457 8 33.663 7.536 C 33.869 7.069 34.13 6.628 34.439 6.222 C 34.757 5.804 35.112 5.446 35.503 5.147 C 36.346 4.504 37.371 4.182 38.578 4.182 C 40.236 4.182 41.563 4.865 42.558 6.232 C 43.633 7.717 44.17 9.658 44.17 12.053 C 44.17 14.494 43.653 16.418 42.618 17.823 C 41.649 19.137 40.302 19.794 38.578 19.794 C 36.94 19.794 35.596 19.134 34.548 17.814 C 33.659 16.699 33.095 15.28 32.857 13.555 Z M 53.682 11.664 L 53.682 19.535 L 51.553 19.535 L 51.553 12.222 C 51.553 11.744 51.406 11.366 51.115 11.087 C 50.829 10.802 50.488 10.659 50.091 10.659 C 49.692 10.659 49.297 10.779 48.906 11.018 C 48.515 11.25 48.223 11.482 48.03 11.715 L 48.03 19.535 L 45.901 19.535 L 45.901 9.037 L 48.03 9.037 L 48.03 10.153 C 48.415 9.767 48.817 9.456 49.235 9.217 C 49.659 8.978 50.153 8.858 50.717 8.858 C 51.579 8.858 52.29 9.094 52.846 9.565 C 53.404 10.029 53.683 10.729 53.683 11.664 Z M 57.453 13.048 L 61.135 13.048 C 61.135 12.53 61.045 12.083 60.866 11.705 C 60.521 11.008 60.044 10.659 59.433 10.659 C 59.069 10.659 58.747 10.743 58.468 10.908 C 58.196 11.068 57.991 11.277 57.851 11.535 C 57.592 11.997 57.455 12.518 57.453 13.048 Z M 55.782 17.506 C 55.579 17.058 55.432 16.586 55.344 16.103 C 55.264 15.618 55.224 15.011 55.224 14.281 C 55.224 13.545 55.311 12.832 55.483 12.142 C 55.656 11.452 55.878 10.905 56.15 10.5 C 56.422 10.089 56.75 9.757 57.135 9.505 C 57.791 9.074 58.564 8.858 59.453 8.858 C 60.289 8.858 61.019 9.107 61.642 9.605 C 62.809 10.547 63.367 12.295 63.314 14.849 L 57.354 14.849 C 57.354 16.188 57.709 17.091 58.419 17.555 C 58.783 17.794 59.164 17.913 59.562 17.913 C 59.967 17.913 60.302 17.864 60.567 17.764 C 60.833 17.664 61.045 17.552 61.204 17.425 C 61.364 17.3 61.51 17.154 61.642 16.988 C 61.821 16.756 61.944 16.557 62.01 16.391 L 63.364 17.267 C 62.873 18.122 62.349 18.732 61.791 19.097 C 61.174 19.509 60.495 19.714 59.752 19.714 C 59.015 19.714 58.386 19.618 57.861 19.426 C 57.344 19.233 56.919 18.978 56.588 18.659 C 56.252 18.326 55.979 17.935 55.782 17.506 Z M 64.737 13.863 C 64.63 13.239 64.577 12.607 64.578 11.973 C 64.577 10.723 64.775 9.48 65.164 8.292 C 65.364 7.701 65.619 7.161 65.931 6.67 C 66.235 6.19 66.599 5.752 67.016 5.367 C 67.878 4.577 68.949 4.182 70.229 4.182 C 71.855 4.182 73.138 4.994 74.08 6.62 C 74.524 7.374 74.837 8.198 75.006 9.058 L 75.006 9.067 L 72.936 9.625 C 72.83 8.915 72.704 8.398 72.558 8.073 C 72.435 7.786 72.289 7.509 72.119 7.247 C 71.989 7.039 71.828 6.851 71.642 6.689 C 71.25 6.358 70.752 6.178 70.239 6.182 C 69.722 6.182 69.277 6.301 68.906 6.54 C 68.534 6.772 68.23 7.081 67.991 7.466 C 67.734 7.882 67.534 8.331 67.393 8.799 C 67.101 9.741 66.956 10.802 66.956 11.983 C 66.956 15.114 67.699 16.984 69.185 17.595 C 69.503 17.727 69.841 17.794 70.199 17.794 C 70.558 17.794 70.876 17.747 71.155 17.655 C 71.412 17.576 71.654 17.455 71.871 17.296 C 72.064 17.142 72.235 16.961 72.379 16.759 C 72.531 16.554 72.651 16.348 72.737 16.142 C 72.828 15.933 72.902 15.717 72.956 15.496 C 73.05 15.145 73.1 14.784 73.105 14.421 L 75.323 14.73 C 75.025 16.003 74.504 17.108 73.762 18.042 C 72.819 19.21 71.636 19.794 70.209 19.794 C 68.458 19.794 67.048 18.962 65.981 17.296 C 65.377 16.361 64.962 15.217 64.737 13.863 Z M 76.827 19.535 L 76.827 9.037 L 78.956 9.037 L 78.956 10.48 C 78.982 10.447 79.042 10.362 79.135 10.222 L 79.374 9.863 C 79.865 9.194 80.674 8.858 81.802 8.858 C 81.922 8.858 82.041 8.869 82.16 8.888 L 82.16 10.67 C 80.953 10.689 80.084 11.025 79.553 11.675 C 79.314 11.966 79.116 12.341 78.956 12.799 L 78.956 19.535 Z M 83.274 19.535 L 83.274 9.037 L 85.404 9.037 L 85.404 19.535 Z M 83.125 8.122 L 83.125 5.704 L 85.543 5.704 L 85.543 8.122 Z M 87.125 14.361 C 87.125 12.278 87.579 10.795 88.488 9.914 C 89.205 9.21 90.206 8.858 91.494 8.858 C 92.786 8.858 93.798 9.402 94.528 10.491 C 94.767 10.842 94.932 11.17 95.026 11.475 L 93.225 12.271 C 93.172 11.728 92.95 11.296 92.558 10.978 C 92.292 10.766 91.964 10.659 91.573 10.659 C 90.027 10.659 89.254 11.864 89.254 14.272 C 89.254 15.459 89.457 16.365 89.861 16.988 C 90.266 17.605 90.857 17.913 91.632 17.913 C 92.177 17.913 92.618 17.714 92.956 17.316 C 93.236 16.992 93.452 16.617 93.593 16.212 L 95.224 16.928 C 95.072 17.519 94.747 18.078 94.249 18.61 C 93.553 19.346 92.661 19.714 91.573 19.714 C 88.607 19.714 87.125 17.93 87.125 14.362 Z M 97.105 19.535 L 97.105 4.461 L 99.235 4.461 L 99.235 12.949 L 102.26 9.039 L 104.847 9.039 L 101.802 12.919 L 105.025 19.535 L 102.618 19.535 L 100.329 14.799 L 99.235 16.182 L 99.235 19.535 Z M 107.543 13.048 L 111.225 13.048 C 111.225 12.53 111.135 12.083 110.956 11.705 C 110.611 11.008 110.133 10.659 109.523 10.659 C 109.158 10.659 108.836 10.743 108.558 10.908 C 108.297 11.055 108.084 11.273 107.94 11.535 C 107.681 11.997 107.544 12.518 107.543 13.048 Z M 105.871 17.506 C 105.669 17.057 105.522 16.586 105.434 16.103 C 105.354 15.618 105.314 15.011 105.314 14.281 C 105.314 13.545 105.4 12.832 105.573 12.142 C 105.745 11.452 105.967 10.905 106.239 10.5 C 106.511 10.089 106.84 9.757 107.225 9.505 C 107.881 9.074 108.654 8.858 109.543 8.858 C 110.378 8.858 111.108 9.107 111.732 9.605 C 112.899 10.547 113.456 12.295 113.403 14.849 L 107.444 14.849 C 107.444 16.188 107.798 17.091 108.508 17.555 C 108.873 17.794 109.254 17.913 109.652 17.913 C 110.057 17.913 110.392 17.864 110.657 17.764 C 110.923 17.664 111.135 17.552 111.294 17.425 C 111.453 17.3 111.599 17.154 111.732 16.988 C 111.911 16.756 112.034 16.557 112.1 16.391 L 113.453 17.267 C 112.962 18.122 112.438 18.732 111.881 19.097 C 111.279 19.504 110.568 19.719 109.841 19.714 C 109.105 19.714 108.475 19.618 107.951 19.426 C 107.433 19.233 107.009 18.978 106.677 18.659 C 106.342 18.326 106.069 17.935 105.871 17.506 Z M 114.11 10.838 L 114.11 9.037 L 115.672 9.037 L 115.672 5.207 L 117.801 5.207 L 117.801 9.037 L 120 9.037 L 120 10.838 L 117.801 10.838 L 117.801 16.47 C 117.801 17.034 117.901 17.423 118.1 17.635 C 118.306 17.84 118.647 17.943 119.125 17.943 C 119.317 17.943 119.509 17.929 119.702 17.904 C 119.901 17.877 120 17.86 120 17.853 L 120 19.356 C 119.642 19.522 119.364 19.628 119.164 19.675 C 118.972 19.721 118.734 19.744 118.448 19.744 C 118.17 19.744 117.961 19.741 117.821 19.734 C 117.654 19.723 117.488 19.7 117.324 19.665 C 117.149 19.631 116.979 19.577 116.816 19.505 C 116.659 19.42 116.512 19.316 116.379 19.197 C 116.224 19.062 116.096 18.9 116 18.719 C 115.781 18.295 115.672 17.744 115.672 17.067 L 115.672 10.838 Z" fill="rgb(255,255,255)"></path></g></svg>