<svg xmlns="http://www.w3.org/2000/svg" xmlns:xlink="http://www.w3.org/1999/xlink" style="width:100%;height:100%;" viewBox="0 0 12 17">
<mask id="svg-506421575_23803_path-1-outside-1_1151_1202" maskUnits="userSpaceOnUse" x="-1" y="4.84375" width="3" height="8" fill="black">
<rect fill="white" x="-1" y="4.84375" width="3" height="8"/>
<path d="M1.19824 6.76367V12.5166H0V5.84375L1.19824 6.76367ZM0.125 12.3916H0.125977H0.125Z"/>
</mask>
<path d="M1.19824 6.76367V12.5166H0V5.84375L1.19824 6.76367ZM0.125 12.3916H0.125977H0.125Z" fill="#FFFAF3"/>
<path d="M1.19824 6.76367H1.35768V6.68507L1.29533 6.63721L1.19824 6.76367ZM1.19824 12.5166V12.676H1.35768V12.5166H1.19824ZM0 12.5166H-0.159434V12.676H0V12.5166ZM0 5.84375L0.0970889 5.71729L-0.159434 5.52035V5.84375H0ZM1.19824 6.76367H1.03881V12.5166H1.19824H1.35768V6.76367H1.19824ZM1.19824 12.5166V12.3572H0V12.5166V12.676H1.19824V12.5166ZM0 12.5166H0.159434V5.84375H0H-0.159434V12.5166H0ZM0 5.84375L-0.0970889 5.97021L1.10115 6.89013L1.19824 6.76367L1.29533 6.63721L0.0970889 5.71729L0 5.84375ZM0.125 12.3916V12.551H0.125977V12.3916V12.2322H0.125V12.3916ZM0.125977 12.3916V12.2322H0.125V12.3916V12.551H0.125977V12.3916Z" fill="#FFFAF3" mask="url(#svg-506421575_23803_path-1-outside-1_1151_1202)"/>
<path d="M10.7421 3.48378V1.75637H2.46333C2.09459 1.75713 1.74119 1.90404 1.48059 2.16491C1.21999 2.42578 1.07344 2.77932 1.07306 3.14806V4.4327L1.98658 5.13497L5.90758 8.14558L6.68578 8.74508L10.7421 11.8593L10.8848 11.9695L10.9108 11.9895L11.6893 12.5921V14.3387C11.6893 14.9595 11.4427 15.5549 11.0037 15.9939C10.5647 16.4329 9.96925 16.6796 9.34841 16.6796H0.125V13.3395H1.07306V15.7327H9.35184C9.72097 15.7319 10.0747 15.5847 10.3354 15.3233C10.596 15.0619 10.7423 14.7078 10.7421 14.3387V13.054L9.87568 12.3889L5.90758 9.34115L5.12937 8.74337L2.15187 6.45586L1.07306 5.62798L0.125 4.89945V3.14806C0.125378 2.52746 0.372175 1.93242 0.811136 1.49372C1.2501 1.05503 1.8453 0.808594 2.46589 0.808594H11.6902V3.48406L10.7421 3.48378Z" fill="#FFFAF3"/>
<mask id="svg-506421575_23803_path-4-outside-2_1151_1202" maskUnits="userSpaceOnUse" x="-1" y="-0.316406" width="13" height="18" fill="black">
<rect fill="white" x="-1" y="-0.316406" width="13" height="18"/>
<path d="M11.8154 3.60938L10.6172 3.6084V1.88086H2.46387C2.12839 1.88164 1.80646 2.0156 1.56934 2.25293C1.33239 2.49024 1.19872 2.81212 1.19824 3.14746V4.37109L2.06348 5.03516L5.98438 8.0459L10.8184 11.7598L10.9609 11.8701L10.9873 11.8906L11.8145 12.5303V14.3389C11.8143 14.9925 11.5549 15.6198 11.0928 16.082C10.6303 16.5443 10.0025 16.8047 9.34863 16.8047H0V13.2139H1.19824V15.6074H9.35156C9.68745 15.6067 10.0098 15.4721 10.2471 15.2344C10.4841 14.9966 10.6172 14.6746 10.6172 14.3389V13.1152L9.7998 12.4883L5.83203 9.44043L5.05371 8.84277L2.07617 6.55469L0 4.96094V3.14746C0.000500863 2.49411 0.26067 1.86726 0.722656 1.40527C1.18492 0.943288 1.81229 0.683749 2.46582 0.683594H11.8154V3.60938ZM0.125 16.6797H0.125977V13.3398L0.125 13.3389V16.6797ZM9.48926 15.7256H9.49023H9.48926ZM9.99316 15.5732L10.0078 15.5674C10.0139 15.5641 10.0194 15.559 10.0254 15.5557C10.0147 15.5616 10.004 15.5676 9.99316 15.5732ZM10.0879 15.5186C10.138 15.4871 10.1873 15.4539 10.2334 15.416C10.1873 15.4538 10.138 15.487 10.0879 15.5186ZM0.125 4.89941L7.97363 10.9277L5.9082 9.34082L5.12988 8.74316L2.15234 6.45605L1.07324 5.62793L0.125977 4.89941V3.14844L0.125 3.14746V4.89941ZM0.811523 1.49316C0.756804 1.54787 0.70489 1.60573 0.65625 1.66504C0.704808 1.60583 0.756906 1.54875 0.811523 1.49414C0.828742 1.47693 0.847542 1.46095 0.865234 1.44434C0.847707 1.4608 0.828586 1.47612 0.811523 1.49316ZM1.0498 1.28809C1.02414 1.30763 0.997563 1.32603 0.972656 1.34668C0.997559 1.32604 1.02414 1.30762 1.0498 1.28809ZM1.2373 1.15918C1.20321 1.18024 1.16879 1.20079 1.13574 1.22363C1.16878 1.20081 1.20322 1.18023 1.2373 1.15918ZM1.42383 1.05566C1.38942 1.07281 1.35485 1.08956 1.32129 1.1084C1.35484 1.08957 1.38943 1.0728 1.42383 1.05566ZM1.57031 0.986328C1.54973 0.994857 1.5301 1.00553 1.50977 1.01465C1.54852 0.997279 1.58732 0.980081 1.62695 0.964844C1.6082 0.972042 1.58887 0.97864 1.57031 0.986328ZM1.79785 0.907227C1.75813 0.919007 1.71868 0.931432 1.67969 0.945312C1.71866 0.931396 1.75816 0.919069 1.79785 0.907227ZM1.98535 0.859375C1.94502 0.867784 1.90499 0.877198 1.86523 0.887695C1.90497 0.877127 1.94504 0.86785 1.98535 0.859375ZM2.23535 0.820312C2.17338 0.826465 2.11179 0.834776 2.05078 0.845703C2.11177 0.834691 2.17337 0.826465 2.23535 0.820312L2.4668 0.808594H2.46582C2.38858 0.808614 2.31155 0.812764 2.23535 0.820312Z"/>
</mask>
<path d="M11.8154 3.60938L10.6172 3.6084V1.88086H2.46387C2.12839 1.88164 1.80646 2.0156 1.56934 2.25293C1.33239 2.49024 1.19872 2.81212 1.19824 3.14746V4.37109L2.06348 5.03516L5.98438 8.0459L10.8184 11.7598L10.9609 11.8701L10.9873 11.8906L11.8145 12.5303V14.3389C11.8143 14.9925 11.5549 15.6198 11.0928 16.082C10.6303 16.5443 10.0025 16.8047 9.34863 16.8047H0V13.2139H1.19824V15.6074H9.35156C9.68745 15.6067 10.0098 15.4721 10.2471 15.2344C10.4841 14.9966 10.6172 14.6746 10.6172 14.3389V13.1152L9.7998 12.4883L5.83203 9.44043L5.05371 8.84277L2.07617 6.55469L0 4.96094V3.14746C0.000500863 2.49411 0.26067 1.86726 0.722656 1.40527C1.18492 0.943288 1.81229 0.683749 2.46582 0.683594H11.8154V3.60938ZM0.125 16.6797H0.125977V13.3398L0.125 13.3389V16.6797ZM9.48926 15.7256H9.49023H9.48926ZM9.99316 15.5732L10.0078 15.5674C10.0139 15.5641 10.0194 15.559 10.0254 15.5557C10.0147 15.5616 10.004 15.5676 9.99316 15.5732ZM10.0879 15.5186C10.138 15.4871 10.1873 15.4539 10.2334 15.416C10.1873 15.4538 10.138 15.487 10.0879 15.5186ZM0.125 4.89941L7.97363 10.9277L5.9082 9.34082L5.12988 8.74316L2.15234 6.45605L1.07324 5.62793L0.125977 4.89941V3.14844L0.125 3.14746V4.89941ZM0.811523 1.49316C0.756804 1.54787 0.70489 1.60573 0.65625 1.66504C0.704808 1.60583 0.756906 1.54875 0.811523 1.49414C0.828742 1.47693 0.847542 1.46095 0.865234 1.44434C0.847707 1.4608 0.828586 1.47612 0.811523 1.49316ZM1.0498 1.28809C1.02414 1.30763 0.997563 1.32603 0.972656 1.34668C0.997559 1.32604 1.02414 1.30762 1.0498 1.28809ZM1.2373 1.15918C1.20321 1.18024 1.16879 1.20079 1.13574 1.22363C1.16878 1.20081 1.20322 1.18023 1.2373 1.15918ZM1.42383 1.05566C1.38942 1.07281 1.35485 1.08956 1.32129 1.1084C1.35484 1.08957 1.38943 1.0728 1.42383 1.05566ZM1.57031 0.986328C1.54973 0.994857 1.5301 1.00553 1.50977 1.01465C1.54852 0.997279 1.58732 0.980081 1.62695 0.964844C1.6082 0.972042 1.58887 0.97864 1.57031 0.986328ZM1.79785 0.907227C1.75813 0.919007 1.71868 0.931432 1.67969 0.945312C1.71866 0.931396 1.75816 0.919069 1.79785 0.907227ZM1.98535 0.859375C1.94502 0.867784 1.90499 0.877198 1.86523 0.887695C1.90497 0.877127 1.94504 0.86785 1.98535 0.859375ZM2.23535 0.820312C2.17338 0.826465 2.11179 0.834776 2.05078 0.845703C2.11177 0.834691 2.17337 0.826465 2.23535 0.820312L2.4668 0.808594H2.46582C2.38858 0.808614 2.31155 0.812764 2.23535 0.820312Z" fill="#FFFAF3"/>
<path d="M11.8154 3.60938L11.8153 3.76881L11.9749 3.76894V3.60938H11.8154ZM10.6172 3.6084H10.4578V3.7677L10.6171 3.76783L10.6172 3.6084ZM10.6172 1.88086H10.7766V1.72143H10.6172V1.88086ZM2.46387 1.88086L2.46387 1.72143L2.4635 1.72143L2.46387 1.88086ZM1.56934 2.25293L1.45655 2.14024L1.45651 2.14028L1.56934 2.25293ZM1.19824 3.14746L1.03881 3.14723V3.14746H1.19824ZM1.19824 4.37109H1.03881V4.44971L1.10117 4.49757L1.19824 4.37109ZM2.06348 5.03516L2.16058 4.9087L2.16055 4.90868L2.06348 5.03516ZM5.98438 8.0459L6.08151 7.91947L6.08148 7.91944L5.98438 8.0459ZM10.8184 11.7598L10.9159 11.6337L10.9155 11.6333L10.8184 11.7598ZM10.9609 11.8701L11.0588 11.7443L11.0585 11.744L10.9609 11.8701ZM10.9873 11.8906L10.8894 12.0165L10.8898 12.0167L10.9873 11.8906ZM11.8145 12.5303H11.9739V12.452L11.912 12.4042L11.8145 12.5303ZM11.8145 14.3389L11.9739 14.3389V14.3389H11.8145ZM11.0928 16.082L11.2055 16.1948L11.2055 16.1948L11.0928 16.082ZM0 16.8047H-0.159434V16.9641H0V16.8047ZM0 13.2139V13.0544H-0.159434V13.2139H0ZM1.19824 13.2139H1.35768V13.0544H1.19824V13.2139ZM1.19824 15.6074H1.03881V15.7669H1.19824V15.6074ZM9.35156 15.6074L9.35156 15.7669L9.35189 15.7669L9.35156 15.6074ZM10.2471 15.2344L10.3599 15.347L10.36 15.3469L10.2471 15.2344ZM10.6172 14.3389L10.4578 14.3389L10.4578 14.3389L10.6172 14.3389ZM10.6172 13.1152H10.7766V13.0366L10.7142 12.9887L10.6172 13.1152ZM9.7998 12.4883L9.70268 12.6147L9.70277 12.6148L9.7998 12.4883ZM5.83203 9.44043L5.92915 9.31399L5.92913 9.31398L5.83203 9.44043ZM5.05371 8.84277L4.95656 8.96919L4.95661 8.96923L5.05371 8.84277ZM2.07617 6.55469L2.17332 6.42827L2.17325 6.42822L2.07617 6.55469ZM0 4.96094H-0.159434V5.03954L-0.097082 5.08741L0 4.96094ZM0 3.14746L-0.159434 3.14734V3.14746H0ZM0.722656 1.40527L0.609954 1.2925L0.60992 1.29254L0.722656 1.40527ZM2.46582 0.683594L2.46582 0.52416L2.46578 0.52416L2.46582 0.683594ZM11.8154 0.683594H11.9749V0.52416H11.8154V0.683594ZM0.125 16.6797H-0.0344338V16.8391H0.125V16.6797ZM0.125977 16.6797V16.8391H0.28541V16.6797H0.125977ZM0.125977 13.3398H0.28541V13.2738L0.238713 13.2271L0.125977 13.3398ZM0.125 13.3389L0.237737 13.2261L-0.0344338 12.954L-0.0344338 13.3389H0.125ZM9.99316 15.5732L9.91924 15.432L10.0524 15.7213L9.99316 15.5732ZM10.0078 15.5674L10.067 15.7154L10.0753 15.7121L10.0831 15.7079L10.0078 15.5674ZM10.0254 15.5557L10.103 15.6949L9.9479 15.4163L10.0254 15.5557ZM10.0879 15.5186L10.0031 15.3836L10.1727 15.6536L10.0879 15.5186ZM0.125 4.89941H-0.0344338V4.97799L0.0278835 5.02586L0.125 4.89941ZM7.97363 10.9277L7.87652 11.0542L8.07077 10.8013L7.97363 10.9277ZM5.9082 9.34082L6.00534 9.21439L6.0053 9.21437L5.9082 9.34082ZM5.12988 8.74316L5.03276 8.8696L5.03278 8.86962L5.12988 8.74316ZM2.15234 6.45605L2.24946 6.32962L2.24941 6.32957L2.15234 6.45605ZM1.07324 5.62793L0.976046 5.75431L0.976178 5.75441L1.07324 5.62793ZM0.125977 4.89941H-0.0334573V4.97793L0.0287806 5.02579L0.125977 4.89941ZM0.125977 3.14844H0.28541V3.0824L0.238713 3.0357L0.125977 3.14844ZM0.125 3.14746L0.237737 3.03472L-0.0344338 2.76255L-0.0344338 3.14746H0.125ZM0.811523 1.49316L0.698837 1.38038L0.698803 1.38041L0.811523 1.49316ZM0.65625 1.66504L0.532972 1.56394L0.779525 1.76614L0.65625 1.66504ZM0.811523 1.49414L0.698821 1.38137L0.69879 1.3814L0.811523 1.49414ZM0.865234 1.44434L0.974394 1.56054L0.756095 1.32811L0.865234 1.44434ZM1.0498 1.28809L1.14639 1.41493L0.953247 1.16122L1.0498 1.28809ZM0.972656 1.34668L0.870906 1.22394L1.07438 1.46944L0.972656 1.34668ZM1.2373 1.15918L1.3211 1.29481L1.15353 1.02353L1.2373 1.15918ZM1.13574 1.22363L1.04508 1.09248L1.22638 1.3548L1.13574 1.22363ZM1.42383 1.05566L1.49491 1.19837L1.35275 0.912949L1.42383 1.05566ZM1.32129 1.1084L1.24325 0.969367L1.3993 1.24744L1.32129 1.1084ZM1.57031 0.986328L1.5093 0.839031L1.50928 0.839037L1.57031 0.986328ZM1.50977 1.01465L1.44455 0.869162L1.57498 1.16014L1.50977 1.01465ZM1.62695 0.964844L1.68416 1.11366L1.56983 0.815993L1.62695 0.964844ZM1.79785 0.907227L1.84343 1.06001L1.75252 0.754372L1.79785 0.907227ZM1.67969 0.945312L1.62607 0.795165L1.73315 1.09552L1.67969 0.945312ZM1.98535 0.859375L2.01815 1.0154L1.95281 0.703297L1.98535 0.859375ZM1.86523 0.887695L1.82425 0.733619L1.90594 1.04185L1.86523 0.887695ZM2.23535 0.820312L2.21963 0.661655L2.2196 0.661659L2.23535 0.820312ZM2.05078 0.845703L2.02245 0.688806L2.07889 1.00264L2.05078 0.845703ZM2.4668 0.808594L2.47486 0.967824L2.4668 0.64916V0.808594ZM2.46582 0.808594L2.46582 0.64916L2.46578 0.64916L2.46582 0.808594ZM11.8154 3.60938L11.8156 3.44994L10.6173 3.44896L10.6172 3.6084L10.6171 3.76783L11.8153 3.76881L11.8154 3.60938ZM10.6172 3.6084H10.7766V1.88086H10.6172H10.4578V3.6084H10.6172ZM10.6172 1.88086V1.72143H2.46387V1.88086V2.04029H10.6172V1.88086ZM2.46387 1.88086L2.4635 1.72143C2.0858 1.7223 1.72347 1.8731 1.45655 2.14024L1.56934 2.25293L1.68212 2.36562C1.88945 2.15811 2.17097 2.04097 2.46424 2.04029L2.46387 1.88086ZM1.56934 2.25293L1.45651 2.14028C1.18983 2.40738 1.03935 2.76965 1.03881 3.14723L1.19824 3.14746L1.35768 3.14769C1.35809 2.85458 1.47496 2.57311 1.68216 2.36558L1.56934 2.25293ZM1.19824 3.14746H1.03881V4.37109H1.19824H1.35768V3.14746H1.19824ZM1.19824 4.37109L1.10117 4.49757L1.96641 5.16163L2.06348 5.03516L2.16055 4.90868L1.29531 4.24462L1.19824 4.37109ZM2.06348 5.03516L1.96638 5.16161L5.88727 8.17235L5.98438 8.0459L6.08148 7.91944L2.16058 4.9087L2.06348 5.03516ZM5.98438 8.0459L5.88724 8.17233L10.7212 11.8862L10.8184 11.7598L10.9155 11.6333L6.08151 7.91947L5.98438 8.0459ZM10.8184 11.7598L10.7208 11.8858L10.8634 11.9962L10.9609 11.8701L11.0585 11.744L10.9159 11.6337L10.8184 11.7598ZM10.9609 11.8701L10.8631 11.996L10.8894 12.0165L10.9873 11.8906L11.0852 11.7648L11.0588 11.7443L10.9609 11.8701ZM10.9873 11.8906L10.8898 12.0167L11.7169 12.6564L11.8145 12.5303L11.912 12.4042L11.0848 11.7645L10.9873 11.8906ZM11.8145 12.5303H11.655V14.3389H11.8145H11.9739V12.5303H11.8145ZM11.8145 14.3389L11.655 14.3388C11.6549 14.9503 11.4122 15.537 10.98 15.9693L11.0928 16.082L11.2055 16.1948C11.6976 15.7025 11.9737 15.0347 11.9739 14.3389L11.8145 14.3389ZM11.0928 16.082L10.9801 15.9693C10.5475 16.4017 9.96019 16.6453 9.34863 16.6453V16.8047V16.9641C10.0449 16.9641 10.7132 16.6869 11.2055 16.1948L11.0928 16.082ZM9.34863 16.8047V16.6453H0V16.8047V16.9641H9.34863V16.8047ZM0 16.8047H0.159434V13.2139H0H-0.159434V16.8047H0ZM0 13.2139V13.3733H1.19824V13.2139V13.0544H0V13.2139ZM1.19824 13.2139H1.03881V15.6074H1.19824H1.35768V13.2139H1.19824ZM1.19824 15.6074V15.7669H9.35156V15.6074V15.448H1.19824V15.6074ZM9.35156 15.6074L9.35189 15.7669C9.73016 15.7661 10.093 15.6145 10.3599 15.347L10.2471 15.2344L10.1342 15.1218C9.92668 15.3297 9.64474 15.4474 9.35124 15.448L9.35156 15.6074ZM10.2471 15.2344L10.36 15.3469C10.6268 15.0793 10.7767 14.7168 10.7766 14.3388L10.6172 14.3389L10.4578 14.3389C10.4578 14.6324 10.3414 14.9139 10.1342 15.1218L10.2471 15.2344ZM10.6172 14.3389H10.7766V13.1152H10.6172H10.4578V14.3389H10.6172ZM10.6172 13.1152L10.7142 12.9887L9.89684 12.3618L9.7998 12.4883L9.70277 12.6148L10.5202 13.2417L10.6172 13.1152ZM9.7998 12.4883L9.89693 12.3618L5.92915 9.31399L5.83203 9.44043L5.73491 9.56687L9.70268 12.6147L9.7998 12.4883ZM5.83203 9.44043L5.92913 9.31398L5.15081 8.71632L5.05371 8.84277L4.95661 8.96923L5.73493 9.56688L5.83203 9.44043ZM5.05371 8.84277L5.15086 8.71635L2.17332 6.42827L2.07617 6.55469L1.97903 6.68111L4.95656 8.96919L5.05371 8.84277ZM2.07617 6.55469L2.17325 6.42822L0.097082 4.83447L0 4.96094L-0.097082 5.08741L1.97909 6.68116L2.07617 6.55469ZM0 4.96094H0.159434V3.14746H0H-0.159434V4.96094H0ZM0 3.14746L0.159434 3.14758C0.159902 2.53651 0.403248 1.95015 0.835393 1.51801L0.722656 1.40527L0.60992 1.29254C0.118091 1.78436 -0.158901 2.4517 -0.159434 3.14734L0 3.14746ZM0.722656 1.40527L0.835359 1.51804C1.2677 1.08596 1.85453 0.843173 2.46586 0.843028L2.46582 0.683594L2.46578 0.52416C1.77005 0.524326 1.10214 0.800612 0.609954 1.2925L0.722656 1.40527ZM2.46582 0.683594V0.843028H11.8154V0.683594V0.52416H2.46582V0.683594ZM11.8154 0.683594H11.656V3.60938H11.8154H11.9749V0.683594H11.8154ZM0.125 16.6797V16.8391H0.125977V16.6797V16.5203H0.125V16.6797ZM0.125977 16.6797H0.28541V13.3398H0.125977H-0.0334573V16.6797H0.125977ZM0.125977 13.3398L0.238713 13.2271L0.237737 13.2261L0.125 13.3389L0.0122632 13.4516L0.0132398 13.4526L0.125977 13.3398ZM0.125 13.3389H-0.0344338V16.6797H0.125H0.284434V13.3389H0.125ZM9.48926 15.7256V15.885H9.49023V15.7256V15.5662H9.48926V15.7256ZM9.49023 15.7256V15.5662H9.48926V15.7256V15.885H9.49023V15.7256ZM9.99316 15.5732L10.0524 15.7213L10.067 15.7154L10.0078 15.5674L9.9486 15.4194L9.93395 15.4252L9.99316 15.5732ZM10.0078 15.5674L10.0831 15.7079C10.091 15.7037 10.0973 15.6996 10.1016 15.6967C10.1058 15.6939 10.1094 15.6913 10.1106 15.6903C10.1126 15.6889 10.1121 15.6893 10.1113 15.6898C10.1103 15.6905 10.1073 15.6926 10.1029 15.695L10.0254 15.5557L9.9479 15.4163C9.9405 15.4204 9.93454 15.4244 9.9306 15.4271C9.92691 15.4296 9.92348 15.4322 9.9226 15.4328C9.921 15.434 9.9217 15.4334 9.92291 15.4326C9.92429 15.4317 9.92767 15.4294 9.93248 15.4269L10.0078 15.5674ZM10.0254 15.5557L9.94774 15.4164C9.93693 15.4224 9.92798 15.4274 9.91924 15.432L9.99316 15.5732L10.0671 15.7145C10.0801 15.7077 10.0924 15.7008 10.103 15.6949L10.0254 15.5557ZM10.0879 15.5186L10.1727 15.6536C10.2254 15.6205 10.281 15.5832 10.3346 15.5393L10.2334 15.416L10.1322 15.2928C10.0936 15.3245 10.0507 15.3537 10.0031 15.3835L10.0879 15.5186ZM10.2334 15.416L10.1322 15.2928C10.0936 15.3245 10.0507 15.3536 10.0031 15.3836L10.0879 15.5186L10.1727 15.6536C10.2254 15.6204 10.281 15.5832 10.3346 15.5393L10.2334 15.416ZM0.125 4.89941L0.0278835 5.02586L7.87652 11.0542L7.97363 10.9277L8.07075 10.8013L0.222117 4.77297L0.125 4.89941ZM7.97363 10.9277L8.07077 10.8013L6.00534 9.21439L5.9082 9.34082L5.81107 9.46725L7.8765 11.0542L7.97363 10.9277ZM5.9082 9.34082L6.0053 9.21437L5.22698 8.61671L5.12988 8.74316L5.03278 8.86962L5.8111 9.46727L5.9082 9.34082ZM5.12988 8.74316L5.227 8.61673L2.24946 6.32962L2.15234 6.45605L2.05522 6.58249L5.03276 8.8696L5.12988 8.74316ZM2.15234 6.45605L2.24941 6.32957L1.17031 5.50145L1.07324 5.62793L0.976178 5.75441L2.05528 6.58254L2.15234 6.45605ZM1.07324 5.62793L1.17044 5.50155L0.223172 4.77303L0.125977 4.89941L0.0287806 5.02579L0.976046 5.75431L1.07324 5.62793ZM0.125977 4.89941H0.28541V3.14844H0.125977H-0.0334573V4.89941H0.125977ZM0.125977 3.14844L0.238713 3.0357L0.237737 3.03472L0.125 3.14746L0.0122632 3.2602L0.0132398 3.26117L0.125977 3.14844ZM0.125 3.14746H-0.0344338V4.89941H0.125H0.284434V3.14746H0.125ZM0.811523 1.49316L0.698803 1.38041C0.640025 1.43917 0.584608 1.50097 0.532972 1.56394L0.65625 1.66504L0.779528 1.76614C0.825172 1.71049 0.873583 1.65656 0.924244 1.60592L0.811523 1.49316ZM0.65625 1.66504L0.779525 1.76614C0.824507 1.7113 0.873046 1.65809 0.924257 1.60688L0.811523 1.49414L0.69879 1.3814C0.640766 1.43942 0.585109 1.50037 0.532975 1.56393L0.65625 1.66504ZM0.811523 1.49414L0.924226 1.60691C0.940527 1.59062 0.947488 1.58581 0.974374 1.56056L0.865234 1.44434L0.756095 1.32811C0.747596 1.33609 0.716957 1.36324 0.698821 1.38137L0.811523 1.49414ZM0.865234 1.44434L0.756075 1.32813C0.749716 1.33411 0.743263 1.3397 0.73283 1.34888C0.723489 1.35711 0.71119 1.36803 0.698837 1.38038L0.811523 1.49316L0.92421 1.60595C0.928919 1.60125 0.934712 1.59599 0.943579 1.58818C0.951355 1.58133 0.963226 1.57103 0.974394 1.56054L0.865234 1.44434ZM1.0498 1.28809L0.953221 1.16124C0.935783 1.17451 0.898613 1.20097 0.870906 1.22394L0.972656 1.34668L1.07441 1.46942C1.09651 1.4511 1.11249 1.44074 1.14639 1.41493L1.0498 1.28809ZM0.972656 1.34668L1.07438 1.46944C1.09645 1.45115 1.11261 1.44065 1.14636 1.41495L1.0498 1.28809L0.953247 1.16122C0.935678 1.17459 0.898665 1.20093 0.870931 1.22392L0.972656 1.34668ZM1.2373 1.15918L1.15351 1.02354C1.12227 1.04284 1.08253 1.0666 1.04508 1.09248L1.13574 1.22363L1.2264 1.35478C1.25504 1.33498 1.28415 1.31765 1.3211 1.29481L1.2373 1.15918ZM1.13574 1.22363L1.22638 1.3548C1.25502 1.33501 1.28422 1.31759 1.32108 1.29483L1.2373 1.15918L1.15353 1.02353C1.12221 1.04287 1.08254 1.0666 1.04511 1.09247L1.13574 1.22363ZM1.42383 1.05566L1.35274 0.912955C1.32056 0.928986 1.28121 0.948065 1.24325 0.969367L1.32129 1.1084L1.39932 1.24743C1.4285 1.23106 1.45827 1.21663 1.49491 1.19837L1.42383 1.05566ZM1.32129 1.1084L1.3993 1.24744C1.42848 1.23107 1.45832 1.2166 1.4949 1.19838L1.42383 1.05566L1.35275 0.912949C1.32053 0.928997 1.28121 0.948073 1.24327 0.969356L1.32129 1.1084ZM1.57031 0.986328L1.50928 0.839037C1.49424 0.845272 1.4805 0.851892 1.47021 0.856895C1.45871 0.862488 1.45179 0.865916 1.44455 0.869162L1.50977 1.01465L1.57498 1.16014C1.58807 1.15427 1.60114 1.1478 1.60968 1.14364C1.61944 1.1389 1.62581 1.13591 1.63134 1.13362L1.57031 0.986328ZM1.50977 1.01465L1.57498 1.16014C1.6138 1.14273 1.64902 1.12717 1.68416 1.11366L1.62695 0.964844L1.56975 0.816027C1.52561 0.832994 1.48323 0.851824 1.44455 0.869161L1.50977 1.01465ZM1.62695 0.964844L1.56983 0.815993C1.55972 0.819875 1.52931 0.830742 1.5093 0.839032L1.57031 0.986328L1.63133 1.13362C1.64844 1.12654 1.65667 1.12421 1.68407 1.11369L1.62695 0.964844ZM1.79785 0.907227L1.75252 0.754372C1.71117 0.766635 1.66881 0.779951 1.62622 0.79511L1.67969 0.945312L1.73315 1.09552C1.76856 1.08291 1.80508 1.07138 1.84318 1.06008L1.79785 0.907227ZM1.67969 0.945312L1.7333 1.09546C1.76841 1.08293 1.80483 1.07152 1.84343 1.06001L1.79785 0.907227L1.75227 0.754447C1.71149 0.766615 1.66891 0.779866 1.62607 0.795165L1.67969 0.945312ZM1.98535 0.859375L1.95281 0.703297C1.90983 0.712257 1.86708 0.722309 1.82453 0.733545L1.86523 0.887695L1.90594 1.04185C1.9429 1.03209 1.9802 1.02331 2.01789 1.01545L1.98535 0.859375ZM1.86523 0.887695L1.90622 1.04177C1.94265 1.03208 1.97991 1.02344 2.01815 1.0154L1.98535 0.859375L1.95255 0.703352C1.91017 0.712262 1.86728 0.722173 1.82425 0.733619L1.86523 0.887695ZM2.23535 0.820312L2.2196 0.661658C2.15393 0.668178 2.08819 0.677033 2.02267 0.688766L2.05078 0.845703L2.07889 1.00264C2.13539 0.99252 2.19283 0.984751 2.2511 0.978967L2.23535 0.820312ZM2.05078 0.845703L2.07911 1.0026C2.13531 0.992452 2.19266 0.984768 2.2511 0.978966L2.23535 0.820312L2.2196 0.661659C2.15409 0.668163 2.08823 0.67693 2.02245 0.688806L2.05078 0.845703ZM2.23535 0.820312L2.24341 0.979542L2.47486 0.967824L2.4668 0.808594L2.45873 0.649364L2.22729 0.661083L2.23535 0.820312ZM2.4668 0.808594V0.64916H2.46582V0.808594V0.968028H2.4668V0.808594ZM2.46582 0.808594L2.46578 0.64916C2.38288 0.649181 2.3006 0.653634 2.21963 0.661655L2.23535 0.820312L2.25107 0.97897C2.3225 0.971893 2.39429 0.968046 2.46586 0.968028L2.46582 0.808594Z" fill="#FFFAF3" mask="url(#svg-506421575_23803_path-4-outside-2_1151_1202)"/>
<mask id="svg-506421575_23803_path-6-outside-3_1151_1202" maskUnits="userSpaceOnUse" x="5.48438" y="3.30859" width="7" height="9" fill="black">
<rect fill="white" x="5.48438" y="3.30859" width="7" height="9"/>
<path d="M11.8193 11.6475L10.6211 10.7275V5.88281L7.46777 8.30469L6.48438 7.5498L9.75586 5.03711L10.7031 4.30859H11.8193V11.6475ZM7.46777 8.14746L7.26758 7.99316L6.68945 7.5498L7.46777 8.14746Z"/>
</mask>
<path d="M11.8193 11.6475L10.6211 10.7275V5.88281L7.46777 8.30469L6.48438 7.5498L9.75586 5.03711L10.7031 4.30859H11.8193V11.6475ZM7.46777 8.14746L7.26758 7.99316L6.68945 7.5498L7.46777 8.14746Z" fill="#FFFAF3"/>
<path d="M11.8193 11.6475L11.7222 11.7739L11.9788 11.9709V11.6475H11.8193ZM10.6211 10.7275H10.4617V10.8061L10.524 10.854L10.6211 10.7275ZM10.6211 5.88281H10.7805V5.55933L10.524 5.75637L10.6211 5.88281ZM7.46777 8.30469L7.37069 8.43116L7.4678 8.5057L7.56489 8.43113L7.46777 8.30469ZM6.48438 7.5498L6.38726 7.42336L6.22259 7.54984L6.38729 7.67627L6.48438 7.5498ZM9.75586 5.03711L9.85297 5.16355L9.85306 5.16349L9.75586 5.03711ZM10.7031 4.30859V4.14916H10.6489L10.6059 4.18221L10.7031 4.30859ZM11.8193 4.30859H11.9788V4.14916H11.8193V4.30859ZM7.46777 8.14746L7.37067 8.27391L7.5651 8.02118L7.46777 8.14746ZM7.26758 7.99316L7.36491 7.86688L7.3646 7.86665L7.26758 7.99316ZM6.68945 7.5498L6.78648 7.42329L6.59235 7.67626L6.68945 7.5498ZM11.8193 11.6475L11.9164 11.521L10.7182 10.6011L10.6211 10.7275L10.524 10.854L11.7222 11.7739L11.8193 11.6475ZM10.6211 10.7275H10.7805V5.88281H10.6211H10.4617V10.7275H10.6211ZM10.6211 5.88281L10.524 5.75637L7.37066 8.17824L7.46777 8.30469L7.56489 8.43113L10.7182 6.00926L10.6211 5.88281ZM7.46777 8.30469L7.56485 8.17822L6.58146 7.42334L6.48438 7.5498L6.38729 7.67627L7.37069 8.43116L7.46777 8.30469ZM6.48438 7.5498L6.58149 7.67625L9.85297 5.16355L9.75586 5.03711L9.65874 4.91067L6.38726 7.42336L6.48438 7.5498ZM9.75586 5.03711L9.85306 5.16349L10.8003 4.43497L10.7031 4.30859L10.6059 4.18221L9.65866 4.91073L9.75586 5.03711ZM10.7031 4.30859V4.46803H11.8193V4.30859V4.14916H10.7031V4.30859ZM11.8193 4.30859H11.6599V11.6475H11.8193H11.9788V4.30859H11.8193ZM7.46777 8.14746L7.5651 8.02118L7.36491 7.86688L7.26758 7.99316L7.17025 8.11944L7.37045 8.27374L7.46777 8.14746ZM7.26758 7.99316L7.3646 7.86665L6.78648 7.42329L6.68945 7.5498L6.59243 7.67632L7.17056 8.11968L7.26758 7.99316ZM6.68945 7.5498L6.59235 7.67626L7.37067 8.27391L7.46777 8.14746L7.56487 8.02101L6.78655 7.42335L6.68945 7.5498Z" fill="#FFFAF3" mask="url(#svg-506421575_23803_path-6-outside-3_1151_1202)"/>
<path d="M10.8828 11.9688L10.9088 11.9884L11.687 12.5914" fill="#FFFAF3"/>
</svg>