<svg xmlns="http://www.w3.org/2000/svg" xmlns:xlink="http://www.w3.org/1999/xlink" viewBox="0 0 16.3 16.3"><path d="M 0 8.149 C 0 3.666 3.666 0 8.149 0 C 12.632 0 16.298 3.666 16.298 8.149 C 16.298 12.632 12.632 16.298 8.149 16.298 C 3.666 16.298 0 12.632 0 8.149 Z M 8.149 1.137 C 4.294 1.137 1.137 4.294 1.137 8.149 C 1.137 12.004 4.294 15.161 8.149 15.161 C 12.004 15.161 15.161 12.004 15.161 8.149 C 15.161 4.294 12.004 1.137 8.149 1.137 Z" fill="rgb(42, 235, 177)"></path><path d="M 11.324 6.185 C 11.518 6.383 11.518 6.703 11.323 6.9 L 7.558 10.718 C 7.364 10.915 7.049 10.915 6.854 10.717 L 4.975 8.809 C 4.781 8.611 4.781 8.291 4.975 8.093 C 5.17 7.896 5.485 7.896 5.679 8.093 L 7.207 9.645 L 10.619 6.184 C 10.814 5.987 11.129 5.987 11.324 6.185 Z" fill="rgb(42, 235, 177)"></path></svg>