<svg xmlns="http://www.w3.org/2000/svg" xmlns:xlink="http://www.w3.org/1999/xlink" viewBox="0 0 22.65 22.65"><path d="M 0 11.325 C 0 5.094 5.094 0 11.325 0 C 17.555 0 22.649 5.094 22.649 11.325 C 22.649 17.555 17.555 22.649 11.325 22.649 C 5.094 22.649 0 17.555 0 11.325 Z M 11.325 1.58 C 5.967 1.58 1.58 5.967 1.58 11.325 C 1.58 16.682 5.967 21.069 11.325 21.069 C 16.682 21.069 21.069 16.682 21.069 11.325 C 21.069 5.967 16.682 1.58 11.325 1.58 Z" fill="rgb(42, 235, 177)"></path><path d="M 15.736 8.595 C 16.006 8.87 16.006 9.315 15.735 9.589 L 10.503 14.894 C 10.233 15.168 9.795 15.168 9.525 14.894 L 6.914 12.241 C 6.643 11.967 6.643 11.521 6.914 11.247 C 7.184 10.972 7.622 10.972 7.892 11.247 L 10.015 13.403 L 14.757 8.594 C 15.028 8.32 15.466 8.32 15.736 8.595 Z" fill="rgb(42, 235, 177)"></path></svg>