<svg xmlns="http://www.w3.org/2000/svg" xmlns:xlink="http://www.w3.org/1999/xlink" viewBox="0 0 79.942 168.724" overflow="visible"><g><defs><linearGradient id="idspr9c6xC9S_1g-1834802268" x1="0.49751243781094523" x2="0.5024875621890548" y1="0" y2="1"><stop offset="0" stop-color="rgb(31, 249, 184)" stop-opacity="1"></stop><stop offset="1" stop-color="rgba(255, 255, 255, 0)" stop-opacity="0"></stop></linearGradient></defs><path d="M 8.173 127.919 C 3.305 131.156 0.276 136.516 0.019 142.347 C -0.246 148.178 2.291 153.785 6.85 157.442 C 11.717 154.205 14.746 148.846 15.003 143.016 C 15.268 137.184 12.73 131.576 8.171 127.919 Z M 23.419 112.734 C 19.731 117.266 18.431 123.281 19.919 128.927 C 21.398 134.574 25.488 139.178 30.928 141.323 C 34.615 136.791 35.914 130.776 34.427 125.131 C 32.948 119.484 28.859 114.879 23.419 112.734 Z M 33.883 95.884 C 31.822 101.346 32.496 107.462 35.696 112.347 C 38.889 117.238 44.229 120.316 50.07 120.633 C 52.129 115.172 51.455 109.058 48.257 104.174 C 45.064 99.282 39.725 96.202 33.883 95.884 Z M 32.406 75.043 C 32.237 80.878 34.867 86.444 39.487 90.026 C 44.101 93.615 50.154 94.792 55.781 93.196 C 55.949 87.362 53.318 81.797 48.699 78.216 C 44.085 74.626 38.033 73.448 32.405 75.043 Z M 27.543 52.275 C 28.899 57.955 32.887 62.648 38.281 64.911 C 43.67 67.181 49.82 66.75 54.839 63.751 C 53.484 58.074 49.496 53.381 44.104 51.119 C 38.715 48.848 32.563 49.278 27.543 52.275 Z M 14.358 34.192 C 16.738 39.525 21.524 43.406 27.242 44.639 C 32.957 45.882 38.924 44.33 43.304 40.462 C 40.925 35.129 36.14 31.248 30.422 30.015 C 24.706 28.773 18.739 30.325 14.358 34.193 Z M 13.088 0.123 C 11.985 5.856 13.688 11.77 17.673 16.044 C 21.651 20.323 27.436 22.452 33.246 21.777 C 34.349 16.044 32.646 10.13 28.661 5.856 C 24.683 1.578 18.898 -0.552 13.088 0.123 Z M 64.87 133.926 C 59.985 130.713 53.858 130.017 48.375 132.052 C 42.889 134.079 38.701 138.595 37.1 144.21 C 41.984 147.422 48.111 148.119 53.594 146.084 C 59.08 144.057 63.269 139.541 64.87 133.926 Z M 79.923 102.913 C 74.272 101.406 68.238 102.678 63.681 106.338 C 59.119 109.992 56.577 115.598 56.838 121.43 C 62.489 122.937 68.522 121.664 73.079 118.004 C 77.641 114.351 80.184 108.745 79.923 102.913 Z M 78.228 66.745 C 72.392 67.154 67.101 70.316 63.986 75.257 C 60.863 80.193 60.287 86.319 62.435 91.748 C 68.27 91.339 73.56 88.177 76.675 83.237 C 79.798 78.301 80.375 72.175 78.228 66.745 Z M 41.465 160.423 C 37.754 155.909 32.108 153.431 26.266 153.754 C 20.426 154.067 15.084 157.14 11.887 162.027 C 15.597 166.54 21.242 169.017 27.083 168.697 C 32.924 168.384 38.265 165.31 41.463 160.423 Z M 52.07 6.919 C 46.988 9.809 43.59 14.944 42.925 20.743 C 42.252 26.542 44.391 32.313 48.683 36.28 C 53.765 33.39 57.161 28.255 57.826 22.456 C 58.499 16.658 56.361 10.887 52.07 6.919 Z M 69.642 32.392 C 64.113 34.3 59.828 38.723 58.104 44.301 C 56.373 49.877 57.409 55.942 60.896 60.629 C 66.424 58.722 70.71 54.298 72.433 48.72 C 74.164 43.145 73.128 37.079 69.642 32.392 Z" fill="url(#idspr9c6xC9S_1g-1834802268)"></path></g></svg>