<svg xmlns="http://www.w3.org/2000/svg" xmlns:xlink="http://www.w3.org/1999/xlink" viewBox="0 0 22.66 22.66"><path d="M 0 11.325 C 0 5.095 5.095 0 11.325 0 C 17.556 0 22.651 5.095 22.651 11.325 C 22.651 17.556 17.556 22.651 11.325 22.651 C 5.095 22.651 0 17.556 0 11.325 Z M 11.325 1.58 C 5.967 1.58 1.58 5.967 1.58 11.325 C 1.58 16.683 5.967 21.07 11.325 21.07 C 16.683 21.07 21.07 16.683 21.07 11.325 C 21.07 5.967 16.683 1.58 11.325 1.58 Z" fill="rgb(42, 235, 177)"></path><path d="M 15.737 8.596 C 16.007 8.87 16.007 9.315 15.736 9.59 L 10.504 14.895 C 10.234 15.169 9.796 15.169 9.526 14.895 L 6.914 12.242 C 6.644 11.967 6.644 11.522 6.914 11.248 C 7.184 10.973 7.623 10.973 7.893 11.248 L 10.016 13.404 L 14.758 8.595 C 15.029 8.32 15.467 8.321 15.737 8.596 Z" fill="rgb(42, 235, 177)"></path></svg>