<svg xmlns="http://www.w3.org/2000/svg" xmlns:xlink="http://www.w3.org/1999/xlink" viewBox="0 0 21.58 21.58"><path d="M 0 10.792 C 0 4.855 4.855 0 10.792 0 C 16.729 0 21.584 4.855 21.584 10.792 C 21.584 16.729 16.729 21.584 10.792 21.584 C 4.855 21.584 0 16.729 0 10.792 Z M 10.792 1.506 C 5.686 1.506 1.506 5.686 1.506 10.792 C 1.506 15.897 5.686 20.078 10.792 20.078 C 15.897 20.078 20.078 15.897 20.078 10.792 C 20.078 5.686 15.897 1.506 10.792 1.506 Z" fill="rgb(42, 235, 177)"></path><path d="M 14.996 8.191 C 15.253 8.452 15.253 8.877 14.995 9.138 L 10.009 14.193 C 9.752 14.455 9.334 14.454 9.077 14.193 L 6.588 11.665 C 6.331 11.404 6.331 10.979 6.588 10.718 C 6.846 10.456 7.264 10.456 7.521 10.718 L 9.544 12.772 L 14.063 8.19 C 14.321 7.928 14.739 7.929 14.996 8.191 Z" fill="rgb(42, 235, 177)"></path></svg>