<svg xmlns="http://www.w3.org/2000/svg" xmlns:xlink="http://www.w3.org/1999/xlink" viewBox="0 0 79.544 169.035" overflow="visible"><g><defs><linearGradient id="idsS4KQaTOYs_1g-1834802268" x1="0.49751243781094523" x2="0.5024875621890548" y1="0" y2="1"><stop offset="0" stop-color="rgb(31, 249, 184)" stop-opacity="1"></stop><stop offset="1" stop-color="rgba(255, 255, 255, 0)" stop-opacity="0"></stop></linearGradient></defs><path d="M 71.413 128.154 C 76.256 131.397 79.269 136.767 79.525 142.609 C 79.789 148.45 77.264 154.068 72.727 157.732 C 67.884 154.489 64.871 149.12 64.615 143.278 C 64.352 137.437 66.876 131.818 71.413 128.154 Z M 56.242 112.941 C 59.911 117.481 61.205 123.508 59.725 129.164 C 58.253 134.821 54.184 139.434 48.77 141.583 C 45.102 137.042 43.809 131.017 45.289 125.361 C 46.76 119.703 50.829 115.09 56.242 112.941 Z M 45.83 96.06 C 47.881 101.532 47.211 107.659 44.027 112.554 C 40.85 117.454 35.537 120.538 29.725 120.856 C 27.674 115.384 28.344 109.257 31.527 104.362 C 34.705 99.462 40.018 96.378 45.83 96.06 Z M 47.299 75.181 C 47.467 81.027 44.85 86.603 40.253 90.192 C 35.662 93.787 29.64 94.966 24.041 93.368 C 23.873 87.522 26.491 81.947 31.087 78.36 C 35.678 74.764 41.7 73.583 47.299 75.181 Z M 52.137 52.371 C 50.788 58.061 46.82 62.763 41.454 65.03 C 36.092 67.304 29.972 66.873 24.978 63.869 C 26.327 58.18 30.294 53.479 35.659 51.213 C 41.022 48.938 47.142 49.368 52.137 52.371 Z M 65.258 34.254 C 62.891 39.597 58.128 43.486 52.438 44.721 C 46.751 45.966 40.814 44.412 36.455 40.537 C 38.823 35.194 43.584 31.306 49.274 30.07 C 54.962 28.826 60.899 30.381 65.258 34.256 Z M 66.523 0.123 C 67.621 5.866 65.926 11.791 61.961 16.073 C 58.002 20.36 52.246 22.494 46.465 21.817 C 45.367 16.073 47.062 10.149 51.027 5.867 C 54.986 1.581 60.741 -0.553 66.522 0.123 Z M 14.997 134.172 C 19.857 130.953 25.954 130.256 31.41 132.294 C 36.869 134.325 41.036 138.85 42.629 144.475 C 37.769 147.693 31.673 148.391 26.217 146.353 C 20.758 144.322 16.59 139.797 14.997 134.172 Z M 0.018 103.102 C 5.642 101.592 11.645 102.867 16.179 106.534 C 20.719 110.195 23.248 115.811 22.989 121.653 C 17.366 123.163 11.363 121.888 6.829 118.221 C 2.289 114.561 -0.241 108.944 0.018 103.102 Z M 1.705 66.868 C 7.512 67.278 12.776 70.445 15.877 75.395 C 18.983 80.34 19.557 86.478 17.419 91.917 C 11.613 91.507 6.349 88.339 3.249 83.39 C 0.142 78.445 -0.432 72.308 1.703 66.868 Z M 38.286 160.718 C 41.978 156.196 47.596 153.714 53.409 154.036 C 59.221 154.35 64.535 157.429 67.717 162.325 C 64.025 166.846 58.409 169.328 52.597 169.007 C 46.784 168.694 41.468 165.615 38.286 160.718 Z M 27.734 6.932 C 32.792 9.827 36.172 14.971 36.834 20.781 C 37.504 26.591 35.375 32.373 31.105 36.347 C 26.048 33.451 22.669 28.307 22.007 22.497 C 21.337 16.688 23.464 10.907 27.734 6.932 Z M 10.25 32.451 C 15.751 34.362 20.016 38.794 21.73 44.382 C 23.453 49.968 22.422 56.045 18.953 60.741 C 13.452 58.83 9.187 54.398 7.473 48.81 C 5.75 43.224 6.781 37.147 10.25 32.451 Z" fill="url(#idsS4KQaTOYs_1g-1834802268)"></path></g></svg>