<svg xmlns="http://www.w3.org/2000/svg" xmlns:xlink="http://www.w3.org/1999/xlink" viewBox="0 0 225.817 25.744" overflow="visible"><g><path d="M 35.927 3.664 L 39.347 3.664 L 43.928 14.845 L 44.109 14.845 L 48.69 3.665 L 52.11 3.665 L 52.11 19.095 L 49.428 19.095 L 49.428 8.493 L 49.285 8.493 L 45.021 19.048 L 43.016 19.048 L 38.751 8.47 L 38.608 8.47 L 38.608 19.093 L 35.926 19.093 L 35.926 3.664 Z M 58.364 19.328 C 57.631 19.328 56.97 19.198 56.383 18.936 C 55.818 18.685 55.337 18.278 54.996 17.761 C 54.66 17.244 54.491 16.606 54.491 15.847 C 54.491 15.194 54.612 14.654 54.853 14.227 C 55.094 13.8 55.423 13.459 55.84 13.203 C 56.257 12.946 56.727 12.753 57.249 12.623 C 57.787 12.486 58.333 12.388 58.884 12.329 C 59.562 12.259 60.112 12.196 60.534 12.14 C 60.956 12.08 61.262 11.99 61.454 11.869 C 61.649 11.743 61.747 11.55 61.747 11.289 L 61.747 11.244 C 61.747 10.676 61.579 10.237 61.242 9.925 C 60.906 9.614 60.421 9.458 59.788 9.458 C 59.12 9.458 58.59 9.604 58.198 9.895 C 57.812 10.186 57.55 10.53 57.415 10.927 L 54.868 10.566 C 55.069 9.862 55.401 9.275 55.863 8.803 C 56.337 8.319 56.917 7.953 57.558 7.733 C 58.226 7.492 58.964 7.371 59.773 7.371 C 60.331 7.371 60.886 7.436 61.438 7.567 C 61.991 7.697 62.495 7.914 62.952 8.215 C 63.409 8.511 63.776 8.915 64.052 9.428 C 64.334 9.94 64.474 10.581 64.474 11.349 L 64.474 19.094 L 61.852 19.094 L 61.852 17.504 L 61.762 17.504 C 61.583 17.844 61.346 18.15 61.062 18.409 C 60.735 18.704 60.354 18.932 59.939 19.079 C 59.492 19.245 58.967 19.328 58.364 19.328 Z M 59.072 17.324 C 59.62 17.324 60.094 17.216 60.496 17 C 60.898 16.779 61.207 16.488 61.423 16.126 C 61.644 15.764 61.754 15.37 61.754 14.943 L 61.754 13.579 C 61.669 13.649 61.524 13.715 61.318 13.775 C 61.095 13.841 60.869 13.894 60.639 13.933 C 60.389 13.979 60.139 14.019 59.894 14.054 L 59.254 14.144 C 58.881 14.192 58.514 14.283 58.161 14.416 C 57.867 14.523 57.604 14.705 57.4 14.943 C 57.214 15.164 57.12 15.45 57.12 15.802 C 57.12 16.304 57.304 16.683 57.67 16.94 C 58.038 17.196 58.505 17.324 59.072 17.324 Z M 72.25 23.675 C 71.27 23.675 70.429 23.542 69.726 23.275 C 69.023 23.015 68.457 22.663 68.031 22.221 C 67.622 21.809 67.317 21.305 67.141 20.751 L 69.598 20.157 C 69.708 20.383 69.868 20.607 70.08 20.827 C 70.29 21.053 70.575 21.239 70.931 21.385 C 71.293 21.535 71.748 21.611 72.295 21.611 C 73.068 21.611 73.709 21.422 74.216 21.046 C 74.724 20.674 74.977 20.061 74.977 19.207 L 74.977 17.015 L 74.841 17.015 C 74.677 17.331 74.469 17.623 74.224 17.881 C 73.957 18.178 73.604 18.426 73.161 18.627 C 72.724 18.828 72.174 18.929 71.511 18.929 C 70.622 18.929 69.816 18.72 69.093 18.303 C 68.375 17.881 67.802 17.253 67.375 16.42 C 66.953 15.58 66.742 14.531 66.742 13.27 C 66.742 12 66.953 10.927 67.375 10.053 C 67.802 9.174 68.377 8.509 69.1 8.057 C 69.824 7.6 70.664 7.362 71.519 7.371 C 72.197 7.371 72.754 7.487 73.191 7.718 C 73.633 7.944 73.985 8.218 74.246 8.538 C 74.507 8.855 74.706 9.154 74.842 9.436 L 74.992 9.436 L 74.992 7.522 L 77.682 7.522 L 77.682 19.282 C 77.682 20.272 77.446 21.091 76.974 21.739 C 76.502 22.387 75.856 22.872 75.037 23.193 C 74.219 23.515 73.289 23.675 72.25 23.675 Z M 72.272 16.789 C 72.85 16.789 73.342 16.649 73.749 16.367 C 74.156 16.086 74.465 15.681 74.676 15.154 C 74.886 14.627 74.992 13.994 74.992 13.255 C 74.992 12.527 74.887 11.889 74.676 11.342 C 74.47 10.794 74.163 10.37 73.756 10.068 C 73.355 9.762 72.86 9.608 72.272 9.608 C 71.665 9.608 71.157 9.767 70.75 10.083 C 70.344 10.4 70.037 10.834 69.831 11.387 C 69.625 11.934 69.522 12.557 69.522 13.255 C 69.522 13.964 69.625 14.584 69.832 15.116 C 70.042 15.644 70.352 16.056 70.758 16.352 C 71.17 16.643 71.675 16.789 72.272 16.789 Z M 80.477 19.094 L 80.477 7.522 L 83.205 7.522 L 83.205 19.094 L 80.476 19.094 Z M 81.848 5.879 C 81.435 5.887 81.035 5.732 80.733 5.449 C 80.434 5.185 80.264 4.803 80.266 4.403 C 80.266 3.991 80.422 3.642 80.733 3.355 C 81.033 3.069 81.434 2.912 81.848 2.918 C 82.285 2.918 82.658 3.064 82.963 3.355 C 83.275 3.642 83.431 3.991 83.431 4.403 C 83.431 4.809 83.275 5.158 82.963 5.45 C 82.657 5.736 82.285 5.88 81.848 5.88 Z M 91.058 19.32 C 89.902 19.32 88.91 19.067 88.081 18.56 C 87.259 18.055 86.598 17.325 86.175 16.457 C 85.733 15.558 85.512 14.524 85.512 13.353 C 85.512 12.178 85.738 11.141 86.19 10.242 C 86.642 9.337 87.28 8.634 88.104 8.132 C 88.933 7.625 89.912 7.372 91.042 7.372 C 91.982 7.372 92.812 7.544 93.536 7.891 C 94.237 8.21 94.838 8.713 95.276 9.345 C 95.708 9.968 95.954 10.696 96.015 11.53 L 93.408 11.53 C 93.316 10.996 93.051 10.507 92.654 10.136 C 92.263 9.759 91.738 9.571 91.08 9.571 C 90.522 9.571 90.033 9.721 89.61 10.023 C 89.189 10.319 88.86 10.746 88.624 11.304 C 88.393 11.862 88.277 12.53 88.277 13.308 C 88.277 14.097 88.393 14.775 88.624 15.342 C 88.854 15.905 89.179 16.339 89.596 16.646 C 90.017 16.947 90.512 17.098 91.08 17.098 C 91.482 17.098 91.84 17.023 92.157 16.872 C 92.479 16.716 92.747 16.492 92.963 16.202 C 93.179 15.91 93.328 15.556 93.408 15.139 L 96.015 15.139 C 95.949 15.958 95.708 16.683 95.291 17.316 C 94.866 17.952 94.278 18.462 93.589 18.793 C 92.87 19.145 92.027 19.32 91.057 19.32 Z M 98.375 3.664 L 101.795 3.664 L 106.376 14.845 L 106.557 14.845 L 111.138 3.665 L 114.558 3.665 L 114.558 19.095 L 111.876 19.095 L 111.876 8.493 L 111.733 8.493 L 107.469 19.048 L 105.465 19.048 L 101.2 8.47 L 101.057 8.47 L 101.057 19.093 L 98.375 19.093 Z M 122.53 19.32 C 121.4 19.32 120.42 19.072 119.591 18.575 C 118.763 18.078 118.094 17.354 117.663 16.488 C 117.211 15.593 116.985 14.548 116.985 13.353 C 116.985 12.158 117.211 11.111 117.663 10.211 C 118.12 9.312 118.763 8.614 119.591 8.117 C 120.42 7.62 121.4 7.371 122.53 7.371 C 123.66 7.371 124.639 7.62 125.468 8.117 C 126.298 8.615 126.965 9.343 127.389 10.212 C 127.846 11.111 128.075 12.158 128.075 13.353 C 128.075 14.549 127.846 15.593 127.389 16.488 C 126.963 17.355 126.296 18.079 125.468 18.575 C 124.639 19.072 123.66 19.32 122.53 19.32 Z M 122.545 17.136 C 123.158 17.136 123.67 16.967 124.082 16.631 C 124.494 16.289 124.8 15.832 125.001 15.259 C 125.207 14.687 125.31 14.049 125.31 13.346 C 125.31 12.638 125.207 11.997 125.001 11.425 C 124.8 10.847 124.494 10.387 124.082 10.045 C 123.67 9.705 123.158 9.533 122.545 9.533 C 121.917 9.533 121.395 9.704 120.978 10.046 C 120.566 10.387 120.257 10.846 120.051 11.424 C 119.85 11.997 119.75 12.637 119.75 13.346 C 119.75 14.049 119.85 14.686 120.051 15.26 C 120.257 15.832 120.566 16.29 120.978 16.63 C 121.395 16.967 121.917 17.136 122.545 17.136 Z M 133.117 12.314 L 133.117 19.094 L 130.39 19.094 L 130.39 7.522 L 132.997 7.522 L 132.997 9.488 L 133.132 9.488 C 133.388 8.855 133.833 8.315 134.406 7.944 C 134.993 7.562 135.719 7.371 136.583 7.371 C 137.382 7.371 138.077 7.541 138.67 7.883 C 139.271 8.228 139.754 8.746 140.056 9.368 C 140.388 10.016 140.551 10.802 140.546 11.726 L 140.546 19.094 L 137.819 19.094 L 137.819 12.148 C 137.819 11.374 137.618 10.769 137.216 10.332 C 136.819 9.895 136.269 9.677 135.566 9.677 C 135.122 9.669 134.683 9.778 134.293 9.993 C 133.924 10.202 133.623 10.514 133.426 10.89 C 133.22 11.281 133.117 11.756 133.117 12.314 Z M 147.613 19.298 C 146.704 19.298 145.89 19.064 145.172 18.598 C 144.454 18.13 143.886 17.452 143.469 16.563 C 143.053 15.673 142.844 14.593 142.844 13.323 C 142.844 12.037 143.055 10.953 143.477 10.068 C 143.904 9.179 144.479 8.508 145.202 8.057 C 145.926 7.6 146.766 7.362 147.621 7.371 C 148.299 7.371 148.856 7.487 149.293 7.718 C 149.73 7.944 150.077 8.218 150.333 8.538 C 150.589 8.855 150.788 9.154 150.928 9.436 L 151.041 9.436 L 151.041 3.663 L 153.776 3.663 L 153.776 19.093 L 151.094 19.093 L 151.094 17.27 L 150.928 17.27 C 150.761 17.592 150.556 17.893 150.318 18.167 C 150.023 18.501 149.665 18.772 149.263 18.965 C 148.826 19.186 148.276 19.297 147.613 19.297 Z M 148.374 17.06 C 148.952 17.06 149.444 16.904 149.851 16.593 C 150.258 16.277 150.567 15.837 150.778 15.274 C 150.989 14.712 151.094 14.056 151.094 13.308 C 151.094 12.56 150.989 11.909 150.778 11.357 C 150.572 10.804 150.265 10.375 149.858 10.068 C 149.457 9.762 148.962 9.608 148.374 9.608 C 147.766 9.608 147.259 9.767 146.852 10.083 C 146.445 10.4 146.139 10.837 145.933 11.394 C 145.727 11.952 145.624 12.59 145.624 13.308 C 145.624 14.031 145.727 14.677 145.933 15.244 C 146.144 15.807 146.453 16.252 146.86 16.578 C 147.272 16.899 147.777 17.06 148.374 17.06 Z M 170.851 7.522 C 170.781 6.791 170.374 6.134 169.751 5.744 C 169.108 5.322 168.319 5.111 167.385 5.111 C 166.702 5.111 166.104 5.221 165.592 5.442 C 165.085 5.663 164.688 5.967 164.402 6.354 C 164.122 6.736 163.974 7.199 163.98 7.672 C 163.98 8.084 164.078 8.438 164.273 8.735 C 164.474 9.026 164.731 9.27 165.042 9.465 C 165.353 9.656 165.68 9.815 166.021 9.94 C 166.363 10.06 166.677 10.159 166.963 10.234 L 168.53 10.656 C 168.932 10.762 169.379 10.907 169.871 11.093 C 170.377 11.284 170.856 11.54 171.295 11.854 C 171.752 12.17 172.129 12.577 172.426 13.074 C 172.722 13.572 172.87 14.182 172.87 14.905 C 172.88 15.707 172.652 16.493 172.215 17.165 C 171.783 17.839 171.15 18.374 170.316 18.77 C 169.487 19.167 168.48 19.366 167.295 19.366 C 166.19 19.366 165.233 19.187 164.424 18.831 C 163.62 18.474 162.988 17.977 162.525 17.339 C 162.068 16.701 161.81 15.96 161.749 15.116 L 163.678 15.116 C 163.728 15.699 163.924 16.181 164.266 16.563 C 164.612 16.94 165.049 17.221 165.577 17.407 C 166.109 17.587 166.682 17.678 167.295 17.678 C 168.008 17.678 168.648 17.562 169.216 17.331 C 169.784 17.095 170.233 16.769 170.565 16.351 C 170.896 15.93 171.062 15.438 171.062 14.875 C 171.062 14.363 170.919 13.946 170.632 13.625 C 170.346 13.303 169.969 13.042 169.502 12.841 C 169.01 12.632 168.505 12.456 167.988 12.314 L 166.089 11.771 C 164.884 11.424 163.929 10.93 163.226 10.287 C 162.523 9.644 162.171 8.803 162.171 7.763 C 162.171 6.899 162.405 6.145 162.872 5.503 C 163.344 4.855 163.977 4.353 164.771 3.996 C 165.569 3.634 166.461 3.453 167.445 3.453 C 168.44 3.453 169.324 3.632 170.097 3.988 C 170.871 4.34 171.484 4.822 171.936 5.435 C 172.393 6.048 172.634 6.743 172.659 7.522 Z M 175.701 23.434 L 175.701 7.522 L 177.419 7.522 L 177.419 9.36 L 177.63 9.36 C 177.76 9.16 177.941 8.903 178.172 8.592 C 178.408 8.275 178.745 7.994 179.182 7.748 C 179.624 7.497 180.222 7.371 180.975 7.371 C 181.949 7.371 182.808 7.615 183.552 8.101 C 184.295 8.589 184.875 9.28 185.292 10.174 C 185.709 11.068 185.918 12.123 185.918 13.338 C 185.918 14.564 185.709 15.626 185.292 16.525 C 184.875 17.419 184.298 18.112 183.559 18.605 C 182.821 19.092 181.97 19.335 181.005 19.335 C 180.262 19.335 179.667 19.212 179.22 18.966 C 178.773 18.716 178.428 18.431 178.187 18.115 C 177.99 17.857 177.804 17.591 177.63 17.316 L 177.479 17.316 L 177.479 23.434 Z M 177.449 13.308 C 177.449 14.182 177.577 14.953 177.833 15.621 C 178.089 16.284 178.464 16.804 178.956 17.181 C 179.448 17.552 180.051 17.738 180.764 17.738 C 181.507 17.738 182.128 17.542 182.625 17.151 C 183.127 16.754 183.504 16.221 183.755 15.553 C 184.011 14.88 184.139 14.132 184.139 13.308 C 184.139 12.494 184.014 11.761 183.763 11.108 C 183.517 10.45 183.142 9.93 182.64 9.548 C 182.143 9.162 181.518 8.968 180.764 8.968 C 180.041 8.968 179.433 9.152 178.941 9.518 C 178.449 9.88 178.077 10.388 177.826 11.04 C 177.575 11.688 177.449 12.444 177.449 13.308 Z M 193.331 19.335 C 192.287 19.335 191.37 19.087 190.581 18.59 C 189.798 18.092 189.185 17.397 188.743 16.503 C 188.306 15.608 188.087 14.563 188.087 13.368 C 188.087 12.163 188.306 11.111 188.743 10.212 C 189.185 9.312 189.798 8.614 190.581 8.117 C 191.37 7.62 192.287 7.371 193.331 7.371 C 194.376 7.371 195.29 7.62 196.074 8.117 C 196.862 8.614 197.475 9.312 197.912 10.212 C 198.354 11.111 198.575 12.162 198.575 13.368 C 198.575 14.564 198.354 15.608 197.912 16.503 C 197.475 17.397 196.862 18.093 196.074 18.59 C 195.29 19.087 194.376 19.335 193.331 19.335 Z M 193.331 17.738 C 194.125 17.738 194.778 17.535 195.29 17.128 C 195.803 16.721 196.182 16.186 196.428 15.523 C 196.679 14.833 196.804 14.103 196.797 13.368 C 196.804 12.632 196.679 11.9 196.428 11.206 C 196.182 10.538 195.803 9.998 195.29 9.586 C 194.778 9.174 194.125 8.968 193.331 8.968 C 192.538 8.968 191.885 9.174 191.372 9.586 C 190.86 9.998 190.481 10.538 190.235 11.206 C 189.985 11.9 189.86 12.632 189.866 13.368 C 189.866 14.142 189.989 14.86 190.235 15.523 C 190.481 16.186 190.86 16.721 191.372 17.128 C 191.885 17.535 192.538 17.738 193.331 17.738 Z M 201.289 19.094 L 201.289 7.522 L 203.007 7.522 L 203.007 9.27 L 203.128 9.27 C 203.339 8.697 203.72 8.233 204.273 7.876 C 204.83 7.518 205.48 7.332 206.141 7.341 C 206.272 7.341 206.435 7.343 206.631 7.348 C 206.827 7.353 206.975 7.361 207.076 7.371 L 207.076 9.179 C 206.939 9.152 206.801 9.129 206.661 9.112 C 206.44 9.076 206.216 9.059 205.991 9.059 C 205.428 9.059 204.926 9.177 204.484 9.413 C 204.057 9.635 203.698 9.968 203.444 10.377 C 203.19 10.797 203.059 11.281 203.067 11.771 L 203.067 19.094 Z M 214.941 7.522 L 214.941 9.029 L 208.944 9.029 L 208.944 7.522 Z M 210.692 4.749 L 212.47 4.749 L 212.47 15.779 C 212.47 16.282 212.543 16.659 212.689 16.909 C 212.839 17.156 213.03 17.321 213.261 17.407 C 213.497 17.487 213.746 17.527 214.007 17.527 C 214.203 17.527 214.364 17.517 214.489 17.497 L 214.791 17.437 L 215.152 19.034 C 214.988 19.092 214.82 19.137 214.648 19.17 C 214.432 19.22 214.158 19.245 213.826 19.245 C 213.324 19.245 212.832 19.137 212.35 18.921 C 211.872 18.705 211.461 18.364 211.159 17.934 C 210.848 17.492 210.692 16.934 210.692 16.262 L 210.692 4.748 Z M 225.606 10.113 L 224.009 10.566 C 223.901 10.287 223.751 10.025 223.564 9.79 C 223.357 9.52 223.089 9.304 222.781 9.157 C 222.449 8.991 222.025 8.908 221.508 8.908 C 220.799 8.908 220.209 9.071 219.737 9.398 C 219.27 9.719 219.036 10.128 219.036 10.626 C 219.036 11.068 219.197 11.417 219.519 11.673 C 219.84 11.929 220.342 12.143 221.025 12.313 L 222.743 12.736 C 223.778 12.986 224.549 13.371 225.056 13.888 C 225.564 14.4 225.817 15.061 225.817 15.87 C 225.817 16.533 225.626 17.125 225.245 17.648 C 224.868 18.17 224.34 18.582 223.662 18.883 C 222.984 19.185 222.196 19.336 221.297 19.336 C 220.116 19.336 219.139 19.079 218.366 18.567 C 217.592 18.055 217.103 17.307 216.897 16.322 L 218.584 15.9 C 218.745 16.523 219.049 16.99 219.496 17.301 C 219.948 17.613 220.538 17.768 221.266 17.768 C 222.095 17.768 222.753 17.593 223.24 17.241 C 223.733 16.884 223.979 16.457 223.979 15.961 C 223.979 15.558 223.838 15.221 223.557 14.951 C 223.276 14.674 222.844 14.468 222.261 14.333 L 220.332 13.881 C 219.272 13.629 218.494 13.241 217.997 12.713 C 217.504 12.18 217.258 11.515 217.258 10.716 C 217.258 10.063 217.442 9.486 217.808 8.983 C 218.18 8.481 218.685 8.087 219.323 7.801 C 219.966 7.514 220.694 7.371 221.508 7.371 C 222.653 7.371 223.552 7.622 224.205 8.125 C 224.863 8.627 225.33 9.29 225.606 10.113 Z M 23.264 1.701 C 23.316 1.458 23.664 1.458 23.715 1.701 L 24.271 4.301 C 24.29 4.39 24.36 4.46 24.448 4.478 L 27.048 5.033 C 27.291 5.085 27.291 5.433 27.048 5.485 L 24.448 6.04 C 24.36 6.059 24.29 6.129 24.271 6.217 L 23.715 8.817 C 23.663 9.06 23.316 9.06 23.264 8.817 L 22.709 6.217 C 22.69 6.128 22.621 6.059 22.531 6.04 L 19.931 5.485 C 19.688 5.433 19.688 5.085 19.931 5.033 L 22.531 4.478 C 22.621 4.46 22.69 4.39 22.709 4.301 Z M 6.612 20.501 C 6.641 20.365 6.836 20.365 6.865 20.501 L 7.177 21.961 C 7.187 22.011 7.227 22.049 7.277 22.06 L 8.736 22.372 C 8.873 22.401 8.873 22.596 8.736 22.625 L 7.276 22.937 C 7.227 22.949 7.188 22.988 7.177 23.037 L 6.865 24.496 C 6.835 24.632 6.641 24.632 6.612 24.496 L 6.3 23.036 C 6.289 22.987 6.25 22.948 6.2 22.937 L 4.741 22.625 C 4.604 22.595 4.604 22.401 4.741 22.372 L 6.201 22.06 C 6.251 22.049 6.29 22.01 6.3 21.96 Z M 6.875 0.479 C 6.907 0.258 7.067 0.077 7.283 0.019 C 7.498 -0.039 7.728 0.038 7.865 0.213 L 11.095 4.339 C 11.248 4.534 11.512 4.605 11.741 4.512 L 16.602 2.554 C 16.81 2.471 17.047 2.519 17.205 2.677 C 17.363 2.835 17.411 3.072 17.327 3.279 L 15.368 8.139 C 15.276 8.37 15.347 8.633 15.542 8.785 L 19.668 12.015 C 20.054 12.317 19.888 12.935 19.403 13.005 L 14.214 13.739 C 13.969 13.774 13.776 13.967 13.741 14.212 L 13.006 19.4 C 12.975 19.621 12.815 19.802 12.599 19.86 C 12.383 19.918 12.154 19.841 12.016 19.665 L 8.786 15.539 C 8.634 15.345 8.37 15.274 8.14 15.366 L 3.28 17.324 C 3.073 17.408 2.837 17.36 2.679 17.202 C 2.521 17.044 2.472 16.808 2.555 16.6 L 4.513 11.74 C 4.606 11.51 4.536 11.247 4.34 11.093 L 0.213 7.863 C 0.038 7.726 -0.039 7.496 0.019 7.281 C 0.077 7.065 0.258 6.905 0.479 6.873 L 5.667 6.14 C 5.914 6.106 6.107 5.913 6.141 5.666 Z" fill="rgb(255,255,255)"></path><path d="M 25.348 23.514 C 25.686 23.839 25.823 24.321 25.705 24.775 C 25.586 25.229 25.232 25.584 24.778 25.702 C 24.324 25.82 23.841 25.684 23.517 25.345 L 15.038 16.869 L 15.268 15.255 L 16.862 15.029 Z M 7.879 7.879 C 8.385 7.374 9.205 7.374 9.711 7.879 L 15.121 13.288 L 13.941 13.456 C 13.695 13.491 13.502 13.683 13.467 13.928 L 13.297 15.128 L 7.879 9.71 C 7.374 9.205 7.374 8.386 7.879 7.88 Z" fill="rgb(255,255,255)"></path></g></svg>