<svg xmlns="http://www.w3.org/2000/svg" xmlns:xlink="http://www.w3.org/1999/xlink" style="width:100%;height:100%;" viewBox="0 0 621 689">
<path d="M225.706 380.57H201.018V406.218M225.706 380.57V406.218H250.394M225.706 380.57H250.394M201.018 406.218H225.705V431.866V457.514V483.162V508.81V534.458V560.107V585.755V611.403V637.051V662.699V688.347H250.394M201.018 406.218V431.866M250.394 380.57V406.218M250.394 380.57H275.082M250.394 406.218H275.082M250.394 406.218V431.866M201.018 431.866H225.706H250.394M201.018 431.866V457.514M275.082 380.57V406.218M275.082 380.57H299.77M275.082 406.218H299.77M275.082 406.218L275.081 431.866M250.394 431.866H275.081M250.394 431.866V457.514M299.77 380.57V406.218M299.77 380.57H324.459M299.77 406.218H324.459M299.77 406.218V431.866M275.081 431.866H299.77M275.081 431.866V457.514M324.459 380.57V406.218M324.459 380.57H349.145M324.459 406.218H349.145M324.459 406.218L324.457 431.866M299.77 431.866H324.457M299.77 431.866V457.514M349.145 380.57V406.218M349.145 380.57H373.833M349.145 406.218H373.833M349.145 406.218V431.866M324.457 431.866H349.145M324.457 431.866V457.514M373.833 380.57V406.218M373.833 380.57H398.521M373.833 406.218H398.521M373.833 406.218V431.866M349.145 431.866H373.833M349.145 431.866V457.514M398.521 380.57V406.218M398.521 380.57H423.209M398.521 406.218H423.209M398.521 406.218V431.866M373.833 431.866H398.521M373.833 431.866V457.514M423.209 380.57V406.218M423.209 380.57H447.897M423.209 406.218H447.897M423.209 406.218V431.866M398.521 431.866H423.209M398.521 431.866V457.514M447.897 380.57V406.218M447.897 380.57H472.586M447.897 406.218H472.586M447.897 406.218V431.866M423.209 431.866H447.897M423.209 431.866V457.514M472.586 380.57V406.218M472.586 380.57H497.273M472.586 406.218H497.273M472.586 406.218V431.866M447.897 431.866H472.586M447.897 431.866V457.514M497.273 380.57V406.218M497.273 380.57H521.96M497.273 406.218H521.96M497.273 406.218V431.866M472.586 431.866H497.273M472.586 431.866V457.514M521.96 380.57V406.218M521.96 380.57H546.649M521.96 406.218H546.649M521.96 406.218V431.866M497.273 431.866H521.96M497.273 431.866V457.514M546.649 380.57V406.218M546.649 380.57H571.336M546.649 406.218H571.336M546.649 406.218V431.866M521.96 431.866H546.649M521.96 431.866V457.514M571.336 380.57V406.218M571.336 380.57H596.025M571.336 406.218H596.025M571.336 406.218V431.866M546.649 431.866H571.336M546.649 431.866V457.514M596.025 380.57V406.218M596.025 380.57H620.713V406.218M596.025 406.218H620.713M596.025 406.218V431.866M571.336 431.866H596.025M571.336 431.866V457.514M620.713 406.218V431.866M596.025 431.866H620.713M596.025 431.866V457.514M620.713 431.866V457.514M201.018 457.514H225.706H250.394M201.018 457.514V483.162M250.394 457.514H275.081M250.394 457.514V483.162M275.081 457.514H299.77M275.081 457.514V483.162M299.77 457.514H324.457M299.77 457.514V483.162M324.457 457.514H349.145M324.457 457.514V483.162M349.145 457.514H373.833M349.145 457.514V483.162M373.833 457.514H398.521M373.833 457.514V483.162M398.521 457.514H423.209M398.521 457.514V483.162M423.209 457.514H447.897M423.209 457.514V483.162M447.897 457.514H472.586M447.897 457.514V483.162M472.586 457.514H497.273M472.586 457.514V483.162M497.273 457.514H521.96M497.273 457.514V483.162M521.96 457.514H546.649M521.96 457.514V483.162M546.649 457.514H571.336M546.649 457.514V483.162M571.336 457.514H596.025M571.336 457.514V483.162M596.025 457.514H620.713M596.025 457.514V483.162M620.713 457.514V483.162M201.018 483.162H225.706H250.394M201.018 483.162V508.81M250.394 483.162H275.081M250.394 483.162V508.81M275.081 483.162H299.77M275.081 483.162V508.81M299.77 483.162H324.457M299.77 483.162V508.81M324.457 483.162H349.145M324.457 483.162V508.81M349.145 483.162H373.833M349.145 483.162V508.81M373.833 483.162H398.521M373.833 483.162V508.81M398.521 483.162H423.209M398.521 483.162V508.81M423.209 483.162H447.897M423.209 483.162V508.81M447.897 483.162H472.586M447.897 483.162V508.81M472.586 483.162H497.273M472.586 483.162V508.81M497.273 483.162H521.96M497.273 483.162V508.81M521.96 483.162H546.649M521.96 483.162V508.81M546.649 483.162H571.336M546.649 483.162V508.81M571.336 483.162H596.025M571.336 483.162V508.81M596.025 483.162H620.713M596.025 483.162V508.81M620.713 483.162V508.81M201.018 508.81H225.706H250.394M201.018 508.81V534.458M250.394 508.81H275.081M250.394 508.81V534.458M275.081 508.81H299.77M275.081 508.81V534.458M299.77 508.81H324.457M299.77 508.81V534.458M324.457 508.81H349.145M324.457 508.81V534.458M349.145 508.81H373.833M349.145 508.81V534.458M373.833 508.81H398.521M373.833 508.81V534.458M398.521 508.81H423.209M398.521 508.81V534.458M423.209 508.81H447.897M423.209 508.81V534.458M447.897 508.81H472.586M447.897 508.81V534.458M472.586 508.81H497.273M472.586 508.81V534.458M497.273 508.81H521.96M497.273 508.81V534.458M521.96 508.81H546.649M521.96 508.81V534.458M546.649 508.81H571.336M546.649 508.81V534.458M571.336 508.81H596.025M571.336 508.81V534.458M596.025 508.81H620.713M596.025 508.81V534.458M620.713 508.81V534.458M201.018 534.458H225.706H250.394M201.018 534.458V560.107M250.394 534.458H275.081M250.394 534.458V560.107M275.081 534.458H299.77M275.081 534.458V560.107M299.77 534.458H324.457M299.77 534.458V560.107M324.457 534.458H349.145M324.457 534.458V560.107M349.145 534.458H373.833M349.145 534.458V560.107M373.833 534.458H398.521M373.833 534.458V560.107M398.521 534.458H423.209M398.521 534.458V560.107M423.209 534.458H447.897M423.209 534.458V560.107M447.897 534.458H472.586M447.897 534.458V560.107M472.586 534.458H497.273M472.586 534.458V560.107M497.273 534.458H521.96M497.273 534.458V560.107M521.96 534.458H546.649M521.96 534.458V560.107M546.649 534.458H571.336M546.649 534.458V560.107M571.336 534.458H596.025M571.336 534.458V560.107M596.025 534.458H620.713M596.025 534.458V560.107M620.713 534.458V560.107M201.018 560.107H225.706H250.394M201.018 560.107V585.755M250.394 560.107H275.081M250.394 560.107V585.755M275.081 560.107H299.77M275.081 560.107V585.755M299.77 560.107H324.457M299.77 560.107V585.755M324.457 560.107H349.145M324.457 560.107V585.755M349.145 560.107H373.833M349.145 560.107V585.755M373.833 560.107H398.521M373.833 560.107V585.755M398.521 560.107H423.209M398.521 560.107V585.755M423.209 560.107H447.897M423.209 560.107V585.755M447.897 560.107H472.586M447.897 560.107V585.755M472.586 560.107H497.273M472.586 560.107V585.755M497.273 560.107H521.96M497.273 560.107V585.755M521.96 560.107H546.649M521.96 560.107V585.755M546.649 560.107H571.336M546.649 560.107V585.755M571.336 560.107H596.025M571.336 560.107V585.755M596.025 560.107H620.713M596.025 560.107V585.755M620.713 560.107V585.755M201.018 585.755H225.706H250.394M201.018 585.755V611.403M250.394 585.755H275.081M250.394 585.755V611.403M275.081 585.755H299.77M275.081 585.755V611.403M299.77 585.755H324.457M299.77 585.755V611.403M324.457 585.755H349.145M324.457 585.755V611.403M349.145 585.755H373.833M349.145 585.755V611.403M373.833 585.755H398.521M373.833 585.755V611.403M398.521 585.755H423.209M398.521 585.755V611.403M423.209 585.755H447.897M423.209 585.755V611.403M447.897 585.755H472.586M447.897 585.755V611.403M472.586 585.755H497.273M472.586 585.755V611.403M497.273 585.755H521.96M497.273 585.755V611.403M521.96 585.755H546.649M521.96 585.755V611.403M546.649 585.755H571.336M546.649 585.755V611.403M571.336 585.755H596.025M571.336 585.755V611.403M596.025 585.755H620.713M596.025 585.755V611.403M620.713 585.755V611.403M201.018 611.403H225.706H250.394M201.018 611.403V637.051M250.394 611.403H275.081M250.394 611.403V637.051M275.081 611.403H299.77M275.081 611.403V637.051M299.77 611.403H324.457M299.77 611.403V637.051M324.457 611.403H349.145M324.457 611.403V637.051M349.145 611.403H373.833M349.145 611.403V637.051M373.833 611.403H398.521M373.833 611.403V637.051M398.521 611.403H423.209M398.521 611.403V637.051M423.209 611.403H447.897M423.209 611.403V637.051M447.897 611.403H472.586M447.897 611.403V637.051M472.586 611.403H497.273M472.586 611.403V637.051M497.273 611.403H521.96M497.273 611.403V637.051M521.96 611.403H546.649M521.96 611.403V637.051M546.649 611.403H571.336M546.649 611.403V637.051M571.336 611.403H596.025M571.336 611.403V637.051M596.025 611.403H620.713M596.025 611.403V637.051M620.713 611.403V637.051M201.018 637.051H225.706H250.394M201.018 637.051V662.699M250.394 637.051H275.081M250.394 637.051V662.699M275.081 637.051H299.77M275.081 637.051V662.699M299.77 637.051H324.457M299.77 637.051V662.699M324.457 637.051H349.145M324.457 637.051V662.699M349.145 637.051H373.833M349.145 637.051V662.699M373.833 637.051H398.521M373.833 637.051V662.699M398.521 637.051H423.209M398.521 637.051V662.699M423.209 637.051H447.897M423.209 637.051V662.699M447.897 637.051H472.586M447.897 637.051V662.699M472.586 637.051H497.273M472.586 637.051V662.699M497.273 637.051H521.96M497.273 637.051V662.699M521.96 637.051H546.649M521.96 637.051V662.699M546.649 637.051H571.336M546.649 637.051V662.699M571.336 637.051H596.025M571.336 637.051V662.699M596.025 637.051H620.713M596.025 637.051V662.699M620.713 637.051V662.699M201.018 662.699H225.706H250.394M201.018 662.699V688.347H225.706M250.394 662.699H275.081M250.394 662.699V688.347M275.081 662.699H299.77M275.081 662.699V688.347M299.77 662.699H324.457M299.77 662.699V688.347M324.457 662.699H349.145M324.457 662.699V688.347M349.145 662.699H373.833M349.145 662.699V688.347M373.833 662.699H398.521M373.833 662.699V688.347M398.521 662.699H423.209M398.521 662.699V688.347M423.209 662.699H447.897M423.209 662.699V688.347M447.897 662.699H472.586M447.897 662.699V688.347M472.586 662.699H497.273M472.586 662.699V688.347M497.273 662.699H521.96M497.273 662.699V688.347M521.96 662.699H546.649M521.96 662.699V688.347M546.649 662.699H571.336M546.649 662.699V688.347M571.336 662.699H596.025M571.336 662.699V688.347M596.025 662.699H620.713M596.025 662.699V688.347M620.713 662.699V688.347H596.025M250.394 688.347H275.081M275.081 688.347H299.77M299.77 688.347H324.457M324.457 688.347H349.145M349.145 688.347H373.833M373.833 688.347H398.521M398.521 688.347H423.209M423.209 688.347H447.897M447.897 688.347H472.586M472.586 688.347H497.273M497.273 688.347H521.96M521.96 688.347H546.649M546.649 688.347H571.336M571.336 688.347H596.025" stroke="url(#svg-616580651_11202_paint0_radial_1124_311)" stroke-opacity="0.1" stroke-width="1.33237"/>
<g filter="url(#svg-616580651_11202_filter0_f_1124_311)">
<path d="M440.858 666.059L0 76.5111L128.356 0L465.432 649.958L440.858 666.059Z" fill="url(#svg-616580651_11202_paint1_linear_1124_311)" fill-opacity="0.5"/>
</g>
<defs>
<filter id="svg-616580651_11202_filter0_f_1124_311" x="-110.093" y="-110.093" width="685.619" height="886.245" filterUnits="userSpaceOnUse" color-interpolation-filters="sRGB">
<feFlood flood-opacity="0" result="BackgroundImageFix"/>
<feBlend mode="normal" in="SourceGraphic" in2="BackgroundImageFix" result="shape"/>
<feGaussianBlur stdDeviation="55.0467" result="effect1_foregroundBlur_1124_311"/>
</filter>
<radialGradient id="svg-616580651_11202_paint0_radial_1124_311" cx="0" cy="0" r="1" gradientUnits="userSpaceOnUse" gradientTransform="translate(201.018 285.972) rotate(62.438) scale(453.516 655.686)">
<stop stop-color="#10B981"/>
<stop offset="0.884" stop-color="#10B981" stop-opacity="0"/>
</radialGradient>
<linearGradient id="svg-616580651_11202_paint1_linear_1124_311" x1="187.742" y1="391.466" x2="316.097" y2="314.955" gradientUnits="userSpaceOnUse">
<stop stop-color="#00AC79"/>
<stop offset="1" stop-color="#00AC79"/>
</linearGradient>
</defs>
</svg>