<svg xmlns="http://www.w3.org/2000/svg" xmlns:xlink="http://www.w3.org/1999/xlink" style="width:100%;height:100%;" viewBox="0 0 95 47">
<g clip-path="url(#svg557484895_2023_clip0_21_3162)">
<g clip-path="url(#svg557484895_2023_clip1_21_3162)">
<path fill-rule="evenodd" clip-rule="evenodd" d="M14.3535 43.8602C10.2572 42.7105 5.96939 42.1302 1.80808 41.6005C0.91327 41.4885 0.0799243 42.1103 0.0166551 42.9852C-0.0401941 43.4006 0.0691935 43.8215 0.321039 44.1567C0.572884 44.4918 0.946827 44.7139 1.36158 44.7748C5.39273 45.2864 9.55404 45.8323 13.4568 46.9387C13.8661 47.0498 14.3027 46.9968 14.6734 46.7908C15.0442 46.5848 15.3199 46.2422 15.4417 45.836C15.5003 45.6348 15.5186 45.424 15.4956 45.2157C15.4726 45.0074 15.4088 44.8057 15.3077 44.6222C15.2066 44.4386 15.0702 44.2768 14.9065 44.1461C14.7428 44.0153 14.5548 43.9182 14.3535 43.8602ZM26.7705 27.5638C20.1778 20.8356 12.7537 14.975 6.28935 8.06604C6.14809 7.91241 5.97771 7.78838 5.78809 7.70119C5.59848 7.614 5.39342 7.56537 5.18484 7.55813C4.97627 7.5509 4.76833 7.58521 4.57313 7.65906C4.37794 7.73291 4.19937 7.84483 4.04781 7.98831C3.89165 8.1307 3.76579 8.3031 3.67774 8.49522C3.5897 8.68734 3.54127 8.89524 3.53537 9.10649C3.52946 9.31774 3.56619 9.52801 3.64337 9.72475C3.72054 9.92148 3.83658 10.1006 3.98454 10.2515C10.4488 17.1786 17.873 23.059 24.4657 29.8053C24.7713 30.1087 25.1834 30.2806 25.6141 30.2843C26.0447 30.288 26.4597 30.1233 26.7705 29.8252C27.3453 29.207 27.4104 28.1929 26.7705 27.5638ZM39.1243 1.6867L39.6991 13.2378C39.6991 14.1218 40.4674 14.8015 41.3622 14.7599C42.2606 14.7165 42.8987 13.9645 42.8987 13.0824L42.3239 1.51316C42.291 1.08503 42.0916 0.686847 41.7686 0.403998C41.4455 0.121148 41.0245 -0.0238431 40.5957 0.000118559C40.1783 0.0311846 39.7898 0.225378 39.5144 0.540679C39.239 0.85598 39.0989 1.26703 39.1243 1.68489V1.6867Z" fill="#C156E6"/>
</g>
</g>
<defs>
<clipPath id="svg557484895_2023_clip0_21_3162">
<rect width="43.3846" height="47" fill="white"/>
</clipPath>
<clipPath id="svg557484895_2023_clip1_21_3162">
<rect width="45.1923" height="47" fill="white" transform="translate(-0.903809)"/>
</clipPath>
</defs>
</svg>