<svg xmlns="http://www.w3.org/2000/svg" xmlns:xlink="http://www.w3.org/1999/xlink" style="width:100%;height:100%;" viewBox="0 0 27 27">
<path d="M12.598 2.14113C12.9002 1.37486 13.9846 1.37486 14.2869 2.14113L17.0998 9.27356C17.1921 9.50751 17.3773 9.6927 17.6112 9.78496L24.7437 12.598C25.5099 12.9002 25.51 13.9846 24.7437 14.2869L17.6112 17.0998C17.3773 17.1921 17.1921 17.3773 17.0998 17.6112L14.2869 24.7437C13.9846 25.5099 12.9002 25.51 12.598 24.7437L9.78496 17.6112C9.6927 17.3773 9.50751 17.1921 9.27356 17.0998L2.14113 14.2869C1.37486 13.9846 1.37486 12.9002 2.14113 12.598L9.27356 9.78496C9.50751 9.6927 9.6927 9.50751 9.78496 9.27356L12.598 2.14113Z" fill="#6F2888"/>
</svg>