<svg xmlns="http://www.w3.org/2000/svg" xmlns:xlink="http://www.w3.org/1999/xlink" style="width:100%;height:100%;" viewBox="0 0 50 50">
<g filter="url(#svg508868244_5781_filter0_d_21_3096)">
<g clip-path="url(#svg508868244_5781_clip0_21_3096)">
<path d="M0.0500488 24.8095C0.0500488 11.1544 11.1197 0.0847168 24.7748 0.0847168V0.0847168C38.4299 0.0847168 49.4996 11.1544 49.4996 24.8095V24.8095C49.4996 38.4646 38.4299 49.5343 24.7748 49.5343V49.5343C11.1197 49.5343 0.0500488 38.4646 0.0500488 24.8095V24.8095Z" fill="url(#svg508868244_5781_paint0_linear_21_3096)" shape-rendering="crispEdges"/>
<path d="M24.7747 0.64624C38.1194 0.64624 48.9377 11.4646 48.9377 24.8093C48.9377 38.1541 38.1194 48.9724 24.7747 48.9724C11.43 48.9723 0.611572 38.154 0.611572 24.8093C0.61166 11.4647 11.43 0.646328 24.7747 0.64624Z" stroke="white" stroke-opacity="0.07" stroke-width="1.12385"/>
<g clip-path="url(#svg508868244_5781_clip1_21_3096)">
<mask id="svg508868244_5781_mask0_21_3096" style="mask-type:alpha" maskUnits="userSpaceOnUse" x="0" y="0" width="50" height="50">
<path d="M38.2611 0.0847168H11.2886C5.08171 0.0847168 0.0500488 5.11638 0.0500488 11.3232V38.2957C0.0500488 44.5026 5.08171 49.5343 11.2886 49.5343H38.2611C44.4679 49.5343 49.4996 44.5026 49.4996 38.2957V11.3232C49.4996 5.11638 44.4679 0.0847168 38.2611 0.0847168Z" fill="#D9D9D9"/>
</mask>
<g mask="url(#svg508868244_5781_mask0_21_3096)">
<g filter="url(#svg508868244_5781_filter1_i_21_3096)">
<path d="M0.0500488 0.0847168H49.4996V49.5343H0.0500488V0.0847168Z" fill="url(#svg508868244_5781_paint1_linear_21_3096)"/>
<g filter="url(#svg508868244_5781_filter2_d_21_3096)">
<path d="M34.0247 23.7738C33.9928 23.6387 33.928 23.5136 33.8361 23.4096C33.7442 23.3056 33.628 23.2258 33.4979 23.1775L27.428 20.9006L28.9726 13.1745C29.0076 12.995 28.9833 12.809 28.9032 12.6445C28.8232 12.4801 28.6919 12.3461 28.529 12.2628C28.3662 12.1796 28.1807 12.1515 28.0005 12.1829C27.8204 12.2143 27.6553 12.3035 27.5302 12.437L15.7298 25.0803C15.6339 25.1813 15.5646 25.3045 15.528 25.4388C15.4914 25.5731 15.4886 25.7144 15.5199 25.8501C15.5512 25.9857 15.6156 26.1115 15.7074 26.2162C15.7992 26.3209 15.9155 26.4012 16.0459 26.45L22.1178 28.7269L20.5775 36.4446C20.5425 36.6241 20.5668 36.8101 20.6469 36.9746C20.7269 37.139 20.8582 37.273 21.0211 37.3562C21.1839 37.4395 21.3694 37.4675 21.5496 37.4361C21.7297 37.4047 21.8948 37.3156 22.0199 37.1821L33.8203 24.5388C33.9144 24.4377 33.9823 24.3152 34.0179 24.1818C34.0536 24.0484 34.0559 23.9083 34.0247 23.7738ZM22.8122 33.8706L23.9153 28.3518C23.9548 28.1561 23.9235 27.9527 23.827 27.7778C23.7305 27.603 23.5751 27.4681 23.3885 27.3972L17.8212 25.3058L26.7369 15.7537L25.6348 21.2726C25.5953 21.4683 25.6266 21.6717 25.7231 21.8465C25.8196 22.0213 25.975 22.1562 26.1616 22.2271L31.7247 24.3133L22.8122 33.8706Z" fill="white"/>
</g>
</g>
</g>
</g>
</g>
</g>
<defs>
<filter id="svg508868244_5781_filter0_d_21_3096" x="-24.6747" y="-22.3923" width="103.394" height="103.394" filterUnits="userSpaceOnUse" color-interpolation-filters="sRGB">
<feFlood flood-opacity="0" result="BackgroundImageFix"/>
<feColorMatrix in="SourceAlpha" type="matrix" values="0 0 0 0 0 0 0 0 0 0 0 0 0 0 0 0 0 0 127 0" result="hardAlpha"/>
<feOffset dx="2.24771" dy="4.49541"/>
<feGaussianBlur stdDeviation="13.4862"/>
<feComposite in2="hardAlpha" operator="out"/>
<feColorMatrix type="matrix" values="0 0 0 0 0 0 0 0 0 0.333333 0 0 0 0 1 0 0 0 0.35 0"/>
<feBlend mode="normal" in2="BackgroundImageFix" result="effect1_dropShadow_21_3096"/>
<feBlend mode="normal" in="SourceGraphic" in2="effect1_dropShadow_21_3096" result="shape"/>
</filter>
<filter id="svg508868244_5781_filter1_i_21_3096" x="0.0500488" y="0.0847168" width="49.4495" height="53.9449" filterUnits="userSpaceOnUse" color-interpolation-filters="sRGB">
<feFlood flood-opacity="0" result="BackgroundImageFix"/>
<feBlend mode="normal" in="SourceGraphic" in2="BackgroundImageFix" result="shape"/>
<feColorMatrix in="SourceAlpha" type="matrix" values="0 0 0 0 0 0 0 0 0 0 0 0 0 0 0 0 0 0 127 0" result="hardAlpha"/>
<feOffset dy="4.49541"/>
<feGaussianBlur stdDeviation="2.24771"/>
<feComposite in2="hardAlpha" operator="arithmetic" k2="-1" k3="1"/>
<feColorMatrix type="matrix" values="0 0 0 0 1 0 0 0 0 1 0 0 0 0 1 0 0 0 0.15 0"/>
<feBlend mode="normal" in2="shape" result="effect1_innerShadow_21_3096"/>
</filter>
<filter id="svg508868244_5781_filter2_d_21_3096" x="7.91701" y="11.3232" width="33.7155" height="33.7155" filterUnits="userSpaceOnUse" color-interpolation-filters="sRGB">
<feFlood flood-opacity="0" result="BackgroundImageFix"/>
<feColorMatrix in="SourceAlpha" type="matrix" values="0 0 0 0 0 0 0 0 0 0 0 0 0 0 0 0 0 0 127 0" result="hardAlpha"/>
<feOffset dy="3.37156"/>
<feGaussianBlur stdDeviation="1.68578"/>
<feComposite in2="hardAlpha" operator="out"/>
<feColorMatrix type="matrix" values="0 0 0 0 0 0 0 0 0 0 0 0 0 0 0 0 0 0 0.25 0"/>
<feBlend mode="normal" in2="BackgroundImageFix" result="effect1_dropShadow_21_3096"/>
<feBlend mode="normal" in="SourceGraphic" in2="effect1_dropShadow_21_3096" result="shape"/>
</filter>
<linearGradient id="svg508868244_5781_paint0_linear_21_3096" x1="0.0500494" y1="49.5343" x2="0.113852" y2="0.0210792" gradientUnits="userSpaceOnUse">
<stop stop-color="#0055FF" stop-opacity="0.09"/>
<stop offset="1" stop-color="#999999" stop-opacity="0.09"/>
</linearGradient>
<linearGradient id="svg508868244_5781_paint1_linear_21_3096" x1="24.7748" y1="0.0847168" x2="24.7748" y2="49.5343" gradientUnits="userSpaceOnUse">
<stop stop-color="#C156E6"/>
<stop offset="1" stop-color="#6B3080"/>
</linearGradient>
<clipPath id="svg508868244_5781_clip0_21_3096">
<path d="M0.0500488 24.8095C0.0500488 11.1544 11.1197 0.0847168 24.7748 0.0847168V0.0847168C38.4299 0.0847168 49.4996 11.1544 49.4996 24.8095V24.8095C49.4996 38.4646 38.4299 49.5343 24.7748 49.5343V49.5343C11.1197 49.5343 0.0500488 38.4646 0.0500488 24.8095V24.8095Z" fill="white"/>
</clipPath>
<clipPath id="svg508868244_5781_clip1_21_3096">
<rect width="49.4495" height="49.4495" fill="white" transform="translate(0.0500488 0.0847168)"/>
</clipPath>
</defs>
</svg>