<svg xmlns="http://www.w3.org/2000/svg" xmlns:xlink="http://www.w3.org/1999/xlink" viewBox="0 0 44 44"><g><path d="M 22 0 C 34.15 0 44 9.85 44 22 C 44 34.15 34.15 44 22 44 C 9.85 44 0 34.15 0 22 C 0 9.85 9.85 0 22 0 Z" fill="transparent"></path><g><defs><linearGradient id="idss9469302257_3g-1262359655" x1="0.49683989739521256" x2="0.5031601026047874" y1="1" y2="5.551115123125783e-17"><stop offset="0" stop-color="rgba(112,33,139,0.09)" stop-opacity="0.09"></stop><stop offset="1" stop-color="rgba(153,153,153,0.09)" stop-opacity="0.09"></stop></linearGradient></defs><path d="M 0 22 C 0 9.85 9.85 0 22 0 L 22 0 C 34.15 0 44 9.85 44 22 L 44 22 C 44 34.15 34.15 44 22 44 L 22 44 C 9.85 44 0 34.15 0 22 Z" fill="url(#idss9469302257_3g-1262359655)"></path></g><path d="M 22 0.5 C 33.874 0.5 43.5 10.126 43.5 22 C 43.5 33.874 33.874 43.5 22 43.5 C 10.126 43.5 0.5 33.874 0.5 22 C 0.5 10.126 10.126 0.5 22 0.5 Z" fill="transparent" stroke="rgba(255,255,255,0.07)" stroke-miterlimit="10" stroke-dasharray=""></path><g><path d="M 0 44 L 0 0 L 44 0 L 44 44 Z" fill="transparent"></path><g><g><g><defs><linearGradient id="idss9469302257_9g-1481478140" x1="0.49751243781094523" x2="0.5024875621890548" y1="0" y2="1"><stop offset="0" stop-color="rgb(9, 64, 110)" stop-opacity="1"></stop><stop offset="1" stop-color="rgb(6, 31, 84)" stop-opacity="1"></stop></linearGradient></defs><path d="M 0 0 L 44 0 L 44 44 L 0 44 Z" fill="url(#idss9469302257_9g-1481478140)"></path></g><g transform="translate(13 13)"></g></g></g></g></g><path d="M 17.142 22 L 19.418 19.723 C 19.536 19.61 19.606 19.456 19.613 19.293 C 19.622 19.128 19.556 18.977 19.418 18.84 C 19.281 18.701 19.132 18.632 18.972 18.632 C 18.813 18.632 18.664 18.701 18.527 18.839 L 16.072 21.293 C 15.963 21.402 15.887 21.513 15.843 21.627 C 15.798 21.746 15.775 21.873 15.776 22 C 15.776 22.134 15.798 22.258 15.843 22.373 C 15.886 22.486 15.963 22.598 16.072 22.707 L 18.55 25.185 C 18.664 25.303 18.82 25.373 18.984 25.38 C 19.152 25.388 19.304 25.322 19.442 25.185 C 19.58 25.047 19.649 24.899 19.649 24.743 C 19.649 24.586 19.58 24.438 19.442 24.3 Z M 26.858 22 L 24.557 24.301 C 24.44 24.414 24.37 24.568 24.363 24.73 C 24.355 24.896 24.419 25.047 24.557 25.185 C 24.695 25.322 24.844 25.391 25.003 25.391 C 25.163 25.391 25.311 25.322 25.448 25.185 L 27.927 22.707 C 28.036 22.598 28.113 22.486 28.157 22.373 C 28.201 22.258 28.223 22.134 28.223 22 C 28.223 21.865 28.201 21.741 28.157 21.627 C 28.105 21.501 28.026 21.387 27.927 21.293 L 25.449 18.815 C 25.335 18.698 25.179 18.632 25.015 18.632 C 24.933 18.633 24.852 18.649 24.775 18.678 C 24.693 18.706 24.619 18.753 24.557 18.814 C 24.419 18.952 24.351 19.1 24.351 19.257 C 24.351 19.414 24.419 19.561 24.557 19.699 L 26.858 22 Z M 14.019 32 C 13.444 32 12.963 31.807 12.578 31.421 C 12.193 31.036 12 30.556 12 29.98 L 12 14.019 C 12 13.445 12.193 12.963 12.578 12.578 C 12.964 12.193 13.445 12 14.019 12 L 29.98 12 C 30.556 12 31.036 12.193 31.421 12.578 C 31.808 12.964 32 13.444 32 14.019 L 32 29.98 C 32 30.556 31.807 31.036 31.421 31.421 C 31.036 31.808 30.556 32 29.98 32 Z M 14.019 30.749 L 29.98 30.749 C 30.173 30.749 30.35 30.67 30.509 30.509 C 30.67 30.35 30.749 30.173 30.749 29.98 L 30.749 14.019 C 30.749 13.826 30.67 13.65 30.509 13.49 C 30.35 13.33 30.173 13.25 29.98 13.25 L 14.019 13.25 C 13.826 13.25 13.65 13.33 13.49 13.49 C 13.33 13.65 13.25 13.826 13.25 14.019 L 13.25 29.98 C 13.25 30.173 13.33 30.35 13.49 30.509 C 13.65 30.67 13.826 30.749 14.019 30.749 Z" fill="rgb(255,255,255)"></path></svg>