<svg xmlns="http://www.w3.org/2000/svg" xmlns:xlink="http://www.w3.org/1999/xlink" style="width:100%;height:100%;" viewBox="0 0 8 7">
<path d="M3.66536 0.768031C3.73736 0.585476 3.99572 0.585476 4.06772 0.768031L4.73788 2.46724C4.75986 2.52298 4.80398 2.56709 4.85971 2.58908L6.55892 3.25923C6.74148 3.33123 6.74148 3.58959 6.55892 3.66159L4.85971 4.33175C4.80398 4.35373 4.75986 4.39785 4.73788 4.45359L4.06772 6.15279C3.99572 6.33535 3.73736 6.33535 3.66536 6.15279L2.9952 4.45359C2.97322 4.39785 2.9291 4.35373 2.87337 4.33175L1.17416 3.66159C0.991604 3.58959 0.991604 3.33123 1.17416 3.25923L2.87337 2.58908C2.9291 2.56709 2.97322 2.52298 2.9952 2.46724L3.66536 0.768031Z" fill="#6F2888"/>
</svg>