<svg xmlns="http://www.w3.org/2000/svg" xmlns:xlink="http://www.w3.org/1999/xlink" style="width:100%;height:100%;" viewBox="0 0 22 21">
<path d="M10.4246 2.08532C10.6537 1.50446 11.4757 1.50446 11.7048 2.08531L13.8371 7.49189C13.9071 7.66923 14.0475 7.8096 14.2248 7.87955L19.6314 10.0119C20.2122 10.241 20.2122 11.063 19.6314 11.2921L14.2248 13.4244C14.0475 13.4944 13.9071 13.6347 13.8371 13.8121L11.7048 19.2187C11.4757 19.7995 10.6537 19.7995 10.4246 19.2187L8.29227 13.8121C8.22232 13.6347 8.08195 13.4944 7.90461 13.4244L2.49803 11.2921C1.91718 11.063 1.91718 10.241 2.49803 10.0119L7.90461 7.87955C8.08195 7.8096 8.22232 7.66923 8.29227 7.49189L10.4246 2.08532Z" fill="#6F2888"/>
</svg>