<svg xmlns="http://www.w3.org/2000/svg" xmlns:xlink="http://www.w3.org/1999/xlink" style="width:100%;height:100%;" viewBox="0 0 24 19">
<path fill-rule="evenodd" clip-rule="evenodd" d="M22.9567 12.3775C23.0058 11.9547 23.031 11.5246 23.031 11.0886C23.031 4.98336 18.0817 0.0340576 11.9764 0.0340576C11.9617 0.0340576 11.947 0.0340864 11.9323 0.0341441V0.0372609L22.9567 12.3775ZM21.7791 16.2035L11.9308 5.17988L2.14033 16.1389C2.63141 17.0935 3.25735 17.9672 3.99298 18.7351L11.9294 9.85138V9.84821L11.9308 9.84979L11.9323 9.84821V9.85138L19.9126 18.7842C20.652 18.0218 21.2825 17.1532 21.7791 16.2035ZM0.986053 12.2868C0.943636 11.8932 0.921875 11.4935 0.921875 11.0886C0.921875 4.99904 5.84578 0.0594907 11.9294 0.0341555V0.0372609L0.986053 12.2868ZM11.9295 0.0341552L11.9308 0.0356725L11.9322 0.0341443C11.9313 0.0341478 11.9304 0.0341515 11.9295 0.0341552Z" fill="white"/>
</svg>