<svg xmlns="http://www.w3.org/2000/svg" xmlns:xlink="http://www.w3.org/1999/xlink" style="width:100%;height:100%;" viewBox="0 0 26 21">
<path fill-rule="evenodd" clip-rule="evenodd" d="M0.961629 13.6938L13.0261 0.189454V0.18592C6.31927 0.212584 0.890625 5.65769 0.890625 12.3707C0.890625 12.8178 0.914701 13.2592 0.961629 13.6938ZM2.23456 17.9392C2.776 18.9912 3.46606 19.9541 4.27701 20.8004L13.0261 11.0071V11.0034L13.0277 11.0052L13.0293 11.0034V11.0071L21.8244 20.8519C22.6393 20.0114 23.3342 19.0539 23.8814 18.0069L13.0277 5.85782L2.23456 17.9392ZM25.1788 13.789C25.2327 13.3237 25.2604 12.8505 25.2604 12.3707C25.2604 5.64119 19.8051 0.185822 13.0755 0.185822C13.0601 0.185822 13.0447 0.18585 13.0293 0.185907V0.189454L25.1788 13.789ZM13.0292 0.185908C13.0282 0.185911 13.0272 0.185915 13.0262 0.185919L13.0277 0.187614L13.0292 0.185908Z" fill="white"/>
</svg>