<svg xmlns="http://www.w3.org/2000/svg" xmlns:xlink="http://www.w3.org/1999/xlink" style="width:100%;height:100%;" viewBox="0 0 1591 237">
<g clip-path="url(#svg-1881940359_2640_clip0_8_16)">
<g clip-path="url(#svg-1881940359_2640_clip1_8_16)">
<g clip-path="url(#svg-1881940359_2640_clip2_8_16)">
<path d="M0 0H368.268C379.681 0 390.549 4.87456 398.139 13.3969L567 203H0V0Z" fill="url(#svg-1881940359_2640_paint0_linear_8_16)"/>
<path d="M0.5 0.5H368.268C379.538 0.5 390.271 5.31363 397.766 13.7294L565.885 202.5H0.5V0.5Z" stroke="url(#svg-1881940359_2640_paint1_linear_8_16)" stroke-opacity="0.1"/>
<path d="M567 202H0V237H567V202Z" fill="#0D0817"/>
</g>
</g>
</g>
<g clip-path="url(#svg-1881940359_2640_clip3_8_16)">
<g clip-path="url(#svg-1881940359_2640_clip4_8_16)">
<g clip-path="url(#svg-1881940359_2640_clip5_8_16)">
<path d="M1591 0H1222.73C1211.32 0 1200.45 4.87456 1192.86 13.3969L1024 203H1591V0Z" fill="url(#svg-1881940359_2640_paint2_linear_8_16)"/>
<path d="M1590.5 0.5H1222.73C1211.46 0.5 1200.73 5.31363 1193.23 13.7294L1025.12 202.5H1590.5V0.5Z" stroke="url(#svg-1881940359_2640_paint3_linear_8_16)" stroke-opacity="0.1"/>
<path d="M1591 202H1024V237H1591V202Z" fill="#0D0817"/>
</g>
</g>
</g>
<defs>
<linearGradient id="svg-1881940359_2640_paint0_linear_8_16" x1="330.5" y1="-9.30348e-06" x2="297" y2="139" gradientUnits="userSpaceOnUse">
<stop stop-color="#692083" stop-opacity="0.75"/>
<stop offset="1" stop-color="#692083" stop-opacity="0"/>
</linearGradient>
<linearGradient id="svg-1881940359_2640_paint1_linear_8_16" x1="92" y1="-31" x2="567" y2="189.5" gradientUnits="userSpaceOnUse">
<stop stop-color="#999999" stop-opacity="0.7"/>
<stop offset="0.506458" stop-color="white"/>
<stop offset="1" stop-color="#999999" stop-opacity="0.7"/>
</linearGradient>
<linearGradient id="svg-1881940359_2640_paint2_linear_8_16" x1="1260.5" y1="-1.3446e-05" x2="1294" y2="139" gradientUnits="userSpaceOnUse">
<stop stop-color="#692083" stop-opacity="0.75"/>
<stop offset="1" stop-color="#692083" stop-opacity="0"/>
</linearGradient>
<linearGradient id="svg-1881940359_2640_paint3_linear_8_16" x1="1499" y1="-31" x2="1024" y2="189.5" gradientUnits="userSpaceOnUse">
<stop stop-color="#999999" stop-opacity="0.7"/>
<stop offset="0.506458" stop-color="white"/>
<stop offset="1" stop-color="#999999" stop-opacity="0.7"/>
</linearGradient>
<clipPath id="svg-1881940359_2640_clip0_8_16">
<rect width="567" height="237" fill="white"/>
</clipPath>
<clipPath id="svg-1881940359_2640_clip1_8_16">
<rect width="567" height="237" fill="white"/>
</clipPath>
<clipPath id="svg-1881940359_2640_clip2_8_16">
<rect width="567" height="237" fill="white"/>
</clipPath>
<clipPath id="svg-1881940359_2640_clip3_8_16">
<rect width="567" height="237" fill="white" transform="translate(1024)"/>
</clipPath>
<clipPath id="svg-1881940359_2640_clip4_8_16">
<rect width="567" height="237" fill="white" transform="translate(1024)"/>
</clipPath>
<clipPath id="svg-1881940359_2640_clip5_8_16">
<rect width="567" height="237" fill="white" transform="translate(1024)"/>
</clipPath>
</defs>
</svg>