<svg xmlns="http://www.w3.org/2000/svg" xmlns:xlink="http://www.w3.org/1999/xlink" style="width:100%;height:100%;" viewBox="0 0 44 44">
<g clip-path="url(#svg-132304578_4800_clip0_32_117)">
<path d="M0 22C0 9.84974 9.84974 0 22 0V0C34.1503 0 44 9.84974 44 22V22C44 34.1503 34.1503 44 22 44V44C9.84974 44 0 34.1503 0 22V22Z" fill="url(#svg-132304578_4800_paint0_linear_32_117)"/>
<path d="M22 0.5C33.8741 0.5 43.5 10.1259 43.5 22C43.5 33.8741 33.8741 43.5 22 43.5C10.1259 43.5 0.5 33.8741 0.5 22C0.5 10.1259 10.1259 0.5 22 0.5Z" stroke="white" stroke-opacity="0.07"/>
<g clip-path="url(#svg-132304578_4800_clip1_32_117)">
<mask id="svg-132304578_4800_mask0_32_117" style="mask-type:alpha" maskUnits="userSpaceOnUse" x="0" y="0" width="44" height="44">
<path d="M44 22C44 9.84974 34.1503 0 22 0C9.84974 0 0 9.84974 0 22C0 34.1503 9.84974 44 22 44C34.1503 44 44 34.1503 44 22Z" fill="#D9D9D9"/>
</mask>
<g mask="url(#svg-132304578_4800_mask0_32_117)">
<g filter="url(#svg-132304578_4800_filter0_i_32_117)">
<path d="M0 0H44V44H0V0Z" fill="url(#svg-132304578_4800_paint1_linear_32_117)"/>
<g filter="url(#svg-132304578_4800_filter1_d_32_117)">
<path d="M29.5 13H17.5C17.1022 13 16.7206 13.158 16.4393 13.4393C16.158 13.7206 16 14.1022 16 14.5V16H14.5C14.1022 16 13.7206 16.158 13.4393 16.4393C13.158 16.7206 13 17.1022 13 17.5V29.5C13 29.8978 13.158 30.2794 13.4393 30.5607C13.7206 30.842 14.1022 31 14.5 31H26.5C26.8978 31 27.2794 30.842 27.5607 30.5607C27.842 30.2794 28 29.8978 28 29.5V28H29.5C29.8978 28 30.2794 27.842 30.5607 27.5607C30.842 27.2794 31 26.8978 31 26.5V14.5C31 14.1022 30.842 13.7206 30.5607 13.4393C30.2794 13.158 29.8978 13 29.5 13ZM17.5 14.5H29.5V21.0044L27.9344 19.4388C27.6531 19.1577 27.2717 18.9998 26.8741 18.9998C26.4764 18.9998 26.095 19.1577 25.8137 19.4388L18.7534 26.5H17.5V14.5ZM26.5 29.5H14.5V17.5H16V26.5C16 26.8978 16.158 27.2794 16.4393 27.5607C16.7206 27.842 17.1022 28 17.5 28H26.5V29.5ZM29.5 26.5H20.875L26.875 20.5L29.5 23.125V26.5ZM21.25 20.5C21.695 20.5 22.13 20.368 22.5 20.1208C22.87 19.8736 23.1584 19.5222 23.3287 19.111C23.499 18.6999 23.5436 18.2475 23.4568 17.811C23.37 17.3746 23.1557 16.9737 22.841 16.659C22.5263 16.3443 22.1254 16.13 21.689 16.0432C21.2525 15.9564 20.8001 16.001 20.389 16.1713C19.9778 16.3416 19.6264 16.63 19.3792 17C19.132 17.37 19 17.805 19 18.25C19 18.8467 19.2371 19.419 19.659 19.841C20.081 20.2629 20.6533 20.5 21.25 20.5ZM21.25 17.5C21.3983 17.5 21.5433 17.544 21.6667 17.6264C21.79 17.7088 21.8861 17.8259 21.9429 17.963C21.9997 18.1 22.0145 18.2508 21.9856 18.3963C21.9567 18.5418 21.8852 18.6754 21.7803 18.7803C21.6754 18.8852 21.5418 18.9567 21.3963 18.9856C21.2508 19.0145 21.1 18.9997 20.963 18.9429C20.8259 18.8861 20.7088 18.79 20.6264 18.6667C20.544 18.5433 20.5 18.3983 20.5 18.25C20.5 18.0511 20.579 17.8603 20.7197 17.7197C20.8603 17.579 21.0511 17.5 21.25 17.5Z" fill="black"/>
</g>
</g>
</g>
</g>
</g>
<defs>
<filter id="svg-132304578_4800_filter0_i_32_117" x="0" y="0" width="44" height="48" filterUnits="userSpaceOnUse" color-interpolation-filters="sRGB">
<feFlood flood-opacity="0" result="BackgroundImageFix"/>
<feBlend mode="normal" in="SourceGraphic" in2="BackgroundImageFix" result="shape"/>
<feColorMatrix in="SourceAlpha" type="matrix" values="0 0 0 0 0 0 0 0 0 0 0 0 0 0 0 0 0 0 127 0" result="hardAlpha"/>
<feOffset dy="4"/>
<feGaussianBlur stdDeviation="2"/>
<feComposite in2="hardAlpha" operator="arithmetic" k2="-1" k3="1"/>
<feColorMatrix type="matrix" values="0 0 0 0 1 0 0 0 0 1 0 0 0 0 1 0 0 0 0.15 0"/>
<feBlend mode="normal" in2="shape" result="effect1_innerShadow_32_117"/>
</filter>
<filter id="svg-132304578_4800_filter1_d_32_117" x="6" y="10" width="32" height="32" filterUnits="userSpaceOnUse" color-interpolation-filters="sRGB">
<feFlood flood-opacity="0" result="BackgroundImageFix"/>
<feColorMatrix in="SourceAlpha" type="matrix" values="0 0 0 0 0 0 0 0 0 0 0 0 0 0 0 0 0 0 127 0" result="hardAlpha"/>
<feOffset dy="4"/>
<feGaussianBlur stdDeviation="2"/>
<feComposite in2="hardAlpha" operator="out"/>
<feColorMatrix type="matrix" values="0 0 0 0 0 0 0 0 0 0 0 0 0 0 0 0 0 0 0.25 0"/>
<feBlend mode="normal" in2="BackgroundImageFix" result="effect1_dropShadow_32_117"/>
<feBlend mode="normal" in="SourceGraphic" in2="effect1_dropShadow_32_117" result="shape"/>
</filter>
<linearGradient id="svg-132304578_4800_paint0_linear_32_117" x1="5.33402e-07" y1="44" x2="0.0567719" y2="-0.0566245" gradientUnits="userSpaceOnUse">
<stop stop-color="#70218B" stop-opacity="0.09"/>
<stop offset="1" stop-color="#999999" stop-opacity="0.09"/>
</linearGradient>
<linearGradient id="svg-132304578_4800_paint1_linear_32_117" x1="22" y1="0" x2="22" y2="44" gradientUnits="userSpaceOnUse">
<stop stop-color="#FEE863"/>
<stop offset="1" stop-color="#9F8D22"/>
</linearGradient>
<clipPath id="svg-132304578_4800_clip0_32_117">
<path d="M0 22C0 9.84974 9.84974 0 22 0V0C34.1503 0 44 9.84974 44 22V22C44 34.1503 34.1503 44 22 44V44C9.84974 44 0 34.1503 0 22V22Z" fill="white"/>
</clipPath>
<clipPath id="svg-132304578_4800_clip1_32_117">
<rect width="44" height="44" fill="white"/>
</clipPath>
</defs>
</svg>