<svg xmlns="http://www.w3.org/2000/svg" xmlns:xlink="http://www.w3.org/1999/xlink" style="width:100%;height:100%;" viewBox="0 0 12 12">
<path d="M5.26387 1.37605C5.38752 1.06253 5.83123 1.06253 5.95488 1.37605L7.10583 4.29431C7.14358 4.39003 7.21935 4.4658 7.31507 4.50355L10.2333 5.65449C10.5468 5.77814 10.5468 6.22186 10.2333 6.34551L7.31507 7.49645C7.21935 7.5342 7.14358 7.60997 7.10583 7.70569L5.95488 10.624C5.83123 10.9375 5.38752 10.9375 5.26387 10.624L4.11292 7.70569C4.07517 7.60997 3.9994 7.5342 3.90368 7.49645L0.985424 6.34551C0.6719 6.22186 0.671901 5.77814 0.985425 5.65449L3.90368 4.50355C3.9994 4.4658 4.07517 4.39003 4.11292 4.29431L5.26387 1.37605Z" fill="#6F2888"/>
</svg>