<svg xmlns="http://www.w3.org/2000/svg" xmlns:xlink="http://www.w3.org/1999/xlink" style="width:100%;height:100%;" viewBox="0 0 35 35">
<path d="M16.4007 2.78743C16.7941 1.78986 18.2059 1.78986 18.5993 2.78743L22.2614 12.0728C22.3816 12.3774 22.6226 12.6184 22.9272 12.7386L32.2126 16.4007C33.2101 16.7941 33.2101 18.2059 32.2126 18.5993L22.9272 22.2614C22.6226 22.3816 22.3816 22.6226 22.2614 22.9272L18.5993 32.2126C18.2059 33.2101 16.7941 33.2101 16.4007 32.2126L12.7386 22.9272C12.6184 22.6226 12.3774 22.3816 12.0728 22.2614L2.78743 18.5993C1.78986 18.2059 1.78986 16.7941 2.78743 16.4007L12.0728 12.7386C12.3774 12.6184 12.6184 12.3774 12.7386 12.0728L16.4007 2.78743Z" fill="#6F2888"/>
</svg>