<svg xmlns="http://www.w3.org/2000/svg" xmlns:xlink="http://www.w3.org/1999/xlink" style="width:100%;height:100%;" viewBox="0 0 11 11">
<path d="M5.15449 0.876049C5.27814 0.562525 5.72186 0.562526 5.84551 0.87605L6.99645 3.79431C7.0342 3.89003 7.10997 3.9658 7.20569 4.00355L10.124 5.15449C10.4375 5.27814 10.4375 5.72186 10.124 5.84551L7.20569 6.99645C7.10997 7.0342 7.0342 7.10997 6.99645 7.20569L5.84551 10.124C5.72186 10.4375 5.27814 10.4375 5.15449 10.124L4.00355 7.20569C3.9658 7.10997 3.89003 7.0342 3.79431 6.99645L0.876049 5.84551C0.562525 5.72186 0.562526 5.27814 0.87605 5.15449L3.79431 4.00355C3.89003 3.9658 3.9658 3.89003 4.00355 3.79431L5.15449 0.876049Z" fill="#6F2888"/>
</svg>