<svg xmlns="http://www.w3.org/2000/svg" xmlns:xlink="http://www.w3.org/1999/xlink" style="width:100%;height:100%;" viewBox="0 0 36 36">
<path d="M16.51 3.28743C16.9035 2.28986 18.3153 2.28986 18.7087 3.28743L22.3708 12.5728C22.4909 12.8774 22.732 13.1184 23.0366 13.2386L32.3219 16.9007C33.3195 17.2941 33.3195 18.7059 32.3219 19.0993L23.0366 22.7614C22.732 22.8816 22.4909 23.1226 22.3708 23.4272L18.7087 32.7126C18.3153 33.7101 16.9035 33.7101 16.51 32.7126L12.8479 23.4272C12.7278 23.1226 12.4867 22.8816 12.1822 22.7614L2.89681 19.0993C1.89923 18.7059 1.89923 17.2941 2.89681 16.9007L12.1822 13.2386C12.4867 13.1184 12.7278 12.8774 12.8479 12.5728L16.51 3.28743Z" fill="#6F2888"/>
</svg>