<svg xmlns="http://www.w3.org/2000/svg" xmlns:xlink="http://www.w3.org/1999/xlink" style="width:100%;height:100%;" viewBox="0 0 22 21">
<path d="M10.4246 1.61681C10.6537 1.03595 11.4757 1.03595 11.7048 1.61681L13.8371 7.02338C13.9071 7.20072 14.0475 7.3411 14.2248 7.41104L19.6314 9.54336C20.2122 9.77245 20.2122 10.5945 19.6314 10.8236L14.2248 12.9559C14.0475 13.0259 13.9071 13.1662 13.8371 13.3436L11.7048 18.7501C11.4757 19.331 10.6537 19.331 10.4246 18.7501L8.29227 13.3436C8.22232 13.1662 8.08195 13.0259 7.90461 12.9559L2.49803 10.8236C1.91718 10.5945 1.91718 9.77245 2.49803 9.54336L7.90461 7.41104C8.08195 7.3411 8.22232 7.20072 8.29227 7.02338L10.4246 1.61681Z" fill="#6F2888"/>
</svg>