<svg xmlns="http://www.w3.org/2000/svg" xmlns:xlink="http://www.w3.org/1999/xlink" style="width:100%;height:100%;" viewBox="0 0 44 44">
<g clip-path="url(#svg-1165525458_4494_clip0_32_130)">
<path d="M0 22C0 9.84974 9.84974 0 22 0V0C34.1503 0 44 9.84974 44 22V22C44 34.1503 34.1503 44 22 44V44C9.84974 44 0 34.1503 0 22V22Z" fill="url(#svg-1165525458_4494_paint0_linear_32_130)"/>
<path d="M22 0.5C33.8741 0.5 43.5 10.1259 43.5 22C43.5 33.8741 33.8741 43.5 22 43.5C10.1259 43.5 0.5 33.8741 0.5 22C0.5 10.1259 10.1259 0.5 22 0.5Z" stroke="white" stroke-opacity="0.07"/>
<g clip-path="url(#svg-1165525458_4494_clip1_32_130)">
<mask id="svg-1165525458_4494_mask0_32_130" style="mask-type:alpha" maskUnits="userSpaceOnUse" x="0" y="0" width="44" height="44">
<path d="M34 0H10C4.47715 0 0 4.47715 0 10V34C0 39.5228 4.47715 44 10 44H34C39.5228 44 44 39.5228 44 34V10C44 4.47715 39.5228 0 34 0Z" fill="#D9D9D9"/>
</mask>
<g mask="url(#svg-1165525458_4494_mask0_32_130)">
<g filter="url(#svg-1165525458_4494_filter0_i_32_130)">
<path d="M0 0H44V44H0V0Z" fill="url(#svg-1165525458_4494_paint1_linear_32_130)"/>
</g>
<g filter="url(#svg-1165525458_4494_filter1_d_32_130)">
<path fill-rule="evenodd" clip-rule="evenodd" d="M30.32 18.554C30.8436 18.9628 31.2671 19.4857 31.5583 20.0828C31.8494 20.68 32.0005 21.3357 32 22C32 23.4 31.343 24.646 30.32 25.447C30.4011 26.1063 30.3307 26.7753 30.1143 27.4033C29.8978 28.0313 29.541 28.6017 29.071 29.071C28.6017 29.5414 28.0312 29.8985 27.403 30.1151C26.7748 30.3318 26.1055 30.4022 25.446 30.321C25.0371 30.8445 24.5142 31.2678 23.917 31.5587C23.3199 31.8497 22.6643 32.0006 22 32C20.6 32 19.354 31.343 18.554 30.32C17.8946 30.4013 17.2253 30.3311 16.5971 30.1146C15.9689 29.8982 15.3984 29.5412 14.929 29.071C14.4586 28.6017 14.1015 28.0312 13.8849 27.403C13.6682 26.7748 13.5978 26.1055 13.679 25.446C13.1555 25.0371 12.7322 24.5142 12.4413 23.917C12.1503 23.3199 11.9994 22.6643 12 22C12 20.6 12.657 19.354 13.68 18.554C13.5987 17.8946 13.669 17.2253 13.8854 16.5971C14.1018 15.9689 14.4588 15.3984 14.929 14.929C15.3984 14.4586 15.9688 14.1016 16.597 13.885C17.2252 13.6684 17.8945 13.5979 18.554 13.679C18.9629 13.1555 19.4858 12.7322 20.083 12.4413C20.6801 12.1503 21.3358 11.9994 22 12C23.4 12 24.646 12.657 25.447 13.68C26.1063 13.5989 26.7753 13.6693 27.4033 13.8857C28.0313 14.1022 28.6017 14.459 29.071 14.929C29.5414 15.3983 29.8985 15.9688 30.1151 16.597C30.3318 17.2252 30.4012 17.8945 30.32 18.554ZM27.259 19.759L25.49 17.99L20.749 22.731L18.508 20.491L16.74 22.258L20.749 26.267L27.258 19.757L27.259 19.759Z" fill="white"/>
</g>
</g>
</g>
</g>
<defs>
<filter id="svg-1165525458_4494_filter0_i_32_130" x="0" y="0" width="44" height="48" filterUnits="userSpaceOnUse" color-interpolation-filters="sRGB">
<feFlood flood-opacity="0" result="BackgroundImageFix"/>
<feBlend mode="normal" in="SourceGraphic" in2="BackgroundImageFix" result="shape"/>
<feColorMatrix in="SourceAlpha" type="matrix" values="0 0 0 0 0 0 0 0 0 0 0 0 0 0 0 0 0 0 127 0" result="hardAlpha"/>
<feOffset dy="4"/>
<feGaussianBlur stdDeviation="2"/>
<feComposite in2="hardAlpha" operator="arithmetic" k2="-1" k3="1"/>
<feColorMatrix type="matrix" values="0 0 0 0 1 0 0 0 0 1 0 0 0 0 1 0 0 0 0.15 0"/>
<feBlend mode="normal" in2="shape" result="effect1_innerShadow_32_130"/>
</filter>
<filter id="svg-1165525458_4494_filter1_d_32_130" x="8" y="12" width="28" height="28" filterUnits="userSpaceOnUse" color-interpolation-filters="sRGB">
<feFlood flood-opacity="0" result="BackgroundImageFix"/>
<feColorMatrix in="SourceAlpha" type="matrix" values="0 0 0 0 0 0 0 0 0 0 0 0 0 0 0 0 0 0 127 0" result="hardAlpha"/>
<feOffset dy="4"/>
<feGaussianBlur stdDeviation="2"/>
<feComposite in2="hardAlpha" operator="out"/>
<feColorMatrix type="matrix" values="0 0 0 0 0 0 0 0 0 0 0 0 0 0 0 0 0 0 0.25 0"/>
<feBlend mode="normal" in2="BackgroundImageFix" result="effect1_dropShadow_32_130"/>
<feBlend mode="normal" in="SourceGraphic" in2="effect1_dropShadow_32_130" result="shape"/>
</filter>
<linearGradient id="svg-1165525458_4494_paint0_linear_32_130" x1="5.33402e-07" y1="44" x2="0.0567719" y2="-0.0566245" gradientUnits="userSpaceOnUse">
<stop stop-color="#70218B" stop-opacity="0.09"/>
<stop offset="1" stop-color="#999999" stop-opacity="0.09"/>
</linearGradient>
<linearGradient id="svg-1165525458_4494_paint1_linear_32_130" x1="22" y1="0" x2="22" y2="44" gradientUnits="userSpaceOnUse">
<stop stop-color="#413BAC"/>
<stop offset="1" stop-color="#413BAC"/>
</linearGradient>
<clipPath id="svg-1165525458_4494_clip0_32_130">
<path d="M0 22C0 9.84974 9.84974 0 22 0V0C34.1503 0 44 9.84974 44 22V22C44 34.1503 34.1503 44 22 44V44C9.84974 44 0 34.1503 0 22V22Z" fill="white"/>
</clipPath>
<clipPath id="svg-1165525458_4494_clip1_32_130">
<rect width="44" height="44" fill="white"/>
</clipPath>
</defs>
</svg>