<svg xmlns="http://www.w3.org/2000/svg" xmlns:xlink="http://www.w3.org/1999/xlink" style="width:100%;height:100%;" viewBox="0 0 16 16">
<path d="M7.39789 1.53004C7.57386 1.08386 8.20532 1.08386 8.38129 1.53004L10.0192 5.68303C10.0729 5.81925 10.1808 5.92708 10.317 5.9808L14.47 7.61872C14.9161 7.79469 14.9161 8.42614 14.47 8.60211L10.317 10.24C10.1808 10.2938 10.0729 10.4016 10.0192 10.5378L8.38129 14.6908C8.20532 15.137 7.57386 15.137 7.39789 14.6908L5.75998 10.5378C5.70625 10.4016 5.59843 10.2938 5.4622 10.24L1.30921 8.60211C0.863035 8.42614 0.863035 7.79469 1.30921 7.61872L5.4622 5.9808C5.59843 5.92708 5.70625 5.81925 5.75998 5.68303L7.39789 1.53004Z" fill="#6F2888"/>
</svg>