<svg xmlns="http://www.w3.org/2000/svg" xmlns:xlink="http://www.w3.org/1999/xlink" style="width:100%;height:100%;" viewBox="0 0 44 44">
<g clip-path="url(#svg-1210064044_3925_clip0_32_78)">
<path d="M0 22C0 9.84974 9.84974 0 22 0V0C34.1503 0 44 9.84974 44 22V22C44 34.1503 34.1503 44 22 44V44C9.84974 44 0 34.1503 0 22V22Z" fill="url(#svg-1210064044_3925_paint0_linear_32_78)"/>
<path d="M22 0.5C33.8741 0.5 43.5 10.1259 43.5 22C43.5 33.8741 33.8741 43.5 22 43.5C10.1259 43.5 0.5 33.8741 0.5 22C0.5 10.1259 10.1259 0.5 22 0.5Z" stroke="white" stroke-opacity="0.07"/>
<g clip-path="url(#svg-1210064044_3925_clip1_32_78)">
<mask id="svg-1210064044_3925_mask0_32_78" style="mask-type:alpha" maskUnits="userSpaceOnUse" x="0" y="0" width="44" height="44">
<path d="M34 0H10C4.47715 0 0 4.47715 0 10V34C0 39.5228 4.47715 44 10 44H34C39.5228 44 44 39.5228 44 34V10C44 4.47715 39.5228 0 34 0Z" fill="#D9D9D9"/>
</mask>
<g mask="url(#svg-1210064044_3925_mask0_32_78)">
<g filter="url(#svg-1210064044_3925_filter0_i_32_78)">
<path d="M0 0H44V44H0V0Z" fill="url(#svg-1210064044_3925_paint1_linear_32_78)"/>
</g>
<g filter="url(#svg-1210064044_3925_filter1_d_32_78)">
<path fill-rule="evenodd" clip-rule="evenodd" d="M32 22C32 27.523 27.523 32 22 32C16.477 32 12 27.523 12 22C12 16.477 16.477 12 22 12C27.523 12 32 16.477 32 22ZM23.562 16.687C23.562 16.8921 23.5216 17.0952 23.4431 17.2848C23.3646 17.4743 23.2495 17.6465 23.1045 17.7915C22.9595 17.9365 22.7873 18.0516 22.5978 18.1301C22.4082 18.2086 22.2051 18.249 22 18.249C21.7949 18.249 21.5918 18.2086 21.4022 18.1301C21.2127 18.0516 21.0405 17.9365 20.8955 17.7915C20.7505 17.6465 20.6354 17.4743 20.5569 17.2848C20.4784 17.0952 20.438 16.8921 20.438 16.687C20.438 16.2726 20.6026 15.8752 20.8956 15.5821C21.1887 15.2891 21.5861 15.1245 22.0005 15.1245C22.4149 15.1245 22.8123 15.2891 23.1054 15.5821C23.3984 15.8752 23.562 16.2726 23.562 16.687ZM27 22H23.774L26.006 28.25H23.35L22 24.466L20.649 28.25H17.994L20.226 22H17V19.5H27V22Z" fill="black"/>
</g>
</g>
</g>
</g>
<defs>
<filter id="svg-1210064044_3925_filter0_i_32_78" x="0" y="0" width="44" height="48" filterUnits="userSpaceOnUse" color-interpolation-filters="sRGB">
<feFlood flood-opacity="0" result="BackgroundImageFix"/>
<feBlend mode="normal" in="SourceGraphic" in2="BackgroundImageFix" result="shape"/>
<feColorMatrix in="SourceAlpha" type="matrix" values="0 0 0 0 0 0 0 0 0 0 0 0 0 0 0 0 0 0 127 0" result="hardAlpha"/>
<feOffset dy="4"/>
<feGaussianBlur stdDeviation="2"/>
<feComposite in2="hardAlpha" operator="arithmetic" k2="-1" k3="1"/>
<feColorMatrix type="matrix" values="0 0 0 0 0.826025 0 0 0 0 0.826025 0 0 0 0 0.826025 0 0 0 0.15 0"/>
<feBlend mode="normal" in2="shape" result="effect1_innerShadow_32_78"/>
</filter>
<filter id="svg-1210064044_3925_filter1_d_32_78" x="8" y="12" width="28" height="28" filterUnits="userSpaceOnUse" color-interpolation-filters="sRGB">
<feFlood flood-opacity="0" result="BackgroundImageFix"/>
<feColorMatrix in="SourceAlpha" type="matrix" values="0 0 0 0 0 0 0 0 0 0 0 0 0 0 0 0 0 0 127 0" result="hardAlpha"/>
<feOffset dy="4"/>
<feGaussianBlur stdDeviation="2"/>
<feComposite in2="hardAlpha" operator="out"/>
<feColorMatrix type="matrix" values="0 0 0 0 0 0 0 0 0 0 0 0 0 0 0 0 0 0 0.25 0"/>
<feBlend mode="normal" in2="BackgroundImageFix" result="effect1_dropShadow_32_78"/>
<feBlend mode="normal" in="SourceGraphic" in2="effect1_dropShadow_32_78" result="shape"/>
</filter>
<linearGradient id="svg-1210064044_3925_paint0_linear_32_78" x1="5.33402e-07" y1="44" x2="0.0567719" y2="-0.0566245" gradientUnits="userSpaceOnUse">
<stop stop-color="#70218B" stop-opacity="0.09"/>
<stop offset="1" stop-color="#999999" stop-opacity="0.09"/>
</linearGradient>
<linearGradient id="svg-1210064044_3925_paint1_linear_32_78" x1="22" y1="0" x2="22" y2="44" gradientUnits="userSpaceOnUse">
<stop stop-color="#FBFBFB"/>
<stop offset="1" stop-color="#D0D0D0"/>
</linearGradient>
<clipPath id="svg-1210064044_3925_clip0_32_78">
<path d="M0 22C0 9.84974 9.84974 0 22 0V0C34.1503 0 44 9.84974 44 22V22C44 34.1503 34.1503 44 22 44V44C9.84974 44 0 34.1503 0 22V22Z" fill="white"/>
</clipPath>
<clipPath id="svg-1210064044_3925_clip1_32_78">
<rect width="44" height="44" fill="white"/>
</clipPath>
</defs>
</svg>