<svg xmlns="http://www.w3.org/2000/svg" xmlns:xlink="http://www.w3.org/1999/xlink" style="width:100%;height:100%;" viewBox="0 0 82 68">
<rect width="82" height="67.6098" rx="12" fill="#1C0C28"/>
<g clip-path="url(#svg-1720439152_12691_clip0_85_2360)">
<path d="M22.8705 37.5934V43.0422H21.9727L18.3813 37.9297V42.235C18.3813 42.3695 18.3813 42.4368 18.4504 42.504C18.5194 42.5713 18.5885 42.5713 18.6576 42.5713H19.2101V42.9749H17V42.5713H17.4835C17.5525 42.5713 17.6216 42.5713 17.6906 42.504C17.7597 42.4368 17.7597 42.3695 17.7597 42.235V37.5261C17.7597 37.3916 17.7597 37.3243 17.6906 37.257C17.6216 37.1897 17.5525 37.1897 17.4835 37.1897H17V36.7861H19.0029L22.318 41.4277V37.5261C22.318 37.3916 22.318 37.3243 22.2489 37.257C22.1799 37.1897 22.1108 37.1897 22.0417 37.1897H21.4892V36.7861H23.6302V37.1897H23.2158C23.1468 37.1897 23.0777 37.1897 23.0086 37.257C22.9396 37.3916 22.8705 37.4588 22.8705 37.5934Z" fill="white"/>
<path d="M24.3218 36.7861H27.1534V37.1897H26.67C26.6009 37.1897 26.5318 37.1897 26.4628 37.257C26.3937 37.3243 26.3937 37.3916 26.3937 37.5261V42.235C26.3937 42.3695 26.3937 42.4368 26.4628 42.504C26.5318 42.5713 26.6009 42.5713 26.67 42.5713H27.1534V42.9749H24.3218V42.5713H24.8052C24.8743 42.5713 24.9434 42.5713 25.0124 42.504C25.0815 42.4368 25.0815 42.3695 25.0815 42.235V37.5261C25.0815 37.3916 25.0815 37.3243 25.0124 37.257C24.9434 37.1897 24.8743 37.1897 24.8052 37.1897H24.3218V36.7861Z" fill="white"/>
<path d="M27.8423 37.1897V36.7861H30.9502C31.848 36.7861 32.5387 36.9207 32.9531 37.257C33.3675 37.5261 33.6437 37.997 33.6437 38.5351C33.6437 38.8715 33.5056 39.2078 33.2984 39.4769C33.0912 39.746 32.7459 39.9478 32.2624 40.0823C32.6768 40.1496 32.9531 40.3514 33.2293 40.5532C33.4365 40.755 33.5747 41.0914 33.5747 41.4277V42.1004C33.5747 42.3022 33.5747 42.4368 33.6437 42.504C33.7128 42.5713 33.7819 42.6386 33.8509 42.6386C33.92 42.6386 33.989 42.6386 34.0581 42.5713C34.1272 42.504 34.1272 42.3695 34.1272 42.235V41.6968H34.6106V42.235C34.6106 42.5713 34.5416 42.7731 34.3344 42.9749C34.1272 43.1095 33.8509 43.244 33.5056 43.244C33.1603 43.244 32.884 43.1767 32.6768 42.9749C32.4696 42.8404 32.3315 42.504 32.3315 42.1004V41.5623C32.3315 41.0914 32.1934 40.755 31.9862 40.5532C31.7099 40.2841 31.2955 40.2169 30.8121 40.2169H29.9142V42.3022C29.9142 42.4368 29.9142 42.504 29.9833 42.5713C30.0524 42.6386 30.1214 42.6386 30.1905 42.6386H30.6739V43.0422H27.8423V42.6386H28.3257C28.3948 42.6386 28.4639 42.6386 28.5329 42.5713C28.602 42.504 28.602 42.4368 28.602 42.3022V37.5934C28.602 37.4588 28.602 37.3916 28.5329 37.3243C28.4639 37.257 28.3948 37.257 28.3257 37.257H27.8423V37.1897ZM30.5358 37.1897H29.8452V39.746H30.5358C31.0193 39.746 31.3646 39.6787 31.5718 39.6114C31.848 39.4769 31.9862 39.3424 32.1243 39.2078C32.2624 39.006 32.2624 38.8042 32.2624 38.5351C32.2624 38.2661 32.1934 37.997 32.1243 37.7952C31.9862 37.5934 31.848 37.4588 31.5718 37.3243C31.3646 37.257 31.0193 37.1897 30.5358 37.1897Z" fill="white"/>
<path d="M41.518 42.3023V37.4589L39.5151 43.1096H38.6173L36.5454 37.4589V42.3023C36.5454 42.4369 36.5454 42.5041 36.6144 42.5714C36.6835 42.6387 36.7526 42.6387 36.8216 42.6387H37.3741V43.0423H35.1641V42.6387H35.6475C35.7166 42.6387 35.8547 42.6387 35.8547 42.5714C35.9238 42.5041 35.9238 42.4369 35.9238 42.3023V37.5935C35.9238 37.4589 35.9238 37.3917 35.8547 37.3244C35.7856 37.2571 35.7166 37.2571 35.6475 37.2571H35.1641V36.8535H37.5813L39.377 41.7642L41.1727 36.8535H43.59V37.2571H43.1065C43.0374 37.2571 42.9684 37.2571 42.8993 37.3244C42.8303 37.3917 42.8303 37.4589 42.8303 37.5935V42.3023C42.8303 42.4369 42.8303 42.5041 42.8993 42.5714C42.9684 42.6387 43.0374 42.6387 43.1065 42.6387H43.59V43.0423H40.7583V42.6387H41.1727C41.2418 42.6387 41.3108 42.6387 41.3799 42.5714C41.449 42.5041 41.518 42.3696 41.518 42.3023Z" fill="white"/>
<path d="M44.8327 42.1677L46.8356 36.7861H48.0787L50.0816 42.1004C50.1507 42.3022 50.2197 42.4368 50.2888 42.504C50.3579 42.5713 50.4269 42.6386 50.5651 42.6386H50.8413V43.0422H47.9406V42.6386H48.4241C48.5622 42.6386 48.6312 42.5713 48.7003 42.504C48.7694 42.4368 48.7694 42.3022 48.7003 42.1677L48.2859 40.9568H45.8687L45.3852 42.235C45.3161 42.3695 45.3161 42.504 45.3852 42.5713C45.4543 42.6386 45.5233 42.6386 45.5924 42.6386H46.0758V43.0422H44.0039V42.6386H44.4183C44.5564 42.6386 44.6255 42.5713 44.6946 42.504C44.6946 42.504 44.7636 42.3695 44.8327 42.1677ZM45.9377 40.6205H48.0787L46.9737 37.5934L45.9377 40.6205Z" fill="white"/>
<path d="M51.8793 42.1677L53.8822 36.7861H55.1254L57.1282 42.1004C57.1973 42.3022 57.2664 42.4368 57.3354 42.504C57.4045 42.5713 57.4736 42.6386 57.6117 42.6386H58.0261V43.0422H54.9872V42.6386H55.4707C55.6088 42.6386 55.6779 42.5713 55.7469 42.504C55.816 42.4368 55.816 42.3022 55.7469 42.1677L55.3326 40.9568H52.9153L52.4318 42.235C52.3628 42.3695 52.3628 42.504 52.4318 42.5713C52.5009 42.6386 52.57 42.6386 52.639 42.6386H53.1225V43.0422H51.0505V42.6386H51.4649C51.6031 42.6386 51.6721 42.5713 51.7412 42.504C51.7412 42.504 51.8102 42.3695 51.8793 42.1677ZM52.9843 40.6205H55.1254L54.0203 37.5934L52.9843 40.6205Z" fill="white"/>
<path d="M64.1713 37.5934V43.0422H63.2734L59.6821 37.9297V42.235C59.6821 42.3695 59.6821 42.4368 59.7511 42.504C59.8202 42.5713 59.8893 42.5713 59.9583 42.5713H60.5109V42.9749H58.3008V42.5713H58.7842C58.8533 42.5713 58.9224 42.5713 58.9914 42.504C59.0605 42.4368 59.0605 42.3695 59.0605 42.235V37.5261C59.0605 37.3916 59.0605 37.3243 58.9914 37.257C58.9224 37.1897 58.8533 37.1897 58.7842 37.1897H58.3008V36.7861H60.3037L63.6188 41.4277V37.5261C63.6188 37.3916 63.6188 37.3243 63.5497 37.257C63.4806 37.1897 63.4116 37.1897 63.3425 37.1897H62.79V36.7861H64.931V37.1897H64.4475C64.3785 37.1897 64.3094 37.1897 64.2404 37.257C64.2404 37.3916 64.1713 37.4588 64.1713 37.5934Z" fill="white"/>
<path d="M31.23 48.626L30.4702 51.3841H29.8487L29.2271 49.2315L28.6055 51.3841H27.9839L27.2242 48.626C27.2242 48.5588 27.1551 48.4915 27.1551 48.4242C27.1551 48.357 27.0861 48.357 27.017 48.357H26.8098V48.1552H28.2602V48.357H28.053C27.9839 48.357 27.9839 48.357 27.9149 48.4242C27.9149 48.4915 27.9149 48.4915 27.9149 48.5588L28.5364 50.8459L29.158 48.7606L29.089 48.626C29.089 48.5588 29.0199 48.4915 29.0199 48.4242C29.0199 48.357 28.9508 48.357 28.8818 48.357H28.6746V48.1552H30.0559V48.357H29.8487C29.7796 48.357 29.7796 48.357 29.7105 48.4242C29.7105 48.4915 29.7105 48.4915 29.7105 48.5588L30.3321 50.7787L30.9537 48.5588C30.9537 48.4915 30.9537 48.4242 30.9537 48.357C30.9537 48.357 30.8846 48.2897 30.8156 48.2897H30.6084V48.0879H31.6443V48.2897H31.4372C31.3681 48.2897 31.3681 48.2897 31.299 48.357C31.299 48.4915 31.23 48.5588 31.23 48.626Z" fill="white"/>
<path d="M37.4467 49.7696C37.4467 50.106 37.3776 50.3751 37.2395 50.6441C37.1014 50.9132 36.8942 51.115 36.687 51.2496C36.4107 51.3841 36.1345 51.4514 35.7891 51.4514C35.4438 51.4514 35.1676 51.3841 34.8913 51.2496C34.615 51.115 34.4769 50.9132 34.3388 50.6441C34.2007 50.3751 34.1316 50.106 34.1316 49.7696C34.1316 49.4333 34.2007 49.1642 34.3388 48.8951C34.4769 48.626 34.6841 48.4915 34.8913 48.2897C35.1676 48.1552 35.4438 48.0879 35.7891 48.0879C36.1345 48.0879 36.4107 48.1552 36.687 48.2897C36.9632 48.4242 37.1014 48.626 37.2395 48.8951C37.3776 49.1642 37.4467 49.5005 37.4467 49.7696ZM34.8222 49.7696C34.8222 50.2405 34.8913 50.5769 35.0985 50.8459C35.2366 51.115 35.5129 51.1823 35.7891 51.1823C36.0654 51.1823 36.3417 51.0477 36.4798 50.8459C36.6179 50.5769 36.7561 50.2405 36.7561 49.7696C36.7561 49.2987 36.687 48.9624 36.4798 48.6933C36.3417 48.4242 36.0654 48.357 35.7891 48.357C35.4438 48.357 35.2366 48.4915 35.0985 48.6933C34.8913 48.9624 34.8222 49.2987 34.8222 49.7696Z" fill="white"/>
<path d="M40.2085 48.4235V48.2217H41.797C42.2804 48.2217 42.6258 48.2889 42.833 48.4235C43.0402 48.558 43.1783 48.7598 43.1783 49.0289C43.1783 49.2307 43.1092 49.3653 42.9711 49.4998C42.833 49.6343 42.6948 49.7016 42.4186 49.7689C42.6258 49.8361 42.7639 49.9034 42.902 50.038C43.0402 50.1725 43.0402 50.307 43.0402 50.5088V50.8452C43.0402 50.9797 43.0402 51.047 43.1092 51.047C43.1092 51.1143 43.1783 51.1143 43.2473 51.1143C43.3164 51.1143 43.3164 51.1143 43.3164 51.047C43.3164 51.047 43.3855 50.9797 43.3855 50.9125V50.6434H43.5927V50.9797C43.5927 51.1143 43.5236 51.2488 43.4545 51.3161C43.3855 51.3833 43.2473 51.4506 43.0402 51.4506C42.833 51.4506 42.6948 51.3833 42.6258 51.3161C42.4876 51.2488 42.4876 51.1143 42.4876 50.8452V50.5761C42.4876 50.307 42.4186 50.1725 42.2804 50.038C42.1423 49.9707 41.9351 49.9034 41.7279 49.9034H41.2445V50.9797C41.2445 51.047 41.2445 51.1143 41.3135 51.1143C41.3135 51.1143 41.3826 51.1815 41.4517 51.1815H41.6589V51.3833H40.2085V51.1815H40.4848C40.5538 51.1815 40.5538 51.1815 40.6229 51.1143C40.6229 51.1143 40.6919 51.047 40.6919 50.9797V48.558C40.6919 48.4908 40.692 48.4235 40.6229 48.4235C40.6229 48.4235 40.5538 48.3562 40.4848 48.3562H40.2085V48.4235ZM41.5898 48.4235H41.2445V49.7689H41.5898C41.797 49.7689 42.0042 49.7689 42.1423 49.7016C42.2804 49.6343 42.3495 49.5671 42.4186 49.4998C42.4876 49.4325 42.4876 49.298 42.4876 49.1634C42.4876 49.0289 42.4876 48.8944 42.4186 48.8271C42.3495 48.7598 42.2804 48.6253 42.1423 48.6253C42.0042 48.4235 41.797 48.4235 41.5898 48.4235Z" fill="white"/>
<path d="M47.6665 51.1824V51.3842H46.2852V51.1824H46.5614C46.6305 51.1824 46.6305 51.1824 46.6995 51.1151C46.6995 51.1151 46.7686 51.0479 46.7686 50.9806V48.5589C46.7686 48.4916 46.7686 48.4244 46.6995 48.4244C46.6995 48.4244 46.6305 48.3571 46.5614 48.3571H46.2852V48.1553H47.7355V48.3571H47.4593C47.3902 48.3571 47.3902 48.3571 47.3211 48.4244C47.3211 48.4244 47.2521 48.4916 47.2521 48.5589V49.7697L48.4952 48.6262C48.5643 48.5589 48.6334 48.4916 48.6334 48.4244C48.6334 48.3571 48.5643 48.3571 48.4952 48.3571H48.219V48.1553H49.6003V48.3571H49.5312C49.4621 48.3571 49.324 48.3571 49.2549 48.3571C49.1859 48.3571 49.1168 48.4244 49.0477 48.4916C48.9787 48.5589 48.8406 48.6262 48.7024 48.7607L48.219 49.2316L49.1859 50.7788C49.2549 50.9133 49.324 50.9806 49.3931 51.0479C49.4621 51.1151 49.5312 51.1151 49.6003 51.1151H49.7384V51.3169H48.219V51.1151H48.4262C48.4952 51.1151 48.5643 51.1151 48.5643 51.0479C48.5643 50.9806 48.5643 50.9133 48.4952 50.8461L47.7355 49.5679L47.2521 50.0388V50.9806C47.2521 51.0479 47.2521 51.1151 47.3211 51.1151C47.3211 51.1151 47.3902 51.1824 47.4593 51.1824H47.6665Z" fill="white"/>
<path d="M55.1962 50.5088C55.1962 50.7106 55.1271 50.9125 55.0581 51.047C54.9199 51.1815 54.7818 51.3161 54.6437 51.3833C54.5055 51.4506 54.2293 51.5179 54.0221 51.5179C53.7458 51.5179 53.5386 51.4506 53.3314 51.3833C53.1242 51.3161 52.9861 51.1815 52.7789 50.9797L52.7099 51.4506H52.4336V50.307H52.7099C52.7789 50.5088 52.848 50.6434 52.917 50.7779C53.0552 50.9125 53.1933 51.047 53.3314 51.1143C53.4696 51.1815 53.6768 51.2488 53.884 51.2488C54.0221 51.2488 54.1602 51.2488 54.2293 51.1815C54.2983 51.1143 54.4365 51.1143 54.4365 50.9797C54.5055 50.9125 54.5055 50.7779 54.5055 50.7106C54.5055 50.5761 54.5055 50.5088 54.4365 50.4416C54.3674 50.3743 54.2983 50.307 54.1602 50.2398C54.0221 50.1725 53.884 50.1052 53.6077 50.1052C53.4696 50.038 53.2624 50.038 53.1242 49.9707C52.9861 49.9034 52.848 49.8361 52.7789 49.7689C52.6408 49.7016 52.5717 49.6343 52.5027 49.4998C52.4336 49.3653 52.4336 49.298 52.4336 49.1634C52.4336 48.9616 52.5027 48.8271 52.5717 48.6926C52.6408 48.558 52.7789 48.4235 52.9861 48.3562C53.1933 48.2889 53.3314 48.2217 53.5386 48.2217C53.7458 48.2217 53.953 48.2889 54.1602 48.3562C54.3674 48.4235 54.5055 48.558 54.6437 48.6926L54.7127 48.2889H54.989V49.298H54.7127C54.6437 49.0289 54.5055 48.8271 54.2983 48.6926C54.0911 48.558 53.884 48.4908 53.6077 48.4908C53.4696 48.4908 53.4005 48.4908 53.2624 48.558C53.1933 48.6253 53.1242 48.6253 53.0552 48.6926C52.9861 48.7598 52.9861 48.8271 52.9861 48.9616C52.9861 49.0962 52.9861 49.1635 53.0552 49.2307C53.1242 49.298 53.1933 49.3653 53.3314 49.4325C53.4696 49.4998 53.6077 49.5671 53.8149 49.5671C54.0221 49.6343 54.1602 49.7016 54.3674 49.7016C54.5055 49.7689 54.6437 49.8361 54.7818 49.9034C54.9199 49.9707 54.989 50.038 55.0581 50.1725C55.1962 50.2398 55.1962 50.307 55.1962 50.5088Z" fill="white"/>
<path d="M40.9686 16L38.137 21.987L40.9686 27.0995L43.8693 21.987L40.9686 16Z" fill="white"/>
<path d="M32.1978 18.7578L33.51 25.2829L38.897 27.7046L38.1373 21.9867L32.1978 18.7578Z" fill="white"/>
<path d="M26.8096 26.0904L31.7132 30.5302L37.5837 29.4539L33.5089 25.2832L26.8096 26.0904Z" fill="white"/>
<path d="M55.1943 26.0904L48.495 25.2832L44.4202 29.4539L50.2907 30.5302L55.1943 26.0904Z" fill="white"/>
<path d="M49.8082 18.7578L43.8686 21.9867L43.1089 27.7046L48.4959 25.2829L49.8082 18.7578Z" fill="white"/>
</g>
<defs>
<clipPath id="svg-1720439152_12691_clip0_85_2360">
<rect width="48" height="35.451" fill="white" transform="translate(17 16)"/>
</clipPath>
</defs>
</svg>