<svg xmlns="http://www.w3.org/2000/svg" xmlns:xlink="http://www.w3.org/1999/xlink" style="width:100%;height:100%;" viewBox="0 0 16 17">
<path d="M7.39789 2.06153C7.57386 1.61535 8.20532 1.61535 8.38129 2.06153L10.0192 6.21452C10.0729 6.35074 10.1808 6.45857 10.317 6.5123L14.47 8.15021C14.9161 8.32618 14.9161 8.95764 14.47 9.13361L10.317 10.7715C10.1808 10.8252 10.0729 10.9331 10.0192 11.0693L8.38129 15.2223C8.20532 15.6685 7.57386 15.6685 7.39789 15.2223L5.75998 11.0693C5.70625 10.9331 5.59843 10.8252 5.4622 10.7715L1.30921 9.13361C0.863035 8.95764 0.863035 8.32618 1.30921 8.15021L5.4622 6.5123C5.59843 6.45857 5.70625 6.35074 5.75998 6.21452L7.39789 2.06153Z" fill="#6F2888"/>
</svg>