<svg xmlns="http://www.w3.org/2000/svg" xmlns:xlink="http://www.w3.org/1999/xlink" style="width:100%;height:100%;" viewBox="0 0 50 51">
<g filter="url(#svg-474051580_5738_filter0_d_21_3130)">
<g clip-path="url(#svg-474051580_5738_clip0_21_3130)">
<path d="M0.190186 25.3095C0.190186 11.6544 11.2598 0.584717 24.915 0.584717V0.584717C38.5701 0.584717 49.6397 11.6544 49.6397 25.3095V25.3095C49.6397 38.9646 38.5701 50.0343 24.915 50.0343V50.0343C11.2598 50.0343 0.190186 38.9646 0.190186 25.3095V25.3095Z" fill="url(#svg-474051580_5738_paint0_linear_21_3130)" shape-rendering="crispEdges"/>
<path d="M24.9148 1.14624C38.2595 1.14624 49.0778 11.9646 49.0779 25.3093C49.0779 38.6541 38.2596 49.4724 24.9148 49.4724C11.5701 49.4723 0.751709 38.654 0.751709 25.3093C0.751797 11.9647 11.5701 1.14633 24.9148 1.14624Z" stroke="white" stroke-opacity="0.07" stroke-width="1.12385"/>
<g clip-path="url(#svg-474051580_5738_clip1_21_3130)">
<mask id="svg-474051580_5738_mask0_21_3130" style="mask-type:alpha" maskUnits="userSpaceOnUse" x="0" y="0" width="50" height="51">
<path d="M38.4012 0.584717H11.4287C5.22185 0.584717 0.190186 5.61638 0.190186 11.8232V38.7957C0.190186 45.0026 5.22185 50.0343 11.4287 50.0343H38.4012C44.6081 50.0343 49.6397 45.0026 49.6397 38.7957V11.8232C49.6397 5.61638 44.6081 0.584717 38.4012 0.584717Z" fill="#D9D9D9"/>
</mask>
<g mask="url(#svg-474051580_5738_mask0_21_3130)">
<g filter="url(#svg-474051580_5738_filter1_i_21_3130)">
<path d="M0.190186 0.584717H49.6397V50.0343H0.190186V0.584717Z" fill="url(#svg-474051580_5738_paint1_linear_21_3130)"/>
<g filter="url(#svg-474051580_5738_filter2_d_21_3130)">
<path d="M34.1649 24.2738C34.1329 24.1387 34.0682 24.0136 33.9763 23.9096C33.8843 23.8056 33.7682 23.7258 33.638 23.6775L27.5682 21.4006L29.1128 13.6745C29.1478 13.495 29.1234 13.309 29.0434 13.1445C28.9634 12.9801 28.832 12.8461 28.6692 12.7628C28.5063 12.6796 28.3208 12.6515 28.1407 12.6829C27.9605 12.7143 27.7954 12.8035 27.6704 12.937L15.8699 25.5803C15.7741 25.6813 15.7048 25.8045 15.6681 25.9388C15.6315 26.0731 15.6287 26.2144 15.66 26.3501C15.6913 26.4857 15.7557 26.6115 15.8475 26.7162C15.9393 26.8209 16.0556 26.9012 16.186 26.95L22.258 29.2269L20.7176 36.9446C20.6826 37.1241 20.707 37.3101 20.787 37.4746C20.867 37.639 20.9984 37.773 21.1612 37.8562C21.324 37.9395 21.5095 37.9675 21.6897 37.9361C21.8699 37.9047 22.0349 37.8156 22.16 37.6821L33.9605 25.0388C34.0546 24.9377 34.1224 24.8152 34.1581 24.6818C34.1937 24.5484 34.196 24.4083 34.1649 24.2738ZM22.9523 34.3706L24.0554 28.8518C24.0949 28.6561 24.0636 28.4527 23.9672 28.2778C23.8707 28.103 23.7153 27.9681 23.5286 27.8972L17.9613 25.8058L26.877 16.2537L25.7749 21.7726C25.7355 21.9683 25.7667 22.1717 25.8632 22.3465C25.9597 22.5213 26.1151 22.6562 26.3017 22.7271L31.8648 24.8133L22.9523 34.3706Z" fill="white"/>
</g>
</g>
</g>
</g>
</g>
</g>
<defs>
<filter id="svg-474051580_5738_filter0_d_21_3130" x="-24.5346" y="-21.8923" width="103.394" height="103.394" filterUnits="userSpaceOnUse" color-interpolation-filters="sRGB">
<feFlood flood-opacity="0" result="BackgroundImageFix"/>
<feColorMatrix in="SourceAlpha" type="matrix" values="0 0 0 0 0 0 0 0 0 0 0 0 0 0 0 0 0 0 127 0" result="hardAlpha"/>
<feOffset dx="2.24771" dy="4.49541"/>
<feGaussianBlur stdDeviation="13.4862"/>
<feComposite in2="hardAlpha" operator="out"/>
<feColorMatrix type="matrix" values="0 0 0 0 0 0 0 0 0 0.333333 0 0 0 0 1 0 0 0 0.35 0"/>
<feBlend mode="normal" in2="BackgroundImageFix" result="effect1_dropShadow_21_3130"/>
<feBlend mode="normal" in="SourceGraphic" in2="effect1_dropShadow_21_3130" result="shape"/>
</filter>
<filter id="svg-474051580_5738_filter1_i_21_3130" x="0.190186" y="0.584717" width="49.4495" height="53.9449" filterUnits="userSpaceOnUse" color-interpolation-filters="sRGB">
<feFlood flood-opacity="0" result="BackgroundImageFix"/>
<feBlend mode="normal" in="SourceGraphic" in2="BackgroundImageFix" result="shape"/>
<feColorMatrix in="SourceAlpha" type="matrix" values="0 0 0 0 0 0 0 0 0 0 0 0 0 0 0 0 0 0 127 0" result="hardAlpha"/>
<feOffset dy="4.49541"/>
<feGaussianBlur stdDeviation="2.24771"/>
<feComposite in2="hardAlpha" operator="arithmetic" k2="-1" k3="1"/>
<feColorMatrix type="matrix" values="0 0 0 0 1 0 0 0 0 1 0 0 0 0 1 0 0 0 0.15 0"/>
<feBlend mode="normal" in2="shape" result="effect1_innerShadow_21_3130"/>
</filter>
<filter id="svg-474051580_5738_filter2_d_21_3130" x="8.05715" y="11.8232" width="33.7155" height="33.7155" filterUnits="userSpaceOnUse" color-interpolation-filters="sRGB">
<feFlood flood-opacity="0" result="BackgroundImageFix"/>
<feColorMatrix in="SourceAlpha" type="matrix" values="0 0 0 0 0 0 0 0 0 0 0 0 0 0 0 0 0 0 127 0" result="hardAlpha"/>
<feOffset dy="3.37156"/>
<feGaussianBlur stdDeviation="1.68578"/>
<feComposite in2="hardAlpha" operator="out"/>
<feColorMatrix type="matrix" values="0 0 0 0 0 0 0 0 0 0 0 0 0 0 0 0 0 0 0.25 0"/>
<feBlend mode="normal" in2="BackgroundImageFix" result="effect1_dropShadow_21_3130"/>
<feBlend mode="normal" in="SourceGraphic" in2="effect1_dropShadow_21_3130" result="shape"/>
</filter>
<linearGradient id="svg-474051580_5738_paint0_linear_21_3130" x1="0.190186" y1="50.0343" x2="0.253989" y2="0.521079" gradientUnits="userSpaceOnUse">
<stop stop-color="#0055FF" stop-opacity="0.09"/>
<stop offset="1" stop-color="#999999" stop-opacity="0.09"/>
</linearGradient>
<linearGradient id="svg-474051580_5738_paint1_linear_21_3130" x1="24.915" y1="0.584717" x2="24.915" y2="50.0343" gradientUnits="userSpaceOnUse">
<stop stop-color="#C156E6"/>
<stop offset="1" stop-color="#6B3080"/>
</linearGradient>
<clipPath id="svg-474051580_5738_clip0_21_3130">
<path d="M0.190186 25.3095C0.190186 11.6544 11.2598 0.584717 24.915 0.584717V0.584717C38.5701 0.584717 49.6397 11.6544 49.6397 25.3095V25.3095C49.6397 38.9646 38.5701 50.0343 24.915 50.0343V50.0343C11.2598 50.0343 0.190186 38.9646 0.190186 25.3095V25.3095Z" fill="white"/>
</clipPath>
<clipPath id="svg-474051580_5738_clip1_21_3130">
<rect width="49.4495" height="49.4495" fill="white" transform="translate(0.190186 0.584717)"/>
</clipPath>
</defs>
</svg>