<svg xmlns="http://www.w3.org/2000/svg" xmlns:xlink="http://www.w3.org/1999/xlink" style="width:100%;height:100%;" viewBox="0 0 16 16">
<path d="M7.61664 1.56153C7.79261 1.11535 8.42407 1.11535 8.60004 1.56153L10.238 5.71452C10.2917 5.85074 10.3995 5.95857 10.5357 6.0123L14.6887 7.65021C15.1349 7.82618 15.1349 8.45764 14.6887 8.63361L10.5357 10.2715C10.3995 10.3252 10.2917 10.4331 10.238 10.5693L8.60004 14.7223C8.42407 15.1685 7.79261 15.1685 7.61664 14.7223L5.97873 10.5693C5.925 10.4331 5.81718 10.3252 5.68095 10.2715L1.52796 8.63361C1.08179 8.45764 1.08178 7.82618 1.52796 7.65021L5.68095 6.0123C5.81718 5.95857 5.925 5.85074 5.97873 5.71452L7.61664 1.56153Z" fill="#6F2888"/>
</svg>