<svg xmlns="http://www.w3.org/2000/svg" xmlns:xlink="http://www.w3.org/1999/xlink" style="width:100%;height:100%;" viewBox="0 0 21 21">
<path d="M9.64334 2.11681C9.87242 1.53595 10.6945 1.53595 10.9236 2.11681L13.0559 7.52338C13.1258 7.70072 13.2662 7.8411 13.4435 7.91104L18.8501 10.0434C19.431 10.2724 19.431 11.0945 18.8501 11.3236L13.4435 13.4559C13.2662 13.5259 13.1258 13.6662 13.0559 13.8436L10.9236 19.2501C10.6945 19.831 9.87242 19.831 9.64334 19.2501L7.51102 13.8436C7.44107 13.6662 7.3007 13.5259 7.12336 13.4559L1.71678 11.3236C1.13593 11.0945 1.13593 10.2724 1.71678 10.0434L7.12336 7.91104C7.3007 7.8411 7.44107 7.70072 7.51102 7.52338L9.64334 2.11681Z" fill="#6F2888"/>
</svg>