<svg xmlns="http://www.w3.org/2000/svg" xmlns:xlink="http://www.w3.org/1999/xlink" style="width:100%;height:100%;" viewBox="0 0 8 8">
<path d="M3.66536 1.29952C3.73736 1.11697 3.99572 1.11697 4.06772 1.29953L4.73788 2.99873C4.75986 3.05447 4.80398 3.09859 4.85971 3.12057L6.55892 3.79073C6.74148 3.86273 6.74148 4.12109 6.55892 4.19309L4.85971 4.86324C4.80398 4.88523 4.75986 4.92934 4.73788 4.98508L4.06772 6.68429C3.99572 6.86684 3.73736 6.86684 3.66536 6.68429L2.9952 4.98508C2.97322 4.92934 2.9291 4.88523 2.87337 4.86324L1.17416 4.19309C0.991604 4.12109 0.991604 3.86273 1.17416 3.79073L2.87337 3.12057C2.9291 3.09859 2.97322 3.05447 2.9952 2.99873L3.66536 1.29952Z" fill="#6F2888"/>
</svg>