<svg xmlns="http://www.w3.org/2000/svg" xmlns:xlink="http://www.w3.org/1999/xlink" style="width:100%;height:100%;" viewBox="0 0 162 124">
<g clip-path="url(#svg1950433860_6920_clip0_21_3012)">
<g clip-path="url(#svg1950433860_6920_clip1_21_3012)">
<g clip-path="url(#svg1950433860_6920_clip2_21_3012)">
<g filter="url(#svg1950433860_6920_filter0_f_21_3012)">
<path fill-rule="evenodd" clip-rule="evenodd" d="M120.96 81.3388L120.807 81.2368C119.164 80.1488 117.525 79.0628 115.787 78.1128C109.814 74.8448 102.914 72.7128 96.0781 72.6208C95.7917 72.6173 95.5156 72.7274 95.3102 72.927C95.1048 73.1266 94.9868 73.3994 94.9821 73.6858C94.9788 73.9721 95.0892 74.248 95.289 74.453C95.4888 74.6581 95.7618 74.7756 96.048 74.7798C102.535 74.8638 109.081 76.9058 114.748 80.0068C116.465 80.9468 118.085 82.0218 119.709 83.0978C120.567 83.6727 121.431 84.2377 122.302 84.7928C122.642 85.0168 123.36 85.4888 123.571 85.5598C124.182 85.7718 124.571 85.4698 124.733 85.3058C124.869 85.1718 125.001 84.9778 125.064 84.6958C125.114 84.4648 125.106 84.0028 124.963 83.3878C124.667 82.0868 123.821 79.7078 123.222 78.0218C122.913 77.1518 122.669 76.4658 122.6 76.2068C120.544 68.5298 119.752 61.0198 118.93 53.2358C118.82 52.1878 118.709 51.1358 118.594 50.0758C118.562 49.7911 118.419 49.5306 118.196 49.3511C117.972 49.1716 117.687 49.0878 117.402 49.1178C117.261 49.1331 117.125 49.1761 117 49.2442C116.876 49.3123 116.766 49.4042 116.677 49.5147C116.589 49.6252 116.523 49.7521 116.483 49.8882C116.443 50.0243 116.431 50.1669 116.446 50.3078C116.556 51.3288 116.664 52.3448 116.771 53.3578C117.497 60.2298 118.201 66.8888 119.738 73.6278C109.993 56.6598 91.7131 51.5618 73.1241 53.0778C54.8741 54.5648 36.3671 62.4648 25.5341 71.5818C26.0661 70.5918 26.5201 69.7358 26.7571 69.2818C27.1221 68.5788 27.6801 67.6388 28.3331 66.5368C30.2491 63.3068 32.9881 58.6868 34.1331 54.5808C35.3061 50.3808 34.8181 46.7038 31.0671 44.9798C27.6571 43.4128 23.6251 44.8928 19.6691 48.1958C11.1541 55.3048 2.76706 70.7098 1.43706 76.0178C1.36757 76.2956 1.41129 76.5896 1.5586 76.8352C1.70591 77.0808 1.94474 77.2578 2.22256 77.3273C2.50037 77.3968 2.79441 77.3531 3.03999 77.2058C3.28557 77.0584 3.46257 76.8196 3.53206 76.5418C4.81006 71.4488 12.8801 56.6758 21.0541 49.8518C24.2491 47.1838 27.4101 45.6748 30.1641 46.9418C32.8831 48.1898 32.9021 50.9558 32.0521 54.0018C30.9441 57.9788 28.2781 62.4408 26.4051 65.5758C25.7551 66.6658 25.2001 67.5938 24.8391 68.2868C24.5491 68.8448 23.9691 69.9118 23.3161 71.1118C21.9961 73.5408 20.3761 76.5158 20.2621 76.9288C20.0471 77.6988 20.5561 78.0688 20.7321 78.1778C20.8681 78.2628 21.5761 78.6398 22.2071 77.8878C31.2071 67.1638 52.4451 56.9298 73.2971 55.2298C93.2631 53.6018 112.925 59.8428 120.96 81.3388Z" fill="url(#svg1950433860_6920_paint0_linear_21_3012)" fill-opacity="0.5"/>
</g>
<path fill-rule="evenodd" clip-rule="evenodd" d="M120.96 78.4998L120.807 78.3978C119.164 77.3098 117.525 76.2238 115.787 75.2738C109.814 72.0058 102.914 69.8738 96.0781 69.7818C95.7917 69.7783 95.5156 69.8884 95.3102 70.088C95.1048 70.2876 94.9868 70.5604 94.9821 70.8468C94.9786 71.1332 95.0889 71.4094 95.2887 71.6146C95.4885 71.8199 95.7616 71.9376 96.048 71.9418C102.535 72.0258 109.081 74.0668 114.748 77.1678C116.465 78.1078 118.085 79.1828 119.709 80.2598C120.512 80.7928 121.316 81.3258 122.133 81.8438L122.302 81.9538C122.642 82.1778 123.36 82.6498 123.571 82.7218C124.182 82.9328 124.571 82.6308 124.733 82.4678C124.869 82.3328 125.001 82.1388 125.064 81.8578C125.114 81.6258 125.106 81.1638 124.963 80.5488C124.667 79.2488 123.821 76.8688 123.222 75.1828C122.913 74.3128 122.669 73.6268 122.6 73.3688C120.544 65.6918 119.752 58.1818 118.93 50.3968C118.82 49.3488 118.709 48.2968 118.594 47.2368C118.562 46.9521 118.419 46.6915 118.196 46.5121C117.972 46.3326 117.687 46.2487 117.402 46.2788C117.261 46.294 117.124 46.3368 117 46.4049C116.876 46.4729 116.766 46.5649 116.677 46.6754C116.588 46.786 116.522 46.9129 116.483 47.0491C116.443 47.1852 116.431 47.3278 116.446 47.4688C116.556 48.4898 116.664 49.5068 116.771 50.5188C117.497 57.3918 118.201 64.0508 119.738 70.7898C109.993 53.8208 91.7131 48.7228 73.1241 50.2398C54.8741 51.7268 36.3671 59.6258 25.5341 68.7428C26.0661 67.7528 26.5201 66.8968 26.7571 66.4428C27.1221 65.7408 27.6801 64.8008 28.3331 63.6988C30.2491 60.4688 32.9881 55.8488 34.1331 51.7428C35.3061 47.5428 34.8181 43.8658 31.0671 42.1408C27.6571 40.5738 23.6251 42.0548 19.6691 45.3568C11.1541 52.4668 2.76705 67.8718 1.43705 73.1788C1.40265 73.3163 1.39567 73.4593 1.41653 73.5996C1.43738 73.7398 1.48566 73.8746 1.5586 73.9962C1.63154 74.1178 1.72771 74.2238 1.84164 74.3083C1.95556 74.3927 2.08499 74.4539 2.22255 74.4883C2.36011 74.5227 2.5031 74.5297 2.64336 74.5088C2.78361 74.4879 2.91839 74.4397 3.03999 74.3667C3.16158 74.2938 3.26763 74.1976 3.35205 74.0837C3.43648 73.9698 3.49765 73.8403 3.53205 73.7028C4.81005 68.6098 12.8801 53.8378 21.0541 47.0128C24.2491 44.3458 27.4101 42.8368 30.1641 44.1028C32.8831 45.3518 32.9021 48.1178 32.0521 51.1628C30.9441 55.1408 28.2781 59.6028 26.4051 62.7378C25.7551 63.8268 25.2001 64.7548 24.8391 65.4478C24.5491 66.0058 23.9691 67.0728 23.3161 68.2728C21.9961 70.7018 20.3761 73.6778 20.2621 74.0898C20.0471 74.8608 20.5561 75.2298 20.7321 75.3398C20.8681 75.4238 21.5761 75.7998 22.2071 75.0488C31.2071 64.3248 52.4451 54.0918 73.2971 52.3908C93.2631 50.7628 112.925 57.0048 120.96 78.4998Z" fill="url(#svg1950433860_6920_paint1_linear_21_3012)"/>
<path d="M1 25.7127L33.624 20.2397L30.002 50.1537L7.968 74.8867L1 75.4507V25.7127Z" fill="#0D0817"/>
<path d="M1 25.7127L33.624 20.2397L30.002 50.1537L7.968 74.8867L1 75.4507V25.7127Z" fill="#0D0817"/>
</g>
</g>
</g>
<defs>
<filter id="svg1950433860_6920_filter0_f_21_3012" x="-13.5952" y="29.3528" width="153.687" height="71.2798" filterUnits="userSpaceOnUse" color-interpolation-filters="sRGB">
<feFlood flood-opacity="0" result="BackgroundImageFix"/>
<feBlend mode="normal" in="SourceGraphic" in2="BackgroundImageFix" result="shape"/>
<feGaussianBlur stdDeviation="7.5" result="effect1_foregroundBlur_21_3012"/>
</filter>
<linearGradient id="svg1950433860_6920_paint0_linear_21_3012" x1="5.89706" y1="52.8368" x2="126.72" y2="76.0928" gradientUnits="userSpaceOnUse">
<stop stop-color="#FF2F2F" stop-opacity="0"/>
<stop offset="0.363" stop-color="#EF7B16"/>
<stop offset="0.698" stop-color="#8A43E1"/>
<stop offset="1" stop-color="#D511FD" stop-opacity="0"/>
</linearGradient>
<linearGradient id="svg1950433860_6920_paint1_linear_21_3012" x1="5.89705" y1="49.9988" x2="126.72" y2="73.2538" gradientUnits="userSpaceOnUse">
<stop stop-color="#E0B6FF"/>
<stop offset="0.363" stop-color="#E0B6FF"/>
<stop offset="0.698" stop-color="#C156E6"/>
<stop offset="1" stop-color="#C156E6"/>
</linearGradient>
<clipPath id="svg1950433860_6920_clip0_21_3012">
<rect width="162" height="123" fill="white" transform="translate(0 0.184814)"/>
</clipPath>
<clipPath id="svg1950433860_6920_clip1_21_3012">
<rect width="126" height="123" fill="white" transform="translate(0 0.184814)"/>
</clipPath>
<clipPath id="svg1950433860_6920_clip2_21_3012">
<rect width="155" height="123" fill="white" transform="translate(-14.5 0.184814)"/>
</clipPath>
</defs>
</svg>