<svg xmlns="http://www.w3.org/2000/svg" xmlns:xlink="http://www.w3.org/1999/xlink" style="width:100%;height:100%;" viewBox="0 0 36 35">
<path d="M16.9007 2.78743C17.2941 1.78986 18.7059 1.78986 19.0993 2.78743L22.7614 12.0728C22.8816 12.3774 23.1226 12.6184 23.4272 12.7386L32.7126 16.4007C33.7101 16.7941 33.7101 18.2059 32.7126 18.5993L23.4272 22.2614C23.1226 22.3816 22.8816 22.6226 22.7614 22.9272L19.0993 32.2126C18.7059 33.2101 17.2941 33.2101 16.9007 32.2126L13.2386 22.9272C13.1184 22.6226 12.8774 22.3816 12.5728 22.2614L3.28743 18.5993C2.28986 18.2059 2.28986 16.7941 3.28743 16.4007L12.5728 12.7386C12.8774 12.6184 13.1184 12.3774 13.2386 12.0728L16.9007 2.78743Z" fill="#6F2888"/>
</svg>