<svg xmlns="http://www.w3.org/2000/svg" xmlns:xlink="http://www.w3.org/1999/xlink" style="width:100%;height:100%;" viewBox="0 0 12 11">
<path d="M5.65449 0.876049C5.77814 0.562525 6.22186 0.562526 6.34551 0.87605L7.49645 3.79431C7.5342 3.89003 7.60997 3.9658 7.70569 4.00355L10.624 5.15449C10.9375 5.27814 10.9375 5.72186 10.624 5.84551L7.70569 6.99645C7.60997 7.0342 7.5342 7.10997 7.49645 7.20569L6.34551 10.124C6.22186 10.4375 5.77814 10.4375 5.65449 10.124L4.50355 7.20569C4.4658 7.10997 4.39003 7.0342 4.29431 6.99645L1.37605 5.84551C1.06253 5.72186 1.06253 5.27814 1.37605 5.15449L4.29431 4.00355C4.39003 3.9658 4.4658 3.89003 4.50355 3.79431L5.65449 0.876049Z" fill="#6F2888"/>
</svg>