<svg xmlns="http://www.w3.org/2000/svg" xmlns:xlink="http://www.w3.org/1999/xlink" style="width:100%;height:100%;" viewBox="0 0 26 31">
<path d="M20.2397 0.829411C22.0509 0.897183 23.4997 2.01818 24.1505 3.68551C24.8143 5.38741 24.7549 7.3846 24.4181 9.2013C23.9713 11.6113 23.1062 13.9336 21.9486 16.1002C20.5996 18.6234 18.9004 21.0023 16.8512 23.237C15.1831 25.0551 13.3222 26.6857 11.2379 27.9934C9.70262 28.9561 8.03737 29.7348 6.28014 30.0536C5.37007 30.2186 4.5107 30.2175 3.70205 30.0501C0.65647 29.4194 -0.187911 26.2542 0.226326 23.5703C0.234625 23.515 0.252374 23.5117 0.279575 23.5606C0.38469 23.7494 0.581783 23.9963 0.588007 24.2162C0.646097 26.3123 1.35079 28.4409 3.6654 28.9623C4.14257 29.0697 4.62688 29.096 5.11834 29.0411C7.29119 28.7991 9.36583 27.6816 11.1099 26.36C12.5184 25.2923 13.8683 24.0721 15.1596 22.6996C17.2398 20.4881 18.9673 18.1675 20.3421 15.7378C21.5516 13.5995 22.535 11.251 23.0952 8.90532C23.6636 6.525 23.8655 2.94278 21.1318 1.78375C19.9458 1.28099 18.5655 1.44835 17.3546 1.76093C17.3034 1.7743 17.252 1.7743 17.2004 1.76093L16.6679 1.62677C16.6195 1.61432 16.6181 1.59795 16.6637 1.57767C17.8007 1.07422 18.9583 0.781003 20.2397 0.829411Z" fill="white"/>
<path d="M1.54932 13.727C2.20767 10.7091 4.05411 7.9941 6.62874 6.29565C10.4834 3.75352 15.6583 3.85103 19.5095 6.37172C20.0766 6.74239 20.4092 7.10891 20.3643 7.79424C20.3435 8.10451 20.2859 8.46228 20.1914 8.86752C19.5503 11.613 18.2267 14.1371 16.6569 16.5008C14.4045 19.8936 11.6335 22.8977 8.26356 24.9744C7.91779 25.1874 7.57432 25.3517 7.23315 25.4675C6.61122 25.6786 6.0317 25.5673 5.4946 25.1334C5.49088 25.1303 5.4882 25.1262 5.48695 25.1215C5.48569 25.1168 5.48593 25.1118 5.48763 25.1073C5.48933 25.1029 5.4924 25.0991 5.49639 25.0966C5.50038 25.094 5.50508 25.0929 5.50982 25.0933C6.22626 25.1383 7.11628 24.5235 7.69303 24.1252C10.5194 22.175 12.8036 19.5167 14.6403 16.5437C15.7994 14.6669 16.7198 12.7374 17.1527 10.6407C17.2565 10.1393 17.3277 9.56806 16.9349 9.17872C16.8187 9.06392 16.6829 8.95604 16.5276 8.85507C14.6982 7.67022 12.6881 7.12689 10.4973 7.22509C8.38066 7.32007 6.50772 8.02337 4.87843 9.33501C3.24223 10.6524 1.95871 12.5583 1.43383 14.644C1.43198 14.6523 1.42668 14.6558 1.41792 14.6544L1.39787 14.6509C1.39694 14.6505 1.39648 14.6498 1.39648 14.6489C1.43198 14.34 1.48293 14.0327 1.54932 13.727Z" fill="white"/>
<path d="M18.9135 26.2381C18.9734 26.2455 19.0338 26.2464 19.0947 26.2409C20.8913 26.0708 22.5179 25.1724 23.7557 23.862C24.3873 23.1925 24.9076 22.453 25.3166 21.6435C25.3189 21.6393 25.3221 21.6382 25.3262 21.64L25.3449 21.6483C25.3518 21.6515 25.3539 21.6566 25.3511 21.6635C24.4968 23.8175 23.1658 25.5888 21.3581 26.9774C19.0795 28.7284 16.1411 29.6302 13.2705 29.4718C13.2271 29.4695 13.2239 29.4568 13.2608 29.4338C14.2723 28.7948 15.2879 28.026 16.3078 27.1274C18.9186 24.8251 21.1417 22.0821 22.977 18.8987C24.036 17.0606 24.8641 15.1448 25.4611 13.1512C25.4749 13.1061 25.4892 13.1058 25.504 13.1506C25.6404 13.5549 25.7585 13.9661 25.858 14.3843C25.8802 14.4756 25.8774 14.5692 25.8497 14.665C25.6607 15.3202 25.4514 15.9476 25.2218 16.5474C24.2103 19.1905 22.8692 21.5854 21.1984 23.7319C20.4769 24.6586 19.7125 25.4848 18.9052 26.2105C18.9029 26.2125 18.9013 26.2151 18.9005 26.218C18.8996 26.2209 18.8996 26.224 18.9005 26.2269C18.9014 26.2299 18.9031 26.2324 18.9054 26.2344C18.9077 26.2364 18.9105 26.2377 18.9135 26.2381Z" fill="white"/>
</svg>