<svg xmlns="http://www.w3.org/2000/svg" xmlns:xlink="http://www.w3.org/1999/xlink" style="width:100%;height:100%;" viewBox="0 0 80 48">
<g clip-path="url(#svg767062324_2223_clip0_21_3008)">
<g clip-path="url(#svg767062324_2223_clip1_21_3008)">
<g clip-path="url(#svg767062324_2223_clip2_21_3008)">
<path fill-rule="evenodd" clip-rule="evenodd" d="M14.3536 44.0447C10.2574 42.895 5.96951 42.3148 1.8082 41.7851C0.913393 41.673 0.0800464 42.2949 0.0167771 43.1698C-0.040072 43.5851 0.0693156 44.0061 0.321161 44.3412C0.573006 44.6763 0.946949 44.8985 1.3617 44.9594C5.39285 45.471 9.55416 46.0169 13.457 47.1232C13.8663 47.2344 14.3028 47.1814 14.6736 46.9754C15.0443 46.7694 15.32 46.4268 15.4418 46.0205C15.5004 45.8193 15.5188 45.6086 15.4958 45.4003C15.4728 45.192 15.4089 44.9903 15.3078 44.8068C15.2067 44.6232 15.0704 44.4614 14.9066 44.3307C14.7429 44.1999 14.5549 44.1027 14.3536 44.0447ZM26.7706 27.7484C20.178 21.0202 12.7538 15.1596 6.28947 8.25061C6.14822 8.09698 5.97783 7.97295 5.78821 7.88576C5.5986 7.79857 5.39354 7.74994 5.18497 7.74271C4.97639 7.73547 4.76846 7.76978 4.57326 7.84363C4.37806 7.91748 4.19949 8.0294 4.04793 8.17288C3.89177 8.31527 3.76591 8.48767 3.67786 8.67979C3.58982 8.87191 3.5414 9.07981 3.53549 9.29106C3.52959 9.50231 3.56632 9.71258 3.64349 9.90932C3.72067 10.1061 3.8367 10.2852 3.98466 10.4361C10.449 17.3632 17.8732 23.2436 24.4658 29.9899C24.7715 30.2933 25.1836 30.4651 25.6142 30.4688C26.0448 30.4726 26.4598 30.3078 26.7706 30.0098C27.3455 29.3916 27.4105 28.3775 26.7706 27.7484ZM39.1244 1.87127L39.6992 13.4224C39.6992 14.3064 40.4675 14.9861 41.3623 14.9445C42.2607 14.9011 42.8989 14.1491 42.8989 13.267L42.324 1.69773C42.2911 1.2696 42.0917 0.871418 41.7687 0.588568C41.4456 0.305718 41.0246 0.160727 40.5959 0.184689C40.1784 0.215755 39.7899 0.409948 39.5145 0.725249C39.2392 1.04055 39.099 1.4516 39.1244 1.86946V1.87127Z" fill="#C156E6"/>
</g>
</g>
</g>
<defs>
<clipPath id="svg767062324_2223_clip0_21_3008">
<rect width="79.3846" height="47" fill="white" transform="translate(0 0.184814)"/>
</clipPath>
<clipPath id="svg767062324_2223_clip1_21_3008">
<rect width="43.3846" height="47" fill="white" transform="translate(0 0.184814)"/>
</clipPath>
<clipPath id="svg767062324_2223_clip2_21_3008">
<rect width="45.1923" height="47" fill="white" transform="translate(-0.903687 0.184814)"/>
</clipPath>
</defs>
</svg>