<svg xmlns="http://www.w3.org/2000/svg" xmlns:xlink="http://www.w3.org/1999/xlink" style="width:100%;height:100%;" viewBox="0 0 27 28">
<path d="M12.7073 2.64113C13.0095 1.87486 14.094 1.87486 14.3962 2.64113L17.2092 9.77356C17.3015 10.0075 17.4867 10.1927 17.7206 10.285L24.853 13.098C25.6193 13.4002 25.6193 14.4846 24.8531 14.7869L17.7206 17.5998C17.4867 17.6921 17.3015 17.8773 17.2092 18.1112L14.3962 25.2437C14.094 26.0099 13.0095 26.01 12.7073 25.2437L9.89434 18.1112C9.80207 17.8773 9.61688 17.6921 9.38294 17.5998L2.25051 14.7869C1.48423 14.4846 1.48423 13.4002 2.25051 13.098L9.38294 10.285C9.61688 10.1927 9.80207 10.0075 9.89434 9.77356L12.7073 2.64113Z" fill="#6F2888"/>
</svg>