<svg xmlns="http://www.w3.org/2000/svg" xmlns:xlink="http://www.w3.org/1999/xlink" style="width:100%;height:100%;" viewBox="0 0 28 27">
<path d="M13.098 2.14113C13.4002 1.37486 14.4846 1.37486 14.7869 2.14113L17.5998 9.27356C17.6921 9.50751 17.8773 9.6927 18.1112 9.78496L25.2437 12.598C26.0099 12.9002 26.01 13.9846 25.2437 14.2869L18.1112 17.0998C17.8773 17.1921 17.6921 17.3773 17.5998 17.6112L14.7869 24.7437C14.4846 25.5099 13.4002 25.51 13.098 24.7437L10.285 17.6112C10.1927 17.3773 10.0075 17.1921 9.77356 17.0998L2.64113 14.2869C1.87486 13.9846 1.87486 12.9002 2.64113 12.598L9.77356 9.78496C10.0075 9.6927 10.1927 9.50751 10.285 9.27356L13.098 2.14113Z" fill="#6F2888"/>
</svg>