<svg xmlns="http://www.w3.org/2000/svg" xmlns:xlink="http://www.w3.org/1999/xlink" style="width:100%;height:100%;" viewBox="0 0 8 7">
<path d="M3.88411 0.799525C3.95611 0.61697 4.21447 0.61697 4.28647 0.799525L4.95663 2.49873C4.97861 2.55447 5.02273 2.59859 5.07846 2.62057L6.77767 3.29073C6.96023 3.36273 6.96023 3.62109 6.77767 3.69309L5.07846 4.36324C5.02273 4.38523 4.97861 4.42934 4.95663 4.48508L4.28647 6.18429C4.21447 6.36684 3.95611 6.36684 3.88411 6.18429L3.21395 4.48508C3.19197 4.42934 3.14785 4.38523 3.09212 4.36324L1.39291 3.69309C1.21035 3.62109 1.21035 3.36273 1.39291 3.29073L3.09212 2.62057C3.14785 2.59859 3.19197 2.55447 3.21395 2.49873L3.88411 0.799525Z" fill="#6F2888"/>
</svg>