<svg xmlns="http://www.w3.org/2000/svg" xmlns:xlink="http://www.w3.org/1999/xlink" style="width:100%;height:100%;" viewBox="0 0 36 36">
<g clip-path="url(#svg923028117_12219_clip0_85_2385)">
<path d="M18.7018 28.2555C18.6335 28.1433 18.5738 28.0743 18.5439 27.9967C18.305 27.3885 18.0703 26.7803 17.8441 26.1722C17.5881 25.4864 17.3406 24.8006 17.0889 24.1148C16.7561 23.2133 16.4062 22.3205 16.0862 21.4147C15.8771 20.8195 15.6936 20.2156 15.5144 19.6118C15.4077 19.2581 15.5827 18.9131 15.9283 18.7707C16.099 18.7017 16.2782 18.6586 16.4574 18.6068C16.5555 18.5766 16.7049 18.5809 16.6963 18.4429C16.6878 18.2833 16.5342 18.3135 16.4275 18.3135C15.3266 18.3178 14.2258 18.3221 13.1206 18.3308C13.014 18.3308 12.9073 18.3308 12.8006 18.3351C12.1563 18.3653 11.7083 17.9598 11.6912 17.2956C11.6656 16.2604 11.6614 15.2253 11.6443 14.1901C11.6443 14.0693 11.64 13.9442 11.64 13.8235C11.64 13.5862 11.6955 13.5302 11.9259 13.5259C12.3313 13.5172 12.7366 13.5129 13.142 13.4957C13.9314 13.4612 14.7207 13.4008 15.4845 13.1894C16.3422 12.9479 17.1145 12.5381 17.6735 11.8135C18.3391 10.9509 18.5439 9.98903 18.3007 8.91073C18.0617 7.84968 17.4174 7.12075 16.5171 6.6161C15.9453 6.29261 15.3138 6.1244 14.6482 6.06401C13.5772 5.96912 12.5019 5.96481 11.4309 5.98637C10.3941 6.00794 9.35722 6.02088 8.3161 6.03382C8.24782 6.03382 8.18382 6.01657 8.11555 6.00363C8.08995 5.82678 8.20089 5.75777 8.29903 5.69739C8.90066 5.33077 9.49377 4.94258 10.1167 4.61909C10.6842 4.32579 11.2816 4.09288 11.8747 3.85565C12.2758 3.69606 12.6897 3.56666 13.1078 3.43727C14.1191 3.13103 15.1602 2.97575 16.2099 2.87655C17.4132 2.76441 18.6079 2.81185 19.8026 2.97575C20.6091 3.0879 21.4027 3.24317 22.1793 3.48471C22.7127 3.64861 23.2418 3.84271 23.7581 4.05837C24.2957 4.28266 24.8248 4.52851 25.3411 4.79593C25.755 5.01159 26.1561 5.26607 26.5444 5.52917C27.6538 6.26673 28.648 7.14663 29.5355 8.14298C30.0518 8.72526 30.5425 9.33774 30.935 10.0106C31.2977 10.6317 31.669 11.2571 31.9719 11.9127C32.2407 12.495 32.4541 13.1118 32.6375 13.7243C32.8125 14.3152 32.9362 14.9233 33.0557 15.5272C33.1197 15.855 33.1325 16.1957 33.1624 16.5322C33.2733 17.6665 33.2306 18.8052 33.0728 19.931C33.0002 20.4529 32.8637 20.9705 32.7271 21.4837C32.5821 22.0143 32.4157 22.5448 32.2279 23.0624C32.0914 23.4462 31.9122 23.8172 31.733 24.1838C31.3788 24.8998 30.9606 25.5727 30.4998 26.2196C29.8896 27.0736 29.2069 27.863 28.4261 28.5574C28.0549 28.8895 27.6794 29.2216 27.2826 29.5235C26.5828 30.0498 25.8489 30.5328 25.0638 30.9253C24.987 30.9642 24.9229 31.0245 24.8461 31.059C24.7821 31.0849 24.7053 31.0849 24.6328 31.0936C24.6243 31.0202 24.5944 30.9383 24.6157 30.8779C24.7736 30.507 24.9486 30.149 25.1064 29.778C25.2174 29.5149 25.3198 29.2475 25.4136 28.9758C25.7849 27.8888 26.1518 26.8019 26.523 25.715C26.8772 24.6755 27.2314 23.636 27.5855 22.5965C27.7647 22.0617 27.9226 21.5139 28.1189 20.9834C28.3493 20.3537 28.584 19.7196 29.032 19.1934C29.2965 18.8872 29.6251 18.7103 29.9963 18.5939C30.0902 18.5637 30.2225 18.5637 30.2054 18.43C30.1883 18.2876 30.0518 18.3049 29.9451 18.3049C28.8485 18.3049 27.7562 18.3092 26.6596 18.3092C26.6511 18.3092 26.6425 18.3049 26.6383 18.3092C26.5614 18.3437 26.4249 18.3653 26.4164 18.4127C26.3908 18.5421 26.5188 18.5594 26.6127 18.5853C26.9199 18.6672 27.2399 18.719 27.5087 18.9131C27.7519 19.0899 27.8629 19.3056 27.8629 19.6247C27.8629 20.1811 27.7135 20.7074 27.5556 21.2249C27.2954 22.0962 27.0095 22.9632 26.7236 23.8301C26.4633 24.6194 26.1945 25.4087 25.9342 26.1981C25.7507 26.7502 25.5715 27.3022 25.3838 27.85C25.3582 27.9277 25.2814 27.988 25.2302 28.0571C25.1747 27.9924 25.0894 27.9363 25.0595 27.8587C24.7651 27.0521 24.4792 26.2412 24.1976 25.4303C24.0184 24.917 23.8434 24.3995 23.6642 23.8862C23.4935 23.4074 23.3143 22.9287 23.1479 22.4499C22.9516 21.8892 22.7682 21.3241 22.5804 20.7591C22.4823 20.4615 22.4097 20.1509 22.286 19.862C22.03 19.2624 22.286 18.9734 22.8492 18.7492C23.0498 18.6672 23.2759 18.65 23.4935 18.6025C23.5959 18.5809 23.741 18.5723 23.7325 18.4386C23.7239 18.2833 23.5703 18.3049 23.4637 18.3049C22.5889 18.3135 21.7142 18.3308 20.8438 18.3351C20.1611 18.3351 19.4784 18.3178 18.7957 18.3092C18.689 18.3092 18.5823 18.3006 18.4756 18.3178C18.4244 18.3265 18.3818 18.3868 18.3348 18.4257C18.3775 18.4731 18.4116 18.5464 18.4671 18.5637C18.6719 18.6284 18.881 18.6672 19.0858 18.7233C19.4912 18.8397 19.7984 19.1028 19.9648 19.4824C20.2763 20.1811 20.5622 20.8928 20.8395 21.6088C20.8907 21.7382 20.8992 21.9151 20.8566 22.0444C20.5878 22.8855 20.3061 23.7223 20.0245 24.5547C19.7856 25.2535 19.5381 25.9522 19.2991 26.651C19.137 27.1168 18.9834 27.5869 18.8213 28.0571C18.8127 28.1131 18.7658 28.1606 18.7018 28.2555Z" fill="white"/>
<path d="M21.2449 22.5963C21.326 22.8162 21.407 23.0362 21.4838 23.2562C21.5948 23.5667 21.7014 23.8773 21.8081 24.1921C21.9873 24.7054 22.1708 25.2187 22.35 25.7363C22.542 26.2841 22.7255 26.8361 22.9133 27.3839C23.101 27.9274 23.2887 28.4665 23.485 29.0057C23.6685 29.519 23.8562 30.0279 24.0483 30.5369C24.1251 30.7396 24.2104 30.9337 24.2915 31.1321C24.3427 31.2572 24.2744 31.3262 24.172 31.365C23.5448 31.5979 22.9218 31.8395 22.2903 32.0551C21.4241 32.3484 20.528 32.5166 19.6277 32.6288C18.9962 32.7064 18.3519 32.728 17.7119 32.7366C17.1102 32.7452 16.5001 32.7323 15.9027 32.6676C15.2413 32.5986 14.58 32.4821 13.9271 32.3355C13.2999 32.1931 12.6769 32.0034 12.0625 31.7963C11.5974 31.6411 11.1451 31.447 10.7056 31.2313C10.1082 30.938 9.51085 30.6318 8.93909 30.2824C7.62487 29.4715 6.46854 28.4708 5.46155 27.2933C4.84711 26.5773 4.27961 25.8182 3.82305 24.9901C3.54143 24.4768 3.28542 23.9463 3.05074 23.4071C2.84166 22.937 2.65391 22.4539 2.5003 21.9622C2.35096 21.4705 2.25282 20.9616 2.13762 20.4569C1.93707 19.5641 1.87307 18.6497 1.8816 17.7396C1.89013 16.864 1.9328 15.9884 2.14188 15.1301C2.24856 14.6901 2.31256 14.2416 2.44057 13.8103C2.58991 13.3013 2.76485 12.7967 2.96966 12.3136C3.20008 11.7658 3.46036 11.231 3.74198 10.7091C3.95532 10.3122 4.20707 9.93699 4.45882 9.56606C5.07752 8.66891 5.7773 7.8494 6.57095 7.11184C6.89523 6.80992 7.23659 6.52956 7.57367 6.24057C7.69741 6.13274 7.79982 6.14137 7.95769 6.21901C8.1241 6.30527 8.33745 6.32253 8.52946 6.3484C8.80254 6.38722 9.05429 6.46917 9.26764 6.65464C9.49805 6.85305 9.60899 7.11616 9.62179 7.41377C9.65166 8.12545 9.673 8.83713 9.67726 9.54881C9.68153 11.2957 9.68153 13.0425 9.66873 14.7894C9.66446 15.5744 9.64313 16.355 9.60046 17.1401C9.58766 17.3859 9.52792 17.6447 9.42978 17.869C9.27191 18.2184 8.94762 18.3779 8.59347 18.4728C8.45692 18.5073 8.31612 18.5289 8.17531 18.5591C8.0729 18.5807 7.96623 18.6152 7.98756 18.7446C8.00463 18.8653 8.1113 18.8653 8.20518 18.8653C8.78121 18.8567 9.35724 18.8395 9.93328 18.8351C10.7739 18.8308 11.6102 18.8351 12.4508 18.8308C12.8006 18.8308 12.9927 19.0594 13.1505 19.3225C13.4578 19.8358 13.654 20.3965 13.8546 20.9572C14.0125 21.3972 14.1874 21.8285 14.3495 22.2641C14.4775 22.6006 14.597 22.937 14.725 23.2734C14.8274 23.5408 14.9298 23.8083 15.0322 24.0757C15.1304 24.3388 15.2328 24.5976 15.3309 24.8607C15.6168 25.6241 15.907 26.3876 16.1929 27.1553C16.4403 27.8282 16.6793 28.5054 16.9268 29.1739C17.1102 29.6699 17.3108 30.1616 17.5028 30.6576C17.5412 30.7568 17.5668 30.8647 17.6009 30.9639C17.6393 31.0803 17.6991 31.1795 17.8313 31.1925C17.9722 31.2054 17.9978 31.0847 18.0404 30.9854C18.2282 30.5671 18.4245 30.153 18.6037 29.7346C18.7231 29.4586 18.8127 29.1696 18.9151 28.8892C19.0858 28.4148 19.2565 27.9446 19.4229 27.4702C19.7003 26.6766 19.9733 25.8829 20.2507 25.0893C20.5152 24.3215 20.7798 23.5581 21.0486 22.7904C21.0742 22.717 21.1297 22.6523 21.1723 22.5876C21.1937 22.5919 21.2193 22.5919 21.2449 22.5963Z" fill="white"/>
<path d="M17.5414 35.5541C16.4277 35.6145 15.3226 35.4765 14.2303 35.291C13.5177 35.1703 12.8136 34.9762 12.1181 34.7821C11.5634 34.6268 11.0173 34.4456 10.4839 34.2343C9.9036 34.0014 9.33183 33.7426 8.77286 33.4579C8.22243 33.1776 7.68906 32.8584 7.16423 32.5349C6.44739 32.0949 5.77748 31.586 5.13745 31.0382C4.42914 30.4344 3.75923 29.7874 3.16613 29.0714C2.67117 28.4718 2.2018 27.8464 1.77085 27.1994C1.39536 26.6344 1.0668 26.0349 0.746785 25.4353C0.533439 25.0299 0.375562 24.5986 0.187818 24.1802C0.149416 24.0939 0.10248 24.0163 0.0555435 23.9343C-0.0639303 23.723 0.0171412 23.5807 0.256089 23.5807C0.584642 23.5807 0.908928 23.5893 1.23748 23.5807C1.45083 23.572 1.58737 23.6583 1.67271 23.8524C1.83058 24.2061 1.97992 24.5641 2.16767 24.9005C2.47489 25.4569 2.78211 26.0176 3.12773 26.5482C3.7251 27.4712 4.42487 28.3166 5.21425 29.0714C5.73055 29.5631 6.27245 30.0289 6.82288 30.4818C7.53972 31.0727 8.32483 31.573 9.14835 32C9.84813 32.3624 10.5778 32.6729 11.3031 32.9791C12.2035 33.3587 13.1465 33.6132 14.1065 33.7943C14.8404 33.9324 15.5829 34.0273 16.3253 34.0876C17.52 34.1782 18.7105 34.1394 19.901 33.9798C20.8696 33.8504 21.8211 33.6391 22.7513 33.3458C23.6004 33.0783 24.4239 32.7462 25.2261 32.3624C26.216 31.8922 27.142 31.3272 28.0209 30.6759C29.0109 29.9426 29.9069 29.1102 30.7219 28.1785C31.3619 27.4453 31.9465 26.6646 32.4287 25.8192C32.7956 25.1809 33.0943 24.5037 33.4143 23.8438C33.4911 23.6799 33.6063 23.5936 33.777 23.5936C34.1397 23.5893 34.5024 23.585 34.8651 23.5936C35.0571 23.5979 35.1254 23.723 35.0443 23.9042C34.8395 24.3614 34.6603 24.8315 34.4256 25.2714C34.0629 25.9529 33.7002 26.643 33.2735 27.2814C32.8127 27.9672 32.3007 28.6271 31.7673 29.2568C31.1742 29.9556 30.5171 30.5939 29.8002 31.1633C29.2498 31.6032 28.6823 32.0259 28.1063 32.4271C27.7137 32.6988 27.2956 32.936 26.8774 33.1603C26.3824 33.4277 25.8832 33.6865 25.3712 33.9151C24.8848 34.1351 24.3898 34.3335 23.882 34.5017C23.2207 34.7217 22.555 34.9287 21.8766 35.084C21.2195 35.235 20.5496 35.3471 19.8797 35.4247C19.1031 35.5153 18.3222 35.5541 17.5456 35.6145C17.5456 35.5886 17.5456 35.5714 17.5414 35.5541Z" fill="white"/>
<path d="M33.8962 11.0071C33.717 11.0071 33.5421 11.0028 33.3629 11.0071C33.1751 11.0114 33.0642 10.9165 32.9746 10.7569C32.6503 10.1746 32.3431 9.58372 31.9804 9.02732C31.4513 8.21643 30.8368 7.47456 30.1712 6.77151C29.3946 5.95631 28.5498 5.21875 27.6196 4.59334C26.9753 4.16202 26.3096 3.7652 25.6269 3.39427C24.5175 2.79042 23.3356 2.36772 22.1153 2.03129C20.289 1.53096 18.4244 1.34118 16.5427 1.44901C14.8743 1.5439 13.2443 1.86739 11.6656 2.43242C10.5946 2.82061 9.55771 3.29075 8.57632 3.87303C7.45839 4.53727 6.42153 5.30933 5.47427 6.21511C4.7745 6.88365 4.13019 7.59965 3.55843 8.38034C3.20427 8.86342 2.89705 9.381 2.5813 9.89427C2.41062 10.1789 2.26128 10.4809 2.10341 10.7742C2.01807 10.9338 1.89433 11.0157 1.70658 11.0114C1.36523 11.0028 1.02387 11.0114 0.682521 11.0114C0.417972 11.0114 0.353968 10.8906 0.477709 10.6577C0.695322 10.248 0.8916 9.82095 1.12201 9.41982C1.40363 8.93243 1.69805 8.44503 2.0138 7.97921C2.5813 7.14245 3.22987 6.36607 3.93391 5.64576C4.7489 4.809 5.63642 4.06281 6.59647 3.39858C7.44986 2.80767 8.34164 2.29871 9.2761 1.85014C10.586 1.22041 11.9472 0.758898 13.3638 0.448347C14.3153 0.241313 15.2754 0.0817241 16.2525 0.0515316C16.4957 0.0429052 16.7347 0.017026 16.9779 0.00839954C18.2153 -0.0304193 19.4442 0.0515316 20.673 0.249939C21.8592 0.444034 23.007 0.741645 24.1378 1.14709C25.1405 1.50508 26.0963 1.95366 27.0222 2.47124C27.7775 2.89394 28.4986 3.35976 29.177 3.89029C30.1925 4.68392 31.1355 5.55087 31.9676 6.54291C32.6119 7.31066 33.205 8.11723 33.7127 8.98419C33.9944 9.46295 34.2333 9.9676 34.4936 10.4636C34.5405 10.5499 34.6045 10.6318 34.6429 10.7224C34.724 10.8949 34.6557 11.0071 34.468 11.0071C34.2802 11.0114 34.0882 11.0071 33.8962 11.0071Z" fill="white"/>
<path d="M11.6228 9.94575C11.6484 8.98391 11.6697 8.02206 11.7039 7.06022C11.7081 6.89631 11.7508 6.73241 11.7807 6.57282C11.8105 6.42186 11.9087 6.33128 12.0623 6.32266C12.8517 6.28384 13.6496 6.24071 14.4006 6.534C14.9553 6.74966 15.4289 7.10766 15.7873 7.59937C16.4828 8.54827 16.6151 9.58344 16.2951 10.7006C16.0476 11.5675 15.5185 12.2102 14.759 12.6588C14.328 12.9132 13.8459 13.0685 13.3509 13.116C12.8687 13.1634 12.3866 13.1677 11.9044 13.1807C11.6868 13.1893 11.6356 13.1246 11.6356 12.9176C11.6356 11.9255 11.6356 10.9335 11.6356 9.94144C11.6313 9.94575 11.6271 9.94575 11.6228 9.94575Z" fill="white"/>
</g>
<defs>
<clipPath id="svg923028117_12219_clip0_85_2385">
<rect width="35.0784" height="35.6098" fill="white"/>
</clipPath>
</defs>
</svg>