<svg xmlns="http://www.w3.org/2000/svg" xmlns:xlink="http://www.w3.org/1999/xlink" style="width:100%;height:100%;" viewBox="0 0 236 227">
<path d="M198.563 26.2121C198.671 25.7057 199.394 25.7057 199.502 26.2121L205.466 54.1231C205.506 54.3081 205.651 54.4527 205.836 54.4922L233.747 60.4567C234.253 60.5649 234.253 61.2874 233.747 61.3956L205.836 67.3601C205.651 67.3996 205.506 67.5442 205.466 67.7292L199.502 95.6402C199.394 96.1466 198.671 96.1466 198.563 95.6402L192.599 67.7292C192.559 67.5442 192.415 67.3996 192.23 67.3601L164.319 61.3956C163.812 61.2874 163.812 60.5649 164.319 60.4567L192.23 54.4922C192.415 54.4527 192.559 54.3081 192.599 54.1231L198.563 26.2121Z" fill="#C156E6"/>
<path d="M64.7577 179.372C64.8185 179.087 65.2241 179.087 65.2848 179.372L68.6333 195.041C68.6555 195.145 68.7367 195.226 68.8405 195.248L84.5099 198.597C84.7941 198.657 84.7941 199.063 84.5099 199.124L68.8405 202.472C68.7367 202.494 68.6555 202.576 68.6333 202.679L65.2848 218.349C65.2241 218.633 64.8185 218.633 64.7577 218.349L61.4093 202.679C61.3871 202.576 61.3059 202.494 61.202 202.472L45.5327 199.124C45.2484 199.063 45.2484 198.657 45.5327 198.597L61.202 195.248C61.3059 195.226 61.3871 195.145 61.4093 195.041L64.7577 179.372Z" fill="#C156E6"/>
<path d="M66.1129 22.6734C66.6632 18.7848 71.6107 17.4591 74.0316 20.5516L99.8735 53.5624C101.097 55.1249 103.206 55.69 105.046 54.9484L143.931 39.2812C147.574 37.8134 151.196 41.4353 149.728 45.078L134.061 83.9632C133.319 85.8037 133.885 87.9128 135.447 89.1359L168.458 114.978C171.55 117.399 170.225 122.346 166.336 122.896L124.827 128.771C122.862 129.049 121.318 130.593 121.04 132.558L115.166 174.067C114.616 177.955 109.668 179.281 107.247 176.189L81.4052 143.178C80.1821 141.615 78.073 141.05 76.2326 141.792L37.3473 157.459C33.7046 158.927 30.0828 155.305 31.5505 151.662L47.2178 112.777C47.9593 110.936 47.3942 108.827 45.8317 107.604L12.8209 81.7622C9.72842 79.3414 11.0541 74.3939 14.9427 73.8436L56.4519 67.9692C58.4166 67.6912 59.9605 66.1472 60.2385 64.1826L66.1129 22.6734Z" fill="#C156E6"/>
<path d="M216.088 209.264C220.135 213.31 220.135 219.87 216.088 223.916C212.042 227.962 205.482 227.962 201.436 223.916L133.657 156.137L135.491 143.183L148.208 141.383L216.088 209.264ZM76.3384 84.166C80.3846 80.1198 86.9445 80.1198 90.9907 84.166L134.275 127.45L124.876 128.781C122.912 129.059 121.367 130.604 121.089 132.568L119.725 142.205L76.3384 98.8184C72.2922 94.7721 72.2922 88.2122 76.3384 84.166Z" fill="#C156E6"/>
</svg>